<?xml version="1.0" standalone="no"?>
<svg>
<font id="PalatinoLTStd-BlackItalic" horiz-adv-x="29.6" >
<font-face units-per-em="100" ascent="80" descent="-20" />
<glyph unicode=" " horiz-adv-x="29.6" d="" />
<glyph unicode="!" horiz-adv-x="33.3" d="M13.4 21.5 C13.675 21.35 14.225 21.05 14.5 20.9 C15.525 21.275 17.575 22.025 18.6 22.4 C21.775 31.225 28.125 48.875 31.3 57.7 C31.9 59.4 34.4 67.7 35 69.6 C34.63333 70 34.175 70.5 33.9 70.8 C30.3 69.6 28.8 69.4 14.6 67.6 C14 63.3 13.4 51.3 13.4 46.8 C13.4 38.36667 13.4 27.825 13.4 21.5 zM22.3 9.8 C22.3 13.7 20.2 17.6 14.3 17.6 C8.3 17.6 5 11.7 5 6.3 C5 1.7 7.4 -1.6 12.8 -1.6 C20.7 -1.6 22.3 6.7 22.3 9.8 z" />
<glyph unicode="&#x22;" horiz-adv-x="51.9" d="M37.1 70.4 C33 70.4 30.8 67.6 30.8 62.9 C30.8 61.2 30.9 58.6 31.3 55.3 C31.8 50.8 32.425 45.175 32.8 41.8 C33 39.2 33.9 37.1 37.1 37.1 C39.9 37.1 41.2 39.2 41.4 41.8 C41.9 46.3 42.525 51.925 42.9 55.3 C43.3 58.6 43.4 61.2 43.4 62.9 C43.4 67.6 41.2 70.4 37.1 70.4 zM14.8 70.4 C10.7 70.4 8.5 67.6 8.5 62.9 C8.5 61.2 8.6 58.6 9 55.3 C9.5 50.8 10.125 45.175 10.5 41.8 C10.7 39.2 11.6 37.1 14.8 37.1 C17.6 37.1 18.9 39.2 19.1 41.8 C19.6 46.3 20.225 51.925 20.6 55.3 C21 58.6 21.1 61.2 21.1 62.9 C21.1 67.6 18.9 70.4 14.8 70.4 z" />
<glyph unicode="#" horiz-adv-x="59.2" d="M26.9 40.2 C29.25 40.2 33.95 40.2 36.3 40.2 C35.9 37.325 35.1 31.575 34.7 28.7 C32.35 28.7 27.65 28.7 25.3 28.7 C25.7 31.575 26.5 37.325 26.9 40.2 zM15.6 28.7 C13.2 28.7 8.4 28.7 6 28.7 C5.7 26.45 5.1 21.95 4.8 19.7 C7.175 19.7 11.925 19.7 14.3 19.7 C13.625 14.775 12.275 4.925 11.6 0 C14.025 0 18.875 0 21.3 0 C21.975 4.925 23.325 14.775 24 19.7 C26.35 19.7 31.05 19.7 33.4 19.7 C32.725 14.775 31.375 4.925 30.7 0 C33.125 0 37.975 0 40.4 0 C41.075 4.925 42.425 14.775 43.1 19.7 C45.5 19.7 50.3 19.7 52.7 19.7 C53 21.95 53.6 26.45 53.9 28.7 C51.525 28.7 46.775 28.7 44.4 28.7 C44.8 31.575 45.6 37.325 46 40.2 C48.4 40.2 53.2 40.2 55.6 40.2 C55.9 42.45 56.5 46.95 56.8 49.2 C54.425 49.2 49.675 49.2 47.3 49.2 C47.975 54.125 49.325 63.975 50 68.9 C47.575 68.9 42.725 68.9 40.3 68.9 C39.625 63.975 38.275 54.125 37.6 49.2 C35.25 49.2 30.55 49.2 28.2 49.2 C28.875 54.125 30.225 63.975 30.9 68.9 C28.475 68.9 23.625 68.9 21.2 68.9 C20.525 63.975 19.175 54.125 18.5 49.2 C16.1 49.2 11.3 49.2 8.9 49.2 C8.6 46.95 8 42.45 7.7 40.2 C10.075 40.2 14.825 40.2 17.2 40.2 C16.8 37.325 16 31.575 15.6 28.7 z" />
<glyph unicode="$" horiz-adv-x="59.2" d="M32.1 23.9 C36.1 22.5 39 20.3 39 16 C39 10 34.4 6.7 28.9 5.8 C29.96667 11.83333 31.3 19.375 32.1 23.9 zM29.7 44.7 C25.6 46.1 23.5 48.1 23.5 52.4 C23.5 58 27.5 61.1 32.7 61.7 C31.7 56.03333 30.45 48.95 29.7 44.7 zM33.9 68.6 C15.8 67.2 7.8 55.7 7.8 43.4 C7.8 30.4 17.3 28.7 26.4 25.7 C25.2 19 23.7 10.625 22.8 5.6 C19.9 6 17 7.1 14.6 9 C10.4 12.4 10.3 16.3 10.3 21.5 C10.13333 21.66667 9.925 21.875 9.8 22 C8.8 22 6.8 22 5.8 22 C5.675 21.875 5.425 21.625 5.3 21.5 C4.8 15.4 3.6 9 2.1 3.5 C2.33333 3.1 2.625 2.6 2.8 2.3 C7.7 0.3 15.5 -1.6 21.5 -1.9 C20.9 -5.26667 20.15 -9.475 19.7 -12 C19.825 -12.125 20.075 -12.375 20.2 -12.5 C21.45 -12.5 23.95 -12.5 25.2 -12.5 C25.325 -12.375 25.575 -12.125 25.7 -12 C26.175 -9.375 27.125 -4.125 27.6 -1.5 C44 0.1 55.7 11 55.7 24.7 C55.7 37.1 46.4 40.2 35.4 43 C36.5 49.16667 37.875 56.875 38.7 61.5 C47.8 59.9 48.4 52.3 48.8 48.1 C48.96667 47.93333 49.175 47.725 49.3 47.6 C50.3 47.6 52.3 47.6 53.3 47.6 C53.425 47.725 53.675 47.975 53.8 48.1 C54 54.7 55.6 60.5 56.6 64.5 C56.4 64.83333 56.15 65.25 56 65.5 C52.3 67.8 44 68.7 40 68.9 C40.43333 71.43333 40.975 74.6 41.3 76.5 C41.175 76.625 40.925 76.875 40.8 77 C39.55 77 37.05 77 35.8 77 C35.675 76.875 35.425 76.625 35.3 76.5 C34.95 74.525 34.25 70.575 33.9 68.6 z" />
<glyph unicode="%" horiz-adv-x="85.2" d="M70.2 33.2 C72 33.2 72.9 31.8 72.9 28.4 C72.9 23.7 71.4 14.2 71.1 12.9 C70.1 7.9 69.2 3.2 66.1 3.1 C63.4 3.2 63.2 6.2 63.2 8.2 C63.2 11.5 64.5 20.6 65.4 24.9 C66.6 30.3 67.5 33.2 70.2 33.2 zM70.3 38.2 C56.5 38.2 52.6 22.2 52.6 13.6 C52.6 5.1 56.2 -1.9 65.3 -1.9 C78.7 -1.9 83.5 13.8 83.5 23.3 C83.5 29.2 81.3 38.2 70.3 38.2 zM25.9 63.9 C27.7 63.9 28.6 62.5 28.6 59.1 C28.6 54.4 27.1 44.9 26.8 43.6 C25.8 38.6 24.9 33.9 21.8 33.8 C19.1 33.9 18.9 36.9 18.9 38.9 C18.9 42.2 20.2 51.3 21.1 55.6 C22.3 60.9 23.2 63.9 25.9 63.9 zM26 68.9 C12.2 68.9 8.3 52.9 8.3 44.3 C8.3 35.8 11.9 28.8 21 28.8 C34.4 28.8 39.2 44.5 39.2 54 C39.2 59.9 37 68.9 26 68.9 zM15.3 -3.3 C15.425 -3.425 15.675 -3.675 15.8 -3.8 C17.575 -3.8 21.125 -3.8 22.9 -3.8 C23.1 -3.675 23.5 -3.425 23.7 -3.3 C36.925 15.275 63.375 52.425 76.6 71 C76.475 71.125 76.225 71.375 76.1 71.5 C74.325 71.5 70.775 71.5 69 71.5 C68.775 71.375 68.325 71.125 68.1 71 C54.9 52.425 28.5 15.275 15.3 -3.3 z" />
<glyph unicode="&#x26;" horiz-adv-x="87" d="M46.6 19.2 C46.775 19.325 47.125 19.575 47.3 19.7 C48.4 22.6 49.7 25.8 53.9 25.8 C57.6 25.8 59.4 23 59.4 19.5 C59.4 12.6 52.3 5.9 39.9 5.9 C29.9 5.9 22.8 12.5 22.8 20.8 C22.8 31.6 32.2 35 41.4 35.5 C42.2 37.43333 43.2 39.85 43.8 41.3 C43.6 41.4 43.2 41.6 43 41.7 C42.6 41.6 41.2 41.4 40.4 41.4 C33.1 41.4 33.1 49 33.1 50.5 C33.1 56.7 37.3 62 44.2 62 C47.8 62 50.3 60.7 52.7 59.3 C52.73333 57.4 52.775 55.025 52.8 53.6 C52.925 53.475 53.175 53.225 53.3 53.1 C54.3 53.1 56.3 53.1 57.3 53.1 C57.425 53.225 57.675 53.475 57.8 53.6 C58.1 55 59.9 64 60.3 66.4 C60.13333 66.6 59.925 66.85 59.8 67 C55.9 68 51.1 69.2 46.5 69.2 C30 69.2 16.1 61.1 16.1 49.8 C16.1 43 21.3 39.4 26.6 38.6 C26.6 38.53333 26.6 38.45 26.6 38.4 C22.7 37.8 4.3 33.3 4.3 17.7 C4.3 1.1 23.6 -1.8 34.5 -1.8 C51.9 -1.8 73.3 7 73.3 20.4 C73.3 25.5 69.7 27.1 67.5 27.8 C67.5 27.86667 67.5 27.95 67.5 28 C74.2 28.2 86.2 29.9 86.2 42.9 C86.2 46.8 84.9 50.5 80.3 54.2 C80.1 54.2 79.85 54.2 79.7 54.2 C78.825 53.575 77.075 52.325 76.2 51.7 C76.225 51.575 76.275 51.325 76.3 51.2 C76.7 50.7 79.3 49.7 79.3 46.5 C79.3 41.6 75.1 40.6 66.4 39.3 C55.7 37.7 47.8 36.5 44.7 32.8 C44.1 32.1 43 22.3 42.7 20.1 C42.83333 19.9 43 19.65 43.1 19.5 C43.975 19.425 45.725 19.275 46.6 19.2 z" />
<glyph unicode="'" horiz-adv-x="29.6" d="M14.8 70.4 C10.7 70.4 8.5 67.6 8.5 62.9 C8.5 61.2 8.6 58.6 9 55.3 C9.5 50.8 10.125 45.175 10.5 41.8 C10.7 39.2 11.6 37.1 14.8 37.1 C17.6 37.1 18.9 39.2 19.1 41.8 C19.6 46.3 20.225 51.925 20.6 55.3 C21 58.6 21.1 61.2 21.1 62.9 C21.1 67.6 18.9 70.4 14.8 70.4 z" />
<glyph unicode="(" horiz-adv-x="38.9" d="M40.8 74.4 C40.6 74.4 40.2 74.4 40 74.4 C21.9 61 7.9 48.3 7.9 26.1 C7.9 4.6 20.1 -10.4 25.6 -17.6 C25.86667 -17.6 26.2 -17.6 26.4 -17.6 C27.225 -17.05 28.875 -15.95 29.7 -15.4 C29.7 -15.2 29.7 -14.8 29.7 -14.6 C25 -5.3 22.7 4.9 22.7 14.6 C22.7 36.1 28.7 55.1 43.9 70.2 C43.86667 70.46667 43.825 70.8 43.8 71 C43.05 71.85 41.55 73.55 40.8 74.4 z" />
<glyph unicode=")" horiz-adv-x="38.9" d="M10.3 72.2 C10.3 72 10.3 71.6 10.3 71.4 C15 62.1 17.3 51.9 17.3 42.2 C17.3 20.7 11.3 1.7 -3.9 -13.4 C-3.86667 -13.66667 -3.825 -14 -3.8 -14.2 C-3.05 -15.05 -1.55 -16.75 -0.8 -17.6 C-0.6 -17.6 -0.2 -17.6 0 -17.6 C18.1 -4.2 32.1 8.5 32.1 30.7 C32.1 52.2 19.9 67.2 14.4 74.4 C14.13333 74.4 13.8 74.4 13.6 74.4 C12.775 73.85 11.125 72.75 10.3 72.2 z" />
<glyph unicode="*" horiz-adv-x="48.1" d="M29.2 31.5 C32.7 33 36.6 35.1 39.9 35.9 C40 36.2 40.125 36.575 40.2 36.8 C37.6 40.3 35.6 43.1 32.5 48.4 C37.5 47.7 42.4 46.7 47.3 45.7 C47.56667 45.8 47.9 45.925 48.1 46 C47.8 49.2 47.6 53 47.6 57 C47.33333 57.2 47 57.45 46.8 57.6 C43.5 56.3 36.9 54.6 32.8 53.7 C35 57.9 38 63 41 67.4 C40.86667 67.63333 40.7 67.925 40.6 68.1 C37 68.7 33.2 69.8 30.1 70.8 C29.8 70.66667 29.425 70.5 29.2 70.4 C28.9 66 28.6 61 28 55.9 C23.9 59.9 20.3 63.9 16.8 68.2 C16.53333 68.16667 16.2 68.125 16 68.1 C14.6 65.2 12.4 61.3 10.2 58.2 C10.26667 57.93333 10.35 57.6 10.4 57.4 C14.9 55.8 20.8 53.6 24.8 51.9 C20.5 49.7 14.1 47.8 10.4 46.5 C10.26667 46.23333 10.1 45.9 10 45.7 C14.2 40.3 12 43.1 16 35.8 C16.26667 35.76667 16.6 35.725 16.8 35.7 C20.2 39.9 23.3 43.3 27.2 47.2 C27.6 42.9 28.2 37.6 28.4 31.9 C28.66667 31.76667 29 31.6 29.2 31.5 z" />
<glyph unicode="+" horiz-adv-x="60" d="M24 0 C27 0 33 0 36 0 C36 4.825 36 14.475 36 19.3 C40.825 19.3 50.475 19.3 55.3 19.3 C55.3 22.3 55.3 28.3 55.3 31.3 C50.475 31.3 40.825 31.3 36 31.3 C36 36.125 36 45.775 36 50.6 C33 50.6 27 50.6 24 50.6 C24 45.775 24 36.125 24 31.3 C19.175 31.3 9.525 31.3 4.7 31.3 C4.7 28.3 4.7 22.3 4.7 19.3 C9.525 19.3 19.175 19.3 24 19.3 C24 14.475 24 4.825 24 0 z" />
<glyph unicode="," horiz-adv-x="29.6" d="M21.1 15 C15.3 12.8 14.3 12.6 5.6 10.8 C4.1 4.1 0.1 -8.4 -5.2 -17.2 C-4.6 -17.56667 -3.85 -18.025 -3.4 -18.3 C-1.975 -17.875 0.875 -17.025 2.3 -16.6 C6.8 -12.7 20.1 5.6 23.4 13.3 C22.63333 13.86667 21.675 14.575 21.1 15 z" />
<glyph unicode="-" horiz-adv-x="42.6" d="M38.3 31.7 C32.3 31.5 26.3 31.2 20.3 31.2 C15.9 31.2 11.6 31.5 7.2 31.7 C6.3 25.9 6.2 25.2 4.2 18.7 C4.53333 18.36667 4.95 17.95 5.2 17.7 C10.2 17.9 15.3 18.2 20.3 18.2 C25.5 18.2 30.8 17.9 36 17.7 C37.1 24 37.2 24.7 39.4 30.9 C39.03333 31.16667 38.575 31.5 38.3 31.7 z" />
<glyph unicode="." horiz-adv-x="29.6" d="M20.7 9.8 C20.7 13.7 18.6 17.6 12.7 17.6 C6.7 17.6 3.4 11.7 3.4 6.3 C3.4 1.7 5.8 -1.6 11.2 -1.6 C19.1 -1.6 20.7 6.7 20.7 9.8 z" />
<glyph unicode="/" horiz-adv-x="31.5" d="M-3.6 -4.3 C-3.475 -4.425 -3.225 -4.675 -3.1 -4.8 C-0.775 -4.8 3.875 -4.8 6.2 -4.8 C6.375 -4.675 6.725 -4.425 6.9 -4.3 C14.7 14.575 30.3 52.325 38.1 71.2 C37.975 71.325 37.725 71.575 37.6 71.7 C35.275 71.7 30.625 71.7 28.3 71.7 C28.125 71.575 27.775 71.325 27.6 71.2 C19.8 52.325 4.2 14.575 -3.6 -4.3 z" />
<glyph unicode="0" horiz-adv-x="59.2" d="M26.5 -1.9 C49.7 -1.9 57.1 25.8 57.1 42.5 C57.1 52.9 53.5 68.9 35.2 68.9 C11.9 68.9 5.1 40.6 5.1 25.4 C5.1 10.5 10.4 -1.9 26.5 -1.9 zM27.2 4.2 C22 4.3 21.7 10.1 21.7 14 C21.7 20.5 24.1 38.1 26 46.4 C28.3 56.8 29.9 62.7 35.3 62.7 C38.8 62.7 40.5 60 40.5 53.2 C40.5 44.1 37.5 25.7 37 23.1 C35.1 13.4 33.2 4.4 27.2 4.2 z" />
<glyph unicode="1" horiz-adv-x="59.2" d="M6.4 0 C6.5 -0.125 6.7 -0.375 6.8 -0.5 C13.9 -0.3 20.9 0 28 0 C35.1 0 42.1 -0.3 49.2 -0.5 C49.4 -0.33333 49.65 -0.125 49.8 0 C50.025 1.15 50.475 3.45 50.7 4.6 C50.6 4.725 50.4 4.975 50.3 5.1 C40.2 5.1 37.5 5.3 37.5 9.3 C37.5 13.4 40.5 30.5 42.5 41.4 C44.5 52.2 45.8 61.4 48.3 67.6 C47.7 68.03333 46.95 68.575 46.5 68.9 C38.1 64.7 20.2 59.4 10.3 58.5 C9.7 55.2 8.8 50.7 8.4 48.8 C8.7 48.7 9.2 48.4 9.5 48.3 C12.2 49.3 25.1 54.4 28.1 55.4 C26.7 47 21.3 13.1 19.7 8.8 C18.5 5.6 16.1 5.3 7.9 5.1 C7.7 4.93333 7.45 4.725 7.3 4.6 C7.075 3.45 6.625 1.15 6.4 0 z" />
<glyph unicode="2" horiz-adv-x="59.2" d="M11.7 47.1 C11.925 47.125 12.375 47.175 12.6 47.2 C17.6 53.9 23.1 55.6 27.3 55.6 C33.6 55.6 37.8 51.7 37.8 46.4 C37.8 33.7 10.8 12.2 2.9 5.8 C2.63333 3.86667 2.3 1.45 2.1 0 C2.2 -0.125 2.4 -0.375 2.5 -0.5 C10.7 -0.3 18.9 0 27.1 0 C34.2 0 41.3 -0.3 48.4 -0.5 C48.76667 -0.33333 49.225 -0.125 49.5 0 C50.4 4.3 50.9 6.3 53.6 14.4 C53.33333 14.73333 53 15.15 52.8 15.4 C45.4 14 36.1 14 34 14 C33 14 28.8 14 21.3 14.2 C21.3 14.26667 21.3 14.35 21.3 14.4 C34.4 23.2 54.3 37 54.3 50.8 C54.3 59.7 48.9 68.9 33.9 68.9 C29 68.9 21.5 67.2 17.3 64.4 C14.7 59.6 11.7 54.9 8.6 50.3 C8.63333 49.96667 8.675 49.55 8.7 49.3 C9.45 48.75 10.95 47.65 11.7 47.1 z" />
<glyph unicode="3" horiz-adv-x="59.2" d="M6.8 20.2 C6.675 20.075 6.425 19.825 6.3 19.7 C5.7 14.7 4 6.7 3 3.1 C3.23333 2.8 3.525 2.425 3.7 2.2 C7.9 0.5 15.5 -1.9 22.7 -1.9 C45 -1.9 54.4 11.6 54.4 22.1 C54.4 35.3 42.5 36.4 36.8 36.8 C36.8 36.86667 36.8 36.95 36.8 37 C50.8 41.9 53.1 49.7 53.1 54.6 C53.1 57.7 51.6 68.9 33.9 68.9 C28.1 68.9 19.8 66.6 18.3 65.8 C15.7 61.2 12.7 57 9.5 52.7 C9.53333 52.36667 9.575 51.95 9.6 51.7 C10.35 51.2 11.85 50.2 12.6 49.7 C12.825 49.725 13.275 49.775 13.5 49.8 C18.2 54 22.1 56.8 27.9 56.8 C33.6 56.8 36.8 53.4 36.8 49.4 C36.8 38.8 23.6 38.8 20.1 38.8 C19.8 37.4 18.1 34.1 17 31.8 C17.2 31.53333 17.45 31.2 17.6 31 C19.3 31.5 22.1 32.3 25.3 32.3 C32.9 32.3 36.6 28 36.6 21.4 C36.6 15.6 33.1 5.3 22.3 5.3 C15.5 5.3 11.7 9.3 11.7 16 C11.7 17.4 11.8 18.2 11.9 18.8 C11.73333 19 11.525 19.25 11.4 19.4 C10.25 19.6 7.95 20 6.8 20.2 z" />
<glyph unicode="4" horiz-adv-x="59.2" d="M52.2 55.6 C52.7 58.6 54.2 65.6 55 68 C54.56667 68.3 54.025 68.675 53.7 68.9 C49.9 68.3 42.5 66.9 38.1 66 C23.6 52 8.8 33 1.6 22.7 C1.6 21 1.6 18.875 1.6 17.6 C1.725 17.475 1.975 17.225 2.1 17.1 C6.3 17.2 10.6 17.5 15 17.5 C19.83333 17.5 25.875 17.5 29.5 17.5 C28.8 13.4 28.2 8.2 27 7.1 C25.6 5.8 20.2 5.5 15.6 5.1 C15.4 4.93333 15.15 4.725 15 4.6 C14.775 3.45 14.325 1.15 14.1 0 C14.2 -0.125 14.4 -0.375 14.5 -0.5 C21.7 -0.3 28.9 0 36.1 0 C42.4 0 48.6 -0.3 54.9 -0.5 C55.1 -0.33333 55.35 -0.125 55.5 0 C55.725 1.15 56.175 3.45 56.4 4.6 C56.3 4.725 56.1 4.975 56 5.1 C49.2 5.1 44.4 5.1 44.4 9.5 C44.4 9.9 44.7 13.6 45.4 17.5 C46.8 17.5 53.3 17.1 55.4 17 C55.7 17.16667 56.075 17.375 56.3 17.5 C57.7 23.6 58 24.4 58.8 26 C58.6 26.33333 58.35 26.75 58.2 27 C55 26.7 53.8 26.6 47 26.5 C48.73333 36.2 50.9 48.325 52.2 55.6 zM23.5 26.4 C19.7 26.4 16 26.8 11.6 26.7 C27.6 47.4 21.2 40.2 36.4 57.5 C36.46667 57.43333 36.55 57.35 36.6 57.3 C35.225 49.575 32.475 34.125 31.1 26.4 C29.2 26.4 25.4 26.4 23.5 26.4 z" />
<glyph unicode="5" horiz-adv-x="59.2" d="M14.9 29.1 C19 32 21.6 33.8 26.3 33.8 C33 33.8 36 30.1 36 23.5 C36 17.4 33 5.3 21.3 5.3 C12.5 5.3 11.5 12.4 11.5 15.1 C11.5 15.86667 11.5 16.825 11.5 17.4 C11.375 17.55 11.125 17.85 11 18 C9.9 18.15 7.7 18.45 6.6 18.6 C6.475 18.5 6.225 18.3 6.1 18.2 C5.5 14.5 3.9 6.5 3.1 3.8 C3.3 3.36667 3.55 2.825 3.7 2.5 C6.7 1.1 14.4 -1.9 23.3 -1.9 C35.1 -1.9 53.8 5.2 53.8 25.8 C53.8 40.1 42.9 44 35.1 44 C31.3 44 26 43 19.3 39.2 C20.53333 44.3 22.075 50.675 23 54.5 C25.7 54.3 29.3 54.1 33.7 54.1 C39.2 54.1 43.7 54.4 51 55 C53.5 59.4 58.1 67.7 58.4 68.3 C58.16667 68.66667 57.875 69.125 57.7 69.4 C51.2 69.2 44.7 68.9 38.2 68.9 C31.7 68.9 25.2 69.2 18.7 69.4 C18.23333 69.03333 17.65 68.575 17.3 68.3 C16.6 61.5 11.6 36 10.5 31.7 C11.96667 30.83333 13.8 29.75 14.9 29.1 z" />
<glyph unicode="6" horiz-adv-x="59.2" d="M38.3 25.8 C38.3 22.9 38.2 4.8 28.6 4.8 C22.1 4.8 21.9 9.9 21.9 15.2 C21.9 21.3 23.1 34.1 32.2 34.1 C37.6 34.1 38.3 29.1 38.3 25.8 zM59.6 67.3 C55.9 68.2 51.3 68.9 47 68.9 C19.4 68.9 5.4 45.6 5.4 20.4 C5.4 5.8 12.9 -1.9 25.4 -1.9 C50.6 -1.9 55.2 18.5 55.2 26.5 C55.2 39.9 47.9 44.1 39.2 44.1 C33.4 44.1 29.3 41.5 25.3 37.3 C25.23333 37.36667 25.15 37.45 25.1 37.5 C27.7 46.8 32.1 61.6 44.3 61.6 C51.2 61.6 53 57.5 54.4 54.4 C54.96667 54.63333 55.675 54.925 56.1 55.1 C56.975 58.15 58.725 64.25 59.6 67.3 z" />
<glyph unicode="7" horiz-adv-x="59.2" d="M7.9 -0.5 C10.5 -0.3 13.2 0 15.8 0 C18.4 0 21.1 -0.3 23.4 -0.5 C23.6 -0.36667 23.85 -0.2 24 -0.1 C36.4 24.3 45.1 40.8 62.1 63.5 C62.4 65.3 62.775 67.55 63 68.9 C62.875 69.025 62.625 69.275 62.5 69.4 C55.1 69.2 47 68.9 39 68.9 C30.9 68.9 22.9 69.2 14.8 69.4 C14.43333 69.23333 13.975 69.025 13.7 68.9 C12.9 63.9 11.2 59 10 54 C10.36667 53.7 10.825 53.325 11.1 53.1 C17.3 53.9 27.5 54.2 33.9 54.2 C37.73333 54.2 42.525 54.2 45.4 54.2 C35.9 39.5 20.2 17.2 7.4 1.1 C7.56667 0.56667 7.775 -0.1 7.9 -0.5 z" />
<glyph unicode="8" horiz-adv-x="59.2" d="M3.8 14.3 C3.8 4.5 11.9 -1.9 23.5 -1.9 C36.1 -1.9 53.7 4.9 53.7 22.8 C53.7 31.1 48.3 35.1 42.2 38.4 C51.2 42.9 55.9 47.5 55.9 54.5 C55.9 66.5 42.8 68.9 38.2 68.9 C20.3 68.9 11.2 57.1 11.2 47.2 C11.2 39 16.6 35.3 19.9 33 C8.8 28.3 3.8 21.2 3.8 14.3 zM38 15.7 C38 12.1 35.8 5.3 26.3 5.3 C20.5 5.3 16.7 9.7 16.7 15.3 C16.7 20.4 19.9 25.7 25.6 29.5 C34.8 23.7 38 21.7 38 15.7 zM44.3 53.7 C44.3 49.9 43 47.1 36.8 41.5 C30.2 45.8 26.3 47.6 26.3 53.5 C26.3 57.3 29.2 62 36.1 62 C40.7 62 44.3 59.1 44.3 53.7 z" />
<glyph unicode="9" horiz-adv-x="59.2" d="M3.6 13.5 C3.525 13.35 3.375 13.05 3.3 12.9 C4.3 10.2 6 4.2 6.9 0.2 C8.3 -0.4 13.8 -1.9 18.8 -1.9 C43.4 -1.9 56.8 20.3 56.8 46.3 C56.8 52 56.8 68.9 35.3 68.9 C18.3 68.9 7.6 56.8 7.6 40.4 C7.6 29.5 13 23 24.2 23 C29.9 23 34.6 25.8 37 27.9 C37.06667 27.83333 37.15 27.75 37.2 27.7 C34.2 16.4 31.3 5.3 19.3 5.3 C12.2 5.3 9.7 11 8.5 14.3 C8.26667 14.4 7.975 14.525 7.8 14.6 C6.75 14.325 4.65 13.775 3.6 13.5 zM24.1 40.5 C24.1 47.1 25 62 34.4 62 C40 62 40.8 57.1 40.8 52.5 C40.8 46 39.8 32.7 30.7 32.7 C27.5 32.7 24.1 34.4 24.1 40.5 z" />
<glyph unicode=":" horiz-adv-x="29.6" d="M8.4 37.5 C8.4 32.9 10.8 29.6 16.2 29.6 C24.1 29.6 25.7 37.9 25.7 41 C25.7 44.9 23.6 48.8 17.7 48.8 C11.7 48.8 8.4 42.9 8.4 37.5 zM3.4 6.3 C3.4 1.7 5.8 -1.6 11.2 -1.6 C19.1 -1.6 20.7 6.7 20.7 9.8 C20.7 13.7 18.6 17.6 12.7 17.6 C6.7 17.6 3.4 11.7 3.4 6.3 z" />
<glyph unicode=";" horiz-adv-x="29.6" d="M21.1 15 C15.3 12.8 14.3 12.6 5.6 10.8 C4.1 4.1 0.1 -8.4 -5.2 -17.2 C-4.6 -17.56667 -3.85 -18.025 -3.4 -18.3 C-1.975 -17.875 0.875 -17.025 2.3 -16.6 C6.8 -12.7 20.1 5.6 23.4 13.3 C22.63333 13.86667 21.675 14.575 21.1 15 zM8.4 37.5 C8.4 32.9 10.8 29.6 16.2 29.6 C24.1 29.6 25.7 37.9 25.7 41 C25.7 44.9 23.6 48.8 17.7 48.8 C11.7 48.8 8.4 42.9 8.4 37.5 z" />
<glyph unicode="&#x3c;" horiz-adv-x="60" d="M4.7 20.6 C17.35 15.25 42.65 4.55 55.3 -0.8 C55.3 2.1 55.3 7.9 55.3 10.8 C46.575 14.425 29.125 21.675 20.4 25.3 C29.125 28.925 46.575 36.175 55.3 39.8 C55.3 42.7 55.3 48.5 55.3 51.4 C42.65 46.05 17.35 35.35 4.7 30 C4.7 27.65 4.7 22.95 4.7 20.6 z" />
<glyph unicode="=" horiz-adv-x="60" d="M4.7 30 C17.35 30 42.65 30 55.3 30 C55.3 33 55.3 39 55.3 42 C42.65 42 17.35 42 4.7 42 C4.7 39 4.7 33 4.7 30 zM4.7 8.6 C17.35 8.6 42.65 8.6 55.3 8.6 C55.3 11.6 55.3 17.6 55.3 20.6 C42.65 20.6 17.35 20.6 4.7 20.6 C4.7 17.6 4.7 11.6 4.7 8.6 z" />
<glyph unicode="&#x3e;" horiz-adv-x="60" d="M55.3 30 C42.65 35.35 17.35 46.05 4.7 51.4 C4.7 48.5 4.7 42.7 4.7 39.8 C13.425 36.175 30.875 28.925 39.6 25.3 C30.875 21.675 13.425 14.425 4.7 10.8 C4.7 7.9 4.7 2.1 4.7 -0.8 C17.35 4.55 42.65 15.25 55.3 20.6 C55.3 22.95 55.3 27.65 55.3 30 z" />
<glyph unicode="?" horiz-adv-x="48.1" d="M26.5 22.4 C26.5 22.7 26.5 23.3 26.5 23.6 C25.4 24.3 24.1 25.2 24.1 27.1 C24.1 30 25.7 31 35.3 37.1 C42 41.3 49.2 45.9 49.2 55.1 C49.2 62.8 42.6 70.2 28.8 70.2 C25.1 70.2 21.7 69.7 14.4 66.8 C12.56667 62.43333 10.275 56.975 8.9 53.7 C8.975 53.525 9.125 53.175 9.2 53 C10.125 52.575 11.975 51.725 12.9 51.3 C13.125 51.375 13.575 51.525 13.8 51.6 C16 55.8 18.2 58.5 23.6 58.5 C25.1 58.5 31.8 58.2 31.8 51.7 C31.8 49.2 31.3 46.7 25.5 41.7 C18.8 36 16.6 34 16.6 29.4 C16.6 27.5 17.1 23.5 21.9 20.9 C23.43333 21.4 25.35 22.025 26.5 22.4 zM27.8 9.8 C27.8 13.7 25.7 17.6 19.8 17.6 C13.8 17.6 10.5 11.7 10.5 6.3 C10.5 1.7 12.9 -1.6 18.3 -1.6 C26.2 -1.6 27.8 6.7 27.8 9.8 z" />
<glyph unicode="@" horiz-adv-x="80" d="M34.1 28.4 C34.1 40.4 41.2 48.1 45.7 48.1 C48 48.1 49.7 46.4 49.7 42.6 C49.7 36.5 46.9 21.7 38.5 21.7 C35.8 21.7 34.1 24 34.1 28.4 zM53.3 53.2 C53.05 52.3 52.55 50.5 52.3 49.6 C52.25 49.6 52.15 49.6 52.1 49.6 C51.2 52.7 48.8 54.7 44.7 54.7 C30.4 54.7 23.3 37.6 23.3 27.8 C23.3 18.2 29.5 15.1 34.4 15.1 C39.8 15.1 44.6 18.6 46.6 22.5 C46.66667 22.5 46.75 22.5 46.8 22.5 C47.5 18.8 50.5 15.1 56.4 15.1 C69.9 15.1 78.1 26.6 78.1 40.5 C78.1 59.6 62.6 70.8 43.6 70.8 C21.7 70.8 5.5 54.5 5.5 34.5 C5.5 12.4 21.7 -1.9 43 -1.9 C52.7 -1.9 62.8 0.4 70.8 6.1 C69.66667 7.9 68.25 10.15 67.4 11.5 C59.4 7.9 52.3 6.6 44.5 6.6 C27 6.6 15.2 18.6 15.2 34.5 C15.2 50.4 27.1 62.3 43.6 62.3 C58.9 62.3 69.2 56 69.6 40 C69.6 28.8 64.6 20.5 58.2 20.5 C55.9 20.5 55.1 22.2 55.1 24.5 C55.1 26.6 55.7 29.1 56.2 31.2 C57.93333 38.53333 60.1 47.7 61.4 53.2 C59.375 53.2 55.325 53.2 53.3 53.2 z" />
<glyph unicode="A" horiz-adv-x="74.1" d="M35.4 0 C35.525 -0.125 35.775 -0.375 35.9 -0.5 C41.9 -0.3 47.9 0 53.9 0 C59.6 0 65.4 -0.3 71.1 -0.5 C71.26667 -0.33333 71.475 -0.125 71.6 0 C71.8 1.15 72.2 3.45 72.4 4.6 C72.275 4.725 72.025 4.975 71.9 5.1 C66.2 5.6 64.7 6 63.9 7.7 C63.5 8.5 62.8 12 61.8 17.3 C58.8 33.4 53.4 58.9 52 69.9 C48.46667 69.9 44.05 69.9 41.4 69.9 C38.8 64.5 37.2 61.9 35.3 58.6 C27.93333 46.3 18.725 30.925 13.2 21.7 C3.9 6.1 2.9 5.6 -3.2 5.1 C-3.36667 4.93333 -3.575 4.725 -3.7 4.6 C-3.9 3.45 -4.3 1.15 -4.5 0 C-4.375 -0.125 -4.125 -0.375 -4 -0.5 C0.3 -0.3 4.6 0 8.9 0 C13.4 0 18 -0.3 22.5 -0.5 C22.66667 -0.33333 22.875 -0.125 23 0 C23.2 1.15 23.6 3.45 23.8 4.6 C23.675 4.725 23.425 4.975 23.3 5.1 C22.225 5.225 20.075 5.475 19 5.6 C16.1 5.9 15.4 6.7 15.4 7.7 C15.4 8.8 16.1 10.1 19.9 17.2 C27.76667 17.2 37.6 17.2 43.5 17.2 C43.7 15.9 44.8 9.6 44.8 8 C44.8 5.8 43.2 5.6 36.7 5.1 C36.53333 4.93333 36.325 4.725 36.2 4.6 C36 3.45 35.6 1.15 35.4 0 zM23.3 23.8 C26.85 30.025 33.95 42.475 37.5 48.7 C38.675 42.475 41.025 30.025 42.2 23.8 C37.475 23.8 28.025 23.8 23.3 23.8 z" />
<glyph unicode="B" horiz-adv-x="70.4" d="M30.8 32.5 C38.1 32.5 44.7 32.5 44.7 21.2 C44.7 12.8 40.3 6.1 32.3 6.1 C30.1 6.1 27.8 6.4 26.7 6.7 C27.2 10.4 30.2 28.4 30.8 32.5 zM47.3 55.1 C47.3 50.5 45.6 45.3 43.5 43 C40.8 39.9 37.8 38.8 32.1 38.8 C33.3 46.2 35 55.7 36.6 62.7 C37.4 62.9 38 63 39.7 63 C43.6 63 47.3 61.4 47.3 55.1 zM7.6 64.3 C7.725 64.175 7.975 63.925 8.1 63.8 C16 62.9 16.9 62.9 16.9 60.8 C16.9 55 9.6 14.7 8.1 9.2 C7.4 6.2 6.8 5.9 1.8 4.1 C1.63333 3.9 1.425 3.65 1.3 3.5 C1.125 2.625 0.775 0.875 0.6 0 C0.7 -0.125 0.9 -0.375 1 -0.5 C3.8 -0.3 11.4 0 14.2 0 C20.9 0 27.5 -0.5 34.2 -0.5 C61.6 -0.5 64.7 16.5 64.7 21.6 C64.7 32.2 57.7 35.3 46.9 36.4 C46.9 36.46667 46.9 36.55 46.9 36.6 C61.5 39.8 66.5 47.5 66.5 55.1 C66.5 65.4 59.1 69.4 46.2 69.4 C38.9 69.4 31.5 68.9 24.2 68.9 C19.1 68.9 14 69.3 8.9 69.4 C8.73333 69.23333 8.525 69.025 8.4 68.9 C8.2 67.75 7.8 65.45 7.6 64.3 z" />
<glyph unicode="C" horiz-adv-x="72.2" d="M66.3 13.5 C60 9.6 51.9 7.3 44.8 7.3 C25.1 7.3 25.1 28.1 25.1 30.2 C25.1 33.3 25.7 63.3 48.1 63.3 C56.1 63.3 60.9 59.4 63.3 57.5 C64 56.9 64.1 55.5 64.4 50.3 C64.56667 50.13333 64.775 49.925 64.9 49.8 C66 49.8 68.2 49.8 69.3 49.8 C69.425 49.925 69.675 50.175 69.8 50.3 C70.3 56 71.9 63.7 72.5 66.1 C72.26667 66.4 71.975 66.775 71.8 67 C68.4 68.6 57 70.6 51.3 70.6 C25.3 70.6 4.9 54.6 4.9 27.7 C4.9 8.9 17.7 -1.8 36.6 -1.8 C44.4 -1.8 59.6 0.6 65.7 5.5 C66.36667 7.76667 67.2 10.6 67.7 12.3 C67.35 12.6 66.65 13.2 66.3 13.5 z" />
<glyph unicode="D" horiz-adv-x="85.2" d="M7.6 64.3 C7.725 64.175 7.975 63.925 8.1 63.8 C16 62.9 16.9 62.9 16.9 60.8 C16.9 55 9.6 14.7 8.1 9.2 C7.4 6.2 6.8 5.9 1.8 4.1 C1.63333 3.9 1.425 3.65 1.3 3.5 C1.125 2.625 0.775 0.875 0.6 0 C0.7 -0.125 0.9 -0.375 1 -0.5 C3.5 -0.4 13.4 0 15.9 0 C23.4 0 30.9 -0.5 38.4 -0.5 C76.1 -0.5 83.3 30.7 83.3 41.2 C83.3 69.4 60.3 69.4 45.3 69.4 C38.4 69.4 31.6 68.9 24.7 68.9 C19.4 68.9 14.2 69.3 8.9 69.4 C8.73333 69.23333 8.525 69.025 8.4 68.9 C8.2 67.75 7.8 65.45 7.6 64.3 zM36.5 62 C40.6 62.3 42.6 62.5 44.5 62.5 C57.8 62.5 63.3 53.9 63.3 41.5 C63.3 35.9 60.8 6.4 36.2 6.4 C33.4 6.4 29.7 6.8 27 7.6 C27.9 14.6 31.7 37 35 54.1 C35.5 56.73333 36.125 60.025 36.5 62 z" />
<glyph unicode="E" horiz-adv-x="64.8" d="M53.4 40.2 C47.1 39.6 44 39.3 40 39.3 C37.43333 39.3 34.225 39.3 32.3 39.3 C33.4 47 33.8 50.3 36.2 61.9 C39.2 62.1 42.8 62.2 45.3 62.2 C47 62.2 54.2 62.2 55.7 60.7 C56.5 59.9 56.4 55.2 56.5 52.9 C56.66667 52.73333 56.875 52.525 57 52.4 C58.05 52.4 60.15 52.4 61.2 52.4 C61.325 52.525 61.575 52.775 61.7 52.9 C62.3 59.3 63.1 64 64.1 68.4 C63.86667 68.73333 63.575 69.15 63.4 69.4 C54.3 69.2 45.3 68.9 36.2 68.9 C27.1 68.9 18 69.2 8.9 69.4 C8.73333 69.23333 8.525 69.025 8.4 68.9 C8.2 67.75 7.8 65.45 7.6 64.3 C7.725 64.175 7.975 63.925 8.1 63.8 C16 62.9 16.9 62.9 16.9 60.8 C16.9 55 9.6 14.7 8.1 9.2 C7.4 6.2 6.8 5.9 1.8 4.1 C1.63333 3.9 1.425 3.65 1.3 3.5 C1.125 2.625 0.775 0.875 0.6 0 C0.7 -0.125 0.9 -0.375 1 -0.5 C10 -0.3 19 0 28 0 C37 0 45.9 -0.3 54.9 -0.5 C55.13333 -0.33333 55.425 -0.125 55.6 0 C56.6 6.4 57.4 12.5 59 18.4 C58.83333 18.56667 58.625 18.775 58.5 18.9 C57.35 18.9 55.05 18.9 53.9 18.9 C53.725 18.75 53.375 18.45 53.2 18.3 C52.275 15.775 50.425 10.725 49.5 8.2 C45.5 7.4 38.2 6.7 33.3 6.7 C31.1 6.7 28.35 6.7 26.7 6.7 C27.8 15.2 30 27.2 30.9 32.1 C34.03333 32.1 37.95 32.1 40.3 32.1 C43.6 32.1 47.4 31.8 50.9 31.4 C52.5 35.5 52.9 36.4 54.4 39.1 C54.06667 39.46667 53.65 39.925 53.4 40.2 z" />
<glyph unicode="F" horiz-adv-x="63" d="M-0.7 0 C-0.575 -0.125 -0.325 -0.375 -0.2 -0.5 C6.3 -0.3 12.7 0 19.2 0 C25.5 0 31.8 -0.3 38.1 -0.5 C38.26667 -0.33333 38.475 -0.125 38.6 0 C38.8 1.15 39.2 3.45 39.4 4.6 C39.275 4.725 39.025 4.975 38.9 5.1 C28.7 5.8 28.1 6.5 28.1 8.1 C28.1 10.4 30.7 26.1 31.3 29.5 C34.6 29.5 38.725 29.5 41.2 29.5 C43.1 29.5 47 29.4 51.4 28.7 C52.7 32.8 53.4 34.1 54.6 36.3 C54.36667 36.73333 54.075 37.275 53.9 37.6 C49.1 36.7 41.9 36.7 40.7 36.7 C37.96667 36.7 34.55 36.7 32.5 36.7 C35.1 50.7 36.9 59.5 37.3 61.9 C40.2 62.1 42.3 62.2 44.2 62.2 C48.3 62.2 53.1 62.2 55.1 60.8 C56.5 59.8 56.5 52.7 56.5 51.9 C56.66667 51.73333 56.875 51.525 57 51.4 C58.05 51.4 60.15 51.4 61.2 51.4 C61.325 51.525 61.575 51.775 61.7 51.9 C62 55.6 63 63.5 64.1 68.6 C63.86667 68.86667 63.575 69.2 63.4 69.4 C54.4 69.2 45.5 68.9 36.5 68.9 C27.5 68.9 18.6 69.2 9.6 69.4 C9.43333 69.23333 9.225 69.025 9.1 68.9 C8.9 67.75 8.5 65.45 8.3 64.3 C8.425 64.175 8.675 63.925 8.8 63.8 C16.7 62.9 17.6 62.9 17.6 60.8 C17.6 55 10.3 14.7 8.8 9.2 C8 6.4 7.7 5.7 0.6 5.1 C0.43333 4.93333 0.225 4.725 0.1 4.6 C-0.1 3.45 -0.5 1.15 -0.7 0 z" />
<glyph unicode="G" horiz-adv-x="83.3" d="M45.1 24.3 C45.225 24.175 45.475 23.925 45.6 23.8 C47 23.725 49.8 23.575 51.2 23.5 C52.5 23.4 55.2 23.1 55.2 21 C55.2 20.9 55.2 19.3 54.3 14 C53.93333 11.86667 53.475 9.2 53.2 7.6 C51.4 6.1 46.6 5.4 43.7 5.4 C26 5.4 25.3 22.8 25.3 27.5 C25.3 44.3 32.3 63.2 51.8 63.2 C61.2 63.2 67.2 58.4 68.9 57.1 C69.4 56.7 69.5 52.9 69.7 50.3 C69.8 50.13333 69.925 49.925 70 49.8 C71.1 49.8 73.3 49.8 74.4 49.8 C74.525 49.925 74.775 50.175 74.9 50.3 C75.7 57.2 76.7 61.4 77.7 65.4 C77.4 65.83333 77.025 66.375 76.8 66.7 C71.8 68.6 60.8 70.6 53.7 70.6 C27.9 70.6 4.9 55.1 4.9 27.5 C4.9 8.7 18.2 -1.9 39 -1.9 C53.1 -1.9 64.7 2 70.9 4.4 C71.13333 5 71.425 5.75 71.6 6.2 C71.4 6.9 71.1 7.9 71.1 8.5 C71.1 12.8 72.7 20.5 73.4 21.5 C74.5 23 76.7 23.7 78.8 23.8 C78.96667 23.96667 79.175 24.175 79.3 24.3 C79.5 25.45 79.9 27.75 80.1 28.9 C79.975 29.025 79.725 29.275 79.6 29.4 C74.1 29.2 68.5 28.9 63 28.9 C57.5 28.9 51.9 29.2 46.4 29.4 C46.23333 29.23333 46.025 29.025 45.9 28.9 C45.7 27.75 45.3 25.45 45.1 24.3 z" />
<glyph unicode="H" horiz-adv-x="83.3" d="M-1.4 0 C-1.275 -0.125 -1.025 -0.375 -0.9 -0.5 C4.7 -0.3 11 0 17.2 0 C23 0 28.7 -0.3 34.5 -0.5 C34.66667 -0.33333 34.875 -0.125 35 0 C35.2 1.15 35.6 3.45 35.8 4.6 C35.675 4.725 35.425 4.975 35.3 5.1 C28.1 5.6 27.4 5.9 27.4 8.7 C27.4 10.4 29.1 21.2 31.1 32.8 C39 32.8 48.875 32.8 54.8 32.8 C52.8 21.5 50.9 11.7 50.2 9.2 C49.2 5.6 48.3 5.6 41.8 5.1 C41.63333 4.93333 41.425 4.725 41.3 4.6 C41.1 3.45 40.7 1.15 40.5 0 C40.625 -0.125 40.875 -0.375 41 -0.5 C46.6 -0.3 52.9 0 59.1 0 C65.2 0 71.3 -0.3 77.4 -0.5 C77.56667 -0.33333 77.775 -0.125 77.9 0 C78.1 1.15 78.5 3.45 78.7 4.6 C78.575 4.725 78.325 4.975 78.2 5.1 C70 6.1 69.3 5.9 69.3 8.7 C69.3 11.8 75 46.3 78 59 C78.9 63 79.6 63.3 86.8 63.8 C86.96667 63.96667 87.175 64.175 87.3 64.3 C87.5 65.45 87.9 67.75 88.1 68.9 C87.975 69.025 87.725 69.275 87.6 69.4 C82 69.2 75.7 68.9 69.5 68.9 C63.7 68.9 58 69.2 52.2 69.4 C52.03333 69.23333 51.825 69.025 51.7 68.9 C51.5 67.75 51.1 65.45 50.9 64.3 C51.025 64.175 51.275 63.925 51.4 63.8 C57.6 63.3 59 63 59 60.8 C59 58.3 57.6 49.1 55.9 39.4 C48.03333 39.4 38.2 39.4 32.3 39.4 C33.6 47.2 35 54.5 36.1 59 C37.1 63 37.7 63.3 44.9 63.8 C45.06667 63.96667 45.275 64.175 45.4 64.3 C45.6 65.45 46 67.75 46.2 68.9 C46.075 69.025 45.825 69.275 45.7 69.4 C40.1 69.2 33.8 68.9 27.6 68.9 C21.5 68.9 15.4 69.2 9.3 69.4 C9.13333 69.23333 8.925 69.025 8.8 68.9 C8.6 67.75 8.2 65.45 8 64.3 C8.125 64.175 8.375 63.925 8.5 63.8 C15.7 63.3 17.1 63 17.1 60.8 C17.1 55 9.8 14.7 8.3 9.2 C7.3 5.6 6.4 6.1 -0.1 5.1 C-0.26667 4.93333 -0.475 4.725 -0.6 4.6 C-0.8 3.45 -1.2 1.15 -1.4 0 z" />
<glyph unicode="I" horiz-adv-x="42.6" d="M-1.4 0 C-1.275 -0.125 -1.025 -0.375 -0.9 -0.5 C4.7 -0.3 11 0 17.2 0 C23.3 0 29.4 -0.3 35.5 -0.5 C35.66667 -0.33333 35.875 -0.125 36 0 C36.2 1.15 36.6 3.45 36.8 4.6 C36.675 4.725 36.425 4.975 36.3 5.1 C28.1 5.6 27.4 5.9 27.4 8.7 C27.4 11.8 33.1 46.3 36.1 59 C37.1 63 37.7 63.3 44.9 63.8 C45.06667 63.96667 45.275 64.175 45.4 64.3 C45.6 65.45 46 67.75 46.2 68.9 C46.075 69.025 45.825 69.275 45.7 69.4 C40.1 69.2 33.8 68.9 27.6 68.9 C21.5 68.9 15.4 69.2 9.3 69.4 C9.13333 69.23333 8.925 69.025 8.8 68.9 C8.6 67.75 8.2 65.45 8 64.3 C8.125 64.175 8.375 63.925 8.5 63.8 C15.7 63.3 17.1 63 17.1 60.8 C17.1 55 9.8 14.7 8.3 9.2 C7.3 5.6 6.4 6.1 -0.1 5.1 C-0.26667 4.93333 -0.475 4.725 -0.6 4.6 C-0.8 3.45 -1.2 1.15 -1.4 0 z" />
<glyph unicode="J" horiz-adv-x="40.7" d="M45.5 68.9 C45.375 69.025 45.125 69.275 45 69.4 C43 69.3 30 68.9 27 68.9 C20.7 68.9 14.3 69.2 8 69.4 C7.83333 69.23333 7.625 69.025 7.5 68.9 C7.3 67.75 6.9 65.45 6.7 64.3 C6.825 64.175 7.075 63.925 7.2 63.8 C13.2 63.3 16.6 62.8 16.6 59.8 C16.6 56.2 9.2 12.3 6.6 -1.6 C5.2 -9.3 3.2 -15.8 -2.5 -15.8 C-4.8 -15.8 -5.6 -15.3 -6.8 -14.6 C-7.26667 -15.06667 -7.85 -15.65 -8.2 -16 C-7.7 -17.65 -6.7 -20.95 -6.2 -22.6 C-4.8 -22.9 -3.6 -23.2 -1.6 -23.2 C13.9 -23.2 24.1 -10.7 26.2 2.2 C27.2 8.6 33.3 52.8 36.1 60.6 C36.9 63 38.4 63 44.2 63.8 C44.36667 63.96667 44.575 64.175 44.7 64.3 C44.9 65.45 45.3 67.75 45.5 68.9 z" />
<glyph unicode="K" horiz-adv-x="79.6" d="M-1.1 0 C-0.975 -0.125 -0.725 -0.375 -0.6 -0.5 C5.6 -0.3 11.9 0 18.1 0 C23.5 0 28.9 -0.3 34.3 -0.5 C34.46667 -0.33333 34.675 -0.125 34.8 0 C35 1.15 35.4 3.45 35.6 4.6 C35.475 4.725 35.225 4.975 35.1 5.1 C30.2 5.6 27.5 5.6 27.5 8.7 C27.5 10.6 28.1 13.8 28.5 16.3 C29.33333 21.46667 30.375 27.925 31 31.8 C36.3 23.725 46.9 7.575 52.2 -0.5 C56.4 -0.3 60.5 0 64.7 0 C68.5 0 72.4 -0.3 76.2 -0.5 C76.36667 -0.33333 76.575 -0.125 76.7 0 C76.9 1.15 77.3 3.45 77.5 4.6 C77.375 4.725 77.125 4.975 77 5.1 C72.3 5.7 70.9 6.7 66.9 12.2 C60.06667 21.66667 51.525 33.5 46.4 40.6 C51.275 44.75 61.025 53.05 65.9 57.2 C73.2 63.4 74.1 63.4 79.5 63.8 C79.66667 63.96667 79.875 64.175 80 64.3 C80.2 65.45 80.6 67.75 80.8 68.9 C80.675 69.025 80.425 69.275 80.3 69.4 C77.3 69.2 74.3 68.9 71.3 68.9 C68.1 68.9 64.8 69.2 62.1 69.4 C61.93333 69.23333 61.725 69.025 61.6 68.9 C61.4 66.4 60.1 63.8 53.6 57.7 C46.4 50.9 37.4 42.4 32 37.3 C31.95 37.35 31.85 37.45 31.8 37.5 C32.975 43.2 35.325 54.6 36.5 60.3 C37.1 63.3 39.3 63.1 44.5 63.8 C44.66667 63.96667 44.875 64.175 45 64.3 C45.2 65.45 45.6 67.75 45.8 68.9 C45.675 69.025 45.425 69.275 45.3 69.4 C39.6 69.2 33.9 68.9 28.2 68.9 C22.1 68.9 16 69.2 9.9 69.4 C9.73333 69.23333 9.525 69.025 9.4 68.9 C9.2 67.75 8.8 65.45 8.6 64.3 C8.725 64.175 8.975 63.925 9.1 63.8 C16.4 62.9 17.2 62.9 17.2 60.8 C17.2 56.8 9.5 11.7 8 7.8 C7.3 6 6.4 6 0.2 5.1 C0.03333 4.93333 -0.175 4.725 -0.3 4.6 C-0.5 3.45 -0.9 1.15 -1.1 0 z" />
<glyph unicode="L" horiz-adv-x="63" d="M7.6 64.3 C7.725 64.175 7.975 63.925 8.1 63.8 C16 62.9 16.9 62.9 16.9 60.8 C16.9 55 9.6 14.7 8.1 9.2 C7.4 6.2 6.8 5.9 1.8 4.1 C1.63333 3.9 1.425 3.65 1.3 3.5 C1.125 2.625 0.775 0.875 0.6 0 C0.7 -0.125 0.9 -0.375 1 -0.5 C9.9 -0.3 18.7 0 27.6 0 C36.4 0 45.3 -0.3 54.1 -0.5 C54.4 -0.06667 54.775 0.475 55 0.8 C55.5 6.9 57.3 13 58.4 19.1 C58.23333 19.26667 58.025 19.475 57.9 19.6 C56.75 19.6 54.45 19.6 53.3 19.6 C53.175 19.475 52.925 19.225 52.8 19.1 C52.4 18.3 49.6 10.1 49.2 9.3 C48.1 7.2 38.3 7 36 7 C33.03333 7 29.325 7 27.1 7 C28.4 16.1 34.6 53.8 36.2 59.7 C37.1 63 38 63 45.4 63.8 C45.56667 63.96667 45.775 64.175 45.9 64.3 C46.1 65.45 46.5 67.75 46.7 68.9 C46.575 69.025 46.325 69.275 46.2 69.4 C43.7 69.3 30.3 68.9 27.1 68.9 C21 68.9 15 69.2 8.9 69.4 C8.73333 69.23333 8.525 69.025 8.4 68.9 C8.2 67.75 7.8 65.45 7.6 64.3 z" />
<glyph unicode="M" horiz-adv-x="101.9" d="M61.6 0 C61.725 -0.125 61.975 -0.375 62.1 -0.5 C64.1 -0.4 76.6 0 79.4 0 C85.3 0 91.3 -0.3 97.2 -0.5 C97.36667 -0.33333 97.575 -0.125 97.7 0 C97.9 1.15 98.3 3.45 98.5 4.6 C98.375 4.725 98.125 4.975 98 5.1 C90.8 5.8 89.9 5.8 89.9 9 C89.9 15.4 91.8 40.2 92.7 52.7 C93.4 62.9 94.4 63.3 101.7 63.8 C101.86667 63.96667 102.075 64.175 102.2 64.3 C102.4 65.45 102.8 67.75 103 68.9 C102.875 69.025 102.625 69.275 102.5 69.4 C101 69.3 91 68.9 88.7 68.9 C84 68.9 79.4 69.2 74.7 69.4 C66.36667 54.36667 55.95 35.575 49.7 24.3 C46.075 35.575 38.825 58.125 35.2 69.4 C33.2 69.3 23.4 68.9 21.2 68.9 C19.7 68.9 17.8 69 16 69.2 C14.1 69.3 12.3 69.4 10.8 69.4 C10.63333 69.23333 10.425 69.025 10.3 68.9 C9.95 67.75 9.25 65.45 8.9 64.3 C9.025 64.175 9.275 63.925 9.4 63.8 C10.175 63.75 11.725 63.65 12.5 63.6 C15.6 63.4 17.2 61.6 17.8 60.6 C18.6 59.2 19.8 56 19.8 55.3 C19.8 54.8 15 37.8 14.6 36.4 C12.4 28.7 10.2 21.1 7.8 13.4 C5.5 5.9 5.3 5.9 -2 5.1 C-2.16667 4.93333 -2.375 4.725 -2.5 4.6 C-2.7 3.45 -3.1 1.15 -3.3 0 C-3.175 -0.125 -2.925 -0.375 -2.8 -0.5 C4.4 -0.1 7.6 0 11.2 0 C15.2 0 19.2 -0.3 23.2 -0.5 C23.36667 -0.33333 23.575 -0.125 23.7 0 C23.9 1.15 24.3 3.45 24.5 4.6 C24.375 4.725 24.125 4.975 24 5.1 C16.5 5.9 15.6 5.9 15.6 8.3 C15.6 11.8 21.3 32.5 22.6 37.3 C23.13333 39.36667 23.8 41.95 24.2 43.5 C24.25 43.5 24.35 43.5 24.4 43.5 C28.075 32.375 35.425 10.125 39.1 -1 C40.475 -1 43.225 -1 44.6 -1 C52 13.5 59.6 27.8 71.5 48.3 C72.5 50.1 73.75 52.35 74.5 53.7 C74.55 53.7 74.65 53.7 74.7 53.7 C74.075 44.75 72.825 26.85 72.2 17.9 C72.2 17.7 71.6 8.6 70.8 7.1 C70.1 5.7 69.2 5.8 62.9 5.1 C62.73333 4.93333 62.525 4.725 62.4 4.6 C62.2 3.45 61.8 1.15 61.6 0 z" />
<glyph unicode="N" horiz-adv-x="83.3" d="M5.1 64.3 C5.225 64.175 5.475 63.925 5.6 63.8 C7.1 63.7 10 63.6 13 61.3 C14.8 59.9 16.6 56.4 16.6 56.2 C14.5 42.9 12.3 29.6 9.7 16.4 C7.6 5.8 7.1 5.8 0 5.1 C-0.16667 4.93333 -0.375 4.725 -0.5 4.6 C-0.7 3.45 -1.1 1.15 -1.3 0 C-1.175 -0.125 -0.925 -0.375 -0.8 -0.5 C5.8 -0.2 8.9 0 12.4 0 C16.7 0 20.9 -0.3 25.2 -0.5 C25.36667 -0.33333 25.575 -0.125 25.7 0 C25.9 1.15 26.3 3.45 26.5 4.6 C26.375 4.725 26.125 4.975 26 5.1 C18.6 5.9 17.7 5.9 17.7 8.6 C17.7 15.9 21.3 37.8 23 47.6 C29.86667 37.53333 38.45 24.95 43.6 17.4 C49 9.4 52.8 3.8 55.6 -1 C60.1 -1 65.725 -1 69.1 -1 C71.9 18.5 73.8 32 79.1 57.6 C80.1 62.4 80.7 62.9 87.6 63.8 C87.76667 63.96667 87.975 64.175 88.1 64.3 C88.3 65.45 88.7 67.75 88.9 68.9 C88.775 69.025 88.525 69.275 88.4 69.4 C87.2 69.3 78 68.9 75.9 68.9 C71.4 68.9 66.9 69.2 62.4 69.4 C62.23333 69.23333 62.025 69.025 61.9 68.9 C61.7 67.75 61.3 65.45 61.1 64.3 C61.225 64.175 61.475 63.925 61.6 63.8 C70.1 62.9 70.1 62.5 70.1 60.3 C70.1 55.4 67.6 39.4 65.5 25.8 C65.16667 23.66667 64.75 21 64.5 19.4 C55.7 31.4 38.5 56.5 31.8 69.4 C30.1 69.3 21.8 68.9 19.9 68.9 C15.4 68.9 10.9 69.2 6.4 69.4 C6.23333 69.23333 6.025 69.025 5.9 68.9 C5.7 67.75 5.3 65.45 5.1 64.3 z" />
<glyph unicode="O" horiz-adv-x="85.2" d="M38.8 -1.9 C73.4 -1.9 83.2 25.4 83.2 40.9 C83.2 65.7 63.8 70.6 49 70.6 C23.6 70.6 5 53.4 5 27.5 C5 8.4 17.4 -1.9 38.8 -1.9 zM63 45.3 C63 31.7 58.8 4.6 40.4 4.6 C28.3 4.6 25.2 13.1 25.2 23.7 C25.2 37.4 29.8 64.1 48.1 64.1 C59.6 64.1 63 55.3 63 45.3 z" />
<glyph unicode="P" horiz-adv-x="70.4" d="M35.6 29.7 C39.3 28.6 41 28.1 45 28.1 C64.8 28.1 71.2 43.3 71.2 52.6 C71.2 68.2 57.3 69.4 46.4 69.4 C38.7 69.4 31 68.9 23.3 68.9 C18.7 68.9 14.1 69.2 9.6 69.4 C9.43333 69.23333 9.225 69.025 9.1 68.9 C8.9 67.75 8.5 65.45 8.3 64.3 C8.425 64.175 8.675 63.925 8.8 63.8 C15.7 63.3 17.1 62.5 17.1 60.8 C17.1 55 9.8 14.7 8.3 9.2 C7.4 6.1 6.4 5.6 0.2 5.1 C0.03333 4.93333 -0.175 4.725 -0.3 4.6 C-0.5 3.45 -0.9 1.15 -1.1 0 C-0.975 -0.125 -0.725 -0.375 -0.6 -0.5 C4.7 -0.3 11 0 17.2 0 C23.5 0 29.8 -0.3 36.1 -0.5 C36.26667 -0.33333 36.475 -0.125 36.6 0 C36.8 1.15 37.2 3.45 37.4 4.6 C37.275 4.725 37.025 4.975 36.9 5.1 C28.1 5.6 27.4 5.9 27.4 8.7 C27.4 14.7 34.9 54.8 36.8 62.7 C37.7 62.8 38.7 62.9 40 62.9 C45 62.9 51.3 61.9 51.3 51.7 C51.3 44.3 48.3 34.9 40 34.9 C37.7 34.9 36.7 35.3 35.2 35.9 C34.76667 35.53333 34.225 35.075 33.9 34.8 C34.325 33.525 35.175 30.975 35.6 29.7 z" />
<glyph unicode="Q" horiz-adv-x="85.2" d="M72.5 -4.5 C72.375 -4.625 72.125 -4.875 72 -5 C71.3 -8 70 -12.3 64.5 -12.3 C58.3 -12.3 42.9 -4.2 34.2 -1.8 C34.26667 -1.73333 34.35 -1.65 34.4 -1.6 C35.6 -1.8 37.2 -1.9 38.8 -1.9 C73.4 -1.9 83.2 25.4 83.2 40.9 C83.2 65.7 63.8 70.6 49 70.6 C23.6 70.6 5 53.4 5 27.5 C5 11.7 13.5 1.9 28.6 -0.7 C28.6 -0.76667 28.6 -0.85 28.6 -0.9 C16.2 -1.6 12.7 -15.8 12.7 -17.2 C12.9 -17.46667 13.15 -17.8 13.3 -18 C14.35 -18.525 16.45 -19.575 17.5 -20.1 C17.675 -19.975 18.025 -19.725 18.2 -19.6 C20.4 -12.7 23.1 -11.3 25.5 -11.3 C33.2 -11.3 49.5 -25.2 59.8 -25.2 C70.9 -25.2 75.2 -16.6 77.7 -5 C77.53333 -4.83333 77.325 -4.625 77.2 -4.5 C76.025 -4.5 73.675 -4.5 72.5 -4.5 zM63 45.3 C63 31.7 58.8 4.6 40.4 4.6 C28.3 4.6 25.2 13.1 25.2 23.7 C25.2 37.4 29.8 64.1 48.1 64.1 C59.6 64.1 63 55.3 63 45.3 z" />
<glyph unicode="R" horiz-adv-x="75.9" d="M8.3 64.3 C8.425 64.175 8.675 63.925 8.8 63.8 C16.1 63.2 17 63.1 17 60.8 C17 55 9.7 14.7 8.2 9.2 C7.3 5.8 6.3 5.4 0.1 5.1 C-0.06667 4.93333 -0.275 4.725 -0.4 4.6 C-0.6 3.45 -1 1.15 -1.2 0 C-1.075 -0.125 -0.825 -0.375 -0.7 -0.5 C1.2 -0.4 13 0 15.7 0 C21.8 0 28 -0.3 34.1 -0.5 C34.26667 -0.33333 34.475 -0.125 34.6 0 C34.8 1.15 35.2 3.45 35.4 4.6 C35.275 4.725 35.025 4.975 34.9 5.1 C29.1 5.1 27.4 5.4 27.4 8.1 C27.4 11.8 33.7 47.2 36.7 62.6 C37.9 62.8 39 62.9 40.2 62.9 C45.6 62.9 50.8 61.7 50.8 52.9 C50.8 35.8 39.5 35.8 34.7 35.8 C34.23333 35.23333 33.65 34.525 33.3 34.1 C37.35 25.45 45.45 8.15 49.5 -0.5 C51.2 -0.4 59.4 0 61.3 0 C65.4 0 69.6 -0.3 73.7 -0.5 C73.86667 -0.33333 74.075 -0.125 74.2 0 C74.4 1.15 74.8 3.45 75 4.6 C74.875 4.725 74.625 4.975 74.5 5.1 C68.9 5.1 67.7 6.3 63.1 15.3 C59.86667 21.6 55.825 29.475 53.4 34.2 C57.4 35.3 70.4 39.1 70.4 54.4 C70.4 69.1 58.2 69.4 46.8 69.4 C39.8 69.4 32.7 68.9 25.7 68.9 C20.3 68.9 15 69.3 9.6 69.4 C9.43333 69.23333 9.225 69.025 9.1 68.9 C8.9 67.75 8.5 65.45 8.3 64.3 z" />
<glyph unicode="S" horiz-adv-x="59.3" d="M53.3 48.7 C53.425 48.825 53.675 49.075 53.8 49.2 C53.8 50.2 53.9 52.7 54.9 58.3 C55.4 61 56 63.6 56.5 65.8 C56.33333 66.2 56.125 66.7 56 67 C53.5 68.6 46.3 70.5 38.1 70.5 C17.1 70.5 7.8 57.9 7.8 44.4 C7.8 19.9 39 31.9 39 16.4 C39 7.4 29.6 5.5 25.7 5.5 C14.3 5.5 10.3 11.7 10.3 22 C10.13333 22.16667 9.925 22.375 9.8 22.5 C8.8 22.5 6.8 22.5 5.8 22.5 C5.675 22.375 5.425 22.125 5.3 22 C4.9 16 3.9 9.9 2.3 3.9 C2.46667 3.4 2.675 2.775 2.8 2.4 C6.8 0.6 15.1 -1.9 23 -1.9 C41.7 -1.9 55.7 9.9 55.7 25.3 C55.7 49.8 23.5 38.1 23.5 53.6 C23.5 62.5 32.5 63.3 34.6 63.3 C47.6 63.3 48.4 54 48.8 49.2 C48.96667 49.03333 49.175 48.825 49.3 48.7 C50.3 48.7 52.3 48.7 53.3 48.7 z" />
<glyph unicode="T" horiz-adv-x="72.2" d="M13.8 0 C13.925 -0.125 14.175 -0.375 14.3 -0.5 C20.2 -0.3 26 0 31.9 0 C37.7 0 43.6 -0.3 49.4 -0.5 C49.56667 -0.33333 49.775 -0.125 49.9 0 C50.1 1.15 50.5 3.45 50.7 4.6 C50.575 4.725 50.325 4.975 50.2 5.1 C44.3 5.6 42.6 5.9 42.6 7.7 C42.6 14.5 50 54.2 51.4 62 C54.5 62 65.9 62 67 60.8 C67.9 59.9 68.2 58.7 68.2 54.8 C68.2 53.73333 68.2 52.4 68.2 51.6 C68.325 51.475 68.575 51.225 68.7 51.1 C69.775 51.1 71.925 51.1 73 51.1 C73.125 51.225 73.375 51.475 73.5 51.6 C74 57 74.9 64 76.3 68.7 C76.03333 68.93333 75.7 69.225 75.5 69.4 C64.1 69.2 52.8 68.9 41.4 68.9 C31 68.9 20.7 69.2 10.3 69.4 C10.06667 69.1 9.775 68.725 9.6 68.5 C9.3 62.2 7.9 53.2 7.6 51.6 C7.76667 51.43333 7.975 51.225 8.1 51.1 C9.275 51.1 11.625 51.1 12.8 51.1 C12.925 51.225 13.175 51.475 13.3 51.6 C14.8 57.2 15.4 59.7 16.5 60.8 C17.6 61.9 23.1 62 26.4 62 C28.43333 62 30.975 62 32.5 62 C31.4 53.5 25.5 16.1 23.3 8.6 C22.6 6.1 21.7 6 15.1 5.1 C14.93333 4.93333 14.725 4.725 14.6 4.6 C14.4 3.45 14 1.15 13.8 0 z" />
<glyph unicode="U" horiz-adv-x="83.3" d="M6.9 64.3 C7.025 64.175 7.275 63.925 7.4 63.8 C8.8 63.6 13 63.2 14.2 62.6 C15.3 62 15.7 61.6 15.7 60.4 C15.7 52.5 8.7 21.4 8.7 13.2 C8.7 4.3 15.4 -1.9 25 -1.9 C33.2 -1.9 40.7 0.6 51.7 10.5 C51.5 8.8 51.3 6.9 49.4 0.2 C49.7 -0.03333 50.075 -0.325 50.3 -0.5 C54.7 -0.3 59.2 0 63.6 0 C68 0 72.5 -0.3 76.9 -0.5 C77.06667 -0.33333 77.275 -0.125 77.4 0 C77.6 1.15 78 3.45 78.2 4.6 C78.075 4.725 77.825 4.975 77.7 5.1 C69.3 5.8 69.3 6.5 69.3 8 C69.3 11 75.2 44.1 77.4 56.3 C78.7 63 79 63 86.4 63.8 C86.56667 63.96667 86.775 64.175 86.9 64.3 C87.1 65.45 87.5 67.75 87.7 68.9 C87.575 69.025 87.325 69.275 87.2 69.4 C81.4 69.2 75.5 68.9 69.7 68.9 C63.9 68.9 58 69.2 52.2 69.4 C52.03333 69.23333 51.825 69.025 51.7 68.9 C51.5 67.75 51.1 65.45 50.9 64.3 C51.025 64.175 51.275 63.925 51.4 63.8 C58.5 62.7 59.3 62.7 59.3 59.9 C59.3 58.6 58.8 55.6 58.3 52.4 C56.36667 41.13333 53.95 27.05 52.5 18.6 C51.4 17.5 43.2 10.8 36.5 10.8 C34.5 10.8 27.9 11.4 27.9 19.9 C27.9 25.5 34.9 60.4 36.9 68.5 C36.7 68.8 36.45 69.175 36.3 69.4 C31.6 69.2 27 68.9 22.3 68.9 C17.6 68.9 12.9 69.2 8.2 69.4 C8.03333 69.23333 7.825 69.025 7.7 68.9 C7.5 67.75 7.1 65.45 6.9 64.3 z" />
<glyph unicode="V" horiz-adv-x="68.5" d="M3.7 64.3 C3.825 64.175 4.075 63.925 4.2 63.8 C4.8 63.75 6 63.65 6.6 63.6 C11.4 63.2 11.7 62.1 13.8 50.3 C16.83333 33.2 20.625 11.825 22.9 -1 C25.5 -1 30.7 -1 33.3 -1 C43.8 17.7 55.2 37.2 66.4 56.1 C70.7 63.4 73.2 63.6 77.2 63.8 C77.36667 63.96667 77.575 64.175 77.7 64.3 C77.9 65.45 78.3 67.75 78.5 68.9 C78.375 69.025 78.125 69.275 78 69.4 C73.6 69.2 69.3 68.9 64.9 68.9 C60.3 68.9 55.7 69.2 51.1 69.4 C50.93333 69.23333 50.725 69.025 50.6 68.9 C50.4 67.75 50 65.45 49.8 64.3 C49.925 64.175 50.175 63.925 50.3 63.8 C53.8 63.6 58.3 63.3 58.3 61 C58.3 59.9 57.1 57.2 55.2 53.7 C49.33333 42.8 42 29.175 37.6 21 C37.55 21 37.45 21 37.4 21 C36.375 27.25 34.325 39.75 33.3 46 C32.9 48.6 31.3 58.4 31.3 60.7 C31.3 63.2 32.1 63.4 39 63.8 C39.16667 63.96667 39.375 64.175 39.5 64.3 C39.7 65.45 40.1 67.75 40.3 68.9 C40.175 69.025 39.925 69.275 39.8 69.4 C33.9 69.2 28.1 68.9 22.2 68.9 C16.5 68.9 10.7 69.2 5 69.4 C4.83333 69.23333 4.625 69.025 4.5 68.9 C4.3 67.75 3.9 65.45 3.7 64.3 z" />
<glyph unicode="W" horiz-adv-x="101.9" d="M3.9 64.3 C4.025 64.175 4.275 63.925 4.4 63.8 C4.825 63.75 5.675 63.65 6.1 63.6 C11.9 62.9 12.1 62.8 12.8 55.7 C14.5 39.1 16.6 8 16.9 -1 C20.5 -1 25 -1 27.7 -1 C34.175 10.2 47.125 32.6 53.6 43.8 C56.975 32.6 63.725 10.2 67.1 -1 C69.7 -1 74.9 -1 77.5 -1 C80.6 9.8 90.6 37 99 57.5 C101.2 62.8 101.7 63.5 108.9 63.8 C109.06667 63.96667 109.275 64.175 109.4 64.3 C109.6 65.45 110 67.75 110.2 68.9 C110.075 69.025 109.825 69.275 109.7 69.4 C105.2 69.2 100.8 68.9 96.3 68.9 C91.8 68.9 87.3 69.2 82.8 69.4 C82.63333 69.23333 82.425 69.025 82.3 68.9 C82.1 67.75 81.7 65.45 81.5 64.3 C81.625 64.175 81.875 63.925 82 63.8 C86.9 63.6 89.9 62.9 89.9 60.5 C89.9 59.8 89.3 56.7 87.5 51.1 C84.63333 42.03333 81.05 30.7 78.9 23.9 C78.85 23.9 78.75 23.9 78.7 23.9 C74 39.2 68.9 54.5 64.7 70 C63.03333 70 60.95 70 59.7 70 C51.5 54.4 42.5 39.4 33.8 24.1 C33.73333 24.1 33.65 24.1 33.6 24.1 C33.3 28.825 32.7 38.275 32.4 43 C32.1 47.1 31.7 54 31.7 58 C31.7 59.1 31.7 61.4 32.6 62.3 C33.7 63.4 35.8 63.6 39.4 63.8 C39.56667 63.96667 39.775 64.175 39.9 64.3 C40.1 65.45 40.5 67.75 40.7 68.9 C40.575 69.025 40.325 69.275 40.2 69.4 C34.4 69.2 28.5 68.9 22.7 68.9 C16.9 68.9 11 69.2 5.2 69.4 C5.03333 69.23333 4.825 69.025 4.7 68.9 C4.5 67.75 4.1 65.45 3.9 64.3 z" />
<glyph unicode="X" horiz-adv-x="72.2" d="M29.3 31.7 C24.3 26.125 14.3 14.975 9.3 9.4 C6.1 5.9 3.2 5.3 -2 5.1 C-2.16667 4.93333 -2.375 4.725 -2.5 4.6 C-2.7 3.45 -3.1 1.15 -3.3 0 C-3.175 -0.125 -2.925 -0.375 -2.8 -0.5 C2 -0.3 6.8 0 11.6 0 C16.4 0 21.2 -0.3 26 -0.5 C26.16667 -0.33333 26.375 -0.125 26.5 0 C26.7 1.15 27.1 3.45 27.3 4.6 C27.175 4.725 26.925 4.975 26.8 5.1 C22 5.3 20.3 6 20.3 7.5 C20.3 9.4 23.1 12.6 24.5 14.3 C27.26667 17.63333 30.725 21.8 32.8 24.3 C34.175 21.6 36.925 16.2 38.3 13.5 C39 12.2 40.5 9.2 40.5 7.8 C40.5 6.5 39.8 5.4 33.5 5.1 C33.33333 4.93333 33.125 4.725 33 4.6 C32.8 3.45 32.4 1.15 32.2 0 C32.325 -0.125 32.575 -0.375 32.7 -0.5 C38.9 -0.3 45.2 0 51.4 0 C57.6 0 63.8 -0.3 70 -0.5 C70.16667 -0.33333 70.375 -0.125 70.5 0 C70.7 1.15 71.1 3.45 71.3 4.6 C71.175 4.725 70.925 4.975 70.8 5.1 C63.7 5.3 63.3 6.1 60.2 12 C55.4 21.1 49.4 32.475 45.8 39.3 C49.95 43.95 58.25 53.25 62.4 57.9 C66.6 62.6 67.6 63.6 74.6 63.8 C74.76667 63.96667 74.975 64.175 75.1 64.3 C75.3 65.45 75.7 67.75 75.9 68.9 C75.775 69.025 75.525 69.275 75.4 69.4 C70.9 69.2 66.3 68.9 61.8 68.9 C57.3 68.9 52.7 69.2 48.2 69.4 C48.03333 69.23333 47.825 69.025 47.7 68.9 C47.5 67.75 47.1 65.45 46.9 64.3 C47.025 64.175 47.275 63.925 47.4 63.8 C51 63.6 53.9 63.3 53.9 61.5 C53.9 60.3 52.1 58.3 49.8 55.6 C47.26667 52.53333 44.1 48.7 42.2 46.4 C40.975 48.95 38.525 54.05 37.3 56.6 C36 59.2 35.5 60.7 35.5 61.5 C35.5 63.6 38.6 63.6 42 63.8 C42.16667 63.96667 42.375 64.175 42.5 64.3 C42.7 65.45 43.1 67.75 43.3 68.9 C43.175 69.025 42.925 69.275 42.8 69.4 C36.7 69.2 30.5 68.9 24.4 68.9 C18.3 68.9 12.1 69.2 6 69.4 C5.83333 69.23333 5.625 69.025 5.5 68.9 C5.3 67.75 4.9 65.45 4.7 64.3 C4.825 64.175 5.075 63.925 5.2 63.8 C11.8 63.5 12.7 63 16.8 55.3 C20.96667 47.43333 26.175 37.6 29.3 31.7 z" />
<glyph unicode="Y" horiz-adv-x="74.1" d="M15.4 0 C15.525 -0.125 15.775 -0.375 15.9 -0.5 C22 -0.3 28.1 0 34.2 0 C40.3 0 46.3 -0.3 52.4 -0.5 C52.56667 -0.33333 52.775 -0.125 52.9 0 C53.1 1.15 53.5 3.45 53.7 4.6 C53.575 4.725 53.325 4.975 53.2 5.1 C46 5.6 44.8 5.6 44.8 7.6 C44.8 10.1 46.4 25.9 51.2 34.7 C54 39.8 64.2 56.7 73.1 56.7 C73.9 56.7 74.8 56.5 75.6 56.3 C76.76667 60.66667 78.225 66.125 79.1 69.4 C78.3 69.6 77.2 69.8 76.3 69.8 C65 69.8 54.1 54.1 45.7 34.8 C45.63333 34.8 45.55 34.8 45.5 34.8 C44.3 46.9 39.8 70.4 24 70.4 C21.2 70.4 19.3 69.8 19.1 69.7 C18.5 69.4 11.7 65.1 4.7 61.2 C4.6 61.03333 4.475 60.825 4.4 60.7 C4.7 59.875 5.3 58.225 5.6 57.4 C5.7 57.325 5.9 57.175 6 57.1 C6.9 57.5 9.5 58.4 12 58.4 C17 58.4 19.9 56 23.7 45.9 C24.9 42.7 28.8 29.9 28.8 25.5 C28.8 23.9 28.8 23.7 28 19.8 C27.43333 16.9 26.725 13.275 26.3 11.1 C25.3 5.8 24.8 5.8 16.7 5.1 C16.53333 4.93333 16.325 4.725 16.2 4.6 C16 3.45 15.6 1.15 15.4 0 z" />
<glyph unicode="Z" horiz-adv-x="70.4" d="M13.5 49.3 C13.625 49.425 13.875 49.675 14 49.8 C14.8 52.5 14.9 52.8 17 59.4 C20 60.6 28.7 61.3 36.8 61.3 C39.13333 61.3 42.05 61.3 43.8 61.3 C29.4 42.4 15.1 23.4 -0.1 5.1 C-0.43333 3.4 -0.85 1.275 -1.1 0 C-0.975 -0.125 -0.725 -0.375 -0.6 -0.5 C9.5 -0.3 20 0 30.6 0 C41.1 0 51.7 -0.3 62.2 -0.5 C62.53333 -0.06667 62.95 0.475 63.2 0.8 C63.5 2.8 65 13.7 66.6 19 C66.4 19.2 66.15 19.45 66 19.6 C64.85 19.6 62.55 19.6 61.4 19.6 C61.25 19.45 60.95 19.15 60.8 19 C59.9 16.525 58.1 11.575 57.2 9.1 C53.8 8.3 50.6 7.6 38.5 7.6 C34.23333 7.6 28.9 7.6 25.7 7.6 C39.8 26.9 54.4 45.5 69.2 64.3 C69.43333 65.83333 69.725 67.75 69.9 68.9 C69.775 69.025 69.525 69.275 69.4 69.4 C59.8 69.2 50.4 68.9 41.1 68.9 C31.5 68.9 21.9 69.2 12.3 69.4 C11.73333 69.13333 11.025 68.8 10.6 68.6 C10.3 62.3 9.6 56.1 8.8 49.8 C8.96667 49.63333 9.175 49.425 9.3 49.3 C10.35 49.3 12.45 49.3 13.5 49.3 z" />
<glyph unicode="[" horiz-adv-x="38.9" d="M32.1 -12.2 C31.9 -12.075 31.5 -11.825 31.3 -11.7 C30.325 -11.7 28.375 -11.7 27.4 -11.7 C21 -11.8 19.6 -10.5 19.6 -8.3 C19.6 -6 20.2 -1.8 20.8 1.9 C23.43333 18.9 26.725 40.15 28.7 52.9 C29.5 58.3 30.6 64.9 31.5 66.5 C32.6 68.5 37.4 68.5 43 68.5 C43.26667 68.66667 43.6 68.875 43.8 69 C44 70.225 44.4 72.675 44.6 73.9 C44.425 74.025 44.075 74.275 43.9 74.4 C41.9 74.3 36.5 73.9 30.3 73.9 C24.5 73.9 19.6 74.3 17.6 74.4 C17.3 74.13333 16.925 73.8 16.7 73.6 C16 64.9 14.8 56 13.4 47.1 C11.63333 35.7 9.425 21.45 8.1 12.9 C7 5.9 4.1 -11.5 2.5 -17.1 C2.76667 -17.26667 3.1 -17.475 3.3 -17.6 C6.2 -17.5 11 -17.1 16 -17.1 C22.8 -17.1 27.4 -17.5 30.5 -17.6 C30.83333 -17.43333 31.25 -17.225 31.5 -17.1 C31.65 -15.875 31.95 -13.425 32.1 -12.2 z" />
<glyph unicode="\" horiz-adv-x="31.5" d="M3.9 71.2 C3.725 71.325 3.375 71.575 3.2 71.7 C0.875 71.7 -3.775 71.7 -6.1 71.7 C-6.225 71.575 -6.475 71.325 -6.6 71.2 C1.2 52.325 16.8 14.575 24.6 -4.3 C24.775 -4.425 25.125 -4.675 25.3 -4.8 C27.625 -4.8 32.275 -4.8 34.6 -4.8 C34.725 -4.675 34.975 -4.425 35.1 -4.3 C27.3 14.575 11.7 52.325 3.9 71.2 z" />
<glyph unicode="]" horiz-adv-x="38.9" d="M6.8 69 C7 68.875 7.4 68.625 7.6 68.5 C8.575 68.5 10.525 68.5 11.5 68.5 C17.9 68.6 19.3 67.3 19.3 65.1 C19.3 62.8 18.7 58.6 18.1 54.9 C15.46667 37.9 12.175 16.65 10.2 3.9 C9.4 -1.5 8.3 -8.1 7.4 -9.7 C6.3 -11.7 1.5 -11.7 -4.1 -11.7 C-4.36667 -11.86667 -4.7 -12.075 -4.9 -12.2 C-5.1 -13.425 -5.5 -15.875 -5.7 -17.1 C-5.525 -17.225 -5.175 -17.475 -5 -17.6 C-3 -17.5 2.4 -17.1 8.6 -17.1 C14.4 -17.1 19.3 -17.5 21.3 -17.6 C21.6 -17.33333 21.975 -17 22.2 -16.8 C22.9 -8.1 24.1 0.8 25.5 9.7 C27.26667 21.1 29.475 35.35 30.8 43.9 C31.9 50.9 34.8 68.3 36.4 73.9 C36.13333 74.06667 35.8 74.275 35.6 74.4 C32.7 74.3 27.9 73.9 22.9 73.9 C16.1 73.9 11.5 74.3 8.4 74.4 C8.06667 74.23333 7.65 74.025 7.4 73.9 C7.25 72.675 6.95 70.225 6.8 69 z" />
<glyph unicode="^" horiz-adv-x="60" d="M7.3 31.1 C10.2 31.1 16 31.1 18.9 31.1 C21.675 37.375 27.225 49.925 30 56.2 C32.775 49.925 38.325 37.375 41.1 31.1 C44 31.1 49.8 31.1 52.7 31.1 C48.35 40.225 39.65 58.475 35.3 67.6 C32.65 67.6 27.35 67.6 24.7 67.6 C20.35 58.475 11.65 40.225 7.3 31.1 z" />
<glyph unicode="_" horiz-adv-x="50" d="M50 -12.5 C50 -11.25 50 -8.75 50 -7.5 C37.5 -7.5 12.5 -7.5 0 -7.5 C0 -8.75 0 -11.25 0 -12.5 C12.5 -12.5 37.5 -12.5 50 -12.5 z" />
<glyph unicode="`" horiz-adv-x="27.8" d="M26 53.9 C27.25 53.9 29.75 53.9 31 53.9 C28.325 57.6 22.975 65 20.3 68.7 C18.7 70.9 16.9 72.3 14.5 72.3 C11.9 72.3 9 70.7 9 67.7 C9 66.6 9 64.6 12.7 62.3 C17.13333 59.5 22.675 56 26 53.9 z" />
<glyph unicode="a" horiz-adv-x="57.4" d="M46.6 46.3 C42.3 47.9 39.9 48.8 35.9 48.8 C25.5 48.8 17.2 43.3 11.2 37.4 C8.6 34.9 5.3 29.3 2.8 17.8 C1.5 11.9 1.5 8.5 1.5 7.1 C1.5 4.8 1.5 -1.4 8.3 -1.4 C15.2 -1.4 23.6 5 30.8 13.8 C30.86667 13.8 30.95 13.8 31 13.8 C30.6 11.6 29.5 6.4 29.5 3.7 C29.5 2.3 29.5 -1.4 34.1 -1.4 C38 -1.4 41.6 0.6 51 6.2 C52.6 7.13333 54.6 8.3 55.8 9 C55.8 9.15 55.8 9.45 55.8 9.6 C55.425 10.4 54.675 12 54.3 12.8 C54.15 12.825 53.85 12.875 53.7 12.9 C50.6 11.2 47.6 9.1 46.4 9.1 C45.4 9.1 45.1 9.8 45.1 10.7 C45.1 12.4 48.4 28.3 54.1 47.9 C53.46667 48.2 52.675 48.575 52.2 48.8 C50.8 48.175 48 46.925 46.6 46.3 zM30.7 41.5 C32.8 41.5 35.1 40.9 36.8 40.4 C36.6 37.1 31.9 16 21.2 10 C20.8 9.8 20 9.3 19.3 9.3 C18.4 9.3 17.6 10 17.6 11.7 C17.6 15.2 18.7 19.9 20.1 25.9 C22.1 34.6 24.4 38.4 25.7 39.7 C26.9 40.9 28.1 41.5 30.7 41.5 z" />
<glyph unicode="b" horiz-adv-x="55.6" d="M4 65.3 C4.1 65.175 4.3 64.925 4.4 64.8 C5.65 64.8 8.15 64.8 9.4 64.8 C12.1 64.8 12.5 63.4 12.5 62.2 C12.5 62 12.5 61.2 12.3 60.1 C10.16667 48.4 7.5 33.775 5.9 25 C4.6 18 3.8 13.5 3.8 10.7 C3.8 -1.4 15.9 -1.4 17.9 -1.4 C41.3 -1.4 53.6 19.8 53.6 36.8 C53.6 42 52.2 48.8 43.6 48.8 C33.9 48.8 25.5 40.4 23.2 37.7 C23.13333 37.7 23.05 37.7 23 37.7 C24.275 43.6 26.825 55.4 28.1 61.3 C29.1 66.1 30.5 70.7 30.9 72.5 C30.5 72.86667 30 73.325 29.7 73.6 C23.6 71.9 17.4 70.9 5 68.8 C4.83333 68.63333 4.625 68.425 4.5 68.3 C4.375 67.55 4.125 66.05 4 65.3 zM33.6 39.7 C37 39.7 37.3 36.6 37.3 34.6 C37.3 27.8 32.6 3.9 23.4 3.9 C19.7 3.9 18.4 7.4 18.4 10.6 C18.4 19.5 23.8 39.7 33.6 39.7 z" />
<glyph unicode="c" horiz-adv-x="46.3" d="M40.2 13.2 C40.05 13.2 39.75 13.2 39.6 13.2 C32.8 8 29.1 7.7 26.3 7.7 C18.5 7.7 18.5 15 18.5 18 C18.5 23.3 19.8 28.5 21.6 33.4 C24 39.7 25.8 42.1 30.1 42.1 C33.3 42.1 36.8 40.8 39.1 39.3 C39.2 37.2 39.325 34.575 39.4 33 C39.525 32.875 39.775 32.625 39.9 32.5 C40.725 32.5 42.375 32.5 43.2 32.5 C43.325 32.625 43.575 32.875 43.7 33 C44.3 36.4 45.5 43.2 46.1 46.6 C45.975 46.725 45.725 46.975 45.6 47.1 C43 48.2 38.1 48.8 35.5 48.8 C25.3 48.8 14.9 42.1 11 38.7 C9 37 2 28.9 2 15.9 C2 1.4 11.6 -1.4 17.7 -1.4 C27.8 -1.4 36.1 4.2 42.6 8.4 C42.6 8.7 42.6 9.075 42.6 9.3 C42 10.275 40.8 12.225 40.2 13.2 z" />
<glyph unicode="d" horiz-adv-x="59.3" d="M56.4 13.3 C56.275 13.3 56.025 13.3 55.9 13.3 C51.6 10.6 49.4 9.1 48.3 9.1 C47.5 9.1 47 9.6 47 10.7 C47 14.9 57.4 65.5 60.1 72.5 C59.66667 72.86667 59.125 73.325 58.8 73.6 C51 71.3 41.4 69.7 33.6 68.8 C33.43333 68.63333 33.225 68.425 33.1 68.3 C32.95 67.55 32.65 66.05 32.5 65.3 C32.625 65.175 32.875 64.925 33 64.8 C34.25 64.8 36.75 64.8 38 64.8 C41.9 64.8 42 63.4 42 62.5 C42 61.1 41.4 57.4 39.7 48.3 C38.2 48.5 36.1 48.8 33.5 48.8 C29 48.8 22.3 46.9 14.9 41 C9.1 36.4 6.2 33.1 3 18.6 C2.3 15.5 2 12.6 2 9.4 C2 6.9 2 -1.4 9.4 -1.4 C18.4 -1.4 28.1 10.5 33.1 16.4 C33.16667 16.4 33.25 16.4 33.3 16.4 C32.9 13.5 31.1 5.8 31.1 3.7 C31.1 0.2 32.8 -1.4 35.7 -1.4 C41.4 -1.4 52.1 5.6 57.4 9.2 C57.46667 9.5 57.55 9.875 57.6 10.1 C57.3 10.9 56.7 12.5 56.4 13.3 zM30.3 41.9 C32.9 41.9 35.5 41.2 37.8 40.1 C35.1 18.8 22.6 10.3 20.4 10.3 C18.8 10.3 18 11.1 18 14.1 C18 17.7 19.5 24.4 21.3 30.4 C23.8 38.5 24.8 41.9 30.3 41.9 z" />
<glyph unicode="e" horiz-adv-x="50" d="M42.2 13.4 C42.05 13.4 41.75 13.4 41.6 13.4 C35.6 9.7 30.7 6.8 25.8 6.8 C19.1 6.8 18.1 11.8 18.1 15.1 C18.1 16.9 18.4 18.1 18.8 19.9 C26.2 21.3 49 25.7 49 39.4 C49 48.8 38.6 48.8 36 48.8 C24.5 48.8 15.7 43.1 10.8 38.4 C6.9 34.7 1.9 26.1 1.9 14.7 C1.9 4 8 -1.4 17.8 -1.4 C30.2 -1.4 38.9 4.9 44.3 8.7 C44.3 8.93333 44.3 9.225 44.3 9.4 C43.775 10.4 42.725 12.4 42.2 13.4 zM30.4 29.6 C27.5 26.4 23.5 25.5 19.4 24.5 C20.5 29.7 23.6 43.6 30.9 43.6 C32.8 43.6 34.8 42.3 34.8 39.1 C34.8 37.3 34 33.4 30.4 29.6 z" />
<glyph unicode="f" horiz-adv-x="37" d="M47.3 59.7 C47.9 62.9 49.8 68.9 51.2 72.6 C48.6 73.3 44.9 73.6 43.9 73.6 C32.4 73.6 23 64.9 21.5 63.4 C16.6 58.2 14.9 51.6 13.7 45.7 C10.33333 44.33333 6.125 42.625 3.6 41.6 C3.475 41.475 3.225 41.225 3.1 41.1 C2.95 40.525 2.65 39.375 2.5 38.8 C2.625 38.675 2.875 38.425 3 38.3 C6.7 38.4 11.1 38.7 12.6 38.7 C10.56667 26.6 8.025 11.475 6.5 2.4 C2.7 -20.4 0.5 -20.4 -2.1 -20.4 C-4.8 -20.4 -7.4 -18 -9.6 -14.4 C-10.23333 -14.6 -11.025 -14.85 -11.5 -15 C-12.1 -20.6 -12.9 -24.1 -14 -26.8 C-12.6 -27.2 -11.2 -27.6 -8.6 -27.6 C0.9 -27.6 9.6 -20.3 14.2 -12.7 C18 -6.3 20.1 0.9 23 15.7 C24.5 23.36667 26.375 32.95 27.5 38.7 C31.1 38.7 34.9 38.5 38.4 38.3 C38.6 38.46667 38.85 38.675 39 38.8 C39.8 41.7 40.1 42.4 41.4 45.6 C41.16667 45.86667 40.875 46.2 40.7 46.4 C38.2 45.5 32.4 45.2 28.8 45 C29.33333 47.76667 30 51.225 30.4 53.3 C31 56.6 32.5 65.6 37 65.6 C41.3 65.6 43.8 61.8 45.4 59.3 C46.03333 59.43333 46.825 59.6 47.3 59.7 z" />
<glyph unicode="g" horiz-adv-x="53.7" d="M55.2 37.6 C55.5 39.8 56.1 42.1 56.8 43.6 C56.56667 44 56.275 44.5 56.1 44.8 C54.6 44.4 53.4 44.1 45.6 43.6 C42.3 47.3 37.8 48.8 31 48.8 C21.9 48.8 12.4 44.7 8.2 39.2 C6 36.4 3.9 31.4 3.9 27 C3.9 16.6 12 14.1 19.6 14.1 C19.6 14.03333 19.6 13.95 19.6 13.9 C18.125 13.175 15.175 11.725 13.7 11 C7.4 7.9 6.3 6.6 6.3 3.9 C6.3 1.1 8.5 -0.3 9.6 -0.6 C3.6 -4.2 -5.5 -7.1 -5.5 -15.7 C-5.5 -21.6 0.1 -27.6 18.1 -27.6 C26.8 -27.6 46.2 -24.7 46.2 -10.2 C46.2 -2.2 38.6 2 30.7 5.2 C24.9 7.6 22.3 8.7 22.3 10.1 C22.3 10.8 22.9 11.5 23.7 12 C24.76667 12.63333 26.1 13.425 26.9 13.9 C36.4 14.2 48.3 21.6 48.3 34 C48.3 35.3 48 36.5 47.7 37.6 C50.2 37.6 53.325 37.6 55.2 37.6 zM24.1 -7.6 C32.3 -11 32.3 -13.4 32.3 -15.3 C32.3 -20.9 23.4 -22.6 18.8 -22.6 C13.5 -22.6 4.9 -20.7 4.9 -13.9 C4.9 -8.8 8.2 -6.6 13.4 -3.1 C16.96667 -4.6 21.425 -6.475 24.1 -7.6 zM19.3 25 C19.3 28.2 20.5 44.2 28.5 44.2 C30.1 44.2 33.2 43.2 33.2 38.4 C33.2 33.3 31.8 17.9 24.1 17.9 C19.9 17.9 19.3 21.6 19.3 25 z" />
<glyph unicode="h" horiz-adv-x="61.1" d="M57.6 13 C57.475 13 57.225 13 57.1 13 C54.2 10.9 51.2 9 49.9 9 C49 9 48.5 9.6 48.5 10.6 C48.5 14.8 55.9 35.5 55.9 42.4 C55.9 47.3 52.2 48.8 49.4 48.8 C43.2 48.8 33.9 43.4 24.4 30.9 C24.33333 30.96667 24.25 31.05 24.2 31.1 C25.9 39.05 29.3 54.95 31 62.9 C32.3 68.7 32.9 71.2 33.6 72.6 C33.16667 72.93333 32.625 73.35 32.3 73.6 C27 72.2 10.4 68.9 7.5 68.9 C7.3 68.73333 7.05 68.525 6.9 68.4 C6.75 67.7 6.45 66.3 6.3 65.6 C6.375 65.475 6.525 65.225 6.6 65.1 C7.925 65.1 10.575 65.1 11.9 65.1 C14.3 65.1 15 64.3 15 63 C15 56.1 4.8 7.6 1.9 -1.4 C2.13333 -1.56667 2.425 -1.775 2.6 -1.9 C8 -0.2 13.6 0.2 18.5 0.4 C19.4 10.5 21.9 18.7 25.1 24.4 C28.2 29.8 34.6 36.8 37.5 36.8 C38.5 36.8 38.9 36.2 38.9 35.2 C38.9 29.2 31.9 9.2 31.9 3.8 C31.9 1 33.5 -1.4 36.9 -1.4 C41.9 -1.4 48.2 2.7 59 9.3 C59 9.5 59 9.75 59 9.9 C58.65 10.675 57.95 12.225 57.6 13 z" />
<glyph unicode="i" horiz-adv-x="35.2" d="M31.4 13 C31.275 13 31.025 13 30.9 13 C28 10.9 25 9 23.7 9 C22.8 9 22.3 9.6 22.3 10.6 C22.3 15.2 29.7 37.2 29.7 43.4 C29.7 47 28.1 48.8 24.9 48.8 C20.8 48.8 14.7 45.6 2.6 36.1 C2.53333 35.9 2.45 35.65 2.4 35.5 C2.75 34.725 3.45 33.175 3.8 32.4 C3.925 32.4 4.175 32.4 4.3 32.4 C8.8 35.7 10.2 36.8 11.1 36.8 C11.9 36.8 12.3 36 12.3 34.7 C12.3 30.1 5.7 11.7 5.7 3.8 C5.7 1 7.3 -1.4 10.7 -1.4 C15.7 -1.4 22 2.7 32.8 9.3 C32.8 9.5 32.8 9.75 32.8 9.9 C32.45 10.675 31.75 12.225 31.4 13 zM17.6 62.3 C17.6 56.7 21.4 54.5 25.1 54.5 C30.3 54.5 33.9 58.2 33.9 64 C33.9 69.7 30.1 71.9 26.5 71.9 C21.2 71.9 17.6 68.2 17.6 62.3 z" />
<glyph unicode="j" horiz-adv-x="33.3" d="M3.2 32 C3.35 31.975 3.65 31.925 3.8 31.9 C5 33 9.6 36.7 11.3 36.7 C12.4 36.7 12.6 35.9 12.6 35 C12.6 33.5 12.3 32 12 30.5 C9.4 17.8 6.15 1.925 4.2 -7.6 C2 -18.1 -0.9 -20.6 -3.1 -20.6 C-6.2 -20.6 -8.1 -18.6 -10.5 -15.8 C-10.96667 -16 -11.55 -16.25 -11.9 -16.4 C-11.9 -21.1 -12.4 -22.5 -13.3 -26.8 C-12.1 -27.4 -10.8 -27.6 -8.5 -27.6 C-0.6 -27.6 7.3 -22.2 12.8 -15.8 C18 -9.8 19.3 -7.5 22.1 5.5 C24.06667 14.66667 26.525 26.125 28 33 C29.1 38 29.7 40.9 29.7 43.1 C29.7 46 29 48.8 24.8 48.8 C18.8 48.8 6.3 39.1 1.8 36 C1.76667 35.73333 1.725 35.4 1.7 35.2 C2.075 34.4 2.825 32.8 3.2 32 zM17.6 62.3 C17.6 56.7 21.4 54.5 24.2 54.5 C30.3 54.5 33.9 58.2 33.9 64 C33.9 69.7 30.1 71.9 26.5 71.9 C21.2 71.9 17.6 68.2 17.6 62.3 z" />
<glyph unicode="k" horiz-adv-x="59.3" d="M6.3 65.6 C6.375 65.475 6.525 65.225 6.6 65.1 C7.925 65.1 10.575 65.1 11.9 65.1 C14.3 65.1 15 64.3 15 63 C15 56.1 4.8 7.6 1.9 -1.4 C2.13333 -1.56667 2.425 -1.775 2.6 -1.9 C8 -0.2 13.6 0.2 18.5 0.4 C19.9 15.7 21.3 17.8 24.4 22.2 C26.06667 17.86667 28.15 12.45 29.4 9.2 C32.6 0.9 34.4 -1.4 37.3 -1.4 C40.4 -1.4 41.9 -0.4 55.7 8.4 C55.73333 8.63333 55.775 8.925 55.8 9.1 C55.5 9.875 54.9 11.425 54.6 12.2 C54.475 12.2 54.225 12.2 54.1 12.2 C49.8 9.5 48.8 9.1 47.9 9.1 C46.1 9.1 45.2 10.2 43.3 14.9 C40.86667 21.1 37.825 28.85 36 33.5 C41.9 38.4 43.7 39.3 50 39.3 C51 39.3 53.8 38.7 54.5 38.4 C54.86667 38.56667 55.325 38.775 55.6 38.9 C55.8 40.5 57 45.9 57.9 47.4 C57.8 47.73333 57.675 48.15 57.6 48.4 C56.7 48.6 55.7 48.8 54.2 48.8 C44.5 48.8 37.4 41.5 27.3 31.2 C25.96667 29.76667 24.3 27.975 23.3 26.9 C23.25 26.95 23.15 27.05 23.1 27.1 C25.075 36.05 29.025 53.95 31 62.9 C32.3 68.7 32.9 71.2 33.6 72.6 C33.16667 72.93333 32.625 73.35 32.3 73.6 C27 72.2 10.4 68.9 7.5 68.9 C7.3 68.73333 7.05 68.525 6.9 68.4 C6.75 67.7 6.45 66.3 6.3 65.6 z" />
<glyph unicode="l" horiz-adv-x="33.3" d="M30.4 13 C30.275 13 30.025 13 29.9 13 C27 10.9 24 9 22.7 9 C21.8 9 21.3 9.6 21.3 10.6 C21.3 12.8 30.3 62.3 34.5 72.6 C34.06667 72.93333 33.525 73.35 33.2 73.6 C27.9 72.2 11.3 68.9 8.4 68.9 C8.2 68.73333 7.95 68.525 7.8 68.4 C7.65 67.7 7.35 66.3 7.2 65.6 C7.275 65.475 7.425 65.225 7.5 65.1 C8.825 65.1 11.475 65.1 12.8 65.1 C15.2 65.1 15.9 64.3 15.9 63 C15.9 60.6 13 48 9 27 C6.7 15 4.7 7.9 4.7 4.5 C4.7 1 6.3 -1.4 9.7 -1.4 C14.7 -1.4 21 2.7 31.8 9.3 C31.8 9.5 31.8 9.75 31.8 9.9 C31.45 10.675 30.75 12.225 30.4 13 z" />
<glyph unicode="m" horiz-adv-x="88.9" d="M3.1 32.4 C3.225 32.4 3.475 32.4 3.6 32.4 C7.4 35.5 9.3 36.8 10.3 36.8 C11.3 36.8 11.7 36.2 11.7 34.9 C11.7 34 8.4 13.1 3.5 -1.4 C3.73333 -1.56667 4.025 -1.775 4.2 -1.9 C9.6 -0.2 15.2 0.2 20.1 0.4 C21.4 9.9 22.3 15.5 25.1 22.3 C27.9 29 34.3 36.4 37.3 36.4 C39 36.4 39 35.3 39 34.7 C39 31.9 32.5 5 30.8 -1 C31.03333 -1.2 31.325 -1.45 31.5 -1.6 C34.7 -0.2 39.9 0.2 47 0.8 C49 12.8 50.1 19.1 53.4 25 C58.1 33.5 63.1 36.7 65.2 36.7 C66.2 36.7 66.6 36.2 66.6 35.2 C66.6 29.2 59.6 9.2 59.6 3.8 C59.6 1 61.2 -1.4 64.6 -1.4 C69.6 -1.4 75.9 2.7 86.7 9.3 C86.7 9.5 86.7 9.75 86.7 9.9 C86.35 10.675 85.65 12.225 85.3 13 C85.175 13 84.925 13 84.8 13 C81.9 10.9 78.9 9 77.6 9 C76.7 9 76.2 9.6 76.2 10.6 C76.2 14.8 83.6 35.5 83.6 42.4 C83.6 47.3 79.9 48.8 77.1 48.8 C66.9 48.8 56.8 36.9 53.6 32.9 C53.53333 32.96667 53.45 33.05 53.4 33.1 C53.7 35.1 55.2 40.8 55.2 43.8 C55.2 47.2 52.5 48.8 49.3 48.8 C42.3 48.8 33.7 41.4 26.4 32.5 C26.33333 32.56667 26.25 32.65 26.2 32.7 C27 36 28.7 42.6 28.7 44.7 C28.7 47.6 27 48.8 24.7 48.8 C21.1 48.8 13.9 45.1 1.9 36.1 C1.83333 35.9 1.75 35.65 1.7 35.5 C2.05 34.725 2.75 33.175 3.1 32.4 z" />
<glyph unicode="n" horiz-adv-x="63" d="M3.1 32.4 C3.225 32.4 3.475 32.4 3.6 32.4 C7.4 35.5 9.3 36.8 10.3 36.8 C11.3 36.8 11.7 36.2 11.7 34.9 C11.7 34 8.4 13.1 3.5 -1.4 C3.73333 -1.56667 4.025 -1.775 4.2 -1.9 C9.6 -0.2 15.2 0.2 20.1 0.4 C21 10.5 23.5 18.7 26.7 24.4 C29.8 29.8 36.2 36.8 39.1 36.8 C40.1 36.8 40.5 36.2 40.5 35.2 C40.5 29.2 33.5 9.2 33.5 3.8 C33.5 1 35.1 -1.4 38.5 -1.4 C43.5 -1.4 49.8 2.7 60.6 9.3 C60.6 9.5 60.6 9.75 60.6 9.9 C60.25 10.675 59.55 12.225 59.2 13 C59.075 13 58.825 13 58.7 13 C55.8 10.9 52.8 9 51.5 9 C50.6 9 50.1 9.6 50.1 10.6 C50.1 14.8 57.5 35.5 57.5 42.4 C57.5 47.3 53.8 48.8 51 48.8 C44.8 48.8 35.5 43.4 26 30.9 C25.93333 30.96667 25.85 31.05 25.8 31.1 C27.6 38 28.7 42.6 28.7 44.7 C28.7 47.6 27 48.8 24.7 48.8 C21.1 48.8 13.9 45.1 1.9 36.1 C1.83333 35.9 1.75 35.65 1.7 35.5 C2.05 34.725 2.75 33.175 3.1 32.4 z" />
<glyph unicode="o" horiz-adv-x="57.4" d="M36.6 22.2 C35.6 16.6 34.2 3.7 26.3 3.7 C20.9 3.7 19.7 7.9 19.7 13.7 C19.7 17.6 20.9 25.1 22.9 33.4 C24.6 40.2 26.9 44.2 32.2 44.2 C37.3 44.2 38.1 39.4 38.1 36 C38.1 32.1 37.3 26 36.6 22.2 zM54.6 31.1 C54.6 43.5 47.2 48.8 34.7 48.8 C30.4 48.8 23.2 48.8 15.2 42.9 C3.3 34.1 3 18.6 3 16.9 C3 7.7 8.3 -1.4 23.3 -1.4 C50.1 -1.4 54.6 21.4 54.6 31.1 z" />
<glyph unicode="p" horiz-adv-x="59.3" d="M38.8 21.1 C36.4 11 32.8 4.1 26.1 4.1 C24 4.1 22 4.6 20.1 5.5 C20.9 10.1 22.3 18.4 25.3 25.3 C28.1 31.8 35.2 39.7 38.5 39.7 C39.8 39.7 41.1 38.7 41.1 36 C41.1 31 39.7 24.7 38.8 21.1 zM2.2 32.3 C2.375 32.3 2.725 32.3 2.9 32.3 C4.9 33.8 8.8 36.8 10 36.8 C10.9 36.8 11.1 36 11.1 35 C11.1 31.6 10.2 27.3 9 21.7 C6.3 9.16667 2.925 -6.5 0.9 -15.9 C0 -20.1 -1.1 -24.2 -2 -26.8 C-1.63333 -27.06667 -1.175 -27.4 -0.9 -27.6 C3 -25.9 11 -25.1 14.7 -25.1 C15.5 -17.5 17.7 -6.4 19 -0.7 C20.7 -1.1 22.4 -1.4 24.2 -1.4 C31 -1.4 44.5 4.1 50.7 14.1 C56.9 24.2 57.4 36.9 57.4 38.7 C57.4 45.2 54.3 48.8 48.3 48.8 C39.2 48.8 31.4 41.2 25.9 34.2 C25.83333 34.2 25.75 34.2 25.7 34.2 C26.5 38.1 27.7 42.6 27.7 44.4 C27.7 48 25.5 48.8 23.4 48.8 C18.1 48.8 7.7 40.8 1.3 36.2 C1.16667 35.93333 1 35.6 0.9 35.4 C1.225 34.625 1.875 33.075 2.2 32.3 z" />
<glyph unicode="q" horiz-adv-x="57.4" d="M21.2 31 C24.2 41.2 26.1 41.6 30.3 41.6 C32.4 41.6 35.9 41 37.7 40.4 C37 31.4 34.2 24.5 31 19.5 C28.6 15.7 22.6 9.2 20 9.2 C18.5 9.2 17.9 10.4 17.9 11.8 C17.9 17 19.4 24.8 21.2 31 zM47.7 45.9 C45 47.2 41.9 48.8 36 48.8 C25 48.8 13.5 39.6 10.4 36.3 C3.7 29.2 2.1 15.1 2.1 10 C2.1 5.6 3.1 -1.4 9 -1.4 C17.2 -1.4 27.1 9 32.3 14.2 C32.36667 14.2 32.45 14.2 32.5 14.2 C30.825 6.4 27.475 -9.2 25.8 -17 C24.6 -22.5 23.4 -24 21.4 -26.3 C21.86667 -26.73333 22.45 -27.275 22.8 -27.6 C26.8 -26.7 30.4 -25.8 39.9 -25.3 C41.5 -14.3 43.8 1.1 47.2 16.2 C49.6 26.8 51.8 37.6 55.1 47.8 C54.63333 48.13333 54.05 48.55 53.7 48.8 C52.2 48.075 49.2 46.625 47.7 45.9 z" />
<glyph unicode="r" horiz-adv-x="46.3" d="M3.1 32.4 C3.225 32.4 3.475 32.4 3.6 32.4 C7.4 35.5 9.3 36.8 10.3 36.8 C11.3 36.8 11.7 36.2 11.7 34.9 C11.7 33.8 6.3 5.4 4.3 -0.6 C4.6 -0.96667 4.975 -1.425 5.2 -1.7 C10.8 0 14.5 0.2 20.5 0.6 C21.7 13.6 27.3 34.6 39.6 34.6 C41.9 34.6 43.3 33.4 44.1 31.8 C44.73333 31.9 45.525 32.025 46 32.1 C46 35.3 47.4 43.2 49.3 47.9 C49.1 48.1 48.85 48.35 48.7 48.5 C47.9 48.7 47 48.8 46 48.8 C39 48.8 33.4 41.7 26 30.9 C25.93333 30.96667 25.85 31.05 25.8 31.1 C27.6 38 28.7 42.6 28.7 44.7 C28.7 47.6 27 48.8 24.7 48.8 C21.1 48.8 13.9 45.1 1.9 36.1 C1.83333 35.9 1.75 35.65 1.7 35.5 C2.05 34.725 2.75 33.175 3.1 32.4 z" />
<glyph unicode="s" horiz-adv-x="46.3" d="M40.6 34.8 C40.725 34.925 40.975 35.175 41.1 35.3 C41.6 39.2 41.9 43.1 42.7 46.5 C42.53333 46.66667 42.325 46.875 42.2 47 C41.1 47.4 36.1 48.8 29.7 48.8 C16.2 48.8 4.4 39.7 4.4 29.2 C4.4 19.4 12.1 17.8 17.8 17.3 C26.2 16.5 29.5 16.2 29.5 11.8 C29.5 8.4 26.6 5.3 19.9 5.3 C14.7 5.3 10.9 7.5 8.6 9.7 C8.46667 11 8.3 12.625 8.2 13.6 C8.075 13.725 7.825 13.975 7.7 14.1 C6.925 14.1 5.375 14.1 4.6 14.1 C4.475 13.975 4.225 13.725 4.1 13.6 C3.8 9.8 3 5 2.2 1.2 C2.36667 1.03333 2.575 0.825 2.7 0.7 C5.9 -0.2 10.2 -1.4 15.9 -1.4 C29.9 -1.4 42.1 8 42.1 19 C42.1 29.6 32.5 30.6 26.3 31.3 C19.8 32 16.8 32.5 16.8 36.5 C16.8 39.7 19.4 42.3 25.1 42.3 C31.2 42.3 35.3 39.4 36.8 38.3 C36.8 37.3 36.8 36.05 36.8 35.3 C36.925 35.175 37.175 34.925 37.3 34.8 C38.125 34.8 39.775 34.8 40.6 34.8 z" />
<glyph unicode="t" horiz-adv-x="37" d="M33.5 13.3 C33.35 13.3 33.05 13.3 32.9 13.3 C31.425 12.375 28.475 10.525 27 9.6 C25.5 8.6 24.1 7.8 23.2 7.8 C22.8 7.8 21.8 7.9 21.8 9.2 C21.8 11.3 22.6 15.4 23.5 20.1 C24.7 26.3 26.2 34.05 27.1 38.7 C30.7 38.7 34.2 38.5 38 38.3 C38.16667 38.46667 38.375 38.675 38.5 38.8 C39 40.5 40.2 44 41 45.6 C40.76667 45.86667 40.475 46.2 40.3 46.4 C37.8 45.5 32 45.2 28.4 45 C30 53.1 31.7 61.4 32.9 65.4 C32.56667 65.63333 32.15 65.925 31.9 66.1 C29.2 64.8 22.5 63.2 16 62 C14.9 54.5 14.7 52.2 13.3 45.7 C9.96667 44.33333 5.8 42.625 3.3 41.6 C3.175 41.475 2.925 41.225 2.8 41.1 C2.65 40.525 2.35 39.375 2.2 38.8 C2.325 38.675 2.575 38.425 2.7 38.3 C6.4 38.4 10.8 38.7 12.3 38.7 C10.63333 30.76667 8.55 20.85 7.3 14.9 C6.3 10 5.9 6.5 5.9 5.3 C5.9 -1.1 10.1 -1.3 12.2 -1.3 C17.3 -1.3 21.8 1.4 34.9 9.5 C34.9 9.73333 34.9 10.025 34.9 10.2 C34.55 10.975 33.85 12.525 33.5 13.3 z" />
<glyph unicode="u" horiz-adv-x="61.1" d="M3.1 32.5 C3.225 32.45 3.475 32.35 3.6 32.3 C4.675 33.05 6.825 34.55 7.9 35.3 C9.6 36.5 10.1 36.7 10.6 36.7 C11.2 36.7 11.7 36.4 11.7 35.5 C11.7 30.4 5.7 12.5 5.7 4.6 C5.7 1.6 6.8 -1.4 11 -1.4 C19.2 -1.4 29.1 9.5 34.8 15.9 C34.86667 15.9 34.95 15.9 35 15.9 C34.5 13.1 33.3 7.8 33.3 4.5 C33.3 1.5 33.9 -1.4 37.7 -1.4 C42.4 -1.4 48.9 2.9 59.1 9.8 C59.13333 10.03333 59.175 10.325 59.2 10.5 C58.875 11.325 58.225 12.975 57.9 13.8 C57.775 13.8 57.525 13.8 57.4 13.8 C55.4 12.3 52 9.7 50.6 9.7 C49.5 9.7 49.1 10.3 49.1 11.4 C49.1 14.1 55.1 42.6 57.4 48.1 C57.1 48.33333 56.725 48.625 56.5 48.8 C52.5 47.9 46.3 47.4 41 46.8 C40.4 42.9 38.3 30.2 35 23.9 C32.9 19.9 26.2 11.4 23.8 11.4 C22.9 11.4 22.6 12.1 22.6 13 C22.6 18.2 28.7 37.2 28.7 43.7 C28.7 47.1 26.6 48.8 23.8 48.8 C19.7 48.8 11.6 43.2 1.8 36.2 C1.76667 36 1.725 35.75 1.7 35.6 C2.05 34.825 2.75 33.275 3.1 32.5 z" />
<glyph unicode="v" horiz-adv-x="53.7" d="M35.2 38 C35.35 37.95 35.65 37.85 35.8 37.8 C36.4 38.1 37.1 38.4 37.9 38.4 C42 38.4 42 33 42 31.2 C42 17.5 34 7 27.3 7 C22.3 7 20.6 11.5 20.6 17.3 C20.6 22.3 22.2 34.2 31.6 46.3 C30.96667 46.96667 30.175 47.8 29.7 48.3 C27.6 47.5 25.4 47.1 23.3 47.1 C21 47.1 14.5 47.7 12 47.7 C8.8 47.7 6.8 47.5 4.2 47.4 C2.93333 42.9 1.35 37.275 0.4 33.9 C0.475 33.775 0.625 33.525 0.7 33.4 C1.45 33.4 2.95 33.4 3.7 33.4 C3.85 33.475 4.15 33.625 4.3 33.7 C4.75 34.775 5.65 36.925 6.1 38 C8.9 38 14.1 38 19.7 38.5 C13.7 32.1 5.3 23.2 5.3 13.1 C5.3 4.2 11.7 -1.4 20.6 -1.4 C36.6 -1.4 52.2 22.1 52.2 38.7 C52.2 43.8 50.2 48.8 43.4 48.8 C42.6 48.8 41.5 48.7 41.1 48.5 C39.3 46.2 36.5 43.2 33.7 40.5 C33.7 40.3 33.7 40.05 33.7 39.9 C34.075 39.425 34.825 38.475 35.2 38 z" />
<glyph unicode="w" horiz-adv-x="81.5" d="M58 48.7 C52.4 47.6 51.5 47.5 43 46.8 C41.3 35 36.4 7.4 25.6 7.4 C21.8 7.4 20.7 12 20.7 16 C20.7 24.9 25.6 40.5 31.5 46.4 C30.86667 47.06667 30.075 47.9 29.6 48.4 C27.5 47.6 25.9 47.2 23.2 47.2 C20.9 47.2 13.8 47.8 11.9 47.8 C9.3 47.8 6.7 47.6 4.1 47.5 C2.83333 43 1.25 37.375 0.3 34 C0.375 33.875 0.525 33.625 0.6 33.5 C1.35 33.5 2.85 33.5 3.6 33.5 C3.75 33.575 4.05 33.725 4.2 33.8 C4.65 34.875 5.55 37.025 6 38.1 C8.8 38.1 14 38.1 19.6 38.6 C13.8 31.9 5.5 22.3 5.5 11.9 C5.5 4.9 9.4 -1.4 18.8 -1.4 C24.3 -1.4 30.8 1.1 37.2 11.3 C37.26667 11.3 37.35 11.3 37.4 11.3 C37.2 9.5 37.2 8.9 37.2 8.1 C37.2 2.9 39.8 -1.4 47.4 -1.4 C65 -1.4 80.1 21.9 80.1 38.7 C80.1 43.8 78.1 48.8 71.3 48.8 C70.5 48.8 69.4 48.7 69 48.5 C67.2 46.2 64.4 43.2 61.6 40.5 C61.6 40.3 61.6 40.05 61.6 39.9 C61.975 39.425 62.725 38.475 63.1 38 C63.25 38 63.55 38 63.7 38 C64.2 38.3 64.9 38.7 66 38.7 C69.5 38.7 70.4 35.3 70.4 31.9 C70.4 17.9 62.5 7.4 56 7.4 C54.3 7.4 51.1 7.4 51.1 13 C51.1 19.6 55.6 37.9 58.9 47.9 C58.6 48.16667 58.225 48.5 58 48.7 z" />
<glyph unicode="x" horiz-adv-x="53.7" d="M47.8 14.4 C47.65 14.4 47.35 14.4 47.2 14.4 C43.9 11.4 42.3 10.3 40.5 10.3 C37.4 10.3 36.6 14.2 33.4 28.1 C37.5 33.3 41.1 37.9 45 37.9 C47.3 37.9 47.6 37 48.3 34.1 C48.46667 34 48.675 33.875 48.8 33.8 C49.275 33.875 50.225 34.025 50.7 34.1 C50.8 34.225 51 34.475 51.1 34.6 C52.4 41 52.6 41.9 54.2 47.6 C53.1 48.1 50.1 48.6 49.1 48.6 C43.1 48.6 39.5 43.6 32.5 33.2 C31.93333 35.66667 31.225 38.75 30.8 40.6 C29.6 45.8 26.5 48.7 21.1 48.7 C17.5 48.7 11.6 46.8 11.3 46.6 C9.4 43.2 6.1 39 3.2 35.5 C3.23333 35.3 3.275 35.05 3.3 34.9 C4.025 34.5 5.475 33.7 6.2 33.3 C6.3 33.3 6.5 33.3 6.6 33.3 C8.5 35.1 9.3 36.7 12.2 36.7 C17.2 36.7 17.9 32.8 20.4 20.4 C12.2 11.1 11.3 10.1 8.2 10.1 C5.7 10.1 4.2 11.7 4.1 13.9 C3.93333 14.06667 3.725 14.275 3.6 14.4 C3.175 14.4 2.325 14.4 1.9 14.4 C1.775 14.275 1.525 14.025 1.4 13.9 C0.6 8.1 -0.4 1.7 -0.9 -0.4 C0 -0.9 1.4 -1.2 3 -1.2 C9.7 -1.2 11.6 1.5 21.2 14.9 C22.9 7.7 24.8 -1.2 30.5 -1.2 C36 -1.2 41.9 3.9 49.7 11.1 C49.7 11.36667 49.7 11.7 49.7 11.9 C49.225 12.525 48.275 13.775 47.8 14.4 z" />
<glyph unicode="y" horiz-adv-x="59.3" d="M2.4 32.5 C2.525 32.45 2.775 32.35 2.9 32.3 C5.2 33.9 8.2 35.5 9.6 35.5 C11.8 35.5 11.8 33.5 11.8 30.2 C11.8 27.9 10.8 15.5 10.8 11.5 C10.8 4.6 10.8 -1.3 16.5 -1.3 C20 -1.3 22.7 0.1 34.4 15.2 C34.46667 15.2 34.55 15.2 34.6 15.2 C32.95 10.025 29.65 -0.325 28 -5.5 C25.1 -14.5 22.1 -21.6 15.3 -21.6 C11.1 -21.6 9 -17.5 9 -15.1 C9 -14.33333 9 -13.375 9 -12.8 C8.7 -12.525 8.1 -11.975 7.8 -11.7 C5.475 -13.025 0.825 -15.675 -1.5 -17 C-0.1 -24 5.5 -27.3 10.3 -27.3 C16.6 -27.3 27.2 -23.1 32.6 -17.4 C39.7 -10 42.1 -3.3 45.6 7.5 C49.3 19.1 53.925 33.6 56.7 42.3 C57.6 45 58 46.4 58.9 48.2 C58.66667 48.53333 58.375 48.95 58.2 49.2 C54.1 48.3 52.9 48.2 42.6 47.4 C41.33333 42.73333 39.75 36.9 38.8 33.4 C35.3 21.6 28.6 13 26.6 13 C25.7 13 25.1 13.2 25.1 15.4 C25.1 24.4 27.2 33.4 27.2 42.5 C27.2 45.8 26 48.8 22.5 48.8 C19.7 48.8 19.1 48.8 1.1 36.3 C1.06667 36.06667 1.025 35.775 1 35.6 C1.35 34.825 2.05 33.275 2.4 32.5 z" />
<glyph unicode="z" horiz-adv-x="46.3" d="M6.6 27.6 C6.775 27.725 7.125 27.975 7.3 28.1 C8.6 31.2 9 32.1 10.8 35.1 C16.4 34.8 18.1 34.8 21.3 34.8 C24.2 34.8 25.7 34.9 28.5 35.5 C28.9 35.6 29.4 35.725 29.7 35.8 C29.75 35.75 29.85 35.65 29.9 35.6 C22.125 27.4 6.575 11 -1.2 2.8 C-0.575 1.925 0.675 0.175 1.3 -0.7 C3.2 0.5 4.8 1.5 9.5 1.5 C17.2 1.5 24.6 -1.4 32.3 -1.4 C34.4 -1.4 37.9 -0.6 39.9 0 C40.8 5.2 42.4 12.5 44.2 18.8 C44.06667 18.93333 43.9 19.1 43.8 19.2 C43.15 19.2 41.85 19.2 41.2 19.2 C41.05 19.125 40.75 18.975 40.6 18.9 C39.9 17.475 38.5 14.625 37.8 13.2 C37.1 12.7 35.9 12.3 33.9 12.3 C31.6 12.3 24.7 13.5 22.9 13.5 C19.8 13.5 17.7 12.9 15.5 12.2 C15.43333 12.2 15.35 12.2 15.3 12.2 C22.925 20.225 38.175 36.275 45.8 44.3 C45.725 45.35 45.575 47.45 45.5 48.5 C45.275 48.575 44.825 48.725 44.6 48.8 C42.6 47.4 40.4 46.1 35.8 46.1 C30.3 46.1 17.7 48.8 14.3 48.8 C12.1 48.8 10.8 48.5 9 47.9 C6.7 38.8 6.3 37.4 3.8 28.2 C3.9 28 4.025 27.75 4.1 27.6 C4.725 27.6 5.975 27.6 6.6 27.6 z" />
<glyph unicode="{" horiz-adv-x="38.9" d="M43.2 73.9 C43.075 74.025 42.825 74.275 42.7 74.4 C24.3 74.4 18.4 72.2 16.3 59.2 C15.26667 52.83333 13.975 44.875 13.2 40.1 C12.1 33.1 10.2 29.7 3.9 28.5 C3.8 28.43333 3.675 28.35 3.6 28.3 C7.9 27.2 9.6 25.2 9.6 20.7 C9.6 13.2 5.7 -0.4 5.7 -6.6 C5.7 -15.9 11.7 -17.6 27.8 -17.6 C28 -17.43333 28.25 -17.225 28.4 -17.1 C28.55 -16 28.85 -13.8 29 -12.7 C28.925 -12.575 28.775 -12.325 28.7 -12.2 C24.4 -11.4 20.1 -11.1 20.1 -5.7 C20.1 2.6 23.7 10.9 23.7 19.3 C23.7 23.9 22.4 26.8 17.4 28.3 C17.4 28.36667 17.4 28.45 17.4 28.5 C24.7 30.5 26.6 34.8 27.8 42.5 C28.76667 48.26667 29.975 55.475 30.7 59.8 C31.9 67.1 35.3 67.9 42 69 C42.2 69.16667 42.45 69.375 42.6 69.5 C42.75 70.6 43.05 72.8 43.2 73.9 z" />
<glyph unicode="|" horiz-adv-x="22.2" d="M6.9 -25 C9.9 -25 15.9 -25 18.9 -25 C18.9 0 18.9 50 18.9 75 C15.9 75 9.9 75 6.9 75 C6.9 50 6.9 0 6.9 -25 z" />
<glyph unicode="}" horiz-adv-x="38.9" d="M-4.3 -17.1 C-4.175 -17.225 -3.925 -17.475 -3.8 -17.6 C14.6 -17.6 20.5 -15.4 22.6 -2.4 C23.63333 3.96667 24.925 11.925 25.7 16.7 C26.8 23.7 28.7 27.1 35 28.3 C35.1 28.36667 35.225 28.45 35.3 28.5 C31 29.6 29.3 31.6 29.3 36.1 C29.3 43.6 33.2 57.2 33.2 63.4 C33.2 72.7 27.2 74.4 11.1 74.4 C10.9 74.23333 10.65 74.025 10.5 73.9 C10.35 72.8 10.05 70.6 9.9 69.5 C9.975 69.375 10.125 69.125 10.2 69 C14.5 68.2 18.8 67.9 18.8 62.5 C18.8 54.2 15.2 45.9 15.2 37.5 C15.2 32.9 16.5 30 21.5 28.5 C21.5 28.43333 21.5 28.35 21.5 28.3 C14.2 26.3 12.3 22 11.1 14.3 C10.13333 8.53333 8.925 1.325 8.2 -3 C7 -10.3 3.6 -11.1 -3.1 -12.2 C-3.3 -12.36667 -3.55 -12.575 -3.7 -12.7 C-3.85 -13.8 -4.15 -16 -4.3 -17.1 z" />
<glyph unicode="~" horiz-adv-x="60" d="M10.5 15.5 C12.1 18.9 14.5 22.7 18.9 22.7 C22.4 22.7 25.6 21.6 28.6 19.8 C32.6 17.4 36.4 15.9 40.7 15.9 C46.8 15.9 50.3 20.2 53.1 24.4 C51.9 27.96667 50.4 32.425 49.5 35.1 C47.2 31.7 44.7 27.9 40.7 27.9 C37.8 27.9 34.7 29.5 31.1 31.3 C27.5 33.1 23.5 34.7 18.8 34.7 C12.7 34.7 8.9 30.4 6.9 26.2 C8.1 22.63333 9.6 18.175 10.5 15.5 z" />
<glyph unicode="" horiz-adv-x="29.6" d="" />
<glyph unicode="" horiz-adv-x="33.3" d="M19.4 25.7 C19.125 25.85 18.575 26.15 18.3 26.3 C17.275 25.925 15.225 25.175 14.2 24.8 C11.025 15.975 4.675 -1.675 1.5 -10.5 C0.9 -12.2 -1.6 -20.5 -2.2 -22.4 C-1.83333 -22.8 -1.375 -23.3 -1.1 -23.6 C2.5 -22.4 4 -22.2 18.2 -20.4 C18.8 -16.1 19.4 -4.1 19.4 0.4 C19.4 8.83333 19.4 19.375 19.4 25.7 zM10.5 37.4 C10.5 33.5 12.6 29.6 18.5 29.6 C24.5 29.6 27.8 35.5 27.8 40.9 C27.8 45.5 25.4 48.8 20 48.8 C12.1 48.8 10.5 40.5 10.5 37.4 z" />
<glyph unicode="" horiz-adv-x="59.2" d="M27 9 C24.3 11.3 24.3 15.6 24.3 17.7 C24.3 24.1 27.2 42.1 35.9 42.1 C37 42.1 38 42 39.1 41.7 C35.06667 30.8 30.025 17.175 27 9 zM19.7 -10.7 C19.825 -10.825 20.075 -11.075 20.2 -11.2 C21.325 -11.2 23.575 -11.2 24.7 -11.2 C24.825 -11.075 25.075 -10.825 25.2 -10.7 C26.075 -8.375 27.825 -3.725 28.7 -1.4 C36.5 0 43 4.5 48.4 8.1 C48.4 8.33333 48.4 8.625 48.4 8.8 C47.825 9.8 46.675 11.8 46.1 12.8 C45.875 12.8 45.425 12.8 45.2 12.8 C38.5 7.5 34.9 7.2 32.1 7.2 C32.03333 7.2 31.95 7.2 31.9 7.2 C34.9 15.35 40.9 31.65 43.9 39.8 C44.2 39.8 44.6 39.6 44.9 39.2 C45 37.06667 45.125 34.4 45.2 32.8 C45.325 32.675 45.575 32.425 45.7 32.3 C46.5 32.3 48.1 32.3 48.9 32.3 C49.025 32.425 49.275 32.675 49.4 32.8 C50 36.225 51.2 43.075 51.8 46.5 C51.7 46.65 51.5 46.95 51.4 47.1 C50.5 47.5 48.9 47.9 47 48.1 C48 50.76667 49.25 54.1 50 56.1 C49.875 56.225 49.625 56.475 49.5 56.6 C48.35 56.6 46.05 56.6 44.9 56.6 C44.775 56.475 44.525 56.225 44.4 56.1 C43.725 54.275 42.375 50.625 41.7 48.8 C41.475 48.8 41.025 48.8 40.8 48.8 C33.5 48.8 22.1 42.4 20.9 41.7 C15 38.5 7.8 28.2 7.8 15.6 C7.8 1.2 17 -1.8 23 -1.9 C21.9 -4.83333 20.525 -8.5 19.7 -10.7 z" />
<glyph unicode="" horiz-adv-x="59.2" d="M51.4 21 C51.275 20.875 51.025 20.625 50.9 20.5 C50.05 18.625 48.35 14.875 47.5 13 C45.6 12.8 43.4 12.5 40.5 12.5 C38 12.5 25.9 13.7 23.1 13.7 C20.8 13.7 20.2 13.6 19.3 13.3 C19.23333 13.36667 19.15 13.45 19.1 13.5 C22.8 16.4 28.4 23.5 29.5 30.7 C38.3 30.7 40.6 30.7 46.1 30.4 C46.23333 30.53333 46.4 30.7 46.5 30.8 C47 34.1 47.3 34.9 48.3 37.4 C48.1 37.76667 47.85 38.225 47.7 38.5 C39.2 37.7 38.4 37.7 30.6 37.7 C31.8 51.8 32.6 61.3 42.4 61.3 C44.5 61.3 48.1 60.7 50.3 57.7 C50.4 55.03333 50.525 51.7 50.6 49.7 C50.725 49.575 50.975 49.325 51.1 49.2 C52.175 49.2 54.325 49.2 55.4 49.2 C55.525 49.325 55.775 49.575 55.9 49.7 C56.6 54.6 57.4 60.6 58.7 64.9 C58.36667 65.33333 57.95 65.875 57.7 66.2 C53.9 67.7 50 68.9 44.6 68.9 C40.4 68.9 31.1 67.9 22.3 61.1 C15.2 55.5 13.8 47.5 13.3 37.7 C9.7 37.7 7.8 37.8 6.2 38 C6.03333 37.86667 5.825 37.7 5.7 37.6 C5.3 34.5 4.8 33.3 3.9 31.1 C4.3 30.83333 4.8 30.5 5.1 30.3 C7.9 30.6 10.5 30.8 13.1 31 C12.9 20.1 11.9 17.2 9.8 11.5 C6 10.2 5.1 9.8 1.5 7.9 C0.96667 4.63333 0.3 0.55 -0.1 -1.9 C0.8 -1.9 2.6 -1.9 3.5 -1.9 C5.175 -0.475 8.525 2.375 10.2 3.8 C13.6 3.6 15.7 3.1 22 1.6 C24.56667 1 27.775 0.25 29.7 -0.2 C35.4 -1.5 38.5 -1.9 40.9 -1.9 C41.9 -1.9 46.3 -1.9 51.6 0.4 C53.2 7.2 54.8 14.2 56.6 20.5 C56.43333 20.66667 56.225 20.875 56.1 21 C54.925 21 52.575 21 51.4 21 z" />
<glyph unicode="" horiz-adv-x="59.2" d="M4.5 53 C5.925 51.575 8.775 48.725 10.2 47.3 C7.6 43.4 6 38.6 6 33.5 C6 28.4 7.6 23.6 10.2 19.7 C8.3 17.8 5.925 15.425 4.5 14 C6.225 12.3 9.675 8.9 11.4 7.2 C12.825 8.625 15.675 11.475 17.1 12.9 C20.9 10.2 25.7 8.7 30.8 8.7 C35.9 8.7 40.6 10.2 44.5 12.9 C46.4 11 48.775 8.625 50.2 7.2 C51.925 8.9 55.375 12.3 57.1 14 C55.675 15.425 52.825 18.275 51.4 19.7 C54 23.6 55.6 28.4 55.6 33.5 C55.6 38.6 54.1 43.3 51.4 47.3 C53.3 49.2 55.675 51.575 57.1 53 C55.375 54.7 51.925 58.1 50.2 59.8 C48.775 58.375 45.925 55.525 44.5 54.1 C40.5 56.8 35.8 58.3 30.8 58.3 C25.7 58.3 21 56.8 17 54.2 C15.13333 56.06667 12.8 58.4 11.4 59.8 C9.675 58.1 6.225 54.7 4.5 53 zM17.4 33.5 C17.4 41 22.4 47.5 30.8 47.5 C39.2 47.5 44.2 41 44.2 33.5 C44.2 26 39.2 19.5 30.8 19.5 C22.4 19.5 17.4 26 17.4 33.5 z" />
<glyph unicode="" horiz-adv-x="59.2" d="M6.5 16.6 C6.625 16.475 6.875 16.225 7 16.1 C10.425 16.1 17.275 16.1 20.7 16.1 C20.5 14.3 20.2 12.5 19.9 10.9 C18.9 5.4 18.5 5.2 11.2 5 C11 4.83333 10.75 4.625 10.6 4.5 C10.45 3.375 10.15 1.125 10 0 C10.1 -0.125 10.3 -0.375 10.4 -0.5 C15.9 -0.3 21.4 0 26.9 0 C31.8 0 37.2 -0.3 42.7 -0.5 C42.86667 -0.33333 43.075 -0.125 43.2 0 C43.35 1.125 43.65 3.375 43.8 4.5 C43.725 4.625 43.575 4.875 43.5 5 C36.5 5 35.8 5.1 35.8 7.4 C35.8 7.6 35.9 9.8 36.6 13.9 C36.7 14.63333 36.825 15.55 36.9 16.1 C40.375 16.1 47.325 16.1 50.8 16.1 C50.925 16.225 51.175 16.475 51.3 16.6 C51.6 18 52.2 20.8 52.5 22.2 C52.375 22.325 52.125 22.575 52 22.7 C48.475 22.7 41.425 22.7 37.9 22.7 C38.5 26.1 38.8 27.5 40.3 30.8 C44.63333 30.8 50.05 30.8 53.3 30.8 C53.425 30.925 53.675 31.175 53.8 31.3 C54.1 32.7 54.7 35.5 55 36.9 C54.875 37.025 54.625 37.275 54.5 37.4 C51.75 37.4 46.25 37.4 43.5 37.4 C48.3 46.4 55.7 56.1 61.4 56.1 C62.1 56.1 62.9 55.9 63.6 55.7 C64.66667 59.96667 66 65.3 66.8 68.5 C65.5 68.9 64.5 68.9 63.7 68.9 C51.3 68.9 40.5 43.1 37 34.8 C36.93333 34.8 36.85 34.8 36.8 34.8 C35.775 39.125 33.725 47.775 32.7 52.1 C29.1 66.8 23.1 68.9 17.6 68.9 C15.7 68.9 14.3 68.7 13.4 68.4 C9 65.1 5.4 62.9 0.1 60 C0 59.8 -0.125 59.55 -0.2 59.4 C0.1 58.575 0.7 56.925 1 56.1 C1.15 56.1 1.45 56.1 1.6 56.1 C2.1 56.3 4.6 57.2 6.7 57.2 C11.5 57.2 13.8 54.9 16.2 48.2 C17.6 44 18.7 40.3 19.5 37.4 C16.56667 37.4 12.9 37.4 10.7 37.4 C10.575 37.275 10.325 37.025 10.2 36.9 C9.9 35.5 9.3 32.7 9 31.3 C9.125 31.175 9.375 30.925 9.5 30.8 C12.35 30.8 18.05 30.8 20.9 30.8 C21.5 28.1 21.7 27 21.7 26.4 C21.7 25.4 21.7 24.2 21.5 22.7 C17.06667 22.7 11.525 22.7 8.2 22.7 C8.075 22.575 7.825 22.325 7.7 22.2 C7.4 20.8 6.8 18 6.5 16.6 z" />
<glyph unicode="" horiz-adv-x="22.2" d="M6.9 -17.5 C9.9 -17.5 15.9 -17.5 18.9 -17.5 C18.9 -8.75 18.9 8.75 18.9 17.5 C15.9 17.5 9.9 17.5 6.9 17.5 C6.9 8.75 6.9 -8.75 6.9 -17.5 zM6.9 32.5 C9.9 32.5 15.9 32.5 18.9 32.5 C18.9 41.25 18.9 58.75 18.9 67.5 C15.9 67.5 9.9 67.5 6.9 67.5 C6.9 58.75 6.9 41.25 6.9 32.5 z" />
<glyph unicode="" horiz-adv-x="59.2" d="M47 51.7 C47.125 51.575 47.375 51.325 47.5 51.2 C48.5 51.2 50.5 51.2 51.5 51.2 C51.625 51.325 51.875 51.575 52 51.7 C52.7 57.1 53.5 61.7 54.4 65.3 C54.26667 65.56667 54.1 65.9 54 66.1 C48.7 68.1 42.5 69.9 37.2 69.9 C22.1 69.9 11.7 59.9 11.7 48.3 C11.7 43.6 13.7 41.1 16.3 39.1 C12.5 37 4.1 31.5 4.1 22.2 C4.1 15.7 7.1 11.4 17.8 6 C30.9 -0.6 33 -1.7 33 -6.7 C33 -10.9 29.6 -16.4 21.7 -16.4 C16.2 -16.4 12 -13.6 9.7 -11.4 C9.86667 -8.93333 10.075 -5.85 10.2 -4 C10.075 -3.875 9.825 -3.625 9.7 -3.5 C8.675 -3.5 6.625 -3.5 5.6 -3.5 C5.475 -3.625 5.225 -3.875 5.1 -4 C4.6 -8.1 2.7 -15.6 2 -18.7 C2.13333 -18.96667 2.3 -19.3 2.4 -19.5 C6.9 -21.3 12.8 -23.7 20.3 -23.7 C32.9 -23.7 48.3 -16.1 48.3 -1.3 C48.3 5.5 44.5 8.5 42.7 9.9 C52.3 15.1 54.7 21.8 54.7 26.3 C54.7 35.2 49.4 37.9 41.9 41.7 C30.3 47.6 26.6 49.5 26.6 54.5 C26.6 59.2 30.3 62.7 35.9 62.7 C39.8 62.7 44.7 60.6 47 58.2 C47 56.03333 47 53.325 47 51.7 zM31.4 29.9 C39.3 25.6 41.7 23.3 41.7 19.7 C41.7 16.2 39.5 14.4 37.8 13 C34.2 15.4 33.6 15.7 28 18.8 C18.5 24.1 17.1 25.6 17.1 29.2 C17.1 31.3 18 33.2 21.2 35.4 C24.6 33.56667 28.85 31.275 31.4 29.9 z" />
<glyph unicode="" horiz-adv-x="27.8" d="M26.5 61.7 C26.5 57.7 29.7 54.5 33.7 54.5 C37.7 54.5 40.9 57.7 40.9 61.7 C40.9 65.7 37.7 68.9 33.7 68.9 C29.7 68.9 26.5 65.7 26.5 61.7 zM5 61.7 C5 57.7 8.2 54.5 12.2 54.5 C16.2 54.5 19.4 57.7 19.4 61.7 C19.4 65.7 16.2 68.9 12.2 68.9 C8.2 68.9 5 65.7 5 61.7 z" />
<glyph unicode="" horiz-adv-x="80" d="M55.7 29.3 C53.3 23.6 49 20.2 44 20.2 C36.2 20.2 34.3 28.2 34.4 36.7 C34.5 45 37.5 51.4 44.3 51.4 C49.8 51.4 52.7 47.9 53.7 43.1 C54.7 43.1 55.95 43.1 56.7 43.1 C56.7 45.475 56.7 50.225 56.7 52.6 C56.7 53.3 56.3 53.8 54.8 54.4 C51.3 55.8 47 56.3 43 56.3 C29.2 56.3 21.4 47.3 21.4 36.1 C21.4 25 27.9 15.3 42.1 15.3 C46.5 15.3 51.3 16.4 55.5 18.7 C56.6 19.3 57 19.9 57.1 20.6 C57.53333 23.5 58.075 27.125 58.4 29.3 C57.725 29.3 56.375 29.3 55.7 29.3 zM14.6 34.5 C14.6 50.4 26.5 62.3 41.2 62.3 C55.9 62.3 67.8 50.4 67.8 34.5 C67.8 18.5 55.9 6.6 41.2 6.6 C26.5 6.6 14.6 18.5 14.6 34.5 zM4.9 34.5 C4.9 14.4 21.1 -1.9 41.2 -1.9 C61.2 -1.9 77.5 14.4 77.5 34.5 C77.5 54.5 61.2 70.8 41.2 70.8 C21.1 70.8 4.9 54.5 4.9 34.5 z" />
<glyph unicode="" horiz-adv-x="37.3" d="M34.5 67.4 C31.7 68.3 30.1 68.9 27.5 68.9 C20.5 68.9 15.1 65.2 12.7 63.2 C9.7 60.7 7.6 57.2 6 50.3 C5.2 46.7 5.2 44.7 5.2 43.9 C5.2 42.5 5.2 38.8 9.6 38.8 C14.1 38.8 19.5 42.6 24.2 47.9 C24.26667 47.9 24.35 47.9 24.4 47.9 C24.1 46.6 23.4 43.4 23.4 41.8 C23.4 41 23.4 38.8 26.4 38.8 C28.9 38.8 31.2 40 37.4 43.3 C38.43333 43.86667 39.725 44.575 40.5 45 C40.5 45.1 40.5 45.3 40.5 45.4 C40.25 45.875 39.75 46.825 39.5 47.3 C39.4 47.3 39.2 47.3 39.1 47.3 C37.1 46.3 35.1 45.1 34.4 45.1 C33.7 45.1 33.5 45.5 33.5 46 C33.5 47 35.7 56.6 39.4 68.3 C38.96667 68.5 38.425 68.75 38.1 68.9 C37.2 68.525 35.4 67.775 34.5 67.4 zM24.2 64.5 C25.5 64.5 27 64.1 28.1 63.8 C28 61.9 24.9 49.2 18 45.6 C17.7 45.5 17.2 45.2 16.7 45.2 C16.2 45.2 15.6 45.6 15.6 46.6 C15.6 48.7 16.6 52.3 17.3 55.1 C18 57.8 19.7 62.3 20.6 63.1 C21.7 64.1 22.5 64.5 24.2 64.5 z" />
<glyph unicode="" horiz-adv-x="59.2" d="M27.6 23 C32.2 18.4 44.1 5 46.8 1.9 C47.1 1.8 47.475 1.675 47.7 1.6 C48.3 1.825 49.5 2.275 50.1 2.5 C50.175 2.675 50.325 3.025 50.4 3.2 C47.3 10.4 42.9 20.6 41.7 23.3 C44.6 27.3 50.6 36 55.5 43 C55.5 43.26667 55.5 43.6 55.5 43.8 C54.875 44.275 53.625 45.225 53 45.7 C52.85 45.7 52.55 45.7 52.4 45.7 C43.9 39 36.2 32.3 27.9 26.4 C27.8 25.26667 27.675 23.85 27.6 23 zM6.3 23 C10.9 18.4 22.8 5 25.5 1.9 C25.8 1.8 26.175 1.675 26.4 1.6 C27 1.825 28.2 2.275 28.8 2.5 C28.875 2.675 29.025 3.025 29.1 3.2 C26 10.4 21.6 20.6 20.4 23.3 C23.3 27.3 29.3 36 34.2 43 C34.2 43.26667 34.2 43.6 34.2 43.8 C33.575 44.275 32.325 45.225 31.7 45.7 C31.55 45.7 31.25 45.7 31.1 45.7 C22.6 39 14.9 32.3 6.6 26.4 C6.5 25.26667 6.375 23.85 6.3 23 z" />
<glyph unicode="" horiz-adv-x="60" d="M43.3 10.8 C46.3 10.8 52.3 10.8 55.3 10.8 C55.3 18.6 55.3 34.2 55.3 42 C42.65 42 17.35 42 4.7 42 C4.7 39 4.7 33 4.7 30 C14.35 30 33.65 30 43.3 30 C43.3 25.2 43.3 15.6 43.3 10.8 z" />
<glyph unicode="" horiz-adv-x="42.6" d="M38.3 31.7 C32.3 31.5 26.3 31.2 20.3 31.2 C15.9 31.2 11.6 31.5 7.2 31.7 C6.3 25.9 6.2 25.2 4.2 18.7 C4.53333 18.36667 4.95 17.95 5.2 17.7 C10.2 17.9 15.3 18.2 20.3 18.2 C25.5 18.2 30.8 17.9 36 17.7 C37.1 24 37.2 24.7 39.4 30.9 C39.03333 31.16667 38.575 31.5 38.3 31.7 z" />
<glyph unicode="" horiz-adv-x="80" d="M25.2 17.2 C29.375 17.2 37.725 17.2 41.9 17.2 C41.9 18.05 41.9 19.75 41.9 20.6 C41.825 20.6 41.675 20.6 41.6 20.6 C38.3 20.8 38.2 21.7 38.2 24.4 C38.2 27.26667 38.2 30.85 38.2 33 C38.55 33 39.25 33 39.6 33 C41.575 29.6 45.525 22.8 47.5 19.4 C48.6 17.6 49.5 17.2 51.3 17.2 C53.86667 17.2 57.075 17.2 59 17.2 C59 18.05 59 19.75 59 20.6 C58.925 20.6 58.775 20.6 58.7 20.6 C57.7 20.6 56.6 21.4 56.1 22.3 C53.6 26.43333 50.475 31.6 48.6 34.7 C53.1 36.6 55.9 39.7 55.9 44.8 C55.9 51.3 51.2 54.3 44.6 54.3 C38.13333 54.3 30.05 54.3 25.2 54.3 C25.2 53.45 25.2 51.75 25.2 50.9 C25.275 50.9 25.425 50.9 25.5 50.9 C28.5 50.9 28.5 49.5 28.5 47.4 C28.5 39.73333 28.5 30.15 28.5 24.4 C28.5 21.7 28.5 20.8 25.5 20.6 C25.4 20.6 25.275 20.6 25.2 20.6 C25.2 19.75 25.2 18.05 25.2 17.2 zM38.2 50.9 C38.75 50.9 39.85 50.9 40.4 50.9 C44 50.9 45.8 49.5 45.8 44.2 C45.8 38.8 44.5 36.4 40.1 36.4 C39.46667 36.4 38.675 36.4 38.2 36.4 C38.2 40.025 38.2 47.275 38.2 50.9 zM14.6 34.5 C14.6 50.4 26.5 62.3 41.2 62.3 C55.9 62.3 67.8 50.4 67.8 34.5 C67.8 18.5 55.9 6.6 41.2 6.6 C26.5 6.6 14.6 18.5 14.6 34.5 zM4.9 34.5 C4.9 14.4 21.1 -1.9 41.2 -1.9 C61.2 -1.9 77.5 14.4 77.5 34.5 C77.5 54.5 61.2 70.8 41.2 70.8 C21.1 70.8 4.9 54.5 4.9 34.5 z" />
<glyph unicode="" horiz-adv-x="27.8" d="M6.7 57.7 C14.175 57.7 29.125 57.7 36.6 57.7 C37.05 59.625 37.95 63.475 38.4 65.4 C30.925 65.4 15.975 65.4 8.5 65.4 C8.05 63.475 7.15 59.625 6.7 57.7 z" />
<glyph unicode="" horiz-adv-x="40" d="M8.7 54.6 C8.7 46.7 15.1 40.3 23 40.3 C30.9 40.3 37.3 46.7 37.3 54.6 C37.3 62.5 30.9 68.9 23 68.9 C15.1 68.9 8.7 62.5 8.7 54.6 zM17.1 54.6 C17.1 57.9 19.7 60.5 23 60.5 C26.3 60.5 28.9 57.9 28.9 54.6 C28.9 51.3 26.3 48.7 23 48.7 C19.7 48.7 17.1 51.3 17.1 54.6 z" />
<glyph unicode="" horiz-adv-x="60" d="M24 16 C27 16 33 16 36 16 C36 18.825 36 24.475 36 27.3 C40.825 27.3 50.475 27.3 55.3 27.3 C55.3 30.3 55.3 36.3 55.3 39.3 C50.475 39.3 40.825 39.3 36 39.3 C36 42.125 36 47.775 36 50.6 C33 50.6 27 50.6 24 50.6 C24 47.775 24 42.125 24 39.3 C19.175 39.3 9.525 39.3 4.7 39.3 C4.7 36.3 4.7 30.3 4.7 27.3 C9.525 27.3 19.175 27.3 24 27.3 C24 24.475 24 18.825 24 16 zM55.3 0 C55.3 3 55.3 9 55.3 12 C42.65 12 17.35 12 4.7 12 C4.7 9 4.7 3 4.7 0 C17.35 0 42.65 0 55.3 0 z" />
<glyph unicode="" horiz-adv-x="38.5" d="M1.4 27.6 C1.45 27.525 1.55 27.375 1.6 27.3 C6.6 27.4 11.6 27.6 17.2 27.6 C22.2 27.6 27.1 27.4 32.1 27.3 C32.33333 27.4 32.625 27.525 32.8 27.6 C33.4 30.2 33.7 31.4 35.4 36.8 C35.23333 37 35.025 37.25 34.9 37.4 C30.1 36.6 24.1 36.6 22.7 36.6 C20.13333 36.6 16.925 36.6 15 36.6 C15 36.65 15 36.75 15 36.8 C22.9 41.8 35.9 50.2 35.9 58.1 C35.9 62.5 33 68.9 22 68.9 C18.9 68.9 14 67.9 11.2 66.2 C9.6 63.4 7.6 60.2 5.6 57.2 C5.63333 57 5.675 56.75 5.7 56.6 C6.175 56.275 7.125 55.625 7.6 55.3 C7.75 55.3 8.05 55.3 8.2 55.3 C11.4 59.3 15 60.4 17.7 60.4 C21.4 60.4 24.6 59 24.6 54.8 C24.6 47.8 7 35.5 1.9 31.7 C1.73333 30.33333 1.525 28.625 1.4 27.6 z" />
<glyph unicode="" horiz-adv-x="38.5" d="M4.2 39.7 C3.2 34.3 3 33.7 2 29.5 C2.13333 29.3 2.3 29.05 2.4 28.9 C5 27.7 11.8 26.5 15.4 26.5 C29.9 26.5 36 34.6 36 40.9 C36 48.8 28.2 49.4 24.5 49.6 C24.5 49.66667 24.5 49.75 24.5 49.8 C33.6 52.7 35.1 57.4 35.1 60.4 C35.1 62.2 34.1 68.9 22 68.9 C18.3 68.9 12.9 67.6 11.9 67.1 C10.1 64.3 8.1 61.3 6.1 58.6 C6.93333 58.03333 7.975 57.325 8.6 56.9 C11.6 59.5 14.2 61.1 18.1 61.1 C21.8 61.1 23.8 59.6 23.8 57.2 C23.8 51.2 15.3 51.2 13.1 51.2 C12.9 50 11.8 48.1 11.1 46.4 C11.2 46.23333 11.325 46.025 11.4 45.9 C12.5 46.2 14.4 46.7 16.4 46.7 C21.4 46.7 24 44.1 24 40.4 C24 37 21.5 31.4 14.5 31.4 C10.1 31.4 7.6 33.8 7.6 37.2 C7.6 38 7.7 38.5 7.8 39.2 C6.6 39.36667 5.1 39.575 4.2 39.7 z" />
<glyph unicode="" horiz-adv-x="27.8" d="M19.4 53.9 C22.9 55.775 29.9 59.525 33.4 61.4 C36 62.7 38.8 64.3 38.8 67.2 C38.8 70.4 35.3 72.3 33.3 72.3 C31.7 72.3 30 71.6 26.9 68.3 C22.56667 63.5 17.15 57.5 13.9 53.9 C15.275 53.9 18.025 53.9 19.4 53.9 z" />
<glyph unicode="" horiz-adv-x="61.1" d="M3.1 32.5 C3.225 32.45 3.475 32.35 3.6 32.3 C4.675 33.05 6.825 34.55 7.9 35.3 C9.6 36.5 10.1 36.7 10.6 36.7 C11.2 36.7 11.7 36.4 11.7 35.5 C11.7 33.1 10.3 27.6 9 21.7 C6.3 9.16667 2.925 -6.5 0.9 -15.9 C0 -20.1 -1.1 -24.2 -2 -26.8 C-1.63333 -27.06667 -1.175 -27.4 -0.9 -27.6 C3 -25.9 11 -25.1 14.7 -25.1 C15.5 -17.5 17.7 -6.4 19 0 C22.2 0 30 8.6 34.8 15.9 C34.86667 15.9 34.95 15.9 35 15.9 C34.5 13.1 33.3 7.8 33.3 4.5 C33.3 1.5 33.9 -1.4 37.7 -1.4 C42.4 -1.4 48.9 2.9 59.1 9.8 C59.13333 10.03333 59.175 10.325 59.2 10.5 C58.875 11.325 58.225 12.975 57.9 13.8 C57.775 13.8 57.525 13.8 57.4 13.8 C55.4 12.3 52 9.7 50.6 9.7 C49.5 9.7 49.1 10.3 49.1 11.4 C49.1 14.1 55.1 42.6 57.4 48.1 C57.1 48.33333 56.725 48.625 56.5 48.8 C52.5 47.9 46.3 47.4 41 46.8 C40.4 42.9 38.3 30.2 35 23.9 C32.9 19.9 26.2 11.4 23.8 11.4 C22.9 11.4 22.6 12.1 22.6 13 C22.6 18.2 28.7 37.2 28.7 43.7 C28.7 47.1 26.6 48.8 23.8 48.8 C19.7 48.8 11.6 43.2 1.8 36.2 C1.76667 36 1.725 35.75 1.7 35.6 C2.05 34.825 2.75 33.275 3.1 32.5 z" />
<glyph unicode="" horiz-adv-x="60" d="M5.1 -20.1 C9.9 -20.1 19.5 -20.1 24.3 -20.1 C28.55 0.35 37.05 41.25 41.3 61.7 C42.8 61.7 45.8 61.7 47.3 61.7 C43.05 41.25 34.55 0.35 30.3 -20.1 C35.1 -20.1 44.7 -20.1 49.5 -20.1 C49.725 -19 50.175 -16.8 50.4 -15.7 C50.1 -15.7 49.5 -15.7 49.2 -15.7 C45.5 -15.7 43.7 -14.8 43.7 -12.4 C43.7 -11.2 44.1 -8.8 45 -4.2 C49.3 16.46667 54.675 42.3 57.9 57.8 C58.9 62.6 61.1 64.5 65.9 64.5 C66.3 64.5 66.8 64.5 67.1 64.5 C67.325 65.6 67.775 67.8 68 68.9 C59.675 68.9 43.025 68.9 34.7 68.9 C13 68.9 5.9 54.8 5.9 40.2 C5.9 30.8 12.2 25.3 22.3 25 C19.93333 13.66667 16.975 -0.5 15.2 -9 C14.2 -13.8 12 -15.7 7.2 -15.7 C6.8 -15.7 6.3 -15.7 6 -15.7 C5.775 -16.8 5.325 -19 5.1 -20.1 zM23.8 32.2 C20.3 32.5 17.2 34.5 17.2 41 C17.2 49.6 21.6 61.7 29.9 61.7 C27.86667 51.86667 25.325 39.575 23.8 32.2 z" />
<glyph unicode="" horiz-adv-x="29.6" d="M6.1 27.8 C6.1 23.2 9.8 19.5 14.4 19.5 C19 19.5 22.7 23.2 22.7 27.8 C22.7 32.4 19 36.1 14.4 36.1 C9.8 36.1 6.1 32.4 6.1 27.8 z" />
<glyph unicode="" horiz-adv-x="27.8" d="M10.6 0 C8.875 -2.325 5.425 -6.975 3.7 -9.3 C4.1 -9.725 4.9 -10.575 5.3 -11 C6.3 -10.8 7.4 -10.6 8.5 -10.6 C11.6 -10.6 12.7 -12 12.7 -14.2 C12.7 -15.3 12.7 -18.2 7.4 -18.2 C4.8 -18.2 2.9 -17.4 0.6 -16.5 C0.43333 -16.6 0.225 -16.725 0.1 -16.8 C-0.3 -17.4 -1.1 -18.6 -1.5 -19.2 C-1.45 -19.325 -1.35 -19.575 -1.3 -19.7 C2.4 -21.8 4.8 -22.5 9.4 -22.5 C19 -22.5 22.7 -17.3 22.7 -13.8 C22.7 -9.6 19.3 -6.3 13 -6.3 C11.9 -6.3 11.3 -6.5 10.3 -6.7 C12.03333 -4.46667 14.2 -1.675 15.5 0 C14.275 0 11.825 0 10.6 0 z" />
<glyph unicode="" horiz-adv-x="38.5" d="M4.2 27.6 C4.25 27.525 4.35 27.375 4.4 27.3 C9 27.4 13.6 27.6 18.8 27.6 C23.4 27.6 28 27.4 32.6 27.3 C32.73333 27.4 32.9 27.525 33 27.6 C33.15 28.4 33.45 30 33.6 30.8 C33.525 30.875 33.375 31.025 33.3 31.1 C26.7 31.1 25 31.2 25 33.6 C25 35.6 26.9 45.9 28.2 52.4 C29.5 58.9 30.4 64.4 32 68 C31.4 68.3 30.65 68.675 30.2 68.9 C24.8 66.4 13.1 63.2 6.7 62.7 C6.3 60.1 5.6 57.4 5.3 56.3 C5.56667 56.2 5.9 56.075 6.1 56 C7.9 56.6 16.3 59.6 18.2 60.2 C17.4 55.8 13.8 35.6 12.8 33.3 C12 31.4 10.5 31.2 5.1 31.1 C4.96667 31 4.8 30.875 4.7 30.8 C4.575 30 4.325 28.4 4.2 27.6 z" />
<glyph unicode="" horiz-adv-x="38.5" d="M25.5 66.1 C28.8 66.1 29.4 63.2 29.4 61.2 C29.4 58.9 28.8 55.2 28.4 52.9 C27.7 49.6 26.8 41.8 21.7 41.8 C18.2 41.8 17.4 44.3 17.4 47.8 C17.4 50.8 18.1 53.7 18.8 56.6 C19.6 59.9 20.6 66.1 25.5 66.1 zM40.1 58.3 C40.1 65.7 35.3 68.9 27.2 68.9 C24.4 68.9 19.7 68.9 14.5 65.3 C6.7 60.1 6.6 50.8 6.6 49.7 C6.6 44.2 10 38.8 19.7 38.8 C37.2 38.8 40.1 52.4 40.1 58.3 z" />
<glyph unicode="" horiz-adv-x="59.2" d="M52.9 24.3 C48.3 28.9 36.4 42.3 33.7 45.4 C33.4 45.5 33.025 45.625 32.8 45.7 C32.2 45.475 31 45.025 30.4 44.8 C30.325 44.625 30.175 44.275 30.1 44.1 C33.2 36.9 37.6 26.7 38.8 24 C35.9 20 29.9 11.3 25 4.3 C25 4.03333 25 3.7 25 3.5 C25.625 3.025 26.875 2.075 27.5 1.6 C27.65 1.6 27.95 1.6 28.1 1.6 C36.6 8.3 44.3 15 52.6 20.9 C52.7 22.03333 52.825 23.45 52.9 24.3 zM31.6 24.3 C27 28.9 15.1 42.3 12.4 45.4 C12.1 45.5 11.725 45.625 11.5 45.7 C10.9 45.475 9.7 45.025 9.1 44.8 C9.025 44.625 8.875 44.275 8.8 44.1 C11.9 36.9 16.3 26.7 17.5 24 C14.6 20 8.6 11.3 3.7 4.3 C3.7 4.03333 3.7 3.7 3.7 3.5 C4.325 3.025 5.575 2.075 6.2 1.6 C6.35 1.6 6.65 1.6 6.8 1.6 C15.3 8.3 23 15 31.3 20.9 C31.4 22.03333 31.525 23.45 31.6 24.3 z" />
<glyph unicode="" horiz-adv-x="88.9" d="M81.5 33.4 C81.8 35.2 82.7 39.4 83.3 40.8 C82.8 40.96667 82.175 41.175 81.8 41.3 C79.325 40.875 74.375 40.025 71.9 39.6 C63.8 32.2 51.6 18.8 47.9 13.6 C47.9 12.56667 47.9 11.275 47.9 10.5 C48 10.425 48.2 10.275 48.3 10.2 C51 10.2 53.8 10.4 56.7 10.4 C59.83333 10.4 63.75 10.4 66.1 10.4 C65.6 8 65.1 5.5 64.5 4.7 C63.8 3.7 60 3.7 57 3.5 C56.9 3.4 56.775 3.275 56.7 3.2 C56.55 2.4 56.25 0.8 56.1 0 C56.15 -0.075 56.25 -0.225 56.3 -0.3 C60.7 -0.2 65.1 0 70.1 0 C74.5 0 78.8 -0.2 83.2 -0.3 C83.33333 -0.2 83.5 -0.075 83.6 0 C83.75 0.8 84.05 2.4 84.2 3.2 C84.125 3.275 83.975 3.425 83.9 3.5 C79.5 3.5 76.4 3.5 76.4 6.1 C76.4 6.3 76.6 8.2 77 10.4 C77.9 10.4 82.1 10.2 83.5 10.1 C83.7 10.2 83.95 10.325 84.1 10.4 C85 14.2 85.2 14.6 85.7 15.7 C85.56667 15.9 85.4 16.15 85.3 16.3 C83.3 16.1 82.5 16.1 78.1 16 C79.23333 21.8 80.65 29.05 81.5 33.4 zM62.2 16 C59.7 16 57.3 16.3 54.4 16.2 C60.7 23.5 63.8 27.1 70.4 33.9 C70.46667 33.83333 70.55 33.75 70.6 33.7 C70.625 33.725 70.675 33.775 70.7 33.8 C69.8 29.35 68 20.45 67.1 16 C65.875 16 63.425 16 62.2 16 zM21.1 -3.3 C21.225 -3.425 21.475 -3.675 21.6 -3.8 C23.35 -3.8 26.85 -3.8 28.6 -3.8 C28.75 -3.675 29.05 -3.425 29.2 -3.3 C39.45 15.1 59.95 51.9 70.2 70.3 C70.075 70.425 69.825 70.675 69.7 70.8 C67.95 70.8 64.45 70.8 62.7 70.8 C62.575 70.675 62.325 70.425 62.2 70.3 C51.925 51.9 31.375 15.1 21.1 -3.3 zM4.2 27.6 C4.25 27.525 4.35 27.375 4.4 27.3 C9 27.4 13.6 27.6 18.8 27.6 C23.4 27.6 28 27.4 32.6 27.3 C32.73333 27.4 32.9 27.525 33 27.6 C33.15 28.4 33.45 30 33.6 30.8 C33.525 30.875 33.375 31.025 33.3 31.1 C26.7 31.1 25 31.2 25 33.6 C25 35.6 26.9 45.9 28.2 52.4 C29.5 58.9 30.4 64.4 32 68 C31.4 68.3 30.65 68.675 30.2 68.9 C24.8 66.4 13.1 63.2 6.7 62.7 C6.3 60.1 5.6 57.4 5.3 56.3 C5.56667 56.2 5.9 56.075 6.1 56 C7.9 56.6 16.3 59.6 18.2 60.2 C17.4 55.8 13.8 35.6 12.8 33.3 C12 31.4 10.5 31.2 5.1 31.1 C4.96667 31 4.8 30.875 4.7 30.8 C4.575 30 4.325 28.4 4.2 27.6 z" />
<glyph unicode="" horiz-adv-x="88.9" d="M20.2 -3.3 C20.325 -3.425 20.575 -3.675 20.7 -3.8 C22.45 -3.8 25.95 -3.8 27.7 -3.8 C27.85 -3.675 28.15 -3.425 28.3 -3.3 C38.55 15.1 59.05 51.9 69.3 70.3 C69.175 70.425 68.925 70.675 68.8 70.8 C67.05 70.8 63.55 70.8 61.8 70.8 C61.675 70.675 61.425 70.425 61.3 70.3 C51.025 51.9 30.475 15.1 20.2 -3.3 zM4.2 27.6 C4.25 27.525 4.35 27.375 4.4 27.3 C9 27.4 13.6 27.6 18.8 27.6 C23.4 27.6 28 27.4 32.6 27.3 C32.73333 27.4 32.9 27.525 33 27.6 C33.15 28.4 33.45 30 33.6 30.8 C33.525 30.875 33.375 31.025 33.3 31.1 C26.7 31.1 25 31.2 25 33.6 C25 35.6 26.9 45.9 28.2 52.4 C29.5 58.9 30.4 64.4 32 68 C31.4 68.3 30.65 68.675 30.2 68.9 C24.8 66.4 13.1 63.2 6.7 62.7 C6.3 60.1 5.6 57.4 5.3 56.3 C5.56667 56.2 5.9 56.075 6.1 56 C7.9 56.6 16.3 59.6 18.2 60.2 C17.4 55.8 13.8 35.6 12.8 33.3 C12 31.4 10.5 31.2 5.1 31.1 C4.96667 31 4.8 30.875 4.7 30.8 C4.575 30 4.325 28.4 4.2 27.6 zM51.2 0 C51.25 -0.075 51.35 -0.225 51.4 -0.3 C56.4 -0.2 61.4 0 67 0 C72 0 76.9 -0.2 81.9 -0.3 C82.13333 -0.2 82.425 -0.075 82.6 0 C83.2 2.6 83.5 3.8 85.2 9.2 C85.03333 9.4 84.825 9.65 84.7 9.8 C79.9 9 73.9 9 72.5 9 C69.93333 9 66.725 9 64.8 9 C64.8 9.05 64.8 9.15 64.8 9.2 C72.7 14.2 85.7 22.6 85.7 30.5 C85.7 34.9 82.8 41.3 71.8 41.3 C68.7 41.3 63.8 40.3 61 38.6 C59.4 35.8 57.4 32.6 55.4 29.6 C55.43333 29.4 55.475 29.15 55.5 29 C55.975 28.675 56.925 28.025 57.4 27.7 C57.55 27.7 57.85 27.7 58 27.7 C61.2 31.7 64.8 32.8 67.5 32.8 C71.2 32.8 74.4 31.4 74.4 27.2 C74.4 20.2 56.8 7.9 51.7 4.1 C51.53333 2.73333 51.325 1.025 51.2 0 z" />
<glyph unicode="" horiz-adv-x="88.9" d="M81.5 33.4 C81.8 35.2 82.7 39.4 83.3 40.8 C82.8 40.96667 82.175 41.175 81.8 41.3 C79.325 40.875 74.375 40.025 71.9 39.6 C63.8 32.2 51.6 18.8 47.9 13.6 C47.9 12.56667 47.9 11.275 47.9 10.5 C48 10.425 48.2 10.275 48.3 10.2 C51 10.2 53.8 10.4 56.7 10.4 C59.83333 10.4 63.75 10.4 66.1 10.4 C65.6 8 65.1 5.5 64.5 4.7 C63.8 3.7 60 3.7 57 3.5 C56.9 3.4 56.775 3.275 56.7 3.2 C56.55 2.4 56.25 0.8 56.1 0 C56.15 -0.075 56.25 -0.225 56.3 -0.3 C60.7 -0.2 65.1 0 70.1 0 C74.5 0 78.8 -0.2 83.2 -0.3 C83.33333 -0.2 83.5 -0.075 83.6 0 C83.75 0.8 84.05 2.4 84.2 3.2 C84.125 3.275 83.975 3.425 83.9 3.5 C79.5 3.5 76.4 3.5 76.4 6.1 C76.4 6.3 76.6 8.2 77 10.4 C77.9 10.4 82.1 10.2 83.5 10.1 C83.7 10.2 83.95 10.325 84.1 10.4 C85 14.2 85.2 14.6 85.7 15.7 C85.56667 15.9 85.4 16.15 85.3 16.3 C83.3 16.1 82.5 16.1 78.1 16 C79.23333 21.8 80.65 29.05 81.5 33.4 zM62.2 16 C59.7 16 57.3 16.3 54.4 16.2 C60.7 23.5 63.8 27.1 70.4 33.9 C70.46667 33.83333 70.55 33.75 70.6 33.7 C70.625 33.725 70.675 33.775 70.7 33.8 C69.8 29.35 68 20.45 67.1 16 C65.875 16 63.425 16 62.2 16 zM4.2 39.7 C3.2 34.3 3 33.7 2 29.5 C2.13333 29.3 2.3 29.05 2.4 28.9 C5 27.7 11.8 26.5 15.4 26.5 C29.9 26.5 36 34.6 36 40.9 C36 48.8 28.2 49.4 24.5 49.6 C24.5 49.66667 24.5 49.75 24.5 49.8 C33.6 52.7 35.1 57.4 35.1 60.4 C35.1 62.2 34.1 68.9 22 68.9 C18.3 68.9 12.9 67.6 11.9 67.1 C10.1 64.3 8.1 61.3 6.1 58.6 C6.93333 58.03333 7.975 57.325 8.6 56.9 C11.6 59.5 14.2 61.1 18.1 61.1 C21.8 61.1 23.8 59.6 23.8 57.2 C23.8 51.2 15.3 51.2 13.1 51.2 C12.9 50 11.8 48.1 11.1 46.4 C11.2 46.23333 11.325 46.025 11.4 45.9 C12.5 46.2 14.4 46.7 16.4 46.7 C21.4 46.7 24 44.1 24 40.4 C24 37 21.5 31.4 14.5 31.4 C10.1 31.4 7.6 33.8 7.6 37.2 C7.6 38 7.7 38.5 7.8 39.2 C6.6 39.36667 5.1 39.575 4.2 39.7 zM21.1 -3.3 C21.225 -3.425 21.475 -3.675 21.6 -3.8 C23.35 -3.8 26.85 -3.8 28.6 -3.8 C28.75 -3.675 29.05 -3.425 29.2 -3.3 C39.45 15.1 59.95 51.9 70.2 70.3 C70.075 70.425 69.825 70.675 69.7 70.8 C67.95 70.8 64.45 70.8 62.7 70.8 C62.575 70.675 62.325 70.425 62.2 70.3 C51.925 51.9 31.375 15.1 21.1 -3.3 z" />
<glyph unicode="" horiz-adv-x="48.1" d="M22 24.8 C22 24.5 22 23.9 22 23.6 C23.1 22.9 24.4 22 24.4 20.1 C24.4 17.2 22.8 16.2 13.2 10.1 C6.5 5.9 -0.7 1.3 -0.7 -7.9 C-0.7 -15.6 5.9 -23 19.7 -23 C23.4 -23 26.8 -22.5 34.1 -19.6 C35.93333 -15.23333 38.225 -9.775 39.6 -6.5 C39.525 -6.325 39.375 -5.975 39.3 -5.8 C38.375 -5.375 36.525 -4.525 35.6 -4.1 C35.375 -4.175 34.925 -4.325 34.7 -4.4 C32.5 -8.6 30.3 -11.3 24.9 -11.3 C23.4 -11.3 16.7 -11 16.7 -4.5 C16.7 -2 17.2 0.5 23 5.5 C29.7 11.2 31.9 13.2 31.9 17.8 C31.9 19.7 31.4 23.7 26.6 26.3 C25.06667 25.8 23.15 25.175 22 24.8 zM20.7 37.4 C20.7 33.5 22.8 29.6 28.7 29.6 C34.7 29.6 38 35.5 38 40.9 C38 45.5 35.6 48.8 30.2 48.8 C22.3 48.8 20.7 40.5 20.7 37.4 z" />
<glyph unicode="" horiz-adv-x="74.1" d="M35.4 0 C35.525 -0.125 35.775 -0.375 35.9 -0.5 C41.9 -0.3 47.9 0 53.9 0 C59.6 0 65.4 -0.3 71.1 -0.5 C71.26667 -0.33333 71.475 -0.125 71.6 0 C71.8 1.15 72.2 3.45 72.4 4.6 C72.275 4.725 72.025 4.975 71.9 5.1 C66.2 5.6 64.7 6 63.9 7.7 C63.5 8.5 62.8 12 61.8 17.3 C58.8 33.4 53.4 58.9 52 69.9 C48.46667 69.9 44.05 69.9 41.4 69.9 C38.8 64.5 37.2 61.9 35.3 58.6 C27.93333 46.3 18.725 30.925 13.2 21.7 C3.9 6.1 2.9 5.6 -3.2 5.1 C-3.36667 4.93333 -3.575 4.725 -3.7 4.6 C-3.9 3.45 -4.3 1.15 -4.5 0 C-4.375 -0.125 -4.125 -0.375 -4 -0.5 C0.3 -0.3 4.6 0 8.9 0 C13.4 0 18 -0.3 22.5 -0.5 C22.66667 -0.33333 22.875 -0.125 23 0 C23.2 1.15 23.6 3.45 23.8 4.6 C23.675 4.725 23.425 4.975 23.3 5.1 C22.225 5.225 20.075 5.475 19 5.6 C16.1 5.9 15.4 6.7 15.4 7.7 C15.4 8.8 16.1 10.1 19.9 17.2 C27.76667 17.2 37.6 17.2 43.5 17.2 C43.7 15.9 44.8 9.6 44.8 8 C44.8 5.8 43.2 5.6 36.7 5.1 C36.53333 4.93333 36.325 4.725 36.2 4.6 C36 3.45 35.6 1.15 35.4 0 zM23.3 23.8 C26.85 30.025 33.95 42.475 37.5 48.7 C38.675 42.475 41.025 30.025 42.2 23.8 C37.475 23.8 28.025 23.8 23.3 23.8 zM50.7 73.8 C51.95 73.8 54.45 73.8 55.7 73.8 C53.025 77.5 47.675 84.9 45 88.6 C43.4 90.8 41.6 92.2 39.2 92.2 C36.6 92.2 33.7 90.6 33.7 87.6 C33.7 86.5 33.7 84.5 37.4 82.2 C41.83333 79.4 47.375 75.9 50.7 73.8 z" />
<glyph unicode="" horiz-adv-x="74.1" d="M35.4 0 C35.525 -0.125 35.775 -0.375 35.9 -0.5 C41.9 -0.3 47.9 0 53.9 0 C59.6 0 65.4 -0.3 71.1 -0.5 C71.26667 -0.33333 71.475 -0.125 71.6 0 C71.8 1.15 72.2 3.45 72.4 4.6 C72.275 4.725 72.025 4.975 71.9 5.1 C66.2 5.6 64.7 6 63.9 7.7 C63.5 8.5 62.8 12 61.8 17.3 C58.8 33.4 53.4 58.9 52 69.9 C48.46667 69.9 44.05 69.9 41.4 69.9 C38.8 64.5 37.2 61.9 35.3 58.6 C27.93333 46.3 18.725 30.925 13.2 21.7 C3.9 6.1 2.9 5.6 -3.2 5.1 C-3.36667 4.93333 -3.575 4.725 -3.7 4.6 C-3.9 3.45 -4.3 1.15 -4.5 0 C-4.375 -0.125 -4.125 -0.375 -4 -0.5 C0.3 -0.3 4.6 0 8.9 0 C13.4 0 18 -0.3 22.5 -0.5 C22.66667 -0.33333 22.875 -0.125 23 0 C23.2 1.15 23.6 3.45 23.8 4.6 C23.675 4.725 23.425 4.975 23.3 5.1 C22.225 5.225 20.075 5.475 19 5.6 C16.1 5.9 15.4 6.7 15.4 7.7 C15.4 8.8 16.1 10.1 19.9 17.2 C27.76667 17.2 37.6 17.2 43.5 17.2 C43.7 15.9 44.8 9.6 44.8 8 C44.8 5.8 43.2 5.6 36.7 5.1 C36.53333 4.93333 36.325 4.725 36.2 4.6 C36 3.45 35.6 1.15 35.4 0 zM23.3 23.8 C26.85 30.025 33.95 42.475 37.5 48.7 C38.675 42.475 41.025 30.025 42.2 23.8 C37.475 23.8 28.025 23.8 23.3 23.8 zM44.1 73.8 C47.6 75.675 54.6 79.425 58.1 81.3 C60.7 82.6 63.5 84.2 63.5 87.1 C63.5 90.3 60 92.2 58 92.2 C56.4 92.2 54.7 91.5 51.6 88.2 C47.26667 83.4 41.85 77.4 38.6 73.8 C39.975 73.8 42.725 73.8 44.1 73.8 z" />
<glyph unicode="" horiz-adv-x="74.1" d="M35.4 0 C35.525 -0.125 35.775 -0.375 35.9 -0.5 C41.9 -0.3 47.9 0 53.9 0 C59.6 0 65.4 -0.3 71.1 -0.5 C71.26667 -0.33333 71.475 -0.125 71.6 0 C71.8 1.15 72.2 3.45 72.4 4.6 C72.275 4.725 72.025 4.975 71.9 5.1 C66.2 5.6 64.7 6 63.9 7.7 C63.5 8.5 62.8 12 61.8 17.3 C58.8 33.4 53.4 58.9 52 69.9 C48.46667 69.9 44.05 69.9 41.4 69.9 C38.8 64.5 37.2 61.9 35.3 58.6 C27.93333 46.3 18.725 30.925 13.2 21.7 C3.9 6.1 2.9 5.6 -3.2 5.1 C-3.36667 4.93333 -3.575 4.725 -3.7 4.6 C-3.9 3.45 -4.3 1.15 -4.5 0 C-4.375 -0.125 -4.125 -0.375 -4 -0.5 C0.3 -0.3 4.6 0 8.9 0 C13.4 0 18 -0.3 22.5 -0.5 C22.66667 -0.33333 22.875 -0.125 23 0 C23.2 1.15 23.6 3.45 23.8 4.6 C23.675 4.725 23.425 4.975 23.3 5.1 C22.225 5.225 20.075 5.475 19 5.6 C16.1 5.9 15.4 6.7 15.4 7.7 C15.4 8.8 16.1 10.1 19.9 17.2 C27.76667 17.2 37.6 17.2 43.5 17.2 C43.7 15.9 44.8 9.6 44.8 8 C44.8 5.8 43.2 5.6 36.7 5.1 C36.53333 4.93333 36.325 4.725 36.2 4.6 C36 3.45 35.6 1.15 35.4 0 zM23.3 23.8 C26.85 30.025 33.95 42.475 37.5 48.7 C38.675 42.475 41.025 30.025 42.2 23.8 C37.475 23.8 28.025 23.8 23.3 23.8 zM62.5 73.8 C60.4 78.175 56.2 86.925 54.1 91.3 C51.625 91.3 46.675 91.3 44.2 91.3 C40.225 86.925 32.275 78.175 28.3 73.8 C29.925 73.8 33.175 73.8 34.8 73.8 C38.025 76.05 44.475 80.55 47.7 82.8 C49.975 80.55 54.525 76.05 56.8 73.8 C58.225 73.8 61.075 73.8 62.5 73.8 z" />
<glyph unicode="" horiz-adv-x="74.1" d="M35.4 0 C35.525 -0.125 35.775 -0.375 35.9 -0.5 C41.9 -0.3 47.9 0 53.9 0 C59.6 0 65.4 -0.3 71.1 -0.5 C71.26667 -0.33333 71.475 -0.125 71.6 0 C71.8 1.15 72.2 3.45 72.4 4.6 C72.275 4.725 72.025 4.975 71.9 5.1 C66.2 5.6 64.7 6 63.9 7.7 C63.5 8.5 62.8 12 61.8 17.3 C58.8 33.4 53.4 58.9 52 69.9 C48.46667 69.9 44.05 69.9 41.4 69.9 C38.8 64.5 37.2 61.9 35.3 58.6 C27.93333 46.3 18.725 30.925 13.2 21.7 C3.9 6.1 2.9 5.6 -3.2 5.1 C-3.36667 4.93333 -3.575 4.725 -3.7 4.6 C-3.9 3.45 -4.3 1.15 -4.5 0 C-4.375 -0.125 -4.125 -0.375 -4 -0.5 C0.3 -0.3 4.6 0 8.9 0 C13.4 0 18 -0.3 22.5 -0.5 C22.66667 -0.33333 22.875 -0.125 23 0 C23.2 1.15 23.6 3.45 23.8 4.6 C23.675 4.725 23.425 4.975 23.3 5.1 C22.225 5.225 20.075 5.475 19 5.6 C16.1 5.9 15.4 6.7 15.4 7.7 C15.4 8.8 16.1 10.1 19.9 17.2 C27.76667 17.2 37.6 17.2 43.5 17.2 C43.7 15.9 44.8 9.6 44.8 8 C44.8 5.8 43.2 5.6 36.7 5.1 C36.53333 4.93333 36.325 4.725 36.2 4.6 C36 3.45 35.6 1.15 35.4 0 zM23.3 23.8 C26.85 30.025 33.95 42.475 37.5 48.7 C38.675 42.475 41.025 30.025 42.2 23.8 C37.475 23.8 28.025 23.8 23.3 23.8 zM32.2 75.8 C32.7 77.2 33.7 79.8 37.4 79.8 C41.3 79.8 46.4 75.7 52.1 75.7 C61.3 75.7 64.7 84.6 65.1 88.3 C63.63333 88.3 61.8 88.3 60.7 88.3 C59.6 86.3 58.4 84 55.3 84 C52.6 84 45.1 88.2 40.7 88.2 C34.2 88.2 29.4 82.4 27.8 75.8 C29.26667 75.8 31.1 75.8 32.2 75.8 z" />
<glyph unicode="" horiz-adv-x="74.1" d="M35.4 0 C35.525 -0.125 35.775 -0.375 35.9 -0.5 C41.9 -0.3 47.9 0 53.9 0 C59.6 0 65.4 -0.3 71.1 -0.5 C71.26667 -0.33333 71.475 -0.125 71.6 0 C71.8 1.15 72.2 3.45 72.4 4.6 C72.275 4.725 72.025 4.975 71.9 5.1 C66.2 5.6 64.7 6 63.9 7.7 C63.5 8.5 62.8 12 61.8 17.3 C58.8 33.4 53.4 58.9 52 69.9 C48.46667 69.9 44.05 69.9 41.4 69.9 C38.8 64.5 37.2 61.9 35.3 58.6 C27.93333 46.3 18.725 30.925 13.2 21.7 C3.9 6.1 2.9 5.6 -3.2 5.1 C-3.36667 4.93333 -3.575 4.725 -3.7 4.6 C-3.9 3.45 -4.3 1.15 -4.5 0 C-4.375 -0.125 -4.125 -0.375 -4 -0.5 C0.3 -0.3 4.6 0 8.9 0 C13.4 0 18 -0.3 22.5 -0.5 C22.66667 -0.33333 22.875 -0.125 23 0 C23.2 1.15 23.6 3.45 23.8 4.6 C23.675 4.725 23.425 4.975 23.3 5.1 C22.225 5.225 20.075 5.475 19 5.6 C16.1 5.9 15.4 6.7 15.4 7.7 C15.4 8.8 16.1 10.1 19.9 17.2 C27.76667 17.2 37.6 17.2 43.5 17.2 C43.7 15.9 44.8 9.6 44.8 8 C44.8 5.8 43.2 5.6 36.7 5.1 C36.53333 4.93333 36.325 4.725 36.2 4.6 C36 3.45 35.6 1.15 35.4 0 zM23.3 23.8 C26.85 30.025 33.95 42.475 37.5 48.7 C38.675 42.475 41.025 30.025 42.2 23.8 C37.475 23.8 28.025 23.8 23.3 23.8 zM50.2 81.6 C50.2 77.6 53.4 74.4 57.4 74.4 C61.4 74.4 64.6 77.6 64.6 81.6 C64.6 85.6 61.4 88.8 57.4 88.8 C53.4 88.8 50.2 85.6 50.2 81.6 zM28.7 81.6 C28.7 77.6 31.9 74.4 35.9 74.4 C39.9 74.4 43.1 77.6 43.1 81.6 C43.1 85.6 39.9 88.8 35.9 88.8 C31.9 88.8 28.7 85.6 28.7 81.6 z" />
<glyph unicode="" horiz-adv-x="74.1" d="M35.4 0 C35.525 -0.125 35.775 -0.375 35.9 -0.5 C41.9 -0.3 47.9 0 53.9 0 C59.6 0 65.4 -0.3 71.1 -0.5 C71.26667 -0.33333 71.475 -0.125 71.6 0 C71.8 1.15 72.2 3.45 72.4 4.6 C72.275 4.725 72.025 4.975 71.9 5.1 C66.2 5.6 64.7 6 63.9 7.7 C63.5 8.5 62.8 12 61.8 17.3 C58.8 33.4 53.4 58.9 52 69.9 C48.46667 69.9 44.05 69.9 41.4 69.9 C38.8 64.5 37.2 61.9 35.3 58.6 C27.93333 46.3 18.725 30.925 13.2 21.7 C3.9 6.1 2.9 5.6 -3.2 5.1 C-3.36667 4.93333 -3.575 4.725 -3.7 4.6 C-3.9 3.45 -4.3 1.15 -4.5 0 C-4.375 -0.125 -4.125 -0.375 -4 -0.5 C0.3 -0.3 4.6 0 8.9 0 C13.4 0 18 -0.3 22.5 -0.5 C22.66667 -0.33333 22.875 -0.125 23 0 C23.2 1.15 23.6 3.45 23.8 4.6 C23.675 4.725 23.425 4.975 23.3 5.1 C22.225 5.225 20.075 5.475 19 5.6 C16.1 5.9 15.4 6.7 15.4 7.7 C15.4 8.8 16.1 10.1 19.9 17.2 C27.76667 17.2 37.6 17.2 43.5 17.2 C43.7 15.9 44.8 9.6 44.8 8 C44.8 5.8 43.2 5.6 36.7 5.1 C36.53333 4.93333 36.325 4.725 36.2 4.6 C36 3.45 35.6 1.15 35.4 0 zM23.3 23.8 C26.85 30.025 33.95 42.475 37.5 48.7 C38.675 42.475 41.025 30.025 42.2 23.8 C37.475 23.8 28.025 23.8 23.3 23.8 zM37 82.8 C37 76.9 41.8 72.1 47.7 72.1 C53.6 72.1 58.4 76.9 58.4 82.8 C58.4 88.7 53.6 93.5 47.7 93.5 C41.8 93.5 37 88.7 37 82.8 zM42.2 82.8 C42.2 85.8 44.7 88.3 47.7 88.3 C50.7 88.3 53.2 85.8 53.2 82.8 C53.2 79.8 50.7 77.3 47.7 77.3 C44.7 77.3 42.2 79.8 42.2 82.8 z" />
<glyph unicode="" horiz-adv-x="98.1" d="M8.6 14 C3 5.4 2.8 5.4 -3.3 5.1 C-3.46667 4.93333 -3.675 4.725 -3.8 4.6 C-4 3.45 -4.4 1.15 -4.6 0 C-4.475 -0.125 -4.225 -0.375 -4.1 -0.5 C0.4 -0.3 4.9 0 9.4 0 C13.9 0 18.3 -0.3 22.8 -0.5 C22.96667 -0.33333 23.175 -0.125 23.3 0 C23.5 1.15 23.9 3.45 24.1 4.6 C23.975 4.725 23.725 4.975 23.6 5.1 C22.7 5.15 20.9 5.25 20 5.3 C17.1 5.5 15.9 6 15.9 7.5 C15.9 8.8 16.1 9.2 18.3 13 C19.23333 14.66667 20.4 16.75 21.1 18 C26.675 18 37.825 18 43.4 18 C42.95 15.8 42.05 11.4 41.6 9.2 C40.9 6.2 40.3 5.9 35.3 4.1 C35.13333 3.9 34.925 3.65 34.8 3.5 C34.625 2.625 34.275 0.875 34.1 0 C34.2 -0.125 34.4 -0.375 34.5 -0.5 C43.5 -0.3 52.5 0 61.5 0 C70.5 0 79.4 -0.3 88.4 -0.5 C88.63333 -0.33333 88.925 -0.125 89.1 0 C90.1 5.9 90.9 12 92.5 18.4 C92.33333 18.56667 92.125 18.775 92 18.9 C90.85 18.9 88.55 18.9 87.4 18.9 C87.225 18.75 86.875 18.45 86.7 18.3 C85.775 15.775 83.925 10.725 83 8.2 C79 7.4 71.7 6.7 66.8 6.7 C64.6 6.7 61.85 6.7 60.2 6.7 C61.3 15.2 63.5 27.2 64.4 32.1 C67.53333 32.1 71.45 32.1 73.8 32.1 C77.1 32.1 80.9 31.8 84.4 31.4 C86 35.5 86.4 36.4 87.9 39.1 C87.56667 39.46667 87.15 39.925 86.9 40.2 C80.6 39.6 77.5 39.3 73.5 39.3 C70.93333 39.3 67.725 39.3 65.8 39.3 C66.9 47 67.3 50.3 69.7 61.9 C72.7 62.1 76.3 62.2 78.8 62.2 C80.5 62.2 87.7 62.2 89.2 60.7 C90 59.9 89.9 55.2 90 52.9 C90.16667 52.73333 90.375 52.525 90.5 52.4 C91.55 52.4 93.65 52.4 94.7 52.4 C94.825 52.525 95.075 52.775 95.2 52.9 C95.8 59.3 96.6 64 97.6 68.4 C97.36667 68.73333 97.075 69.15 96.9 69.4 C84.8 69.2 72.7 68.9 60.6 68.9 C50.3 68.9 40.1 69.2 29.8 69.4 C29.63333 69.23333 29.425 69.025 29.3 68.9 C29.1 67.75 28.7 65.45 28.5 64.3 C28.625 64.175 28.875 63.925 29 63.8 C37.7 63 37.7 62.8 37.7 61 C37.7 60.2 36.9 58 35.5 55.8 C26.53333 41.86667 15.325 24.45 8.6 14 zM44.4 55.9 C47 59.9 48 61.9 49.5 61.9 C50.4 61.9 50.6 60.9 50.6 60.1 C50.6 58.5 48.9 48.8 48.4 46 C47.13333 38.86667 45.55 29.95 44.6 24.6 C39.675 24.6 29.825 24.6 24.9 24.6 C29.775 32.425 39.525 48.075 44.4 55.9 z" />
<glyph unicode="" horiz-adv-x="72.2" d="M67.7 12.3 C67.35 12.6 66.65 13.2 66.3 13.5 C60 9.6 51.9 7.3 44.8 7.3 C25.1 7.3 25.1 28.1 25.1 30.2 C25.1 33.3 25.7 63.3 48.1 63.3 C56.1 63.3 60.9 59.4 63.3 57.5 C64 56.9 64.1 55.5 64.4 50.3 C64.56667 50.13333 64.775 49.925 64.9 49.8 C66 49.8 68.2 49.8 69.3 49.8 C69.425 49.925 69.675 50.175 69.8 50.3 C70.3 56 71.9 63.7 72.5 66.1 C72.26667 66.4 71.975 66.775 71.8 67 C68.4 68.6 57 70.6 51.3 70.6 C25.3 70.6 4.9 54.6 4.9 27.7 C4.9 9.2 17.2 -1.4 35.7 -1.7 C33.83333 -4.23333 31.5 -7.4 30.1 -9.3 C30.5 -9.725 31.3 -10.575 31.7 -11 C32.7 -10.8 33.8 -10.6 34.9 -10.6 C38 -10.6 39.1 -12 39.1 -14.2 C39.1 -15.3 39.1 -18.2 33.8 -18.2 C31.2 -18.2 29.3 -17.4 27 -16.5 C26.83333 -16.6 26.625 -16.725 26.5 -16.8 C26.1 -17.4 25.3 -18.6 24.9 -19.2 C24.95 -19.325 25.05 -19.575 25.1 -19.7 C28.8 -21.8 31.2 -22.5 35.8 -22.5 C45.4 -22.5 49.1 -17.3 49.1 -13.8 C49.1 -9.6 45.7 -6.3 39.4 -6.3 C38.3 -6.3 37.7 -6.5 36.7 -6.7 C38.03333 -4.96667 39.7 -2.8 40.7 -1.5 C48.6 -1.1 60.5 1.3 65.7 5.5 C66.36667 7.76667 67.2 10.6 67.7 12.3 z" />
<glyph unicode="" horiz-adv-x="64.8" d="M53.4 40.2 C47.1 39.6 44 39.3 40 39.3 C37.43333 39.3 34.225 39.3 32.3 39.3 C33.4 47 33.8 50.3 36.2 61.9 C39.2 62.1 42.8 62.2 45.3 62.2 C47 62.2 54.2 62.2 55.7 60.7 C56.5 59.9 56.4 55.2 56.5 52.9 C56.66667 52.73333 56.875 52.525 57 52.4 C58.05 52.4 60.15 52.4 61.2 52.4 C61.325 52.525 61.575 52.775 61.7 52.9 C62.3 59.3 63.1 64 64.1 68.4 C63.86667 68.73333 63.575 69.15 63.4 69.4 C54.3 69.2 45.3 68.9 36.2 68.9 C27.1 68.9 18 69.2 8.9 69.4 C8.73333 69.23333 8.525 69.025 8.4 68.9 C8.2 67.75 7.8 65.45 7.6 64.3 C7.725 64.175 7.975 63.925 8.1 63.8 C16 62.9 16.9 62.9 16.9 60.8 C16.9 55 9.6 14.7 8.1 9.2 C7.4 6.2 6.8 5.9 1.8 4.1 C1.63333 3.9 1.425 3.65 1.3 3.5 C1.125 2.625 0.775 0.875 0.6 0 C0.7 -0.125 0.9 -0.375 1 -0.5 C10 -0.3 19 0 28 0 C37 0 45.9 -0.3 54.9 -0.5 C55.13333 -0.33333 55.425 -0.125 55.6 0 C56.6 6.4 57.4 12.5 59 18.4 C58.83333 18.56667 58.625 18.775 58.5 18.9 C57.35 18.9 55.05 18.9 53.9 18.9 C53.725 18.75 53.375 18.45 53.2 18.3 C52.275 15.775 50.425 10.725 49.5 8.2 C45.5 7.4 38.2 6.7 33.3 6.7 C31.1 6.7 28.35 6.7 26.7 6.7 C27.8 15.2 30 27.2 30.9 32.1 C34.03333 32.1 37.95 32.1 40.3 32.1 C43.6 32.1 47.4 31.8 50.9 31.4 C52.5 35.5 52.9 36.4 54.4 39.1 C54.06667 39.46667 53.65 39.925 53.4 40.2 zM44.5 73.8 C45.75 73.8 48.25 73.8 49.5 73.8 C46.825 77.5 41.475 84.9 38.8 88.6 C37.2 90.8 35.4 92.2 33 92.2 C30.4 92.2 27.5 90.6 27.5 87.6 C27.5 86.5 27.5 84.5 31.2 82.2 C35.63333 79.4 41.175 75.9 44.5 73.8 z" />
<glyph unicode="" horiz-adv-x="64.8" d="M53.4 40.2 C47.1 39.6 44 39.3 40 39.3 C37.43333 39.3 34.225 39.3 32.3 39.3 C33.4 47 33.8 50.3 36.2 61.9 C39.2 62.1 42.8 62.2 45.3 62.2 C47 62.2 54.2 62.2 55.7 60.7 C56.5 59.9 56.4 55.2 56.5 52.9 C56.66667 52.73333 56.875 52.525 57 52.4 C58.05 52.4 60.15 52.4 61.2 52.4 C61.325 52.525 61.575 52.775 61.7 52.9 C62.3 59.3 63.1 64 64.1 68.4 C63.86667 68.73333 63.575 69.15 63.4 69.4 C54.3 69.2 45.3 68.9 36.2 68.9 C27.1 68.9 18 69.2 8.9 69.4 C8.73333 69.23333 8.525 69.025 8.4 68.9 C8.2 67.75 7.8 65.45 7.6 64.3 C7.725 64.175 7.975 63.925 8.1 63.8 C16 62.9 16.9 62.9 16.9 60.8 C16.9 55 9.6 14.7 8.1 9.2 C7.4 6.2 6.8 5.9 1.8 4.1 C1.63333 3.9 1.425 3.65 1.3 3.5 C1.125 2.625 0.775 0.875 0.6 0 C0.7 -0.125 0.9 -0.375 1 -0.5 C10 -0.3 19 0 28 0 C37 0 45.9 -0.3 54.9 -0.5 C55.13333 -0.33333 55.425 -0.125 55.6 0 C56.6 6.4 57.4 12.5 59 18.4 C58.83333 18.56667 58.625 18.775 58.5 18.9 C57.35 18.9 55.05 18.9 53.9 18.9 C53.725 18.75 53.375 18.45 53.2 18.3 C52.275 15.775 50.425 10.725 49.5 8.2 C45.5 7.4 38.2 6.7 33.3 6.7 C31.1 6.7 28.35 6.7 26.7 6.7 C27.8 15.2 30 27.2 30.9 32.1 C34.03333 32.1 37.95 32.1 40.3 32.1 C43.6 32.1 47.4 31.8 50.9 31.4 C52.5 35.5 52.9 36.4 54.4 39.1 C54.06667 39.46667 53.65 39.925 53.4 40.2 zM37.9 73.8 C41.4 75.675 48.4 79.425 51.9 81.3 C54.5 82.6 57.3 84.2 57.3 87.1 C57.3 90.3 53.8 92.2 51.8 92.2 C50.2 92.2 48.5 91.5 45.4 88.2 C41.06667 83.4 35.65 77.4 32.4 73.8 C33.775 73.8 36.525 73.8 37.9 73.8 z" />
<glyph unicode="" horiz-adv-x="64.8" d="M53.4 40.2 C47.1 39.6 44 39.3 40 39.3 C37.43333 39.3 34.225 39.3 32.3 39.3 C33.4 47 33.8 50.3 36.2 61.9 C39.2 62.1 42.8 62.2 45.3 62.2 C47 62.2 54.2 62.2 55.7 60.7 C56.5 59.9 56.4 55.2 56.5 52.9 C56.66667 52.73333 56.875 52.525 57 52.4 C58.05 52.4 60.15 52.4 61.2 52.4 C61.325 52.525 61.575 52.775 61.7 52.9 C62.3 59.3 63.1 64 64.1 68.4 C63.86667 68.73333 63.575 69.15 63.4 69.4 C54.3 69.2 45.3 68.9 36.2 68.9 C27.1 68.9 18 69.2 8.9 69.4 C8.73333 69.23333 8.525 69.025 8.4 68.9 C8.2 67.75 7.8 65.45 7.6 64.3 C7.725 64.175 7.975 63.925 8.1 63.8 C16 62.9 16.9 62.9 16.9 60.8 C16.9 55 9.6 14.7 8.1 9.2 C7.4 6.2 6.8 5.9 1.8 4.1 C1.63333 3.9 1.425 3.65 1.3 3.5 C1.125 2.625 0.775 0.875 0.6 0 C0.7 -0.125 0.9 -0.375 1 -0.5 C10 -0.3 19 0 28 0 C37 0 45.9 -0.3 54.9 -0.5 C55.13333 -0.33333 55.425 -0.125 55.6 0 C56.6 6.4 57.4 12.5 59 18.4 C58.83333 18.56667 58.625 18.775 58.5 18.9 C57.35 18.9 55.05 18.9 53.9 18.9 C53.725 18.75 53.375 18.45 53.2 18.3 C52.275 15.775 50.425 10.725 49.5 8.2 C45.5 7.4 38.2 6.7 33.3 6.7 C31.1 6.7 28.35 6.7 26.7 6.7 C27.8 15.2 30 27.2 30.9 32.1 C34.03333 32.1 37.95 32.1 40.3 32.1 C43.6 32.1 47.4 31.8 50.9 31.4 C52.5 35.5 52.9 36.4 54.4 39.1 C54.06667 39.46667 53.65 39.925 53.4 40.2 zM56.1 73.8 C54 78.175 49.8 86.925 47.7 91.3 C45.225 91.3 40.275 91.3 37.8 91.3 C33.825 86.925 25.875 78.175 21.9 73.8 C23.525 73.8 26.775 73.8 28.4 73.8 C31.625 76.05 38.075 80.55 41.3 82.8 C43.575 80.55 48.125 76.05 50.4 73.8 C51.825 73.8 54.675 73.8 56.1 73.8 z" />
<glyph unicode="" horiz-adv-x="64.8" d="M53.4 40.2 C47.1 39.6 44 39.3 40 39.3 C37.43333 39.3 34.225 39.3 32.3 39.3 C33.4 47 33.8 50.3 36.2 61.9 C39.2 62.1 42.8 62.2 45.3 62.2 C47 62.2 54.2 62.2 55.7 60.7 C56.5 59.9 56.4 55.2 56.5 52.9 C56.66667 52.73333 56.875 52.525 57 52.4 C58.05 52.4 60.15 52.4 61.2 52.4 C61.325 52.525 61.575 52.775 61.7 52.9 C62.3 59.3 63.1 64 64.1 68.4 C63.86667 68.73333 63.575 69.15 63.4 69.4 C54.3 69.2 45.3 68.9 36.2 68.9 C27.1 68.9 18 69.2 8.9 69.4 C8.73333 69.23333 8.525 69.025 8.4 68.9 C8.2 67.75 7.8 65.45 7.6 64.3 C7.725 64.175 7.975 63.925 8.1 63.8 C16 62.9 16.9 62.9 16.9 60.8 C16.9 55 9.6 14.7 8.1 9.2 C7.4 6.2 6.8 5.9 1.8 4.1 C1.63333 3.9 1.425 3.65 1.3 3.5 C1.125 2.625 0.775 0.875 0.6 0 C0.7 -0.125 0.9 -0.375 1 -0.5 C10 -0.3 19 0 28 0 C37 0 45.9 -0.3 54.9 -0.5 C55.13333 -0.33333 55.425 -0.125 55.6 0 C56.6 6.4 57.4 12.5 59 18.4 C58.83333 18.56667 58.625 18.775 58.5 18.9 C57.35 18.9 55.05 18.9 53.9 18.9 C53.725 18.75 53.375 18.45 53.2 18.3 C52.275 15.775 50.425 10.725 49.5 8.2 C45.5 7.4 38.2 6.7 33.3 6.7 C31.1 6.7 28.35 6.7 26.7 6.7 C27.8 15.2 30 27.2 30.9 32.1 C34.03333 32.1 37.95 32.1 40.3 32.1 C43.6 32.1 47.4 31.8 50.9 31.4 C52.5 35.5 52.9 36.4 54.4 39.1 C54.06667 39.46667 53.65 39.925 53.4 40.2 zM43.8 81.6 C43.8 77.6 47 74.4 51 74.4 C55 74.4 58.2 77.6 58.2 81.6 C58.2 85.6 55 88.8 51 88.8 C47 88.8 43.8 85.6 43.8 81.6 zM22.3 81.6 C22.3 77.6 25.5 74.4 29.5 74.4 C33.5 74.4 36.7 77.6 36.7 81.6 C36.7 85.6 33.5 88.8 29.5 88.8 C25.5 88.8 22.3 85.6 22.3 81.6 z" />
<glyph unicode="" horiz-adv-x="42.6" d="M-1.4 0 C-1.275 -0.125 -1.025 -0.375 -0.9 -0.5 C4.7 -0.3 11 0 17.2 0 C23.3 0 29.4 -0.3 35.5 -0.5 C35.66667 -0.33333 35.875 -0.125 36 0 C36.2 1.15 36.6 3.45 36.8 4.6 C36.675 4.725 36.425 4.975 36.3 5.1 C28.1 5.6 27.4 5.9 27.4 8.7 C27.4 11.8 33.1 46.3 36.1 59 C37.1 63 37.7 63.3 44.9 63.8 C45.06667 63.96667 45.275 64.175 45.4 64.3 C45.6 65.45 46 67.75 46.2 68.9 C46.075 69.025 45.825 69.275 45.7 69.4 C40.1 69.2 33.8 68.9 27.6 68.9 C21.5 68.9 15.4 69.2 9.3 69.4 C9.13333 69.23333 8.925 69.025 8.8 68.9 C8.6 67.75 8.2 65.45 8 64.3 C8.125 64.175 8.375 63.925 8.5 63.8 C15.7 63.3 17.1 63 17.1 60.8 C17.1 55 9.8 14.7 8.3 9.2 C7.3 5.6 6.4 6.1 -0.1 5.1 C-0.26667 4.93333 -0.475 4.725 -0.6 4.6 C-0.8 3.45 -1.2 1.15 -1.4 0 zM33.4 73.8 C34.65 73.8 37.15 73.8 38.4 73.8 C35.725 77.5 30.375 84.9 27.7 88.6 C26.1 90.8 24.3 92.2 21.9 92.2 C19.3 92.2 16.4 90.6 16.4 87.6 C16.4 86.5 16.4 84.5 20.1 82.2 C24.53333 79.4 30.075 75.9 33.4 73.8 z" />
<glyph unicode="" horiz-adv-x="42.6" d="M-1.4 0 C-1.275 -0.125 -1.025 -0.375 -0.9 -0.5 C4.7 -0.3 11 0 17.2 0 C23.3 0 29.4 -0.3 35.5 -0.5 C35.66667 -0.33333 35.875 -0.125 36 0 C36.2 1.15 36.6 3.45 36.8 4.6 C36.675 4.725 36.425 4.975 36.3 5.1 C28.1 5.6 27.4 5.9 27.4 8.7 C27.4 11.8 33.1 46.3 36.1 59 C37.1 63 37.7 63.3 44.9 63.8 C45.06667 63.96667 45.275 64.175 45.4 64.3 C45.6 65.45 46 67.75 46.2 68.9 C46.075 69.025 45.825 69.275 45.7 69.4 C40.1 69.2 33.8 68.9 27.6 68.9 C21.5 68.9 15.4 69.2 9.3 69.4 C9.13333 69.23333 8.925 69.025 8.8 68.9 C8.6 67.75 8.2 65.45 8 64.3 C8.125 64.175 8.375 63.925 8.5 63.8 C15.7 63.3 17.1 63 17.1 60.8 C17.1 55 9.8 14.7 8.3 9.2 C7.3 5.6 6.4 6.1 -0.1 5.1 C-0.26667 4.93333 -0.475 4.725 -0.6 4.6 C-0.8 3.45 -1.2 1.15 -1.4 0 zM26.8 73.8 C30.3 75.675 37.3 79.425 40.8 81.3 C43.4 82.6 46.2 84.2 46.2 87.1 C46.2 90.3 42.7 92.2 40.7 92.2 C39.1 92.2 37.4 91.5 34.3 88.2 C29.96667 83.4 24.55 77.4 21.3 73.8 C22.675 73.8 25.425 73.8 26.8 73.8 z" />
<glyph unicode="" horiz-adv-x="42.6" d="M-1.4 0 C-1.275 -0.125 -1.025 -0.375 -0.9 -0.5 C4.7 -0.3 11 0 17.2 0 C23.3 0 29.4 -0.3 35.5 -0.5 C35.66667 -0.33333 35.875 -0.125 36 0 C36.2 1.15 36.6 3.45 36.8 4.6 C36.675 4.725 36.425 4.975 36.3 5.1 C28.1 5.6 27.4 5.9 27.4 8.7 C27.4 11.8 33.1 46.3 36.1 59 C37.1 63 37.7 63.3 44.9 63.8 C45.06667 63.96667 45.275 64.175 45.4 64.3 C45.6 65.45 46 67.75 46.2 68.9 C46.075 69.025 45.825 69.275 45.7 69.4 C40.1 69.2 33.8 68.9 27.6 68.9 C21.5 68.9 15.4 69.2 9.3 69.4 C9.13333 69.23333 8.925 69.025 8.8 68.9 C8.6 67.75 8.2 65.45 8 64.3 C8.125 64.175 8.375 63.925 8.5 63.8 C15.7 63.3 17.1 63 17.1 60.8 C17.1 55 9.8 14.7 8.3 9.2 C7.3 5.6 6.4 6.1 -0.1 5.1 C-0.26667 4.93333 -0.475 4.725 -0.6 4.6 C-0.8 3.45 -1.2 1.15 -1.4 0 zM45 73.8 C42.9 78.175 38.7 86.925 36.6 91.3 C34.125 91.3 29.175 91.3 26.7 91.3 C22.725 86.925 14.775 78.175 10.8 73.8 C12.425 73.8 15.675 73.8 17.3 73.8 C20.525 76.05 26.975 80.55 30.2 82.8 C32.475 80.55 37.025 76.05 39.3 73.8 C40.725 73.8 43.575 73.8 45 73.8 z" />
<glyph unicode="" horiz-adv-x="42.6" d="M-1.4 0 C-1.275 -0.125 -1.025 -0.375 -0.9 -0.5 C4.7 -0.3 11 0 17.2 0 C23.3 0 29.4 -0.3 35.5 -0.5 C35.66667 -0.33333 35.875 -0.125 36 0 C36.2 1.15 36.6 3.45 36.8 4.6 C36.675 4.725 36.425 4.975 36.3 5.1 C28.1 5.6 27.4 5.9 27.4 8.7 C27.4 11.8 33.1 46.3 36.1 59 C37.1 63 37.7 63.3 44.9 63.8 C45.06667 63.96667 45.275 64.175 45.4 64.3 C45.6 65.45 46 67.75 46.2 68.9 C46.075 69.025 45.825 69.275 45.7 69.4 C40.1 69.2 33.8 68.9 27.6 68.9 C21.5 68.9 15.4 69.2 9.3 69.4 C9.13333 69.23333 8.925 69.025 8.8 68.9 C8.6 67.75 8.2 65.45 8 64.3 C8.125 64.175 8.375 63.925 8.5 63.8 C15.7 63.3 17.1 63 17.1 60.8 C17.1 55 9.8 14.7 8.3 9.2 C7.3 5.6 6.4 6.1 -0.1 5.1 C-0.26667 4.93333 -0.475 4.725 -0.6 4.6 C-0.8 3.45 -1.2 1.15 -1.4 0 zM32.7 81.6 C32.7 77.6 35.9 74.4 39.9 74.4 C43.9 74.4 47.1 77.6 47.1 81.6 C47.1 85.6 43.9 88.8 39.9 88.8 C35.9 88.8 32.7 85.6 32.7 81.6 zM11.2 81.6 C11.2 77.6 14.4 74.4 18.4 74.4 C22.4 74.4 25.6 77.6 25.6 81.6 C25.6 85.6 22.4 88.8 18.4 88.8 C14.4 88.8 11.2 85.6 11.2 81.6 z" />
<glyph unicode="" horiz-adv-x="85.2" d="M7.6 64.3 C7.725 64.175 7.975 63.925 8.1 63.8 C16 62.9 16.9 62.9 16.9 60.8 C16.9 58.3 15.5 49.3 13.8 39.4 C10.83333 39.4 7.125 39.4 4.9 39.4 C4.775 39.275 4.525 39.025 4.4 38.9 C4.1 37.5 3.5 34.7 3.2 33.3 C3.325 33.175 3.575 32.925 3.7 32.8 C5.95 32.8 10.45 32.8 12.7 32.8 C10.8 21.9 8.8 11.8 8.1 9.2 C7.4 6.2 6.8 5.9 1.8 4.1 C1.63333 3.9 1.425 3.65 1.3 3.5 C1.125 2.625 0.775 0.875 0.6 0 C0.7 -0.125 0.9 -0.375 1 -0.5 C3.5 -0.4 13.4 0 15.9 0 C23.4 0 30.9 -0.5 38.4 -0.5 C76.1 -0.5 83.3 30.7 83.3 41.2 C83.3 69.4 60.3 69.4 45.3 69.4 C38.4 69.4 31.6 68.9 24.7 68.9 C19.4 68.9 14.2 69.3 8.9 69.4 C8.73333 69.23333 8.525 69.025 8.4 68.9 C8.2 67.75 7.8 65.45 7.6 64.3 zM49.2 38.9 C49.075 39.025 48.825 39.275 48.7 39.4 C44.6 39.4 36.4 39.4 32.3 39.4 C33.2 44.4 34.1 49.5 35 54.1 C35.5 56.73333 36.125 60.025 36.5 62 C40.6 62.3 42.6 62.5 44.5 62.5 C57.8 62.5 63.3 53.9 63.3 41.5 C63.3 35.9 60.8 6.4 36.2 6.4 C33.4 6.4 29.7 6.8 27 7.6 C27.5 11.8 29.2 21.8 31.1 32.8 C36.56667 32.8 43.4 32.8 47.5 32.8 C47.625 32.925 47.875 33.175 48 33.3 C48.3 34.7 48.9 37.5 49.2 38.9 z" />
<glyph unicode="" horiz-adv-x="83.3" d="M5.1 64.3 C5.225 64.175 5.475 63.925 5.6 63.8 C7.1 63.7 10 63.6 13 61.3 C14.8 59.9 16.6 56.4 16.6 56.2 C14.5 42.9 12.3 29.6 9.7 16.4 C7.6 5.8 7.1 5.8 0 5.1 C-0.16667 4.93333 -0.375 4.725 -0.5 4.6 C-0.7 3.45 -1.1 1.15 -1.3 0 C-1.175 -0.125 -0.925 -0.375 -0.8 -0.5 C5.8 -0.2 8.9 0 12.4 0 C16.7 0 20.9 -0.3 25.2 -0.5 C25.36667 -0.33333 25.575 -0.125 25.7 0 C25.9 1.15 26.3 3.45 26.5 4.6 C26.375 4.725 26.125 4.975 26 5.1 C18.6 5.9 17.7 5.9 17.7 8.6 C17.7 15.9 21.3 37.8 23 47.6 C29.86667 37.53333 38.45 24.95 43.6 17.4 C49 9.4 52.8 3.8 55.6 -1 C60.1 -1 65.725 -1 69.1 -1 C71.9 18.5 73.8 32 79.1 57.6 C80.1 62.4 80.7 62.9 87.6 63.8 C87.76667 63.96667 87.975 64.175 88.1 64.3 C88.3 65.45 88.7 67.75 88.9 68.9 C88.775 69.025 88.525 69.275 88.4 69.4 C87.2 69.3 78 68.9 75.9 68.9 C71.4 68.9 66.9 69.2 62.4 69.4 C62.23333 69.23333 62.025 69.025 61.9 68.9 C61.7 67.75 61.3 65.45 61.1 64.3 C61.225 64.175 61.475 63.925 61.6 63.8 C70.1 62.9 70.1 62.5 70.1 60.3 C70.1 55.4 67.6 39.4 65.5 25.8 C65.16667 23.66667 64.75 21 64.5 19.4 C55.7 31.4 38.5 56.5 31.8 69.4 C30.1 69.3 21.8 68.9 19.9 68.9 C15.4 68.9 10.9 69.2 6.4 69.4 C6.23333 69.23333 6.025 69.025 5.9 68.9 C5.7 67.75 5.3 65.45 5.1 64.3 zM36.8 75.8 C37.3 77.2 38.3 79.8 42 79.8 C45.9 79.8 51 75.7 56.7 75.7 C65.9 75.7 69.3 84.6 69.7 88.3 C68.23333 88.3 66.4 88.3 65.3 88.3 C64.2 86.3 63 84 59.9 84 C57.2 84 49.7 88.2 45.3 88.2 C38.8 88.2 34 82.4 32.4 75.8 C33.86667 75.8 35.7 75.8 36.8 75.8 z" />
<glyph unicode="" horiz-adv-x="85.2" d="M38.8 -1.9 C73.4 -1.9 83.2 25.4 83.2 40.9 C83.2 65.7 63.8 70.6 49 70.6 C23.6 70.6 5 53.4 5 27.5 C5 8.4 17.4 -1.9 38.8 -1.9 zM63 45.3 C63 31.7 58.8 4.6 40.4 4.6 C28.3 4.6 25.2 13.1 25.2 23.7 C25.2 37.4 29.8 64.1 48.1 64.1 C59.6 64.1 63 55.3 63 45.3 zM54.7 73.8 C55.95 73.8 58.45 73.8 59.7 73.8 C57.025 77.5 51.675 84.9 49 88.6 C47.4 90.8 45.6 92.2 43.2 92.2 C40.6 92.2 37.7 90.6 37.7 87.6 C37.7 86.5 37.7 84.5 41.4 82.2 C45.83333 79.4 51.375 75.9 54.7 73.8 z" />
<glyph unicode="" horiz-adv-x="85.2" d="M38.8 -1.9 C73.4 -1.9 83.2 25.4 83.2 40.9 C83.2 65.7 63.8 70.6 49 70.6 C23.6 70.6 5 53.4 5 27.5 C5 8.4 17.4 -1.9 38.8 -1.9 zM63 45.3 C63 31.7 58.8 4.6 40.4 4.6 C28.3 4.6 25.2 13.1 25.2 23.7 C25.2 37.4 29.8 64.1 48.1 64.1 C59.6 64.1 63 55.3 63 45.3 zM48.1 73.8 C51.6 75.675 58.6 79.425 62.1 81.3 C64.7 82.6 67.5 84.2 67.5 87.1 C67.5 90.3 64 92.2 62 92.2 C60.4 92.2 58.7 91.5 55.6 88.2 C51.26667 83.4 45.85 77.4 42.6 73.8 C43.975 73.8 46.725 73.8 48.1 73.8 z" />
<glyph unicode="" horiz-adv-x="85.2" d="M38.8 -1.9 C73.4 -1.9 83.2 25.4 83.2 40.9 C83.2 65.7 63.8 70.6 49 70.6 C23.6 70.6 5 53.4 5 27.5 C5 8.4 17.4 -1.9 38.8 -1.9 zM63 45.3 C63 31.7 58.8 4.6 40.4 4.6 C28.3 4.6 25.2 13.1 25.2 23.7 C25.2 37.4 29.8 64.1 48.1 64.1 C59.6 64.1 63 55.3 63 45.3 zM67.5 73.8 C65.4 78.175 61.2 86.925 59.1 91.3 C56.625 91.3 51.675 91.3 49.2 91.3 C45.225 86.925 37.275 78.175 33.3 73.8 C34.925 73.8 38.175 73.8 39.8 73.8 C43.025 76.05 49.475 80.55 52.7 82.8 C54.975 80.55 59.525 76.05 61.8 73.8 C63.225 73.8 66.075 73.8 67.5 73.8 z" />
<glyph unicode="" horiz-adv-x="85.2" d="M38.8 -1.9 C73.4 -1.9 83.2 25.4 83.2 40.9 C83.2 65.7 63.8 70.6 49 70.6 C23.6 70.6 5 53.4 5 27.5 C5 8.4 17.4 -1.9 38.8 -1.9 zM63 45.3 C63 31.7 58.8 4.6 40.4 4.6 C28.3 4.6 25.2 13.1 25.2 23.7 C25.2 37.4 29.8 64.1 48.1 64.1 C59.6 64.1 63 55.3 63 45.3 zM37.7 75.8 C38.2 77.2 39.2 79.8 42.9 79.8 C46.8 79.8 51.9 75.7 57.6 75.7 C66.8 75.7 70.2 84.6 70.6 88.3 C69.13333 88.3 67.3 88.3 66.2 88.3 C65.1 86.3 63.9 84 60.8 84 C58.1 84 50.6 88.2 46.2 88.2 C39.7 88.2 34.9 82.4 33.3 75.8 C34.76667 75.8 36.6 75.8 37.7 75.8 z" />
<glyph unicode="" horiz-adv-x="85.2" d="M38.8 -1.9 C73.4 -1.9 83.2 25.4 83.2 40.9 C83.2 65.7 63.8 70.6 49 70.6 C23.6 70.6 5 53.4 5 27.5 C5 8.4 17.4 -1.9 38.8 -1.9 zM63 45.3 C63 31.7 58.8 4.6 40.4 4.6 C28.3 4.6 25.2 13.1 25.2 23.7 C25.2 37.4 29.8 64.1 48.1 64.1 C59.6 64.1 63 55.3 63 45.3 zM55.2 81.6 C55.2 77.6 58.4 74.4 62.4 74.4 C66.4 74.4 69.6 77.6 69.6 81.6 C69.6 85.6 66.4 88.8 62.4 88.8 C58.4 88.8 55.2 85.6 55.2 81.6 zM33.7 81.6 C33.7 77.6 36.9 74.4 40.9 74.4 C44.9 74.4 48.1 77.6 48.1 81.6 C48.1 85.6 44.9 88.8 40.9 88.8 C36.9 88.8 33.7 85.6 33.7 81.6 z" />
<glyph unicode="" horiz-adv-x="60" d="M14.6 1.7 C18.45 5.575 26.15 13.325 30 17.2 C33.85 13.325 41.55 5.575 45.4 1.7 C47.45 3.75 51.55 7.85 53.6 9.9 C49.725 13.75 41.975 21.45 38.1 25.3 C41.975 29.15 49.725 36.85 53.6 40.7 C51.55 42.75 47.45 46.85 45.4 48.9 C41.55 45.05 33.85 37.35 30 33.5 C26.15 37.35 18.45 45.05 14.6 48.9 C12.55 46.85 8.45 42.75 6.4 40.7 C10.25 36.85 17.95 29.15 21.8 25.3 C17.95 21.45 10.25 13.75 6.4 9.9 C8.45 7.85 12.55 3.75 14.6 1.7 z" />
<glyph unicode="" horiz-adv-x="85.2" d="M62.7 49.6 C62.9 48.2 63 46.8 63 45.3 C63 31.7 58.8 4.6 40.4 4.6 C32.7 4.6 28.6 8.1 26.7 13.3 C38.7 25.4 53.7 40.525 62.7 49.6 zM25.4 19.5 C25.3 20.8 25.2 22.2 25.2 23.7 C25.2 37.4 29.8 64.1 48.1 64.1 C55.2 64.1 59.3 60.7 61.2 55.7 C49.26667 43.63333 34.35 28.55 25.4 19.5 zM5.8 -0.3 C5.8 -0.425 5.8 -0.675 5.8 -0.8 C6.6 -1.6 8.2 -3.2 9 -4 C9.125 -4 9.375 -4 9.5 -4 C11.35 -2.125 15.05 1.625 16.9 3.5 C22.3 -0.1 29.7 -1.9 38.8 -1.9 C73.4 -1.9 83.2 25.4 83.2 40.9 C83.2 50.9 80 57.7 75.2 62.2 C77.63333 64.66667 80.675 67.75 82.5 69.6 C82.5 69.7 82.5 69.9 82.5 70 C81.625 70.8 79.875 72.4 79 73.2 C78.875 73.2 78.625 73.2 78.5 73.2 C76.6 71.275 72.8 67.425 70.9 65.5 C64.3 69.5 56.1 70.6 49 70.6 C23.6 70.6 5 53.4 5 27.5 C5 18.5 7.7 11.5 12.8 6.7 C10.46667 4.36667 7.55 1.45 5.8 -0.3 z" />
<glyph unicode="" horiz-adv-x="83.3" d="M6.9 64.3 C7.025 64.175 7.275 63.925 7.4 63.8 C8.8 63.6 13 63.2 14.2 62.6 C15.3 62 15.7 61.6 15.7 60.4 C15.7 52.5 8.7 21.4 8.7 13.2 C8.7 4.3 15.4 -1.9 25 -1.9 C33.2 -1.9 40.7 0.6 51.7 10.5 C51.5 8.8 51.3 6.9 49.4 0.2 C49.7 -0.03333 50.075 -0.325 50.3 -0.5 C54.7 -0.3 59.2 0 63.6 0 C68 0 72.5 -0.3 76.9 -0.5 C77.06667 -0.33333 77.275 -0.125 77.4 0 C77.6 1.15 78 3.45 78.2 4.6 C78.075 4.725 77.825 4.975 77.7 5.1 C69.3 5.8 69.3 6.5 69.3 8 C69.3 11 75.2 44.1 77.4 56.3 C78.7 63 79 63 86.4 63.8 C86.56667 63.96667 86.775 64.175 86.9 64.3 C87.1 65.45 87.5 67.75 87.7 68.9 C87.575 69.025 87.325 69.275 87.2 69.4 C81.4 69.2 75.5 68.9 69.7 68.9 C63.9 68.9 58 69.2 52.2 69.4 C52.03333 69.23333 51.825 69.025 51.7 68.9 C51.5 67.75 51.1 65.45 50.9 64.3 C51.025 64.175 51.275 63.925 51.4 63.8 C58.5 62.7 59.3 62.7 59.3 59.9 C59.3 58.6 58.8 55.6 58.3 52.4 C56.36667 41.13333 53.95 27.05 52.5 18.6 C51.4 17.5 43.2 10.8 36.5 10.8 C34.5 10.8 27.9 11.4 27.9 19.9 C27.9 25.5 34.9 60.4 36.9 68.5 C36.7 68.8 36.45 69.175 36.3 69.4 C31.6 69.2 27 68.9 22.3 68.9 C17.6 68.9 12.9 69.2 8.2 69.4 C8.03333 69.23333 7.825 69.025 7.7 68.9 C7.5 67.75 7.1 65.45 6.9 64.3 zM53.8 73.8 C55.05 73.8 57.55 73.8 58.8 73.8 C56.125 77.5 50.775 84.9 48.1 88.6 C46.5 90.8 44.7 92.2 42.3 92.2 C39.7 92.2 36.8 90.6 36.8 87.6 C36.8 86.5 36.8 84.5 40.5 82.2 C44.93333 79.4 50.475 75.9 53.8 73.8 z" />
<glyph unicode="" horiz-adv-x="83.3" d="M6.9 64.3 C7.025 64.175 7.275 63.925 7.4 63.8 C8.8 63.6 13 63.2 14.2 62.6 C15.3 62 15.7 61.6 15.7 60.4 C15.7 52.5 8.7 21.4 8.7 13.2 C8.7 4.3 15.4 -1.9 25 -1.9 C33.2 -1.9 40.7 0.6 51.7 10.5 C51.5 8.8 51.3 6.9 49.4 0.2 C49.7 -0.03333 50.075 -0.325 50.3 -0.5 C54.7 -0.3 59.2 0 63.6 0 C68 0 72.5 -0.3 76.9 -0.5 C77.06667 -0.33333 77.275 -0.125 77.4 0 C77.6 1.15 78 3.45 78.2 4.6 C78.075 4.725 77.825 4.975 77.7 5.1 C69.3 5.8 69.3 6.5 69.3 8 C69.3 11 75.2 44.1 77.4 56.3 C78.7 63 79 63 86.4 63.8 C86.56667 63.96667 86.775 64.175 86.9 64.3 C87.1 65.45 87.5 67.75 87.7 68.9 C87.575 69.025 87.325 69.275 87.2 69.4 C81.4 69.2 75.5 68.9 69.7 68.9 C63.9 68.9 58 69.2 52.2 69.4 C52.03333 69.23333 51.825 69.025 51.7 68.9 C51.5 67.75 51.1 65.45 50.9 64.3 C51.025 64.175 51.275 63.925 51.4 63.8 C58.5 62.7 59.3 62.7 59.3 59.9 C59.3 58.6 58.8 55.6 58.3 52.4 C56.36667 41.13333 53.95 27.05 52.5 18.6 C51.4 17.5 43.2 10.8 36.5 10.8 C34.5 10.8 27.9 11.4 27.9 19.9 C27.9 25.5 34.9 60.4 36.9 68.5 C36.7 68.8 36.45 69.175 36.3 69.4 C31.6 69.2 27 68.9 22.3 68.9 C17.6 68.9 12.9 69.2 8.2 69.4 C8.03333 69.23333 7.825 69.025 7.7 68.9 C7.5 67.75 7.1 65.45 6.9 64.3 zM47.2 73.8 C50.7 75.675 57.7 79.425 61.2 81.3 C63.8 82.6 66.6 84.2 66.6 87.1 C66.6 90.3 63.1 92.2 61.1 92.2 C59.5 92.2 57.8 91.5 54.7 88.2 C50.36667 83.4 44.95 77.4 41.7 73.8 C43.075 73.8 45.825 73.8 47.2 73.8 z" />
<glyph unicode="" horiz-adv-x="83.3" d="M6.9 64.3 C7.025 64.175 7.275 63.925 7.4 63.8 C8.8 63.6 13 63.2 14.2 62.6 C15.3 62 15.7 61.6 15.7 60.4 C15.7 52.5 8.7 21.4 8.7 13.2 C8.7 4.3 15.4 -1.9 25 -1.9 C33.2 -1.9 40.7 0.6 51.7 10.5 C51.5 8.8 51.3 6.9 49.4 0.2 C49.7 -0.03333 50.075 -0.325 50.3 -0.5 C54.7 -0.3 59.2 0 63.6 0 C68 0 72.5 -0.3 76.9 -0.5 C77.06667 -0.33333 77.275 -0.125 77.4 0 C77.6 1.15 78 3.45 78.2 4.6 C78.075 4.725 77.825 4.975 77.7 5.1 C69.3 5.8 69.3 6.5 69.3 8 C69.3 11 75.2 44.1 77.4 56.3 C78.7 63 79 63 86.4 63.8 C86.56667 63.96667 86.775 64.175 86.9 64.3 C87.1 65.45 87.5 67.75 87.7 68.9 C87.575 69.025 87.325 69.275 87.2 69.4 C81.4 69.2 75.5 68.9 69.7 68.9 C63.9 68.9 58 69.2 52.2 69.4 C52.03333 69.23333 51.825 69.025 51.7 68.9 C51.5 67.75 51.1 65.45 50.9 64.3 C51.025 64.175 51.275 63.925 51.4 63.8 C58.5 62.7 59.3 62.7 59.3 59.9 C59.3 58.6 58.8 55.6 58.3 52.4 C56.36667 41.13333 53.95 27.05 52.5 18.6 C51.4 17.5 43.2 10.8 36.5 10.8 C34.5 10.8 27.9 11.4 27.9 19.9 C27.9 25.5 34.9 60.4 36.9 68.5 C36.7 68.8 36.45 69.175 36.3 69.4 C31.6 69.2 27 68.9 22.3 68.9 C17.6 68.9 12.9 69.2 8.2 69.4 C8.03333 69.23333 7.825 69.025 7.7 68.9 C7.5 67.75 7.1 65.45 6.9 64.3 zM66.6 73.8 C64.5 78.175 60.3 86.925 58.2 91.3 C55.725 91.3 50.775 91.3 48.3 91.3 C44.325 86.925 36.375 78.175 32.4 73.8 C34.025 73.8 37.275 73.8 38.9 73.8 C42.125 76.05 48.575 80.55 51.8 82.8 C54.075 80.55 58.625 76.05 60.9 73.8 C62.325 73.8 65.175 73.8 66.6 73.8 z" />
<glyph unicode="" horiz-adv-x="83.3" d="M6.9 64.3 C7.025 64.175 7.275 63.925 7.4 63.8 C8.8 63.6 13 63.2 14.2 62.6 C15.3 62 15.7 61.6 15.7 60.4 C15.7 52.5 8.7 21.4 8.7 13.2 C8.7 4.3 15.4 -1.9 25 -1.9 C33.2 -1.9 40.7 0.6 51.7 10.5 C51.5 8.8 51.3 6.9 49.4 0.2 C49.7 -0.03333 50.075 -0.325 50.3 -0.5 C54.7 -0.3 59.2 0 63.6 0 C68 0 72.5 -0.3 76.9 -0.5 C77.06667 -0.33333 77.275 -0.125 77.4 0 C77.6 1.15 78 3.45 78.2 4.6 C78.075 4.725 77.825 4.975 77.7 5.1 C69.3 5.8 69.3 6.5 69.3 8 C69.3 11 75.2 44.1 77.4 56.3 C78.7 63 79 63 86.4 63.8 C86.56667 63.96667 86.775 64.175 86.9 64.3 C87.1 65.45 87.5 67.75 87.7 68.9 C87.575 69.025 87.325 69.275 87.2 69.4 C81.4 69.2 75.5 68.9 69.7 68.9 C63.9 68.9 58 69.2 52.2 69.4 C52.03333 69.23333 51.825 69.025 51.7 68.9 C51.5 67.75 51.1 65.45 50.9 64.3 C51.025 64.175 51.275 63.925 51.4 63.8 C58.5 62.7 59.3 62.7 59.3 59.9 C59.3 58.6 58.8 55.6 58.3 52.4 C56.36667 41.13333 53.95 27.05 52.5 18.6 C51.4 17.5 43.2 10.8 36.5 10.8 C34.5 10.8 27.9 11.4 27.9 19.9 C27.9 25.5 34.9 60.4 36.9 68.5 C36.7 68.8 36.45 69.175 36.3 69.4 C31.6 69.2 27 68.9 22.3 68.9 C17.6 68.9 12.9 69.2 8.2 69.4 C8.03333 69.23333 7.825 69.025 7.7 68.9 C7.5 67.75 7.1 65.45 6.9 64.3 zM53.5 81.6 C53.5 77.6 56.7 74.4 60.7 74.4 C64.7 74.4 67.9 77.6 67.9 81.6 C67.9 85.6 64.7 88.8 60.7 88.8 C56.7 88.8 53.5 85.6 53.5 81.6 zM32 81.6 C32 77.6 35.2 74.4 39.2 74.4 C43.2 74.4 46.4 77.6 46.4 81.6 C46.4 85.6 43.2 88.8 39.2 88.8 C35.2 88.8 32 85.6 32 81.6 z" />
<glyph unicode="" horiz-adv-x="74.1" d="M15.4 0 C15.525 -0.125 15.775 -0.375 15.9 -0.5 C22 -0.3 28.1 0 34.2 0 C40.3 0 46.3 -0.3 52.4 -0.5 C52.56667 -0.33333 52.775 -0.125 52.9 0 C53.1 1.15 53.5 3.45 53.7 4.6 C53.575 4.725 53.325 4.975 53.2 5.1 C46 5.6 44.8 5.6 44.8 7.6 C44.8 10.1 46.4 25.9 51.2 34.7 C54 39.8 64.2 56.7 73.1 56.7 C73.9 56.7 74.8 56.5 75.6 56.3 C76.76667 60.66667 78.225 66.125 79.1 69.4 C78.3 69.6 77.2 69.8 76.3 69.8 C65 69.8 54.1 54.1 45.7 34.8 C45.63333 34.8 45.55 34.8 45.5 34.8 C44.3 46.9 39.8 70.4 24 70.4 C21.2 70.4 19.3 69.8 19.1 69.7 C18.5 69.4 11.7 65.1 4.7 61.2 C4.6 61.03333 4.475 60.825 4.4 60.7 C4.7 59.875 5.3 58.225 5.6 57.4 C5.7 57.325 5.9 57.175 6 57.1 C6.9 57.5 9.5 58.4 12 58.4 C17 58.4 19.9 56 23.7 45.9 C24.9 42.7 28.8 29.9 28.8 25.5 C28.8 23.9 28.8 23.7 28 19.8 C27.43333 16.9 26.725 13.275 26.3 11.1 C25.3 5.8 24.8 5.8 16.7 5.1 C16.53333 4.93333 16.325 4.725 16.2 4.6 C16 3.45 15.6 1.15 15.4 0 zM45 73.8 C48.5 75.675 55.5 79.425 59 81.3 C61.6 82.6 64.4 84.2 64.4 87.1 C64.4 90.3 60.9 92.2 58.9 92.2 C57.3 92.2 55.6 91.5 52.5 88.2 C48.16667 83.4 42.75 77.4 39.5 73.8 C40.875 73.8 43.625 73.8 45 73.8 z" />
<glyph unicode="" horiz-adv-x="70.4" d="M8.3 64.3 C8.425 64.175 8.675 63.925 8.8 63.8 C15.7 63.3 17.1 62.5 17.1 60.8 C17.1 55 9.8 14.7 8.3 9.2 C7.4 6.1 6.4 5.6 0.2 5.1 C0.03333 4.93333 -0.175 4.725 -0.3 4.6 C-0.5 3.45 -0.9 1.15 -1.1 0 C-0.975 -0.125 -0.725 -0.375 -0.6 -0.5 C4.7 -0.3 11 0 17.2 0 C23.5 0 29.8 -0.3 36.1 -0.5 C36.26667 -0.33333 36.475 -0.125 36.6 0 C36.8 1.15 37.2 3.45 37.4 4.6 C37.275 4.725 37.025 4.975 36.9 5.1 C28.1 5.6 27.4 5.9 27.4 8.7 C27.4 13.5 32.3 40.1 34.2 48.8 C35.6 49 37.1 49.1 38.2 49.1 C43.2 49.1 49.5 48.1 49.5 38 C49.5 30.6 46.5 21.2 38.2 21.2 C35.9 21.2 34.9 21.6 33.4 22.2 C32.96667 21.83333 32.425 21.375 32.1 21.1 C32.525 19.825 33.375 17.275 33.8 16 C37.5 14.9 39.2 14.4 43.2 14.4 C63 14.4 69.4 29.6 69.4 38.8 C69.4 54.4 55.5 55.6 44.6 55.6 C43.1 55.6 38.9 55.5 35.4 55.3 C35.9 58.2 36 58.7 36.1 59 C37.4 62.9 37.7 63.3 44.9 63.8 C45.06667 63.96667 45.275 64.175 45.4 64.3 C45.6 65.45 46 67.75 46.2 68.9 C46.075 69.025 45.825 69.275 45.7 69.4 C39.7 69.2 33.7 68.9 27.7 68.9 C21.7 68.9 15.6 69.2 9.6 69.4 C9.43333 69.23333 9.225 69.025 9.1 68.9 C8.9 67.75 8.5 65.45 8.3 64.3 z" />
<glyph unicode="" horiz-adv-x="61.1" d="M28.5 12.8 C28.375 12.675 28.125 12.425 28 12.3 C27.2 8 26.5 3.8 25.3 0.7 C27.2 -0.3 29.4 -1.4 34.9 -1.4 C47.3 -1.4 57.5 12.3 57.5 20.6 C57.5 31 46.3 37.7 46.3 42.2 C46.3 45.8 59.1 52.4 59.1 61.8 C59.1 64.8 57.5 73.6 45.6 73.6 C34 73.6 25.4 66.8 24.5 66.1 C17.4 60.6 15.3 54.3 13.3 45.7 C9.93333 44.33333 5.725 42.625 3.2 41.6 C3.075 41.475 2.825 41.225 2.7 41.1 C2.55 40.525 2.25 39.375 2.1 38.8 C2.225 38.675 2.475 38.425 2.6 38.3 C6.3 38.4 10.7 38.7 12.2 38.7 C9.76667 24.46667 6.725 6.675 4.9 -4 C2.4 -18.6 -0.2 -20.2 -2.4 -20.2 C-6.1 -20.2 -8 -16.9 -10.1 -14.3 C-10.7 -14.46667 -11.45 -14.675 -11.9 -14.8 C-12.4 -19.8 -13.2 -23.4 -14.3 -26.8 C-13.2 -27.2 -11.1 -27.6 -8.9 -27.6 C0.2 -27.6 7.9 -21 12.7 -14.1 C17.8 -7 19.5 1.3 22.3 14.9 C24.56667 25.96667 27.4 39.8 29.1 48.1 C31.6 60.2 33.2 67.5 40.4 67.5 C47.4 67.5 47.6 59.5 47.6 58.4 C47.6 45.5 33.8 42.1 33.8 33.6 C33.8 25.9 45.6 18.7 45.6 11.1 C45.6 8.2 43.5 5.1 39.2 5.1 C36.6 5.1 33.5 6.1 31.8 8.3 C31.8 9.63333 31.8 11.3 31.8 12.3 C31.675 12.425 31.425 12.675 31.3 12.8 C30.6 12.8 29.2 12.8 28.5 12.8 z" />
<glyph unicode="" horiz-adv-x="57.4" d="M46.6 46.3 C42.3 47.9 39.9 48.8 35.9 48.8 C25.5 48.8 17.2 43.3 11.2 37.4 C8.6 34.9 5.3 29.3 2.8 17.8 C1.5 11.9 1.5 8.5 1.5 7.1 C1.5 4.8 1.5 -1.4 8.3 -1.4 C15.2 -1.4 23.6 5 30.8 13.8 C30.86667 13.8 30.95 13.8 31 13.8 C30.6 11.6 29.5 6.4 29.5 3.7 C29.5 2.3 29.5 -1.4 34.1 -1.4 C38 -1.4 41.6 0.6 51 6.2 C52.6 7.13333 54.6 8.3 55.8 9 C55.8 9.15 55.8 9.45 55.8 9.6 C55.425 10.4 54.675 12 54.3 12.8 C54.15 12.825 53.85 12.875 53.7 12.9 C50.6 11.2 47.6 9.1 46.4 9.1 C45.4 9.1 45.1 9.8 45.1 10.7 C45.1 12.4 48.4 28.3 54.1 47.9 C53.46667 48.2 52.675 48.575 52.2 48.8 C50.8 48.175 48 46.925 46.6 46.3 zM30.7 41.5 C32.8 41.5 35.1 40.9 36.8 40.4 C36.6 37.1 31.9 16 21.2 10 C20.8 9.8 20 9.3 19.3 9.3 C18.4 9.3 17.6 10 17.6 11.7 C17.6 15.2 18.7 19.9 20.1 25.9 C22.1 34.6 24.4 38.4 25.7 39.7 C26.9 40.9 28.1 41.5 30.7 41.5 zM40.8 53.9 C42.05 53.9 44.55 53.9 45.8 53.9 C43.125 57.6 37.775 65 35.1 68.7 C33.5 70.9 31.7 72.3 29.3 72.3 C26.7 72.3 23.8 70.7 23.8 67.7 C23.8 66.6 23.8 64.6 27.5 62.3 C31.93333 59.5 37.475 56 40.8 53.9 z" />
<glyph unicode="" horiz-adv-x="57.4" d="M46.6 46.3 C42.3 47.9 39.9 48.8 35.9 48.8 C25.5 48.8 17.2 43.3 11.2 37.4 C8.6 34.9 5.3 29.3 2.8 17.8 C1.5 11.9 1.5 8.5 1.5 7.1 C1.5 4.8 1.5 -1.4 8.3 -1.4 C15.2 -1.4 23.6 5 30.8 13.8 C30.86667 13.8 30.95 13.8 31 13.8 C30.6 11.6 29.5 6.4 29.5 3.7 C29.5 2.3 29.5 -1.4 34.1 -1.4 C38 -1.4 41.6 0.6 51 6.2 C52.6 7.13333 54.6 8.3 55.8 9 C55.8 9.15 55.8 9.45 55.8 9.6 C55.425 10.4 54.675 12 54.3 12.8 C54.15 12.825 53.85 12.875 53.7 12.9 C50.6 11.2 47.6 9.1 46.4 9.1 C45.4 9.1 45.1 9.8 45.1 10.7 C45.1 12.4 48.4 28.3 54.1 47.9 C53.46667 48.2 52.675 48.575 52.2 48.8 C50.8 48.175 48 46.925 46.6 46.3 zM30.7 41.5 C32.8 41.5 35.1 40.9 36.8 40.4 C36.6 37.1 31.9 16 21.2 10 C20.8 9.8 20 9.3 19.3 9.3 C18.4 9.3 17.6 10 17.6 11.7 C17.6 15.2 18.7 19.9 20.1 25.9 C22.1 34.6 24.4 38.4 25.7 39.7 C26.9 40.9 28.1 41.5 30.7 41.5 zM34.2 53.9 C37.7 55.775 44.7 59.525 48.2 61.4 C50.8 62.7 53.6 64.3 53.6 67.2 C53.6 70.4 50.1 72.3 48.1 72.3 C46.5 72.3 44.8 71.6 41.7 68.3 C37.36667 63.5 31.95 57.5 28.7 53.9 C30.075 53.9 32.825 53.9 34.2 53.9 z" />
<glyph unicode="" horiz-adv-x="57.4" d="M46.6 46.3 C42.3 47.9 39.9 48.8 35.9 48.8 C25.5 48.8 17.2 43.3 11.2 37.4 C8.6 34.9 5.3 29.3 2.8 17.8 C1.5 11.9 1.5 8.5 1.5 7.1 C1.5 4.8 1.5 -1.4 8.3 -1.4 C15.2 -1.4 23.6 5 30.8 13.8 C30.86667 13.8 30.95 13.8 31 13.8 C30.6 11.6 29.5 6.4 29.5 3.7 C29.5 2.3 29.5 -1.4 34.1 -1.4 C38 -1.4 41.6 0.6 51 6.2 C52.6 7.13333 54.6 8.3 55.8 9 C55.8 9.15 55.8 9.45 55.8 9.6 C55.425 10.4 54.675 12 54.3 12.8 C54.15 12.825 53.85 12.875 53.7 12.9 C50.6 11.2 47.6 9.1 46.4 9.1 C45.4 9.1 45.1 9.8 45.1 10.7 C45.1 12.4 48.4 28.3 54.1 47.9 C53.46667 48.2 52.675 48.575 52.2 48.8 C50.8 48.175 48 46.925 46.6 46.3 zM30.7 41.5 C32.8 41.5 35.1 40.9 36.8 40.4 C36.6 37.1 31.9 16 21.2 10 C20.8 9.8 20 9.3 19.3 9.3 C18.4 9.3 17.6 10 17.6 11.7 C17.6 15.2 18.7 19.9 20.1 25.9 C22.1 34.6 24.4 38.4 25.7 39.7 C26.9 40.9 28.1 41.5 30.7 41.5 zM53.6 53.9 C51.5 58.275 47.3 67.025 45.2 71.4 C42.725 71.4 37.775 71.4 35.3 71.4 C31.325 67.025 23.375 58.275 19.4 53.9 C21.025 53.9 24.275 53.9 25.9 53.9 C29.125 56.15 35.575 60.65 38.8 62.9 C41.075 60.65 45.625 56.15 47.9 53.9 C49.325 53.9 52.175 53.9 53.6 53.9 z" />
<glyph unicode="" horiz-adv-x="57.4" d="M46.6 46.3 C42.3 47.9 39.9 48.8 35.9 48.8 C25.5 48.8 17.2 43.3 11.2 37.4 C8.6 34.9 5.3 29.3 2.8 17.8 C1.5 11.9 1.5 8.5 1.5 7.1 C1.5 4.8 1.5 -1.4 8.3 -1.4 C15.2 -1.4 23.6 5 30.8 13.8 C30.86667 13.8 30.95 13.8 31 13.8 C30.6 11.6 29.5 6.4 29.5 3.7 C29.5 2.3 29.5 -1.4 34.1 -1.4 C38 -1.4 41.6 0.6 51 6.2 C52.6 7.13333 54.6 8.3 55.8 9 C55.8 9.15 55.8 9.45 55.8 9.6 C55.425 10.4 54.675 12 54.3 12.8 C54.15 12.825 53.85 12.875 53.7 12.9 C50.6 11.2 47.6 9.1 46.4 9.1 C45.4 9.1 45.1 9.8 45.1 10.7 C45.1 12.4 48.4 28.3 54.1 47.9 C53.46667 48.2 52.675 48.575 52.2 48.8 C50.8 48.175 48 46.925 46.6 46.3 zM30.7 41.5 C32.8 41.5 35.1 40.9 36.8 40.4 C36.6 37.1 31.9 16 21.2 10 C20.8 9.8 20 9.3 19.3 9.3 C18.4 9.3 17.6 10 17.6 11.7 C17.6 15.2 18.7 19.9 20.1 25.9 C22.1 34.6 24.4 38.4 25.7 39.7 C26.9 40.9 28.1 41.5 30.7 41.5 zM23.8 55.9 C24.3 57.3 25.3 59.9 29 59.9 C32.9 59.9 38 55.8 43.7 55.8 C52.9 55.8 56.3 64.7 56.7 68.4 C55.23333 68.4 53.4 68.4 52.3 68.4 C51.2 66.4 50 64.1 46.9 64.1 C44.2 64.1 36.7 68.3 32.3 68.3 C25.8 68.3 21 62.5 19.4 55.9 C20.86667 55.9 22.7 55.9 23.8 55.9 z" />
<glyph unicode="" horiz-adv-x="57.4" d="M46.6 46.3 C42.3 47.9 39.9 48.8 35.9 48.8 C25.5 48.8 17.2 43.3 11.2 37.4 C8.6 34.9 5.3 29.3 2.8 17.8 C1.5 11.9 1.5 8.5 1.5 7.1 C1.5 4.8 1.5 -1.4 8.3 -1.4 C15.2 -1.4 23.6 5 30.8 13.8 C30.86667 13.8 30.95 13.8 31 13.8 C30.6 11.6 29.5 6.4 29.5 3.7 C29.5 2.3 29.5 -1.4 34.1 -1.4 C38 -1.4 41.6 0.6 51 6.2 C52.6 7.13333 54.6 8.3 55.8 9 C55.8 9.15 55.8 9.45 55.8 9.6 C55.425 10.4 54.675 12 54.3 12.8 C54.15 12.825 53.85 12.875 53.7 12.9 C50.6 11.2 47.6 9.1 46.4 9.1 C45.4 9.1 45.1 9.8 45.1 10.7 C45.1 12.4 48.4 28.3 54.1 47.9 C53.46667 48.2 52.675 48.575 52.2 48.8 C50.8 48.175 48 46.925 46.6 46.3 zM30.7 41.5 C32.8 41.5 35.1 40.9 36.8 40.4 C36.6 37.1 31.9 16 21.2 10 C20.8 9.8 20 9.3 19.3 9.3 C18.4 9.3 17.6 10 17.6 11.7 C17.6 15.2 18.7 19.9 20.1 25.9 C22.1 34.6 24.4 38.4 25.7 39.7 C26.9 40.9 28.1 41.5 30.7 41.5 zM41.3 61.7 C41.3 57.7 44.5 54.5 48.5 54.5 C52.5 54.5 55.7 57.7 55.7 61.7 C55.7 65.7 52.5 68.9 48.5 68.9 C44.5 68.9 41.3 65.7 41.3 61.7 zM19.8 61.7 C19.8 57.7 23 54.5 27 54.5 C31 54.5 34.2 57.7 34.2 61.7 C34.2 65.7 31 68.9 27 68.9 C23 68.9 19.8 65.7 19.8 61.7 z" />
<glyph unicode="" horiz-adv-x="57.4" d="M46.6 46.3 C42.3 47.9 39.9 48.8 35.9 48.8 C25.5 48.8 17.2 43.3 11.2 37.4 C8.6 34.9 5.3 29.3 2.8 17.8 C1.5 11.9 1.5 8.5 1.5 7.1 C1.5 4.8 1.5 -1.4 8.3 -1.4 C15.2 -1.4 23.6 5 30.8 13.8 C30.86667 13.8 30.95 13.8 31 13.8 C30.6 11.6 29.5 6.4 29.5 3.7 C29.5 2.3 29.5 -1.4 34.1 -1.4 C38 -1.4 41.6 0.6 51 6.2 C52.6 7.13333 54.6 8.3 55.8 9 C55.8 9.15 55.8 9.45 55.8 9.6 C55.425 10.4 54.675 12 54.3 12.8 C54.15 12.825 53.85 12.875 53.7 12.9 C50.6 11.2 47.6 9.1 46.4 9.1 C45.4 9.1 45.1 9.8 45.1 10.7 C45.1 12.4 48.4 28.3 54.1 47.9 C53.46667 48.2 52.675 48.575 52.2 48.8 C50.8 48.175 48 46.925 46.6 46.3 zM30.7 41.5 C32.8 41.5 35.1 40.9 36.8 40.4 C36.6 37.1 31.9 16 21.2 10 C20.8 9.8 20 9.3 19.3 9.3 C18.4 9.3 17.6 10 17.6 11.7 C17.6 15.2 18.7 19.9 20.1 25.9 C22.1 34.6 24.4 38.4 25.7 39.7 C26.9 40.9 28.1 41.5 30.7 41.5 zM26.6 62.9 C26.6 57 31.4 52.2 37.3 52.2 C43.2 52.2 48 57 48 62.9 C48 68.8 43.2 73.6 37.3 73.6 C31.4 73.6 26.6 68.8 26.6 62.9 zM31.8 62.9 C31.8 65.9 34.3 68.4 37.3 68.4 C40.3 68.4 42.8 65.9 42.8 62.9 C42.8 59.9 40.3 57.4 37.3 57.4 C34.3 57.4 31.8 59.9 31.8 62.9 z" />
<glyph unicode="" horiz-adv-x="75.9" d="M68.1 13.4 C67.95 13.4 67.65 13.4 67.5 13.4 C61.5 9.7 56.6 6.8 51.7 6.8 C45 6.8 44 11.8 44 15.1 C44 17.1 44.5 19.4 44.9 21.7 C48.2 22 56.2 22.6 61.7 24.7 C74.3 29.5 75.1 38.1 75.1 39.9 C75.1 48.8 63.8 48.8 62.2 48.8 C52.3 48.8 47.4 44 43.5 40.3 C40.5 47.1 34.7 48.8 27.7 48.8 C21.5 48.8 20.2 48.1 9.5 42.3 C9.26667 39.6 8.975 36.225 8.8 34.2 C8.9 34.05 9.1 33.75 9.2 33.6 C10.1 33.475 11.9 33.225 12.8 33.1 C12.975 33.2 13.325 33.4 13.5 33.5 C14.175 35.175 15.525 38.525 16.2 40.2 C17 40.8 19.1 41.3 21.2 41.3 C31.9 41.3 31.9 35.4 31.9 32.7 C31.9 31.1 31.7 29.4 31.5 27.7 C27.8 27.36667 23.175 26.95 20.4 26.7 C14.2 26.1 1.5 23.2 1.5 10 C1.5 6.3 3.4 -1.4 14 -1.4 C22.2 -1.4 27.4 3.7 31.1 7.2 C33.5 0.9 37.8 -1.4 44.5 -1.4 C56.1 -1.4 64.8 4.9 70.2 8.7 C70.2 8.93333 70.2 9.225 70.2 9.4 C69.675 10.4 68.625 12.4 68.1 13.4 zM16.8 11.1 C16.8 22.1 26.1 22.3 30.6 22.4 C30.26667 20.73333 29.85 18.65 29.6 17.4 C28 9.2 24.8 6.4 21.2 6.4 C18.1 6.4 16.8 8.5 16.8 11.1 zM51.2 27.2 C49.8 27 47.6 26.7 45.8 26.6 C48 35.3 50.1 43.6 57 43.6 C59.7 43.6 60.8 41.6 60.8 39.2 C60.8 34.5 57.3 28.2 51.2 27.2 z" />
<glyph unicode="" horiz-adv-x="46.3" d="M10.9 -9.3 C11.3 -9.725 12.1 -10.575 12.5 -11 C13.5 -10.8 14.6 -10.6 15.7 -10.6 C18.8 -10.6 19.9 -12 19.9 -14.2 C19.9 -15.3 19.9 -18.2 14.6 -18.2 C12 -18.2 10.1 -17.4 7.8 -16.5 C7.63333 -16.6 7.425 -16.725 7.3 -16.8 C6.9 -17.4 6.1 -18.6 5.7 -19.2 C5.75 -19.325 5.85 -19.575 5.9 -19.7 C9.6 -21.8 12 -22.5 16.6 -22.5 C26.2 -22.5 29.9 -17.3 29.9 -13.8 C29.9 -9.6 26.5 -6.3 20.2 -6.3 C19.1 -6.3 18.5 -6.5 17.5 -6.7 C18.96667 -4.8 20.8 -2.425 21.9 -1 C30.1 0.1 37 4.8 42.6 8.4 C42.6 8.7 42.6 9.075 42.6 9.3 C42 10.275 40.8 12.225 40.2 13.2 C40.05 13.2 39.75 13.2 39.6 13.2 C32.8 8 29.1 7.7 26.3 7.7 C18.5 7.7 18.5 15 18.5 18 C18.5 23.3 19.8 28.5 21.6 33.4 C24 39.7 25.8 42.1 30.1 42.1 C33.3 42.1 36.8 40.8 39.1 39.3 C39.2 37.2 39.325 34.575 39.4 33 C39.525 32.875 39.775 32.625 39.9 32.5 C40.725 32.5 42.375 32.5 43.2 32.5 C43.325 32.625 43.575 32.875 43.7 33 C44.3 36.4 45.5 43.2 46.1 46.6 C45.975 46.725 45.725 46.975 45.6 47.1 C43 48.2 38.1 48.8 35.5 48.8 C25.3 48.8 14.9 42.1 11 38.7 C9 37 2 28.9 2 15.9 C2 2 10.8 -1.1 16.8 -1.4 C14.83333 -4.03333 12.375 -7.325 10.9 -9.3 z" />
<glyph unicode="" horiz-adv-x="50" d="M42.2 13.4 C42.05 13.4 41.75 13.4 41.6 13.4 C35.6 9.7 30.7 6.8 25.8 6.8 C19.1 6.8 18.1 11.8 18.1 15.1 C18.1 16.9 18.4 18.1 18.8 19.9 C26.2 21.3 49 25.7 49 39.4 C49 48.8 38.6 48.8 36 48.8 C24.5 48.8 15.7 43.1 10.8 38.4 C6.9 34.7 1.9 26.1 1.9 14.7 C1.9 4 8 -1.4 17.8 -1.4 C30.2 -1.4 38.9 4.9 44.3 8.7 C44.3 8.93333 44.3 9.225 44.3 9.4 C43.775 10.4 42.725 12.4 42.2 13.4 zM30.4 29.6 C27.5 26.4 23.5 25.5 19.4 24.5 C20.5 29.7 23.6 43.6 30.9 43.6 C32.8 43.6 34.8 42.3 34.8 39.1 C34.8 37.3 34 33.4 30.4 29.6 zM37.1 53.9 C38.35 53.9 40.85 53.9 42.1 53.9 C39.425 57.6 34.075 65 31.4 68.7 C29.8 70.9 28 72.3 25.6 72.3 C23 72.3 20.1 70.7 20.1 67.7 C20.1 66.6 20.1 64.6 23.8 62.3 C28.23333 59.5 33.775 56 37.1 53.9 z" />
<glyph unicode="" horiz-adv-x="50" d="M42.2 13.4 C42.05 13.4 41.75 13.4 41.6 13.4 C35.6 9.7 30.7 6.8 25.8 6.8 C19.1 6.8 18.1 11.8 18.1 15.1 C18.1 16.9 18.4 18.1 18.8 19.9 C26.2 21.3 49 25.7 49 39.4 C49 48.8 38.6 48.8 36 48.8 C24.5 48.8 15.7 43.1 10.8 38.4 C6.9 34.7 1.9 26.1 1.9 14.7 C1.9 4 8 -1.4 17.8 -1.4 C30.2 -1.4 38.9 4.9 44.3 8.7 C44.3 8.93333 44.3 9.225 44.3 9.4 C43.775 10.4 42.725 12.4 42.2 13.4 zM30.4 29.6 C27.5 26.4 23.5 25.5 19.4 24.5 C20.5 29.7 23.6 43.6 30.9 43.6 C32.8 43.6 34.8 42.3 34.8 39.1 C34.8 37.3 34 33.4 30.4 29.6 zM30.5 53.9 C34 55.775 41 59.525 44.5 61.4 C47.1 62.7 49.9 64.3 49.9 67.2 C49.9 70.4 46.4 72.3 44.4 72.3 C42.8 72.3 41.1 71.6 38 68.3 C33.66667 63.5 28.25 57.5 25 53.9 C26.375 53.9 29.125 53.9 30.5 53.9 z" />
<glyph unicode="" horiz-adv-x="50" d="M42.2 13.4 C42.05 13.4 41.75 13.4 41.6 13.4 C35.6 9.7 30.7 6.8 25.8 6.8 C19.1 6.8 18.1 11.8 18.1 15.1 C18.1 16.9 18.4 18.1 18.8 19.9 C26.2 21.3 49 25.7 49 39.4 C49 48.8 38.6 48.8 36 48.8 C24.5 48.8 15.7 43.1 10.8 38.4 C6.9 34.7 1.9 26.1 1.9 14.7 C1.9 4 8 -1.4 17.8 -1.4 C30.2 -1.4 38.9 4.9 44.3 8.7 C44.3 8.93333 44.3 9.225 44.3 9.4 C43.775 10.4 42.725 12.4 42.2 13.4 zM30.4 29.6 C27.5 26.4 23.5 25.5 19.4 24.5 C20.5 29.7 23.6 43.6 30.9 43.6 C32.8 43.6 34.8 42.3 34.8 39.1 C34.8 37.3 34 33.4 30.4 29.6 zM49.9 53.9 C47.8 58.275 43.6 67.025 41.5 71.4 C39.025 71.4 34.075 71.4 31.6 71.4 C27.625 67.025 19.675 58.275 15.7 53.9 C17.325 53.9 20.575 53.9 22.2 53.9 C25.425 56.15 31.875 60.65 35.1 62.9 C37.375 60.65 41.925 56.15 44.2 53.9 C45.625 53.9 48.475 53.9 49.9 53.9 z" />
<glyph unicode="" horiz-adv-x="50" d="M42.2 13.4 C42.05 13.4 41.75 13.4 41.6 13.4 C35.6 9.7 30.7 6.8 25.8 6.8 C19.1 6.8 18.1 11.8 18.1 15.1 C18.1 16.9 18.4 18.1 18.8 19.9 C26.2 21.3 49 25.7 49 39.4 C49 48.8 38.6 48.8 36 48.8 C24.5 48.8 15.7 43.1 10.8 38.4 C6.9 34.7 1.9 26.1 1.9 14.7 C1.9 4 8 -1.4 17.8 -1.4 C30.2 -1.4 38.9 4.9 44.3 8.7 C44.3 8.93333 44.3 9.225 44.3 9.4 C43.775 10.4 42.725 12.4 42.2 13.4 zM30.4 29.6 C27.5 26.4 23.5 25.5 19.4 24.5 C20.5 29.7 23.6 43.6 30.9 43.6 C32.8 43.6 34.8 42.3 34.8 39.1 C34.8 37.3 34 33.4 30.4 29.6 zM37.6 61.7 C37.6 57.7 40.8 54.5 44.8 54.5 C48.8 54.5 52 57.7 52 61.7 C52 65.7 48.8 68.9 44.8 68.9 C40.8 68.9 37.6 65.7 37.6 61.7 zM16.1 61.7 C16.1 57.7 19.3 54.5 23.3 54.5 C27.3 54.5 30.5 57.7 30.5 61.7 C30.5 65.7 27.3 68.9 23.3 68.9 C19.3 68.9 16.1 65.7 16.1 61.7 z" />
<glyph unicode="" horiz-adv-x="35.2" d="M31.4 13 C31.275 13 31.025 13 30.9 13 C28 10.9 25 9 23.7 9 C22.8 9 22.3 9.6 22.3 10.6 C22.3 15.2 29.7 37.2 29.7 43.4 C29.7 47 28.1 48.8 24.9 48.8 C20.8 48.8 14.7 45.6 2.6 36.1 C2.53333 35.9 2.45 35.65 2.4 35.5 C2.75 34.725 3.45 33.175 3.8 32.4 C3.925 32.4 4.175 32.4 4.3 32.4 C8.8 35.7 10.2 36.8 11.1 36.8 C11.9 36.8 12.3 36 12.3 34.7 C12.3 30.1 5.7 11.7 5.7 3.8 C5.7 1 7.3 -1.4 10.7 -1.4 C15.7 -1.4 22 2.7 32.8 9.3 C32.8 9.5 32.8 9.75 32.8 9.9 C32.45 10.675 31.75 12.225 31.4 13 zM27.7 53.9 C28.95 53.9 31.45 53.9 32.7 53.9 C30.025 57.6 24.675 65 22 68.7 C20.4 70.9 18.6 72.3 16.2 72.3 C13.6 72.3 10.7 70.7 10.7 67.7 C10.7 66.6 10.7 64.6 14.4 62.3 C18.83333 59.5 24.375 56 27.7 53.9 z" />
<glyph unicode="" horiz-adv-x="35.2" d="M31.4 13 C31.275 13 31.025 13 30.9 13 C28 10.9 25 9 23.7 9 C22.8 9 22.3 9.6 22.3 10.6 C22.3 15.2 29.7 37.2 29.7 43.4 C29.7 47 28.1 48.8 24.9 48.8 C20.8 48.8 14.7 45.6 2.6 36.1 C2.53333 35.9 2.45 35.65 2.4 35.5 C2.75 34.725 3.45 33.175 3.8 32.4 C3.925 32.4 4.175 32.4 4.3 32.4 C8.8 35.7 10.2 36.8 11.1 36.8 C11.9 36.8 12.3 36 12.3 34.7 C12.3 30.1 5.7 11.7 5.7 3.8 C5.7 1 7.3 -1.4 10.7 -1.4 C15.7 -1.4 22 2.7 32.8 9.3 C32.8 9.5 32.8 9.75 32.8 9.9 C32.45 10.675 31.75 12.225 31.4 13 zM21.1 53.9 C24.6 55.775 31.6 59.525 35.1 61.4 C37.7 62.7 40.5 64.3 40.5 67.2 C40.5 70.4 37 72.3 35 72.3 C33.4 72.3 31.7 71.6 28.6 68.3 C24.26667 63.5 18.85 57.5 15.6 53.9 C16.975 53.9 19.725 53.9 21.1 53.9 z" />
<glyph unicode="" horiz-adv-x="35.2" d="M31.4 13 C31.275 13 31.025 13 30.9 13 C28 10.9 25 9 23.7 9 C22.8 9 22.3 9.6 22.3 10.6 C22.3 15.2 29.7 37.2 29.7 43.4 C29.7 47 28.1 48.8 24.9 48.8 C20.8 48.8 14.7 45.6 2.6 36.1 C2.53333 35.9 2.45 35.65 2.4 35.5 C2.75 34.725 3.45 33.175 3.8 32.4 C3.925 32.4 4.175 32.4 4.3 32.4 C8.8 35.7 10.2 36.8 11.1 36.8 C11.9 36.8 12.3 36 12.3 34.7 C12.3 30.1 5.7 11.7 5.7 3.8 C5.7 1 7.3 -1.4 10.7 -1.4 C15.7 -1.4 22 2.7 32.8 9.3 C32.8 9.5 32.8 9.75 32.8 9.9 C32.45 10.675 31.75 12.225 31.4 13 zM40.5 53.9 C38.4 58.275 34.2 67.025 32.1 71.4 C29.625 71.4 24.675 71.4 22.2 71.4 C18.225 67.025 10.275 58.275 6.3 53.9 C7.925 53.9 11.175 53.9 12.8 53.9 C16.025 56.15 22.475 60.65 25.7 62.9 C27.975 60.65 32.525 56.15 34.8 53.9 C36.225 53.9 39.075 53.9 40.5 53.9 z" />
<glyph unicode="" horiz-adv-x="35.2" d="M31.4 13 C31.275 13 31.025 13 30.9 13 C28 10.9 25 9 23.7 9 C22.8 9 22.3 9.6 22.3 10.6 C22.3 15.2 29.7 37.2 29.7 43.4 C29.7 47 28.1 48.8 24.9 48.8 C20.8 48.8 14.7 45.6 2.6 36.1 C2.53333 35.9 2.45 35.65 2.4 35.5 C2.75 34.725 3.45 33.175 3.8 32.4 C3.925 32.4 4.175 32.4 4.3 32.4 C8.8 35.7 10.2 36.8 11.1 36.8 C11.9 36.8 12.3 36 12.3 34.7 C12.3 30.1 5.7 11.7 5.7 3.8 C5.7 1 7.3 -1.4 10.7 -1.4 C15.7 -1.4 22 2.7 32.8 9.3 C32.8 9.5 32.8 9.75 32.8 9.9 C32.45 10.675 31.75 12.225 31.4 13 zM28.2 61.7 C28.2 57.7 31.4 54.5 35.4 54.5 C39.4 54.5 42.6 57.7 42.6 61.7 C42.6 65.7 39.4 68.9 35.4 68.9 C31.4 68.9 28.2 65.7 28.2 61.7 zM6.7 61.7 C6.7 57.7 9.9 54.5 13.9 54.5 C17.9 54.5 21.1 57.7 21.1 61.7 C21.1 65.7 17.9 68.9 13.9 68.9 C9.9 68.9 6.7 65.7 6.7 61.7 z" />
<glyph unicode="" horiz-adv-x="57.4" d="M26.3 3.4 C20.9 3.4 19.7 7.4 19.7 12.9 C19.7 17.6 20.8 23.7 22.5 30.3 C24.4 37.6 27.3 41.6 32.2 41.6 C37.5 41.6 38 36.7 38 33 C38 29.4 37.2 24.3 36.6 21 C35.6 15.7 34.2 3.4 26.3 3.4 zM13.6 56.3 C13.6 56.15 13.6 55.85 13.6 55.7 C14.275 54.75 15.625 52.85 16.3 51.9 C16.475 51.9 16.825 51.9 17 51.9 C20.55 53.45 27.65 56.55 31.2 58.1 C35.7 53.6 39.2 48.4 40.1 43.8 C40.03333 43.73333 39.95 43.65 39.9 43.6 C38.1 45.4 35.3 46.4 31.3 46.4 C15.6 46.4 3 34 3 18 C3 7.2 8.3 -1.4 23.3 -1.4 C49.8 -1.4 54.6 19.2 54.6 29.8 C54.6 44.6 49.4 54.8 40.9 62.3 C44.53333 63.9 49.075 65.9 51.8 67.1 C51.8 67.275 51.8 67.625 51.8 67.8 C51.125 68.725 49.775 70.575 49.1 71.5 C48.925 71.5 48.575 71.5 48.4 71.5 C45.3 70.15 39.1 67.45 36 66.1 C31.9 68.9 27.2 71.4 22 73.6 C19.73333 72.36667 16.9 70.825 15.2 69.9 C15.2 69.75 15.2 69.45 15.2 69.3 C18.8 67.8 22.9 65.2 26.8 62.1 C22.4 60.16667 16.9 57.75 13.6 56.3 z" />
<glyph unicode="" horiz-adv-x="63" d="M3.1 32.4 C3.225 32.4 3.475 32.4 3.6 32.4 C7.4 35.5 9.3 36.8 10.3 36.8 C11.3 36.8 11.7 36.2 11.7 34.9 C11.7 34 8.4 13.1 3.5 -1.4 C3.73333 -1.56667 4.025 -1.775 4.2 -1.9 C9.6 -0.2 15.2 0.2 20.1 0.4 C21 10.5 23.5 18.7 26.7 24.4 C29.8 29.8 36.2 36.8 39.1 36.8 C40.1 36.8 40.5 36.2 40.5 35.2 C40.5 29.2 33.5 9.2 33.5 3.8 C33.5 1 35.1 -1.4 38.5 -1.4 C43.5 -1.4 49.8 2.7 60.6 9.3 C60.6 9.5 60.6 9.75 60.6 9.9 C60.25 10.675 59.55 12.225 59.2 13 C59.075 13 58.825 13 58.7 13 C55.8 10.9 52.8 9 51.5 9 C50.6 9 50.1 9.6 50.1 10.6 C50.1 14.8 57.5 35.5 57.5 42.4 C57.5 47.3 53.8 48.8 51 48.8 C44.8 48.8 35.5 43.4 26 30.9 C25.93333 30.96667 25.85 31.05 25.8 31.1 C27.6 38 28.7 42.6 28.7 44.7 C28.7 47.6 27 48.8 24.7 48.8 C21.1 48.8 13.9 45.1 1.9 36.1 C1.83333 35.9 1.75 35.65 1.7 35.5 C2.05 34.725 2.75 33.175 3.1 32.4 zM24.1 55.9 C24.6 57.3 25.6 59.9 29.3 59.9 C33.2 59.9 38.3 55.8 44 55.8 C53.2 55.8 56.6 64.7 57 68.4 C55.53333 68.4 53.7 68.4 52.6 68.4 C51.5 66.4 50.3 64.1 47.2 64.1 C44.5 64.1 37 68.3 32.6 68.3 C26.1 68.3 21.3 62.5 19.7 55.9 C21.16667 55.9 23 55.9 24.1 55.9 z" />
<glyph unicode="" horiz-adv-x="57.4" d="M36.6 22.2 C35.6 16.6 34.2 3.7 26.3 3.7 C20.9 3.7 19.7 7.9 19.7 13.7 C19.7 17.6 20.9 25.1 22.9 33.4 C24.6 40.2 26.9 44.2 32.2 44.2 C37.3 44.2 38.1 39.4 38.1 36 C38.1 32.1 37.3 26 36.6 22.2 zM54.6 31.1 C54.6 43.5 47.2 48.8 34.7 48.8 C30.4 48.8 23.2 48.8 15.2 42.9 C3.3 34.1 3 18.6 3 16.9 C3 7.7 8.3 -1.4 23.3 -1.4 C50.1 -1.4 54.6 21.4 54.6 31.1 zM38.8 53.9 C40.05 53.9 42.55 53.9 43.8 53.9 C41.125 57.6 35.775 65 33.1 68.7 C31.5 70.9 29.7 72.3 27.3 72.3 C24.7 72.3 21.8 70.7 21.8 67.7 C21.8 66.6 21.8 64.6 25.5 62.3 C29.93333 59.5 35.475 56 38.8 53.9 z" />
<glyph unicode="" horiz-adv-x="57.4" d="M36.6 22.2 C35.6 16.6 34.2 3.7 26.3 3.7 C20.9 3.7 19.7 7.9 19.7 13.7 C19.7 17.6 20.9 25.1 22.9 33.4 C24.6 40.2 26.9 44.2 32.2 44.2 C37.3 44.2 38.1 39.4 38.1 36 C38.1 32.1 37.3 26 36.6 22.2 zM54.6 31.1 C54.6 43.5 47.2 48.8 34.7 48.8 C30.4 48.8 23.2 48.8 15.2 42.9 C3.3 34.1 3 18.6 3 16.9 C3 7.7 8.3 -1.4 23.3 -1.4 C50.1 -1.4 54.6 21.4 54.6 31.1 zM32.2 53.9 C35.7 55.775 42.7 59.525 46.2 61.4 C48.8 62.7 51.6 64.3 51.6 67.2 C51.6 70.4 48.1 72.3 46.1 72.3 C44.5 72.3 42.8 71.6 39.7 68.3 C35.36667 63.5 29.95 57.5 26.7 53.9 C28.075 53.9 30.825 53.9 32.2 53.9 z" />
<glyph unicode="" horiz-adv-x="57.4" d="M36.6 22.2 C35.6 16.6 34.2 3.7 26.3 3.7 C20.9 3.7 19.7 7.9 19.7 13.7 C19.7 17.6 20.9 25.1 22.9 33.4 C24.6 40.2 26.9 44.2 32.2 44.2 C37.3 44.2 38.1 39.4 38.1 36 C38.1 32.1 37.3 26 36.6 22.2 zM54.6 31.1 C54.6 43.5 47.2 48.8 34.7 48.8 C30.4 48.8 23.2 48.8 15.2 42.9 C3.3 34.1 3 18.6 3 16.9 C3 7.7 8.3 -1.4 23.3 -1.4 C50.1 -1.4 54.6 21.4 54.6 31.1 zM51.6 53.9 C49.5 58.275 45.3 67.025 43.2 71.4 C40.725 71.4 35.775 71.4 33.3 71.4 C29.325 67.025 21.375 58.275 17.4 53.9 C19.025 53.9 22.275 53.9 23.9 53.9 C27.125 56.15 33.575 60.65 36.8 62.9 C39.075 60.65 43.625 56.15 45.9 53.9 C47.325 53.9 50.175 53.9 51.6 53.9 z" />
<glyph unicode="" horiz-adv-x="57.4" d="M36.6 22.2 C35.6 16.6 34.2 3.7 26.3 3.7 C20.9 3.7 19.7 7.9 19.7 13.7 C19.7 17.6 20.9 25.1 22.9 33.4 C24.6 40.2 26.9 44.2 32.2 44.2 C37.3 44.2 38.1 39.4 38.1 36 C38.1 32.1 37.3 26 36.6 22.2 zM54.6 31.1 C54.6 43.5 47.2 48.8 34.7 48.8 C30.4 48.8 23.2 48.8 15.2 42.9 C3.3 34.1 3 18.6 3 16.9 C3 7.7 8.3 -1.4 23.3 -1.4 C50.1 -1.4 54.6 21.4 54.6 31.1 zM21.8 55.9 C22.3 57.3 23.3 59.9 27 59.9 C30.9 59.9 36 55.8 41.7 55.8 C50.9 55.8 54.3 64.7 54.7 68.4 C53.23333 68.4 51.4 68.4 50.3 68.4 C49.2 66.4 48 64.1 44.9 64.1 C42.2 64.1 34.7 68.3 30.3 68.3 C23.8 68.3 19 62.5 17.4 55.9 C18.86667 55.9 20.7 55.9 21.8 55.9 z" />
<glyph unicode="" horiz-adv-x="57.4" d="M36.6 22.2 C35.6 16.6 34.2 3.7 26.3 3.7 C20.9 3.7 19.7 7.9 19.7 13.7 C19.7 17.6 20.9 25.1 22.9 33.4 C24.6 40.2 26.9 44.2 32.2 44.2 C37.3 44.2 38.1 39.4 38.1 36 C38.1 32.1 37.3 26 36.6 22.2 zM54.6 31.1 C54.6 43.5 47.2 48.8 34.7 48.8 C30.4 48.8 23.2 48.8 15.2 42.9 C3.3 34.1 3 18.6 3 16.9 C3 7.7 8.3 -1.4 23.3 -1.4 C50.1 -1.4 54.6 21.4 54.6 31.1 zM39.3 61.7 C39.3 57.7 42.5 54.5 46.5 54.5 C50.5 54.5 53.7 57.7 53.7 61.7 C53.7 65.7 50.5 68.9 46.5 68.9 C42.5 68.9 39.3 65.7 39.3 61.7 zM17.8 61.7 C17.8 57.7 21 54.5 25 54.5 C29 54.5 32.2 57.7 32.2 61.7 C32.2 65.7 29 68.9 25 68.9 C21 68.9 17.8 65.7 17.8 61.7 z" />
<glyph unicode="" horiz-adv-x="60" d="M4.7 19.3 C17.35 19.3 42.65 19.3 55.3 19.3 C55.3 22.3 55.3 28.3 55.3 31.3 C42.65 31.3 17.35 31.3 4.7 31.3 C4.7 28.3 4.7 22.3 4.7 19.3 zM21 46.1 C21 41.1 25 37.1 30 37.1 C35 37.1 39 41.1 39 46.1 C39 51.1 35 55.1 30 55.1 C25 55.1 21 51.1 21 46.1 zM21 4.5 C21 -0.5 25 -4.5 30 -4.5 C35 -4.5 39 -0.5 39 4.5 C39 9.5 35 13.5 30 13.5 C25 13.5 21 9.5 21 4.5 z" />
<glyph unicode="" horiz-adv-x="57.4" d="M37.4 29.3 C37.45 29.25 37.55 29.15 37.6 29.1 C37.4 26.9 37 24.2 36.6 22.2 C35.6 16.6 34.2 3.7 26.3 3.7 C22.3 3.7 20.6 6 20 9.6 C25.8 16.16667 33.05 24.375 37.4 29.3 zM20.1 17.4 C20.05 17.45 19.95 17.55 19.9 17.6 C20.3 20.9 21.3 26.9 22.9 33.4 C24.6 40.2 26.9 44.2 32.2 44.2 C36.6 44.2 37.8 40.7 38 37.5 C32.03333 30.8 24.575 22.425 20.1 17.4 zM2.5 -2 C2.5 -2.175 2.5 -2.525 2.5 -2.7 C3.3 -3.425 4.9 -4.875 5.7 -5.6 C5.85 -5.6 6.15 -5.6 6.3 -5.6 C7.775 -3.95 10.725 -0.65 12.2 1 C15.1 -0.6 18.7 -1.4 23.3 -1.4 C50.1 -1.4 54.6 21.4 54.6 31.1 C54.6 36.7 53.1 40.8 50.4 43.5 C51.9 45.16667 53.775 47.25 54.9 48.5 C54.9 48.675 54.9 49.025 54.9 49.2 C54.1 49.925 52.5 51.375 51.7 52.1 C51.55 52.1 51.25 52.1 51.1 52.1 C49.85 50.7 47.35 47.9 46.1 46.5 C43 48.1 39.2 48.8 34.7 48.8 C30.4 48.8 23.2 48.8 15.2 42.9 C3.3 34.1 3 18.6 3 16.9 C3 12.1 4.4 7.4 7.9 4 C6.1 2 3.85 -0.5 2.5 -2 z" />
<glyph unicode="" horiz-adv-x="61.1" d="M3.1 32.5 C3.225 32.45 3.475 32.35 3.6 32.3 C4.675 33.05 6.825 34.55 7.9 35.3 C9.6 36.5 10.1 36.7 10.6 36.7 C11.2 36.7 11.7 36.4 11.7 35.5 C11.7 30.4 5.7 12.5 5.7 4.6 C5.7 1.6 6.8 -1.4 11 -1.4 C19.2 -1.4 29.1 9.5 34.8 15.9 C34.86667 15.9 34.95 15.9 35 15.9 C34.5 13.1 33.3 7.8 33.3 4.5 C33.3 1.5 33.9 -1.4 37.7 -1.4 C42.4 -1.4 48.9 2.9 59.1 9.8 C59.13333 10.03333 59.175 10.325 59.2 10.5 C58.875 11.325 58.225 12.975 57.9 13.8 C57.775 13.8 57.525 13.8 57.4 13.8 C55.4 12.3 52 9.7 50.6 9.7 C49.5 9.7 49.1 10.3 49.1 11.4 C49.1 14.1 55.1 42.6 57.4 48.1 C57.1 48.33333 56.725 48.625 56.5 48.8 C52.5 47.9 46.3 47.4 41 46.8 C40.4 42.9 38.3 30.2 35 23.9 C32.9 19.9 26.2 11.4 23.8 11.4 C22.9 11.4 22.6 12.1 22.6 13 C22.6 18.2 28.7 37.2 28.7 43.7 C28.7 47.1 26.6 48.8 23.8 48.8 C19.7 48.8 11.6 43.2 1.8 36.2 C1.76667 36 1.725 35.75 1.7 35.6 C2.05 34.825 2.75 33.275 3.1 32.5 zM40.7 53.9 C41.95 53.9 44.45 53.9 45.7 53.9 C43.025 57.6 37.675 65 35 68.7 C33.4 70.9 31.6 72.3 29.2 72.3 C26.6 72.3 23.7 70.7 23.7 67.7 C23.7 66.6 23.7 64.6 27.4 62.3 C31.83333 59.5 37.375 56 40.7 53.9 z" />
<glyph unicode="" horiz-adv-x="61.1" d="M3.1 32.5 C3.225 32.45 3.475 32.35 3.6 32.3 C4.675 33.05 6.825 34.55 7.9 35.3 C9.6 36.5 10.1 36.7 10.6 36.7 C11.2 36.7 11.7 36.4 11.7 35.5 C11.7 30.4 5.7 12.5 5.7 4.6 C5.7 1.6 6.8 -1.4 11 -1.4 C19.2 -1.4 29.1 9.5 34.8 15.9 C34.86667 15.9 34.95 15.9 35 15.9 C34.5 13.1 33.3 7.8 33.3 4.5 C33.3 1.5 33.9 -1.4 37.7 -1.4 C42.4 -1.4 48.9 2.9 59.1 9.8 C59.13333 10.03333 59.175 10.325 59.2 10.5 C58.875 11.325 58.225 12.975 57.9 13.8 C57.775 13.8 57.525 13.8 57.4 13.8 C55.4 12.3 52 9.7 50.6 9.7 C49.5 9.7 49.1 10.3 49.1 11.4 C49.1 14.1 55.1 42.6 57.4 48.1 C57.1 48.33333 56.725 48.625 56.5 48.8 C52.5 47.9 46.3 47.4 41 46.8 C40.4 42.9 38.3 30.2 35 23.9 C32.9 19.9 26.2 11.4 23.8 11.4 C22.9 11.4 22.6 12.1 22.6 13 C22.6 18.2 28.7 37.2 28.7 43.7 C28.7 47.1 26.6 48.8 23.8 48.8 C19.7 48.8 11.6 43.2 1.8 36.2 C1.76667 36 1.725 35.75 1.7 35.6 C2.05 34.825 2.75 33.275 3.1 32.5 zM34.1 53.9 C37.6 55.775 44.6 59.525 48.1 61.4 C50.7 62.7 53.5 64.3 53.5 67.2 C53.5 70.4 50 72.3 48 72.3 C46.4 72.3 44.7 71.6 41.6 68.3 C37.26667 63.5 31.85 57.5 28.6 53.9 C29.975 53.9 32.725 53.9 34.1 53.9 z" />
<glyph unicode="" horiz-adv-x="61.1" d="M3.1 32.5 C3.225 32.45 3.475 32.35 3.6 32.3 C4.675 33.05 6.825 34.55 7.9 35.3 C9.6 36.5 10.1 36.7 10.6 36.7 C11.2 36.7 11.7 36.4 11.7 35.5 C11.7 30.4 5.7 12.5 5.7 4.6 C5.7 1.6 6.8 -1.4 11 -1.4 C19.2 -1.4 29.1 9.5 34.8 15.9 C34.86667 15.9 34.95 15.9 35 15.9 C34.5 13.1 33.3 7.8 33.3 4.5 C33.3 1.5 33.9 -1.4 37.7 -1.4 C42.4 -1.4 48.9 2.9 59.1 9.8 C59.13333 10.03333 59.175 10.325 59.2 10.5 C58.875 11.325 58.225 12.975 57.9 13.8 C57.775 13.8 57.525 13.8 57.4 13.8 C55.4 12.3 52 9.7 50.6 9.7 C49.5 9.7 49.1 10.3 49.1 11.4 C49.1 14.1 55.1 42.6 57.4 48.1 C57.1 48.33333 56.725 48.625 56.5 48.8 C52.5 47.9 46.3 47.4 41 46.8 C40.4 42.9 38.3 30.2 35 23.9 C32.9 19.9 26.2 11.4 23.8 11.4 C22.9 11.4 22.6 12.1 22.6 13 C22.6 18.2 28.7 37.2 28.7 43.7 C28.7 47.1 26.6 48.8 23.8 48.8 C19.7 48.8 11.6 43.2 1.8 36.2 C1.76667 36 1.725 35.75 1.7 35.6 C2.05 34.825 2.75 33.275 3.1 32.5 zM53.5 53.9 C51.4 58.275 47.2 67.025 45.1 71.4 C42.625 71.4 37.675 71.4 35.2 71.4 C31.225 67.025 23.275 58.275 19.3 53.9 C20.925 53.9 24.175 53.9 25.8 53.9 C29.025 56.15 35.475 60.65 38.7 62.9 C40.975 60.65 45.525 56.15 47.8 53.9 C49.225 53.9 52.075 53.9 53.5 53.9 z" />
<glyph unicode="" horiz-adv-x="61.1" d="M3.1 32.5 C3.225 32.45 3.475 32.35 3.6 32.3 C4.675 33.05 6.825 34.55 7.9 35.3 C9.6 36.5 10.1 36.7 10.6 36.7 C11.2 36.7 11.7 36.4 11.7 35.5 C11.7 30.4 5.7 12.5 5.7 4.6 C5.7 1.6 6.8 -1.4 11 -1.4 C19.2 -1.4 29.1 9.5 34.8 15.9 C34.86667 15.9 34.95 15.9 35 15.9 C34.5 13.1 33.3 7.8 33.3 4.5 C33.3 1.5 33.9 -1.4 37.7 -1.4 C42.4 -1.4 48.9 2.9 59.1 9.8 C59.13333 10.03333 59.175 10.325 59.2 10.5 C58.875 11.325 58.225 12.975 57.9 13.8 C57.775 13.8 57.525 13.8 57.4 13.8 C55.4 12.3 52 9.7 50.6 9.7 C49.5 9.7 49.1 10.3 49.1 11.4 C49.1 14.1 55.1 42.6 57.4 48.1 C57.1 48.33333 56.725 48.625 56.5 48.8 C52.5 47.9 46.3 47.4 41 46.8 C40.4 42.9 38.3 30.2 35 23.9 C32.9 19.9 26.2 11.4 23.8 11.4 C22.9 11.4 22.6 12.1 22.6 13 C22.6 18.2 28.7 37.2 28.7 43.7 C28.7 47.1 26.6 48.8 23.8 48.8 C19.7 48.8 11.6 43.2 1.8 36.2 C1.76667 36 1.725 35.75 1.7 35.6 C2.05 34.825 2.75 33.275 3.1 32.5 zM41.2 61.7 C41.2 57.7 44.4 54.5 48.4 54.5 C52.4 54.5 55.6 57.7 55.6 61.7 C55.6 65.7 52.4 68.9 48.4 68.9 C44.4 68.9 41.2 65.7 41.2 61.7 zM19.7 61.7 C19.7 57.7 22.9 54.5 26.9 54.5 C30.9 54.5 34.1 57.7 34.1 61.7 C34.1 65.7 30.9 68.9 26.9 68.9 C22.9 68.9 19.7 65.7 19.7 61.7 z" />
<glyph unicode="" horiz-adv-x="59.3" d="M2.4 32.5 C2.525 32.45 2.775 32.35 2.9 32.3 C5.2 33.9 8.2 35.5 9.6 35.5 C11.8 35.5 11.8 33.5 11.8 30.2 C11.8 27.9 10.8 15.5 10.8 11.5 C10.8 4.6 10.8 -1.3 16.5 -1.3 C20 -1.3 22.7 0.1 34.4 15.2 C34.46667 15.2 34.55 15.2 34.6 15.2 C32.95 10.025 29.65 -0.325 28 -5.5 C25.1 -14.5 22.1 -21.6 15.3 -21.6 C11.1 -21.6 9 -17.5 9 -15.1 C9 -14.33333 9 -13.375 9 -12.8 C8.7 -12.525 8.1 -11.975 7.8 -11.7 C5.475 -13.025 0.825 -15.675 -1.5 -17 C-0.1 -24 5.5 -27.3 10.3 -27.3 C16.6 -27.3 27.2 -23.1 32.6 -17.4 C39.7 -10 42.1 -3.3 45.6 7.5 C49.3 19.1 53.925 33.6 56.7 42.3 C57.6 45 58 46.4 58.9 48.2 C58.66667 48.53333 58.375 48.95 58.2 49.2 C54.1 48.3 52.9 48.2 42.6 47.4 C41.33333 42.73333 39.75 36.9 38.8 33.4 C35.3 21.6 28.6 13 26.6 13 C25.7 13 25.1 13.2 25.1 15.4 C25.1 24.4 27.2 33.4 27.2 42.5 C27.2 45.8 26 48.8 22.5 48.8 C19.7 48.8 19.1 48.8 1.1 36.3 C1.06667 36.06667 1.025 35.775 1 35.6 C1.35 34.825 2.05 33.275 2.4 32.5 zM35.2 53.9 C38.7 55.775 45.7 59.525 49.2 61.4 C51.8 62.7 54.6 64.3 54.6 67.2 C54.6 70.4 51.1 72.3 49.1 72.3 C47.5 72.3 45.8 71.6 42.7 68.3 C38.36667 63.5 32.95 57.5 29.7 53.9 C31.075 53.9 33.825 53.9 35.2 53.9 z" />
<glyph unicode="" horiz-adv-x="59.3" d="M38.8 21.1 C36.4 11 32.8 4.1 26.1 4.1 C24 4.1 22 4.6 20.1 5.5 C20.9 10.1 22.3 18.4 25.3 25.3 C28.1 31.8 35.2 39.7 38.5 39.7 C39.8 39.7 41.1 38.7 41.1 36 C41.1 31 39.7 24.7 38.8 21.1 zM-0.9 -27.6 C3 -25.9 11 -25.1 14.7 -25.1 C15.5 -17.5 17.7 -6.4 19 -0.7 C20.7 -1.1 22.4 -1.4 24.2 -1.4 C31 -1.4 44.5 4.1 50.7 14.1 C56.9 24.2 57.4 36.9 57.4 38.7 C57.4 45.2 54.3 48.8 48.3 48.8 C39.2 48.8 31.4 41.2 25.9 34.2 C25.83333 34.2 25.75 34.2 25.7 34.2 C27.225 41.375 30.275 55.725 31.8 62.9 C33.1 68.7 33.7 71.2 34.4 72.6 C33.96667 72.93333 33.425 73.35 33.1 73.6 C27.8 72.2 11.2 68.9 8.3 68.9 C8.1 68.73333 7.85 68.525 7.7 68.4 C7.55 67.7 7.25 66.3 7.1 65.6 C7.175 65.475 7.325 65.225 7.4 65.1 C8.725 65.1 11.375 65.1 12.7 65.1 C15.1 65.1 15.8 64.3 15.8 63 C15.8 53.9 1.8 -11.9 0.9 -15.9 C0 -20.1 -1.1 -24.2 -2 -26.8 C-1.63333 -27.06667 -1.175 -27.4 -0.9 -27.6 z" />
<glyph unicode="" horiz-adv-x="59.3" d="M2.4 32.5 C2.525 32.45 2.775 32.35 2.9 32.3 C5.2 33.9 8.2 35.5 9.6 35.5 C11.8 35.5 11.8 33.5 11.8 30.2 C11.8 27.9 10.8 15.5 10.8 11.5 C10.8 4.6 10.8 -1.3 16.5 -1.3 C20 -1.3 22.7 0.1 34.4 15.2 C34.46667 15.2 34.55 15.2 34.6 15.2 C32.95 10.025 29.65 -0.325 28 -5.5 C25.1 -14.5 22.1 -21.6 15.3 -21.6 C11.1 -21.6 9 -17.5 9 -15.1 C9 -14.33333 9 -13.375 9 -12.8 C8.7 -12.525 8.1 -11.975 7.8 -11.7 C5.475 -13.025 0.825 -15.675 -1.5 -17 C-0.1 -24 5.5 -27.3 10.3 -27.3 C16.6 -27.3 27.2 -23.1 32.6 -17.4 C39.7 -10 42.1 -3.3 45.6 7.5 C49.3 19.1 53.925 33.6 56.7 42.3 C57.6 45 58 46.4 58.9 48.2 C58.66667 48.53333 58.375 48.95 58.2 49.2 C54.1 48.3 52.9 48.2 42.6 47.4 C41.33333 42.73333 39.75 36.9 38.8 33.4 C35.3 21.6 28.6 13 26.6 13 C25.7 13 25.1 13.2 25.1 15.4 C25.1 24.4 27.2 33.4 27.2 42.5 C27.2 45.8 26 48.8 22.5 48.8 C19.7 48.8 19.1 48.8 1.1 36.3 C1.06667 36.06667 1.025 35.775 1 35.6 C1.35 34.825 2.05 33.275 2.4 32.5 zM40.3 61.7 C40.3 57.7 43.5 54.5 47.5 54.5 C51.5 54.5 54.7 57.7 54.7 61.7 C54.7 65.7 51.5 68.9 47.5 68.9 C43.5 68.9 40.3 65.7 40.3 61.7 zM18.8 61.7 C18.8 57.7 22 54.5 26 54.5 C30 54.5 33.2 57.7 33.2 61.7 C33.2 65.7 30 68.9 26 68.9 C22 68.9 18.8 65.7 18.8 61.7 z" />
<glyph unicode="" horiz-adv-x="35.2" d="M31.4 13 C31.275 13 31.025 13 30.9 13 C28 10.9 25 9 23.7 9 C22.8 9 22.3 9.6 22.3 10.6 C22.3 15.2 29.7 37.2 29.7 43.4 C29.7 47 28.1 48.8 24.9 48.8 C20.8 48.8 14.7 45.6 2.6 36.1 C2.53333 35.9 2.45 35.65 2.4 35.5 C2.75 34.725 3.45 33.175 3.8 32.4 C3.925 32.4 4.175 32.4 4.3 32.4 C8.8 35.7 10.2 36.8 11.1 36.8 C11.9 36.8 12.3 36 12.3 34.7 C12.3 30.1 5.7 11.7 5.7 3.8 C5.7 1 7.3 -1.4 10.7 -1.4 C15.7 -1.4 22 2.7 32.8 9.3 C32.8 9.5 32.8 9.75 32.8 9.9 C32.45 10.675 31.75 12.225 31.4 13 z" />
<glyph unicode="" horiz-adv-x="63" d="M0.8 29.3 C0.75 29.125 0.65 28.775 0.6 28.6 C1.025 27.3 1.875 24.7 2.3 23.4 C2.475 23.35 2.825 23.25 3 23.2 C5.15 24.075 9.45 25.825 11.6 26.7 C10 18.2 8.7 11.3 8.1 9.2 C7.4 6.2 6.8 5.9 1.8 4.1 C1.63333 3.9 1.425 3.65 1.3 3.5 C1.125 2.625 0.775 0.875 0.6 0 C0.7 -0.125 0.9 -0.375 1 -0.5 C9.9 -0.3 18.7 0 27.6 0 C36.4 0 45.3 -0.3 54.1 -0.5 C54.4 -0.06667 54.775 0.475 55 0.8 C55.5 6.9 57.3 13 58.4 19.1 C58.23333 19.26667 58.025 19.475 57.9 19.6 C56.75 19.6 54.45 19.6 53.3 19.6 C53.175 19.475 52.925 19.225 52.8 19.1 C52.4 18.3 49.6 10.1 49.2 9.3 C48.1 7.2 38.3 7 36 7 C33.03333 7 29.325 7 27.1 7 C27.8 11.6 29.6 23.4 31.6 34.7 C38.6 37.53333 47.35 41.075 52.6 43.2 C52.675 43.375 52.825 43.725 52.9 43.9 C52.45 45.175 51.55 47.725 51.1 49 C50.95 49.075 50.65 49.225 50.5 49.3 C46.1 47.525 37.3 43.975 32.9 42.2 C34.3 50.7 35.6 57.5 36.2 59.7 C37.1 63 38 63 45.4 63.8 C45.56667 63.96667 45.775 64.175 45.9 64.3 C46.1 65.45 46.5 67.75 46.7 68.9 C46.575 69.025 46.325 69.275 46.2 69.4 C43.7 69.3 30.3 68.9 27.1 68.9 C21 68.9 15 69.2 8.9 69.4 C8.73333 69.23333 8.525 69.025 8.4 68.9 C8.2 67.75 7.8 65.45 7.6 64.3 C7.725 64.175 7.975 63.925 8.1 63.8 C16 62.9 16.9 62.9 16.9 60.8 C16.9 57.8 14.9 45.7 12.9 34.2 C8.86667 32.56667 3.825 30.525 0.8 29.3 z" />
<glyph unicode="" horiz-adv-x="33.3" d="M30.4 13 C30.275 13 30.025 13 29.9 13 C27 10.9 24 9 22.7 9 C21.8 9 21.3 9.6 21.3 10.6 C21.3 11.7 23.5 24.5 26.3 38.4 C30.96667 40.26667 36.8 42.6 40.3 44 C40.375 44.175 40.525 44.525 40.6 44.7 C40.225 45.75 39.475 47.85 39.1 48.9 C38.95 48.975 38.65 49.125 38.5 49.2 C35.8 48.1 30.4 45.9 27.7 44.8 C30.1 56.8 32.7 68.2 34.5 72.6 C34.06667 72.93333 33.525 73.35 33.2 73.6 C27.9 72.2 11.3 68.9 8.4 68.9 C8.2 68.73333 7.95 68.525 7.8 68.4 C7.65 67.7 7.35 66.3 7.2 65.6 C7.275 65.475 7.425 65.225 7.5 65.1 C8.825 65.1 11.475 65.1 12.8 65.1 C15.2 65.1 15.9 64.3 15.9 63 C15.9 61.1 14.2 53.1 11.2 38.2 C7.2 36.56667 2.2 34.525 -0.8 33.3 C-0.85 33.15 -0.95 32.85 -1 32.7 C-0.625 31.65 0.125 29.55 0.5 28.5 C0.675 28.45 1.025 28.35 1.2 28.3 C3.4 29.175 7.8 30.925 10 31.8 C9.8 31 9.4 29 9 27 C6.7 15 4.7 7.9 4.7 4.5 C4.7 1 6.3 -1.4 9.7 -1.4 C14.7 -1.4 21 2.7 31.8 9.3 C31.8 9.5 31.8 9.75 31.8 9.9 C31.45 10.675 30.75 12.225 30.4 13 z" />
<glyph unicode="" horiz-adv-x="109.3" d="M25.2 24.2 C25.2 37.7 30.1 64 47.9 64 C52.4 64 60.2 61.2 60.2 50.7 C60.2 46.9 59.9 45.4 59.4 42.7 C58.46667 37.8 57.3 31.675 56.6 28 C54.4 16.6 51.3 5.8 39.1 5.8 C27.8 5.8 25.2 14.3 25.2 24.2 zM98.7 18.9 C98.525 18.75 98.175 18.45 98 18.3 C97.075 15.775 95.225 10.725 94.3 8.2 C90.3 7.4 83 6.7 78.1 6.7 C75.9 6.7 73.15 6.7 71.5 6.7 C72.6 15.2 74.8 27.2 75.7 32.1 C78.83333 32.1 82.75 32.1 85.1 32.1 C88.4 32.1 92.2 31.8 95.7 31.4 C97.3 35.5 97.7 36.4 99.2 39.1 C98.86667 39.46667 98.45 39.925 98.2 40.2 C91.9 39.6 88.8 39.3 84.8 39.3 C82.23333 39.3 79.025 39.3 77.1 39.3 C78.2 47 78.6 50.3 81 61.9 C84 62.1 87.6 62.2 90.1 62.2 C91.8 62.2 99 62.2 100.5 60.7 C101.3 59.9 101.2 55.2 101.3 52.9 C101.46667 52.73333 101.675 52.525 101.8 52.4 C102.85 52.4 104.95 52.4 106 52.4 C106.125 52.525 106.375 52.775 106.5 52.9 C107.1 59.3 107.9 64 108.9 68.4 C108.66667 68.73333 108.375 69.15 108.2 69.4 C101 69.2 93.9 68.9 86.7 68.9 C79.5 68.9 72.4 69.2 65.2 69.4 C64.96667 69.06667 64.675 68.65 64.5 68.4 C64.375 67.325 64.125 65.175 64 64.1 C63.95 64.1 63.85 64.1 63.8 64.1 C58.8 68.8 52 70.7 45.1 70.7 C19.9 70.7 5 51.8 5 27.1 C5 5.1 20 -1.9 34.2 -1.9 C43.6 -1.9 47.5 0.7 54 5.2 C53.6 3.46667 53.1 1.3 52.8 0 C52.875 -0.125 53.025 -0.375 53.1 -0.5 C60.9 -0.3 68.6 0 76.4 0 C84.2 0 91.9 -0.3 99.7 -0.5 C99.93333 -0.33333 100.225 -0.125 100.4 0 C101.4 6.4 102.2 12.5 103.8 18.4 C103.63333 18.56667 103.425 18.775 103.3 18.9 C102.15 18.9 99.85 18.9 98.7 18.9 z" />
<glyph unicode="" horiz-adv-x="79.6" d="M72 13.4 C71.85 13.4 71.55 13.4 71.4 13.4 C65.4 9.7 60.5 6.8 55.6 6.8 C48.9 6.8 47.9 11.8 47.9 15.1 C47.9 16.9 48.2 18.1 48.6 19.9 C56 21.3 78.8 25.7 78.8 39.4 C78.8 48.8 68.4 48.8 65.8 48.8 C57.5 48.8 51.5 44.7 47.6 41.5 C45.4 44.4 41.6 48.8 32.3 48.8 C18 48.8 10.4 40.3 8.7 37.5 C5.7 32.6 2.7 26.6 2.7 17.4 C2.7 2.1 13.4 -1.4 20.3 -1.4 C29.1 -1.4 34.1 2.6 36.6 4.8 C39 -0.1 44.1 -1.4 49.2 -1.4 C60 -1.4 68.7 4.9 74.1 8.7 C74.1 8.93333 74.1 9.225 74.1 9.4 C73.575 10.4 72.525 12.4 72 13.4 zM18.6 13.8 C18.6 17.9 19.7 23.6 20.7 28.4 C21.9 34 23.7 44.2 30.3 44.2 C35.2 44.2 36 39.4 36 36.1 C36 32.2 35.2 26.1 34.5 22.3 C33.5 16.7 32.1 3.9 24.2 3.9 C19.8 3.9 18.6 8.1 18.6 13.8 zM64.7 39.1 C64.7 34.2 60.4 27.7 54.5 26.2 C52.1 25.6 50.6 25.4 49.4 25.3 C50.3 29.7 53.7 43.6 60.6 43.6 C63.5 43.6 64.7 41.3 64.7 39.1 z" />
<glyph unicode="" horiz-adv-x="59.3" d="M53.3 48.7 C53.425 48.825 53.675 49.075 53.8 49.2 C53.8 50.2 53.9 52.7 54.9 58.3 C55.4 61 56 63.6 56.5 65.8 C56.33333 66.2 56.125 66.7 56 67 C53.5 68.6 46.3 70.5 38.1 70.5 C17.1 70.5 7.8 57.9 7.8 44.4 C7.8 19.9 39 31.9 39 16.4 C39 7.4 29.6 5.5 25.7 5.5 C14.3 5.5 10.3 11.7 10.3 22 C10.13333 22.16667 9.925 22.375 9.8 22.5 C8.8 22.5 6.8 22.5 5.8 22.5 C5.675 22.375 5.425 22.125 5.3 22 C4.9 16 3.9 9.9 2.3 3.9 C2.46667 3.4 2.675 2.775 2.8 2.4 C6.8 0.6 15.1 -1.9 23 -1.9 C41.7 -1.9 55.7 9.9 55.7 25.3 C55.7 49.8 23.5 38.1 23.5 53.6 C23.5 62.5 32.5 63.3 34.6 63.3 C47.6 63.3 48.4 54 48.8 49.2 C48.96667 49.03333 49.175 48.825 49.3 48.7 C50.3 48.7 52.3 48.7 53.3 48.7 zM39.8 73.8 C43.725 78.175 51.575 86.925 55.5 91.3 C53.9 91.3 50.7 91.3 49.1 91.3 C45.85 89 39.35 84.4 36.1 82.1 C33.8 84.4 29.2 89 26.9 91.3 C25.475 91.3 22.625 91.3 21.2 91.3 C23.35 86.925 27.65 78.175 29.8 73.8 C32.3 73.8 37.3 73.8 39.8 73.8 z" />
<glyph unicode="" horiz-adv-x="46.3" d="M40.6 34.8 C40.725 34.925 40.975 35.175 41.1 35.3 C41.6 39.2 41.9 43.1 42.7 46.5 C42.53333 46.66667 42.325 46.875 42.2 47 C41.1 47.4 36.1 48.8 29.7 48.8 C16.2 48.8 4.4 39.7 4.4 29.2 C4.4 19.4 12.1 17.8 17.8 17.3 C26.2 16.5 29.5 16.2 29.5 11.8 C29.5 8.4 26.6 5.3 19.9 5.3 C14.7 5.3 10.9 7.5 8.6 9.7 C8.46667 11 8.3 12.625 8.2 13.6 C8.075 13.725 7.825 13.975 7.7 14.1 C6.925 14.1 5.375 14.1 4.6 14.1 C4.475 13.975 4.225 13.725 4.1 13.6 C3.8 9.8 3 5 2.2 1.2 C2.36667 1.03333 2.575 0.825 2.7 0.7 C5.9 -0.2 10.2 -1.4 15.9 -1.4 C29.9 -1.4 42.1 8 42.1 19 C42.1 29.6 32.5 30.6 26.3 31.3 C19.8 32 16.8 32.5 16.8 36.5 C16.8 39.7 19.4 42.3 25.1 42.3 C31.2 42.3 35.3 39.4 36.8 38.3 C36.8 37.3 36.8 36.05 36.8 35.3 C36.925 35.175 37.175 34.925 37.3 34.8 C38.125 34.8 39.775 34.8 40.6 34.8 zM31.3 53.9 C35.225 58.275 43.075 67.025 47 71.4 C45.4 71.4 42.2 71.4 40.6 71.4 C37.35 69.1 30.85 64.5 27.6 62.2 C25.3 64.5 20.7 69.1 18.4 71.4 C16.975 71.4 14.125 71.4 12.7 71.4 C14.85 67.025 19.15 58.275 21.3 53.9 C23.8 53.9 28.8 53.9 31.3 53.9 z" />
<glyph unicode="" horiz-adv-x="74.1" d="M15.4 0 C15.525 -0.125 15.775 -0.375 15.9 -0.5 C22 -0.3 28.1 0 34.2 0 C40.3 0 46.3 -0.3 52.4 -0.5 C52.56667 -0.33333 52.775 -0.125 52.9 0 C53.1 1.15 53.5 3.45 53.7 4.6 C53.575 4.725 53.325 4.975 53.2 5.1 C46 5.6 44.8 5.6 44.8 7.6 C44.8 10.1 46.4 25.9 51.2 34.7 C54 39.8 64.2 56.7 73.1 56.7 C73.9 56.7 74.8 56.5 75.6 56.3 C76.76667 60.66667 78.225 66.125 79.1 69.4 C78.3 69.6 77.2 69.8 76.3 69.8 C65 69.8 54.1 54.1 45.7 34.8 C45.63333 34.8 45.55 34.8 45.5 34.8 C44.3 46.9 39.8 70.4 24 70.4 C21.2 70.4 19.3 69.8 19.1 69.7 C18.5 69.4 11.7 65.1 4.7 61.2 C4.6 61.03333 4.475 60.825 4.4 60.7 C4.7 59.875 5.3 58.225 5.6 57.4 C5.7 57.325 5.9 57.175 6 57.1 C6.9 57.5 9.5 58.4 12 58.4 C17 58.4 19.9 56 23.7 45.9 C24.9 42.7 28.8 29.9 28.8 25.5 C28.8 23.9 28.8 23.7 28 19.8 C27.43333 16.9 26.725 13.275 26.3 11.1 C25.3 5.8 24.8 5.8 16.7 5.1 C16.53333 4.93333 16.325 4.725 16.2 4.6 C16 3.45 15.6 1.15 15.4 0 zM52.1 81.6 C52.1 77.6 55.3 74.4 59.3 74.4 C63.3 74.4 66.5 77.6 66.5 81.6 C66.5 85.6 63.3 88.8 59.3 88.8 C55.3 88.8 52.1 85.6 52.1 81.6 zM30.6 81.6 C30.6 77.6 33.8 74.4 37.8 74.4 C41.8 74.4 45 77.6 45 81.6 C45 85.6 41.8 88.8 37.8 88.8 C33.8 88.8 30.6 85.6 30.6 81.6 z" />
<glyph unicode="" horiz-adv-x="70.4" d="M13.5 49.3 C13.625 49.425 13.875 49.675 14 49.8 C14.8 52.5 14.9 52.8 17 59.4 C20 60.6 28.7 61.3 36.8 61.3 C39.13333 61.3 42.05 61.3 43.8 61.3 C29.4 42.4 15.1 23.4 -0.1 5.1 C-0.43333 3.4 -0.85 1.275 -1.1 0 C-0.975 -0.125 -0.725 -0.375 -0.6 -0.5 C9.5 -0.3 20 0 30.6 0 C41.1 0 51.7 -0.3 62.2 -0.5 C62.53333 -0.06667 62.95 0.475 63.2 0.8 C63.5 2.8 65 13.7 66.6 19 C66.4 19.2 66.15 19.45 66 19.6 C64.85 19.6 62.55 19.6 61.4 19.6 C61.25 19.45 60.95 19.15 60.8 19 C59.9 16.525 58.1 11.575 57.2 9.1 C53.8 8.3 50.6 7.6 38.5 7.6 C34.23333 7.6 28.9 7.6 25.7 7.6 C39.8 26.9 54.4 45.5 69.2 64.3 C69.43333 65.83333 69.725 67.75 69.9 68.9 C69.775 69.025 69.525 69.275 69.4 69.4 C59.8 69.2 50.4 68.9 41.1 68.9 C31.5 68.9 21.9 69.2 12.3 69.4 C11.73333 69.13333 11.025 68.8 10.6 68.6 C10.3 62.3 9.6 56.1 8.8 49.8 C8.96667 49.63333 9.175 49.425 9.3 49.3 C10.35 49.3 12.45 49.3 13.5 49.3 zM45.3 73.8 C49.225 78.175 57.075 86.925 61 91.3 C59.4 91.3 56.2 91.3 54.6 91.3 C51.35 89 44.85 84.4 41.6 82.1 C39.3 84.4 34.7 89 32.4 91.3 C30.975 91.3 28.125 91.3 26.7 91.3 C28.85 86.925 33.15 78.175 35.3 73.8 C37.8 73.8 42.8 73.8 45.3 73.8 z" />
<glyph unicode="" horiz-adv-x="46.3" d="M6.6 27.6 C6.775 27.725 7.125 27.975 7.3 28.1 C8.6 31.2 9 32.1 10.8 35.1 C16.4 34.8 18.1 34.8 21.3 34.8 C24.2 34.8 25.7 34.9 28.5 35.5 C28.9 35.6 29.4 35.725 29.7 35.8 C29.75 35.75 29.85 35.65 29.9 35.6 C22.125 27.4 6.575 11 -1.2 2.8 C-0.575 1.925 0.675 0.175 1.3 -0.7 C3.2 0.5 4.8 1.5 9.5 1.5 C17.2 1.5 24.6 -1.4 32.3 -1.4 C34.4 -1.4 37.9 -0.6 39.9 0 C40.8 5.2 42.4 12.5 44.2 18.8 C44.06667 18.93333 43.9 19.1 43.8 19.2 C43.15 19.2 41.85 19.2 41.2 19.2 C41.05 19.125 40.75 18.975 40.6 18.9 C39.9 17.475 38.5 14.625 37.8 13.2 C37.1 12.7 35.9 12.3 33.9 12.3 C31.6 12.3 24.7 13.5 22.9 13.5 C19.8 13.5 17.7 12.9 15.5 12.2 C15.43333 12.2 15.35 12.2 15.3 12.2 C22.925 20.225 38.175 36.275 45.8 44.3 C45.725 45.35 45.575 47.45 45.5 48.5 C45.275 48.575 44.825 48.725 44.6 48.8 C42.6 47.4 40.4 46.1 35.8 46.1 C30.3 46.1 17.7 48.8 14.3 48.8 C12.1 48.8 10.8 48.5 9 47.9 C6.7 38.8 6.3 37.4 3.8 28.2 C3.9 28 4.025 27.75 4.1 27.6 C4.725 27.6 5.975 27.6 6.6 27.6 zM33.3 53.9 C37.225 58.275 45.075 67.025 49 71.4 C47.4 71.4 44.2 71.4 42.6 71.4 C39.35 69.1 32.85 64.5 29.6 62.2 C27.3 64.5 22.7 69.1 20.4 71.4 C18.975 71.4 16.125 71.4 14.7 71.4 C16.85 67.025 21.15 58.275 23.3 53.9 C25.8 53.9 30.8 53.9 33.3 53.9 z" />
<glyph unicode="" horiz-adv-x="59.2" d="M17.6 4.1 C15.9 -6.4 14.2 -20.2 8.2 -20.2 C5 -20.2 2.2 -16.7 0.3 -14.5 C-0.23333 -14.63333 -0.9 -14.8 -1.3 -14.9 C-1.8 -19.3 -2.7 -23 -3.7 -26.5 C-2.4 -27 -0.4 -27.6 2.4 -27.6 C11.4 -27.6 27 -20.5 32.6 8.3 C34.23333 16.73333 36.275 27.275 37.5 33.6 C41.9 33.6 46.4 33.3 50.3 33.2 C50.5 33.43333 50.75 33.725 50.9 33.9 C51.1 35.5 51.5 37.7 52.1 39.2 C51.93333 39.36667 51.725 39.575 51.6 39.7 C47.3 39.3 43 39.2 38.6 39.2 C39.23333 42.3 40.025 46.175 40.5 48.5 C42.5 58.1 44.4 61 47.8 61 C51.9 61 54.2 57.7 56.5 54.5 C57.03333 54.63333 57.7 54.8 58.1 54.9 C59.1 59.2 60.5 63.7 62.1 67.8 C60.3 68.7 56 68.9 53.3 68.9 C45.5 68.9 33.5 61.4 28.3 54.5 C26.8 52.5 25.8 50.1 24.6 44.8 C24.2 42.93333 23.7 40.6 23.4 39.2 C20.725 39.25 15.375 39.35 12.7 39.4 C12.5 39.275 12.1 39.025 11.9 38.9 C11.7 37.2 11.1 35.3 10.6 34.1 C10.76667 33.8 10.975 33.425 11.1 33.2 C15.6 33.6 13.9 33.6 22.5 33.6 C20.86667 23.76667 18.825 11.475 17.6 4.1 z" />
<glyph unicode="" horiz-adv-x="27.8" d="M38.8 53.9 C36.7 58.275 32.5 67.025 30.4 71.4 C27.925 71.4 22.975 71.4 20.5 71.4 C16.525 67.025 8.575 58.275 4.6 53.9 C6.225 53.9 9.475 53.9 11.1 53.9 C14.325 56.15 20.775 60.65 24 62.9 C26.275 60.65 30.825 56.15 33.1 53.9 C34.525 53.9 37.375 53.9 38.8 53.9 z" />
<glyph unicode="" horiz-adv-x="27.8" d="M24 53.9 C27.925 58.275 35.775 67.025 39.7 71.4 C38.1 71.4 34.9 71.4 33.3 71.4 C30.05 69.1 23.55 64.5 20.3 62.2 C18 64.5 13.4 69.1 11.1 71.4 C9.675 71.4 6.825 71.4 5.4 71.4 C7.55 67.025 11.85 58.275 14 53.9 C16.5 53.9 21.5 53.9 24 53.9 z" />
<glyph unicode="" horiz-adv-x="27.8" d="M6.7 57.7 C14.175 57.7 29.125 57.7 36.6 57.7 C37.05 59.625 37.95 63.475 38.4 65.4 C30.925 65.4 15.975 65.4 8.5 65.4 C8.05 63.475 7.15 59.625 6.7 57.7 z" />
<glyph unicode="" horiz-adv-x="27.8" d="M36.1 70.2 C33.7 63.5 28.4 61.8 23.8 61.8 C13.6 61.8 13.3 67.7 13.2 70.2 C11.53333 70.2 9.45 70.2 8.2 70.2 C8.2 69.5 8.2 68.1 8.2 67.4 C8.2 58.8 13.9 53.9 22.7 53.9 C27.1 53.9 38.6 55.8 40.6 70.2 C39.1 70.2 37.225 70.2 36.1 70.2 z" />
<glyph unicode="" horiz-adv-x="27.8" d="M11 61.7 C11 57.7 14.2 54.5 18.2 54.5 C22.2 54.5 25.4 57.7 25.4 61.7 C25.4 65.7 22.2 68.9 18.2 68.9 C14.2 68.9 11 65.7 11 61.7 z" />
<glyph unicode="" horiz-adv-x="27.8" d="M9.3 62.9 C9.3 57 14.1 52.2 20 52.2 C25.9 52.2 30.7 57 30.7 62.9 C30.7 68.8 25.9 73.6 20 73.6 C14.1 73.6 9.3 68.8 9.3 62.9 zM14.5 62.9 C14.5 65.9 17 68.4 20 68.4 C23 68.4 25.5 65.9 25.5 62.9 C25.5 59.9 23 57.4 20 57.4 C17 57.4 14.5 59.9 14.5 62.9 z" />
<glyph unicode="" horiz-adv-x="27.8" d="M24.3 -15.9 C24.175 -15.825 23.925 -15.675 23.8 -15.6 C21.7 -16.5 20.2 -17.1 17.4 -17.1 C13.6 -17.1 12.6 -14.9 12.6 -12.4 C12.6 -7.6 16.2 -3.3 22.8 0 C20.4 0 17.4 0 15.6 0 C8.2 -1.8 1.6 -7.1 1.6 -14.6 C1.6 -18.6 4.7 -22.5 11.7 -22.5 C16.3 -22.5 21.3 -21.4 23.9 -19.6 C24.03333 -19.36667 24.2 -19.075 24.3 -18.9 C24.3 -18.15 24.3 -16.65 24.3 -15.9 z" />
<glyph unicode="" horiz-adv-x="27.8" d="M9 55.9 C9.5 57.3 10.5 59.9 14.2 59.9 C18.1 59.9 23.2 55.8 28.9 55.8 C38.1 55.8 41.5 64.7 41.9 68.4 C40.43333 68.4 38.6 68.4 37.5 68.4 C36.4 66.4 35.2 64.1 32.1 64.1 C29.4 64.1 21.9 68.3 17.5 68.3 C11 68.3 6.2 62.5 4.6 55.9 C6.06667 55.9 7.9 55.9 9 55.9 z" />
<glyph unicode="" horiz-adv-x="27.8" d="M3.4 53.9 C6.9 55.775 13.9 59.525 17.4 61.4 C20 62.7 22.8 64.3 22.8 67.2 C22.8 70.4 19.3 72.3 17.3 72.3 C15.7 72.3 14 71.6 10.9 68.3 C6.56667 63.5 1.15 57.5 -2.1 53.9 C-0.725 53.9 2.025 53.9 3.4 53.9 zM24.8 53.9 C28.3 55.775 35.3 59.525 38.8 61.4 C41.4 62.7 44.2 64.3 44.2 67.2 C44.2 70.4 40.7 72.3 38.7 72.3 C37.1 72.3 35.4 71.6 32.3 68.3 C27.96667 63.5 22.55 57.5 19.3 53.9 C20.675 53.9 23.425 53.9 24.8 53.9 z" />
<glyph unicode="" horiz-adv-x="77.4" d="M72.6 17.8 C71.65 17.825 69.75 17.875 68.8 17.9 C65.6 11.9 64 10.9 59.8 10.9 C56.2 10.9 51.7 10.9 49 10.9 C58.9 17.7 70.5 25.9 72.9 39.3 C76.1 57.7 65.2 69.2 46.6 69.2 C28.2 69.2 12.5 57.4 9.2 38.7 C6.6 23.9 15.8 16.1 22.5 10.9 C19.33333 10.9 15.375 10.9 13 10.9 C8.4 10.9 7.1 12.1 5.9 17.9 C4.63333 17.86667 3.05 17.825 2.1 17.8 C1.975 13.35 1.725 4.45 1.6 0 C8.475 0 22.225 0 29.1 0 C29.45 0.625 30.15 1.875 30.5 2.5 C27.5 12.4 23.7 25.3 25.9 37.8 C29.6 58.6 36.5 65 45.5 65 C54.2 65 59.3 57.8 55.9 38.1 C53.6 25.2 44.2 11.5 38.5 2.4 C38.7 1.6 38.95 0.6 39.1 0 C45.95 0 59.65 0 66.5 0 C68.025 4.45 71.075 13.35 72.6 17.8 z" />
<glyph unicode="" horiz-adv-x="61.1" d="M3.1 32.5 C3.225 32.45 3.475 32.35 3.6 32.3 C4.675 33.05 6.825 34.55 7.9 35.3 C9.6 36.5 10.1 36.7 10.6 36.7 C11.2 36.7 11.7 36.4 11.7 35.5 C11.7 33.1 10.3 27.6 9 21.7 C6.3 9.16667 2.925 -6.5 0.9 -15.9 C0 -20.1 -1.1 -24.2 -2 -26.8 C-1.63333 -27.06667 -1.175 -27.4 -0.9 -27.6 C3 -25.9 11 -25.1 14.7 -25.1 C15.5 -17.5 17.7 -6.4 19 0 C22.2 0 30 8.6 34.8 15.9 C34.86667 15.9 34.95 15.9 35 15.9 C34.5 13.1 33.3 7.8 33.3 4.5 C33.3 1.5 33.9 -1.4 37.7 -1.4 C42.4 -1.4 48.9 2.9 59.1 9.8 C59.13333 10.03333 59.175 10.325 59.2 10.5 C58.875 11.325 58.225 12.975 57.9 13.8 C57.775 13.8 57.525 13.8 57.4 13.8 C55.4 12.3 52 9.7 50.6 9.7 C49.5 9.7 49.1 10.3 49.1 11.4 C49.1 14.1 55.1 42.6 57.4 48.1 C57.1 48.33333 56.725 48.625 56.5 48.8 C52.5 47.9 46.3 47.4 41 46.8 C40.4 42.9 38.3 30.2 35 23.9 C32.9 19.9 26.2 11.4 23.8 11.4 C22.9 11.4 22.6 12.1 22.6 13 C22.6 18.2 28.7 37.2 28.7 43.7 C28.7 47.1 26.6 48.8 23.8 48.8 C19.7 48.8 11.6 43.2 1.8 36.2 C1.76667 36 1.725 35.75 1.7 35.6 C2.05 34.825 2.75 33.275 3.1 32.5 z" />
<glyph unicode="" horiz-adv-x="62" d="M60.4 48.4 C58.4 45.7 56.8 45 53.5 45 C43.9 45 33.1 45.2 24.9 45.3 C13 45.4 8.1 39 3.7 34.3 C4.1 33.16667 4.6 31.75 4.9 30.9 C10 33.7 12.8 34.7 18.7 34.6 C17.1 25.3 12.1 11.2 3 1.1 C3.16667 0.3 3.375 -0.7 3.5 -1.3 C5.7 -1.1 8.5 -0.5 11.5 0.6 C13.5 2.6 20 10.6 24.1 33.6 C24.13333 33.86667 24.175 34.2 24.2 34.4 C28 34.4 31 34.2 36.4 34.2 C34.7 27.3 33.2 21.6 31.6 12.5 C29.7 1.6 34.4 -1.3 40.5 -1.3 C45.4 -1.3 51.5 2 54.8 6 C54.53333 7.03333 54.2 8.325 54 9.1 C52.3 8 51 7.2 49.3 7.2 C47 7.2 45.6 9.3 46.7 15.7 C47.9 22.6 48.7 27.5 50.4 33.9 C52.9 33.9 55.3 34.1 57.1 34.6 C58.9 36.5 62.2 43.1 63.4 47.5 C62.4 47.8 61.15 48.175 60.4 48.4 z" />
<glyph unicode="" horiz-adv-x="50" d="M-1.2 19.2 C11.3 19.2 36.3 19.2 48.8 19.2 C49.4 21.95 50.6 27.45 51.2 30.2 C38.7 30.2 13.7 30.2 1.2 30.2 C0.6 27.45 -0.6 21.95 -1.2 19.2 z" />
<glyph unicode="" horiz-adv-x="100" d="M1.2 30.2 C0.6 27.45 -0.6 21.95 -1.2 19.2 C23.8 19.2 73.8 19.2 98.8 19.2 C99.4 21.95 100.6 27.45 101.2 30.2 C76.2 30.2 26.2 30.2 1.2 30.2 z" />
<glyph unicode="" horiz-adv-x="29.6" d="M6 37.1 C11.8 39.3 12.8 39.5 21.5 41.3 C23 48 27 60.5 32.3 69.3 C31.7 69.66667 30.95 70.125 30.5 70.4 C29.075 69.975 26.225 69.125 24.8 68.7 C20.3 64.8 7 46.5 3.7 38.8 C4.46667 38.23333 5.425 37.525 6 37.1 z" />
<glyph unicode="" horiz-adv-x="29.6" d="M31 70.4 C25.2 68.2 24.2 68 15.5 66.2 C14 59.5 10 47 4.7 38.2 C5.3 37.83333 6.05 37.375 6.5 37.1 C7.925 37.525 10.775 38.375 12.2 38.8 C16.7 42.7 30 61 33.3 68.7 C32.53333 69.26667 31.575 69.975 31 70.4 z" />
<glyph unicode="" horiz-adv-x="29.6" d="M21.1 15 C15.3 12.8 14.3 12.6 5.6 10.8 C4.1 4.1 0.1 -8.4 -5.2 -17.2 C-4.6 -17.56667 -3.85 -18.025 -3.4 -18.3 C-1.975 -17.875 0.875 -17.025 2.3 -16.6 C6.8 -12.7 20.1 5.6 23.4 13.3 C22.63333 13.86667 21.675 14.575 21.1 15 z" />
<glyph unicode="" horiz-adv-x="51.9" d="M6.2 37.1 C12 39.3 13 39.5 21.7 41.3 C23.2 48 27.2 60.5 32.5 69.3 C31.9 69.66667 31.15 70.125 30.7 70.4 C29.275 69.975 26.425 69.125 25 68.7 C20.5 64.8 7.2 46.5 3.9 38.8 C4.66667 38.23333 5.625 37.525 6.2 37.1 zM28.5 37.1 C34.3 39.3 35.3 39.5 44 41.3 C45.5 48 49.5 60.5 54.8 69.3 C54.2 69.66667 53.45 70.125 53 70.4 C51.575 69.975 48.725 69.125 47.3 68.7 C42.8 64.8 29.5 46.5 26.2 38.8 C26.96667 38.23333 27.925 37.525 28.5 37.1 z" />
<glyph unicode="" horiz-adv-x="51.9" d="M52.5 70.4 C46.7 68.2 45.7 68 37 66.2 C35.5 59.5 31.5 47 26.2 38.2 C26.8 37.83333 27.55 37.375 28 37.1 C29.425 37.525 32.275 38.375 33.7 38.8 C38.2 42.7 51.5 61 54.8 68.7 C54.03333 69.26667 53.075 69.975 52.5 70.4 zM30.2 70.4 C24.4 68.2 23.4 68 14.7 66.2 C13.2 59.5 9.2 47 3.9 38.2 C4.5 37.83333 5.25 37.375 5.7 37.1 C7.125 37.525 9.975 38.375 11.4 38.8 C15.9 42.7 29.2 61 32.5 68.7 C31.73333 69.26667 30.775 69.975 30.2 70.4 z" />
<glyph unicode="" horiz-adv-x="51.9" d="M43.4 15 C37.6 12.8 36.6 12.6 27.9 10.8 C26.4 4.1 22.4 -8.4 17.1 -17.2 C17.7 -17.56667 18.45 -18.025 18.9 -18.3 C20.325 -17.875 23.175 -17.025 24.6 -16.6 C29.1 -12.7 42.4 5.6 45.7 13.3 C44.93333 13.86667 43.975 14.575 43.4 15 zM21.1 15 C15.3 12.8 14.3 12.6 5.6 10.8 C4.1 4.1 0.1 -8.4 -5.2 -17.2 C-4.6 -17.56667 -3.85 -18.025 -3.4 -18.3 C-1.975 -17.875 0.875 -17.025 2.3 -16.6 C6.8 -12.7 20.1 5.6 23.4 13.3 C22.63333 13.86667 21.675 14.575 21.1 15 z" />
<glyph unicode="" horiz-adv-x="59.2" d="M8.5 48.1 C8.5 44.6 7.6 39.4 6.6 36.2 C6.86667 36.06667 7.2 35.9 7.4 35.8 C11.5 36.5 18 36.7 24.1 36.7 C22.9 28.8 20.5 12.8 16.7 0 C16.96667 -0.16667 17.3 -0.375 17.5 -0.5 C20.3 -0.3 23.2 0 25.4 0 C27.9 0 30.5 -0.3 33 -0.5 C33.26667 -0.33333 33.6 -0.125 33.8 0 C34.9 13.3 37.2 27.9 38.9 36.7 C46.8 36.7 51.2 36.2 55.5 35.7 C55.8 35.86667 56.175 36.075 56.4 36.2 C56.7 39.2 56.8 39.6 57.2 42.8 C57.3 43.6 58.6 47.8 58.6 47.8 C58.43333 48.16667 58.225 48.625 58.1 48.9 C55.6 48.8 42.3 48.2 40.9 48.2 C41.5 52.2 43.8 64.1 45.2 68.9 C44.93333 69.06667 44.6 69.275 44.4 69.4 C41.8 69.2 39.1 68.9 36.5 68.9 C34.4 68.9 31.8 69.2 29.1 69.4 C28.86667 69.23333 28.575 69.025 28.4 68.9 C28.4 63.7 27.3 56.7 26.1 48.2 C23.4 48.2 20.6 48.4 17.9 48.5 C15.1 48.7 12.4 48.9 9.6 48.9 C9.23333 48.63333 8.775 48.3 8.5 48.1 z" />
<glyph unicode="" horiz-adv-x="59.2" d="M56.6 39.1 C56.6 42.2 57 45.9 58.1 49.1 C57.96667 49.4 57.8 49.775 57.7 50 C52.1 49.8 46.3 49.6 40.9 49.4 C41.4 54.7 42.9 62 45 68.9 C44.83333 69.06667 44.625 69.275 44.5 69.4 C41.6 69 38.7 68.9 36.4 68.9 C34.1 68.9 31.7 69 29.4 69.4 C29.2 69.23333 28.95 69.025 28.8 68.9 C28.3 62.3 27.9 55.8 26.7 49.4 C21.1 49.4 15.4 49.6 9.7 50 C9.46667 49.8 9.175 49.55 9 49.4 C8.7 45.7 8.1 41.9 7.2 39 C7.33333 38.66667 7.5 38.25 7.6 38 C13.5 38.3 18.1 38.5 24.8 38.5 C24.4 35 23.7 31.7 22.3 27.6 C22 23.6 21.4 19.1 20.8 15 C15.16667 15.16667 8.125 15.375 3.9 15.5 C3.75 15.4 3.45 15.2 3.3 15.1 C2.9 11.6 2.1 6.3 1.5 4.3 C1.6 4.06667 1.725 3.775 1.8 3.6 C5.8 4.1 13.3 4.1 18.9 4.1 C18.6 1.7 17.1 -6.3 14.5 -15 C14.66667 -15.16667 14.875 -15.375 15 -15.5 C17.9 -15.3 20.7 -15 23.6 -15 C25.3 -15 27.5 -15.3 29.8 -15.5 C30.1 -15.33333 30.475 -15.125 30.7 -15 C31 -12.3 32.6 1.1 32.9 4.1 C39.1 4.1 44.7 3.8 49.8 3.4 C50.03333 3.73333 50.325 4.15 50.5 4.4 C50.8 7.9 51.4 11.6 52.4 14.8 C52.16667 15.06667 51.875 15.4 51.7 15.6 C50.7 15.5 37.3 15 34.9 15 C35.6 19.2 36.4 23.5 37.6 27.4 C37.7 31.1 38.1 35.4 38.8 38.5 C43.7 38.5 51 38.5 56 38 C56.2 38.36667 56.45 38.825 56.6 39.1 z" />
<glyph unicode="" horiz-adv-x="50" d="M7.8 34.5 C7.8 25 15.5 17.3 25 17.3 C34.5 17.3 42.2 25 42.2 34.5 C42.2 44 34.5 51.7 25 51.7 C15.5 51.7 7.8 44 7.8 34.5 z" />
<glyph unicode="" horiz-adv-x="100" d="M25.4 9.8 C25.4 13.7 23.3 17.6 17.4 17.6 C11.4 17.6 8.1 11.7 8.1 6.3 C8.1 1.7 10.5 -1.6 15.9 -1.6 C23.8 -1.6 25.4 6.7 25.4 9.8 zM58.7 9.8 C58.7 13.7 56.6 17.6 50.7 17.6 C44.7 17.6 41.4 11.7 41.4 6.3 C41.4 1.7 43.8 -1.6 49.2 -1.6 C57.1 -1.6 58.7 6.7 58.7 9.8 zM92 9.8 C92 13.7 89.9 17.6 84 17.6 C78 17.6 74.7 11.7 74.7 6.3 C74.7 1.7 77.1 -1.6 82.5 -1.6 C90.4 -1.6 92 6.7 92 9.8 z" />
<glyph unicode="" horiz-adv-x="116.7" d="M101.8 38.2 C88 38.2 84.1 22.2 84.1 13.6 C84.1 5.1 87.7 -1.9 96.8 -1.9 C110.2 -1.9 115 13.8 115 23.3 C115 29.2 112.8 38.2 101.8 38.2 zM101.7 33.2 C103.5 33.2 104.4 31.8 104.4 28.4 C104.4 23.7 102.9 14.2 102.6 12.9 C101.6 7.9 100.7 3.2 97.6 3.1 C94.9 3.2 94.7 6.2 94.7 8.2 C94.7 11.5 96 20.6 96.9 24.9 C98.1 30.3 99 33.2 101.7 33.2 zM66.2 33.2 C68 33.2 68.9 31.8 68.9 28.4 C68.9 23.7 67.4 14.2 67.1 12.9 C66.1 7.9 65.2 3.2 62.1 3.1 C59.4 3.2 59.2 6.2 59.2 8.2 C59.2 11.5 60.5 20.6 61.4 24.9 C62.6 30.3 63.5 33.2 66.2 33.2 zM66.3 38.2 C52.5 38.2 48.6 22.2 48.6 13.6 C48.6 5.1 52.2 -1.9 61.3 -1.9 C74.7 -1.9 79.5 13.8 79.5 23.3 C79.5 29.2 77.3 38.2 66.3 38.2 zM25.9 63.9 C27.7 63.9 28.6 62.5 28.6 59.1 C28.6 54.4 27.1 44.9 26.8 43.6 C25.8 38.6 24.9 33.9 21.8 33.8 C19.1 33.9 18.9 36.9 18.9 38.9 C18.9 42.2 20.2 51.3 21.1 55.6 C22.3 60.9 23.2 63.9 25.9 63.9 zM26 68.9 C12.2 68.9 8.3 52.9 8.3 44.3 C8.3 35.8 11.9 28.8 21 28.8 C34.4 28.8 39.2 44.5 39.2 54 C39.2 59.9 37 68.9 26 68.9 zM13.3 -3.3 C13.425 -3.425 13.675 -3.675 13.8 -3.8 C15.575 -3.8 19.125 -3.8 20.9 -3.8 C21.1 -3.675 21.5 -3.425 21.7 -3.3 C34.925 15.275 61.375 52.425 74.6 71 C74.475 71.125 74.225 71.375 74.1 71.5 C72.325 71.5 68.775 71.5 67 71.5 C66.775 71.375 66.325 71.125 66.1 71 C52.9 52.425 26.5 15.275 13.3 -3.3 z" />
<glyph unicode="" horiz-adv-x="35.2" d="M4.9 23 C9.5 18.4 21.4 5 24.1 1.9 C24.4 1.8 24.775 1.675 25 1.6 C25.6 1.825 26.8 2.275 27.4 2.5 C27.475 2.675 27.625 3.025 27.7 3.2 C24.6 10.4 20.2 20.6 19 23.3 C21.9 27.3 27.9 36 32.8 43 C32.8 43.26667 32.8 43.6 32.8 43.8 C32.175 44.275 30.925 45.225 30.3 45.7 C30.15 45.7 29.85 45.7 29.7 45.7 C21.2 39 13.5 32.3 5.2 26.4 C5.1 25.26667 4.975 23.85 4.9 23 z" />
<glyph unicode="" horiz-adv-x="35.2" d="M30.3 24.3 C25.7 28.9 13.8 42.3 11.1 45.4 C10.8 45.5 10.425 45.625 10.2 45.7 C9.6 45.475 8.4 45.025 7.8 44.8 C7.725 44.625 7.575 44.275 7.5 44.1 C10.6 36.9 15 26.7 16.2 24 C13.3 20 7.3 11.3 2.4 4.3 C2.4 4.03333 2.4 3.7 2.4 3.5 C3.025 3.025 4.275 2.075 4.9 1.6 C5.05 1.6 5.35 1.6 5.5 1.6 C14 8.3 21.7 15 30 20.9 C30.1 22.03333 30.225 23.45 30.3 24.3 z" />
<glyph unicode="" horiz-adv-x="16.7" d="M-16.2 -3.3 C-16.075 -3.425 -15.825 -3.675 -15.7 -3.8 C-13.95 -3.8 -10.45 -3.8 -8.7 -3.8 C-8.55 -3.675 -8.25 -3.425 -8.1 -3.3 C2.15 15.1 22.65 51.9 32.9 70.3 C32.775 70.425 32.525 70.675 32.4 70.8 C30.65 70.8 27.15 70.8 25.4 70.8 C25.275 70.675 25.025 70.425 24.9 70.3 C14.625 51.9 -5.925 15.1 -16.2 -3.3 z" />
<glyph unicode="" horiz-adv-x="59.2" d="M60 64.8 C59.9 65.1 59.7 65.7 59.6 66 C55.1 68.3 48.5 68.9 43.5 68.9 C26.9 68.9 15.4 59.6 10.4 44 C8.2 44.1 6.1 44.3 3.9 44.4 C3.73333 44.23333 3.525 44.025 3.4 43.9 C2.75 42.475 1.45 39.625 0.8 38.2 C0.9 38.075 1.1 37.825 1.2 37.7 C3.8 37.8 6.3 38 8.9 38.1 C8.3 35.1 8 32.1 7.9 29.1 C6 29.2 4.1 29.3 2.2 29.4 C2 29.23333 1.75 29.025 1.6 28.9 C0.975 27.475 -0.275 24.625 -0.9 23.2 C-0.8 23.075 -0.6 22.825 -0.5 22.7 C2.3 22.9 5.1 23.1 7.9 23.2 C8.8 9.2 16.5 -1.9 31.6 -1.9 C38.4 -1.9 45.3 -0.1 51.2 3.3 C51.7 5.5 52.1 7.7 52.7 9.9 C52.06667 10.33333 51.275 10.875 50.8 11.2 C47.1 8.6 42.6 7.1 38.1 7.1 C29.1 7.1 26.1 15.8 26.1 23.1 C30.5 23 34.8 23 39.1 22.7 C39.3 22.86667 39.55 23.075 39.7 23.2 C40.325 24.625 41.575 27.475 42.2 28.9 C42.1 29.025 41.9 29.275 41.8 29.4 C36.6 29.1 31.3 29.1 26.1 29 C26.2 32 26.7 35.1 27.2 38.1 C33.5 38 39.9 38 46.2 37.7 C46.4 37.86667 46.65 38.075 46.8 38.2 C47.425 39.625 48.675 42.475 49.3 43.9 C49.2 44.025 49 44.275 48.9 44.4 C42.1 44 35.2 44.1 28.4 44 C30.2 51.1 34.3 61.8 43.2 61.8 C48.6 61.8 51.8 59.1 51.8 53.5 C51.8 52.8 51.7 52.1 51.7 51.4 C51.83333 51.23333 52 51.025 52.1 50.9 C53.225 50.9 55.475 50.9 56.6 50.9 C56.725 51.025 56.975 51.275 57.1 51.4 C57.8 55.9 58.7 60.4 60 64.8 z" />
<glyph unicode="" horiz-adv-x="47.8" d="M41.5 14.6 C38 10.6 33.5 6.7 28.6 6.7 C22.3 6.7 20.9 11.4 23 23.6 C23.43333 26.06667 23.975 29.15 24.3 31 C36.4 40.2 43.2 47.7 45.2 58.9 C46.5 66.7 44.1 73.3 36.1 73.3 C31.7 73.3 26.8 71.3 22.1 66.3 C16.8 60.9 14.5 55.4 12.1 41.7 C11.3 37.13333 10.3 31.425 9.7 28 C7.625 26.775 3.475 24.325 1.4 23.1 C1.625 22.2 2.075 20.4 2.3 19.5 C3.925 20.4 7.175 22.2 8.8 23.1 C8.575 21.725 8.125 18.975 7.9 17.6 C6.2 8.1 7.3 5.3 9.3 2.3 C11.3 -0.1 14.7 -1.8 20.9 -1.8 C30 -1.8 37.4 3.4 43.7 12.1 C42.96667 12.93333 42.05 13.975 41.5 14.6 zM27.2 47.2 C30.3 64.7 31.5 69.3 34.9 69.3 C37.9 69.3 38.1 64.5 37 58.7 C35.3 49.1 30.8 42.2 25.4 37.1 C26 40.46667 26.75 44.675 27.2 47.2 z" />
<glyph unicode="" horiz-adv-x="100" d="M17.4 36.4 C17.4 33.9 17 32.1 12.2 31.9 C12.2 30.66667 12.2 29.125 12.2 28.2 C17.8 28.2 29 28.2 34.6 28.2 C34.6 29.125 34.6 30.975 34.6 31.9 C29.8 32.1 29.4 33.9 29.4 36.4 C29.4 46.03333 29.4 58.075 29.4 65.3 C30.175 65.3 31.725 65.3 32.5 65.3 C36.3 65.3 38.4 62.1 38.9 59 C38.9 58.9 38.9 58.775 38.9 58.7 C39.825 58.7 41.675 58.7 42.6 58.7 C42.6 61.325 42.6 66.575 42.6 69.2 C33 69.2 13.8 69.2 4.2 69.2 C4.2 66.575 4.2 61.325 4.2 58.7 C5.125 58.7 6.975 58.7 7.9 58.7 C7.9 58.775 7.9 58.925 7.9 59 C8.4 62.1 10.5 65.3 14.3 65.3 C15.33333 65.3 16.625 65.3 17.4 65.3 C17.4 58.075 17.4 43.625 17.4 36.4 zM87 36.4 C87 33.9 86.6 32.1 81.8 31.9 C81.8 30.66667 81.8 29.125 81.8 28.2 C87.4 28.2 98.6 28.2 104.2 28.2 C104.2 29.125 104.2 30.975 104.2 31.9 C99.4 32.1 99 33.9 99 36.4 C99 44.6 99 54.85 99 61 C99 63.5 99.4 65.3 104.2 65.3 C104.2 66.6 104.2 68.225 104.2 69.2 C100.575 69.2 93.325 69.2 89.7 69.2 C86.3 62.575 79.5 49.325 76.1 42.7 C73.025 49.325 66.875 62.575 63.8 69.2 C59.425 69.2 50.675 69.2 46.3 69.2 C46.3 68.225 46.3 66.275 46.3 65.3 C49.4 65.3 53.3 61 53.3 59.6 C53.3 52.33333 53.3 43.25 53.3 37.8 C53.3 34.1 52.9 32.1 48.5 31.9 C48.5 30.66667 48.5 29.125 48.5 28.2 C52.025 28.2 59.075 28.2 62.6 28.2 C62.6 29.125 62.6 30.975 62.6 31.9 C57.9 32.1 57.5 34.1 57.5 38 C57.5 43.9 57.5 51.275 57.5 55.7 C57.55 55.7 57.65 55.7 57.7 55.7 C61.05 48.9 67.75 35.3 71.1 28.5 C71.5 28.5 72.3 28.5 72.7 28.5 C76.225 35.3 83.275 48.9 86.8 55.7 C86.85 55.7 86.95 55.7 87 55.7 C87 50.875 87 41.225 87 36.4 z" />
<glyph unicode="" horiz-adv-x="77.4" d="M72.6 17.8 C71.65 17.825 69.75 17.875 68.8 17.9 C65.6 11.9 64 10.9 59.8 10.9 C56.2 10.9 51.7 10.9 49 10.9 C58.9 17.7 70.5 25.9 72.9 39.3 C76.1 57.7 65.2 69.2 46.6 69.2 C28.2 69.2 12.5 57.4 9.2 38.7 C6.6 23.9 15.8 16.1 22.5 10.9 C19.33333 10.9 15.375 10.9 13 10.9 C8.4 10.9 7.1 12.1 5.9 17.9 C4.63333 17.86667 3.05 17.825 2.1 17.8 C1.975 13.35 1.725 4.45 1.6 0 C8.475 0 22.225 0 29.1 0 C29.45 0.625 30.15 1.875 30.5 2.5 C27.5 12.4 23.7 25.3 25.9 37.8 C29.6 58.6 36.5 65 45.5 65 C54.2 65 59.3 57.8 55.9 38.1 C53.6 25.2 44.2 11.5 38.5 2.4 C38.7 1.6 38.95 0.6 39.1 0 C45.95 0 59.65 0 66.5 0 C68.025 4.45 71.075 13.35 72.6 17.8 z" />
<glyph unicode="" horiz-adv-x="92.8" d="M89.5 32.5 C89.5 32.725 89.5 33.175 89.5 33.4 C89.5 53 71.9 68.7 50.2 68.7 C28.5 68.7 11 53 11 33.4 C11 13.9 28.5 -1.8 50.2 -1.8 C62.8 -1.8 74.2 3.6 81.2 11.9 C79.33333 11.9 77 11.9 75.6 11.9 C69.4 4.7 60.4 0.1 50.3 0.1 C40.9 0.1 32.4 4.2 26.2 10.6 C25.7 11.2 25.4 12 25.4 12.8 C25.4 19.2 25.4 27.2 25.4 32 C25.4 32.4 25.6 32.5 25.9 32.5 C47.1 32.5 73.6 32.5 89.5 32.5 zM75.1 35 C75.1 34.8 75 34.3 74.6 34.3 C58.36667 34.3 38.075 34.3 25.9 34.3 C25.6 34.3 25.4 34.8 25.4 35 C25.4 41.3 25.4 49.175 25.4 53.9 C25.4 54.8 25.7 55.7 26.3 56.3 C32.5 62.6 41 66.7 50.3 66.7 C59.6 66.7 67.9 62.7 74.1 56.6 C74.7 56 75.1 55.2 75.1 54.3 C75.1 47.86667 75.1 39.825 75.1 35 z" />
<glyph unicode="" horiz-adv-x="58.6" d="M31.2 42.6 C24.2 42.6 17.6 39.9 12.5 35.3 C8.3 31.5 4.3 25.6 3 18.3 C0.8 5.9 7.5 -1.8 19.7 -1.8 C31.1 -1.8 39.9 4.4 46.1 13.3 C51.2 20.4 54.3 29.2 55.8 37.5 C56.9 43.8 57.3 53.1 54.2 60.8 C50.6 69.7 43.8 75.3 32.9 75.3 C25.4 75.3 20.6 73.3 16.6 71.3 C14.7 68.2 17.4 61.5 19.5 61.5 C23.9 64.7 30.4 68.8 36.4 68.8 C41.4 68.8 44.5 66.4 45.9 62.8 C47.5 58.1 46.8 52.9 45.7 48.1 C44.9 44.4 43.6 40.1 42.5 37 C40.4 40.7 35.8 42.6 31.3 42.6 C31.26667 42.6 31.225 42.6 31.2 42.6 zM33.9 37.3 C37.6 37.3 39.8 34.2 40.5 31.9 C37.9 23.7 35.6 18.2 32.1 12.4 C29.2 7.8 25.1 2.3 21 2.3 C16.6 2.3 15 5.5 16 11.4 C17.3 18.6 20.2 26.6 24 31.8 C27.7 36.5 31 37.3 33.8 37.3 C33.83333 37.3 33.875 37.3 33.9 37.3 z" />
<glyph unicode="" horiz-adv-x="69.1" d="M61 0 C61.175 1 61.525 3 61.7 4 C57.525 20.3 49.175 52.9 45 69.2 C43.275 68.8 39.825 68 38.1 67.6 C28.55 51.7 9.45 19.9 -0.1 4 C-0.275 3 -0.625 1 -0.8 0 C14.65 0 45.55 0 61 0 zM44 6.8 C35 6.8 17 6.8 8 6.8 C14.35 17.675 27.05 39.425 33.4 50.3 C36.05 39.425 41.35 17.675 44 6.8 z" />
<glyph unicode="" horiz-adv-x="83.8" d="M81.1 69.3 C63.35 69.3 27.85 69.3 10.1 69.3 C10.1 68.375 10.1 66.525 10.1 65.6 C19.2 65 20 64 20 55.6 C20 39.06667 20 18.4 20 6 C20 -2.7 19.1 -3.8 10.5 -4.5 C10.5 -5.73333 10.5 -7.275 10.5 -8.2 C18.4 -8.2 34.2 -8.2 42.1 -8.2 C42.1 -7.275 42.1 -5.425 42.1 -4.5 C35.2 -3.8 35.1 -2.7 35.1 6 C35.1 24.4 35.1 47.4 35.1 61.2 C35.1 64.3 35.5 64.7 38.7 64.7 C43.3 64.7 49.05 64.7 52.5 64.7 C55.9 64.7 56.4 64.3 56.4 60.9 C56.4 42.6 56.4 19.725 56.4 6 C56.4 -3.2 56 -3.8 48.7 -4.5 C48.7 -5.73333 48.7 -7.275 48.7 -8.2 C56.775 -8.2 72.925 -8.2 81 -8.2 C81 -7.275 81 -5.425 81 -4.5 C72.3 -3.7 71.5 -2.8 71.5 6.1 C71.5 22.6 71.5 43.225 71.5 55.6 C71.5 63.8 72.2 64.9 81.1 65.6 C81.1 66.83333 81.1 68.375 81.1 69.3 z" />
<glyph unicode="" horiz-adv-x="67.5" d="M65.3 14.1 C64.35 14.35 62.45 14.85 61.5 15.1 C56.6 3.6 55.5 3.1 46.1 3.1 C38.13333 3.1 28.175 3.1 22.2 3.1 C27.9 11.075 39.3 27.025 45 35 C40.925 42.475 32.775 57.425 28.7 64.9 C32.175 64.9 39.125 64.9 42.6 64.9 C50.2 64.9 51.8 63.9 53.5 60.8 C55.1 58.1 56.5 54.2 57.6 49.9 C58.86667 50.16667 60.45 50.5 61.4 50.7 C60.9 58.1 60.2 67.5 60.1 69.3 C43.66667 69.3 23.125 69.3 10.8 69.3 C10.8 68.35 10.8 66.45 10.8 65.5 C16.25 55.425 27.15 35.275 32.6 25.2 C27.025 17.55 15.875 2.25 10.3 -5.4 C10.3 -6.325 10.3 -8.175 10.3 -9.1 C22.775 -9.1 47.725 -9.1 60.2 -9.1 C61.475 -3.3 64.025 8.3 65.3 14.1 z" />
<glyph unicode="" horiz-adv-x="60" d="M55.3 19.3 C55.3 22.3 55.3 28.3 55.3 31.3 C42.65 31.3 17.35 31.3 4.7 31.3 C4.7 28.3 4.7 22.3 4.7 19.3 C17.35 19.3 42.65 19.3 55.3 19.3 z" />
<glyph unicode="" horiz-adv-x="16.7" d="M-16.2 -3.3 C-16.075 -3.425 -15.825 -3.675 -15.7 -3.8 C-13.95 -3.8 -10.45 -3.8 -8.7 -3.8 C-8.55 -3.675 -8.25 -3.425 -8.1 -3.3 C2.15 15.1 22.65 51.9 32.9 70.3 C32.775 70.425 32.525 70.675 32.4 70.8 C30.65 70.8 27.15 70.8 25.4 70.8 C25.275 70.675 25.025 70.425 24.9 70.3 C14.625 51.9 -5.925 15.1 -16.2 -3.3 z" />
<glyph unicode="" horiz-adv-x="29.6" d="M6.1 27.8 C6.1 23.2 9.8 19.5 14.4 19.5 C19 19.5 22.7 23.2 22.7 27.8 C22.7 32.4 19 36.1 14.4 36.1 C9.8 36.1 6.1 32.4 6.1 27.8 z" />
<glyph unicode="" horiz-adv-x="66.2" d="M65.6 85.8 C64.225 86.075 61.475 86.625 60.1 86.9 C56.625 67.05 49.675 27.35 46.2 7.5 C46.15 7.5 46.05 7.5 46 7.5 C42.4 16.825 35.2 35.475 31.6 44.8 C26.55 42.575 16.45 38.125 11.4 35.9 C11.75 34.775 12.45 32.525 12.8 31.4 C15.075 32.425 19.625 34.475 21.9 35.5 C27.375 22.15 38.325 -4.55 43.8 -17.9 C44.65 -17.55 46.35 -16.85 47.2 -16.5 C51.8 9.075 61 60.225 65.6 85.8 z" />
<glyph unicode="" horiz-adv-x="80.8" d="M76.3 28.2 C76.3 38.6 69.1 45.2 60.3 45.2 C51.2 45.3 46.3 38.8 42.7 34.7 C37.7 41.4 32.4 45.2 25.1 45.2 C15.4 45.2 8 38.1 8 27.5 C8 17 15.8 10.1 24.2 10.1 C32.1 10.1 37.2 14.6 42.3 21.1 C48.7 11.9 54.5 10.1 59.8 10.1 C68.2 10.1 76.3 16.7 76.3 28.1 C76.3 28.13333 76.3 28.175 76.3 28.2 zM25.1 18.3 C20.2 18.3 16.3 22.5 16.3 27.5 C16.3 33.4 19.8 37.2 24.9 37.2 C31 37.2 34 32.6 37.8 27.1 C34.3 22.7 30.4 18.3 25.3 18.3 C25.23333 18.3 25.15 18.3 25.1 18.3 zM59.5 37.2 C64.7 37.2 67.9 32.9 67.9 27.4 C67.9 23.5 65.1 18.3 60 18.3 C55.4 18.3 52.5 20.4 46.8 27.9 C49.8 31.5 53.8 37.2 59.4 37.2 C59.43333 37.2 59.475 37.2 59.5 37.2 z" />
<glyph unicode="" horiz-adv-x="50.4" d="M24.4 -2 C24.9 -10.5 24.4 -15.8 22 -15.8 C19.8 -15.8 20 -8 16.4 -8 C12.9 -8 8.7 -10.9 8.8 -15.1 C8.8 -18.6 12.5 -21.5 16.9 -21.5 C28.4 -21.5 38.6 -7.9 36.7 26.1 C36.06667 38.1 35.275 53.1 34.8 62.1 C34.1 74 35.2 76.5 37 76.5 C39.2 76.5 38.8 69.4 43.1 69.4 C46.2 69.4 49.6 71.5 49.6 76 C49.6 80.1 45 82.2 41.3 82.2 C33.1 82.2 20.1 75 22.2 36.9 C22.93333 23.93333 23.85 7.725 24.4 -2 z" />
<glyph unicode="" horiz-adv-x="58.7" d="M49.8 45.6 C47 41.5 44.5 38.6 40.8 38.6 C38 38.6 36.3 39.8 32.5 42.2 C29.9 43.8 26.9 45.6 22.2 45.6 C15.7 45.6 9.6 40.8 6.6 35.2 C8.46667 33.43333 10.8 31.225 12.2 29.9 C14.8 33.4 17.4 36.9 21.7 36.9 C24.9 36.9 27.3 35.4 30 33.6 C34.1 31.1 36.9 29.9 41.1 29.9 C46.4 29.9 51.7 34 55.4 40.3 C53.53333 42.06667 51.2 44.275 49.8 45.6 zM49.8 26.3 C46.8 22.1 44.5 19.3 40.7 19.3 C37.6 19.3 35.4 21.2 32.4 23 C29.9 24.4 27 26.2 22.2 26.2 C15.8 26.2 9.6 21.5 6.6 15.9 C8.46667 14.13333 10.8 11.925 12.2 10.6 C14.8 14.1 17.2 17.6 21.7 17.6 C24.8 17.6 27 16.2 30 14.3 C33.9 11.9 36.8 10.5 41 10.5 C46.6 10.5 51.8 14.7 55.4 21 C53.53333 22.76667 51.2 24.975 49.8 26.3 z" />
<glyph unicode="" horiz-adv-x="60.2" d="M46.4 50.7 C44.675 51.425 41.225 52.875 39.5 53.6 C38.3 50.875 35.9 45.425 34.7 42.7 C28.45 42.7 15.95 42.7 9.7 42.7 C9.7 40.5 9.7 36.1 9.7 33.9 C15.1 33.9 25.9 33.9 31.3 33.9 C29.95 30.75 27.25 24.45 25.9 21.3 C21.85 21.3 13.75 21.3 9.7 21.3 C9.7 19.125 9.7 14.775 9.7 12.6 C12.875 12.6 19.225 12.6 22.4 12.6 C21.5 10.55 19.7 6.45 18.8 4.4 C20.55 3.675 24.05 2.225 25.8 1.5 C27 4.275 29.4 9.825 30.6 12.6 C36.85 12.6 49.35 12.6 55.6 12.6 C55.6 14.775 55.6 19.125 55.6 21.3 C50.225 21.3 39.475 21.3 34.1 21.3 C35.45 24.45 38.15 30.75 39.5 33.9 C43.525 33.9 51.575 33.9 55.6 33.9 C55.6 36.1 55.6 40.5 55.6 42.7 C52.425 42.7 46.075 42.7 42.9 42.7 C43.775 44.7 45.525 48.7 46.4 50.7 z" />
<glyph unicode="" horiz-adv-x="62" d="M57.2 10.7 C57.2 13.2 57.2 18.2 57.2 20.7 C48.05 24.8 29.75 33 20.6 37.1 C20.6 37.15 20.6 37.25 20.6 37.3 C29.725 41.4 47.975 49.6 57.1 53.7 C57.1 56.175 57.1 61.125 57.1 63.6 C45.775 58.175 23.125 47.325 11.8 41.9 C11.8 39.55 11.8 34.85 11.8 32.5 C23.15 27.05 45.85 16.15 57.2 10.7 zM57.5 -1.7 C57.5 0.525 57.5 4.975 57.5 7.2 C46.025 7.2 23.075 7.2 11.6 7.2 C11.6 4.975 11.6 0.525 11.6 -1.7 C23.075 -1.7 46.025 -1.7 57.5 -1.7 z" />
<glyph unicode="" horiz-adv-x="61.9" d="M12 63.6 C12 61.125 12 56.175 12 53.7 C21.125 49.6 39.375 41.4 48.5 37.3 C48.5 37.25 48.5 37.15 48.5 37.1 C39.375 32.975 21.125 24.725 12 20.6 C12 18.125 12 13.175 12 10.7 C23.325 16.125 45.975 26.975 57.3 32.4 C57.3 34.75 57.3 39.45 57.3 41.8 C45.975 47.25 23.325 58.15 12 63.6 zM57.2 -1.7 C57.2 0.525 57.2 4.975 57.2 7.2 C45.8 7.2 23 7.2 11.6 7.2 C11.6 4.975 11.6 0.525 11.6 -1.7 C23 -1.7 45.8 -1.7 57.2 -1.7 z" />
</font>
</svg>
