<?xml version="1.0" standalone="no"?>
<svg>
<font id="PalatinoLTStd-MediumItalic" horiz-adv-x="25" >
<font-face units-per-em="100" ascent="80" descent="-20" />
<glyph unicode=" " horiz-adv-x="25" d="" />
<glyph unicode="!" horiz-adv-x="25" d="M1.2 4.1 C1.2 1.4 2.5 -1.1 5.8 -1.1 C9.9 -1.1 13.1 2.5 13.1 7.7 C13.1 10.3 11.3 12.8 8.5 12.8 C5.5 12.8 1.2 9.8 1.2 4.1 zM8.2 19.3 C9.2 19.85 11.2 20.95 12.2 21.5 C14.6 32.2 21.4 57.4 25.7 69.5 C25.3 69.83333 24.8 70.25 24.5 70.5 C22.4 69.5 19.4 68.4 13.4 67.8 C12.9 58.7 9.8 31 7.4 19.8 C7.66667 19.63333 8 19.425 8.2 19.3 z" />
<glyph unicode="&#x22;" horiz-adv-x="50" d="M16.3 46.7 C16.6 43.5 17.6 42.7 19.3 42.7 C20.9 42.7 21.9 43.5 22.3 46.7 C22.66667 49.83333 23.125 53.75 23.4 56.1 C24 61.6 24.3 64 24.3 65.5 C24.3 69.2 22.5 70.7 19.3 70.7 C16 70.7 14.3 69.2 14.3 65.5 C14.3 64 14.5 61.6 15.1 56.1 C15.5 52.96667 16 49.05 16.3 46.7 zM34.3 46.7 C34.6 43.5 35.6 42.7 37.3 42.7 C38.9 42.7 39.9 43.5 40.3 46.7 C40.66667 49.83333 41.125 53.75 41.4 56.1 C42 61.6 42.3 64 42.3 65.5 C42.3 69.2 40.5 70.7 37.3 70.7 C34 70.7 32.3 69.2 32.3 65.5 C32.3 64 32.5 61.6 33.1 56.1 C33.5 52.96667 34 49.05 34.3 46.7 z" />
<glyph unicode="#" horiz-adv-x="50" d="M31.1 27.1 C27.975 27.1 21.725 27.1 18.6 27.1 C19.075 30.375 20.025 36.925 20.5 40.2 C23.625 40.2 29.875 40.2 33 40.2 C32.525 36.925 31.575 30.375 31.1 27.1 zM7.8 0 C9.55 0 13.05 0 14.8 0 C15.525 5.075 16.975 15.225 17.7 20.3 C20.825 20.3 27.075 20.3 30.2 20.3 C29.475 15.225 28.025 5.075 27.3 0 C29.025 0 32.475 0 34.2 0 C34.925 5.075 36.375 15.225 37.1 20.3 C39.275 20.3 43.625 20.3 45.8 20.3 C46.05 22 46.55 25.4 46.8 27.1 C44.625 27.1 40.275 27.1 38.1 27.1 C38.55 30.375 39.45 36.925 39.9 40.2 C42.075 40.2 46.425 40.2 48.6 40.2 C48.85 41.9 49.35 45.3 49.6 47 C47.425 47 43.075 47 40.9 47 C41.625 52.075 43.075 62.225 43.8 67.3 C42.05 67.3 38.55 67.3 36.8 67.3 C36.075 62.225 34.625 52.075 33.9 47 C30.775 47 24.525 47 21.4 47 C22.125 52.075 23.575 62.225 24.3 67.3 C22.575 67.3 19.125 67.3 17.4 67.3 C16.675 62.225 15.225 52.075 14.5 47 C12.325 47 7.975 47 5.8 47 C5.55 45.3 5.05 41.9 4.8 40.2 C6.975 40.2 11.325 40.2 13.5 40.2 C13.05 36.925 12.15 30.375 11.7 27.1 C9.525 27.1 5.175 27.1 3 27.1 C2.75 25.4 2.25 22 2 20.3 C4.175 20.3 8.525 20.3 10.7 20.3 C9.975 15.225 8.525 5.075 7.8 0 z" />
<glyph unicode="$" horiz-adv-x="50" d="M26.8 29.6 C32.7 28.1 37.3 25.8 37.3 19.4 C37.3 10.1 31.2 4.4 22.6 3.7 C24 12.33333 25.75 23.125 26.8 29.6 zM24.2 40 C17.9 41.6 14.5 43.9 14.5 50.8 C14.5 59.6 21 64.5 28.3 65.2 C26.93333 56.8 25.225 46.3 24.2 40 zM16 -11.5 C16.125 -11.6 16.375 -11.8 16.5 -11.9 C17.3 -11.9 18.9 -11.9 19.7 -11.9 C19.825 -11.8 20.075 -11.6 20.2 -11.5 C20.6 -8.975 21.4 -3.925 21.8 -1.4 C34.2 0.6 46.6 10.4 46.6 23.2 C46.6 33.7 38.8 36.7 28.5 38.9 C28.4 38.9 28.4 38.9 28.3 39 C29.7 47.66667 31.45 58.5 32.5 65 C37.8 64.5 41 62.1 41.6 61.4 C42.2 60.6 42.2 56.4 42.3 54.2 C42.4 54.1 42.525 53.975 42.6 53.9 C43.225 53.9 44.475 53.9 45.1 53.9 C45.175 53.975 45.325 54.125 45.4 54.2 C45.9 58.5 46.6 63 47.8 67.2 C47.7 67.36667 47.575 67.575 47.5 67.7 C44.5 69.4 39.3 70.5 34.1 70.5 C33.9 70.5 33.7 70.5 33.4 70.4 C33.86667 73.5 34.45 77.375 34.8 79.7 C34.725 79.775 34.575 79.925 34.5 80 C33.65 80 31.95 80 31.1 80 C30.975 79.925 30.725 79.775 30.6 79.7 C30.225 77.275 29.475 72.425 29.1 70 C17 68.2 6.1 59.7 6.1 45.4 C6.1 35.9 13.4 32.2 21.1 30.8 C21.63333 30.7 22.3 30.575 22.7 30.5 C21.625 23.775 19.475 10.325 18.4 3.6 C12 4.2 7.3 7.1 6.3 8.4 C5.7 9.2 5.7 14.4 5.7 17.3 C5.6 17.4 5.475 17.525 5.4 17.6 C4.75 17.6 3.45 17.6 2.8 17.6 C2.725 17.525 2.575 17.375 2.5 17.3 C1.9 11.9 1.2 6.6 0.2 2.4 C0.3 2.2 0.425 1.95 0.5 1.8 C4.4 0 11 -1.9 17 -1.9 C17.16667 -1.9 17.375 -1.9 17.5 -1.9 C17.125 -4.3 16.375 -9.1 16 -11.5 z" />
<glyph unicode="%" horiz-adv-x="88.9" d="M13.4 38.8 C13.4 45.2 14.6 52.3 16.2 58.5 C17.6 63.8 20 66.9 23.7 66.9 C26.8 66.9 29.1 65.1 29.1 58.8 C29.1 54 27.7 44.7 26.6 40.6 C25.1 34.7 23 31.1 18.8 31.1 C15.5 31.1 13.4 33.9 13.4 38.8 zM6.3 42.3 C6.3 32.1 10.5 28.9 17.9 28.9 C31.8 28.9 36.2 45.9 36.2 55.6 C36.2 64.3 32.5 69.1 24.5 69.1 C11.2 69.1 6.3 53.8 6.3 42.3 zM60.9 8.1 C60.9 14.5 62.1 21.6 63.7 27.8 C65.1 33.1 67.5 36.2 71.2 36.2 C74.3 36.2 76.6 34.4 76.6 28.1 C76.6 23.3 75.2 14 74.1 9.9 C72.6 4 70.5 0.4 66.3 0.4 C63 0.4 60.9 3.2 60.9 8.1 zM53.8 11.6 C53.8 1.4 58 -1.8 65.4 -1.8 C79.3 -1.8 83.7 15.2 83.7 24.9 C83.7 33.6 80 38.4 72 38.4 C58.7 38.4 53.8 23.1 53.8 11.6 zM19.9 -3.2 C19.95 -3.3 20.05 -3.5 20.1 -3.6 C21.25 -3.6 23.55 -3.6 24.7 -3.6 C24.825 -3.5 25.075 -3.3 25.2 -3.2 C36.175 15.225 58.125 52.075 69.1 70.5 C69.05 70.6 68.95 70.8 68.9 70.9 C67.75 70.9 65.45 70.9 64.3 70.9 C64.175 70.8 63.925 70.6 63.8 70.5 C52.825 52.075 30.875 15.225 19.9 -3.2 z" />
<glyph unicode="&#x26;" horiz-adv-x="81.5" d="M71.6 50.9 C71.6 50.8 71.6 50.6 71.6 50.5 C74.5 49.2 75.7 47.5 75.7 45.8 C75.7 34.7 50.5 40.9 40.1 31.8 C40 27.8 39.7 24.3 38.9 20.1 C39 20 39.125 19.875 39.2 19.8 C39.95 19.725 41.45 19.575 42.2 19.5 C42.275 19.575 42.425 19.725 42.5 19.8 C43.2 25.9 45.1 29.1 50.4 29.1 C53.4 29.1 58.8 27 58.8 20.6 C58.8 11.4 47.8 3.8 35.5 3.8 C22.1 3.8 16.9 13.6 16.9 19.8 C16.9 31.1 26.8 36.6 35.6 36.6 C37.1 36.6 38.975 36.6 40.1 36.6 C40.6 38.4 41.3 40.2 42.2 42.1 C42.1 42.33333 41.975 42.625 41.9 42.8 C40.5 42.5 39.1 42.3 37.6 42.3 C32.4 42.3 27.9 46.3 27.9 51.9 C27.9 58.2 31.7 63.5 39.8 63.5 C43.8 63.5 47.1 61.8 47.9 61 C48.5 60.4 48.5 56 48.5 54.1 C48.6 54 48.725 53.875 48.8 53.8 C49.475 53.725 50.825 53.575 51.5 53.5 C51.575 53.575 51.725 53.725 51.8 53.8 C52.4 58.7 53.1 62.2 54.2 67.3 C51.6 68.5 46.8 69.4 44.2 69.4 C34.9 69.4 19.8 60.5 19.8 49.8 C19.8 43.8 23.3 40.6 28.2 39.4 C28.2 39.33333 28.2 39.25 28.2 39.2 C18.6 37.8 6.9 29.7 6.9 18.2 C6.9 6.9 15.7 -1.2 31.5 -1.2 C42.9 -1.2 50.3 2.4 55.8 6 C62.9 10.7 67.4 16.2 67.4 21.1 C67.4 26 64.1 30.4 59.6 30.7 C59.6 30.76667 59.6 30.85 59.6 30.9 C70.6 31.6 80.5 35.4 80.5 43.8 C80.5 48.4 77.6 51.5 74 53.2 C73.9 53.2 73.775 53.2 73.7 53.2 C73.175 52.625 72.125 51.475 71.6 50.9 z" />
<glyph unicode="'" horiz-adv-x="27.8" d="M14.3 46.7 C14.6 43.5 15.6 42.7 17.3 42.7 C18.9 42.7 19.9 43.5 20.3 46.7 C20.66667 49.83333 21.125 53.75 21.4 56.1 C22 61.6 22.3 64 22.3 65.5 C22.3 69.2 20.5 70.7 17.3 70.7 C14 70.7 12.3 69.2 12.3 65.5 C12.3 64 12.5 61.6 13.1 56.1 C13.5 52.96667 14 49.05 14.3 46.7 z" />
<glyph unicode="(" horiz-adv-x="33.3" d="M25 -9.4 C25.025 -9.3 25.075 -9.1 25.1 -9 C20.9 -0.7 17.9 8.4 17.9 21.2 C17.9 45.2 27.2 59.6 38.5 70.7 C38.5 70.86667 38.5 71.075 38.5 71.2 C38.05 71.65 37.15 72.55 36.7 73 C36.575 73 36.325 73 36.2 73 C19.8 60.2 9 43.4 9 26.2 C9 13.2 15.2 1 22.7 -10.8 C22.83333 -10.8 23 -10.8 23.1 -10.8 C23.575 -10.45 24.525 -9.75 25 -9.4 z" />
<glyph unicode=")" horiz-adv-x="33.3" d="M-1.4 -10.8 C-1.275 -10.8 -1.025 -10.8 -0.9 -10.8 C15.5 2 26.3 18.8 26.3 36 C26.3 49 20.1 61.2 12.6 73 C12.46667 73 12.3 73 12.2 73 C11.725 72.65 10.775 71.95 10.3 71.6 C10.275 71.5 10.225 71.3 10.2 71.2 C14.4 62.9 17.4 53.8 17.4 41 C17.4 17 8.1 2.6 -3.2 -8.5 C-3.2 -8.66667 -3.2 -8.875 -3.2 -9 C-2.75 -9.45 -1.85 -10.35 -1.4 -10.8 z" />
<glyph unicode="*" horiz-adv-x="38.9" d="M22.2 55.2 C19.475 58.025 14.025 63.675 11.3 66.5 C11.075 66.5 10.625 66.5 10.4 66.5 C9.2 64.1 8 62 6.3 59.7 C6.4 59.43333 6.525 59.1 6.6 58.9 C10.175 57.4 17.325 54.4 20.9 52.9 C17.5 51.375 10.7 48.325 7.3 46.8 C7.2 46.625 7 46.275 6.9 46.1 C9.2 43.2 9.7 42.4 11.3 39 C11.5 38.96667 11.75 38.925 11.9 38.9 C14.5 41.85 19.7 47.75 22.3 50.7 C22.9 47.05 24.1 39.75 24.7 36.1 C24.9 36 25.3 35.8 25.5 35.7 C27.5 37.2 30.8 38.7 32.8 39.2 C32.9 39.4 33.025 39.65 33.1 39.8 C31.075 42.8 27.025 48.8 25 51.8 C28.875 51.45 36.625 50.75 40.5 50.4 C40.625 50.55 40.875 50.85 41 51 C40.4 53.1 40.2 55.5 40 59 C39.83333 59.1 39.625 59.225 39.5 59.3 C35.825 58.1 28.475 55.7 24.8 54.5 C26.525 57.95 29.975 64.85 31.7 68.3 C31.625 68.45 31.475 68.75 31.4 68.9 C28.1 69.3 26.1 69.7 23.7 70.7 C23.5 70.53333 23.25 70.325 23.1 70.2 C22.875 66.45 22.425 58.95 22.2 55.2 z" />
<glyph unicode="+" horiz-adv-x="60" d="M26.1 29.2 C20.75 29.2 10.05 29.2 4.7 29.2 C4.7 27.25 4.7 23.35 4.7 21.4 C10.05 21.4 20.75 21.4 26.1 21.4 C26.1 16.05 26.1 5.35 26.1 0 C28.05 0 31.95 0 33.9 0 C33.9 5.35 33.9 16.05 33.9 21.4 C39.25 21.4 49.95 21.4 55.3 21.4 C55.3 23.35 55.3 27.25 55.3 29.2 C49.95 29.2 39.25 29.2 33.9 29.2 C33.9 34.55 33.9 45.25 33.9 50.6 C31.95 50.6 28.05 50.6 26.1 50.6 C26.1 45.25 26.1 34.55 26.1 29.2 z" />
<glyph unicode="," horiz-adv-x="25" d="M-4.9 -15.9 C-3.85 -15.6 -1.75 -15 -0.7 -14.7 C6.6 -6.2 12.7 3.5 16.4 12.1 C16.06667 12.46667 15.65 12.925 15.4 13.2 C13.4 12.3 8.3 10.7 4.6 10.1 C2.5 0.7 -0.6 -6.3 -5.8 -14.9 C-5.5 -15.23333 -5.125 -15.65 -4.9 -15.9 z" />
<glyph unicode="-" horiz-adv-x="38.9" d="M3.5 20.4 C7.3 20.9 10.7 21 18.1 21 C23.5 21 27.8 20.9 31.4 20.7 C32.3 23.3 33.2 25.8 34.2 28.4 C34.03333 28.6 33.825 28.85 33.7 29 C31.2 28.6 22.5 28.3 16.1 28.3 C12.1 28.3 8.5 28.4 5.8 28.7 C4.9 26.1 4 23.6 3 21 C3.16667 20.8 3.375 20.55 3.5 20.4 z" />
<glyph unicode="." horiz-adv-x="25" d="M2.6 4.2 C2.6 1.5 3.9 -1 7.2 -1 C11.3 -1 14.5 2.6 14.5 7.8 C14.5 10.4 12.7 12.9 9.9 12.9 C6.9 12.9 2.6 9.9 2.6 4.2 z" />
<glyph unicode="/" horiz-adv-x="33.3" d="M-2.2 -4.2 C-2.125 -4.325 -1.975 -4.575 -1.9 -4.7 C-0.025 -4.7 3.725 -4.7 5.6 -4.7 C5.75 -4.575 6.05 -4.325 6.2 -4.2 C13.8 14.7 29 52.5 36.6 71.4 C36.525 71.525 36.375 71.775 36.3 71.9 C34.425 71.9 30.675 71.9 28.8 71.9 C28.65 71.775 28.35 71.525 28.2 71.4 C20.6 52.5 5.4 14.7 -2.2 -4.2 z" />
<glyph unicode="0" horiz-adv-x="50" d="M2.6 21.8 C2.6 3.8 10.1 -1.8 20 -1.8 C41.8 -1.8 49.4 28.2 49.4 45.3 C49.4 60.7 42.8 69.1 31.5 69.1 C11.2 69.1 2.6 42.2 2.6 21.8 zM12 15.4 C12 26.6 14.2 39.4 17 50.2 C19.4 59.5 23.6 64.9 30.3 64.9 C35.7 64.9 39.8 62 39.8 50.8 C39.8 42.3 37.1 25.8 35.3 18.6 C32.7 8.1 28.9 1.9 21.5 1.9 C15.6 1.9 12 7 12 15.4 z" />
<glyph unicode="1" horiz-adv-x="50" d="M5.7 0 C5.775 -0.075 5.925 -0.225 6 -0.3 C11.9 -0.1 17.7 0 23.6 0 C29.4 0 35.3 -0.1 41.1 -0.3 C41.23333 -0.2 41.4 -0.075 41.5 0 C41.6 0.6 41.8 1.8 41.9 2.4 C41.825 2.475 41.675 2.625 41.6 2.7 C28.3 4.3 28.1 4.7 28.1 8.3 C28.1 12.4 35.5 54 38.3 67.9 C37.93333 68.3 37.475 68.8 37.2 69.1 C27.6 65.5 18 62.6 8.3 60.2 C7.9 57.6 7.4 55 6.8 52.4 C7 52.23333 7.25 52.025 7.4 51.9 C11.9 54.5 20.6 58.7 27.2 61.4 C20 16.2 18.4 7.8 17 5.6 C15.9 3.9 14.3 3.3 6.5 2.7 C6.36667 2.6 6.2 2.475 6.1 2.4 C6 1.8 5.8 0.6 5.7 0 z" />
<glyph unicode="2" horiz-adv-x="50" d="M-0.7 0 C-0.625 -0.075 -0.475 -0.225 -0.4 -0.3 C6.4 -0.1 13.1 0.3 19.9 0.3 C26.7 0.3 33.4 -0.1 40.2 -0.3 C40.33333 -0.2 40.5 -0.075 40.6 0 C41.2 3 42 5.7 42.8 8.5 C42.66667 8.73333 42.5 9.025 42.4 9.2 C36.7 8.4 30.9 8 19.2 8 C16.4 8 13.3 8.1 10.5 8.1 C38.4 34.8 44.2 42.4 44.2 52.2 C44.2 62.7 36.5 69.1 26.8 69.1 C21.9 69.1 16.2 67.6 11.3 64.4 C9.7 60 7.8 55.8 6 51.9 C6.03333 51.73333 6.075 51.525 6.1 51.4 C6.775 51.125 8.125 50.575 8.8 50.3 C8.9 50.35 9.1 50.45 9.2 50.5 C12.7 57.9 18.2 61.2 23.9 61.2 C30.3 61.2 35.3 56.6 35.3 50.4 C35.3 40.2 28.4 31 -0.5 1.8 C-0.56667 1.2 -0.65 0.45 -0.7 0 z" />
<glyph unicode="3" horiz-adv-x="50" d="M10.7 32.8 C13.2 34.2 16.1 35.1 19.1 35.1 C27.5 35.1 33.6 30.3 33.6 22.6 C33.6 11.8 27 1.7 16.4 1.7 C9.7 1.7 5.4 5.4 5.4 11.9 C5.4 13.6 5.7 15.4 5.9 16.8 C5.8 16.93333 5.675 17.1 5.6 17.2 C4.875 17.3 3.425 17.5 2.7 17.6 C2.6 17.525 2.4 17.375 2.3 17.3 C1.6 12.8 0.6 7.9 -0.5 3.2 C3.9 0.3 9.7 -1.8 15.3 -1.8 C28.9 -1.8 43.8 7.9 43.8 22.9 C43.8 31.9 37.7 36.9 27.8 38.4 C27.8 38.46667 27.8 38.55 27.8 38.6 C36.2 41.6 42.9 48.3 42.9 55.9 C42.9 64.7 35.2 69.1 27 69.1 C23 69.1 18.1 67.5 14.5 65.7 C12.4 62.1 10.2 58.6 8.1 55.3 C8.1 55.13333 8.1 54.925 8.1 54.8 C8.675 54.4 9.825 53.6 10.4 53.2 C10.525 53.225 10.775 53.275 10.9 53.3 C15.5 60.3 18.1 62.5 24.6 62.5 C30.3 62.5 33.6 58.1 33.6 52.8 C33.6 43.5 23.8 39.3 18.4 39.3 C15.7 39.3 14 39.6 12.4 39.9 C11.8 37.7 11 35.5 10.1 33.5 C10.3 33.26667 10.55 32.975 10.7 32.8 z" />
<glyph unicode="4" horiz-adv-x="50" d="M11.2 0 C11.275 -0.075 11.425 -0.225 11.5 -0.3 C17 -0.1 22.4 0 27.9 0 C33.3 0 38.8 -0.1 44.2 -0.3 C44.33333 -0.2 44.5 -0.075 44.6 0 C44.7 0.6 44.9 1.8 45 2.4 C44.925 2.475 44.775 2.625 44.7 2.7 C33.5 3.9 32.7 4.5 32.7 6.5 C32.7 8.3 32.9 10 34.5 18.8 C37.3 18.8 44.5 18.8 46.7 18.3 C46.83333 18.36667 47 18.45 47.1 18.5 C47.6 20.7 48.2 23 49 25.3 C48.8 25.43333 48.55 25.6 48.4 25.7 C45.2 25.3 39.8 25.3 35.5 25.3 C37.6 39 41.2 59.7 43.5 68.2 C43.26667 68.5 42.975 68.875 42.8 69.1 C39.5 68.4 36.3 67.8 33 66.9 C20.5 52.3 9.1 37 -0.8 21.7 C-0.83333 20.76667 -0.875 19.6 -0.9 18.9 C-0.825 18.8 -0.675 18.6 -0.6 18.5 C2.4 18.8 5.7 18.8 25.5 18.8 C25.2 16.1 23.3 6.8 22.5 5.6 C21.4 3.9 19.8 3.3 12 2.7 C11.86667 2.6 11.7 2.475 11.6 2.4 C11.5 1.8 11.3 0.6 11.2 0 zM26.7 25.3 C21.825 25.3 12.075 25.3 7.2 25.3 C7.15 25.4 7.05 25.6 7 25.7 C15.2 37.6 23.8 49.4 32.8 60.6 C32.9 60.5 33.025 60.375 33.1 60.3 C31.5 51.55 28.3 34.05 26.7 25.3 z" />
<glyph unicode="5" horiz-adv-x="50" d="M10.2 31.3 C13.7 35.5 18.7 37.5 22.3 37.5 C30.8 37.5 34.4 31.3 34.4 25.1 C34.4 11.1 25.3 2.1 17.5 2.1 C10.6 2.1 5.6 6.3 5.6 12.7 C5.6 14.5 5.7 16 5.8 16.6 C5.7 16.73333 5.575 16.9 5.5 17 C4.875 17.15 3.625 17.45 3 17.6 C2.9 17.525 2.7 17.375 2.6 17.3 C1.7 12.8 1 7.9 -0.3 3.1 C4.3 0 9.6 -1.6 14.9 -1.6 C28.1 -1.6 44.2 8.8 44.2 25.4 C44.2 36.1 36.9 42.8 26.8 42.8 C19.7 42.8 16.3 40.4 12.4 37.9 C13.93333 45.13333 15.85 54.175 17 59.6 C22.2 59.3 27.4 59.1 32.5 59.1 C36.6 59.1 41.7 59.4 44.8 59.6 C45.2 60.7 47.8 66 48.5 67.2 C48.43333 67.43333 48.35 67.725 48.3 67.9 C45.5 67.5 41.2 67.3 33.6 67.3 C24.5 67.3 21.1 67.4 14.6 68.1 C14.33333 67.93333 14 67.725 13.8 67.6 C11.9 56 10.3 44.3 7.5 32.7 C8.4 32.23333 9.525 31.65 10.2 31.3 z" />
<glyph unicode="6" horiz-adv-x="50" d="M45.9 24.6 C45.9 34.9 39.9 41.3 32.4 41.3 C24.7 41.3 18.2 36.7 13.1 28.9 C13.03333 28.96667 12.95 29.05 12.9 29.1 C15.7 42.5 21.8 63.2 36.8 63.2 C39.4 63.2 42.2 62 44.6 59.9 C44.8 59.93333 45.05 59.975 45.2 60 C45.3 61.9 46.1 65.6 46.8 67.7 C45 68.6 42 69.1 40.5 69.1 C18.3 69.1 3.6 39.1 3.6 18.1 C3.6 6.9 8.9 -1.8 20.7 -1.8 C35.2 -1.8 45.9 11.6 45.9 24.6 zM37 21.9 C37 12.9 31.3 2.4 22.8 2.4 C16.7 2.4 13.2 6.9 13.2 14.6 C13.2 25.1 18.9 34.1 27.3 34.1 C33.4 34.1 37 28.9 37 21.9 z" />
<glyph unicode="7" horiz-adv-x="50" d="M50.1 67.1 C49.975 67.3 49.725 67.7 49.6 67.9 C44.9 67.6 37 67.3 29.4 67.3 C23.6 67.3 15.5 67.4 9.5 67.9 C9.23333 67.7 8.9 67.45 8.7 67.3 C8.4 64.5 8 61.7 7.3 58.9 C7.4 58.73333 7.525 58.525 7.6 58.4 C14.6 59 30.4 59 41.8 59 C29.7 39.6 16.9 20 4.2 0.4 C4.33333 0.13333 4.5 -0.2 4.6 -0.4 C6.2 -0.3 7.8 0 9.4 0 C11 0 12.6 -0.3 14.2 -0.4 C14.43333 -0.26667 14.725 -0.1 14.9 0 C21.4 16.7 40.7 53.4 50.1 63.5 C50.1 64.7 50.1 66.2 50.1 67.1 z" />
<glyph unicode="8" horiz-adv-x="50" d="M2.7 13 C2.7 4 9.2 -1.8 18.1 -1.8 C30.3 -1.8 43.5 8.8 43.5 21.6 C43.5 29.4 40.6 32.5 32.4 37.2 C39.8 40.9 47.5 49.4 47.5 56.3 C47.5 64 41.7 69.1 33.9 69.1 C22.8 69.1 10.2 59.3 10.2 47.7 C10.2 42 13.1 37.5 19.6 34.2 C11.5 30.1 2.7 23 2.7 13 zM34.8 18.1 C34.8 10.9 29.8 2.8 21.9 2.8 C15.5 2.8 10.9 7.8 10.9 14.1 C10.9 22.4 16.7 29 23 32.2 C30.3 28.3 34.8 25.6 34.8 18.1 zM18.5 51.3 C18.5 57.9 22.2 64.2 30.4 64.2 C35.7 64.2 39.4 60.7 39.4 54.3 C39.4 49.1 35.8 43.3 28.8 39.2 C19.8 43.9 18.5 47.6 18.5 51.3 z" />
<glyph unicode="9" horiz-adv-x="50" d="M15 45.5 C15 54.7 18.7 64.3 28.5 64.3 C34.5 64.3 38.2 59.9 38.2 51.6 C38.2 40.1 31.9 33 24.8 33 C18.2 33 15 38.5 15 45.5 zM2.2 11.5 C2.15 11.4 2.05 11.2 2 11.1 C3.4 7.4 4.5 3.4 5.5 -0.5 C7 -1.2 9.9 -1.8 11.8 -1.8 C32.6 -1.8 47.2 22.1 47.2 46.1 C47.2 62.3 41.1 69.1 30.6 69.1 C20 69.1 6.2 58.4 6.2 43.7 C6.2 35.2 10.5 26.5 20 26.5 C26.9 26.5 31.6 28.9 37.1 36.1 C37.16667 36.03333 37.25 35.95 37.3 35.9 C35.5 23.5 29.8 3.3 15.8 3.3 C11.3 3.3 7.8 5.8 5.1 12.4 C5 12.46667 4.875 12.55 4.8 12.6 C4.15 12.325 2.85 11.775 2.2 11.5 z" />
<glyph unicode=":" horiz-adv-x="25" d="M8.3 37.1 C8.3 34.4 9.6 31.9 12.9 31.9 C17 31.9 20.2 35.5 20.2 40.7 C20.2 43.3 18.4 45.8 15.6 45.8 C12.6 45.8 8.3 42.8 8.3 37.1 zM2.6 4.2 C2.6 1.5 3.9 -1 7.2 -1 C11.3 -1 14.5 2.6 14.5 7.8 C14.5 10.4 12.7 12.9 9.9 12.9 C6.9 12.9 2.6 9.9 2.6 4.2 z" />
<glyph unicode=";" horiz-adv-x="25" d="M-4.9 -15.9 C-3.85 -15.6 -1.75 -15 -0.7 -14.7 C6.6 -6.2 12.7 3.5 16.4 12.1 C16.06667 12.46667 15.65 12.925 15.4 13.2 C13.4 12.3 8.3 10.7 4.6 10.1 C2.5 0.7 -0.6 -6.3 -5.8 -14.9 C-5.5 -15.23333 -5.125 -15.65 -4.9 -15.9 zM8.3 37.1 C8.3 34.4 9.6 31.9 12.9 31.9 C17 31.9 20.2 35.5 20.2 40.7 C20.2 43.3 18.4 45.8 15.6 45.8 C12.6 45.8 8.3 42.8 8.3 37.1 z" />
<glyph unicode="&#x3c;" horiz-adv-x="60" d="M4.7 21.9 C17.35 16.225 42.65 4.875 55.3 -0.8 C55.3 1.125 55.3 4.975 55.3 6.9 C45.05 11.575 24.55 20.925 14.3 25.6 C24.55 30.275 45.05 39.625 55.3 44.3 C55.3 46.225 55.3 50.075 55.3 52 C42.65 46.325 17.35 34.975 4.7 29.3 C4.7 27.45 4.7 23.75 4.7 21.9 z" />
<glyph unicode="=" horiz-adv-x="60" d="M4.7 31 C17.35 31 42.65 31 55.3 31 C55.3 32.95 55.3 36.85 55.3 38.8 C42.65 38.8 17.35 38.8 4.7 38.8 C4.7 36.85 4.7 32.95 4.7 31 zM4.7 11.8 C17.35 11.8 42.65 11.8 55.3 11.8 C55.3 13.75 55.3 17.65 55.3 19.6 C42.65 19.6 17.35 19.6 4.7 19.6 C4.7 17.65 4.7 13.75 4.7 11.8 z" />
<glyph unicode="&#x3e;" horiz-adv-x="60" d="M4.7 -0.8 C17.35 4.875 42.65 16.225 55.3 21.9 C55.3 23.75 55.3 27.45 55.3 29.3 C42.65 34.975 17.35 46.325 4.7 52 C4.7 50.075 4.7 46.225 4.7 44.3 C14.95 39.625 35.45 30.275 45.7 25.6 C35.45 20.925 14.95 11.575 4.7 6.9 C4.7 4.975 4.7 1.125 4.7 -0.8 z" />
<glyph unicode="?" horiz-adv-x="44.4" d="M20.5 20.1 C20.525 20.275 20.575 20.625 20.6 20.8 C19.2 21.9 18.4 23 18.4 24.6 C18.4 32.1 42.1 41 42.1 56.5 C42.1 64.7 35.6 70.1 26.8 70.1 C22 70.1 17.2 68.6 13.2 65.4 C11.9 61.9 10.4 58.4 9 55.3 C9.06667 55.13333 9.15 54.925 9.2 54.8 C9.75 54.65 10.85 54.35 11.4 54.2 C11.5 54.225 11.7 54.275 11.8 54.3 C15.6 60.9 17.6 63.1 23.6 63.1 C29.2 63.1 32.3 59.7 32.3 55.4 C32.3 44.3 13.9 35.3 13.9 26.1 C13.9 22.7 15.7 20.8 17.9 19.3 C18.76667 19.56667 19.85 19.9 20.5 20.1 zM9.4 4.1 C9.4 1.4 10.7 -1.1 14 -1.1 C18.1 -1.1 21.3 2.5 21.3 7.7 C21.3 10.3 19.5 12.8 16.7 12.8 C13.7 12.8 9.4 9.8 9.4 4.1 z" />
<glyph unicode="@" horiz-adv-x="80" d="M51.9 40.4 C51.9 30 44.9 20 38.4 20 C35.7 20 33.8 22.5 33.8 27.6 C33.8 40.6 41.2 47.9 46.3 47.9 C49.5 47.9 51.9 45.8 51.9 40.4 zM53.9 47.8 C53.85 47.8 53.75 47.8 53.7 47.8 C52.5 51.4 50.1 53.1 45.9 53.1 C34.8 53.1 24.8 41.8 24.8 28 C24.8 19.4 28.7 14.8 35.5 14.8 C40.1 14.8 45.1 17.2 47.9 22.2 C47.96667 22.2 48.05 22.2 48.1 22.2 C48.2 17 52.5 14.8 58.7 14.8 C69.3 14.8 77.9 24.9 77.9 39.8 C77.9 56 64.5 70.7 43.5 70.7 C22.4 70.7 5.3 55.4 5.3 33.4 C5.3 11.9 24 -1.8 44.6 -1.8 C53.7 -1.8 61 1.4 66.6 4.3 C66.16667 5.6 65.625 7.225 65.3 8.2 C60 5.4 53.2 3.4 44.8 3.4 C26.5 3.4 14.7 16.6 14.7 33.2 C14.7 52.1 26.2 65.5 43.6 65.5 C61 65.5 71.9 52.3 71.9 39.7 C71.9 28.6 66.2 19.6 58.4 19.6 C56.6 19.6 55.5 20.6 55.5 22.4 C55.5 24.4 55.7 25.8 62.3 52.1 C59.83333 52.1 56.75 52.1 54.9 52.1 C54.65 51.025 54.15 48.875 53.9 47.8 z" />
<glyph unicode="A" horiz-adv-x="68.5" d="M39.8 0 C39.9 -0.075 40.1 -0.225 40.2 -0.3 C44.4 -0.1 48.6 0 52.8 0 C57 0 61.2 -0.1 65.4 -0.3 C65.53333 -0.2 65.7 -0.075 65.8 0 C65.925 0.7 66.175 2.1 66.3 2.8 C66.2 2.875 66 3.025 65.9 3.1 C59.7 3.1 59.2 3.6 58.1 9.3 C54.4 29.33333 49.775 54.375 47 69.4 C45.375 69.4 42.125 69.4 40.5 69.4 C31.475 54.25 13.425 23.95 4.4 8.8 C2.1 4.9 0.6 3.1 -4.8 3.1 C-4.93333 3 -5.1 2.875 -5.2 2.8 C-5.325 2.1 -5.575 0.7 -5.7 0 C-5.6 -0.075 -5.4 -0.225 -5.3 -0.3 C-1.8 -0.1 1.9 0 5.7 0 C9.4 0 13 -0.1 16.7 -0.3 C16.83333 -0.2 17 -0.075 17.1 0 C17.225 0.7 17.475 2.1 17.6 2.8 C17.5 2.875 17.3 3.025 17.2 3.1 C10.3 3.5 9.1 4.1 9.1 5.2 C9.1 6.7 9.8 8.1 20.6 26.2 C24.5 26.3 28.7 26.4 32.8 26.4 C36.8 26.4 41 26.2 45.2 26.2 C48.4 8 48.5 7 48.5 5.3 C48.5 3.8 47.9 3.1 40.7 3.1 C40.56667 3 40.4 2.875 40.3 2.8 C40.175 2.1 39.925 0.7 39.8 0 zM44.4 30.8 C40.8 30.7 37.3 30.6 33.7 30.6 C30.3 30.6 26.8 30.8 23.3 30.8 C28.7 40.06667 35.45 51.65 39.5 58.6 C39.55 58.6 39.65 58.6 39.7 58.6 C40.875 51.65 43.225 37.75 44.4 30.8 z" />
<glyph unicode="B" horiz-adv-x="59.3" d="M45 55.5 C45 44.5 37.8 37.5 27.6 37.5 C24.9 37.5 23.5 37.7 22.5 37.9 C23.6 46.9 25.5 56 27.3 65 C29.6 65 31.8 65.1 34.1 65.1 C40.6 65.1 45 64 45 55.5 zM8 66.3 C8.1 66.225 8.3 66.075 8.4 66 C14.6 65.7 16.8 64.7 16.8 61.8 C16.8 58.7 14.5 47.1 11.9 30.8 C8.8 11.2 7.8 6.4 6.8 4.8 C6.5 4.3 5.6 3.9 4 3.3 C3.16667 3 2.125 2.625 1.5 2.4 C1.425 2.3 1.275 2.1 1.2 2 C1.1 1.5 0.9 0.5 0.8 0 C0.875 -0.075 1.025 -0.225 1.1 -0.3 C3.1 -0.1 6.6 0 11 0 C15.6 0 21 -0.3 26.2 -0.3 C42.5 -0.3 53.7 11.6 53.7 22.1 C53.7 33.9 45.1 36.2 36.2 36.2 C36.2 36.26667 36.2 36.35 36.2 36.4 C48.9 40 55.1 47.5 55.1 56.6 C55.1 63.9 50 69.5 37.7 69.5 C35 69.5 32.3 69.4 29.6 69.3 C26.9 69.2 24.2 69.1 21.5 69.1 C16.2 69.1 11.5 69.2 8.9 69.4 C8.76667 69.3 8.6 69.175 8.5 69.1 C8.375 68.4 8.125 67 8 66.3 zM43.2 20.8 C43.2 10 36 3.6 25.4 3.6 C22.5 3.6 18.7 4.1 17.1 4.9 C17.9 12.1 19.7 23.9 21.7 33.2 C24.1 33.4 26.3 33.5 28.6 33.5 C38.6 33.5 43.2 30.3 43.2 20.8 z" />
<glyph unicode="C" horiz-adv-x="66.7" d="M63.6 51.8 C63.7 51.875 63.9 52.025 64 52.1 C64.3 56.4 65.4 61.6 66.8 66.6 C66.73333 66.73333 66.65 66.9 66.6 67 C61.1 69.2 54.8 70.7 47.4 70.7 C28.8 70.7 6 57.9 6 29.4 C6 9.6 16.3 -1.8 36.6 -1.8 C47.2 -1.8 54.7 2 61.9 7 C62.1 8.5 62.3 10 62.7 11.4 C62.36667 11.5 61.95 11.625 61.7 11.7 C56 7.9 48.8 4.5 38.9 4.5 C29.1 4.5 16.8 9.7 16.8 29.6 C16.8 47.2 23.1 65.5 43.7 65.5 C50.1 65.5 55.8 63 60.2 60.4 C60.8 60 60.8 54.6 60.8 52.1 C60.9 52 61.025 51.875 61.1 51.8 C61.725 51.8 62.975 51.8 63.6 51.8 z" />
<glyph unicode="D" horiz-adv-x="77.8" d="M63.4 42.4 C63.4 24.8 54.4 3.9 32.4 3.9 C26.4 3.9 21.7 4.6 18.1 5.6 C21.6 30.4 25 52.4 28 64.7 C30.8 65 33.2 65.2 38.8 65.2 C49.5 65.2 63.4 63 63.4 42.4 zM8.4 66.3 C8.5 66.225 8.7 66.075 8.8 66 C15 65.7 17.2 64.7 17.2 61.8 C17.2 58.7 14.9 47.1 12.3 30.8 C9.2 11.2 8.2 6.4 7.2 4.8 C6.9 4.3 6 3.9 4.4 3.3 C3.56667 3 2.525 2.625 1.9 2.4 C1.825 2.3 1.675 2.1 1.6 2 C1.5 1.5 1.3 0.5 1.2 0 C1.275 -0.075 1.425 -0.225 1.5 -0.3 C3.5 -0.1 7 0 11.4 0 C14.5 0 17.5 -0.1 20.5 -0.2 C23.5 -0.3 26.6 -0.4 29.6 -0.4 C55.2 -0.4 74.2 19.2 74.2 43.1 C74.2 56.5 69.1 69.5 44.7 69.5 C41.1 69.5 37.4 69.4 33.7 69.3 C30 69.2 26.4 69.1 22.7 69.1 C16.2 69.1 12 69.3 9.3 69.4 C9.16667 69.3 9 69.175 8.9 69.1 C8.775 68.4 8.525 67 8.4 66.3 z" />
<glyph unicode="E" horiz-adv-x="57.4" d="M8 66.3 C8.1 66.225 8.3 66.075 8.4 66 C14.6 65.7 16.8 64.7 16.8 61.8 C16.8 58.7 14.5 47.1 11.9 30.8 C8.8 11.2 7.8 6.4 6.8 4.8 C6.5 4.3 5.6 3.9 4 3.3 C3.16667 3 2.125 2.625 1.5 2.4 C1.425 2.3 1.275 2.1 1.2 2 C1.1 1.5 0.9 0.5 0.8 0 C0.875 -0.075 1.025 -0.225 1.1 -0.3 C3.1 -0.3 6.6 -0.1 14.3 -0.1 C24.1 -0.1 42 -0.3 49.3 -0.3 C49.46667 -0.13333 49.675 0.075 49.8 0.2 C50.5 5.8 51.9 12.1 53.1 16.8 C53.03333 16.9 52.95 17.025 52.9 17.1 C52.25 17.1 50.95 17.1 50.3 17.1 C50.2 17.025 50 16.875 49.9 16.8 C48.8 12.9 46.6 6.8 44.7 5.7 C43.1 4.8 40.8 4.6 17.1 4.6 C18.73333 14.16667 20.775 26.125 22 33.3 C33.7 33.3 41.8 33.3 46.3 32.8 C46.9 34.5 47.6 36.2 48.4 37.9 C48.2 38.1 47.95 38.35 47.8 38.5 C45.2 37.9 39.2 37.7 36.3 37.7 C29.4 37.7 25.5 37.8 22.8 37.9 C24.3 46.63333 26.175 57.55 27.3 64.1 C30.6 64.4 31.7 64.5 34.8 64.5 C43.4 64.5 48.5 64.2 49.5 62.4 C49.9 61.7 50.2 60.9 50.2 53.7 C50.3 53.6 50.425 53.475 50.5 53.4 C51.15 53.4 52.45 53.4 53.1 53.4 C53.175 53.475 53.325 53.625 53.4 53.7 C53.4 55.7 54.8 66.1 55.3 68.7 C55.13333 68.83333 54.925 69 54.8 69.1 C51.2 69.1 38.8 68.7 24.8 68.7 C20.5 68.7 13 69 8.9 69.4 C8.76667 69.3 8.6 69.175 8.5 69.1 C8.375 68.4 8.125 67 8 66.3 z" />
<glyph unicode="F" horiz-adv-x="51.9" d="M51.9 54 C51.975 54.075 52.125 54.225 52.2 54.3 C52.2 56.5 53.1 64.8 53.9 68.7 C53.73333 68.83333 53.525 69 53.4 69.1 C48.1 69.1 31.1 68.9 23.3 68.9 C20 68.9 13.2 69.1 8.4 69.4 C8.26667 69.3 8.1 69.175 8 69.1 C7.875 68.4 7.625 67 7.5 66.3 C7.6 66.225 7.8 66.075 7.9 66 C16.1 65.7 17 64.4 17 62.6 C17 59 9.2 9.2 7 4.8 C6.3 3.4 1.8 3.1 0 3.1 C-0.13333 3 -0.3 2.875 -0.4 2.8 C-0.525 2.1 -0.775 0.7 -0.9 0 C-0.8 -0.075 -0.6 -0.225 -0.5 -0.3 C3.8 -0.1 8.1 0 12.4 0 C17.3 0 22.3 -0.1 27.2 -0.3 C27.33333 -0.2 27.5 -0.075 27.6 0 C27.725 0.7 27.975 2.1 28.1 2.8 C28 2.875 27.8 3.025 27.7 3.1 C19 3.7 18.1 4.1 18.1 6.2 C18.1 8.2 18.6 11.7 21.6 29.6 C24.8 29.7 27.9 29.8 33.9 29.8 C41.2 29.8 43 29.6 44.8 29.3 C45.3 31.1 45.8 32.6 46.9 34.4 C46.7 34.66667 46.45 35 46.3 35.2 C41.7 34.6 39.7 34.3 29.9 34.3 C26.3 34.3 24.4 34.4 22.5 34.5 C23.4 41.9 25.4 54.3 27.7 64.3 C28.8 64.6 31.5 64.6 35.4 64.6 C41.3 64.6 45.7 64.2 47 63.6 C48.8 62.8 49.3 61.4 49.3 54.3 C49.4 54.2 49.525 54.075 49.6 54 C50.175 54 51.325 54 51.9 54 z" />
<glyph unicode="G" horiz-adv-x="75.9" d="M45.5 25.7 C45.6 25.625 45.8 25.475 45.9 25.4 C58 25.1 58 24.4 58 20.4 C58 17.4 57 12.5 55.8 6.5 C52.9 4.9 45.4 2.9 40.8 2.9 C26.5 2.9 17 11.4 17 26.7 C17 45.8 23.2 65.7 43.6 65.7 C50.5 65.7 58.2 63.8 63.3 60.4 C63.9 60 63.9 54.4 63.9 51.7 C64 51.6 64.125 51.475 64.2 51.4 C64.825 51.35 66.075 51.25 66.7 51.2 C66.8 51.275 67 51.425 67.1 51.5 C67.6 56.3 68.7 61.5 70.1 66.6 C63.1 69.1 58 70.5 49 70.5 C23.3 70.5 6 52.4 6 26.9 C6 7.8 18.8 -1.7 35.5 -1.7 C51.1 -1.7 56.9 2.4 65.2 4.1 C65.36667 4.33333 65.575 4.625 65.7 4.8 C65.5 5.6 65.5 6.4 65.5 7.1 C65.5 9.1 67.1 20.4 68.9 23.4 C69.6 24.6 70.8 25 73.9 25 C74.03333 25.1 74.2 25.225 74.3 25.3 C74.425 26 74.675 27.4 74.8 28.1 C74.7 28.175 74.5 28.325 74.4 28.4 C68.8 28.2 66.9 28.1 64.8 28.1 C57.8 28.1 54.3 28.1 46.4 28.8 C46.26667 28.7 46.1 28.575 46 28.5 C45.875 27.8 45.625 26.4 45.5 25.7 z" />
<glyph unicode="H" horiz-adv-x="75.9" d="M51.7 66.3 C51.8 66.225 52 66.075 52.1 66 C59.2 66 60.1 64.7 60.1 62.9 C60.1 61.3 58.6 50.8 56.6 38.8 C50.8 38.7 42.5 38.7 36.9 38.7 C32.6 38.7 26.8 38.8 23.2 38.9 C25.3 51.3 27.4 62.4 28.3 64.2 C29 65.6 33.5 66 35.7 66 C35.83333 66.1 36 66.225 36.1 66.3 C36.225 67 36.475 68.4 36.6 69.1 C36.5 69.175 36.3 69.325 36.2 69.4 C31.8 69.2 27.1 69.1 23.5 69.1 C18.9 69.1 14.2 69.2 9.8 69.4 C9.66667 69.3 9.5 69.175 9.4 69.1 C9.275 68.4 9.025 67 8.9 66.3 C9 66.225 9.2 66.075 9.3 66 C16.4 66 17.3 64.7 17.3 62.9 C17.3 59.1 9.3 8.9 7.3 4.9 C6.6 3.5 2.1 3.1 -0.1 3.1 C-0.23333 3 -0.4 2.875 -0.5 2.8 C-0.625 2.1 -0.875 0.7 -1 0 C-0.9 -0.075 -0.7 -0.225 -0.6 -0.3 C3.8 -0.1 8.5 0 12.1 0 C16.7 0 21.4 -0.1 25.8 -0.3 C25.93333 -0.2 26.1 -0.075 26.2 0 C26.325 0.7 26.575 2.1 26.7 2.8 C26.6 2.875 26.4 3.025 26.3 3.1 C19.2 3.1 18.3 4.4 18.3 6.2 C18.3 8 20.1 20.6 22.4 33.8 C25.4 34.1 31.4 34.1 36 34.1 C42.3 34.1 51.9 34 55.8 33.8 C53.6 20.3 51.1 6.9 50.1 4.9 C49.4 3.5 44.9 3.1 42.7 3.1 C42.56667 3 42.4 2.875 42.3 2.8 C42.175 2.1 41.925 0.7 41.8 0 C41.9 -0.075 42.1 -0.225 42.2 -0.3 C46.6 -0.1 51.3 0 54.9 0 C59.5 0 64.2 -0.1 68.6 -0.3 C68.73333 -0.2 68.9 -0.075 69 0 C69.125 0.7 69.375 2.1 69.5 2.8 C69.4 2.875 69.2 3.025 69.1 3.1 C62 3.1 61.1 4.4 61.1 6.2 C61.1 9.8 69 60.1 71.1 64.2 C71.8 65.6 76.3 66 78.5 66 C78.63333 66.1 78.8 66.225 78.9 66.3 C79.025 67 79.275 68.4 79.4 69.1 C79.3 69.175 79.1 69.325 79 69.4 C74.6 69.2 69.9 69.1 66.3 69.1 C61.7 69.1 57 69.2 52.6 69.4 C52.46667 69.3 52.3 69.175 52.2 69.1 C52.075 68.4 51.825 67 51.7 66.3 z" />
<glyph unicode="I" horiz-adv-x="33.3" d="M-1 0 C-0.9 -0.075 -0.7 -0.225 -0.6 -0.3 C3.8 -0.1 8.5 0 12.1 0 C16.7 0 21.4 -0.1 25.8 -0.3 C25.93333 -0.2 26.1 -0.075 26.2 0 C26.325 0.7 26.575 2.1 26.7 2.8 C26.6 2.875 26.4 3.025 26.3 3.1 C19.2 3.1 18.3 4.4 18.3 6.2 C18.3 9.8 26.2 60.1 28.3 64.2 C29 65.6 33.5 66 35.7 66 C35.83333 66.1 36 66.225 36.1 66.3 C36.225 67 36.475 68.4 36.6 69.1 C36.5 69.175 36.3 69.325 36.2 69.4 C31.8 69.2 27.1 69.1 23.5 69.1 C18.9 69.1 14.2 69.2 9.8 69.4 C9.66667 69.3 9.5 69.175 9.4 69.1 C9.275 68.4 9.025 67 8.9 66.3 C9 66.225 9.2 66.075 9.3 66 C16.4 66 17.3 64.7 17.3 62.9 C17.3 59.1 9.3 8.9 7.3 4.9 C6.6 3.5 2.1 3.1 -0.1 3.1 C-0.23333 3 -0.4 2.875 -0.5 2.8 C-0.625 2.1 -0.875 0.7 -1 0 z" />
<glyph unicode="J" horiz-adv-x="33.3" d="M8.1 66.3 C8.2 66.225 8.4 66.075 8.5 66 C16.4 66 17.3 64.7 17.3 62.9 C17.3 57.4 9.5 8.9 8.1 -0.2 C5.8 -14.9 2.9 -17.1 -2.2 -17.1 C-3.7 -17.1 -5.4 -16.6 -6.3 -16.1 C-6.53333 -16.2 -6.825 -16.325 -7 -16.4 C-6.825 -17.525 -6.475 -19.775 -6.3 -20.9 C-5.2 -21.1 -3.9 -21.4 -2.8 -21.4 C5.2 -21.4 10 -17.9 13.4 -12.2 C15.7 -8.4 16.6 -5 18.2 4.1 C21.8 24.8 26.1 59.8 28.3 64.2 C29 65.6 33.5 66 35.7 66 C35.83333 66.1 36 66.225 36.1 66.3 C36.225 67 36.475 68.4 36.6 69.1 C36.5 69.175 36.3 69.325 36.2 69.4 C31.8 69.2 27.1 69.1 23.5 69.1 C18.7 69.1 13.8 69.2 9 69.4 C8.86667 69.3 8.7 69.175 8.6 69.1 C8.475 68.4 8.225 67 8.1 66.3 z" />
<glyph unicode="K" horiz-adv-x="64.8" d="M8.4 66.3 C8.5 66.225 8.7 66.075 8.8 66 C15.9 66 16.8 64.7 16.8 62.9 C16.8 59.1 8.8 8.9 6.8 4.9 C6.1 3.5 1.6 3.1 -0.6 3.1 C-0.73333 3 -0.9 2.875 -1 2.8 C-1.125 2.1 -1.375 0.7 -1.5 0 C-1.4 -0.075 -1.2 -0.225 -1.1 -0.3 C3.3 -0.1 8 0 11.6 0 C16.2 0 20.9 -0.1 25.3 -0.3 C25.43333 -0.2 25.6 -0.075 25.7 0 C25.825 0.7 26.075 2.1 26.2 2.8 C26.1 2.875 25.9 3.025 25.8 3.1 C18.7 3.1 17.8 4.4 17.8 6.2 C17.8 7.9 19.6 20.7 21.9 33.7 C21.96667 33.7 22.05 33.7 22.1 33.7 C31.6 21.5 44.3 5.4 47.9 -0.3 C50.5 -0.2 53 0 55.6 0 C58.1 0 60.7 -0.2 63.1 -0.3 C63.23333 -0.2 63.4 -0.075 63.5 0 C63.625 0.7 63.875 2.1 64 2.8 C63.925 2.875 63.775 3.025 63.7 3.1 C59.1 3.1 57.6 3.6 53.2 9.2 C45.83333 18.46667 36.625 30.05 31.1 37 C37.15 42.925 49.25 54.775 55.3 60.7 C60.6 65.9 61.9 66 65.9 66 C66.03333 66.1 66.2 66.225 66.3 66.3 C66.425 67 66.675 68.4 66.8 69.1 C66.725 69.175 66.575 69.325 66.5 69.4 C64.1 69.2 61.6 69.1 59.2 69.1 C56.8 69.1 54.3 69.2 52.4 69.4 C52.3 69.3 52.175 69.175 52.1 69.1 C52 68 52 67 51.8 65.9 C51.4 63.7 34.6 45.9 22.2 35.3 C22.16667 35.3 22.125 35.3 22.1 35.3 C24.3 48.8 26.8 62.2 27.8 64.2 C28.5 65.6 33 66 35.2 66 C35.33333 66.1 35.5 66.225 35.6 66.3 C35.725 67 35.975 68.4 36.1 69.1 C36 69.175 35.8 69.325 35.7 69.4 C31.3 69.2 26.6 69.1 23 69.1 C18.4 69.1 13.7 69.2 9.3 69.4 C9.16667 69.3 9 69.175 8.9 69.1 C8.775 68.4 8.525 67 8.4 66.3 z" />
<glyph unicode="L" horiz-adv-x="55.6" d="M8.8 66.3 C8.9 66.225 9.1 66.075 9.2 66 C16.3 66 17.2 64.7 17.2 62.9 C17.2 60.1 14.8 46.4 12.4 32.1 C8.9 11.2 8 6.2 7.5 5.3 C6.8 4.1 6 3.9 4.4 3.3 C3.56667 3 2.525 2.625 1.9 2.4 C1.825 2.3 1.675 2.1 1.6 2 C1.5 1.5 1.3 0.5 1.2 0 C1.275 -0.075 1.425 -0.225 1.5 -0.3 C3.5 -0.1 7 0 13 0 C17.9 0 24.8 -0.1 31.4 -0.1 C38.1 -0.2 44.4 -0.3 48 -0.3 C48.16667 -0.13333 48.375 0.075 48.5 0.2 C49.4 6.3 50.5 11.7 52 16.8 C51.93333 16.9 51.85 17.025 51.8 17.1 C51.075 17.1 49.625 17.1 48.9 17.1 C48.8 17.025 48.6 16.875 48.5 16.8 C47.6 14 45.9 8.5 44.7 6.6 C43.8 5.2 42.3 4.6 17.9 4.6 C19 16 26.2 60.3 28.2 64.2 C28.9 65.6 33.8 66 36.4 66 C36.53333 66.1 36.7 66.225 36.8 66.3 C36.925 67 37.175 68.4 37.3 69.1 C37.2 69.175 37 69.325 36.9 69.4 C32.1 69.2 27.2 69.1 23.4 69.1 C18.8 69.1 14.1 69.2 9.7 69.4 C9.56667 69.3 9.4 69.175 9.3 69.1 C9.175 68.4 8.925 67 8.8 66.3 z" />
<glyph unicode="M" horiz-adv-x="94.4" d="M61.7 0 C61.8 -0.075 62 -0.225 62.1 -0.3 C66.6 -0.1 71.4 0 76.3 0 C81 0 85.7 -0.1 90.1 -0.3 C90.23333 -0.2 90.4 -0.075 90.5 0 C90.625 0.7 90.875 2.1 91 2.8 C90.9 2.875 90.7 3.025 90.6 3.1 C81.8 3.1 81.8 3.9 81.8 7.2 C81.8 9.1 84.8 59.5 86.6 63.5 C87.7 66 89.2 66 94.4 66 C94.53333 66.1 94.7 66.225 94.8 66.3 C94.925 67 95.175 68.4 95.3 69.1 C95.2 69.175 95 69.325 94.9 69.4 C92.9 69.2 88.6 69.1 85.4 69.1 C82.7 69.1 80 69.3 77.3 69.4 C74.6 63.2 54.8 31.9 44.1 12.9 C40.2 30.2 33.6 51 29.5 69.4 C27.8 69.3 24.4 69.1 22.3 69.1 C18.3 69.1 13.6 69.3 11.8 69.4 C11.66667 69.3 11.5 69.175 11.4 69.1 C11.275 68.4 11.025 67 10.9 66.3 C11 66.225 11.2 66.075 11.3 66 C18.9 65.7 20.6 65.3 20.6 62.6 C20.6 59.6 8.9 19.8 6.9 12.9 C4.3 3.9 4.2 3.3 -2.6 3.1 C-2.73333 3 -2.9 2.875 -3 2.8 C-3.125 2.1 -3.375 0.7 -3.5 0 C-3.4 -0.075 -3.2 -0.225 -3.1 -0.3 C0.4 -0.1 4.1 0 7.9 0 C11.8 0 15.7 -0.1 19.3 -0.3 C19.43333 -0.2 19.6 -0.075 19.7 0 C19.825 0.7 20.075 2.1 20.2 2.8 C20.1 2.875 19.9 3.025 19.8 3.1 C12.2 3.3 11.3 3.6 11.3 6.4 C11.3 9.2 12 13.8 23.5 54.4 C23.56667 54.4 23.65 54.4 23.7 54.4 C24.2 49.8 32.8 19.2 38.5 -1.2 C39.43333 -1.2 40.6 -1.2 41.3 -1.2 C58.2 27.6 73 54.2 76.2 57.8 C76.26667 57.73333 76.35 57.65 76.4 57.6 C75.55 46.925 73.85 25.575 73 14.9 C72.5 8.1 72.1 5.2 70.7 4 C70 3.4 69.3 3.4 62.6 3.1 C62.46667 3 62.3 2.875 62.2 2.8 C62.075 2.1 61.825 0.7 61.7 0 z" />
<glyph unicode="N" horiz-adv-x="75.9" d="M56.6 66.3 C56.7 66.225 56.9 66.075 57 66 C64 66 64.7 65.5 64.7 62.9 C64.7 59.6 63.4 50 57.2 12.3 C57.13333 12.3 57.05 12.3 57 12.3 C46.7 31.7 34.4 50 24.3 69.4 C21.9 69.3 17.9 69.1 14.7 69.1 C11.9 69.1 9.1 69.3 6.6 69.4 C6.46667 69.3 6.3 69.175 6.2 69.1 C6.075 68.4 5.825 67 5.7 66.3 C5.8 66.225 6 66.075 6.1 66 C13.1 66 15.5 64.3 16.9 61 C16.9 56.2 8.7 10.3 6.5 5.5 C5.5 3.3 3.2 3.1 -0.6 3.1 C-0.73333 3 -0.9 2.875 -1 2.8 C-1.125 2.1 -1.375 0.7 -1.5 0 C-1.4 -0.075 -1.2 -0.225 -1.1 -0.3 C2.3 -0.1 5.8 0 9.5 0 C13.4 0 17.2 -0.1 21 -0.3 C21.13333 -0.2 21.3 -0.075 21.4 0 C21.525 0.7 21.775 2.1 21.9 2.8 C21.8 2.875 21.6 3.025 21.5 3.1 C14.2 3.4 13.4 3.7 13.4 7 C13.4 15.4 18.9 42.7 21.2 54.9 C21.26667 54.9 21.35 54.9 21.4 54.9 C31.8 36.2 43.7 17.5 54.5 -1.2 C56.16667 -1.2 58.25 -1.2 59.5 -1.2 C59.575 -1.125 59.725 -0.975 59.8 -0.9 C61.75 10.875 65.65 34.425 67.6 46.2 C70.9 66 71.5 66 78.9 66 C79.03333 66.1 79.2 66.225 79.3 66.3 C79.425 67 79.675 68.4 79.8 69.1 C79.7 69.175 79.5 69.325 79.4 69.4 C76 69.3 72.2 69.1 68.5 69.1 C66.7 69.1 64.8 69.2 63 69.3 C61.2 69.3 59.4 69.4 57.5 69.4 C57.36667 69.3 57.2 69.175 57.1 69.1 C56.975 68.4 56.725 67 56.6 66.3 z" />
<glyph unicode="O" horiz-adv-x="75.9" d="M16.5 25.7 C16.5 49.3 26.1 66.2 43.4 66.2 C55.9 66.2 62.6 58.3 62.6 44.9 C62.6 20.3 53.5 2.7 35.8 2.7 C25.7 2.7 16.5 9.7 16.5 25.7 zM5.5 26 C5.5 9.8 14.9 -1.8 31.3 -1.8 C60.5 -1.8 73.4 21.1 73.4 43.9 C73.4 61.5 62.9 70.7 47.4 70.7 C21.2 70.7 5.5 52.3 5.5 26 z" />
<glyph unicode="P" horiz-adv-x="57.4" d="M25.8 31.3 C25.925 31.175 26.175 30.925 26.3 30.8 C27.8 30.2 30.6 29.2 35.4 29.2 C48.2 29.2 58.7 41.4 58.7 53.2 C58.7 64.3 51.8 69.5 39.7 69.5 C37.2 69.5 34.7 69.4 32 69.3 C29.4 69.2 26.6 69.1 23.5 69.1 C18.9 69.1 14.2 69.2 9 69.4 C8.86667 69.3 8.7 69.175 8.6 69.1 C8.475 68.4 8.225 67 8.1 66.3 C8.2 66.225 8.4 66.075 8.5 66 C16.4 66 17.3 64.7 17.3 62.9 C17.3 59.1 9.3 8.9 7.3 4.9 C6.6 3.5 2.1 3.1 -0.1 3.1 C-0.23333 3 -0.4 2.875 -0.5 2.8 C-0.625 2.1 -0.875 0.7 -1 0 C-0.9 -0.075 -0.7 -0.225 -0.6 -0.3 C3.8 -0.1 8.5 0 12.5 0 C17.1 0 22 -0.1 27.6 -0.3 C27.73333 -0.2 27.9 -0.075 28 0 C28.125 0.7 28.375 2.1 28.5 2.8 C28.4 2.875 28.2 3.025 28.1 3.1 C19.2 3.1 18.3 4.4 18.3 6.2 C18.3 11 25.4 55.4 27.9 64.3 C30 64.7 33.2 65.1 35.1 65.1 C42.1 65.1 48.1 62.9 48.1 51.2 C48.1 40.2 42 33.1 33.1 33.1 C30.4 33.1 27.9 33.9 26.4 34.5 C26.2 34.36667 25.95 34.2 25.8 34.1 C25.8 33.4 25.8 32 25.8 31.3 z" />
<glyph unicode="Q" horiz-adv-x="75.9" d="M16.5 25.7 C16.5 49.3 26.1 66.2 43.4 66.2 C55.9 66.2 62.6 58.3 62.6 44.9 C62.6 20.3 53.5 2.7 35.8 2.7 C25.7 2.7 16.5 9.7 16.5 25.7 zM66.8 -6.2 C66.7 -6.275 66.5 -6.425 66.4 -6.5 C66 -9.6 64.5 -13.4 60.4 -13.4 C55.3 -13.4 39 -4.3 27.8 -1.9 C27.8 -1.83333 27.8 -1.75 27.8 -1.7 C28.9 -1.7 30 -1.8 31.1 -1.8 C60.5 -1.8 73.4 21.1 73.4 43.9 C73.4 61.5 62.9 70.7 47.4 70.7 C21.2 70.7 5.5 52.3 5.5 26 C5.5 10.3 14 1 25.1 -1.2 C25.1 -1.26667 25.1 -1.35 25.1 -1.4 C17.9 -1.7 13.2 -6.5 13.2 -14.2 C13.2 -15.1 13.2 -15.9 13.3 -16.5 C13.4 -16.63333 13.525 -16.8 13.6 -16.9 C14.25 -17.1 15.55 -17.5 16.2 -17.7 C16.275 -17.65 16.425 -17.55 16.5 -17.5 C16.4 -17.1 16.4 -16.3 16.4 -15.6 C16.4 -11.9 17.9 -7.3 23.4 -7.3 C31.3 -7.3 49.5 -20.7 57.6 -20.7 C65.4 -20.7 69 -13.5 69.5 -6.9 C69.4 -6.8 69.275 -6.675 69.2 -6.6 C68.6 -6.5 67.4 -6.3 66.8 -6.2 z" />
<glyph unicode="R" horiz-adv-x="64.8" d="M25 37.2 C33.8 24.7 47.2 3.6 49.1 -0.3 C51.7 -0.1 54.2 0 56.9 0 C59.2 0 61.6 -0.2 63.9 -0.3 C64.03333 -0.2 64.2 -0.075 64.3 0 C64.425 0.7 64.675 2.1 64.8 2.8 C64.7 2.875 64.5 3.025 64.4 3.1 C60.5 3.1 58.9 3.9 56.8 7.1 C50.43333 16.6 42.475 28.475 37.7 35.6 C51.4 37.4 57.9 46.5 57.9 55.9 C57.9 64.5 51.6 69.5 39.5 69.5 C36.9 69.5 34.2 69.4 31.5 69.3 C28.8 69.2 26.1 69.1 23.4 69.1 C18.7 69.1 14.1 69.2 9.4 69.4 C9.26667 69.3 9.1 69.175 9 69.1 C8.875 68.4 8.625 67 8.5 66.3 C8.6 66.225 8.8 66.075 8.9 66 C16.3 66 17.2 64.7 17.2 62.7 C17.2 59 9.4 9.2 7.2 4.8 C6.5 3.4 2 3.1 -0.2 3.1 C-0.33333 3 -0.5 2.875 -0.6 2.8 C-0.725 2.1 -0.975 0.7 -1.1 0 C-1 -0.075 -0.8 -0.225 -0.7 -0.3 C3.8 -0.1 8.3 0 12.8 0 C17.4 0 21.9 -0.1 26.4 -0.3 C26.53333 -0.2 26.7 -0.075 26.8 0 C26.925 0.7 27.175 2.1 27.3 2.8 C27.2 2.875 27 3.025 26.9 3.1 C19.1 3.1 17.8 3.2 17.8 6.6 C17.8 8.9 26.4 60.8 28 64.3 C29.8 64.6 34 65 35.6 65 C42.9 65 47.5 62 47.5 54.6 C47.5 44.4 40.6 37.8 31.9 37.8 C29.7 37.8 27.4 38.1 25.8 38.5 C25.53333 38.06667 25.2 37.525 25 37.2 z" />
<glyph unicode="S" horiz-adv-x="55.6" d="M6.1 17.6 C6.025 17.525 5.875 17.375 5.8 17.3 C5.2 11.9 4.5 6.6 3.5 2.4 C3.6 2.2 3.725 1.95 3.8 1.8 C7.7 0 14.3 -1.9 20.3 -1.9 C34.1 -1.9 49.9 8.7 49.9 23.2 C49.9 33.7 42.1 36.7 31.8 38.9 C22.8 40.8 17.8 42.4 17.8 50.8 C17.8 60.3 25.4 65.3 33.4 65.3 C40 65.3 44.2 62.2 44.9 61.4 C45.5 60.6 45.5 56.4 45.6 54.2 C45.7 54.1 45.825 53.975 45.9 53.9 C46.525 53.9 47.775 53.9 48.4 53.9 C48.475 53.975 48.625 54.125 48.7 54.2 C49.2 58.5 49.9 63 51.1 67.2 C51 67.36667 50.875 67.575 50.8 67.7 C47.8 69.4 42.6 70.5 37.4 70.5 C23.6 70.5 9.4 61.7 9.4 45.4 C9.4 35.7 16.7 32.5 24.4 30.8 C32.6 29 40.6 27.9 40.6 19.4 C40.6 9.3 33.5 3.5 23.8 3.5 C16.4 3.5 10.7 7 9.6 8.4 C9 9.2 9 14.4 9 17.3 C8.9 17.4 8.775 17.525 8.7 17.6 C8.05 17.6 6.75 17.6 6.1 17.6 z" />
<glyph unicode="T" horiz-adv-x="59.3" d="M9.5 0 C9.6 -0.075 9.8 -0.225 9.9 -0.3 C15.6 -0.1 21.5 0 27.5 0 C31.8 0 37.4 -0.1 40.2 -0.3 C40.33333 -0.2 40.5 -0.075 40.6 0 C40.725 0.7 40.975 2.1 41.1 2.8 C41 2.875 40.8 3.025 40.7 3.1 C32.6 3.1 30.6 3.1 30.6 6.5 C30.6 9.4 37 49.1 39.9 63.7 C43.1 63.8 46.8 63.9 50.4 63.9 C54.6 63.9 56.8 63.6 57.4 63.3 C58.6 62.7 58.6 61.6 58.6 53 C58.7 52.9 58.825 52.775 58.9 52.7 C59.525 52.7 60.775 52.7 61.4 52.7 C61.5 52.775 61.7 52.925 61.8 53 C62.2 56.9 63.2 63.3 64.6 69.1 C64.5 69.2 64.375 69.325 64.3 69.4 C54.7 68.9 45.2 68.5 35.6 68.5 C26 68.5 16.4 68.9 6.8 69.4 C6.7 69.3 6.575 69.175 6.5 69.1 C6.3 65.1 5.2 59.8 3.9 52.9 C4 52.8 4.125 52.675 4.2 52.6 C4.875 52.6 6.225 52.6 6.9 52.6 C7 52.675 7.2 52.825 7.3 52.9 C9.8 61 10.6 62.1 12 62.9 C13.1 63.5 15.2 63.9 22.2 63.9 C24.8 63.9 27.4 63.8 29.9 63.8 C28.3 52.5 21.8 7.4 19.1 4.4 C18.1 3.3 15.9 3.1 10.4 3.1 C10.26667 3 10.1 2.875 10 2.8 C9.875 2.1 9.625 0.7 9.5 0 z" />
<glyph unicode="U" horiz-adv-x="75.9" d="M51.6 66.3 C51.7 66.225 51.9 66.075 52 66 C58.9 65.9 60.6 65.6 60.6 62.7 C60.6 60.3 55.4 29.1 53.7 18.3 C47.2 11.1 39.6 4.9 30.8 4.9 C26.7 4.9 18.8 6.2 18.8 15.4 C18.8 23.5 23.6 48.5 27.9 69.4 C26.7 69.2 22.8 69.1 20.1 69.1 C16.4 69.1 10.7 69.3 8.9 69.4 C8.76667 69.3 8.6 69.175 8.5 69.1 C8.375 68.4 8.125 67 8 66.3 C8.1 66.225 8.3 66.075 8.4 66 C15.4 65.7 16.2 65.7 16.2 62.5 C16.2 59.8 14.6 50.9 13.6 45.1 C13 41.5 12.25 37 11.8 34.3 C10.5 26.4 8.8 18.8 8.8 13.7 C8.8 3.1 16.7 -1.8 26.7 -1.8 C35.6 -1.8 43.8 2.3 52.6 12.5 C52.66667 12.43333 52.75 12.35 52.8 12.3 C52.2 8.8 51.1 4.2 50.1 0.1 C50.23333 -0.03333 50.4 -0.2 50.5 -0.3 C53.5 -0.1 56.4 0 59.5 0 C62.8 0 66.5 -0.1 69.3 -0.3 C69.43333 -0.2 69.6 -0.075 69.7 0 C69.825 0.7 70.075 2.1 70.2 2.8 C70.1 2.875 69.9 3.025 69.8 3.1 C63.2 3.7 61.2 4.2 61.2 6.7 C61.2 9.6 68.7 52.5 69.3 56.1 C70.9 65.9 71.2 66 78.2 66 C78.33333 66.1 78.5 66.225 78.6 66.3 C78.725 67 78.975 68.4 79.1 69.1 C79 69.175 78.8 69.325 78.7 69.4 C74.3 69.3 70 69.1 65.6 69.1 C61.2 69.1 56.9 69.3 52.5 69.4 C52.36667 69.3 52.2 69.175 52.1 69.1 C51.975 68.4 51.725 67 51.6 66.3 z" />
<glyph unicode="V" horiz-adv-x="64.8" d="M49.7 66.3 C49.8 66.225 50 66.075 50.1 66 C56.2 65.9 57.8 65.5 57.8 63.4 C57.8 59 47 40.2 29.7 11.9 C29.63333 11.9 29.55 11.9 29.5 11.9 C25.4 38.4 23 54.2 23 63 C23 65.9 24.1 66 30.5 66 C30.63333 66.1 30.8 66.225 30.9 66.3 C31.025 67 31.275 68.4 31.4 69.1 C31.3 69.175 31.1 69.325 31 69.4 C26.9 69.2 22.5 69.1 18.1 69.1 C13.6 69.1 9.2 69.2 4.7 69.4 C4.56667 69.3 4.4 69.175 4.3 69.1 C4.175 68.4 3.925 67 3.8 66.3 C3.9 66.225 4.1 66.075 4.2 66 C11.6 65.9 11.8 65.6 12.6 60.6 C15 45.9 19.4 16.8 21.8 -1 C23.66667 -1 26 -1 27.4 -1 C36.4 14.4 63.8 60.9 66 63.8 C67.6 65.9 68.4 66 71.5 66 C71.63333 66.1 71.8 66.225 71.9 66.3 C72.025 67 72.275 68.4 72.4 69.1 C72.3 69.175 72.1 69.325 72 69.4 C68.4 69.2 64.9 69.1 61.3 69.1 C57.7 69.1 54.2 69.2 50.6 69.4 C50.46667 69.3 50.3 69.175 50.2 69.1 C50.075 68.4 49.825 67 49.7 66.3 z" />
<glyph unicode="W" horiz-adv-x="101.9" d="M86.4 66.3 C86.5 66.225 86.7 66.075 86.8 66 C93.4 66 94.2 65.9 94.2 63.2 C94.2 60.6 90.6 52.8 73.7 14.5 C73.63333 14.5 73.55 14.5 73.5 14.5 C70.8 28 65 50.8 61.5 70 C60.83333 70 60 70 59.5 70 C52 56 38.2 33.3 27.1 15.1 C27.03333 15.1 26.95 15.1 26.9 15.1 C26.9 20.6 24.5 54.8 24.5 60.8 C24.5 66 25.7 66 33 66 C33.13333 66.1 33.3 66.225 33.4 66.3 C33.525 67 33.775 68.4 33.9 69.1 C33.8 69.175 33.6 69.325 33.5 69.4 C31.6 69.2 24.7 69.1 20.3 69.1 C15.7 69.1 8.5 69.2 6.8 69.4 C6.66667 69.3 6.5 69.175 6.4 69.1 C6.275 68.4 6.025 67 5.9 66.3 C6 66.225 6.2 66.075 6.3 66 C13.5 66 14.4 65.1 14.7 60.8 C16.1 40.8 18.3 19.7 18.5 -0.9 C20.16667 -0.9 22.25 -0.9 23.5 -0.9 C33.9 17.5 51.8 48.4 55.3 54 C55.36667 54 55.45 54 55.5 54 C57.6 40.4 64.1 14 67.4 -0.9 C68.96667 -0.9 70.925 -0.9 72.1 -0.9 C77 11.3 98.9 59.6 101.7 63.7 C103.2 66 104 66 107.5 66 C107.63333 66.1 107.8 66.225 107.9 66.3 C108.025 67 108.275 68.4 108.4 69.1 C108.3 69.175 108.1 69.325 108 69.4 C104.7 69.2 101.2 69.1 97.6 69.1 C94.2 69.1 88.7 69.2 87.3 69.4 C87.16667 69.3 87 69.175 86.9 69.1 C86.775 68.4 86.525 67 86.4 66.3 z" />
<glyph unicode="X" horiz-adv-x="66.7" d="M4.1 66.3 C4.2 66.225 4.4 66.075 4.5 66 C10.1 65.9 10.8 65.8 12.1 64.5 C13.6 63 23.8 44 29.5 33.4 C22.4 25.03333 13.525 14.575 8.2 8.3 C3.8 3.1 3.3 3.1 -2 3.1 C-2.13333 3 -2.3 2.875 -2.4 2.8 C-2.525 2.1 -2.775 0.7 -2.9 0 C-2.8 -0.075 -2.6 -0.225 -2.5 -0.3 C1.7 -0.1 6.2 0 10.7 0 C15.3 0 19.1 -0.1 22.3 -0.3 C22.43333 -0.2 22.6 -0.075 22.7 0 C22.825 0.7 23.075 2.1 23.2 2.8 C23.1 2.875 22.9 3.025 22.8 3.1 C15.7 3.1 14.1 3.5 14.1 5.3 C14.1 6.9 15.2 8.4 31.7 29.1 C43.5 7 43.8 6.1 43.8 4.9 C43.8 3.1 42.5 3.1 36.8 3.1 C36.66667 3 36.5 2.875 36.4 2.8 C36.275 2.1 36.025 0.7 35.9 0 C36 -0.075 36.2 -0.225 36.3 -0.3 C41.3 -0.1 44.9 0 52.1 0 C58.4 0 62.1 -0.1 63.6 -0.3 C63.73333 -0.2 63.9 -0.075 64 0 C64.125 0.7 64.375 2.1 64.5 2.8 C64.4 2.875 64.2 3.025 64.1 3.1 C58.8 3.1 58.1 3.2 56.9 4.2 C55.3 5.5 54.4 6.8 38.3 37.1 C45.06667 44.9 53.525 54.65 58.6 60.5 C63.4 66 64.6 66 69.3 66 C69.43333 66.1 69.6 66.225 69.7 66.3 C69.825 67 70.075 68.4 70.2 69.1 C70.1 69.175 69.9 69.325 69.8 69.4 C66 69.2 61.7 69.1 57.4 69.1 C53.3 69.1 48.5 69.2 46.7 69.4 C46.56667 69.3 46.4 69.175 46.3 69.1 C46.175 68.4 45.925 67 45.8 66.3 C45.9 66.225 46.1 66.075 46.2 66 C50.8 66 53.3 65.8 53.3 63.9 C53.3 62.4 52.1 61 35.9 41.4 C25.4 61 24.6 63 24.6 64.1 C24.6 65.2 25.2 66 30.3 66 C30.9 66 31.65 66 32.1 66 C32.2 66.075 32.4 66.225 32.5 66.3 C32.625 67 32.875 68.4 33 69.1 C32.9 69.175 32.7 69.325 32.6 69.4 C29.3 69.2 24.2 69.1 19.8 69.1 C15.6 69.1 7.2 69.2 5 69.4 C4.86667 69.3 4.7 69.175 4.6 69.1 C4.475 68.4 4.225 67 4.1 66.3 z" />
<glyph unicode="Y" horiz-adv-x="63" d="M13.5 0 C13.6 -0.075 13.8 -0.225 13.9 -0.3 C18.2 -0.1 22.9 0 26.5 0 C31.1 0 35.8 -0.1 40.7 -0.3 C40.83333 -0.2 41 -0.075 41.1 0 C41.225 0.7 41.475 2.1 41.6 2.8 C41.5 2.875 41.3 3.025 41.2 3.1 C33.6 3.1 32.7 4.4 32.7 6.2 C32.7 13.2 35.7 27.7 40.1 35.7 C49.9 53.5 57 60.6 65.9 61 C66.33333 64.23333 66.875 68.275 67.2 70.7 C53.5 68.8 39.9 48.6 33.8 31.4 C33.73333 31.4 33.65 31.4 33.6 31.4 C26.8 60.6 21.9 70.4 10.7 70.7 C8.2 68 5.1 65.6 2.2 63.3 C2.2 63.16667 2.2 63 2.2 62.9 C2.5 62.25 3.1 60.95 3.4 60.3 C3.5 60.3 3.7 60.3 3.8 60.3 C5.1 61.5 6.7 62.4 8.9 62.4 C12.3 62.4 15.1 59.7 17.9 52.3 C22 41.9 25.6 29.8 25.6 26.4 C25.6 21.6 24.1 9.7 21.7 4.9 C21 3.5 16.5 3.1 14.4 3.1 C14.26667 3 14.1 2.875 14 2.8 C13.875 2.1 13.625 0.7 13.5 0 z" />
<glyph unicode="Z" horiz-adv-x="63" d="M-0.6 2.9 C-0.75 2.175 -1.05 0.725 -1.2 0 C-1.075 -0.125 -0.825 -0.375 -0.7 -0.5 C3.3 -0.2 14.6 0 21.3 0 C30 0 48.8 -0.4 56.1 -0.4 C56.23333 -0.3 56.4 -0.175 56.5 -0.1 C57.3 5.9 58.3 13.4 59 16.9 C58.9 17 58.775 17.125 58.7 17.2 C58.025 17.2 56.675 17.2 56 17.2 C55.9 17.125 55.7 16.975 55.6 16.9 C53.6 9.2 52.7 7.4 51.3 6.3 C49.2 4.7 47.1 4.6 11.9 4.6 C28.9 25.43333 50.15 51.475 62.9 67.1 C63 67.6 63.2 68.6 63.3 69.1 C63.175 69.225 62.925 69.475 62.8 69.6 C56.4 68.9 48.4 68.9 40.9 68.9 C33 68.9 19.2 69.3 11.6 69.3 C11.46667 69.2 11.3 69.075 11.2 69 C11 63.4 10 58.1 9.2 52.9 C9.3 52.8 9.425 52.675 9.5 52.6 C10.175 52.6 11.525 52.6 12.2 52.6 C12.3 52.675 12.5 52.825 12.6 52.9 C13 55.5 15.1 62.1 16.3 62.9 C17.8 63.9 23.3 64.4 37.8 64.4 C41.6 64.4 45.4 64.3 49.2 64.3 C32.6 43.83333 11.85 18.25 -0.6 2.9 z" />
<glyph unicode="[" horiz-adv-x="33.3" d="M37.9 72.7 C37.825 72.775 37.675 72.925 37.6 73 C34.7 73 31.4 72.6 28.8 72.6 C26.1 72.6 22.1 72.7 19.3 73 C19.06667 72.83333 18.775 72.625 18.6 72.5 C18.6 61.6 8.6 1.5 5.9 -10.3 C6.03333 -10.46667 6.2 -10.675 6.3 -10.8 C9.9 -10.5 11.5 -10.4 14.8 -10.4 C19 -10.4 23 -10.6 26.1 -10.8 C26.23333 -10.7 26.4 -10.575 26.5 -10.5 C26.6 -9.9 26.8 -8.7 26.9 -8.1 C26.825 -8.025 26.675 -7.875 26.6 -7.8 C16.9 -7.3 16 -6.5 16 -4 C16 -1.3 26.2 64.3 26.8 66.6 C27.5 69.3 27.8 69.4 37.1 70 C37.23333 70.1 37.4 70.225 37.5 70.3 C37.6 70.9 37.8 72.1 37.9 72.7 z" />
<glyph unicode="\" horiz-adv-x="33.3" d="M22.6 -4.3 C22.725 -4.4 22.975 -4.6 23.1 -4.7 C24.975 -4.7 28.725 -4.7 30.6 -4.7 C30.7 -4.6 30.9 -4.4 31 -4.3 C26.65 14.65 17.95 52.55 13.6 71.5 C13.475 71.6 13.225 71.8 13.1 71.9 C11.225 71.9 7.475 71.9 5.6 71.9 C5.5 71.8 5.3 71.6 5.2 71.5 C9.55 52.55 18.25 14.65 22.6 -4.3 z" />
<glyph unicode="]" horiz-adv-x="33.3" d="M-2.9 -10.5 C-2.825 -10.575 -2.675 -10.725 -2.6 -10.8 C0.3 -10.8 3.6 -10.4 6.2 -10.4 C8.9 -10.4 12.9 -10.5 15.7 -10.8 C15.93333 -10.63333 16.225 -10.425 16.4 -10.3 C16.4 0.6 26.4 60.7 29.1 72.5 C28.96667 72.66667 28.8 72.875 28.7 73 C25.1 72.7 23.5 72.6 20.2 72.6 C16 72.6 12 72.8 8.9 73 C8.76667 72.9 8.6 72.775 8.5 72.7 C8.4 72.1 8.2 70.9 8.1 70.3 C8.175 70.225 8.325 70.075 8.4 70 C18.1 69.5 19 68.7 19 66.2 C19 63.5 8.8 -2.1 8.2 -4.4 C7.5 -7.1 7.2 -7.2 -2.1 -7.8 C-2.23333 -7.9 -2.4 -8.025 -2.5 -8.1 C-2.6 -8.7 -2.8 -9.9 -2.9 -10.5 z" />
<glyph unicode="^" horiz-adv-x="60" d="M9.8 34.4 C11.75 34.4 15.65 34.4 17.6 34.4 C21 41.15 27.8 54.65 31.2 61.4 C34.6 54.65 41.4 41.15 44.8 34.4 C46.75 34.4 50.65 34.4 52.6 34.4 C48.075 43.525 39.025 61.775 34.5 70.9 C32.85 70.9 29.55 70.9 27.9 70.9 C23.375 61.775 14.325 43.525 9.8 34.4 z" />
<glyph unicode="_" horiz-adv-x="50" d="M0 -12.5 C12.5 -12.5 37.5 -12.5 50 -12.5 C50 -11.25 50 -8.75 50 -7.5 C37.5 -7.5 12.5 -7.5 0 -7.5 C0 -8.75 0 -11.25 0 -12.5 z" />
<glyph unicode="`" horiz-adv-x="27.8" d="M29.4 53.4 C16.9 69.1 15.3 70.5 12.4 70.5 C10.2 70.5 8.7 68.4 8.7 66.9 C8.7 64.9 9.6 63.8 26 53.4 C27.13333 53.4 28.55 53.4 29.4 53.4 z" />
<glyph unicode="a" horiz-adv-x="50" d="M11.2 8.2 C11.2 19.3 16.4 37.8 18.8 39.9 C20.2 41.1 22.5 42.1 26 42.1 C29.2 42.1 32.1 41.2 34.6 39.8 C32.7 19.7 15.2 5.9 12.8 5.9 C11.7 5.9 11.2 6.4 11.2 8.2 zM39.8 44.9 C35.9 46.6 32.5 47.3 30.3 47.3 C22.4 47.3 13.5 39.7 12.2 38.2 C8.1 33.5 2.3 19.1 2.3 6.3 C2.3 0.7 3.6 -1.4 6.8 -1.4 C14.1 -1.4 27.2 13.9 31.3 21.5 C31.36667 21.43333 31.45 21.35 31.5 21.3 C28.3 11.5 26.7 4.9 26.7 2.1 C26.7 0 27.8 -1.4 30.3 -1.4 C33.3 -1.4 39.1 1.5 47.2 8.4 C47.2 8.53333 47.2 8.7 47.2 8.8 C46.925 9.225 46.375 10.075 46.1 10.5 C46.025 10.5 45.875 10.5 45.8 10.5 C42.5 7.5 39.4 5.7 37.7 5.7 C36.8 5.7 36.2 6.4 36.2 7.6 C36.2 10.8 43.2 42 45.3 46.5 C44.73333 46.76667 44.025 47.1 43.6 47.3 C42.65 46.7 40.75 45.5 39.8 44.9 z" />
<glyph unicode="b" horiz-adv-x="50" d="M37 35.9 C37 24.7 31.1 2.6 19.3 2.6 C15.3 2.6 12.7 5.3 12.7 10.3 C12.7 26.5 26.6 41.3 33.4 41.3 C36 41.3 37 39.4 37 35.9 zM5.2 66.1 C5.275 66 5.425 65.8 5.5 65.7 C13.4 65.7 13.9 65.5 13.9 62.4 C13.9 53 4.1 16 4.1 7.5 C4.1 0.1 10.7 -1.5 14.8 -1.5 C28.3 -1.5 46.1 13 46.1 38 C46.1 43.9 44.3 47.6 39.5 47.6 C35.4 47.6 24.9 43.8 16.8 31 C16.73333 31.06667 16.65 31.15 16.6 31.2 C19.3 44.7 21.6 58.6 25.3 71.9 C24.9 72.16667 24.4 72.5 24.1 72.7 C17.1 70.1 9.8 68.5 6.1 68.6 C5.93333 68.5 5.725 68.375 5.6 68.3 C5.5 67.75 5.3 66.65 5.2 66.1 z" />
<glyph unicode="c" horiz-adv-x="40.7" d="M36 11.1 C35.9 11.15 35.7 11.25 35.6 11.3 C26.8 4.9 23.3 4 20.2 4 C12.4 4 11.9 11.9 11.9 15.4 C11.9 19.5 12.7 25.6 15.2 33 C16.9 37.9 19 42.8 26.6 42.8 C30.3 42.8 34.4 41 35.3 40.3 C35.3 39.2 35 35.4 34.9 32.9 C35 32.76667 35.125 32.6 35.2 32.5 C35.825 32.5 37.075 32.5 37.7 32.5 C37.8 32.575 38 32.725 38.1 32.8 C38.6 37.2 39.2 41.2 40.1 44.9 C40 45.1 39.875 45.35 39.8 45.5 C37.7 46.6 34.3 47.7 30.6 47.7 C27.5 47.7 24.8 47.1 18.3 43.2 C13.1 40.1 12.2 39.5 10.5 37.5 C4.8 30.8 2.9 19.3 2.9 13.9 C2.9 5.2 6.8 -1.6 15.8 -1.6 C21.4 -1.6 27.8 1.7 36.2 8.3 C36.3 8.5 36.425 8.75 36.5 8.9 C36.375 9.45 36.125 10.55 36 11.1 z" />
<glyph unicode="d" horiz-adv-x="51.9" d="M31.5 66.2 C31.6 66.1 31.8 65.9 31.9 65.8 C39.7 65.8 40.2 65.6 40.2 62.4 C40.2 60.6 40 58.8 37.4 45.9 C35.3 47 32.5 47.6 29.4 47.6 C24.3 47.6 16.4 42.8 14 40.8 C4.3 32.7 2.5 12.2 2.5 8 C2.5 2.7 4 -1.2 7.9 -1.2 C13.3 -1.2 24.4 6.6 33.2 22.4 C33.26667 22.33333 33.35 22.25 33.4 22.2 C29.6 6.1 29.3 3.9 29.3 1.7 C29.3 -0.1 30 -1.1 32 -1.1 C34.5 -1.1 39.7 0.3 49.4 8.6 C49.4 8.73333 49.4 8.9 49.4 9 C49.1 9.4 48.5 10.2 48.2 10.6 C48.1 10.6 47.9 10.6 47.8 10.6 C46.9 9.7 41.7 6 39.9 6 C38.8 6 38.4 7.2 38.4 8.4 C38.4 11.4 49.2 65.4 51.6 71.9 C51.2 72.16667 50.7 72.5 50.4 72.7 C44.5 70.7 37.2 68.6 32.4 68.6 C32.23333 68.5 32.025 68.375 31.9 68.3 C31.8 67.775 31.6 66.725 31.5 66.2 zM11.2 10.5 C11.2 21.8 16.2 38.1 18.9 40.3 C19.5 40.8 21 42.6 26.5 42.6 C31.1 42.6 33.9 41.2 36.1 39.9 C35.4 22.1 18.3 6.2 13.5 6.2 C12.2 6.2 11.2 7.7 11.2 10.5 z" />
<glyph unicode="e" horiz-adv-x="42.6" d="M3.2 12.1 C3.2 2.5 9.9 -1.6 15.9 -1.6 C23.8 -1.6 33.5 5.2 36.3 8 C36.36667 8.16667 36.45 8.375 36.5 8.5 C36.35 9.025 36.05 10.075 35.9 10.6 C35.825 10.625 35.675 10.675 35.6 10.7 C31.1 7 25.5 4 20.4 4 C16 4 11.9 6.9 11.9 14.7 C11.9 17.3 12.2 18.6 12.5 20.1 C34.3 24.2 41.3 33.2 41.3 39.8 C41.3 43.8 38.7 47.6 32.1 47.6 C23.3 47.6 12.9 40.8 9.6 35.7 C6.2 30.5 3.2 18.4 3.2 12.1 zM32.6 38.3 C32.6 30.3 22 23.9 12.8 22.8 C16 34.3 18.6 43.5 27.1 43.5 C30.4 43.5 32.6 41.4 32.6 38.3 z" />
<glyph unicode="f" horiz-adv-x="31.5" d="M22.9 53.4 C24.5 63.2 27.3 66.7 31.9 66.7 C35.2 66.7 38.3 64.3 39.7 62.4 C40.03333 62.4 40.45 62.4 40.7 62.4 C41.3 65.4 42.7 69.2 43.8 71.5 C41.3 72.3 38.4 73.1 36 73.1 C33.9 73.1 31.9 72.9 25.5 68 C16.6 61.2 15.9 60.2 14.4 51.7 C13.93333 49.1 13.35 45.85 13 43.9 C10.8 42.5 6.4 41 3.7 40.1 C3.6 39.96667 3.475 39.8 3.4 39.7 C3.325 39.25 3.175 38.35 3.1 37.9 C3.175 37.825 3.325 37.675 3.4 37.6 C5.4 37.9 9.3 37.9 11.8 37.9 C9.9 23.6 7.9 9.8 3.2 -12.2 C1.8 -18.7 -0.8 -21.3 -4.1 -21.3 C-6.4 -21.3 -9.4 -19.6 -10.5 -17.7 C-10.93333 -17.8 -11.475 -17.925 -11.8 -18 C-11.9 -19.7 -13.6 -25.9 -14.3 -27.1 C-13.2 -27.6 -11.8 -28.2 -9.7 -28.2 C-0.8 -28.2 8.1 -14.8 9.3 -12.4 C14.4 -2.2 18.9 29 20.5 38 C24.3 37.9 28 37.7 31.6 37.7 C31.76667 37.86667 31.975 38.075 32.1 38.2 C32.3 39.7 32.8 42.5 33.6 43.6 C33.36667 43.76667 33.075 43.975 32.9 44.1 C30.6 43.8 24.5 43.3 21.3 43.3 C21.83333 46.66667 22.5 50.875 22.9 53.4 z" />
<glyph unicode="g" horiz-adv-x="48.1" d="M30.8 -15.3 C30.8 -20.7 24 -24.5 15.9 -24.5 C7 -24.5 2.3 -19.3 2.3 -14.3 C2.3 -8.7 8.3 -3.7 17 -0.8 C28.2 -8.7 30.8 -11.2 30.8 -15.3 zM33.1 35 C33.1 26.5 29.7 17.2 21.6 17.2 C15.5 17.2 13.4 21 13.4 26.7 C13.4 32.3 15.7 44.1 25.5 44.1 C31.2 44.1 33.1 40.1 33.1 35 zM49.3 43.6 C43.5 43 42.9 43 38.9 42.9 C36.2 45.6 32.4 47.5 27.9 47.5 C18 47.5 4.6 39.8 4.6 26.1 C4.6 19.5 8.8 13.8 17.3 13.8 C18.3 13.8 19.2 13.9 20.1 13.9 C20.1 13.83333 20.1 13.75 20.1 13.7 C15.4 11.3 11.7 7.9 11.7 5.5 C11.7 3.7 13.3 2.1 14.6 1.2 C5.5 -1.2 -5.2 -7.1 -5.2 -15.7 C-5.2 -23.4 3.9 -27.9 13.8 -27.9 C26.9 -27.9 39 -21.7 39 -12.4 C39 -1.6 20.7 3.7 20.7 9.2 C20.7 10.9 22.4 13.2 23.5 14.3 C32.4 16.4 42 22.2 42 33.7 C42 35.5 41.7 36.6 41.2 38 C42.4 38 43.6 38.1 44.8 38.1 C46.8 38.1 47.8 38 49 37.9 C49.3 40.3 49.4 41.2 49.9 43 C49.7 43.2 49.45 43.45 49.3 43.6 z" />
<glyph unicode="h" horiz-adv-x="55.6" d="M7 66.2 C7.1 66.1 7.3 65.9 7.4 65.8 C15.2 65.8 15.7 65.6 15.7 62.4 C15.7 57.6 6.4 8.6 2.3 -0.4 C2.63333 -0.66667 3.05 -1 3.3 -1.2 C5.1 -0.4 9.9 0.2 12.1 0.5 C13.4 10.3 15.1 17.2 18.8 24.1 C23.6 33 32.6 39.5 36.4 39.5 C37.9 39.5 38.5 38.3 38.5 37 C38.5 29.6 31.3 10.6 31.3 3 C31.3 0.8 32.6 -1.2 35 -1.2 C38.5 -1.2 44.6 2.5 51.9 8.6 C51.9 8.73333 51.9 8.9 51.9 9 C51.625 9.45 51.075 10.35 50.8 10.8 C50.7 10.8 50.5 10.8 50.4 10.8 C46.8 8 44.1 6.1 42.7 6.1 C41.5 6.1 40.9 6.8 40.9 7.8 C40.9 14.2 48.9 38.1 48.9 42.1 C48.9 45 47.9 47.2 45 47.2 C35 47.2 21.5 34.1 17 25.9 C16.93333 25.96667 16.85 26.05 16.8 26.1 C21.6 49.4 25.8 67.6 27.1 71.9 C26.7 72.16667 26.2 72.5 25.9 72.7 C20.4 70.4 12.7 68.6 7.9 68.6 C7.73333 68.5 7.525 68.375 7.4 68.3 C7.3 67.775 7.1 66.725 7 66.2 z" />
<glyph unicode="i" horiz-adv-x="29.6" d="M2.6 35.2 C2.7 35.2 2.9 35.2 3 35.2 C7.4 38.5 9.7 39.7 10.9 39.7 C12.2 39.7 12.4 38.8 12.4 37.3 C12.4 30.8 5.2 7.9 5.2 3.5 C5.2 0.8 6.6 -1.1 9.5 -1.1 C13 -1.1 18.1 2.2 26.2 8.3 C26.2 8.46667 26.2 8.675 26.2 8.8 C25.925 9.25 25.375 10.15 25.1 10.6 C25 10.6 24.8 10.6 24.7 10.6 C20.8 7.3 18.3 6.1 16.9 6.1 C15.7 6.1 15.2 7 15.2 8.6 C15.2 14.4 22.7 38.9 22.7 43.4 C22.7 45.9 20.8 47.1 18.9 47.1 C15 47.1 7 41.9 1.8 37.5 C1.76667 37.33333 1.725 37.125 1.7 37 C1.925 36.55 2.375 35.65 2.6 35.2 zM15.5 61.6 C15.5 59.1 17.1 56.9 20.2 56.9 C24.7 56.9 27.2 62.2 27.2 64.9 C27.2 67.6 25 69.4 22.4 69.4 C18.9 69.4 15.5 65.2 15.5 61.6 z" />
<glyph unicode="j" horiz-adv-x="29.6" d="M3.2 35.2 C3.3 35.2 3.5 35.2 3.6 35.2 C8 38.5 10.3 39.7 11.5 39.7 C12.8 39.7 13 38.8 13 37.3 C13 32.3 7.4 8.3 3 -12.4 C1 -21.6 -1.1 -23 -4 -23 C-6 -23 -7.5 -22.3 -9.5 -19.3 C-9.76667 -19.33333 -10.1 -19.375 -10.3 -19.4 C-10.75 -21.25 -11.65 -24.95 -12.1 -26.8 C-10.3 -27.8 -8.4 -28.1 -6.7 -28.1 C0.5 -28.1 9.4 -17.8 13.1 -1.9 C19 23.6 23.3 39.6 23.3 43.4 C23.3 45.9 21.4 47.1 19.5 47.1 C15.6 47.1 7.6 41.9 2.4 37.5 C2.36667 37.33333 2.325 37.125 2.3 37 C2.525 36.55 2.975 35.65 3.2 35.2 zM17 61.6 C17 59.1 18.6 56.9 21.7 56.9 C26.2 56.9 28.7 62.2 28.7 64.9 C28.7 67.6 26.5 69.4 23.9 69.4 C20.4 69.4 17 65.2 17 61.6 z" />
<glyph unicode="k" horiz-adv-x="50" d="M46.3 9.2 C46.225 9.2 46.075 9.2 46 9.2 C43.5 7.6 41.5 6.4 39.7 6.4 C37.5 6.4 36.1 8.5 28.7 31.7 C35.2 38.2 39 40.3 44.7 40.3 C46.5 40.3 47.6 40.1 48.5 40 C48.9 42.4 49.7 44.8 50.4 47.2 C49.2 47.4 48.1 47.6 46.8 47.6 C40.5 47.6 32 41.3 17.5 22.8 C17.43333 22.86667 17.35 22.95 17.3 23 C20.9 39.3 26.1 66 28 71.9 C27.6 72.16667 27.1 72.5 26.8 72.7 C21.3 70.4 13.6 68.6 8.8 68.6 C8.63333 68.5 8.425 68.375 8.3 68.3 C8.2 67.775 8 66.725 7.9 66.2 C8 66.1 8.2 65.9 8.3 65.8 C16.1 65.8 16.6 65.6 16.6 62.4 C16.6 56 7 11.3 3.4 -0.4 C3.7 -0.66667 4.075 -1 4.3 -1.2 C6.6 -0.2 10.1 0.6 13.2 1.1 C15.3 16.4 17.5 19.3 22 24.3 C30.3 0.8 31.2 -1.2 33.9 -1.2 C35.9 -1.2 42.5 3.3 47.5 7.4 C47.5 7.53333 47.5 7.7 47.5 7.8 C47.2 8.15 46.6 8.85 46.3 9.2 z" />
<glyph unicode="l" horiz-adv-x="29.6" d="M7.7 66.2 C7.8 66.1 8 65.9 8.1 65.8 C15.9 65.8 16.4 65.6 16.4 62.4 C16.4 56 4.6 10.2 4.6 2.6 C4.6 0.4 5.8 -1.4 8.2 -1.4 C10.7 -1.4 17.5 1.9 25.6 8.6 C25.6 8.73333 25.6 8.9 25.6 9 C25.3 9.4 24.7 10.2 24.4 10.6 C24.3 10.6 24.1 10.6 24 10.6 C23.1 9.7 17.9 6 16.1 6 C15 6 14.6 7.2 14.6 8.4 C14.6 11.4 25.4 65.4 27.8 71.9 C27.4 72.16667 26.9 72.5 26.6 72.7 C20.7 70.7 13.4 68.6 8.6 68.6 C8.43333 68.5 8.225 68.375 8.1 68.3 C8 67.775 7.8 66.725 7.7 66.2 z" />
<glyph unicode="m" horiz-adv-x="79.6" d="M2.8 35.5 C2.9 35.475 3.1 35.425 3.2 35.4 C6.2 37.8 9.2 39.4 10.6 39.4 C11.6 39.4 12.2 38.8 12.2 37.5 C12.2 32.5 7 8.9 3.8 -0.4 C4.06667 -0.66667 4.4 -1 4.6 -1.2 C7.4 -0.3 10.3 0.2 13.5 0.5 C14.6 8.3 16.5 16.4 19.1 21.9 C23 30 32.4 39.4 35.5 39.4 C36.5 39.4 37.2 38.8 37.2 37.2 C37.2 31.6 31.1 4.4 28.8 -0.4 C29.03333 -0.66667 29.325 -1 29.5 -1.2 C32.9 -0.1 34.2 0.3 38.7 0.6 C40.9 13.1 42.7 19.6 45 23.4 C50.1 31.8 57.9 39.4 61.1 39.4 C62.3 39.4 63.1 38.3 63.1 37.1 C63.1 30.5 55.6 9.8 55.6 3.5 C55.6 0.3 57.6 -1.2 59.8 -1.2 C63.7 -1.2 71.2 4.3 76.6 8.6 C76.6 8.73333 76.6 8.9 76.6 9 C76.25 9.4 75.55 10.2 75.2 10.6 C75.1 10.6 74.9 10.6 74.8 10.6 C71.5 7.8 68.1 6 67 6 C66.1 6 65.4 6.7 65.4 8 C65.4 10 67.6 17.9 69.5 25.9 C71.3 33.4 73.3 40.7 73.3 42.5 C73.3 45.3 71.4 47.2 68.8 47.2 C63.7 47.2 51.5 39.4 43.6 26 C43.53333 26.06667 43.45 26.15 43.4 26.2 C46.3 37 47.1 40 47.1 42.9 C47.1 46 45.2 47.2 43.1 47.2 C39.4 47.2 27.6 41.1 18.4 26 C18.33333 26.06667 18.25 26.15 18.2 26.2 C21.3 38.3 22.2 41.3 22.2 43.7 C22.2 45.7 21.2 47.2 18.5 47.2 C14.2 47.2 4.6 39.4 2.1 37.8 C2.06667 37.6 2.025 37.35 2 37.2 C2.2 36.775 2.6 35.925 2.8 35.5 z" />
<glyph unicode="n" horiz-adv-x="55.6" d="M2.7 35.5 C2.8 35.475 3 35.425 3.1 35.4 C6.1 37.8 9.1 39.4 10.5 39.4 C11.5 39.4 12.1 38.8 12.1 37.5 C12.1 32.5 6.9 8.9 3.7 -0.4 C3.96667 -0.66667 4.3 -1 4.5 -1.2 C7.3 -0.3 10.2 0.2 13.4 0.5 C14.5 8.3 16.5 16.7 19 21.9 C22.9 30 32.3 39.4 36.7 39.4 C38.1 39.4 39.2 38.6 39.2 37.1 C39.2 30.5 31.7 9.8 31.7 3.5 C31.7 0.3 33.7 -1.2 35.9 -1.2 C39.8 -1.2 47.3 4.3 52.7 8.6 C52.7 8.73333 52.7 8.9 52.7 9 C52.35 9.4 51.65 10.2 51.3 10.6 C51.2 10.6 51 10.6 50.9 10.6 C47.6 7.8 44.2 6 43.1 6 C42.2 6 41.5 6.7 41.5 8 C41.5 10 43.7 17.9 45.6 25.9 C47.4 33.4 49.4 40.7 49.4 42.5 C49.4 45 48 47.2 44.6 47.2 C37.9 47.2 24.8 37.6 18.3 26 C18.23333 26.06667 18.15 26.15 18.1 26.2 C21.2 38.3 22.1 41.1 22.1 43.7 C22.1 45.7 21.1 47.2 18.4 47.2 C14.1 47.2 4.5 39.4 2 37.8 C1.96667 37.6 1.925 37.35 1.9 37.2 C2.1 36.775 2.5 35.925 2.7 35.5 z" />
<glyph unicode="o" horiz-adv-x="48.1" d="M1.9 14.4 C1.9 5.6 7.4 -1.4 16.4 -1.4 C32.9 -1.4 44.4 13.8 44.4 32.6 C44.4 42.3 38.1 47.6 29.5 47.6 C17.3 47.6 1.9 36.4 1.9 14.4 zM35.2 32.3 C35.2 26 33.3 2.6 20.5 2.6 C13.7 2.6 11.1 7 11.1 13.9 C11.1 25.3 14.7 43.7 26.8 43.7 C32.3 43.7 35.2 39.4 35.2 32.3 z" />
<glyph unicode="p" horiz-adv-x="53.7" d="M40.3 35.9 C40.3 31.8 39.3 24.2 36 15.3 C32.4 5.7 27.9 3.2 22.4 3.2 C19.4 3.2 17.1 4.5 15.2 6.1 C16.3 14 18.1 22.3 20.8 26.9 C25.5 34.9 33.3 41.5 37.2 41.5 C39.3 41.5 40.3 39.7 40.3 35.9 zM3.1 35.9 C3.2 35.9 3.4 35.9 3.5 35.9 C5.5 37.7 9 40.1 10.7 40.1 C11.5 40.1 12.3 39.4 12.3 38 C12.3 35.2 7.1 4.2 -0.5 -27.2 C-0.13333 -27.53333 0.325 -27.95 0.6 -28.2 C3.4 -26.9 6.8 -26.5 9.7 -26.4 C10.5 -18.5 12.5 -7.2 14.1 -0.3 C15.2 -0.8 17 -1.5 19.4 -1.5 C24.5 -1.5 38.2 4.9 42.8 13 C47.8 22 49.7 30.9 49.7 36.9 C49.7 44.3 46.9 47.6 43.1 47.6 C38.5 47.6 27.2 42 19.3 29.3 C19.23333 29.36667 19.15 29.45 19.1 29.5 C21.5 38.8 22.2 42.5 22.2 44.6 C22.2 46.8 20.9 47.6 19.3 47.6 C15.5 47.6 9.2 43.8 2.2 38.2 C2.16667 38.06667 2.125 37.9 2.1 37.8 C2.35 37.325 2.85 36.375 3.1 35.9 z" />
<glyph unicode="q" horiz-adv-x="50" d="M40.3 44.3 C37.1 46 33.1 47.2 30.2 47.2 C21.8 47.2 12.5 38.2 10.8 35.7 C8.5 32.4 3.4 21.4 3.4 9 C3.4 2 5.1 -1.2 8.7 -1.2 C14.9 -1.2 25.7 9 31.5 17.9 C31.56667 17.83333 31.65 17.75 31.7 17.7 C24.8 -19 23.2 -26.4 21.1 -26.7 C21.36667 -27.2 21.7 -27.825 21.9 -28.2 C25.7 -27.2 26.7 -26.9 32.3 -26.1 C34.7 -9.2 40.6 27.6 46.1 46.3 C45.43333 46.63333 44.6 47.05 44.1 47.3 C43.15 46.55 41.25 45.05 40.3 44.3 zM12.3 10.7 C12.3 17.7 14.7 27.7 18 35.2 C20.3 40.4 22.1 42.2 26.2 42.2 C29.7 42.2 33.1 41.3 36.1 39.5 C35.1 31.1 33.7 26.8 30 19.7 C28.9 17.6 19.2 5.6 14.8 5.6 C13.1 5.6 12.3 7.5 12.3 10.7 z" />
<glyph unicode="r" horiz-adv-x="37" d="M2.3 35.3 C2.4 35.3 2.6 35.3 2.7 35.3 C6.4 38.4 8.7 39.6 10.1 39.6 C11.5 39.6 11.8 38.8 11.8 37.5 C11.8 32.6 6 4.5 3.1 -0.4 C3.43333 -0.66667 3.85 -1 4.1 -1.2 C7.4 0 8.5 0.2 13.3 0.5 C15.3 22.1 25.7 37.2 32.8 37.2 C34.4 37.2 35.6 36.7 36.3 34.8 C36.9 34.93333 37.65 35.1 38.1 35.2 C38.3 38.5 38.9 42.3 39.9 46.4 C39.83333 46.53333 39.75 46.7 39.7 46.8 C39.4 47.1 38.7 47.3 37.6 47.3 C30.7 47.3 22.3 35.5 18.3 26.7 C18.23333 26.76667 18.15 26.85 18.1 26.9 C19.6 32.8 22 41.3 22 43.6 C22 45.8 20.8 47.3 18.5 47.3 C14.3 47.3 4.9 40.7 1.5 37.5 C1.46667 37.36667 1.425 37.2 1.4 37.1 C1.625 36.65 2.075 35.75 2.3 35.3 z" />
<glyph unicode="s" horiz-adv-x="38.9" d="M32.5 32.7 C32.575 32.775 32.725 32.925 32.8 33 C33.5 38.8 33.6 39.7 35 44.9 C34.9 45.06667 34.775 45.275 34.7 45.4 C31.1 46.7 27.8 47.5 24.6 47.5 C17.2 47.5 3.9 40.1 3.9 30.8 C3.9 23.8 9.3 20.8 16.3 20.1 C23 19.4 26.9 18.4 26.9 13 C26.9 6.3 22.4 3.9 16.6 3.9 C11.9 3.9 6.1 6.6 6 7.3 C5.9 8.6 5.9 12.2 5.9 14.7 C5.8 14.8 5.675 14.925 5.6 15 C5.075 15 4.025 15 3.5 15 C3.425 14.925 3.275 14.775 3.2 14.7 C2.6 10.4 1.9 5.6 0.8 2.1 C0.86667 1.93333 0.95 1.725 1 1.6 C3.2 0.2 7.4 -1.4 12.4 -1.4 C17.5 -1.4 20.6 -0.1 25.6 3.3 C31.7 7.5 34.1 11.2 34.1 16.9 C34.1 33.3 11 22.3 11 34.8 C11 37.4 12.7 41.9 20.5 41.9 C24.3 41.9 30 40.3 30 38.8 C30 38.1 29.8 35 29.7 33 C29.8 32.9 29.925 32.775 30 32.7 C30.625 32.7 31.875 32.7 32.5 32.7 z" />
<glyph unicode="t" horiz-adv-x="29.6" d="M24.9 11.4 C24.8 11.4 24.6 11.4 24.5 11.4 C19.5 7.5 16.4 5.7 14.8 5.7 C13.7 5.7 13.2 6.4 13.2 7.8 C13.2 9.8 13.6 12.1 18.7 38 C22.4 38 26.8 37.9 29.7 37.5 C29.83333 37.66667 30 37.875 30.1 38 C30.3 39.5 30.9 42.1 31.6 43.3 C31.4 43.53333 31.15 43.825 31 44 C29.4 43.5 24.8 43.3 19.9 43.3 C21.6 52.6 23.1 59.7 24.4 63.8 C24.06667 64.06667 23.65 64.4 23.4 64.6 C21 63.4 18.8 62.5 14.7 61 C13.76667 55.3 12.6 48.175 11.9 43.9 C9.9 42.5 5.5 41 2.8 40.1 C2.7 39.96667 2.575 39.8 2.5 39.7 C2.425 39.25 2.275 38.35 2.2 37.9 C2.275 37.825 2.425 37.675 2.5 37.6 C4.5 37.9 8.4 37.9 10.8 37.9 C8.6 27.4 3.8 6.1 3.8 2.8 C3.8 1.7 3.8 -1.2 7.8 -1.2 C11.7 -1.2 17.3 2.3 26.2 9.5 C26.2 9.66667 26.2 9.875 26.2 10 C25.875 10.35 25.225 11.05 24.9 11.4 z" />
<glyph unicode="u" horiz-adv-x="53.7" d="M2.1 35.3 C2.2 35.275 2.4 35.225 2.5 35.2 C6.8 38.4 8.9 39.5 10.1 39.5 C11.2 39.5 11.7 39 11.7 37.4 C11.7 30.3 5.2 9.9 5.2 3.7 C5.2 0.2 6.7 -1.2 9.4 -1.2 C17.1 -1.2 28.9 11.7 33.9 20.3 C33.96667 20.23333 34.05 20.15 34.1 20.1 C31.1 8.9 30.4 4.7 30.4 2.7 C30.4 0 31.7 -1.2 33.8 -1.2 C37.6 -1.2 44.9 3.3 51 8.5 C51 8.63333 51 8.8 51 8.9 C50.65 9.325 49.95 10.175 49.6 10.6 C49.5 10.6 49.3 10.6 49.2 10.6 C45 7.2 43.1 6.2 41.5 6.2 C40.5 6.2 39.9 6.9 39.9 8.6 C39.9 12 46.3 40.3 48.6 46.6 C48.33333 46.83333 48 47.125 47.8 47.3 C46.4 46.4 41.3 45.6 39.4 45.6 C38.2 39.6 36.9 34.1 34.3 26.2 C32.2 19.9 20.5 6.5 16.5 6.5 C15.3 6.5 14.8 7 14.8 9 C14.8 15.4 22.2 38.3 22.2 43.5 C22.2 45.7 20.7 47.3 18.8 47.3 C16.1 47.3 11.5 45.2 1.2 37.5 C1.16667 37.36667 1.125 37.2 1.1 37.1 C1.35 36.65 1.85 35.75 2.1 35.3 z" />
<glyph unicode="v" horiz-adv-x="50" d="M32.8 39.4 C32.875 39.375 33.025 39.325 33.1 39.3 C34.2 39.8 35.2 40.1 36.2 40.1 C38.2 40.1 39.4 37.9 39.4 34.2 C39.4 25.1 34.5 4.4 23 4.4 C18.9 4.4 15.3 7.2 15.3 14.3 C15.3 21.9 19.2 35.6 27.8 45.3 C27.36667 45.73333 26.825 46.275 26.5 46.6 C24.9 46.2 22.9 45.9 20.9 45.9 C16.7 45.9 12.2 46.6 10.4 46.6 C9.1 46.6 7.8 46.4 5.3 45.9 C4.4 42.6 3.8 40.4 1.4 33.8 C1.46667 33.7 1.55 33.575 1.6 33.5 C2.1 33.5 3.1 33.5 3.6 33.5 C3.7 33.575 3.9 33.725 4 33.8 C5.9 38.2 6.9 39.9 9 39.9 C10.6 39.9 11.6 39.5 13.5 39.5 C16.5 39.5 19.1 40 20.7 40.3 C20.76667 40.23333 20.85 40.15 20.9 40.1 C16.4 35.9 6.6 22.9 6.6 11.9 C6.6 4.1 11 -1.6 18.2 -1.6 C31.1 -1.6 47.2 20.7 47.2 38.3 C47.2 44.5 44.6 47.5 40.5 47.5 C39.2 47.5 38.3 47.3 37.8 47.1 C36.5 45.1 34.3 43.1 31.9 41.1 C31.86667 40.96667 31.825 40.8 31.8 40.7 C32.05 40.375 32.55 39.725 32.8 39.4 z" />
<glyph unicode="w" horiz-adv-x="74.1" d="M46.9 47.2 C44.9 46.3 44 46 38.7 45.1 C36.4 28.5 29.3 5.3 20.6 5.3 C17.2 5.3 15.2 9.1 15.2 14.3 C15.2 21.9 19.1 35.6 27.7 45.3 C27.26667 45.73333 26.725 46.275 26.4 46.6 C24.8 46.2 22.8 45.9 20.8 45.9 C16.6 45.9 12.1 46.6 10.3 46.6 C9 46.6 7.7 46.4 5.2 45.9 C4.3 42.6 3.7 40.4 1.3 33.8 C1.36667 33.7 1.45 33.575 1.5 33.5 C2 33.5 3 33.5 3.5 33.5 C3.6 33.575 3.8 33.725 3.9 33.8 C5.8 38.2 6.8 39.9 8.9 39.9 C10.5 39.9 11.5 39.5 13.4 39.5 C16.4 39.5 19 40 20.6 40.3 C20.66667 40.23333 20.75 40.15 20.8 40.1 C16.3 35.9 6.5 22.9 6.5 11.9 C6.5 3.1 10.7 -1.4 15.9 -1.4 C25 -1.4 31 9.7 33.7 16.3 C33.76667 16.23333 33.85 16.15 33.9 16.1 C33.2 12.8 33.1 10.7 33.1 9.2 C33.1 2.2 36.7 -1.6 42 -1.6 C54.4 -1.6 70.5 20.7 70.5 38.3 C70.5 44.5 67.9 47.5 63.8 47.5 C62.5 47.5 61.6 47.3 61.1 47.1 C59.8 45.1 57.6 43.1 55.2 41.1 C55.16667 40.96667 55.125 40.8 55.1 40.7 C55.35 40.375 55.85 39.725 56.1 39.4 C56.175 39.375 56.325 39.325 56.4 39.3 C57.5 39.8 58.5 40.1 59.5 40.1 C61.5 40.1 62.7 37.9 62.7 34.2 C62.7 21.8 56.1 4.7 47.4 4.7 C43.1 4.7 41.4 8.2 41.4 13.4 C41.4 23.7 47.4 44.2 48.4 46.2 C47.9 46.53333 47.275 46.95 46.9 47.2 z" />
<glyph unicode="x" horiz-adv-x="48.1" d="M6 36.5 C6.1 36.525 6.3 36.575 6.4 36.6 C7.6 38.4 10.1 40.7 12.8 40.7 C15.9 40.7 17.1 37.4 18.6 27.2 C18.9 25.2 19.275 22.7 19.5 21.2 C18.225 19.375 15.675 15.725 14.4 13.9 C11 9 7.5 6.1 5.6 6.1 C3.6 6.1 2.4 7.6 2.2 10.1 C1.53333 10.1 0.7 10.1 0.2 10.1 C-0.4 6.9 -1.1 3.7 -2.3 0.5 C-1 -0.2 1 -1.2 3 -1.2 C6.6 -1.2 9.9 2.1 14.4 8.8 C16.33333 11.66667 18.75 15.25 20.2 17.4 C20.425 15.925 20.875 12.975 21.1 11.5 C22.6 1.9 24.4 -1.2 28.7 -1.2 C32.4 -1.2 35.8 0.9 43.3 7.6 C43.3 7.76667 43.3 7.975 43.3 8.1 C43.025 8.575 42.475 9.525 42.2 10 C42.1 10 41.9 10 41.8 10 C38.5 7 36.3 6 34.2 6 C30.9 6 30 8.4 28.9 15 C28.26667 18.73333 27.475 23.4 27 26.2 C28.6 28.45 31.8 32.95 33.4 35.2 C35.9 38.7 38.3 40.2 40.2 40.2 C41.8 40.2 43 39.2 43.7 36.9 C44.26667 36.9 44.975 36.9 45.4 36.9 C46.1 40.2 47 43.5 48.1 46.9 C47.4 47.4 46.7 47.8 44.3 47.8 C40.4 47.8 37.2 46 31.7 38 C29.86667 35.3 27.575 31.925 26.2 29.9 C25.975 31.425 25.525 34.475 25.3 36 C24.2 43.6 21.9 47.8 15.9 47.8 C12.2 47.8 9.2 46.2 9.1 46.1 C7.5 43.3 5.8 40.5 4.1 38 C4.1 37.86667 4.1 37.7 4.1 37.6 C4.575 37.325 5.525 36.775 6 36.5 z" />
<glyph unicode="y" horiz-adv-x="51.9" d="M1.1 35.7 C1.2 35.7 1.4 35.7 1.5 35.7 C4.1 37.9 7 40 8.3 40 C10.2 40 10.7 38.6 10.7 34.8 C10.7 24.9 8.7 15.2 8.7 5.3 C8.7 0.7 10.5 -1.1 13.5 -1.1 C17.9 -1.1 23 2.8 31.7 15.1 C31.76667 15.03333 31.85 14.95 31.9 14.9 C30.175 9.325 26.725 -1.825 25 -7.4 C22.2 -16.4 17.7 -23.2 12.1 -23.2 C7.9 -23.2 6.2 -19.3 6.2 -16.8 C6.2 -16.4 6.2 -16.1 6.3 -15.6 C5.86667 -15.4 5.325 -15.15 5 -15 C3.5 -16.7 1.5 -17.9 -0.5 -18.8 C-0.4 -24.2 4.1 -27.9 8.7 -27.9 C16.1 -27.9 25.5 -19 29 -14.4 C36.5 -4.5 43.4 29.6 50.1 46.7 C49.8 46.96667 49.425 47.3 49.2 47.5 C46 46.5 45 46.3 39.9 45.4 C39.6 43.7 37.1 29.6 32.7 21.6 C28.9 14.7 22.7 7.5 19.7 7.5 C18.5 7.5 17.6 8.6 17.6 11 C17.6 21.2 20 34.8 20 41.6 C20 46.1 18 47.5 15.7 47.5 C12.4 47.5 5.6 42.8 -0.2 37.8 C-0.2 37.66667 -0.2 37.5 -0.2 37.4 C0.125 36.975 0.775 36.125 1.1 35.7 z" />
<glyph unicode="z" horiz-adv-x="42.6" d="M6.5 32.9 C6.8 33.8 9.1 38.2 9.5 38.3 C10.1 38.5 11 38.6 12.3 38.6 C13.8 38.6 21.1 37.8 22.8 37.8 C26.4 37.8 30.2 38.8 33.1 39.9 C33.16667 39.83333 33.25 39.75 33.3 39.7 C24.5 30.025 6.9 10.675 -1.9 1 C-1.425 0.5 -0.475 -0.5 0 -1 C3 1.5 5.8 2.4 9 2.4 C16 2.4 22.3 -1.1 28.4 -1.1 C31.1 -1.1 33.9 -0.8 36 0.2 C36.8 4.9 38.6 11.2 39.5 14 C39.43333 14.1 39.35 14.225 39.3 14.3 C38.75 14.3 37.65 14.3 37.1 14.3 C37 14.225 36.8 14.075 36.7 14 C35.7 11 34.7 8.2 34.1 8 C33 7.6 31.3 7.3 28.9 7.3 C25.9 7.3 21.3 8.3 18 8.3 C13.4 8.3 10.5 7.8 7.5 6.5 C7.43333 6.56667 7.35 6.65 7.3 6.7 C15.825 15.975 32.875 34.525 41.4 43.8 C41.55 44.475 41.85 45.825 42 46.5 C41.8 46.625 41.4 46.875 41.2 47 C38 44.8 35.9 44.1 32.3 44.1 C28.3 44.1 18.9 47 13.5 47 C11.5 47 9.1 46.6 7.6 45.9 C7 43.3 4.5 35.7 3.6 33.2 C3.66667 33.1 3.75 32.975 3.8 32.9 C4.475 32.9 5.825 32.9 6.5 32.9 z" />
<glyph unicode="{" horiz-adv-x="33.3" d="M35 72.7 C34.925 72.775 34.775 72.925 34.7 73 C25.2 73 19.4 70.8 17.1 57.6 C16.3 53.03333 15.3 47.325 14.7 43.9 C13.5 36.8 11.5 33.3 5 31.1 C9.1 29.5 10.8 28 10.8 23.5 C10.8 17.9 7.5 6.9 7.5 -1.2 C7.5 -9.3 12.6 -10.8 20.3 -10.8 C20.43333 -10.7 20.6 -10.575 20.7 -10.5 C20.775 -10.025 20.925 -9.075 21 -8.6 C20.925 -8.525 20.775 -8.375 20.7 -8.3 C17.6 -7.6 15.9 -5.2 15.9 -1.3 C15.9 1.5 16.7 5.4 17.5 9.5 C18.2 13.6 19 18.1 19 22 C19 26.5 17.1 29.4 12.2 31 C12.2 31.06667 12.2 31.15 12.2 31.2 C19.5 33.3 22.1 37.7 23.4 45.5 C24.1 49.53333 24.975 54.575 25.5 57.6 C26.8 65.2 29.3 69.5 34.3 70.5 C34.43333 70.6 34.6 70.725 34.7 70.8 C34.775 71.275 34.925 72.225 35 72.7 z" />
<glyph unicode="|" horiz-adv-x="22.2" d="M8.4 -25 C10.35 -25 14.25 -25 16.2 -25 C16.2 0 16.2 50 16.2 75 C14.25 75 10.35 75 8.4 75 C8.4 50 8.4 0 8.4 -25 z" />
<glyph unicode="}" horiz-adv-x="33.3" d="M-0.1 -10.5 C-0.025 -10.575 0.125 -10.725 0.2 -10.8 C9.7 -10.8 15.5 -8.6 17.8 4.6 C18.6 9.16667 19.6 14.875 20.2 18.3 C21.4 25.4 23.4 28.9 29.9 31.1 C25.8 32.7 24.1 34.2 24.1 38.7 C24.1 44.3 27.4 55.3 27.4 63.4 C27.4 71.5 22.3 73 14.6 73 C14.46667 72.9 14.3 72.775 14.2 72.7 C14.125 72.225 13.975 71.275 13.9 70.8 C13.975 70.725 14.125 70.575 14.2 70.5 C17.3 69.8 19 67.4 19 63.5 C19 60.7 18.2 56.8 17.4 52.7 C16.7 48.6 15.9 44.1 15.9 40.2 C15.9 35.7 17.8 32.8 22.7 31.2 C22.7 31.13333 22.7 31.05 22.7 31 C15.4 28.9 12.8 24.5 11.5 16.7 C10.8 12.66667 9.925 7.625 9.4 4.6 C8.1 -3 5.6 -7.3 0.6 -8.3 C0.46667 -8.4 0.3 -8.525 0.2 -8.6 C0.125 -9.075 -0.025 -10.025 -0.1 -10.5 z" />
<glyph unicode="~" horiz-adv-x="60" d="M10.5 17.5 C14 22.9 16.4 24.9 19.3 24.9 C21.7 24.9 25.2 23.1 29.1 21.4 C33 19.7 37.1 17.9 40.6 17.9 C46.2 17.9 50.6 21.3 53.1 26.5 C51.9 28.7 50.4 31.45 49.5 33.1 C46 27.7 43.6 25.7 40.7 25.7 C38.4 25.7 34.7 27.4 30.9 29.2 C27.1 31 22.9 32.7 19.4 32.7 C13.8 32.7 9.4 29.3 6.9 24.1 C8.1 21.9 9.6 19.15 10.5 17.5 z" />
<glyph unicode="" horiz-adv-x="25" d="" />
<glyph unicode="" horiz-adv-x="25" d="M8 38.8 C8 36.2 9.8 33.7 12.6 33.7 C15.6 33.7 19.9 36.7 19.9 42.4 C19.9 45.1 18.6 47.6 15.3 47.6 C11.2 47.6 8 44 8 38.8 zM8.9 25 C6.5 14.3 -0.3 -10.9 -4.6 -23 C-4.2 -23.33333 -3.7 -23.75 -3.4 -24 C-1.3 -23 1.7 -21.9 7.7 -21.3 C8.2 -12.2 11.3 15.5 13.7 26.7 C13.43333 26.86667 13.1 27.075 12.9 27.2 C11.9 26.65 9.9 25.55 8.9 25 z" />
<glyph unicode="" horiz-adv-x="50" d="M19.9 6.9 C17.9 9.5 17.7 13.3 17.7 15.4 C17.7 19.5 18.5 25.6 21 33 C22.7 37.9 24.8 42.8 32.4 42.8 C32.7 42.8 33.1 42.8 33.5 42.7 C28.96667 30.76667 23.3 15.85 19.9 6.9 zM13.4 -10.1 C13.45 -10.2 13.55 -10.4 13.6 -10.5 C14.375 -10.5 15.925 -10.5 16.7 -10.5 C16.8 -10.4 17 -10.2 17.1 -10.1 C17.925 -7.95 19.575 -3.65 20.4 -1.5 C20.8 -1.6 21.2 -1.6 21.6 -1.6 C27.2 -1.6 33.6 1.7 42 8.3 C42.1 8.5 42.225 8.75 42.3 8.9 C42.175 9.45 41.925 10.55 41.8 11.1 C41.7 11.15 41.5 11.25 41.4 11.3 C32.6 4.9 29.1 4 26 4 C24.6 4 23.5 4.2 22.7 4.7 C27.43333 17.16667 33.35 32.75 36.9 42.1 C38.9 41.5 40.6 40.7 41.1 40.3 C41.1 39.2 40.8 35.4 40.7 32.9 C40.8 32.76667 40.925 32.6 41 32.5 C41.625 32.5 42.875 32.5 43.5 32.5 C43.6 32.575 43.8 32.725 43.9 32.8 C44.4 37.2 45 41.2 45.9 44.9 C45.8 45.1 45.675 45.35 45.6 45.5 C44 46.3 41.7 47.2 39 47.5 C39.8 49.6 40.8 52.225 41.4 53.8 C41.35 53.9 41.25 54.1 41.2 54.2 C40.425 54.2 38.875 54.2 38.1 54.2 C38 54.1 37.8 53.9 37.7 53.8 C37.125 52.25 35.975 49.15 35.4 47.6 C32.7 47.5 29.9 46.7 24.1 43.2 C18.9 40.1 18 39.5 16.3 37.5 C10.6 30.8 8.7 19.3 8.7 13.9 C8.7 6.9 11.2 1.1 17 -0.8 C15.8 -3.9 14.3 -7.775 13.4 -10.1 z" />
<glyph unicode="" horiz-adv-x="50" d="M1.8 -1.8 C2.425 -1.8 3.675 -1.8 4.3 -1.8 C5.8 -1.1 8.7 1.2 9.8 2.3 C18.5 1.8 32.8 -1.3 38.7 -1.3 C40.9 -1.3 44.2 -0.7 46.2 -0.3 C46.7 3.7 48.3 11.6 49.3 15 C49.2 15.13333 49.075 15.3 49 15.4 C48.325 15.45 46.975 15.55 46.3 15.6 C46.2 15.525 46 15.375 45.9 15.3 C44.6 11.7 44.3 10.9 42.9 7.6 C41.2 7.1 39.9 6.8 37.1 6.8 C35.5 6.8 27.7 7.1 25.9 7.1 C21.4 7.1 17.4 7 13.1 6.4 C15.7 9.7 20.8 16.4 22.2 31.1 C26.2 31.1 31.1 31.1 35.5 30.8 C35.66667 30.96667 35.875 31.175 36 31.3 C36.1 32.2 36.5 34.2 36.9 35.3 C36.7 35.53333 36.45 35.825 36.3 36 C35.2 35.7 28.4 35.5 22.5 35.5 C23.5 48.9 23.8 52.5 26.7 57.4 C28.7 60.8 31.9 63.2 36.6 63.2 C40.3 63.2 43.8 60.7 44.1 60.2 C44.3 59.9 44.3 55.7 44.4 53.5 C44.5 53.4 44.625 53.275 44.7 53.2 C45.425 53.175 46.875 53.125 47.6 53.1 C47.675 53.175 47.825 53.325 47.9 53.4 C48.1 54.8 49.1 64.3 50.4 66.4 C50.33333 66.56667 50.25 66.775 50.2 66.9 C48.1 67.8 43.3 69.1 40.3 69.1 C33.8 69.1 26.5 64.2 21.3 59.8 C13.8 53.5 13 50.2 12.8 35.5 C10.1 35.5 7.5 35.6 5.3 35.8 C5.13333 35.63333 4.925 35.425 4.8 35.3 C4.7 34.2 4.4 32.6 4.1 31.5 C4.23333 31.33333 4.4 31.125 4.5 31 C7.3 31 9.9 30.9 12.6 30.9 C12.7 29.4 12.7 27.9 12.7 26.5 C12.7 17.7 11.1 10.8 8.2 6.3 C6.2 5.8 4.1 4.9 2.5 3.9 C2.26667 2 1.975 -0.375 1.8 -1.8 z" />
<glyph unicode="" horiz-adv-x="50" d="M44.2 50.9 C40.5 53.7 35.9 55.4 31 55.4 C26.1 55.4 21.5 53.7 17.8 50.9 C16.16667 52.56667 14.125 54.65 12.9 55.9 C11.85 54.85 9.75 52.75 8.7 51.7 C9.925 50.45 12.375 47.95 13.6 46.7 C10.9 43.1 9.2 38.5 9.2 33.6 C9.2 28.7 10.9 24.1 13.6 20.5 C11.96667 18.83333 9.925 16.75 8.7 15.5 C9.75 14.45 11.85 12.35 12.9 11.3 C14.125 12.55 16.575 15.05 17.8 16.3 C21.5 13.5 26.1 11.8 31 11.8 C35.9 11.8 40.5 13.5 44.2 16.3 C45.86667 14.63333 47.95 12.55 49.2 11.3 C50.25 12.35 52.35 14.45 53.4 15.5 C52.15 16.75 49.65 19.25 48.4 20.5 C51.1 24.1 52.8 28.7 52.8 33.6 C52.8 38.5 51.1 43.1 48.4 46.7 C50.06667 48.36667 52.15 50.45 53.4 51.7 C52.35 52.75 50.25 54.85 49.2 55.9 C47.95 54.65 45.45 52.15 44.2 50.9 zM45.6 33.6 C45.6 25.5 39.1 19 31 19 C22.9 19 16.4 25.5 16.4 33.6 C16.4 41.7 22.9 48.2 31 48.2 C39.1 48.2 45.6 41.7 45.6 33.6 z" />
<glyph unicode="" horiz-adv-x="50" d="M47.4 32.4 C47.3 32.5 47.1 32.7 47 32.8 C43.2 32.8 35.6 32.8 31.8 32.8 C32.1 33.8 32.6 34.8 33 35.7 C42 53.5 48.4 60.6 56.2 61 C56.63333 64.03333 57.175 67.825 57.5 70.1 C45.4 68.8 33.1 48.6 26.8 31.4 C26.73333 31.4 26.65 31.4 26.6 31.4 C21.7 60.6 17.6 70.2 7.7 70.5 C5.4 68 2.6 65.6 0 63.3 C0 63.16667 0 63 0 62.9 C0.275 62.25 0.825 60.95 1.1 60.3 C1.175 60.3 1.325 60.3 1.4 60.3 C2.6 61.5 4 62.4 5.9 62.4 C8.9 62.4 11.4 59.7 13.7 52.3 C16 45.2 18.2 37.2 19.1 32.8 C15 32.8 9.875 32.8 6.8 32.8 C6.7 32.7 6.5 32.5 6.4 32.4 C6.2 31.55 5.8 29.85 5.6 29 C5.7 28.9 5.9 28.7 6 28.6 C9.45 28.6 16.35 28.6 19.8 28.6 C20 27.5 20.1 26.9 20.1 26.4 C20.1 24.9 19.9 22.8 19.6 20.4 C14.33333 20.4 7.75 20.4 3.8 20.4 C3.7 20.3 3.5 20.1 3.4 20 C3.2 19.15 2.8 17.45 2.6 16.6 C2.7 16.5 2.9 16.3 3 16.2 C7 16.2 15 16.2 19 16.2 C18.3 11.9 17.4 7.4 16.2 4.9 C15.6 3.5 11.6 3.1 9.8 3.1 C9.66667 3 9.5 2.875 9.4 2.8 C9.275 2.1 9.025 0.7 8.9 0 C9 -0.075 9.2 -0.225 9.3 -0.3 C13.1 -0.1 17.2 0 20.4 0 C24.4 0 28.6 -0.1 32.9 -0.3 C33.03333 -0.2 33.2 -0.075 33.3 0 C33.425 0.7 33.675 2.1 33.8 2.8 C33.7 2.875 33.5 3.025 33.4 3.1 C26.7 3.1 25.9 4.4 26 6.2 C26 8.7 26.4 12.3 27.2 16.2 C32.53333 16.2 39.2 16.2 43.2 16.2 C43.3 16.3 43.5 16.5 43.6 16.6 C43.8 17.45 44.2 19.15 44.4 20 C44.3 20.1 44.1 20.3 44 20.4 C40 20.4 32 20.4 28 20.4 C28.6 23.2 29.4 26 30.2 28.6 C35.53333 28.6 42.2 28.6 46.2 28.6 C46.3 28.7 46.5 28.9 46.6 29 C46.8 29.85 47.2 31.55 47.4 32.4 z" />
<glyph unicode="" horiz-adv-x="22.2" d="M8.4 -17.5 C10.35 -17.5 14.25 -17.5 16.2 -17.5 C16.2 -8.75 16.2 8.75 16.2 17.5 C14.25 17.5 10.35 17.5 8.4 17.5 C8.4 8.75 8.4 -8.75 8.4 -17.5 zM8.4 32.5 C10.35 32.5 14.25 32.5 16.2 32.5 C16.2 41.25 16.2 58.75 16.2 67.5 C14.25 67.5 10.35 67.5 8.4 67.5 C8.4 58.75 8.4 41.25 8.4 32.5 z" />
<glyph unicode="" horiz-adv-x="50" d="M42.8 52.9 C42.925 52.975 43.175 53.125 43.3 53.2 C43.7 56.6 45 62.3 46.5 65.9 C46.5 66.16667 46.5 66.5 46.5 66.7 C45 67.7 40.6 70.8 32.8 70.8 C21.5 70.8 11 56.8 11 49.8 C11 46.9 11.9 44.4 15.3 41.5 C6.9 36.4 4.4 30.8 4.4 25.5 C4.4 9.7 32.5 10.1 32.5 -3.9 C32.5 -12.8 24.2 -16.2 18.2 -16.2 C11.8 -16.2 7.8 -12.1 7 -11.6 C6.7 -11.3 6.9 -10.3 6.9 -9.4 C6.9 -7.6 7.1 -5 7.1 -3.5 C6.96667 -3.36667 6.8 -3.2 6.7 -3.1 C6.175 -3 5.125 -2.8 4.6 -2.7 C4.475 -2.8 4.225 -3 4.1 -3.1 C3.4 -7.4 2.3 -12.2 1 -16.4 C1 -16.6 1 -16.85 1 -17 C3.6 -19.1 8.4 -21.6 14.9 -21.6 C31.3 -21.6 39.9 -4.9 39.9 1 C39.9 4.4 38.5 7.7 35.2 10.4 C40.4 14 45.3 20 45.3 26.4 C45.3 41.6 18.3 42.5 18.3 54.4 C18.3 60.1 22.1 64.7 29.7 64.7 C34.4 64.7 38.4 62.8 40.6 60.8 C40.56667 60.36667 40.525 59.825 40.5 59.5 C40.4 57.4 40.3 54.8 40.2 53.6 C40.33333 53.46667 40.5 53.3 40.6 53.2 C41.15 53.125 42.25 52.975 42.8 52.9 zM38 21.7 C38 17.7 35.3 14 32.7 12.1 C23.2 18.7 11.5 21.4 11.5 29.3 C11.5 32.4 13.4 36 17.8 39.7 C28 32.6 38 30.4 38 21.7 z" />
<glyph unicode="" horiz-adv-x="27.8" d="M23.1 60.6 C23.1 57.9 25.1 56 27.7 56 C31.5 56 34.4 60.5 34.4 64 C34.4 66.3 32.3 68 30.4 68 C26.7 68 23.1 63.6 23.1 60.6 zM5.3 60.6 C5.3 57.9 7.3 56 9.9 56 C13.7 56 16.6 60.5 16.6 64 C16.6 66.3 14.5 68 12.6 68 C8.9 68 5.3 63.6 5.3 60.6 z" />
<glyph unicode="" horiz-adv-x="80" d="M56.4 25.8 C54.4 21.5 50.8 17.3 44.7 17.3 C35 17.3 31.1 25.8 31.1 35.9 C31.1 47.8 36.8 52.8 44.4 52.8 C51.4 52.8 54.3 48 54.7 44.2 C55.5 44.2 56.5 44.2 57.1 44.2 C57.1 45.975 57.1 49.525 57.1 51.3 C57.1 52.8 50.6 55.8 43.4 55.8 C31.4 55.8 22.1 47.8 22.1 35.3 C22.1 21.2 31.8 14.3 43.7 14.3 C50.6 14.3 56.7 16.6 57 17.9 C57.56667 20.53333 58.275 23.825 58.7 25.8 C58.125 25.8 56.975 25.8 56.4 25.8 zM5.3 34.5 C5.3 14.5 21.6 -1.8 41.6 -1.8 C61.6 -1.8 77.9 14.5 77.9 34.5 C77.9 54.5 61.6 70.7 41.6 70.7 C21.6 70.7 5.3 54.5 5.3 34.5 zM11.9 34.5 C11.9 51 25.2 64.7 41.6 64.7 C58 64.7 71.3 51 71.3 34.5 C71.3 18 58 4.2 41.6 4.2 C25.2 4.2 11.9 18 11.9 34.5 z" />
<glyph unicode="" horiz-adv-x="32.5" d="M12.8 46.5 C12.8 52.1 16 62.8 17.1 63.8 C18 64.6 19.5 65.2 21.8 65.2 C23.6 65.2 25.1 64.7 27 63.6 C25.1 51.1 14.3 44.4 13.7 44.4 C13.1 44.4 12.8 44.9 12.8 46.5 zM30.7 67.4 C28.2 68.5 26 68.9 24.6 68.9 C20.8 68.9 14.8 65.6 12.8 63.4 C10.2 60.5 6.4 52 6.4 44.3 C6.4 40.8 7.2 39.6 9.3 39.6 C14 39.6 22.6 48.8 25 53.4 C25.06667 53.33333 25.15 53.25 25.2 53.2 C23.9 49.5 22.2 43.9 22.2 41.8 C22.2 40.5 22.9 39.6 24.6 39.6 C26.5 39.6 30.3 41.4 35.6 45.5 C35.6 45.6 35.6 45.725 35.6 45.8 C35.4 46.05 35 46.55 34.8 46.8 C34.75 46.8 34.65 46.8 34.6 46.8 C32.5 45.2 30.5 44 29.8 44 C29.2 44 28.8 44.3 28.8 45.1 C28.8 47 33.4 65.7 34.7 68.4 C34.2 68.56667 33.575 68.775 33.2 68.9 C32.575 68.525 31.325 67.775 30.7 67.4 z" />
<glyph unicode="" horiz-adv-x="50" d="M5.2 22.1 C10.3 17.4 18.1 7.5 20.7 3.4 C20.86667 3.4 21.075 3.4 21.2 3.4 C21.775 3.825 22.925 4.675 23.5 5.1 C23.55 5.25 23.65 5.55 23.7 5.7 C21.9 10.4 17.5 18.3 15.1 22.7 C19.1 27.2 25.7 35.5 28.1 39.4 C28.1 39.6 28.1 39.85 28.1 40 C27.575 40.45 26.525 41.35 26 41.8 C25.875 41.8 25.625 41.8 25.5 41.8 C21.1 37.1 10 27.3 5.6 24 C5.46667 23.36667 5.3 22.575 5.2 22.1 zM23.4 22.1 C28.5 17.4 36.3 7.5 38.9 3.4 C39.06667 3.4 39.275 3.4 39.4 3.4 C39.975 3.825 41.125 4.675 41.7 5.1 C41.75 5.25 41.85 5.55 41.9 5.7 C40.1 10.4 35.7 18.3 33.3 22.7 C37.3 27.2 43.9 35.5 46.3 39.4 C46.3 39.6 46.3 39.85 46.3 40 C45.775 40.45 44.725 41.35 44.2 41.8 C44.075 41.8 43.825 41.8 43.7 41.8 C39.3 37.1 28.2 27.3 23.8 24 C23.66667 23.36667 23.5 22.575 23.4 22.1 z" />
<glyph unicode="" horiz-adv-x="60" d="M4.7 31 C15.4 31 36.8 31 47.5 31 C47.5 25.95 47.5 15.85 47.5 10.8 C49.45 10.8 53.35 10.8 55.3 10.8 C55.3 17.8 55.3 31.8 55.3 38.8 C42.65 38.8 17.35 38.8 4.7 38.8 C4.7 36.85 4.7 32.95 4.7 31 z" />
<glyph unicode="" horiz-adv-x="38.9" d="M3.5 20.4 C7.3 20.9 10.7 21 18.1 21 C23.5 21 27.8 20.9 31.4 20.7 C32.3 23.3 33.2 25.8 34.2 28.4 C34.03333 28.6 33.825 28.85 33.7 29 C31.2 28.6 22.5 28.3 16.1 28.3 C12.1 28.3 8.5 28.4 5.8 28.7 C4.9 26.1 4 23.6 3 21 C3.16667 20.8 3.375 20.55 3.5 20.4 z" />
<glyph unicode="" horiz-adv-x="80" d="M24 51.6 C27.4 51.6 28.6 50.6 28.6 47.4 C28.6 38.9 28.6 28.275 28.6 21.9 C28.6 18.7 27.4 17.7 24 17.7 C24 16.9 24 15.9 24 15.3 C28.25 15.3 36.75 15.3 41 15.3 C41 15.9 41 17.1 41 17.7 C37.6 17.7 36.4 18.7 36.4 21.9 C36.4 25.23333 36.4 29.4 36.4 31.9 C37.4 31.9 39.4 31.9 40.4 31.9 C49.3 16 51 15.3 52.6 15.3 C55.23333 15.3 58.525 15.3 60.5 15.3 C60.5 15.9 60.5 17.1 60.5 17.7 C57.8 17.7 56.7 19 48.1 33.6 C52.8 35.1 56.1 38.9 56.1 43.8 C56.1 50.9 51.5 54 42.9 54 C36.6 54 28.725 54 24 54 C24 53.4 24 52.2 24 51.6 zM36.4 51.1 C37.325 51.1 39.175 51.1 40.1 51.1 C44.6 51.1 47.7 49.5 47.7 43.7 C47.7 37.1 44.3 34.8 40.2 34.8 C38.93333 34.8 37.35 34.8 36.4 34.8 C36.4 38.875 36.4 47.025 36.4 51.1 zM5.3 34.5 C5.3 14.5 21.6 -1.8 41.6 -1.8 C61.6 -1.8 77.9 14.5 77.9 34.5 C77.9 54.5 61.6 70.7 41.6 70.7 C21.6 70.7 5.3 54.5 5.3 34.5 zM11.9 34.5 C11.9 51 25.2 64.7 41.6 64.7 C58 64.7 71.3 51 71.3 34.5 C71.3 18 58 4.2 41.6 4.2 C25.2 4.2 11.9 18 11.9 34.5 z" />
<glyph unicode="" horiz-adv-x="27.8" d="M3.8 59.2 C11.4 59.2 26.6 59.2 34.2 59.2 C34.4 60.475 34.8 63.025 35 64.3 C27.4 64.3 12.2 64.3 4.6 64.3 C4.4 63.025 4 60.475 3.8 59.2 z" />
<glyph unicode="" horiz-adv-x="40" d="M7.4 54.8 C7.4 46.9 13.8 40.5 21.7 40.5 C29.6 40.5 36 46.9 36 54.8 C36 62.7 29.6 69.1 21.7 69.1 C13.8 69.1 7.4 62.7 7.4 54.8 zM13.4 54.8 C13.4 59.4 17.1 63.1 21.7 63.1 C26.3 63.1 30 59.4 30 54.8 C30 50.2 26.3 46.5 21.7 46.5 C17.1 46.5 13.4 50.2 13.4 54.8 z" />
<glyph unicode="" horiz-adv-x="60" d="M26.1 35.7 C20.75 35.7 10.05 35.7 4.7 35.7 C4.7 33.75 4.7 29.85 4.7 27.9 C10.05 27.9 20.75 27.9 26.1 27.9 C26.1 24.175 26.1 16.725 26.1 13 C28.05 13 31.95 13 33.9 13 C33.9 16.725 33.9 24.175 33.9 27.9 C39.25 27.9 49.95 27.9 55.3 27.9 C55.3 29.85 55.3 33.75 55.3 35.7 C49.95 35.7 39.25 35.7 33.9 35.7 C33.9 39.425 33.9 46.875 33.9 50.6 C31.95 50.6 28.05 50.6 26.1 50.6 C26.1 46.875 26.1 39.425 26.1 35.7 zM4.7 0 C17.35 0 42.65 0 55.3 0 C55.3 1.95 55.3 5.85 55.3 7.8 C42.65 7.8 17.35 7.8 4.7 7.8 C4.7 5.85 4.7 1.95 4.7 0 z" />
<glyph unicode="" horiz-adv-x="32.5" d="M0.8 27.4 C0.85 27.35 0.95 27.25 1 27.2 C5.7 27.6 10.3 27.6 15 27.6 C19.2 27.6 24.3 27.6 27.6 27.2 C27.7 27.26667 27.825 27.35 27.9 27.4 C28.3 29.2 28.7 31 29.3 33.1 C29.2 33.23333 29.075 33.4 29 33.5 C25.4 33.1 21.6 32.8 14.2 32.8 C12.4 32.8 10.7 32.9 9.5 32.9 C27 48.2 30.8 52.8 30.8 58.6 C30.8 65.1 25.3 68.9 18.9 68.9 C15.7 68.9 12 68 8.9 66.1 C7.8 63.5 6.6 61 5.4 58.6 C5.43333 58.53333 5.475 58.45 5.5 58.4 C5.975 58.225 6.925 57.875 7.4 57.7 C7.475 57.725 7.625 57.775 7.7 57.8 C10 61.9 13.3 63.6 17 63.6 C20.9 63.6 23.9 61.1 23.9 57.6 C23.9 51.5 19.7 46 0.9 28.5 C0.86667 28.13333 0.825 27.675 0.8 27.4 z" />
<glyph unicode="" horiz-adv-x="32.5" d="M10 47.3 C11.6 48 13.5 48.6 15.5 48.6 C20.7 48.6 24.5 45.8 24.5 41.2 C24.5 34.9 20.4 28.9 13.7 28.9 C9.4 28.9 6.8 31 6.8 34.7 C6.8 35.8 7 36.8 7.1 37.7 C7.03333 37.76667 6.95 37.85 6.9 37.9 C6.375 37.975 5.325 38.125 4.8 38.2 C4.725 38.15 4.575 38.05 4.5 38 C4.1 35.3 3.4 32.3 2.7 29.5 C5.6 27.8 9.4 26.5 13 26.5 C21.9 26.5 31.6 32.3 31.6 41.3 C31.6 46.7 27.7 49.7 21.1 50.6 C21.1 50.66667 21.1 50.75 21.1 50.8 C26.7 52.6 31 56.6 31 61 C31 66.3 26 68.9 20.6 68.9 C18 68.9 14.8 68 12.5 66.9 C11.1 64.7 9.7 62.6 8.3 60.7 C8.3 60.6 8.3 60.475 8.3 60.4 C8.725 60.15 9.575 59.65 10 59.4 C10.1 59.425 10.3 59.475 10.4 59.5 C13.3 63.5 14.9 64.6 19 64.6 C22.5 64.6 24.5 62.1 24.5 59.3 C24.5 53.8 18.3 51.3 15 51.3 C13.3 51.3 12.2 51.5 11.1 51.6 C10.7 50.2 10.2 48.9 9.6 47.7 C9.73333 47.56667 9.9 47.4 10 47.3 z" />
<glyph unicode="" horiz-adv-x="27.8" d="M16.4 53.5 C32.9 62.8 34.8 64.5 34.8 66.7 C34.8 68.9 33.3 70.2 31.4 70.2 C28.1 70.2 25.4 67.5 13.2 53.5 C14.26667 53.5 15.6 53.5 16.4 53.5 z" />
<glyph unicode="" horiz-adv-x="53.7" d="M2.1 35.3 C2.2 35.275 2.4 35.225 2.5 35.2 C6.8 38.4 8.9 39.5 10.1 39.5 C11.2 39.5 11.7 39 11.7 37.4 C11.7 33.3 0.5 -19.1 -2.2 -27.2 C-1.83333 -27.53333 -1.375 -27.95 -1.1 -28.2 C1.7 -26.9 5.1 -26.5 8 -26.4 C8.8 -16.9 11 -4.9 12 0.1 C17.2 0.1 28.2 10.4 33.9 20.3 C33.96667 20.23333 34.05 20.15 34.1 20.1 C31.1 8.9 30.4 4.7 30.4 2.7 C30.4 0 31.7 -1.2 33.8 -1.2 C37.6 -1.2 44.9 3.3 51 8.5 C51 8.63333 51 8.8 51 8.9 C50.65 9.325 49.95 10.175 49.6 10.6 C49.5 10.6 49.3 10.6 49.2 10.6 C45 7.2 43.1 6.2 41.5 6.2 C40.5 6.2 39.9 6.9 39.9 8.6 C39.9 12 46.3 40.3 48.6 46.6 C48.33333 46.83333 48 47.125 47.8 47.3 C46.4 46.4 41.3 45.6 39.4 45.6 C38.2 39.6 36.9 34.1 34.3 26.2 C32.2 19.9 20.5 6.5 16.5 6.5 C15.3 6.5 14.8 7 14.8 9 C14.8 15.4 22.2 38.3 22.2 43.5 C22.2 45.7 20.7 47.3 18.8 47.3 C16.1 47.3 11.5 45.2 1.2 37.5 C1.16667 37.36667 1.125 37.2 1.1 37.1 C1.35 36.65 1.85 35.75 2.1 35.3 z" />
<glyph unicode="" horiz-adv-x="60" d="M32.5 -19.8 C36.475 -19.8 44.425 -19.8 48.4 -19.8 C48.55 -18.925 48.85 -17.175 49 -16.3 C48.7 -16.3 48.1 -16.3 47.8 -16.3 C42.9 -16.3 41.8 -14.3 41.8 -12 C41.8 -10.9 42.2 -8.8 42.6 -6.4 C46.43333 15.63333 51.225 43.175 54.1 59.7 C54.8 63.6 57.1 65.6 62 65.6 C62.4 65.6 62.9 65.6 63.2 65.6 C63.35 66.475 63.65 68.225 63.8 69.1 C56.425 69.1 41.675 69.1 34.3 69.1 C17.7 69.1 9.6 55.7 9.6 44.1 C9.6 35.2 13.5 27.4 26.3 27.4 C24.1 14.8 21.35 -0.95 19.7 -10.4 C19.1 -14.3 16.7 -16.3 11.8 -16.3 C11.4 -16.3 10.9 -16.3 10.6 -16.3 C10.45 -17.175 10.15 -18.925 10 -19.8 C13.975 -19.8 21.925 -19.8 25.9 -19.8 C29.55 1.25 36.85 43.35 40.5 64.4 C42.15 64.4 45.45 64.4 47.1 64.4 C43.45 43.35 36.15 1.25 32.5 -19.8 zM27.1 32.1 C22.3 32.1 19.1 35.5 19.2 42.9 C19.2 50.7 22.8 64.4 32.7 64.4 C30.83333 53.63333 28.5 40.175 27.1 32.1 z" />
<glyph unicode="" horiz-adv-x="25" d="M6.1 30 C6.1 26.5 9 23.6 12.5 23.6 C16 23.6 18.9 26.5 18.9 30 C18.9 33.5 16 36.4 12.5 36.4 C9 36.4 6.1 33.5 6.1 30 z" />
<glyph unicode="" horiz-adv-x="27.8" d="M3.9 -9.7 C4.15 -9.95 4.65 -10.45 4.9 -10.7 C6.1 -10.3 7.2 -10.2 8.7 -10.2 C11.2 -10.2 13.3 -11 13.3 -13.9 C13.3 -16.5 10.9 -18.1 7.1 -18.1 C4.1 -18.1 1.9 -17.3 0.2 -16.1 C0.03333 -16.16667 -0.175 -16.25 -0.3 -16.3 C-0.725 -16.95 -1.575 -18.25 -2 -18.9 C-2 -19.025 -2 -19.275 -2 -19.4 C0.1 -20.6 3.6 -21.8 8.8 -21.8 C16 -21.8 20.3 -17.6 20.3 -13.1 C20.3 -9.6 17.8 -6.5 12 -6.5 C11.1 -6.5 10.3 -6.7 9.6 -6.9 C11.1 -4.53333 12.975 -1.575 14.1 0.2 C13.125 0.2 11.175 0.2 10.2 0.2 C8.625 -2.275 5.475 -7.225 3.9 -9.7 z" />
<glyph unicode="" horiz-adv-x="32.5" d="M6.4 27.5 C6.45 27.45 6.55 27.35 6.6 27.3 C10.4 27.4 14.2 27.6 18 27.6 C22.1 27.6 25.6 27.4 28.8 27.3 C28.9 27.36667 29.025 27.45 29.1 27.5 C29.2 27.925 29.4 28.775 29.5 29.2 C29.45 29.25 29.35 29.35 29.3 29.4 C21.5 30.4 21.4 30.6 21.4 32.5 C21.4 34.9 26.2 60.2 28 68.6 C27.63333 68.86667 27.175 69.2 26.9 69.4 C20.7 67.2 14.4 65.5 8.1 64 C7.9 62.5 7.5 60.9 7.1 59 C7.23333 58.9 7.4 58.775 7.5 58.7 C10.5 60.3 16.1 62.8 20.1 64.4 C15.4 37.2 14.7 32 13.5 30.8 C12.8 30.1 12 29.8 7.1 29.4 C7 29.33333 6.875 29.25 6.8 29.2 C6.7 28.775 6.5 27.925 6.4 27.5 z" />
<glyph unicode="" horiz-adv-x="32.5" d="M6.7 48.9 C6.7 43.8 10.3 39.6 16.2 39.6 C26.9 39.6 34.4 48.9 34.4 59.3 C34.4 66 30.3 68.9 24.7 68.9 C16.7 68.9 6.7 62.1 6.7 48.9 zM28 59.7 C28 56 26.7 42.3 18.8 42.3 C14.8 42.3 13.1 44.6 13.1 48.6 C13.1 55.5 15.5 66.2 22.9 66.2 C26.1 66.2 28 63.6 28 59.7 z" />
<glyph unicode="" horiz-adv-x="50" d="M44.7 23.1 C39.6 27.8 31.8 37.7 29.2 41.8 C29.03333 41.8 28.825 41.8 28.7 41.8 C28.125 41.375 26.975 40.525 26.4 40.1 C26.35 39.95 26.25 39.65 26.2 39.5 C28 34.8 32.4 26.9 34.8 22.5 C30.8 18 24.2 9.7 21.8 5.8 C21.8 5.6 21.8 5.35 21.8 5.2 C22.325 4.75 23.375 3.85 23.9 3.4 C24.025 3.4 24.275 3.4 24.4 3.4 C28.8 8.1 39.9 17.9 44.3 21.2 C44.43333 21.83333 44.6 22.625 44.7 23.1 zM26.5 23.1 C21.4 27.8 13.6 37.7 11 41.8 C10.83333 41.8 10.625 41.8 10.5 41.8 C9.925 41.375 8.775 40.525 8.2 40.1 C8.15 39.95 8.05 39.65 8 39.5 C9.8 34.8 14.2 26.9 16.6 22.5 C12.6 18 6 9.7 3.6 5.8 C3.6 5.6 3.6 5.35 3.6 5.2 C4.125 4.75 5.175 3.85 5.7 3.4 C5.825 3.4 6.075 3.4 6.2 3.4 C10.6 8.1 21.7 17.9 26.1 21.2 C26.23333 21.83333 26.4 22.625 26.5 23.1 z" />
<glyph unicode="" horiz-adv-x="75" d="M39.5 10.8 C41.7 11 43.8 11 56.5 11 C56.3 9.5 55.1 3.9 54.5 3.2 C53.8 2.4 53 2.1 48 1.7 C47.93333 1.63333 47.85 1.55 47.8 1.5 C47.7 1.1 47.5 0.3 47.4 -0.1 C47.45 -0.15 47.55 -0.25 47.6 -0.3 C51.2 -0.2 54.7 0 58.3 0 C61.8 0 65.4 -0.2 68.9 -0.3 C68.96667 -0.23333 69.05 -0.15 69.1 -0.1 C69.2 0.3 69.4 1.1 69.5 1.5 C69.45 1.55 69.35 1.65 69.3 1.7 C61.9 2.4 61.7 2.8 61.7 4 C61.7 4.9 61.8 5.9 62.8 11 C64.4 11 69 11 70.4 10.7 C70.5 10.76667 70.625 10.85 70.7 10.9 C71.1 12.3 71.5 13.7 72 15.1 C71.9 15.2 71.775 15.325 71.7 15.4 C69.5 15.2 66 15.2 63.5 15.2 C64.9 23.3 67.2 36.1 68.7 41 C68.43333 41.26667 68.1 41.6 67.9 41.8 C65.8 41.3 63.7 41 61.4 40.4 C53.3 31.3 46 22.1 39.6 12.9 C39.56667 12.2 39.525 11.325 39.5 10.8 zM57.3 15.2 C54.25 15.2 48.15 15.2 45.1 15.2 C45.075 15.275 45.025 15.425 45 15.5 C50.3 22.4 55.9 29.5 61.2 36.3 C61.26667 36.23333 61.35 36.15 61.4 36.1 C60.375 30.875 58.325 20.425 57.3 15.2 zM12.1 -3.2 C12.15 -3.3 12.25 -3.5 12.3 -3.6 C13.45 -3.6 15.75 -3.6 16.9 -3.6 C17.025 -3.5 17.275 -3.3 17.4 -3.2 C28.375 15.225 50.325 52.075 61.3 70.5 C61.25 70.6 61.15 70.8 61.1 70.9 C59.95 70.9 57.65 70.9 56.5 70.9 C56.375 70.8 56.125 70.6 56 70.5 C45.025 52.075 23.075 15.225 12.1 -3.2 zM3.4 27.5 C3.45 27.45 3.55 27.35 3.6 27.3 C7.4 27.4 11.2 27.6 15 27.6 C19.1 27.6 22.6 27.4 25.8 27.3 C25.9 27.36667 26.025 27.45 26.1 27.5 C26.2 27.925 26.4 28.775 26.5 29.2 C26.45 29.25 26.35 29.35 26.3 29.4 C18.5 30.4 18.4 30.6 18.4 32.5 C18.4 34.9 23.2 60.2 25 68.6 C24.63333 68.86667 24.175 69.2 23.9 69.4 C17.7 67.2 11.4 65.5 5.1 64 C4.9 62.5 4.5 60.9 4.1 59 C4.23333 58.9 4.4 58.775 4.5 58.7 C7.5 60.3 13.1 62.8 17.1 64.4 C12.4 37.2 11.7 32 10.5 30.8 C9.8 30.1 9 29.8 4.1 29.4 C4 29.33333 3.875 29.25 3.8 29.2 C3.7 28.775 3.5 27.925 3.4 27.5 z" />
<glyph unicode="" horiz-adv-x="75" d="M13.3 -3.2 C13.35 -3.3 13.45 -3.5 13.5 -3.6 C14.65 -3.6 16.95 -3.6 18.1 -3.6 C18.225 -3.5 18.475 -3.3 18.6 -3.2 C29.575 15.225 51.525 52.075 62.5 70.5 C62.45 70.6 62.35 70.8 62.3 70.9 C61.15 70.9 58.85 70.9 57.7 70.9 C57.575 70.8 57.325 70.6 57.2 70.5 C46.225 52.075 24.275 15.225 13.3 -3.2 zM4.6 27.5 C4.65 27.45 4.75 27.35 4.8 27.3 C8.6 27.4 12.4 27.6 16.2 27.6 C20.3 27.6 23.8 27.4 27 27.3 C27.1 27.36667 27.225 27.45 27.3 27.5 C27.4 27.925 27.6 28.775 27.7 29.2 C27.65 29.25 27.55 29.35 27.5 29.4 C19.7 30.4 19.6 30.6 19.6 32.5 C19.6 34.9 24.4 60.2 26.2 68.6 C25.83333 68.86667 25.375 69.2 25.1 69.4 C18.9 67.2 12.6 65.5 6.3 64 C6.1 62.5 5.7 60.9 5.3 59 C5.43333 58.9 5.6 58.775 5.7 58.7 C8.7 60.3 14.3 62.8 18.3 64.4 C13.6 37.2 12.9 32 11.7 30.8 C11 30.1 10.2 29.8 5.3 29.4 C5.2 29.33333 5.075 29.25 5 29.2 C4.9 28.775 4.7 27.925 4.6 27.5 zM40.1 -0.2 C40.15 -0.25 40.25 -0.35 40.3 -0.4 C45 0 49.6 0 54.3 0 C58.5 0 63.6 0 66.9 -0.4 C67 -0.33333 67.125 -0.25 67.2 -0.2 C67.6 1.6 68 3.4 68.6 5.5 C68.5 5.63333 68.375 5.8 68.3 5.9 C64.7 5.5 60.9 5.2 53.5 5.2 C51.7 5.2 50 5.3 48.8 5.3 C66.3 20.6 70.1 25.2 70.1 31 C70.1 37.5 64.6 41.3 58.2 41.3 C55 41.3 51.3 40.4 48.2 38.5 C47.1 35.9 45.9 33.4 44.7 31 C44.73333 30.93333 44.775 30.85 44.8 30.8 C45.275 30.625 46.225 30.275 46.7 30.1 C46.775 30.125 46.925 30.175 47 30.2 C49.3 34.3 52.6 36 56.3 36 C60.2 36 63.2 33.5 63.2 30 C63.2 23.9 59 18.4 40.2 0.9 C40.16667 0.53333 40.125 0.075 40.1 -0.2 z" />
<glyph unicode="" horiz-adv-x="75" d="M40.7 10.2 C42.9 10.4 45 10.4 57.7 10.4 C57.5 8.9 56.3 3.3 55.7 2.6 C55 1.8 54.2 1.5 49.2 1.1 C49.13333 1.03333 49.05 0.95 49 0.9 C48.9 0.5 48.7 -0.3 48.6 -0.7 C48.65 -0.75 48.75 -0.85 48.8 -0.9 C52.4 -0.8 55.9 -0.6 59.5 -0.6 C63 -0.6 66.6 -0.8 70.1 -0.9 C70.16667 -0.83333 70.25 -0.75 70.3 -0.7 C70.4 -0.3 70.6 0.5 70.7 0.9 C70.65 0.95 70.55 1.05 70.5 1.1 C63.1 1.8 62.9 2.2 62.9 3.4 C62.9 4.3 63 5.3 64 10.4 C65.6 10.4 70.2 10.4 71.6 10.1 C71.7 10.16667 71.825 10.25 71.9 10.3 C72.3 11.7 72.7 13.1 73.2 14.5 C73.1 14.6 72.975 14.725 72.9 14.8 C70.7 14.6 67.2 14.6 64.7 14.6 C66.1 22.7 68.4 35.5 69.9 40.4 C69.63333 40.66667 69.3 41 69.1 41.2 C67 40.7 64.9 40.4 62.6 39.8 C54.5 30.7 47.2 21.5 40.8 12.3 C40.76667 11.6 40.725 10.725 40.7 10.2 zM58.5 14.6 C55.45 14.6 49.35 14.6 46.3 14.6 C46.275 14.675 46.225 14.825 46.2 14.9 C51.5 21.8 57.1 28.9 62.4 35.7 C62.46667 35.63333 62.55 35.55 62.6 35.5 C61.575 30.275 59.525 19.825 58.5 14.6 zM15.4 -3.2 C15.45 -3.3 15.55 -3.5 15.6 -3.6 C16.75 -3.6 19.05 -3.6 20.2 -3.6 C20.325 -3.5 20.575 -3.3 20.7 -3.2 C31.675 15.225 53.625 52.075 64.6 70.5 C64.55 70.6 64.45 70.8 64.4 70.9 C63.25 70.9 60.95 70.9 59.8 70.9 C59.675 70.8 59.425 70.6 59.3 70.5 C48.325 52.075 26.375 15.225 15.4 -3.2 zM9.4 46.7 C11 47.4 12.9 48 14.9 48 C20.1 48 23.9 45.2 23.9 40.6 C23.9 34.3 19.8 28.3 13.1 28.3 C8.8 28.3 6.2 30.4 6.2 34.1 C6.2 35.2 6.4 36.2 6.5 37.1 C6.43333 37.16667 6.35 37.25 6.3 37.3 C5.775 37.375 4.725 37.525 4.2 37.6 C4.125 37.55 3.975 37.45 3.9 37.4 C3.5 34.7 2.8 31.7 2.1 28.9 C5 27.2 8.8 25.9 12.4 25.9 C21.3 25.9 31 31.7 31 40.7 C31 46.1 27.1 49.1 20.5 50 C20.5 50.06667 20.5 50.15 20.5 50.2 C26.1 52 30.4 56 30.4 60.4 C30.4 65.7 25.4 68.3 20 68.3 C17.4 68.3 14.2 67.4 11.9 66.3 C10.5 64.1 9.1 62 7.7 60.1 C7.7 60 7.7 59.875 7.7 59.8 C8.125 59.55 8.975 59.05 9.4 58.8 C9.5 58.825 9.7 58.875 9.8 58.9 C12.7 62.9 14.3 64 18.4 64 C21.9 64 23.9 61.5 23.9 58.7 C23.9 53.2 17.7 50.7 14.4 50.7 C12.7 50.7 11.6 50.9 10.5 51 C10.1 49.6 9.6 48.3 9 47.1 C9.13333 46.96667 9.3 46.8 9.4 46.7 z" />
<glyph unicode="" horiz-adv-x="44.4" d="M19.3 26.4 C19.275 26.225 19.225 25.875 19.2 25.7 C20.6 24.6 21.4 23.5 21.4 21.9 C21.4 14.4 -2.3 5.5 -2.3 -10 C-2.3 -18.2 4.2 -23.6 13 -23.6 C17.8 -23.6 22.6 -22.1 26.6 -18.9 C27.9 -15.4 29.4 -11.9 30.8 -8.8 C30.73333 -8.63333 30.65 -8.425 30.6 -8.3 C30.05 -8.15 28.95 -7.85 28.4 -7.7 C28.3 -7.725 28.1 -7.775 28 -7.8 C24.2 -14.4 22.2 -16.6 16.2 -16.6 C10.6 -16.6 7.5 -13.2 7.5 -8.9 C7.5 2.2 25.9 11.2 25.9 20.4 C25.9 23.8 24.1 25.7 21.9 27.2 C21.03333 26.93333 19.95 26.6 19.3 26.4 zM18.5 38.8 C18.5 36.2 20.3 33.7 23.1 33.7 C26.1 33.7 30.4 36.7 30.4 42.4 C30.4 45.1 29.1 47.6 25.8 47.6 C21.7 47.6 18.5 44 18.5 38.8 z" />
<glyph unicode="" horiz-adv-x="68.5" d="M39.8 0 C39.9 -0.075 40.1 -0.225 40.2 -0.3 C44.4 -0.1 48.6 0 52.8 0 C57 0 61.2 -0.1 65.4 -0.3 C65.53333 -0.2 65.7 -0.075 65.8 0 C65.925 0.7 66.175 2.1 66.3 2.8 C66.2 2.875 66 3.025 65.9 3.1 C59.7 3.1 59.2 3.6 58.1 9.3 C54.4 29.33333 49.775 54.375 47 69.4 C45.375 69.4 42.125 69.4 40.5 69.4 C31.475 54.25 13.425 23.95 4.4 8.8 C2.1 4.9 0.6 3.1 -4.8 3.1 C-4.93333 3 -5.1 2.875 -5.2 2.8 C-5.325 2.1 -5.575 0.7 -5.7 0 C-5.6 -0.075 -5.4 -0.225 -5.3 -0.3 C-1.8 -0.1 1.9 0 5.7 0 C9.4 0 13 -0.1 16.7 -0.3 C16.83333 -0.2 17 -0.075 17.1 0 C17.225 0.7 17.475 2.1 17.6 2.8 C17.5 2.875 17.3 3.025 17.2 3.1 C10.3 3.5 9.1 4.1 9.1 5.2 C9.1 6.7 9.8 8.1 20.6 26.2 C24.5 26.3 28.7 26.4 32.8 26.4 C36.8 26.4 41 26.2 45.2 26.2 C48.4 8 48.5 7 48.5 5.3 C48.5 3.8 47.9 3.1 40.7 3.1 C40.56667 3 40.4 2.875 40.3 2.8 C40.175 2.1 39.925 0.7 39.8 0 zM44.4 30.8 C40.8 30.7 37.3 30.6 33.7 30.6 C30.3 30.6 26.8 30.8 23.3 30.8 C28.7 40.06667 35.45 51.65 39.5 58.6 C39.55 58.6 39.65 58.6 39.7 58.6 C40.875 51.65 43.225 37.75 44.4 30.8 zM53.4 72.2 C40.9 87.9 39.3 89.3 36.4 89.3 C34.2 89.3 32.7 87.2 32.7 85.7 C32.7 83.7 33.6 82.6 50 72.2 C51.13333 72.2 52.55 72.2 53.4 72.2 z" />
<glyph unicode="" horiz-adv-x="68.5" d="M39.8 0 C39.9 -0.075 40.1 -0.225 40.2 -0.3 C44.4 -0.1 48.6 0 52.8 0 C57 0 61.2 -0.1 65.4 -0.3 C65.53333 -0.2 65.7 -0.075 65.8 0 C65.925 0.7 66.175 2.1 66.3 2.8 C66.2 2.875 66 3.025 65.9 3.1 C59.7 3.1 59.2 3.6 58.1 9.3 C54.4 29.33333 49.775 54.375 47 69.4 C45.375 69.4 42.125 69.4 40.5 69.4 C31.475 54.25 13.425 23.95 4.4 8.8 C2.1 4.9 0.6 3.1 -4.8 3.1 C-4.93333 3 -5.1 2.875 -5.2 2.8 C-5.325 2.1 -5.575 0.7 -5.7 0 C-5.6 -0.075 -5.4 -0.225 -5.3 -0.3 C-1.8 -0.1 1.9 0 5.7 0 C9.4 0 13 -0.1 16.7 -0.3 C16.83333 -0.2 17 -0.075 17.1 0 C17.225 0.7 17.475 2.1 17.6 2.8 C17.5 2.875 17.3 3.025 17.2 3.1 C10.3 3.5 9.1 4.1 9.1 5.2 C9.1 6.7 9.8 8.1 20.6 26.2 C24.5 26.3 28.7 26.4 32.8 26.4 C36.8 26.4 41 26.2 45.2 26.2 C48.4 8 48.5 7 48.5 5.3 C48.5 3.8 47.9 3.1 40.7 3.1 C40.56667 3 40.4 2.875 40.3 2.8 C40.175 2.1 39.925 0.7 39.8 0 zM44.4 30.8 C40.8 30.7 37.3 30.6 33.7 30.6 C30.3 30.6 26.8 30.8 23.3 30.8 C28.7 40.06667 35.45 51.65 39.5 58.6 C39.55 58.6 39.65 58.6 39.7 58.6 C40.875 51.65 43.225 37.75 44.4 30.8 zM40.4 72.3 C56.9 81.6 58.8 83.3 58.8 85.5 C58.8 87.7 57.3 89 55.4 89 C52.1 89 49.4 86.3 37.2 72.3 C38.26667 72.3 39.6 72.3 40.4 72.3 z" />
<glyph unicode="" horiz-adv-x="68.5" d="M39.8 0 C39.9 -0.075 40.1 -0.225 40.2 -0.3 C44.4 -0.1 48.6 0 52.8 0 C57 0 61.2 -0.1 65.4 -0.3 C65.53333 -0.2 65.7 -0.075 65.8 0 C65.925 0.7 66.175 2.1 66.3 2.8 C66.2 2.875 66 3.025 65.9 3.1 C59.7 3.1 59.2 3.6 58.1 9.3 C54.4 29.33333 49.775 54.375 47 69.4 C45.375 69.4 42.125 69.4 40.5 69.4 C31.475 54.25 13.425 23.95 4.4 8.8 C2.1 4.9 0.6 3.1 -4.8 3.1 C-4.93333 3 -5.1 2.875 -5.2 2.8 C-5.325 2.1 -5.575 0.7 -5.7 0 C-5.6 -0.075 -5.4 -0.225 -5.3 -0.3 C-1.8 -0.1 1.9 0 5.7 0 C9.4 0 13 -0.1 16.7 -0.3 C16.83333 -0.2 17 -0.075 17.1 0 C17.225 0.7 17.475 2.1 17.6 2.8 C17.5 2.875 17.3 3.025 17.2 3.1 C10.3 3.5 9.1 4.1 9.1 5.2 C9.1 6.7 9.8 8.1 20.6 26.2 C24.5 26.3 28.7 26.4 32.8 26.4 C36.8 26.4 41 26.2 45.2 26.2 C48.4 8 48.5 7 48.5 5.3 C48.5 3.8 47.9 3.1 40.7 3.1 C40.56667 3 40.4 2.875 40.3 2.8 C40.175 2.1 39.925 0.7 39.8 0 zM44.4 30.8 C40.8 30.7 37.3 30.6 33.7 30.6 C30.3 30.6 26.8 30.8 23.3 30.8 C28.7 40.06667 35.45 51.65 39.5 58.6 C39.55 58.6 39.65 58.6 39.7 58.6 C40.875 51.65 43.225 37.75 44.4 30.8 zM53.5 72.6 C54.55 72.6 56.65 72.6 57.7 72.6 C55.675 76.675 51.625 84.825 49.6 88.9 C48.1 88.9 45.1 88.9 43.6 88.9 C39.825 84.825 32.275 76.675 28.5 72.6 C29.7 72.6 32.1 72.6 33.3 72.6 C36.25 74.9 42.15 79.5 45.1 81.8 C47.2 79.5 51.4 74.9 53.5 72.6 z" />
<glyph unicode="" horiz-adv-x="68.5" d="M39.8 0 C39.9 -0.075 40.1 -0.225 40.2 -0.3 C44.4 -0.1 48.6 0 52.8 0 C57 0 61.2 -0.1 65.4 -0.3 C65.53333 -0.2 65.7 -0.075 65.8 0 C65.925 0.7 66.175 2.1 66.3 2.8 C66.2 2.875 66 3.025 65.9 3.1 C59.7 3.1 59.2 3.6 58.1 9.3 C54.4 29.33333 49.775 54.375 47 69.4 C45.375 69.4 42.125 69.4 40.5 69.4 C31.475 54.25 13.425 23.95 4.4 8.8 C2.1 4.9 0.6 3.1 -4.8 3.1 C-4.93333 3 -5.1 2.875 -5.2 2.8 C-5.325 2.1 -5.575 0.7 -5.7 0 C-5.6 -0.075 -5.4 -0.225 -5.3 -0.3 C-1.8 -0.1 1.9 0 5.7 0 C9.4 0 13 -0.1 16.7 -0.3 C16.83333 -0.2 17 -0.075 17.1 0 C17.225 0.7 17.475 2.1 17.6 2.8 C17.5 2.875 17.3 3.025 17.2 3.1 C10.3 3.5 9.1 4.1 9.1 5.2 C9.1 6.7 9.8 8.1 20.6 26.2 C24.5 26.3 28.7 26.4 32.8 26.4 C36.8 26.4 41 26.2 45.2 26.2 C48.4 8 48.5 7 48.5 5.3 C48.5 3.8 47.9 3.1 40.7 3.1 C40.56667 3 40.4 2.875 40.3 2.8 C40.175 2.1 39.925 0.7 39.8 0 zM44.4 30.8 C40.8 30.7 37.3 30.6 33.7 30.6 C30.3 30.6 26.8 30.8 23.3 30.8 C28.7 40.06667 35.45 51.65 39.5 58.6 C39.55 58.6 39.65 58.6 39.7 58.6 C40.875 51.65 43.225 37.75 44.4 30.8 zM29.2 76.3 C30.6 78.4 33 80.2 35.5 80.2 C39.3 80.2 45.8 75.4 50.2 75.4 C54.7 75.4 59.6 79.1 62.1 84.8 C61.2 85.2 60.075 85.7 59.4 86 C57.8 83.5 55.8 81.9 52.9 81.9 C48.1 81.9 42.5 86.6 37.7 86.6 C33.5 86.6 29.9 83.3 26.3 77.8 C27.26667 77.3 28.475 76.675 29.2 76.3 z" />
<glyph unicode="" horiz-adv-x="68.5" d="M39.8 0 C39.9 -0.075 40.1 -0.225 40.2 -0.3 C44.4 -0.1 48.6 0 52.8 0 C57 0 61.2 -0.1 65.4 -0.3 C65.53333 -0.2 65.7 -0.075 65.8 0 C65.925 0.7 66.175 2.1 66.3 2.8 C66.2 2.875 66 3.025 65.9 3.1 C59.7 3.1 59.2 3.6 58.1 9.3 C54.4 29.33333 49.775 54.375 47 69.4 C45.375 69.4 42.125 69.4 40.5 69.4 C31.475 54.25 13.425 23.95 4.4 8.8 C2.1 4.9 0.6 3.1 -4.8 3.1 C-4.93333 3 -5.1 2.875 -5.2 2.8 C-5.325 2.1 -5.575 0.7 -5.7 0 C-5.6 -0.075 -5.4 -0.225 -5.3 -0.3 C-1.8 -0.1 1.9 0 5.7 0 C9.4 0 13 -0.1 16.7 -0.3 C16.83333 -0.2 17 -0.075 17.1 0 C17.225 0.7 17.475 2.1 17.6 2.8 C17.5 2.875 17.3 3.025 17.2 3.1 C10.3 3.5 9.1 4.1 9.1 5.2 C9.1 6.7 9.8 8.1 20.6 26.2 C24.5 26.3 28.7 26.4 32.8 26.4 C36.8 26.4 41 26.2 45.2 26.2 C48.4 8 48.5 7 48.5 5.3 C48.5 3.8 47.9 3.1 40.7 3.1 C40.56667 3 40.4 2.875 40.3 2.8 C40.175 2.1 39.925 0.7 39.8 0 zM44.4 30.8 C40.8 30.7 37.3 30.6 33.7 30.6 C30.3 30.6 26.8 30.8 23.3 30.8 C28.7 40.06667 35.45 51.65 39.5 58.6 C39.55 58.6 39.65 58.6 39.7 58.6 C40.875 51.65 43.225 37.75 44.4 30.8 zM47.1 79.4 C47.1 76.7 49.1 74.8 51.7 74.8 C55.5 74.8 58.4 79.3 58.4 82.8 C58.4 85.1 56.3 86.8 54.4 86.8 C50.7 86.8 47.1 82.4 47.1 79.4 zM29.3 79.4 C29.3 76.7 31.3 74.8 33.9 74.8 C37.7 74.8 40.6 79.3 40.6 82.8 C40.6 85.1 38.5 86.8 36.6 86.8 C32.9 86.8 29.3 82.4 29.3 79.4 z" />
<glyph unicode="" horiz-adv-x="68.5" d="M39.8 0 C39.9 -0.075 40.1 -0.225 40.2 -0.3 C44.4 -0.1 48.6 0 52.8 0 C57 0 61.2 -0.1 65.4 -0.3 C65.53333 -0.2 65.7 -0.075 65.8 0 C65.925 0.7 66.175 2.1 66.3 2.8 C66.2 2.875 66 3.025 65.9 3.1 C59.7 3.1 59.2 3.6 58.1 9.3 C54.4 29.33333 49.775 54.375 47 69.4 C45.375 69.4 42.125 69.4 40.5 69.4 C31.475 54.25 13.425 23.95 4.4 8.8 C2.1 4.9 0.6 3.1 -4.8 3.1 C-4.93333 3 -5.1 2.875 -5.2 2.8 C-5.325 2.1 -5.575 0.7 -5.7 0 C-5.6 -0.075 -5.4 -0.225 -5.3 -0.3 C-1.8 -0.1 1.9 0 5.7 0 C9.4 0 13 -0.1 16.7 -0.3 C16.83333 -0.2 17 -0.075 17.1 0 C17.225 0.7 17.475 2.1 17.6 2.8 C17.5 2.875 17.3 3.025 17.2 3.1 C10.3 3.5 9.1 4.1 9.1 5.2 C9.1 6.7 9.8 8.1 20.6 26.2 C24.5 26.3 28.7 26.4 32.8 26.4 C36.8 26.4 41 26.2 45.2 26.2 C48.4 8 48.5 7 48.5 5.3 C48.5 3.8 47.9 3.1 40.7 3.1 C40.56667 3 40.4 2.875 40.3 2.8 C40.175 2.1 39.925 0.7 39.8 0 zM44.4 30.8 C40.8 30.7 37.3 30.6 33.7 30.6 C30.3 30.6 26.8 30.8 23.3 30.8 C28.7 40.06667 35.45 51.65 39.5 58.6 C39.55 58.6 39.65 58.6 39.7 58.6 C40.875 51.65 43.225 37.75 44.4 30.8 zM33.4 82.1 C33.4 76.4 38.1 71.7 43.8 71.7 C49.5 71.7 54.2 76.4 54.2 82.1 C54.2 87.8 49.5 92.5 43.8 92.5 C38.1 92.5 33.4 87.8 33.4 82.1 zM49.8 82.1 C49.8 78.8 47.1 76.1 43.8 76.1 C40.5 76.1 37.8 78.8 37.8 82.1 C37.8 85.4 40.5 88.1 43.8 88.1 C47.1 88.1 49.8 85.4 49.8 82.1 z" />
<glyph unicode="" horiz-adv-x="88.9" d="M50 64.5 C48.7 53.2 46.9 42.4 44.8 31.8 C41.7 31.6 39.3 31.5 35.4 31.5 C31.4 31.5 29 31.6 25.7 31.8 C28.1 35.5 43 58.8 47.8 64.5 C48.53333 64.5 49.45 64.5 50 64.5 zM33.9 0 C33.975 -0.075 34.125 -0.225 34.2 -0.3 C38 -0.2 43.4 0 49.6 0 C52.9 0 59 -0.1 65.2 -0.1 C71.4 -0.2 77.7 -0.3 81.3 -0.3 C81.46667 -0.13333 81.675 0.075 81.8 0.2 C82.1 2.5 83.5 13.6 83.9 15.8 C83.8 15.9 83.675 16.025 83.6 16.1 C82.925 16.1 81.575 16.1 80.9 16.1 C80.825 16.025 80.675 15.875 80.6 15.8 C79.2 8.5 78.5 6.7 76.9 5.7 C75 4.6 73.2 4.3 50.1 4.3 C51.3 14.4 52.8 23.7 54.4 33.1 C69.9 33.1 74.4 33.1 77.7 32.7 C78.2 34.4 79 36.1 80.1 37.9 C79.93333 38.1 79.725 38.35 79.6 38.5 C77.1 37.9 72.7 37.8 69.9 37.8 C61 37.8 57.3 37.8 55.2 38.1 C56.6 46.9 57.9 55.7 59.7 64.5 C64.5 64.6 67.5 64.7 69.5 64.7 C75.4 64.7 79.5 64.2 80.2 63.6 C81.4 62.6 81.9 60.9 81.9 53.6 C82 53.5 82.125 53.375 82.2 53.3 C82.85 53.3 84.15 53.3 84.8 53.3 C84.875 53.375 85.025 53.525 85.1 53.6 C85.3 56.1 85.7 62.8 86.9 69 C86.76667 69.1 86.6 69.225 86.5 69.3 C83.1 69.3 77.2 69.2 71.1 69.1 C65.1 69 59 68.9 55.2 68.9 C47.3 68.9 40.1 69.3 33 69.4 C32.86667 69.3 32.7 69.175 32.6 69.1 C32.475 68.4 32.225 67 32.1 66.3 C32.2 66.225 32.4 66.075 32.5 66 C38.2 66 40.9 65.4 40.9 64.1 C40.9 63 38.8 60 33.9 52.6 C32.3 50.2 20.7 32.9 4.8 9.6 C0.5 3.3 0.3 3.2 -4.5 3.1 C-4.63333 3 -4.8 2.875 -4.9 2.8 C-5.025 2.1 -5.275 0.7 -5.4 0 C-5.3 -0.075 -5.1 -0.225 -5 -0.3 C0 -0.1 1.3 0 4.1 0 C8.4 0 12.9 -0.1 16.8 -0.3 C16.93333 -0.2 17.1 -0.075 17.2 0 C17.325 0.7 17.575 2.1 17.7 2.8 C17.6 2.875 17.4 3.025 17.3 3.1 C12.6 3.1 9.7 3.4 9.7 5.6 C9.7 7.2 10.8 9.1 22.8 27.2 C25.7 27.3 28.8 27.5 33.6 27.5 C37.6 27.5 42.6 27.2 44.4 27.2 C43.6 21.9 41.4 7.3 39.9 4.8 C39.6 4.3 38.7 3.9 37.1 3.3 C36.26667 3 35.225 2.625 34.6 2.4 C34.525 2.3 34.375 2.1 34.3 2 C34.2 1.5 34 0.5 33.9 0 z" />
<glyph unicode="" horiz-adv-x="66.7" d="M29.5 -9.7 C29.75 -9.95 30.25 -10.45 30.5 -10.7 C31.7 -10.3 32.8 -10.2 34.3 -10.2 C36.8 -10.2 38.9 -11 38.9 -13.9 C38.9 -16.5 36.5 -18.1 32.7 -18.1 C29.7 -18.1 27.5 -17.3 25.8 -16.1 C25.63333 -16.16667 25.425 -16.25 25.3 -16.3 C24.875 -16.95 24.025 -18.25 23.6 -18.9 C23.6 -19.025 23.6 -19.275 23.6 -19.4 C25.7 -20.6 29.2 -21.8 34.4 -21.8 C41.6 -21.8 45.9 -17.6 45.9 -13.1 C45.9 -9.6 43.4 -6.5 37.6 -6.5 C36.7 -6.5 35.9 -6.7 35.2 -6.9 C36.3 -5.16667 37.675 -3 38.5 -1.7 C45.4 -1.7 53.5 0.9 61.9 7 C62.1 8.5 62.3 10 62.7 11.4 C62.36667 11.5 61.95 11.625 61.7 11.7 C56 7.9 48.8 4.5 38.9 4.5 C29.1 4.5 16.8 9.7 16.8 29.6 C16.8 47.2 23.1 65.5 43.7 65.5 C50.1 65.5 55.8 63 60.2 60.4 C60.8 60 60.8 54.6 60.8 52.1 C60.9 52 61.025 51.875 61.1 51.8 C61.725 51.8 62.975 51.8 63.6 51.8 C63.7 51.875 63.9 52.025 64 52.1 C64.3 56.4 65.4 61.6 66.8 66.6 C66.73333 66.73333 66.65 66.9 66.6 67 C61.1 69.2 54.8 70.7 47.4 70.7 C28.8 70.7 6 57.9 6 29.4 C6 10.3 15.6 -1 34.6 -1.7 C32.9 -4.36667 30.775 -7.7 29.5 -9.7 z" />
<glyph unicode="" horiz-adv-x="57.4" d="M8 66.3 C8.1 66.225 8.3 66.075 8.4 66 C14.6 65.7 16.8 64.7 16.8 61.8 C16.8 58.7 14.5 47.1 11.9 30.8 C8.8 11.2 7.8 6.4 6.8 4.8 C6.5 4.3 5.6 3.9 4 3.3 C3.16667 3 2.125 2.625 1.5 2.4 C1.425 2.3 1.275 2.1 1.2 2 C1.1 1.5 0.9 0.5 0.8 0 C0.875 -0.075 1.025 -0.225 1.1 -0.3 C3.1 -0.3 6.6 -0.1 14.3 -0.1 C24.1 -0.1 42 -0.3 49.3 -0.3 C49.46667 -0.13333 49.675 0.075 49.8 0.2 C50.5 5.8 51.9 12.1 53.1 16.8 C53.03333 16.9 52.95 17.025 52.9 17.1 C52.25 17.1 50.95 17.1 50.3 17.1 C50.2 17.025 50 16.875 49.9 16.8 C48.8 12.9 46.6 6.8 44.7 5.7 C43.1 4.8 40.8 4.6 17.1 4.6 C18.73333 14.16667 20.775 26.125 22 33.3 C33.7 33.3 41.8 33.3 46.3 32.8 C46.9 34.5 47.6 36.2 48.4 37.9 C48.2 38.1 47.95 38.35 47.8 38.5 C45.2 37.9 39.2 37.7 36.3 37.7 C29.4 37.7 25.5 37.8 22.8 37.9 C24.3 46.63333 26.175 57.55 27.3 64.1 C30.6 64.4 31.7 64.5 34.8 64.5 C43.4 64.5 48.5 64.2 49.5 62.4 C49.9 61.7 50.2 60.9 50.2 53.7 C50.3 53.6 50.425 53.475 50.5 53.4 C51.15 53.4 52.45 53.4 53.1 53.4 C53.175 53.475 53.325 53.625 53.4 53.7 C53.4 55.7 54.8 66.1 55.3 68.7 C55.13333 68.83333 54.925 69 54.8 69.1 C51.2 69.1 38.8 68.7 24.8 68.7 C20.5 68.7 13 69 8.9 69.4 C8.76667 69.3 8.6 69.175 8.5 69.1 C8.375 68.4 8.125 67 8 66.3 zM44.2 72.2 C31.7 87.9 30.1 89.3 27.2 89.3 C25 89.3 23.5 87.2 23.5 85.7 C23.5 83.7 24.4 82.6 40.8 72.2 C41.93333 72.2 43.35 72.2 44.2 72.2 z" />
<glyph unicode="" horiz-adv-x="57.4" d="M8 66.3 C8.1 66.225 8.3 66.075 8.4 66 C14.6 65.7 16.8 64.7 16.8 61.8 C16.8 58.7 14.5 47.1 11.9 30.8 C8.8 11.2 7.8 6.4 6.8 4.8 C6.5 4.3 5.6 3.9 4 3.3 C3.16667 3 2.125 2.625 1.5 2.4 C1.425 2.3 1.275 2.1 1.2 2 C1.1 1.5 0.9 0.5 0.8 0 C0.875 -0.075 1.025 -0.225 1.1 -0.3 C3.1 -0.3 6.6 -0.1 14.3 -0.1 C24.1 -0.1 42 -0.3 49.3 -0.3 C49.46667 -0.13333 49.675 0.075 49.8 0.2 C50.5 5.8 51.9 12.1 53.1 16.8 C53.03333 16.9 52.95 17.025 52.9 17.1 C52.25 17.1 50.95 17.1 50.3 17.1 C50.2 17.025 50 16.875 49.9 16.8 C48.8 12.9 46.6 6.8 44.7 5.7 C43.1 4.8 40.8 4.6 17.1 4.6 C18.73333 14.16667 20.775 26.125 22 33.3 C33.7 33.3 41.8 33.3 46.3 32.8 C46.9 34.5 47.6 36.2 48.4 37.9 C48.2 38.1 47.95 38.35 47.8 38.5 C45.2 37.9 39.2 37.7 36.3 37.7 C29.4 37.7 25.5 37.8 22.8 37.9 C24.3 46.63333 26.175 57.55 27.3 64.1 C30.6 64.4 31.7 64.5 34.8 64.5 C43.4 64.5 48.5 64.2 49.5 62.4 C49.9 61.7 50.2 60.9 50.2 53.7 C50.3 53.6 50.425 53.475 50.5 53.4 C51.15 53.4 52.45 53.4 53.1 53.4 C53.175 53.475 53.325 53.625 53.4 53.7 C53.4 55.7 54.8 66.1 55.3 68.7 C55.13333 68.83333 54.925 69 54.8 69.1 C51.2 69.1 38.8 68.7 24.8 68.7 C20.5 68.7 13 69 8.9 69.4 C8.76667 69.3 8.6 69.175 8.5 69.1 C8.375 68.4 8.125 67 8 66.3 zM31.2 72.3 C47.7 81.6 49.6 83.3 49.6 85.5 C49.6 87.7 48.1 89 46.2 89 C42.9 89 40.2 86.3 28 72.3 C29.06667 72.3 30.4 72.3 31.2 72.3 z" />
<glyph unicode="" horiz-adv-x="57.4" d="M8 66.3 C8.1 66.225 8.3 66.075 8.4 66 C14.6 65.7 16.8 64.7 16.8 61.8 C16.8 58.7 14.5 47.1 11.9 30.8 C8.8 11.2 7.8 6.4 6.8 4.8 C6.5 4.3 5.6 3.9 4 3.3 C3.16667 3 2.125 2.625 1.5 2.4 C1.425 2.3 1.275 2.1 1.2 2 C1.1 1.5 0.9 0.5 0.8 0 C0.875 -0.075 1.025 -0.225 1.1 -0.3 C3.1 -0.3 6.6 -0.1 14.3 -0.1 C24.1 -0.1 42 -0.3 49.3 -0.3 C49.46667 -0.13333 49.675 0.075 49.8 0.2 C50.5 5.8 51.9 12.1 53.1 16.8 C53.03333 16.9 52.95 17.025 52.9 17.1 C52.25 17.1 50.95 17.1 50.3 17.1 C50.2 17.025 50 16.875 49.9 16.8 C48.8 12.9 46.6 6.8 44.7 5.7 C43.1 4.8 40.8 4.6 17.1 4.6 C18.73333 14.16667 20.775 26.125 22 33.3 C33.7 33.3 41.8 33.3 46.3 32.8 C46.9 34.5 47.6 36.2 48.4 37.9 C48.2 38.1 47.95 38.35 47.8 38.5 C45.2 37.9 39.2 37.7 36.3 37.7 C29.4 37.7 25.5 37.8 22.8 37.9 C24.3 46.63333 26.175 57.55 27.3 64.1 C30.6 64.4 31.7 64.5 34.8 64.5 C43.4 64.5 48.5 64.2 49.5 62.4 C49.9 61.7 50.2 60.9 50.2 53.7 C50.3 53.6 50.425 53.475 50.5 53.4 C51.15 53.4 52.45 53.4 53.1 53.4 C53.175 53.475 53.325 53.625 53.4 53.7 C53.4 55.7 54.8 66.1 55.3 68.7 C55.13333 68.83333 54.925 69 54.8 69.1 C51.2 69.1 38.8 68.7 24.8 68.7 C20.5 68.7 13 69 8.9 69.4 C8.76667 69.3 8.6 69.175 8.5 69.1 C8.375 68.4 8.125 67 8 66.3 zM44.3 72.6 C45.35 72.6 47.45 72.6 48.5 72.6 C46.475 76.675 42.425 84.825 40.4 88.9 C38.9 88.9 35.9 88.9 34.4 88.9 C30.625 84.825 23.075 76.675 19.3 72.6 C20.5 72.6 22.9 72.6 24.1 72.6 C27.05 74.9 32.95 79.5 35.9 81.8 C38 79.5 42.2 74.9 44.3 72.6 z" />
<glyph unicode="" horiz-adv-x="57.4" d="M8 66.3 C8.1 66.225 8.3 66.075 8.4 66 C14.6 65.7 16.8 64.7 16.8 61.8 C16.8 58.7 14.5 47.1 11.9 30.8 C8.8 11.2 7.8 6.4 6.8 4.8 C6.5 4.3 5.6 3.9 4 3.3 C3.16667 3 2.125 2.625 1.5 2.4 C1.425 2.3 1.275 2.1 1.2 2 C1.1 1.5 0.9 0.5 0.8 0 C0.875 -0.075 1.025 -0.225 1.1 -0.3 C3.1 -0.3 6.6 -0.1 14.3 -0.1 C24.1 -0.1 42 -0.3 49.3 -0.3 C49.46667 -0.13333 49.675 0.075 49.8 0.2 C50.5 5.8 51.9 12.1 53.1 16.8 C53.03333 16.9 52.95 17.025 52.9 17.1 C52.25 17.1 50.95 17.1 50.3 17.1 C50.2 17.025 50 16.875 49.9 16.8 C48.8 12.9 46.6 6.8 44.7 5.7 C43.1 4.8 40.8 4.6 17.1 4.6 C18.73333 14.16667 20.775 26.125 22 33.3 C33.7 33.3 41.8 33.3 46.3 32.8 C46.9 34.5 47.6 36.2 48.4 37.9 C48.2 38.1 47.95 38.35 47.8 38.5 C45.2 37.9 39.2 37.7 36.3 37.7 C29.4 37.7 25.5 37.8 22.8 37.9 C24.3 46.63333 26.175 57.55 27.3 64.1 C30.6 64.4 31.7 64.5 34.8 64.5 C43.4 64.5 48.5 64.2 49.5 62.4 C49.9 61.7 50.2 60.9 50.2 53.7 C50.3 53.6 50.425 53.475 50.5 53.4 C51.15 53.4 52.45 53.4 53.1 53.4 C53.175 53.475 53.325 53.625 53.4 53.7 C53.4 55.7 54.8 66.1 55.3 68.7 C55.13333 68.83333 54.925 69 54.8 69.1 C51.2 69.1 38.8 68.7 24.8 68.7 C20.5 68.7 13 69 8.9 69.4 C8.76667 69.3 8.6 69.175 8.5 69.1 C8.375 68.4 8.125 67 8 66.3 zM37.9 79.4 C37.9 76.7 39.9 74.8 42.5 74.8 C46.3 74.8 49.2 79.3 49.2 82.8 C49.2 85.1 47.1 86.8 45.2 86.8 C41.5 86.8 37.9 82.4 37.9 79.4 zM20.1 79.4 C20.1 76.7 22.1 74.8 24.7 74.8 C28.5 74.8 31.4 79.3 31.4 82.8 C31.4 85.1 29.3 86.8 27.4 86.8 C23.7 86.8 20.1 82.4 20.1 79.4 z" />
<glyph unicode="" horiz-adv-x="33.3" d="M-1 0 C-0.9 -0.075 -0.7 -0.225 -0.6 -0.3 C3.8 -0.1 8.5 0 12.1 0 C16.7 0 21.4 -0.1 25.8 -0.3 C25.93333 -0.2 26.1 -0.075 26.2 0 C26.325 0.7 26.575 2.1 26.7 2.8 C26.6 2.875 26.4 3.025 26.3 3.1 C19.2 3.1 18.3 4.4 18.3 6.2 C18.3 9.8 26.2 60.1 28.3 64.2 C29 65.6 33.5 66 35.7 66 C35.83333 66.1 36 66.225 36.1 66.3 C36.225 67 36.475 68.4 36.6 69.1 C36.5 69.175 36.3 69.325 36.2 69.4 C31.8 69.2 27.1 69.1 23.5 69.1 C18.9 69.1 14.2 69.2 9.8 69.4 C9.66667 69.3 9.5 69.175 9.4 69.1 C9.275 68.4 9.025 67 8.9 66.3 C9 66.225 9.2 66.075 9.3 66 C16.4 66 17.3 64.7 17.3 62.9 C17.3 59.1 9.3 8.9 7.3 4.9 C6.6 3.5 2.1 3.1 -0.1 3.1 C-0.23333 3 -0.4 2.875 -0.5 2.8 C-0.625 2.1 -0.875 0.7 -1 0 zM34 72.2 C21.5 87.9 19.9 89.3 17 89.3 C14.8 89.3 13.3 87.2 13.3 85.7 C13.3 83.7 14.2 82.6 30.6 72.2 C31.73333 72.2 33.15 72.2 34 72.2 z" />
<glyph unicode="" horiz-adv-x="33.3" d="M-1 0 C-0.9 -0.075 -0.7 -0.225 -0.6 -0.3 C3.8 -0.1 8.5 0 12.1 0 C16.7 0 21.4 -0.1 25.8 -0.3 C25.93333 -0.2 26.1 -0.075 26.2 0 C26.325 0.7 26.575 2.1 26.7 2.8 C26.6 2.875 26.4 3.025 26.3 3.1 C19.2 3.1 18.3 4.4 18.3 6.2 C18.3 9.8 26.2 60.1 28.3 64.2 C29 65.6 33.5 66 35.7 66 C35.83333 66.1 36 66.225 36.1 66.3 C36.225 67 36.475 68.4 36.6 69.1 C36.5 69.175 36.3 69.325 36.2 69.4 C31.8 69.2 27.1 69.1 23.5 69.1 C18.9 69.1 14.2 69.2 9.8 69.4 C9.66667 69.3 9.5 69.175 9.4 69.1 C9.275 68.4 9.025 67 8.9 66.3 C9 66.225 9.2 66.075 9.3 66 C16.4 66 17.3 64.7 17.3 62.9 C17.3 59.1 9.3 8.9 7.3 4.9 C6.6 3.5 2.1 3.1 -0.1 3.1 C-0.23333 3 -0.4 2.875 -0.5 2.8 C-0.625 2.1 -0.875 0.7 -1 0 zM19.2 72.3 C35.7 81.6 37.6 83.3 37.6 85.5 C37.6 87.7 36.1 89 34.2 89 C30.9 89 28.2 86.3 16 72.3 C17.06667 72.3 18.4 72.3 19.2 72.3 z" />
<glyph unicode="" horiz-adv-x="33.3" d="M-1 0 C-0.9 -0.075 -0.7 -0.225 -0.6 -0.3 C3.8 -0.1 8.5 0 12.1 0 C16.7 0 21.4 -0.1 25.8 -0.3 C25.93333 -0.2 26.1 -0.075 26.2 0 C26.325 0.7 26.575 2.1 26.7 2.8 C26.6 2.875 26.4 3.025 26.3 3.1 C19.2 3.1 18.3 4.4 18.3 6.2 C18.3 9.8 26.2 60.1 28.3 64.2 C29 65.6 33.5 66 35.7 66 C35.83333 66.1 36 66.225 36.1 66.3 C36.225 67 36.475 68.4 36.6 69.1 C36.5 69.175 36.3 69.325 36.2 69.4 C31.8 69.2 27.1 69.1 23.5 69.1 C18.9 69.1 14.2 69.2 9.8 69.4 C9.66667 69.3 9.5 69.175 9.4 69.1 C9.275 68.4 9.025 67 8.9 66.3 C9 66.225 9.2 66.075 9.3 66 C16.4 66 17.3 64.7 17.3 62.9 C17.3 59.1 9.3 8.9 7.3 4.9 C6.6 3.5 2.1 3.1 -0.1 3.1 C-0.23333 3 -0.4 2.875 -0.5 2.8 C-0.625 2.1 -0.875 0.7 -1 0 zM33.5 72.6 C34.55 72.6 36.65 72.6 37.7 72.6 C35.675 76.675 31.625 84.825 29.6 88.9 C28.1 88.9 25.1 88.9 23.6 88.9 C19.825 84.825 12.275 76.675 8.5 72.6 C9.7 72.6 12.1 72.6 13.3 72.6 C16.25 74.9 22.15 79.5 25.1 81.8 C27.2 79.5 31.4 74.9 33.5 72.6 z" />
<glyph unicode="" horiz-adv-x="33.3" d="M-1 0 C-0.9 -0.075 -0.7 -0.225 -0.6 -0.3 C3.8 -0.1 8.5 0 12.1 0 C16.7 0 21.4 -0.1 25.8 -0.3 C25.93333 -0.2 26.1 -0.075 26.2 0 C26.325 0.7 26.575 2.1 26.7 2.8 C26.6 2.875 26.4 3.025 26.3 3.1 C19.2 3.1 18.3 4.4 18.3 6.2 C18.3 9.8 26.2 60.1 28.3 64.2 C29 65.6 33.5 66 35.7 66 C35.83333 66.1 36 66.225 36.1 66.3 C36.225 67 36.475 68.4 36.6 69.1 C36.5 69.175 36.3 69.325 36.2 69.4 C31.8 69.2 27.1 69.1 23.5 69.1 C18.9 69.1 14.2 69.2 9.8 69.4 C9.66667 69.3 9.5 69.175 9.4 69.1 C9.275 68.4 9.025 67 8.9 66.3 C9 66.225 9.2 66.075 9.3 66 C16.4 66 17.3 64.7 17.3 62.9 C17.3 59.1 9.3 8.9 7.3 4.9 C6.6 3.5 2.1 3.1 -0.1 3.1 C-0.23333 3 -0.4 2.875 -0.5 2.8 C-0.625 2.1 -0.875 0.7 -1 0 zM27.7 79.4 C27.7 76.7 29.7 74.8 32.3 74.8 C36.1 74.8 39 79.3 39 82.8 C39 85.1 36.9 86.8 35 86.8 C31.3 86.8 27.7 82.4 27.7 79.4 zM9.9 79.4 C9.9 76.7 11.9 74.8 14.5 74.8 C18.3 74.8 21.2 79.3 21.2 82.8 C21.2 85.1 19.1 86.8 17.2 86.8 C13.5 86.8 9.9 82.4 9.9 79.4 z" />
<glyph unicode="" horiz-adv-x="77.8" d="M23 37.7 C24.7 49.3 26.4 58.3 28 64.7 C30.8 65 33.2 65.2 38.8 65.2 C49.5 65.2 63.4 63 63.4 42.4 C63.4 24.8 54.4 3.9 32.4 3.9 C26.4 3.9 21.7 4.6 18.1 5.6 C19.5 15.8 20.9 25.4 22.3 33.5 C29.03333 33.5 37.45 33.5 42.5 33.5 C42.625 33.625 42.875 33.875 43 34 C43.175 34.85 43.525 36.55 43.7 37.4 C43.575 37.475 43.325 37.625 43.2 37.7 C38.15 37.7 28.05 37.7 23 37.7 zM3.5 37.7 C3.375 37.625 3.125 37.475 3 37.4 C2.85 36.55 2.55 34.85 2.4 34 C2.525 33.875 2.775 33.625 2.9 33.5 C5.35 33.5 10.25 33.5 12.7 33.5 C12.6 32.825 12.4 31.475 12.3 30.8 C9.2 11.2 8.2 6.4 7.2 4.8 C6.9 4.3 6 3.9 4.4 3.3 C3.56667 3 2.525 2.625 1.9 2.4 C1.825 2.3 1.675 2.1 1.6 2 C1.5 1.5 1.3 0.5 1.2 0 C1.275 -0.075 1.425 -0.225 1.5 -0.3 C3.5 -0.1 7 0 11.4 0 C14.5 0 17.5 -0.1 20.5 -0.2 C23.5 -0.3 26.6 -0.4 29.6 -0.4 C55.2 -0.4 74.2 19.2 74.2 43.1 C74.2 56.5 69.1 69.5 44.7 69.5 C41.1 69.5 37.4 69.4 33.7 69.3 C30 69.2 26.4 69.1 22.7 69.1 C16.2 69.1 12 69.3 9.3 69.4 C9.16667 69.3 9 69.175 8.9 69.1 C8.775 68.4 8.525 67 8.4 66.3 C8.5 66.225 8.7 66.075 8.8 66 C15 65.7 17.2 64.7 17.2 61.8 C17.2 60 15.4 49.6 13.4 37.7 C10.1 37.7 5.975 37.7 3.5 37.7 z" />
<glyph unicode="" horiz-adv-x="75.9" d="M56.6 66.3 C56.7 66.225 56.9 66.075 57 66 C64 66 64.7 65.5 64.7 62.9 C64.7 59.6 63.4 50 57.2 12.3 C57.13333 12.3 57.05 12.3 57 12.3 C46.7 31.7 34.4 50 24.3 69.4 C21.9 69.3 17.9 69.1 14.7 69.1 C11.9 69.1 9.1 69.3 6.6 69.4 C6.46667 69.3 6.3 69.175 6.2 69.1 C6.075 68.4 5.825 67 5.7 66.3 C5.8 66.225 6 66.075 6.1 66 C13.1 66 15.5 64.3 16.9 61 C16.9 56.2 8.7 10.3 6.5 5.5 C5.5 3.3 3.2 3.1 -0.6 3.1 C-0.73333 3 -0.9 2.875 -1 2.8 C-1.125 2.1 -1.375 0.7 -1.5 0 C-1.4 -0.075 -1.2 -0.225 -1.1 -0.3 C2.3 -0.1 5.8 0 9.5 0 C13.4 0 17.2 -0.1 21 -0.3 C21.13333 -0.2 21.3 -0.075 21.4 0 C21.525 0.7 21.775 2.1 21.9 2.8 C21.8 2.875 21.6 3.025 21.5 3.1 C14.2 3.4 13.4 3.7 13.4 7 C13.4 15.4 18.9 42.7 21.2 54.9 C21.26667 54.9 21.35 54.9 21.4 54.9 C31.8 36.2 43.7 17.5 54.5 -1.2 C56.16667 -1.2 58.25 -1.2 59.5 -1.2 C59.575 -1.125 59.725 -0.975 59.8 -0.9 C61.75 10.875 65.65 34.425 67.6 46.2 C70.9 66 71.5 66 78.9 66 C79.03333 66.1 79.2 66.225 79.3 66.3 C79.425 67 79.675 68.4 79.8 69.1 C79.7 69.175 79.5 69.325 79.4 69.4 C76 69.3 72.2 69.1 68.5 69.1 C66.7 69.1 64.8 69.2 63 69.3 C61.2 69.3 59.4 69.4 57.5 69.4 C57.36667 69.3 57.2 69.175 57.1 69.1 C56.975 68.4 56.725 67 56.6 66.3 zM31.2 76.3 C32.6 78.4 35 80.2 37.5 80.2 C41.3 80.2 47.8 75.4 52.2 75.4 C56.7 75.4 61.6 79.1 64.1 84.8 C63.2 85.2 62.075 85.7 61.4 86 C59.8 83.5 57.8 81.9 54.9 81.9 C50.1 81.9 44.5 86.6 39.7 86.6 C35.5 86.6 31.9 83.3 28.3 77.8 C29.26667 77.3 30.475 76.675 31.2 76.3 z" />
<glyph unicode="" horiz-adv-x="75.9" d="M16.5 25.7 C16.5 49.3 26.1 66.2 43.4 66.2 C55.9 66.2 62.6 58.3 62.6 44.9 C62.6 20.3 53.5 2.7 35.8 2.7 C25.7 2.7 16.5 9.7 16.5 25.7 zM5.5 26 C5.5 9.8 14.9 -1.8 31.3 -1.8 C60.5 -1.8 73.4 21.1 73.4 43.9 C73.4 61.5 62.9 70.7 47.4 70.7 C21.2 70.7 5.5 52.3 5.5 26 zM55.3 72.2 C42.8 87.9 41.2 89.3 38.3 89.3 C36.1 89.3 34.6 87.2 34.6 85.7 C34.6 83.7 35.5 82.6 51.9 72.2 C53.03333 72.2 54.45 72.2 55.3 72.2 z" />
<glyph unicode="" horiz-adv-x="75.9" d="M16.5 25.7 C16.5 49.3 26.1 66.2 43.4 66.2 C55.9 66.2 62.6 58.3 62.6 44.9 C62.6 20.3 53.5 2.7 35.8 2.7 C25.7 2.7 16.5 9.7 16.5 25.7 zM5.5 26 C5.5 9.8 14.9 -1.8 31.3 -1.8 C60.5 -1.8 73.4 21.1 73.4 43.9 C73.4 61.5 62.9 70.7 47.4 70.7 C21.2 70.7 5.5 52.3 5.5 26 zM40.5 72.3 C57 81.6 58.9 83.3 58.9 85.5 C58.9 87.7 57.4 89 55.5 89 C52.2 89 49.5 86.3 37.3 72.3 C38.36667 72.3 39.7 72.3 40.5 72.3 z" />
<glyph unicode="" horiz-adv-x="75.9" d="M16.5 25.7 C16.5 49.3 26.1 66.2 43.4 66.2 C55.9 66.2 62.6 58.3 62.6 44.9 C62.6 20.3 53.5 2.7 35.8 2.7 C25.7 2.7 16.5 9.7 16.5 25.7 zM5.5 26 C5.5 9.8 14.9 -1.8 31.3 -1.8 C60.5 -1.8 73.4 21.1 73.4 43.9 C73.4 61.5 62.9 70.7 47.4 70.7 C21.2 70.7 5.5 52.3 5.5 26 zM55.4 72.6 C56.45 72.6 58.55 72.6 59.6 72.6 C57.575 76.675 53.525 84.825 51.5 88.9 C50 88.9 47 88.9 45.5 88.9 C41.725 84.825 34.175 76.675 30.4 72.6 C31.6 72.6 34 72.6 35.2 72.6 C38.15 74.9 44.05 79.5 47 81.8 C49.1 79.5 53.3 74.9 55.4 72.6 z" />
<glyph unicode="" horiz-adv-x="75.9" d="M16.5 25.7 C16.5 49.3 26.1 66.2 43.4 66.2 C55.9 66.2 62.6 58.3 62.6 44.9 C62.6 20.3 53.5 2.7 35.8 2.7 C25.7 2.7 16.5 9.7 16.5 25.7 zM5.5 26 C5.5 9.8 14.9 -1.8 31.3 -1.8 C60.5 -1.8 73.4 21.1 73.4 43.9 C73.4 61.5 62.9 70.7 47.4 70.7 C21.2 70.7 5.5 52.3 5.5 26 zM30.6 76.3 C32 78.4 34.4 80.2 36.9 80.2 C40.7 80.2 47.2 75.4 51.6 75.4 C56.1 75.4 61 79.1 63.5 84.8 C62.6 85.2 61.475 85.7 60.8 86 C59.2 83.5 57.2 81.9 54.3 81.9 C49.5 81.9 43.9 86.6 39.1 86.6 C34.9 86.6 31.3 83.3 27.7 77.8 C28.66667 77.3 29.875 76.675 30.6 76.3 z" />
<glyph unicode="" horiz-adv-x="75.9" d="M16.5 25.7 C16.5 49.3 26.1 66.2 43.4 66.2 C55.9 66.2 62.6 58.3 62.6 44.9 C62.6 20.3 53.5 2.7 35.8 2.7 C25.7 2.7 16.5 9.7 16.5 25.7 zM5.5 26 C5.5 9.8 14.9 -1.8 31.3 -1.8 C60.5 -1.8 73.4 21.1 73.4 43.9 C73.4 61.5 62.9 70.7 47.4 70.7 C21.2 70.7 5.5 52.3 5.5 26 zM49 79.4 C49 76.7 51 74.8 53.6 74.8 C57.4 74.8 60.3 79.3 60.3 82.8 C60.3 85.1 58.2 86.8 56.3 86.8 C52.6 86.8 49 82.4 49 79.4 zM31.2 79.4 C31.2 76.7 33.2 74.8 35.8 74.8 C39.6 74.8 42.5 79.3 42.5 82.8 C42.5 85.1 40.4 86.8 38.5 86.8 C34.8 86.8 31.2 82.4 31.2 79.4 z" />
<glyph unicode="" horiz-adv-x="60" d="M30 30.4 C25.55 34.85 16.65 43.75 12.2 48.2 C10.925 46.925 8.375 44.375 7.1 43.1 C11.55 38.65 20.45 29.75 24.9 25.3 C20.45 20.85 11.55 11.95 7.1 7.5 C8.375 6.225 10.925 3.675 12.2 2.4 C16.65 6.85 25.55 15.75 30 20.2 C34.45 15.75 43.35 6.85 47.8 2.4 C49.075 3.675 51.625 6.225 52.9 7.5 C48.45 11.95 39.55 20.85 35.1 25.3 C39.55 29.75 48.45 38.65 52.9 43.1 C51.625 44.375 49.075 46.925 47.8 48.2 C43.35 43.75 34.45 34.85 30 30.4 z" />
<glyph unicode="" horiz-adv-x="75.9" d="M17.9 16 C17 18.7 16.5 22 16.5 25.7 C16.5 49.3 26.1 66.2 43.4 66.2 C51.2 66.2 56.8 63.1 59.8 57.5 C45.83333 43.66667 28.375 26.375 17.9 16 zM1.6 -0.2 C1.6 -0.3 1.6 -0.5 1.6 -0.6 C2.25 -1.25 3.55 -2.55 4.2 -3.2 C4.3 -3.2 4.5 -3.2 4.6 -3.2 C6.7 -1.1 10.9 3.1 13 5.2 C17.4 0.8 23.5 -1.8 31.3 -1.8 C60.5 -1.8 73.4 21.1 73.4 43.9 C73.4 50.7 71.8 56.3 68.9 60.6 C71.66667 63.33333 75.125 66.75 77.2 68.8 C77.2 68.9 77.2 69.1 77.2 69.2 C76.55 69.85 75.25 71.15 74.6 71.8 C74.5 71.8 74.3 71.8 74.2 71.8 C72.2 69.825 68.2 65.875 66.2 63.9 C61.8 68.3 55.2 70.7 47.4 70.7 C21.2 70.7 5.5 52.3 5.5 26 C5.5 19.1 7.2 13.1 10.3 8.5 C7.4 5.6 3.775 1.975 1.6 -0.2 zM61.5 53.2 C62.3 50.7 62.6 47.9 62.6 44.9 C62.6 20.3 53.5 2.7 35.8 2.7 C29.3 2.7 23.2 5.6 19.7 11.9 C33.63333 25.66667 51.05 42.875 61.5 53.2 z" />
<glyph unicode="" horiz-adv-x="75.9" d="M51.6 66.3 C51.7 66.225 51.9 66.075 52 66 C58.9 65.9 60.6 65.6 60.6 62.7 C60.6 60.3 55.4 29.1 53.7 18.3 C47.2 11.1 39.6 4.9 30.8 4.9 C26.7 4.9 18.8 6.2 18.8 15.4 C18.8 23.5 23.6 48.5 27.9 69.4 C26.7 69.2 22.8 69.1 20.1 69.1 C16.4 69.1 10.7 69.3 8.9 69.4 C8.76667 69.3 8.6 69.175 8.5 69.1 C8.375 68.4 8.125 67 8 66.3 C8.1 66.225 8.3 66.075 8.4 66 C15.4 65.7 16.2 65.7 16.2 62.5 C16.2 59.8 14.6 50.9 13.6 45.1 C13 41.5 12.25 37 11.8 34.3 C10.5 26.4 8.8 18.8 8.8 13.7 C8.8 3.1 16.7 -1.8 26.7 -1.8 C35.6 -1.8 43.8 2.3 52.6 12.5 C52.66667 12.43333 52.75 12.35 52.8 12.3 C52.2 8.8 51.1 4.2 50.1 0.1 C50.23333 -0.03333 50.4 -0.2 50.5 -0.3 C53.5 -0.1 56.4 0 59.5 0 C62.8 0 66.5 -0.1 69.3 -0.3 C69.43333 -0.2 69.6 -0.075 69.7 0 C69.825 0.7 70.075 2.1 70.2 2.8 C70.1 2.875 69.9 3.025 69.8 3.1 C63.2 3.7 61.2 4.2 61.2 6.7 C61.2 9.6 68.7 52.5 69.3 56.1 C70.9 65.9 71.2 66 78.2 66 C78.33333 66.1 78.5 66.225 78.6 66.3 C78.725 67 78.975 68.4 79.1 69.1 C79 69.175 78.8 69.325 78.7 69.4 C74.3 69.3 70 69.1 65.6 69.1 C61.2 69.1 56.9 69.3 52.5 69.4 C52.36667 69.3 52.2 69.175 52.1 69.1 C51.975 68.4 51.725 67 51.6 66.3 zM53.5 72.2 C41 87.9 39.4 89.3 36.5 89.3 C34.3 89.3 32.8 87.2 32.8 85.7 C32.8 83.7 33.7 82.6 50.1 72.2 C51.23333 72.2 52.65 72.2 53.5 72.2 z" />
<glyph unicode="" horiz-adv-x="75.9" d="M51.6 66.3 C51.7 66.225 51.9 66.075 52 66 C58.9 65.9 60.6 65.6 60.6 62.7 C60.6 60.3 55.4 29.1 53.7 18.3 C47.2 11.1 39.6 4.9 30.8 4.9 C26.7 4.9 18.8 6.2 18.8 15.4 C18.8 23.5 23.6 48.5 27.9 69.4 C26.7 69.2 22.8 69.1 20.1 69.1 C16.4 69.1 10.7 69.3 8.9 69.4 C8.76667 69.3 8.6 69.175 8.5 69.1 C8.375 68.4 8.125 67 8 66.3 C8.1 66.225 8.3 66.075 8.4 66 C15.4 65.7 16.2 65.7 16.2 62.5 C16.2 59.8 14.6 50.9 13.6 45.1 C13 41.5 12.25 37 11.8 34.3 C10.5 26.4 8.8 18.8 8.8 13.7 C8.8 3.1 16.7 -1.8 26.7 -1.8 C35.6 -1.8 43.8 2.3 52.6 12.5 C52.66667 12.43333 52.75 12.35 52.8 12.3 C52.2 8.8 51.1 4.2 50.1 0.1 C50.23333 -0.03333 50.4 -0.2 50.5 -0.3 C53.5 -0.1 56.4 0 59.5 0 C62.8 0 66.5 -0.1 69.3 -0.3 C69.43333 -0.2 69.6 -0.075 69.7 0 C69.825 0.7 70.075 2.1 70.2 2.8 C70.1 2.875 69.9 3.025 69.8 3.1 C63.2 3.7 61.2 4.2 61.2 6.7 C61.2 9.6 68.7 52.5 69.3 56.1 C70.9 65.9 71.2 66 78.2 66 C78.33333 66.1 78.5 66.225 78.6 66.3 C78.725 67 78.975 68.4 79.1 69.1 C79 69.175 78.8 69.325 78.7 69.4 C74.3 69.3 70 69.1 65.6 69.1 C61.2 69.1 56.9 69.3 52.5 69.4 C52.36667 69.3 52.2 69.175 52.1 69.1 C51.975 68.4 51.725 67 51.6 66.3 zM40.5 72.3 C57 81.6 58.9 83.3 58.9 85.5 C58.9 87.7 57.4 89 55.5 89 C52.2 89 49.5 86.3 37.3 72.3 C38.36667 72.3 39.7 72.3 40.5 72.3 z" />
<glyph unicode="" horiz-adv-x="75.9" d="M51.6 66.3 C51.7 66.225 51.9 66.075 52 66 C58.9 65.9 60.6 65.6 60.6 62.7 C60.6 60.3 55.4 29.1 53.7 18.3 C47.2 11.1 39.6 4.9 30.8 4.9 C26.7 4.9 18.8 6.2 18.8 15.4 C18.8 23.5 23.6 48.5 27.9 69.4 C26.7 69.2 22.8 69.1 20.1 69.1 C16.4 69.1 10.7 69.3 8.9 69.4 C8.76667 69.3 8.6 69.175 8.5 69.1 C8.375 68.4 8.125 67 8 66.3 C8.1 66.225 8.3 66.075 8.4 66 C15.4 65.7 16.2 65.7 16.2 62.5 C16.2 59.8 14.6 50.9 13.6 45.1 C13 41.5 12.25 37 11.8 34.3 C10.5 26.4 8.8 18.8 8.8 13.7 C8.8 3.1 16.7 -1.8 26.7 -1.8 C35.6 -1.8 43.8 2.3 52.6 12.5 C52.66667 12.43333 52.75 12.35 52.8 12.3 C52.2 8.8 51.1 4.2 50.1 0.1 C50.23333 -0.03333 50.4 -0.2 50.5 -0.3 C53.5 -0.1 56.4 0 59.5 0 C62.8 0 66.5 -0.1 69.3 -0.3 C69.43333 -0.2 69.6 -0.075 69.7 0 C69.825 0.7 70.075 2.1 70.2 2.8 C70.1 2.875 69.9 3.025 69.8 3.1 C63.2 3.7 61.2 4.2 61.2 6.7 C61.2 9.6 68.7 52.5 69.3 56.1 C70.9 65.9 71.2 66 78.2 66 C78.33333 66.1 78.5 66.225 78.6 66.3 C78.725 67 78.975 68.4 79.1 69.1 C79 69.175 78.8 69.325 78.7 69.4 C74.3 69.3 70 69.1 65.6 69.1 C61.2 69.1 56.9 69.3 52.5 69.4 C52.36667 69.3 52.2 69.175 52.1 69.1 C51.975 68.4 51.725 67 51.6 66.3 zM55.4 72.6 C56.45 72.6 58.55 72.6 59.6 72.6 C57.575 76.675 53.525 84.825 51.5 88.9 C50 88.9 47 88.9 45.5 88.9 C41.725 84.825 34.175 76.675 30.4 72.6 C31.6 72.6 34 72.6 35.2 72.6 C38.15 74.9 44.05 79.5 47 81.8 C49.1 79.5 53.3 74.9 55.4 72.6 z" />
<glyph unicode="" horiz-adv-x="75.9" d="M51.6 66.3 C51.7 66.225 51.9 66.075 52 66 C58.9 65.9 60.6 65.6 60.6 62.7 C60.6 60.3 55.4 29.1 53.7 18.3 C47.2 11.1 39.6 4.9 30.8 4.9 C26.7 4.9 18.8 6.2 18.8 15.4 C18.8 23.5 23.6 48.5 27.9 69.4 C26.7 69.2 22.8 69.1 20.1 69.1 C16.4 69.1 10.7 69.3 8.9 69.4 C8.76667 69.3 8.6 69.175 8.5 69.1 C8.375 68.4 8.125 67 8 66.3 C8.1 66.225 8.3 66.075 8.4 66 C15.4 65.7 16.2 65.7 16.2 62.5 C16.2 59.8 14.6 50.9 13.6 45.1 C13 41.5 12.25 37 11.8 34.3 C10.5 26.4 8.8 18.8 8.8 13.7 C8.8 3.1 16.7 -1.8 26.7 -1.8 C35.6 -1.8 43.8 2.3 52.6 12.5 C52.66667 12.43333 52.75 12.35 52.8 12.3 C52.2 8.8 51.1 4.2 50.1 0.1 C50.23333 -0.03333 50.4 -0.2 50.5 -0.3 C53.5 -0.1 56.4 0 59.5 0 C62.8 0 66.5 -0.1 69.3 -0.3 C69.43333 -0.2 69.6 -0.075 69.7 0 C69.825 0.7 70.075 2.1 70.2 2.8 C70.1 2.875 69.9 3.025 69.8 3.1 C63.2 3.7 61.2 4.2 61.2 6.7 C61.2 9.6 68.7 52.5 69.3 56.1 C70.9 65.9 71.2 66 78.2 66 C78.33333 66.1 78.5 66.225 78.6 66.3 C78.725 67 78.975 68.4 79.1 69.1 C79 69.175 78.8 69.325 78.7 69.4 C74.3 69.3 70 69.1 65.6 69.1 C61.2 69.1 56.9 69.3 52.5 69.4 C52.36667 69.3 52.2 69.175 52.1 69.1 C51.975 68.4 51.725 67 51.6 66.3 zM49 79.4 C49 76.7 51 74.8 53.6 74.8 C57.4 74.8 60.3 79.3 60.3 82.8 C60.3 85.1 58.2 86.8 56.3 86.8 C52.6 86.8 49 82.4 49 79.4 zM31.2 79.4 C31.2 76.7 33.2 74.8 35.8 74.8 C39.6 74.8 42.5 79.3 42.5 82.8 C42.5 85.1 40.4 86.8 38.5 86.8 C34.8 86.8 31.2 82.4 31.2 79.4 z" />
<glyph unicode="" horiz-adv-x="63" d="M13.5 0 C13.6 -0.075 13.8 -0.225 13.9 -0.3 C18.2 -0.1 22.9 0 26.5 0 C31.1 0 35.8 -0.1 40.7 -0.3 C40.83333 -0.2 41 -0.075 41.1 0 C41.225 0.7 41.475 2.1 41.6 2.8 C41.5 2.875 41.3 3.025 41.2 3.1 C33.6 3.1 32.7 4.4 32.7 6.2 C32.7 13.2 35.7 27.7 40.1 35.7 C49.9 53.5 57 60.6 65.9 61 C66.33333 64.23333 66.875 68.275 67.2 70.7 C53.5 68.8 39.9 48.6 33.8 31.4 C33.73333 31.4 33.65 31.4 33.6 31.4 C26.8 60.6 21.9 70.4 10.7 70.7 C8.2 68 5.1 65.6 2.2 63.3 C2.2 63.16667 2.2 63 2.2 62.9 C2.5 62.25 3.1 60.95 3.4 60.3 C3.5 60.3 3.7 60.3 3.8 60.3 C5.1 61.5 6.7 62.4 8.9 62.4 C12.3 62.4 15.1 59.7 17.9 52.3 C22 41.9 25.6 29.8 25.6 26.4 C25.6 21.6 24.1 9.7 21.7 4.9 C21 3.5 16.5 3.1 14.4 3.1 C14.26667 3 14.1 2.875 14 2.8 C13.875 2.1 13.625 0.7 13.5 0 zM34 72.3 C50.5 81.6 52.4 83.3 52.4 85.5 C52.4 87.7 50.9 89 49 89 C45.7 89 43 86.3 30.8 72.3 C31.86667 72.3 33.2 72.3 34 72.3 z" />
<glyph unicode="" horiz-adv-x="57.4" d="M-1 0 C-0.9 -0.075 -0.7 -0.225 -0.6 -0.3 C3.8 -0.1 8.5 0 12.1 0 C16.7 0 21.4 -0.1 25.8 -0.3 C25.93333 -0.2 26.1 -0.075 26.2 0 C26.325 0.7 26.575 2.1 26.7 2.8 C26.6 2.875 26.4 3.025 26.3 3.1 C19.2 3.1 18.3 4.4 18.3 6.2 C18.3 8.7 22.1 33.5 25.1 49.3 C27.3 49.7 30.4 50.1 32.2 50.1 C39.2 50.1 45.2 47.9 45.2 36.2 C45.2 25.2 39.1 18.1 30.2 18.1 C27.5 18.1 25 18.9 23.5 19.5 C23.3 19.36667 23.05 19.2 22.9 19.1 C22.9 18.4 22.9 17 22.9 16.3 C23.025 16.175 23.275 15.925 23.4 15.8 C24.9 15.2 27.7 14.2 32.5 14.2 C45.3 14.2 55.8 26.4 55.8 38.2 C55.8 49.3 48.9 54.5 36.8 54.5 C33.1 54.5 29.3 54.3 25.9 54.1 C26.9 59.4 27.8 63.2 28.3 64.2 C29 65.6 33.5 66 35.7 66 C35.83333 66.1 36 66.225 36.1 66.3 C36.225 67 36.475 68.4 36.6 69.1 C36.5 69.175 36.3 69.325 36.2 69.4 C31.8 69.2 27.1 69.1 23.5 69.1 C18.9 69.1 14.2 69.2 9.8 69.4 C9.66667 69.3 9.5 69.175 9.4 69.1 C9.275 68.4 9.025 67 8.9 66.3 C9 66.225 9.2 66.075 9.3 66 C16.4 66 17.3 64.7 17.3 62.9 C17.3 59.1 9.3 8.9 7.3 4.9 C6.6 3.5 2.1 3.1 -0.1 3.1 C-0.23333 3 -0.4 2.875 -0.5 2.8 C-0.625 2.1 -0.875 0.7 -1 0 z" />
<glyph unicode="" horiz-adv-x="53.7" d="M6.3 3 C2.9 -18.1 0.2 -21.3 -4.5 -21.3 C-6.8 -21.3 -9.4 -19.6 -10.8 -17.8 C-11.16667 -17.9 -11.625 -18.025 -11.9 -18.1 C-12.4 -21.4 -13.6 -25.7 -14.3 -27.2 C-12.9 -27.8 -11.2 -28.2 -9.6 -28.2 C-2.3 -28.2 6.8 -18 9.7 -11.6 C15.2 0.6 22.1 46.9 23.5 54.6 C25.2 64.1 29.7 67.6 35.3 67.6 C40.9 67.6 44 64 44 59.6 C44 49.2 30.8 38.9 30.8 32.5 C30.8 27.4 40.5 18.5 40.5 12 C40.5 7.5 36.6 3.3 32.2 3.3 C29.3 3.3 26.8 4.9 26.6 5.3 C26.3 5.9 26.3 9.5 26.3 11.4 C26.2 11.5 26.075 11.625 26 11.7 C25.45 11.7 24.35 11.7 23.8 11.7 C23.725 11.625 23.575 11.475 23.5 11.4 C22.8 6.9 22.2 4.6 20.9 0.6 C23.4 -0.5 26.5 -1.4 28.7 -1.4 C33.5 -1.4 37.8 1.3 41.3 4.5 C44.7 7.7 48.3 13.3 48.3 16.6 C48.3 20 46.2 23.3 44.1 26.7 C43.2 28.13333 42.075 29.925 41.4 31 C40.1 33.1 37.8 36.7 37.8 38.4 C37.8 43.1 51.5 53.1 51.5 61.9 C51.5 70.6 46.2 73 40.7 73 C36.4 73 30.7 71 23.8 66 C16.3 60.6 15.1 59.2 13.1 43.8 C10.9 42.4 6.5 40.9 3.8 40 C3.7 39.86667 3.575 39.7 3.5 39.6 C3.425 39.15 3.275 38.25 3.2 37.8 C3.275 37.725 3.425 37.575 3.5 37.5 C5.5 37.8 9.4 37.8 11.9 37.8 C10.03333 26.2 7.7 11.7 6.3 3 z" />
<glyph unicode="" horiz-adv-x="50" d="M11.2 8.2 C11.2 19.3 16.4 37.8 18.8 39.9 C20.2 41.1 22.5 42.1 26 42.1 C29.2 42.1 32.1 41.2 34.6 39.8 C32.7 19.7 15.2 5.9 12.8 5.9 C11.7 5.9 11.2 6.4 11.2 8.2 zM39.8 44.9 C35.9 46.6 32.5 47.3 30.3 47.3 C22.4 47.3 13.5 39.7 12.2 38.2 C8.1 33.5 2.3 19.1 2.3 6.3 C2.3 0.7 3.6 -1.4 6.8 -1.4 C14.1 -1.4 27.2 13.9 31.3 21.5 C31.36667 21.43333 31.45 21.35 31.5 21.3 C28.3 11.5 26.7 4.9 26.7 2.1 C26.7 0 27.8 -1.4 30.3 -1.4 C33.3 -1.4 39.1 1.5 47.2 8.4 C47.2 8.53333 47.2 8.7 47.2 8.8 C46.925 9.225 46.375 10.075 46.1 10.5 C46.025 10.5 45.875 10.5 45.8 10.5 C42.5 7.5 39.4 5.7 37.7 5.7 C36.8 5.7 36.2 6.4 36.2 7.6 C36.2 10.8 43.2 42 45.3 46.5 C44.73333 46.76667 44.025 47.1 43.6 47.3 C42.65 46.7 40.75 45.5 39.8 44.9 zM40.5 53.4 C28 69.1 26.4 70.5 23.5 70.5 C21.3 70.5 19.8 68.4 19.8 66.9 C19.8 64.9 20.7 63.8 37.1 53.4 C38.23333 53.4 39.65 53.4 40.5 53.4 z" />
<glyph unicode="" horiz-adv-x="50" d="M11.2 8.2 C11.2 19.3 16.4 37.8 18.8 39.9 C20.2 41.1 22.5 42.1 26 42.1 C29.2 42.1 32.1 41.2 34.6 39.8 C32.7 19.7 15.2 5.9 12.8 5.9 C11.7 5.9 11.2 6.4 11.2 8.2 zM39.8 44.9 C35.9 46.6 32.5 47.3 30.3 47.3 C22.4 47.3 13.5 39.7 12.2 38.2 C8.1 33.5 2.3 19.1 2.3 6.3 C2.3 0.7 3.6 -1.4 6.8 -1.4 C14.1 -1.4 27.2 13.9 31.3 21.5 C31.36667 21.43333 31.45 21.35 31.5 21.3 C28.3 11.5 26.7 4.9 26.7 2.1 C26.7 0 27.8 -1.4 30.3 -1.4 C33.3 -1.4 39.1 1.5 47.2 8.4 C47.2 8.53333 47.2 8.7 47.2 8.8 C46.925 9.225 46.375 10.075 46.1 10.5 C46.025 10.5 45.875 10.5 45.8 10.5 C42.5 7.5 39.4 5.7 37.7 5.7 C36.8 5.7 36.2 6.4 36.2 7.6 C36.2 10.8 43.2 42 45.3 46.5 C44.73333 46.76667 44.025 47.1 43.6 47.3 C42.65 46.7 40.75 45.5 39.8 44.9 zM27.5 53.5 C44 62.8 45.9 64.5 45.9 66.7 C45.9 68.9 44.4 70.2 42.5 70.2 C39.2 70.2 36.5 67.5 24.3 53.5 C25.36667 53.5 26.7 53.5 27.5 53.5 z" />
<glyph unicode="" horiz-adv-x="50" d="M11.2 8.2 C11.2 19.3 16.4 37.8 18.8 39.9 C20.2 41.1 22.5 42.1 26 42.1 C29.2 42.1 32.1 41.2 34.6 39.8 C32.7 19.7 15.2 5.9 12.8 5.9 C11.7 5.9 11.2 6.4 11.2 8.2 zM39.8 44.9 C35.9 46.6 32.5 47.3 30.3 47.3 C22.4 47.3 13.5 39.7 12.2 38.2 C8.1 33.5 2.3 19.1 2.3 6.3 C2.3 0.7 3.6 -1.4 6.8 -1.4 C14.1 -1.4 27.2 13.9 31.3 21.5 C31.36667 21.43333 31.45 21.35 31.5 21.3 C28.3 11.5 26.7 4.9 26.7 2.1 C26.7 0 27.8 -1.4 30.3 -1.4 C33.3 -1.4 39.1 1.5 47.2 8.4 C47.2 8.53333 47.2 8.7 47.2 8.8 C46.925 9.225 46.375 10.075 46.1 10.5 C46.025 10.5 45.875 10.5 45.8 10.5 C42.5 7.5 39.4 5.7 37.7 5.7 C36.8 5.7 36.2 6.4 36.2 7.6 C36.2 10.8 43.2 42 45.3 46.5 C44.73333 46.76667 44.025 47.1 43.6 47.3 C42.65 46.7 40.75 45.5 39.8 44.9 zM40.6 53.8 C41.65 53.8 43.75 53.8 44.8 53.8 C42.775 57.875 38.725 66.025 36.7 70.1 C35.2 70.1 32.2 70.1 30.7 70.1 C26.925 66.025 19.375 57.875 15.6 53.8 C16.8 53.8 19.2 53.8 20.4 53.8 C23.35 56.1 29.25 60.7 32.2 63 C34.3 60.7 38.5 56.1 40.6 53.8 z" />
<glyph unicode="" horiz-adv-x="50" d="M11.2 8.2 C11.2 19.3 16.4 37.8 18.8 39.9 C20.2 41.1 22.5 42.1 26 42.1 C29.2 42.1 32.1 41.2 34.6 39.8 C32.7 19.7 15.2 5.9 12.8 5.9 C11.7 5.9 11.2 6.4 11.2 8.2 zM39.8 44.9 C35.9 46.6 32.5 47.3 30.3 47.3 C22.4 47.3 13.5 39.7 12.2 38.2 C8.1 33.5 2.3 19.1 2.3 6.3 C2.3 0.7 3.6 -1.4 6.8 -1.4 C14.1 -1.4 27.2 13.9 31.3 21.5 C31.36667 21.43333 31.45 21.35 31.5 21.3 C28.3 11.5 26.7 4.9 26.7 2.1 C26.7 0 27.8 -1.4 30.3 -1.4 C33.3 -1.4 39.1 1.5 47.2 8.4 C47.2 8.53333 47.2 8.7 47.2 8.8 C46.925 9.225 46.375 10.075 46.1 10.5 C46.025 10.5 45.875 10.5 45.8 10.5 C42.5 7.5 39.4 5.7 37.7 5.7 C36.8 5.7 36.2 6.4 36.2 7.6 C36.2 10.8 43.2 42 45.3 46.5 C44.73333 46.76667 44.025 47.1 43.6 47.3 C42.65 46.7 40.75 45.5 39.8 44.9 zM16.4 57.5 C17.8 59.6 20.2 61.4 22.7 61.4 C26.5 61.4 33 56.6 37.4 56.6 C41.9 56.6 46.8 60.3 49.3 66 C48.4 66.4 47.275 66.9 46.6 67.2 C45 64.7 43 63.1 40.1 63.1 C35.3 63.1 29.7 67.8 24.9 67.8 C20.7 67.8 17.1 64.5 13.5 59 C14.46667 58.5 15.675 57.875 16.4 57.5 z" />
<glyph unicode="" horiz-adv-x="50" d="M11.2 8.2 C11.2 19.3 16.4 37.8 18.8 39.9 C20.2 41.1 22.5 42.1 26 42.1 C29.2 42.1 32.1 41.2 34.6 39.8 C32.7 19.7 15.2 5.9 12.8 5.9 C11.7 5.9 11.2 6.4 11.2 8.2 zM39.8 44.9 C35.9 46.6 32.5 47.3 30.3 47.3 C22.4 47.3 13.5 39.7 12.2 38.2 C8.1 33.5 2.3 19.1 2.3 6.3 C2.3 0.7 3.6 -1.4 6.8 -1.4 C14.1 -1.4 27.2 13.9 31.3 21.5 C31.36667 21.43333 31.45 21.35 31.5 21.3 C28.3 11.5 26.7 4.9 26.7 2.1 C26.7 0 27.8 -1.4 30.3 -1.4 C33.3 -1.4 39.1 1.5 47.2 8.4 C47.2 8.53333 47.2 8.7 47.2 8.8 C46.925 9.225 46.375 10.075 46.1 10.5 C46.025 10.5 45.875 10.5 45.8 10.5 C42.5 7.5 39.4 5.7 37.7 5.7 C36.8 5.7 36.2 6.4 36.2 7.6 C36.2 10.8 43.2 42 45.3 46.5 C44.73333 46.76667 44.025 47.1 43.6 47.3 C42.65 46.7 40.75 45.5 39.8 44.9 zM34.2 60.6 C34.2 57.9 36.2 56 38.8 56 C42.6 56 45.5 60.5 45.5 64 C45.5 66.3 43.4 68 41.5 68 C37.8 68 34.2 63.6 34.2 60.6 zM16.4 60.6 C16.4 57.9 18.4 56 21 56 C24.8 56 27.7 60.5 27.7 64 C27.7 66.3 25.6 68 23.7 68 C20 68 16.4 63.6 16.4 60.6 z" />
<glyph unicode="" horiz-adv-x="50" d="M11.2 8.2 C11.2 19.3 16.4 37.8 18.8 39.9 C20.2 41.1 22.5 42.1 26 42.1 C29.2 42.1 32.1 41.2 34.6 39.8 C32.7 19.7 15.2 5.9 12.8 5.9 C11.7 5.9 11.2 6.4 11.2 8.2 zM39.8 44.9 C35.9 46.6 32.5 47.3 30.3 47.3 C22.4 47.3 13.5 39.7 12.2 38.2 C8.1 33.5 2.3 19.1 2.3 6.3 C2.3 0.7 3.6 -1.4 6.8 -1.4 C14.1 -1.4 27.2 13.9 31.3 21.5 C31.36667 21.43333 31.45 21.35 31.5 21.3 C28.3 11.5 26.7 4.9 26.7 2.1 C26.7 0 27.8 -1.4 30.3 -1.4 C33.3 -1.4 39.1 1.5 47.2 8.4 C47.2 8.53333 47.2 8.7 47.2 8.8 C46.925 9.225 46.375 10.075 46.1 10.5 C46.025 10.5 45.875 10.5 45.8 10.5 C42.5 7.5 39.4 5.7 37.7 5.7 C36.8 5.7 36.2 6.4 36.2 7.6 C36.2 10.8 43.2 42 45.3 46.5 C44.73333 46.76667 44.025 47.1 43.6 47.3 C42.65 46.7 40.75 45.5 39.8 44.9 zM20.6 62.5 C20.6 56.8 25.3 52.1 31 52.1 C36.7 52.1 41.4 56.8 41.4 62.5 C41.4 68.2 36.7 72.9 31 72.9 C25.3 72.9 20.6 68.2 20.6 62.5 zM37 62.5 C37 59.2 34.3 56.5 31 56.5 C27.7 56.5 25 59.2 25 62.5 C25 65.8 27.7 68.5 31 68.5 C34.3 68.5 37 65.8 37 62.5 z" />
<glyph unicode="" horiz-adv-x="68.5" d="M62.3 10.8 C62.2 10.825 62 10.875 61.9 10.9 C55.5 6 51.4 4 46.5 4 C41.6 4 37.3 6.6 37.3 13 C37.3 15.8 37.9 18.9 38.6 22.5 C57.8 23 66.9 32.1 66.9 39.1 C66.9 43.5 63.7 47.5 57.5 47.5 C49.2 47.5 42.1 42 38.3 38 C36.8 45.6 30.5 47.8 23.6 47.8 C20.2 47.8 16 47.3 13.8 45.8 C12.03333 44.56667 9.825 43.025 8.5 42.1 C9.1 39.6 9.4 37.5 9.6 34.9 C10.26667 34.7 11.1 34.45 11.6 34.3 C11.7 34.35 11.9 34.45 12 34.5 C12.7 37.5 13.3 40.9 14 41.4 C14.6 41.8 18.7 42.4 20.9 42.4 C28.3 42.4 31.7 38.2 31.7 31.4 C31.7 29.8 31.4 27.4 31.1 25.5 C21.8 25.5 13.6 25 9.1 22.4 C4.4 19.7 1.1 15 1.1 9.6 C1.1 2.4 5.8 -1.5 12.2 -1.5 C17.9 -1.5 23.5 1.4 30.4 7.8 C32.7 1.2 37.2 -1.5 42.2 -1.5 C48.2 -1.5 53.1 1.1 63 8 C63.06667 8.13333 63.15 8.3 63.2 8.4 C62.975 9 62.525 10.2 62.3 10.8 zM16.6 3.6 C12.5 3.6 9.7 6.9 9.7 10.4 C9.7 21.6 20.8 22.4 30.6 22.4 C29.2 8.1 22.4 3.6 16.6 3.6 zM58.2 38.2 C58.2 31.9 51.6 25.9 39.1 25.4 C40.5 33.1 44.4 43.2 53 43.2 C56.6 43.2 58.2 41 58.2 38.2 z" />
<glyph unicode="" horiz-adv-x="40.7" d="M11.7 -9.7 C11.95 -9.95 12.45 -10.45 12.7 -10.7 C13.9 -10.3 15 -10.2 16.5 -10.2 C19 -10.2 21.1 -11 21.1 -13.9 C21.1 -16.5 18.7 -18.1 14.9 -18.1 C11.9 -18.1 9.7 -17.3 8 -16.1 C7.83333 -16.16667 7.625 -16.25 7.5 -16.3 C7.075 -16.95 6.225 -18.25 5.8 -18.9 C5.8 -19.025 5.8 -19.275 5.8 -19.4 C7.9 -20.6 11.4 -21.8 16.6 -21.8 C23.8 -21.8 28.1 -17.6 28.1 -13.1 C28.1 -9.6 25.6 -6.5 19.8 -6.5 C18.9 -6.5 18.1 -6.7 17.4 -6.9 C18.76667 -4.8 20.475 -2.175 21.5 -0.6 C25.6 0.8 30.5 3.8 36.2 8.3 C36.3 8.5 36.425 8.75 36.5 8.9 C36.375 9.45 36.125 10.55 36 11.1 C35.9 11.15 35.7 11.25 35.6 11.3 C26.8 4.9 23.3 4 20.2 4 C12.4 4 11.9 11.9 11.9 15.4 C11.9 19.5 12.7 25.6 15.2 33 C16.9 37.9 19 42.8 26.6 42.8 C30.3 42.8 34.4 41 35.3 40.3 C35.3 39.2 35 35.4 34.9 32.9 C35 32.76667 35.125 32.6 35.2 32.5 C35.825 32.5 37.075 32.5 37.7 32.5 C37.8 32.575 38 32.725 38.1 32.8 C38.6 37.2 39.2 41.2 40.1 44.9 C40 45.1 39.875 45.35 39.8 45.5 C37.7 46.6 34.3 47.7 30.6 47.7 C27.5 47.7 24.8 47.1 18.3 43.2 C13.1 40.1 12.2 39.5 10.5 37.5 C4.8 30.8 2.9 19.3 2.9 13.9 C2.9 5.2 6.8 -1.6 15.8 -1.6 C16.16667 -1.6 16.625 -1.6 16.9 -1.6 C15.6 -3.625 13 -7.675 11.7 -9.7 z" />
<glyph unicode="" horiz-adv-x="42.6" d="M3.2 12.1 C3.2 2.5 9.9 -1.6 15.9 -1.6 C23.8 -1.6 33.5 5.2 36.3 8 C36.36667 8.16667 36.45 8.375 36.5 8.5 C36.35 9.025 36.05 10.075 35.9 10.6 C35.825 10.625 35.675 10.675 35.6 10.7 C31.1 7 25.5 4 20.4 4 C16 4 11.9 6.9 11.9 14.7 C11.9 17.3 12.2 18.6 12.5 20.1 C34.3 24.2 41.3 33.2 41.3 39.8 C41.3 43.8 38.7 47.6 32.1 47.6 C23.3 47.6 12.9 40.8 9.6 35.7 C6.2 30.5 3.2 18.4 3.2 12.1 zM32.6 38.3 C32.6 30.3 22 23.9 12.8 22.8 C16 34.3 18.6 43.5 27.1 43.5 C30.4 43.5 32.6 41.4 32.6 38.3 zM39.2 53.4 C26.7 69.1 25.1 70.5 22.2 70.5 C20 70.5 18.5 68.4 18.5 66.9 C18.5 64.9 19.4 63.8 35.8 53.4 C36.93333 53.4 38.35 53.4 39.2 53.4 z" />
<glyph unicode="" horiz-adv-x="42.6" d="M3.2 12.1 C3.2 2.5 9.9 -1.6 15.9 -1.6 C23.8 -1.6 33.5 5.2 36.3 8 C36.36667 8.16667 36.45 8.375 36.5 8.5 C36.35 9.025 36.05 10.075 35.9 10.6 C35.825 10.625 35.675 10.675 35.6 10.7 C31.1 7 25.5 4 20.4 4 C16 4 11.9 6.9 11.9 14.7 C11.9 17.3 12.2 18.6 12.5 20.1 C34.3 24.2 41.3 33.2 41.3 39.8 C41.3 43.8 38.7 47.6 32.1 47.6 C23.3 47.6 12.9 40.8 9.6 35.7 C6.2 30.5 3.2 18.4 3.2 12.1 zM32.6 38.3 C32.6 30.3 22 23.9 12.8 22.8 C16 34.3 18.6 43.5 27.1 43.5 C30.4 43.5 32.6 41.4 32.6 38.3 zM23.8 53.5 C40.3 62.8 42.2 64.5 42.2 66.7 C42.2 68.9 40.7 70.2 38.8 70.2 C35.5 70.2 32.8 67.5 20.6 53.5 C21.66667 53.5 23 53.5 23.8 53.5 z" />
<glyph unicode="" horiz-adv-x="42.6" d="M3.2 12.1 C3.2 2.5 9.9 -1.6 15.9 -1.6 C23.8 -1.6 33.5 5.2 36.3 8 C36.36667 8.16667 36.45 8.375 36.5 8.5 C36.35 9.025 36.05 10.075 35.9 10.6 C35.825 10.625 35.675 10.675 35.6 10.7 C31.1 7 25.5 4 20.4 4 C16 4 11.9 6.9 11.9 14.7 C11.9 17.3 12.2 18.6 12.5 20.1 C34.3 24.2 41.3 33.2 41.3 39.8 C41.3 43.8 38.7 47.6 32.1 47.6 C23.3 47.6 12.9 40.8 9.6 35.7 C6.2 30.5 3.2 18.4 3.2 12.1 zM32.6 38.3 C32.6 30.3 22 23.9 12.8 22.8 C16 34.3 18.6 43.5 27.1 43.5 C30.4 43.5 32.6 41.4 32.6 38.3 zM38.7 53.8 C39.75 53.8 41.85 53.8 42.9 53.8 C40.875 57.875 36.825 66.025 34.8 70.1 C33.3 70.1 30.3 70.1 28.8 70.1 C25.025 66.025 17.475 57.875 13.7 53.8 C14.9 53.8 17.3 53.8 18.5 53.8 C21.45 56.1 27.35 60.7 30.3 63 C32.4 60.7 36.6 56.1 38.7 53.8 z" />
<glyph unicode="" horiz-adv-x="42.6" d="M3.2 12.1 C3.2 2.5 9.9 -1.6 15.9 -1.6 C23.8 -1.6 33.5 5.2 36.3 8 C36.36667 8.16667 36.45 8.375 36.5 8.5 C36.35 9.025 36.05 10.075 35.9 10.6 C35.825 10.625 35.675 10.675 35.6 10.7 C31.1 7 25.5 4 20.4 4 C16 4 11.9 6.9 11.9 14.7 C11.9 17.3 12.2 18.6 12.5 20.1 C34.3 24.2 41.3 33.2 41.3 39.8 C41.3 43.8 38.7 47.6 32.1 47.6 C23.3 47.6 12.9 40.8 9.6 35.7 C6.2 30.5 3.2 18.4 3.2 12.1 zM32.6 38.3 C32.6 30.3 22 23.9 12.8 22.8 C16 34.3 18.6 43.5 27.1 43.5 C30.4 43.5 32.6 41.4 32.6 38.3 zM32.3 60.6 C32.3 57.9 34.3 56 36.9 56 C40.7 56 43.6 60.5 43.6 64 C43.6 66.3 41.5 68 39.6 68 C35.9 68 32.3 63.6 32.3 60.6 zM14.5 60.6 C14.5 57.9 16.5 56 19.1 56 C22.9 56 25.8 60.5 25.8 64 C25.8 66.3 23.7 68 21.8 68 C18.1 68 14.5 63.6 14.5 60.6 z" />
<glyph unicode="" horiz-adv-x="29.6" d="M2.6 35.2 C2.7 35.2 2.9 35.2 3 35.2 C7.4 38.5 9.7 39.7 10.9 39.7 C12.2 39.7 12.4 38.8 12.4 37.3 C12.4 30.8 5.2 7.9 5.2 3.5 C5.2 0.8 6.6 -1.1 9.5 -1.1 C13 -1.1 18.1 2.2 26.2 8.3 C26.2 8.46667 26.2 8.675 26.2 8.8 C25.925 9.25 25.375 10.15 25.1 10.6 C25 10.6 24.8 10.6 24.7 10.6 C20.8 7.3 18.3 6.1 16.9 6.1 C15.7 6.1 15.2 7 15.2 8.6 C15.2 14.4 22.7 38.9 22.7 43.4 C22.7 45.9 20.8 47.1 18.9 47.1 C15 47.1 7 41.9 1.8 37.5 C1.76667 37.33333 1.725 37.125 1.7 37 C1.925 36.55 2.375 35.65 2.6 35.2 zM29.1 53.4 C16.6 69.1 15 70.5 12.1 70.5 C9.9 70.5 8.4 68.4 8.4 66.9 C8.4 64.9 9.3 63.8 25.7 53.4 C26.83333 53.4 28.25 53.4 29.1 53.4 z" />
<glyph unicode="" horiz-adv-x="29.6" d="M2.6 35.2 C2.7 35.2 2.9 35.2 3 35.2 C7.4 38.5 9.7 39.7 10.9 39.7 C12.2 39.7 12.4 38.8 12.4 37.3 C12.4 30.8 5.2 7.9 5.2 3.5 C5.2 0.8 6.6 -1.1 9.5 -1.1 C13 -1.1 18.1 2.2 26.2 8.3 C26.2 8.46667 26.2 8.675 26.2 8.8 C25.925 9.25 25.375 10.15 25.1 10.6 C25 10.6 24.8 10.6 24.7 10.6 C20.8 7.3 18.3 6.1 16.9 6.1 C15.7 6.1 15.2 7 15.2 8.6 C15.2 14.4 22.7 38.9 22.7 43.4 C22.7 45.9 20.8 47.1 18.9 47.1 C15 47.1 7 41.9 1.8 37.5 C1.76667 37.33333 1.725 37.125 1.7 37 C1.925 36.55 2.375 35.65 2.6 35.2 zM16.1 53.5 C32.6 62.8 34.5 64.5 34.5 66.7 C34.5 68.9 33 70.2 31.1 70.2 C27.8 70.2 25.1 67.5 12.9 53.5 C13.96667 53.5 15.3 53.5 16.1 53.5 z" />
<glyph unicode="" horiz-adv-x="29.6" d="M2.6 35.2 C2.7 35.2 2.9 35.2 3 35.2 C7.4 38.5 9.7 39.7 10.9 39.7 C12.2 39.7 12.4 38.8 12.4 37.3 C12.4 30.8 5.2 7.9 5.2 3.5 C5.2 0.8 6.6 -1.1 9.5 -1.1 C13 -1.1 18.1 2.2 26.2 8.3 C26.2 8.46667 26.2 8.675 26.2 8.8 C25.925 9.25 25.375 10.15 25.1 10.6 C25 10.6 24.8 10.6 24.7 10.6 C20.8 7.3 18.3 6.1 16.9 6.1 C15.7 6.1 15.2 7 15.2 8.6 C15.2 14.4 22.7 38.9 22.7 43.4 C22.7 45.9 20.8 47.1 18.9 47.1 C15 47.1 7 41.9 1.8 37.5 C1.76667 37.33333 1.725 37.125 1.7 37 C1.925 36.55 2.375 35.65 2.6 35.2 zM29.2 53.8 C30.25 53.8 32.35 53.8 33.4 53.8 C31.375 57.875 27.325 66.025 25.3 70.1 C23.8 70.1 20.8 70.1 19.3 70.1 C15.525 66.025 7.975 57.875 4.2 53.8 C5.4 53.8 7.8 53.8 9 53.8 C11.95 56.1 17.85 60.7 20.8 63 C22.9 60.7 27.1 56.1 29.2 53.8 z" />
<glyph unicode="" horiz-adv-x="29.6" d="M2.6 35.2 C2.7 35.2 2.9 35.2 3 35.2 C7.4 38.5 9.7 39.7 10.9 39.7 C12.2 39.7 12.4 38.8 12.4 37.3 C12.4 30.8 5.2 7.9 5.2 3.5 C5.2 0.8 6.6 -1.1 9.5 -1.1 C13 -1.1 18.1 2.2 26.2 8.3 C26.2 8.46667 26.2 8.675 26.2 8.8 C25.925 9.25 25.375 10.15 25.1 10.6 C25 10.6 24.8 10.6 24.7 10.6 C20.8 7.3 18.3 6.1 16.9 6.1 C15.7 6.1 15.2 7 15.2 8.6 C15.2 14.4 22.7 38.9 22.7 43.4 C22.7 45.9 20.8 47.1 18.9 47.1 C15 47.1 7 41.9 1.8 37.5 C1.76667 37.33333 1.725 37.125 1.7 37 C1.925 36.55 2.375 35.65 2.6 35.2 zM24 60.6 C24 57.9 26 56 28.6 56 C32.4 56 35.3 60.5 35.3 64 C35.3 66.3 33.2 68 31.3 68 C27.6 68 24 63.6 24 60.6 zM6.2 60.6 C6.2 57.9 8.2 56 10.8 56 C14.6 56 17.5 60.5 17.5 64 C17.5 66.3 15.4 68 13.5 68 C9.8 68 6.2 63.6 6.2 60.6 z" />
<glyph unicode="" horiz-adv-x="48.1" d="M11.1 13.9 C11.1 25.3 14.7 43.7 26.8 43.7 C32.3 43.7 35.2 39.4 35.2 32.3 C35.2 26 33.3 2.6 20.5 2.6 C13.7 2.6 11.1 7 11.1 13.9 zM11.2 55.1 C11.15 54.975 11.05 54.725 11 54.6 C11.325 53.875 11.975 52.425 12.3 51.7 C12.45 51.675 12.75 51.625 12.9 51.6 C16.8 53.375 24.6 56.925 28.5 58.7 C32 54.7 34 50 34.5 44.8 C34.43333 44.73333 34.35 44.65 34.3 44.6 C32.5 46.8 30 47.6 26.8 47.6 C17.4 47.6 1.9 35.6 1.9 14.4 C1.9 5.6 7.4 -1.4 16.4 -1.4 C33.2 -1.4 44.4 13.2 44.4 33.3 C44.4 45.4 40 54.3 34.1 61.1 C34.1 61.13333 34.1 61.175 34.1 61.2 C37.325 62.65 43.775 65.55 47 67 C47.05 67.125 47.15 67.375 47.2 67.5 C46.9 68.2 46.3 69.6 46 70.3 C45.85 70.35 45.55 70.45 45.4 70.5 C41.9 68.925 34.9 65.775 31.4 64.2 C27.2 68.7 22.7 71.6 19.5 73 C18.16667 71.93333 16.5 70.6 15.5 69.8 C15.5 69.7 15.5 69.5 15.5 69.4 C18.5 68.2 22.6 65.5 25.9 61.7 C21 59.5 14.875 56.75 11.2 55.1 z" />
<glyph unicode="" horiz-adv-x="55.6" d="M2.7 35.5 C2.8 35.475 3 35.425 3.1 35.4 C6.1 37.8 9.1 39.4 10.5 39.4 C11.5 39.4 12.1 38.8 12.1 37.5 C12.1 32.5 6.9 8.9 3.7 -0.4 C3.96667 -0.66667 4.3 -1 4.5 -1.2 C7.3 -0.3 10.2 0.2 13.4 0.5 C14.5 8.3 16.5 16.7 19 21.9 C22.9 30 32.3 39.4 36.7 39.4 C38.1 39.4 39.2 38.6 39.2 37.1 C39.2 30.5 31.7 9.8 31.7 3.5 C31.7 0.3 33.7 -1.2 35.9 -1.2 C39.8 -1.2 47.3 4.3 52.7 8.6 C52.7 8.73333 52.7 8.9 52.7 9 C52.35 9.4 51.65 10.2 51.3 10.6 C51.2 10.6 51 10.6 50.9 10.6 C47.6 7.8 44.2 6 43.1 6 C42.2 6 41.5 6.7 41.5 8 C41.5 10 43.7 17.9 45.6 25.9 C47.4 33.4 49.4 40.7 49.4 42.5 C49.4 45 48 47.2 44.6 47.2 C37.9 47.2 24.8 37.6 18.3 26 C18.23333 26.06667 18.15 26.15 18.1 26.2 C21.2 38.3 22.1 41.1 22.1 43.7 C22.1 45.7 21.1 47.2 18.4 47.2 C14.1 47.2 4.5 39.4 2 37.8 C1.96667 37.6 1.925 37.35 1.9 37.2 C2.1 36.775 2.5 35.925 2.7 35.5 zM19.2 57.5 C20.6 59.6 23 61.4 25.5 61.4 C29.3 61.4 35.8 56.6 40.2 56.6 C44.7 56.6 49.6 60.3 52.1 66 C51.2 66.4 50.075 66.9 49.4 67.2 C47.8 64.7 45.8 63.1 42.9 63.1 C38.1 63.1 32.5 67.8 27.7 67.8 C23.5 67.8 19.9 64.5 16.3 59 C17.26667 58.5 18.475 57.875 19.2 57.5 z" />
<glyph unicode="" horiz-adv-x="48.1" d="M1.9 14.4 C1.9 5.6 7.4 -1.4 16.4 -1.4 C32.9 -1.4 44.4 13.8 44.4 32.6 C44.4 42.3 38.1 47.6 29.5 47.6 C17.3 47.6 1.9 36.4 1.9 14.4 zM35.2 32.3 C35.2 26 33.3 2.6 20.5 2.6 C13.7 2.6 11.1 7 11.1 13.9 C11.1 25.3 14.7 43.7 26.8 43.7 C32.3 43.7 35.2 39.4 35.2 32.3 zM39.6 53.4 C27.1 69.1 25.5 70.5 22.6 70.5 C20.4 70.5 18.9 68.4 18.9 66.9 C18.9 64.9 19.8 63.8 36.2 53.4 C37.33333 53.4 38.75 53.4 39.6 53.4 z" />
<glyph unicode="" horiz-adv-x="48.1" d="M1.9 14.4 C1.9 5.6 7.4 -1.4 16.4 -1.4 C32.9 -1.4 44.4 13.8 44.4 32.6 C44.4 42.3 38.1 47.6 29.5 47.6 C17.3 47.6 1.9 36.4 1.9 14.4 zM35.2 32.3 C35.2 26 33.3 2.6 20.5 2.6 C13.7 2.6 11.1 7 11.1 13.9 C11.1 25.3 14.7 43.7 26.8 43.7 C32.3 43.7 35.2 39.4 35.2 32.3 zM24.2 53.5 C40.7 62.8 42.6 64.5 42.6 66.7 C42.6 68.9 41.1 70.2 39.2 70.2 C35.9 70.2 33.2 67.5 21 53.5 C22.06667 53.5 23.4 53.5 24.2 53.5 z" />
<glyph unicode="" horiz-adv-x="48.1" d="M1.9 14.4 C1.9 5.6 7.4 -1.4 16.4 -1.4 C32.9 -1.4 44.4 13.8 44.4 32.6 C44.4 42.3 38.1 47.6 29.5 47.6 C17.3 47.6 1.9 36.4 1.9 14.4 zM35.2 32.3 C35.2 26 33.3 2.6 20.5 2.6 C13.7 2.6 11.1 7 11.1 13.9 C11.1 25.3 14.7 43.7 26.8 43.7 C32.3 43.7 35.2 39.4 35.2 32.3 zM39.7 53.8 C40.75 53.8 42.85 53.8 43.9 53.8 C41.875 57.875 37.825 66.025 35.8 70.1 C34.3 70.1 31.3 70.1 29.8 70.1 C26.025 66.025 18.475 57.875 14.7 53.8 C15.9 53.8 18.3 53.8 19.5 53.8 C22.45 56.1 28.35 60.7 31.3 63 C33.4 60.7 37.6 56.1 39.7 53.8 z" />
<glyph unicode="" horiz-adv-x="48.1" d="M1.9 14.4 C1.9 5.6 7.4 -1.4 16.4 -1.4 C32.9 -1.4 44.4 13.8 44.4 32.6 C44.4 42.3 38.1 47.6 29.5 47.6 C17.3 47.6 1.9 36.4 1.9 14.4 zM35.2 32.3 C35.2 26 33.3 2.6 20.5 2.6 C13.7 2.6 11.1 7 11.1 13.9 C11.1 25.3 14.7 43.7 26.8 43.7 C32.3 43.7 35.2 39.4 35.2 32.3 zM14.9 57.5 C16.3 59.6 18.7 61.4 21.2 61.4 C25 61.4 31.5 56.6 35.9 56.6 C40.4 56.6 45.3 60.3 47.8 66 C46.9 66.4 45.775 66.9 45.1 67.2 C43.5 64.7 41.5 63.1 38.6 63.1 C33.8 63.1 28.2 67.8 23.4 67.8 C19.2 67.8 15.6 64.5 12 59 C12.96667 58.5 14.175 57.875 14.9 57.5 z" />
<glyph unicode="" horiz-adv-x="48.1" d="M1.9 14.4 C1.9 5.6 7.4 -1.4 16.4 -1.4 C32.9 -1.4 44.4 13.8 44.4 32.6 C44.4 42.3 38.1 47.6 29.5 47.6 C17.3 47.6 1.9 36.4 1.9 14.4 zM35.2 32.3 C35.2 26 33.3 2.6 20.5 2.6 C13.7 2.6 11.1 7 11.1 13.9 C11.1 25.3 14.7 43.7 26.8 43.7 C32.3 43.7 35.2 39.4 35.2 32.3 zM33.3 60.6 C33.3 57.9 35.3 56 37.9 56 C41.7 56 44.6 60.5 44.6 64 C44.6 66.3 42.5 68 40.6 68 C36.9 68 33.3 63.6 33.3 60.6 zM15.5 60.6 C15.5 57.9 17.5 56 20.1 56 C23.9 56 26.8 60.5 26.8 64 C26.8 66.3 24.7 68 22.8 68 C19.1 68 15.5 63.6 15.5 60.6 z" />
<glyph unicode="" horiz-adv-x="60" d="M4.7 21.4 C17.35 21.4 42.65 21.4 55.3 21.4 C55.3 23.35 55.3 27.25 55.3 29.2 C42.65 29.2 17.35 29.2 4.7 29.2 C4.7 27.25 4.7 23.35 4.7 21.4 zM23.1 44.9 C23.1 41.1 26.2 38 30 38 C33.8 38 36.9 41.1 36.9 44.9 C36.9 48.7 33.8 51.8 30 51.8 C26.2 51.8 23.1 48.7 23.1 44.9 zM23.1 5.7 C23.1 1.9 26.2 -1.2 30 -1.2 C33.8 -1.2 36.9 1.9 36.9 5.7 C36.9 9.5 33.8 12.6 30 12.6 C26.2 12.6 23.1 9.5 23.1 5.7 z" />
<glyph unicode="" horiz-adv-x="48.1" d="M35.1 33.3 C35.2 33 35.2 32.7 35.2 32.3 C35.2 26 33.3 2.6 20.5 2.6 C16.5 2.6 14 4.1 12.5 6.8 C20.03333 15.63333 29.45 26.675 35.1 33.3 zM11.3 11.4 C11.2 12.1 11.1 13 11.1 13.9 C11.1 25.3 14.7 43.7 26.8 43.7 C30.5 43.7 33 41.7 34.3 38.3 C26.63333 29.33333 17.05 18.125 11.3 11.4 zM39.4 44.4 C36.8 46.5 33.4 47.6 29.5 47.6 C17.3 47.6 1.9 36.4 1.9 14.4 C1.9 10.4 3 6.9 5 4.1 C3.7 2.53333 2.075 0.575 1.1 -0.6 C1.1 -0.725 1.1 -0.975 1.1 -1.1 C1.675 -1.675 2.825 -2.825 3.4 -3.4 C3.525 -3.4 3.775 -3.4 3.9 -3.4 C4.9 -2.225 6.9 0.125 7.9 1.3 C10.1 -0.4 13 -1.4 16.4 -1.4 C32.9 -1.4 44.4 13.8 44.4 32.6 C44.4 36.1 43.6 39.1 42.1 41.4 C43.43333 43 45.1 45 46.1 46.2 C46.1 46.325 46.1 46.575 46.1 46.7 C45.525 47.275 44.375 48.425 43.8 49 C43.675 49 43.425 49 43.3 49 C42.325 47.85 40.375 45.55 39.4 44.4 z" />
<glyph unicode="" horiz-adv-x="53.7" d="M2.1 35.3 C2.2 35.275 2.4 35.225 2.5 35.2 C6.8 38.4 8.9 39.5 10.1 39.5 C11.2 39.5 11.7 39 11.7 37.4 C11.7 30.3 5.2 9.9 5.2 3.7 C5.2 0.2 6.7 -1.2 9.4 -1.2 C17.1 -1.2 28.9 11.7 33.9 20.3 C33.96667 20.23333 34.05 20.15 34.1 20.1 C31.1 8.9 30.4 4.7 30.4 2.7 C30.4 0 31.7 -1.2 33.8 -1.2 C37.6 -1.2 44.9 3.3 51 8.5 C51 8.63333 51 8.8 51 8.9 C50.65 9.325 49.95 10.175 49.6 10.6 C49.5 10.6 49.3 10.6 49.2 10.6 C45 7.2 43.1 6.2 41.5 6.2 C40.5 6.2 39.9 6.9 39.9 8.6 C39.9 12 46.3 40.3 48.6 46.6 C48.33333 46.83333 48 47.125 47.8 47.3 C46.4 46.4 41.3 45.6 39.4 45.6 C38.2 39.6 36.9 34.1 34.3 26.2 C32.2 19.9 20.5 6.5 16.5 6.5 C15.3 6.5 14.8 7 14.8 9 C14.8 15.4 22.2 38.3 22.2 43.5 C22.2 45.7 20.7 47.3 18.8 47.3 C16.1 47.3 11.5 45.2 1.2 37.5 C1.16667 37.36667 1.125 37.2 1.1 37.1 C1.35 36.65 1.85 35.75 2.1 35.3 zM40.4 53.4 C27.9 69.1 26.3 70.5 23.4 70.5 C21.2 70.5 19.7 68.4 19.7 66.9 C19.7 64.9 20.6 63.8 37 53.4 C38.13333 53.4 39.55 53.4 40.4 53.4 z" />
<glyph unicode="" horiz-adv-x="53.7" d="M2.1 35.3 C2.2 35.275 2.4 35.225 2.5 35.2 C6.8 38.4 8.9 39.5 10.1 39.5 C11.2 39.5 11.7 39 11.7 37.4 C11.7 30.3 5.2 9.9 5.2 3.7 C5.2 0.2 6.7 -1.2 9.4 -1.2 C17.1 -1.2 28.9 11.7 33.9 20.3 C33.96667 20.23333 34.05 20.15 34.1 20.1 C31.1 8.9 30.4 4.7 30.4 2.7 C30.4 0 31.7 -1.2 33.8 -1.2 C37.6 -1.2 44.9 3.3 51 8.5 C51 8.63333 51 8.8 51 8.9 C50.65 9.325 49.95 10.175 49.6 10.6 C49.5 10.6 49.3 10.6 49.2 10.6 C45 7.2 43.1 6.2 41.5 6.2 C40.5 6.2 39.9 6.9 39.9 8.6 C39.9 12 46.3 40.3 48.6 46.6 C48.33333 46.83333 48 47.125 47.8 47.3 C46.4 46.4 41.3 45.6 39.4 45.6 C38.2 39.6 36.9 34.1 34.3 26.2 C32.2 19.9 20.5 6.5 16.5 6.5 C15.3 6.5 14.8 7 14.8 9 C14.8 15.4 22.2 38.3 22.2 43.5 C22.2 45.7 20.7 47.3 18.8 47.3 C16.1 47.3 11.5 45.2 1.2 37.5 C1.16667 37.36667 1.125 37.2 1.1 37.1 C1.35 36.65 1.85 35.75 2.1 35.3 zM29.4 53.5 C45.9 62.8 47.8 64.5 47.8 66.7 C47.8 68.9 46.3 70.2 44.4 70.2 C41.1 70.2 38.4 67.5 26.2 53.5 C27.26667 53.5 28.6 53.5 29.4 53.5 z" />
<glyph unicode="" horiz-adv-x="53.7" d="M2.1 35.3 C2.2 35.275 2.4 35.225 2.5 35.2 C6.8 38.4 8.9 39.5 10.1 39.5 C11.2 39.5 11.7 39 11.7 37.4 C11.7 30.3 5.2 9.9 5.2 3.7 C5.2 0.2 6.7 -1.2 9.4 -1.2 C17.1 -1.2 28.9 11.7 33.9 20.3 C33.96667 20.23333 34.05 20.15 34.1 20.1 C31.1 8.9 30.4 4.7 30.4 2.7 C30.4 0 31.7 -1.2 33.8 -1.2 C37.6 -1.2 44.9 3.3 51 8.5 C51 8.63333 51 8.8 51 8.9 C50.65 9.325 49.95 10.175 49.6 10.6 C49.5 10.6 49.3 10.6 49.2 10.6 C45 7.2 43.1 6.2 41.5 6.2 C40.5 6.2 39.9 6.9 39.9 8.6 C39.9 12 46.3 40.3 48.6 46.6 C48.33333 46.83333 48 47.125 47.8 47.3 C46.4 46.4 41.3 45.6 39.4 45.6 C38.2 39.6 36.9 34.1 34.3 26.2 C32.2 19.9 20.5 6.5 16.5 6.5 C15.3 6.5 14.8 7 14.8 9 C14.8 15.4 22.2 38.3 22.2 43.5 C22.2 45.7 20.7 47.3 18.8 47.3 C16.1 47.3 11.5 45.2 1.2 37.5 C1.16667 37.36667 1.125 37.2 1.1 37.1 C1.35 36.65 1.85 35.75 2.1 35.3 zM41.7 53.8 C42.75 53.8 44.85 53.8 45.9 53.8 C43.875 57.875 39.825 66.025 37.8 70.1 C36.3 70.1 33.3 70.1 31.8 70.1 C28.025 66.025 20.475 57.875 16.7 53.8 C17.9 53.8 20.3 53.8 21.5 53.8 C24.45 56.1 30.35 60.7 33.3 63 C35.4 60.7 39.6 56.1 41.7 53.8 z" />
<glyph unicode="" horiz-adv-x="53.7" d="M2.1 35.3 C2.2 35.275 2.4 35.225 2.5 35.2 C6.8 38.4 8.9 39.5 10.1 39.5 C11.2 39.5 11.7 39 11.7 37.4 C11.7 30.3 5.2 9.9 5.2 3.7 C5.2 0.2 6.7 -1.2 9.4 -1.2 C17.1 -1.2 28.9 11.7 33.9 20.3 C33.96667 20.23333 34.05 20.15 34.1 20.1 C31.1 8.9 30.4 4.7 30.4 2.7 C30.4 0 31.7 -1.2 33.8 -1.2 C37.6 -1.2 44.9 3.3 51 8.5 C51 8.63333 51 8.8 51 8.9 C50.65 9.325 49.95 10.175 49.6 10.6 C49.5 10.6 49.3 10.6 49.2 10.6 C45 7.2 43.1 6.2 41.5 6.2 C40.5 6.2 39.9 6.9 39.9 8.6 C39.9 12 46.3 40.3 48.6 46.6 C48.33333 46.83333 48 47.125 47.8 47.3 C46.4 46.4 41.3 45.6 39.4 45.6 C38.2 39.6 36.9 34.1 34.3 26.2 C32.2 19.9 20.5 6.5 16.5 6.5 C15.3 6.5 14.8 7 14.8 9 C14.8 15.4 22.2 38.3 22.2 43.5 C22.2 45.7 20.7 47.3 18.8 47.3 C16.1 47.3 11.5 45.2 1.2 37.5 C1.16667 37.36667 1.125 37.2 1.1 37.1 C1.35 36.65 1.85 35.75 2.1 35.3 zM36.5 60.6 C36.5 57.9 38.5 56 41.1 56 C44.9 56 47.8 60.5 47.8 64 C47.8 66.3 45.7 68 43.8 68 C40.1 68 36.5 63.6 36.5 60.6 zM18.7 60.6 C18.7 57.9 20.7 56 23.3 56 C27.1 56 30 60.5 30 64 C30 66.3 27.9 68 26 68 C22.3 68 18.7 63.6 18.7 60.6 z" />
<glyph unicode="" horiz-adv-x="51.9" d="M1.1 35.7 C1.2 35.7 1.4 35.7 1.5 35.7 C4.1 37.9 7 40 8.3 40 C10.2 40 10.7 38.6 10.7 34.8 C10.7 24.9 8.7 15.2 8.7 5.3 C8.7 0.7 10.5 -1.1 13.5 -1.1 C17.9 -1.1 23 2.8 31.7 15.1 C31.76667 15.03333 31.85 14.95 31.9 14.9 C30.175 9.325 26.725 -1.825 25 -7.4 C22.2 -16.4 17.7 -23.2 12.1 -23.2 C7.9 -23.2 6.2 -19.3 6.2 -16.8 C6.2 -16.4 6.2 -16.1 6.3 -15.6 C5.86667 -15.4 5.325 -15.15 5 -15 C3.5 -16.7 1.5 -17.9 -0.5 -18.8 C-0.4 -24.2 4.1 -27.9 8.7 -27.9 C16.1 -27.9 25.5 -19 29 -14.4 C36.5 -4.5 43.4 29.6 50.1 46.7 C49.8 46.96667 49.425 47.3 49.2 47.5 C46 46.5 45 46.3 39.9 45.4 C39.6 43.7 37.1 29.6 32.7 21.6 C28.9 14.7 22.7 7.5 19.7 7.5 C18.5 7.5 17.6 8.6 17.6 11 C17.6 21.2 20 34.8 20 41.6 C20 46.1 18 47.5 15.7 47.5 C12.4 47.5 5.6 42.8 -0.2 37.8 C-0.2 37.66667 -0.2 37.5 -0.2 37.4 C0.125 36.975 0.775 36.125 1.1 35.7 zM28.5 53.5 C45 62.8 46.9 64.5 46.9 66.7 C46.9 68.9 45.4 70.2 43.5 70.2 C40.2 70.2 37.5 67.5 25.3 53.5 C26.36667 53.5 27.7 53.5 28.5 53.5 z" />
<glyph unicode="" horiz-adv-x="53.7" d="M40.3 35.9 C40.3 31.8 39.3 24.2 36 15.3 C32.4 5.7 27.9 3.2 22.4 3.2 C19.4 3.2 17.1 4.5 15.2 6.1 C16.3 14 18.1 22.3 20.8 26.9 C25.5 34.9 33.3 41.5 37.2 41.5 C39.3 41.5 40.3 39.7 40.3 35.9 zM8.8 66.2 C8.9 66.1 9.1 65.9 9.2 65.8 C17 65.8 17.5 65.6 17.5 62.4 C17.5 59.6 7.1 4.2 -0.5 -27.2 C-0.13333 -27.53333 0.325 -27.95 0.6 -28.2 C3.8 -27 5 -26.6 9.7 -26.4 C10.5 -18.5 12.5 -7.2 14.1 -0.3 C15.2 -0.8 17 -1.5 19.4 -1.5 C24.5 -1.5 38.2 4.9 42.8 13 C47.8 22 49.7 30.9 49.7 36.9 C49.7 44.3 46.9 47.6 43.1 47.6 C38.5 47.6 27.2 42 19.3 29.3 C19.23333 29.36667 19.15 29.45 19.1 29.5 C23 47.4 27.9 69.1 28.9 71.9 C28.5 72.16667 28 72.5 27.7 72.7 C21.8 70.7 14.5 68.6 9.7 68.6 C9.53333 68.5 9.325 68.375 9.2 68.3 C9.1 67.775 8.9 66.725 8.8 66.2 z" />
<glyph unicode="" horiz-adv-x="51.9" d="M1.1 35.7 C1.2 35.7 1.4 35.7 1.5 35.7 C4.1 37.9 7 40 8.3 40 C10.2 40 10.7 38.6 10.7 34.8 C10.7 24.9 8.7 15.2 8.7 5.3 C8.7 0.7 10.5 -1.1 13.5 -1.1 C17.9 -1.1 23 2.8 31.7 15.1 C31.76667 15.03333 31.85 14.95 31.9 14.9 C30.175 9.325 26.725 -1.825 25 -7.4 C22.2 -16.4 17.7 -23.2 12.1 -23.2 C7.9 -23.2 6.2 -19.3 6.2 -16.8 C6.2 -16.4 6.2 -16.1 6.3 -15.6 C5.86667 -15.4 5.325 -15.15 5 -15 C3.5 -16.7 1.5 -17.9 -0.5 -18.8 C-0.4 -24.2 4.1 -27.9 8.7 -27.9 C16.1 -27.9 25.5 -19 29 -14.4 C36.5 -4.5 43.4 29.6 50.1 46.7 C49.8 46.96667 49.425 47.3 49.2 47.5 C46 46.5 45 46.3 39.9 45.4 C39.6 43.7 37.1 29.6 32.7 21.6 C28.9 14.7 22.7 7.5 19.7 7.5 C18.5 7.5 17.6 8.6 17.6 11 C17.6 21.2 20 34.8 20 41.6 C20 46.1 18 47.5 15.7 47.5 C12.4 47.5 5.6 42.8 -0.2 37.8 C-0.2 37.66667 -0.2 37.5 -0.2 37.4 C0.125 36.975 0.775 36.125 1.1 35.7 zM35.2 60.6 C35.2 57.9 37.2 56 39.8 56 C43.6 56 46.5 60.5 46.5 64 C46.5 66.3 44.4 68 42.5 68 C38.8 68 35.2 63.6 35.2 60.6 zM17.4 60.6 C17.4 57.9 19.4 56 22 56 C25.8 56 28.7 60.5 28.7 64 C28.7 66.3 26.6 68 24.7 68 C21 68 17.4 63.6 17.4 60.6 z" />
<glyph unicode="" horiz-adv-x="29.6" d="M2.6 35.2 C2.7 35.2 2.9 35.2 3 35.2 C7.4 38.5 9.7 39.7 10.9 39.7 C12.2 39.7 12.4 38.8 12.4 37.3 C12.4 30.8 5.2 7.9 5.2 3.5 C5.2 0.8 6.6 -1.1 9.5 -1.1 C13 -1.1 18.1 2.2 26.2 8.3 C26.2 8.46667 26.2 8.675 26.2 8.8 C25.925 9.25 25.375 10.15 25.1 10.6 C25 10.6 24.8 10.6 24.7 10.6 C20.8 7.3 18.3 6.1 16.9 6.1 C15.7 6.1 15.2 7 15.2 8.6 C15.2 14.4 22.7 38.9 22.7 43.4 C22.7 45.9 20.8 47.1 18.9 47.1 C15 47.1 7 41.9 1.8 37.5 C1.76667 37.33333 1.725 37.125 1.7 37 C1.925 36.55 2.375 35.65 2.6 35.2 z" />
<glyph unicode="" horiz-adv-x="55.6" d="M-0.4 23.4 C-0.4 23.275 -0.4 23.025 -0.4 22.9 C0.025 22.15 0.875 20.65 1.3 19.9 C1.425 19.9 1.675 19.9 1.8 19.9 C4.2 21.525 9 24.775 11.4 26.4 C8.7 9.9 7.9 6.1 7.5 5.3 C7.2 4.3 6 3.9 4.4 3.3 C3.46667 2.96667 2.3 2.55 1.6 2.3 C1.5 1.725 1.3 0.575 1.2 0 C1.275 -0.075 1.425 -0.225 1.5 -0.3 C3.5 -0.1 7 0 13 0 C17.9 0 24.8 -0.1 31.4 -0.1 C38.1 -0.2 44.4 -0.3 48 -0.3 C48.16667 -0.13333 48.375 0.075 48.5 0.2 C49.4 6.3 50.5 11.7 52 16.8 C51.93333 16.9 51.85 17.025 51.8 17.1 C51.075 17.1 49.625 17.1 48.9 17.1 C48.8 17.025 48.6 16.875 48.5 16.8 C47.6 14 45.9 8.5 44.7 6.6 C43.8 5.2 42.3 4.6 17.9 4.6 C18.4 9.7 20.1 21.4 22.1 33.1 C29.13333 37.6 37.925 43.225 43.2 46.6 C43.2 46.725 43.2 46.975 43.2 47.1 C42.775 47.85 41.925 49.35 41.5 50.1 C41.375 50.1 41.125 50.1 41 50.1 C36.525 47.225 27.575 41.475 23.1 38.6 C25.1 51.3 27.2 62.3 28.2 64.2 C28.9 65.6 33.8 66 36.4 66 C36.53333 66.1 36.7 66.225 36.8 66.3 C36.925 67 37.175 68.4 37.3 69.1 C37.2 69.175 37 69.325 36.9 69.4 C32.1 69.2 27.2 69.1 23.4 69.1 C18.8 69.1 14.1 69.2 9.7 69.4 C9.56667 69.3 9.4 69.175 9.3 69.1 C9.175 68.4 8.925 67 8.8 66.3 C8.9 66.225 9.1 66.075 9.2 66 C16.3 66 17.2 64.7 17.2 62.9 C17.2 60.1 14.8 46.4 12.4 31.7 C8.13333 28.93333 2.8 25.475 -0.4 23.4 z" />
<glyph unicode="" horiz-adv-x="29.6" d="M-0.4 32.7 C-0.4 32.575 -0.4 32.325 -0.4 32.2 C-0.025 31.575 0.725 30.325 1.1 29.7 C1.225 29.7 1.475 29.7 1.6 29.7 C3.925 31 8.575 33.6 10.9 34.9 C7.9 21.2 4.6 6.6 4.6 2.6 C4.6 0.4 5.8 -1.4 8.2 -1.4 C10.7 -1.4 17.5 1.9 25.6 8.6 C25.6 8.73333 25.6 8.9 25.6 9 C25.3 9.4 24.7 10.2 24.4 10.6 C24.3 10.6 24.1 10.6 24 10.6 C23.1 9.7 17.9 6 16.1 6 C15 6 14.6 7.2 14.6 8.4 C14.6 10 17.5 25.3 20.6 40.3 C24.93333 42.73333 30.35 45.775 33.6 47.6 C33.625 47.725 33.675 47.975 33.7 48.1 C33.35 48.75 32.65 50.05 32.3 50.7 C32.175 50.7 31.925 50.7 31.8 50.7 C29.25 49.275 24.15 46.425 21.6 45 C24.3 57.8 26.7 69.2 27.8 71.9 C27.4 72.16667 26.9 72.5 26.6 72.7 C20.7 70.7 13.4 68.6 8.6 68.6 C8.43333 68.5 8.225 68.375 8.1 68.3 C8 67.775 7.8 66.725 7.7 66.2 C7.8 66.1 8 65.9 8.1 65.8 C15.9 65.8 16.4 65.6 16.4 62.4 C16.4 59.8 14.4 50.5 11.9 39.6 C7.8 37.3 2.675 34.425 -0.4 32.7 z" />
<glyph unicode="" horiz-adv-x="100" d="M91.6 16.1 C91.525 16.025 91.375 15.875 91.3 15.8 C89.9 8.5 89.2 6.7 87.6 5.7 C85.7 4.6 83.9 4.3 60.8 4.3 C62 14.4 63.5 23.7 65.1 33.1 C80.6 33.1 85.1 33.1 88.4 32.7 C88.9 34.4 89.7 36.1 90.8 37.9 C90.63333 38.1 90.425 38.35 90.3 38.5 C87.8 37.9 83.4 37.8 80.6 37.8 C71.7 37.8 68 37.8 65.9 38.1 C67.3 46.9 68.6 55.7 70.4 64.5 C75.2 64.6 78.2 64.7 80.2 64.7 C86.1 64.7 90.2 64.2 90.9 63.6 C92.1 62.6 92.6 60.9 92.6 53.6 C92.7 53.5 92.825 53.375 92.9 53.3 C93.55 53.3 94.85 53.3 95.5 53.3 C95.575 53.375 95.725 53.525 95.8 53.6 C96 56.1 96.4 62.8 97.6 69 C97.43333 69.13333 97.225 69.3 97.1 69.4 C91.9 69.4 82.2 68.9 71.2 68.9 C68.6 68.9 65.6 69 63.5 69.2 C63.26667 68.93333 62.975 68.6 62.8 68.4 C62.7 67.1 62.4 64.3 62 62.8 C59.5 66.3 54.7 70.8 44.2 70.8 C22 70.8 5.8 52.3 5.8 26.4 C5.8 10.8 14.3 -1.7 30.9 -1.7 C40.6 -1.7 47.2 2.2 52.3 7.7 C52.36667 7.63333 52.45 7.55 52.5 7.5 C52.1 5 51.5 2.6 50.8 0.2 C51.1 0.03333 51.475 -0.175 51.7 -0.3 C53.7 -0.2 57.2 0 60.4 0 C62.6 0 69.2 -0.1 75.9 -0.1 C82.6 -0.2 89.4 -0.3 92 -0.3 C92.16667 -0.13333 92.375 0.075 92.5 0.2 C92.8 2.5 94.2 13.6 94.6 15.8 C94.5 15.9 94.375 16.025 94.3 16.1 C93.625 16.1 92.275 16.1 91.6 16.1 zM16.3 24.8 C16.3 43 22 66.4 42.4 66.4 C49.8 66.4 58.8 63.4 58.8 50.5 C58.8 44.1 54 18.2 51.3 13.5 C47.6 7 41.2 3.1 33.6 3.1 C23.6 3.1 16.3 11.4 16.3 24.8 z" />
<glyph unicode="" horiz-adv-x="72.2" d="M65.4 10.6 C65.325 10.625 65.175 10.675 65.1 10.7 C60.6 7 55 4.1 49.9 4.1 C45.5 4.1 41.4 6.9 41.4 14.7 C41.4 17.3 41.7 18.6 42 20.1 C63.8 24.2 70.8 33.2 70.8 39.8 C70.8 43.8 68.2 47.6 61.6 47.6 C54.7 47.6 47.7 43.9 42.3 39.3 C41 44.3 36.4 47.6 29.8 47.6 C17.6 47.6 2.2 36.4 2.2 14.4 C2.2 6 7.4 -1.4 16.7 -1.4 C23.4 -1.4 29.5 1.5 34.8 6.5 C36.4 2.4 40 -1.5 46 -1.5 C54.3 -1.5 63 5.2 65.8 8 C65.86667 8.16667 65.95 8.375 66 8.5 C65.85 9.025 65.55 10.075 65.4 10.6 zM62.1 38.3 C62.1 30.3 51.5 23.9 42.3 22.8 C45.5 34.3 48.1 43.5 56.6 43.5 C59.9 43.5 62.1 41.4 62.1 38.3 zM35.5 32.3 C35.5 26 33.6 2.6 20.8 2.6 C14 2.6 11.4 7 11.4 13.9 C11.4 25.3 15 43.7 27.1 43.7 C32.6 43.7 35.5 39.4 35.5 32.3 z" />
<glyph unicode="" horiz-adv-x="55.6" d="M6.1 17.6 C6.025 17.525 5.875 17.375 5.8 17.3 C5.2 11.9 4.5 6.6 3.5 2.4 C3.6 2.2 3.725 1.95 3.8 1.8 C7.7 0 14.3 -1.9 20.3 -1.9 C34.1 -1.9 49.9 8.7 49.9 23.2 C49.9 33.7 42.1 36.7 31.8 38.9 C22.8 40.8 17.8 42.4 17.8 50.8 C17.8 60.3 25.4 65.3 33.4 65.3 C40 65.3 44.2 62.2 44.9 61.4 C45.5 60.6 45.5 56.4 45.6 54.2 C45.7 54.1 45.825 53.975 45.9 53.9 C46.525 53.9 47.775 53.9 48.4 53.9 C48.475 53.975 48.625 54.125 48.7 54.2 C49.2 58.5 49.9 63 51.1 67.2 C51 67.36667 50.875 67.575 50.8 67.7 C47.8 69.4 42.6 70.5 37.4 70.5 C23.6 70.5 9.4 61.7 9.4 45.4 C9.4 35.7 16.7 32.5 24.4 30.8 C32.6 29 40.6 27.9 40.6 19.4 C40.6 9.3 33.5 3.5 23.8 3.5 C16.4 3.5 10.7 7 9.6 8.4 C9 9.2 9 14.4 9 17.3 C8.9 17.4 8.775 17.525 8.7 17.6 C8.05 17.6 6.75 17.6 6.1 17.6 zM36.1 79.4 C33.925 81.825 29.575 86.675 27.4 89.1 C26.4 89.1 24.4 89.1 23.4 89.1 C25.45 84.975 29.55 76.725 31.6 72.6 C33.15 72.6 36.25 72.6 37.8 72.6 C41.575 76.675 49.125 84.825 52.9 88.9 C51.825 88.9 49.675 88.9 48.6 88.9 C45.475 86.525 39.225 81.775 36.1 79.4 z" />
<glyph unicode="" horiz-adv-x="38.9" d="M32.5 32.7 C32.575 32.775 32.725 32.925 32.8 33 C33.5 38.8 33.6 39.7 35 44.9 C34.9 45.06667 34.775 45.275 34.7 45.4 C31.1 46.7 27.8 47.5 24.6 47.5 C17.2 47.5 3.9 40.1 3.9 30.8 C3.9 23.8 9.3 20.8 16.3 20.1 C23 19.4 26.9 18.4 26.9 13 C26.9 6.3 22.4 3.9 16.6 3.9 C11.9 3.9 6.1 6.6 6 7.3 C5.9 8.6 5.9 12.2 5.9 14.7 C5.8 14.8 5.675 14.925 5.6 15 C5.075 15 4.025 15 3.5 15 C3.425 14.925 3.275 14.775 3.2 14.7 C2.6 10.4 1.9 5.6 0.8 2.1 C0.86667 1.93333 0.95 1.725 1 1.6 C3.2 0.2 7.4 -1.4 12.4 -1.4 C17.5 -1.4 20.6 -0.1 25.6 3.3 C31.7 7.5 34.1 11.2 34.1 16.9 C34.1 33.3 11 22.3 11 34.8 C11 37.4 12.7 41.9 20.5 41.9 C24.3 41.9 30 40.3 30 38.8 C30 38.1 29.8 35 29.7 33 C29.8 32.9 29.925 32.775 30 32.7 C30.625 32.7 31.875 32.7 32.5 32.7 zM24.2 60.6 C22.025 63.025 17.675 67.875 15.5 70.3 C14.5 70.3 12.5 70.3 11.5 70.3 C13.55 66.175 17.65 57.925 19.7 53.8 C21.25 53.8 24.35 53.8 25.9 53.8 C29.675 57.875 37.225 66.025 41 70.1 C39.925 70.1 37.775 70.1 36.7 70.1 C33.575 67.725 27.325 62.975 24.2 60.6 z" />
<glyph unicode="" horiz-adv-x="63" d="M13.5 0 C13.6 -0.075 13.8 -0.225 13.9 -0.3 C18.2 -0.1 22.9 0 26.5 0 C31.1 0 35.8 -0.1 40.7 -0.3 C40.83333 -0.2 41 -0.075 41.1 0 C41.225 0.7 41.475 2.1 41.6 2.8 C41.5 2.875 41.3 3.025 41.2 3.1 C33.6 3.1 32.7 4.4 32.7 6.2 C32.7 13.2 35.7 27.7 40.1 35.7 C49.9 53.5 57 60.6 65.9 61 C66.33333 64.23333 66.875 68.275 67.2 70.7 C53.5 68.8 39.9 48.6 33.8 31.4 C33.73333 31.4 33.65 31.4 33.6 31.4 C26.8 60.6 21.9 70.4 10.7 70.7 C8.2 68 5.1 65.6 2.2 63.3 C2.2 63.16667 2.2 63 2.2 62.9 C2.5 62.25 3.1 60.95 3.4 60.3 C3.5 60.3 3.7 60.3 3.8 60.3 C5.1 61.5 6.7 62.4 8.9 62.4 C12.3 62.4 15.1 59.7 17.9 52.3 C22 41.9 25.6 29.8 25.6 26.4 C25.6 21.6 24.1 9.7 21.7 4.9 C21 3.5 16.5 3.1 14.4 3.1 C14.26667 3 14.1 2.875 14 2.8 C13.875 2.1 13.625 0.7 13.5 0 zM42.5 79.4 C42.5 76.7 44.5 74.8 47.1 74.8 C50.9 74.8 53.8 79.3 53.8 82.8 C53.8 85.1 51.7 86.8 49.8 86.8 C46.1 86.8 42.5 82.4 42.5 79.4 zM24.7 79.4 C24.7 76.7 26.7 74.8 29.3 74.8 C33.1 74.8 36 79.3 36 82.8 C36 85.1 33.9 86.8 32 86.8 C28.3 86.8 24.7 82.4 24.7 79.4 z" />
<glyph unicode="" horiz-adv-x="63" d="M-0.6 2.9 C-0.75 2.175 -1.05 0.725 -1.2 0 C-1.075 -0.125 -0.825 -0.375 -0.7 -0.5 C3.3 -0.2 14.6 0 21.3 0 C30 0 48.8 -0.4 56.1 -0.4 C56.23333 -0.3 56.4 -0.175 56.5 -0.1 C57.3 5.9 58.3 13.4 59 16.9 C58.9 17 58.775 17.125 58.7 17.2 C58.025 17.2 56.675 17.2 56 17.2 C55.9 17.125 55.7 16.975 55.6 16.9 C53.6 9.2 52.7 7.4 51.3 6.3 C49.2 4.7 47.1 4.6 11.9 4.6 C28.9 25.43333 50.15 51.475 62.9 67.1 C63 67.6 63.2 68.6 63.3 69.1 C63.175 69.225 62.925 69.475 62.8 69.6 C56.4 68.9 48.4 68.9 40.9 68.9 C33 68.9 19.2 69.3 11.6 69.3 C11.46667 69.2 11.3 69.075 11.2 69 C11 63.4 10 58.1 9.2 52.9 C9.3 52.8 9.425 52.675 9.5 52.6 C10.175 52.6 11.525 52.6 12.2 52.6 C12.3 52.675 12.5 52.825 12.6 52.9 C13 55.5 15.1 62.1 16.3 62.9 C17.8 63.9 23.3 64.4 37.8 64.4 C41.6 64.4 45.4 64.3 49.2 64.3 C32.6 43.83333 11.85 18.25 -0.6 2.9 zM38 79.4 C35.825 81.825 31.475 86.675 29.3 89.1 C28.3 89.1 26.3 89.1 25.3 89.1 C27.35 84.975 31.45 76.725 33.5 72.6 C35.05 72.6 38.15 72.6 39.7 72.6 C43.475 76.675 51.025 84.825 54.8 88.9 C53.725 88.9 51.575 88.9 50.5 88.9 C47.375 86.525 41.125 81.775 38 79.4 z" />
<glyph unicode="" horiz-adv-x="42.6" d="M6.5 32.9 C6.8 33.8 9.1 38.2 9.5 38.3 C10.1 38.5 11 38.6 12.3 38.6 C13.8 38.6 21.1 37.8 22.8 37.8 C26.4 37.8 30.2 38.8 33.1 39.9 C33.16667 39.83333 33.25 39.75 33.3 39.7 C24.5 30.025 6.9 10.675 -1.9 1 C-1.425 0.5 -0.475 -0.5 0 -1 C3 1.5 5.8 2.4 9 2.4 C16 2.4 22.3 -1.1 28.4 -1.1 C31.1 -1.1 33.9 -0.8 36 0.2 C36.8 4.9 38.6 11.2 39.5 14 C39.43333 14.1 39.35 14.225 39.3 14.3 C38.75 14.3 37.65 14.3 37.1 14.3 C37 14.225 36.8 14.075 36.7 14 C35.7 11 34.7 8.2 34.1 8 C33 7.6 31.3 7.3 28.9 7.3 C25.9 7.3 21.3 8.3 18 8.3 C13.4 8.3 10.5 7.8 7.5 6.5 C7.43333 6.56667 7.35 6.65 7.3 6.7 C15.825 15.975 32.875 34.525 41.4 43.8 C41.55 44.475 41.85 45.825 42 46.5 C41.8 46.625 41.4 46.875 41.2 47 C38 44.8 35.9 44.1 32.3 44.1 C28.3 44.1 18.9 47 13.5 47 C11.5 47 9.1 46.6 7.6 45.9 C7 43.3 4.5 35.7 3.6 33.2 C3.66667 33.1 3.75 32.975 3.8 32.9 C4.475 32.9 5.825 32.9 6.5 32.9 zM27.2 60.6 C25.025 63.025 20.675 67.875 18.5 70.3 C17.5 70.3 15.5 70.3 14.5 70.3 C16.55 66.175 20.65 57.925 22.7 53.8 C24.25 53.8 27.35 53.8 28.9 53.8 C32.675 57.875 40.225 66.025 44 70.1 C42.925 70.1 40.775 70.1 39.7 70.1 C36.575 67.725 30.325 62.975 27.2 60.6 z" />
<glyph unicode="" horiz-adv-x="50" d="M49.6 58.6 C50.4 61.8 51.4 64.8 52.8 67.8 C50.8 68.5 48.7 69.3 45.4 69.3 C41.1 69.3 35.8 66.1 31.5 62.3 C24 55.6 22.9 51.3 21.2 39.9 C16.1 39.9 12.6 40 11.2 40.2 C11 40.03333 10.75 39.825 10.6 39.7 C10.5 38.5 10.4 37 10.1 36 C10.23333 35.83333 10.4 35.625 10.5 35.5 C13.3 35.7 17.5 35.7 20.5 35.7 C18.86667 25.23333 16.825 12.15 15.6 4.3 C11.8 -20.1 8.3 -21.1 5 -21.1 C2.6 -21.1 0.6 -19.9 -1.5 -17.3 C-1.86667 -17.43333 -2.325 -17.6 -2.6 -17.7 C-3.2 -20.8 -4.1 -24.4 -5.1 -26.7 C-3.4 -27.5 -2.1 -27.9 -0.2 -27.9 C4.9 -27.9 14.2 -21.4 19.3 -10.8 C22.2 -4.8 24.3 5.6 29.7 35.7 C32 35.7 38 35.7 42 35.5 C42.16667 35.66667 42.375 35.875 42.5 36 C42.5 37 42.6 38.5 42.8 39.6 C42.66667 39.8 42.5 40.05 42.4 40.2 C38.4 40 32.5 39.9 30.3 39.9 C30.93333 43.5 31.725 48 32.2 50.7 C33.9 60.5 36.2 63 40.4 63 C43.8 63 47.4 60.4 48.5 58.6 C48.86667 58.6 49.325 58.6 49.6 58.6 z" />
<glyph unicode="" horiz-adv-x="27.8" d="M29.5 53.8 C30.55 53.8 32.65 53.8 33.7 53.8 C31.675 57.875 27.625 66.025 25.6 70.1 C24.1 70.1 21.1 70.1 19.6 70.1 C15.825 66.025 8.275 57.875 4.5 53.8 C5.7 53.8 8.1 53.8 9.3 53.8 C12.25 56.1 18.15 60.7 21.1 63 C23.2 60.7 27.4 56.1 29.5 53.8 z" />
<glyph unicode="" horiz-adv-x="27.8" d="M18.6 60.6 C16.425 63.025 12.075 67.875 9.9 70.3 C8.9 70.3 6.9 70.3 5.9 70.3 C7.95 66.175 12.05 57.925 14.1 53.8 C15.65 53.8 18.75 53.8 20.3 53.8 C24.075 57.875 31.625 66.025 35.4 70.1 C34.325 70.1 32.175 70.1 31.1 70.1 C27.975 67.725 21.725 62.975 18.6 60.6 z" />
<glyph unicode="" horiz-adv-x="27.8" d="M3.8 59.2 C11.4 59.2 26.6 59.2 34.2 59.2 C34.4 60.475 34.8 63.025 35 64.3 C27.4 64.3 12.2 64.3 4.6 64.3 C4.4 63.025 4 60.475 3.8 59.2 z" />
<glyph unicode="" horiz-adv-x="27.8" d="M5.9 70.1 C5.9 69.4 5.8 68.6 5.8 67.9 C5.8 59 12.3 54.6 18.6 54.6 C28.6 54.6 33.2 63.1 34.5 69.8 C33.53333 69.8 32.325 69.8 31.6 69.8 C30.6 66.7 26.2 60.9 19 60.9 C14.7 60.9 8.8 63.3 8.6 70.1 C7.7 70.1 6.575 70.1 5.9 70.1 z" />
<glyph unicode="" horiz-adv-x="27.8" d="M13.3 60.6 C13.3 57.9 15.3 56 17.9 56 C21.7 56 24.6 60.5 24.6 64 C24.6 66.3 22.5 68 20.6 68 C16.9 68 13.3 63.6 13.3 60.6 z" />
<glyph unicode="" horiz-adv-x="27.8" d="M8.9 62.5 C8.9 56.8 13.6 52.1 19.3 52.1 C25 52.1 29.7 56.8 29.7 62.5 C29.7 68.2 25 72.9 19.3 72.9 C13.6 72.9 8.9 68.2 8.9 62.5 zM25.3 62.5 C25.3 59.2 22.6 56.5 19.3 56.5 C16 56.5 13.3 59.2 13.3 62.5 C13.3 65.8 16 68.5 19.3 68.5 C22.6 68.5 25.3 65.8 25.3 62.5 z" />
<glyph unicode="" horiz-adv-x="27.8" d="M15.7 0.3 C9.1 -1.3 2.8 -6.2 2.8 -13.6 C2.8 -19.1 7.1 -22.2 12.2 -22.2 C16.5 -22.2 19.8 -21.1 22.4 -19.3 C22.56667 -19.03333 22.775 -18.7 22.9 -18.5 C22.825 -18.05 22.675 -17.15 22.6 -16.7 C22.475 -16.65 22.225 -16.55 22.1 -16.5 C20 -17.6 18.5 -18 16.4 -18 C13.1 -18 11 -16.3 11 -12.3 C11 -7.2 14.3 -3.1 21.7 0.3 C19.7 0.3 17.2 0.3 15.7 0.3 z" />
<glyph unicode="" horiz-adv-x="27.8" d="M3.5 57.5 C4.9 59.6 7.3 61.4 9.8 61.4 C13.6 61.4 20.1 56.6 24.5 56.6 C29 56.6 33.9 60.3 36.4 66 C35.5 66.4 34.375 66.9 33.7 67.2 C32.1 64.7 30.1 63.1 27.2 63.1 C22.4 63.1 16.8 67.8 12 67.8 C7.8 67.8 4.2 64.5 0.6 59 C1.56667 58.5 2.775 57.875 3.5 57.5 z" />
<glyph unicode="" horiz-adv-x="27.8" d="M7.5 53.5 C24 62.8 25.9 64.5 25.9 66.7 C25.9 68.9 24.4 70.2 22.5 70.2 C19.2 70.2 16.5 67.5 4.3 53.5 C5.36667 53.5 6.7 53.5 7.5 53.5 zM25.3 53.5 C41.8 62.8 43.7 64.5 43.7 66.7 C43.7 68.9 42.2 70.2 40.3 70.2 C37 70.2 34.3 67.5 22.1 53.5 C23.16667 53.5 24.5 53.5 25.3 53.5 z" />
<glyph unicode="" horiz-adv-x="65.5" d="M59.8 13.9 C59.175 13.925 57.925 13.975 57.3 14 C54.2 7.5 53 6.8 49.2 6.8 C45.93333 6.8 41.85 6.8 39.4 6.8 C47.2 13.8 58.3 24.5 60.9 38.9 C64.2 57.9 55.1 69.3 40.1 69.3 C25.2 69.3 11.4 57.3 8 38.2 C5.2 22.3 13.2 12.2 18 6.8 C14.86667 6.8 10.95 6.8 8.6 6.8 C5.1 6.8 3.7 7.8 2.9 14 C2.1 13.96667 1.1 13.925 0.5 13.9 C0.4 10.425 0.2 3.475 0.1 0 C5.425 0 16.075 0 21.4 0 C21.65 0.425 22.15 1.275 22.4 1.7 C19.4 11.5 15.1 24.1 17.5 37.6 C21.3 59 30.1 66.3 39.3 66.3 C47.9 66.3 54.8 58.7 51.2 38 C48.8 24.1 38.9 10.6 33.4 1.7 C33.5 1.13333 33.625 0.425 33.7 0 C39.05 0 49.75 0 55.1 0 C56.275 3.475 58.625 10.425 59.8 13.9 z" />
<glyph unicode="" horiz-adv-x="53.7" d="M2.1 35.3 C2.2 35.275 2.4 35.225 2.5 35.2 C6.8 38.4 8.9 39.5 10.1 39.5 C11.2 39.5 11.7 39 11.7 37.4 C11.7 33.3 0.5 -19.1 -2.2 -27.2 C-1.83333 -27.53333 -1.375 -27.95 -1.1 -28.2 C1.7 -26.9 5.1 -26.5 8 -26.4 C8.8 -16.9 11 -4.9 12 0.1 C17.2 0.1 28.2 10.4 33.9 20.3 C33.96667 20.23333 34.05 20.15 34.1 20.1 C31.1 8.9 30.4 4.7 30.4 2.7 C30.4 0 31.7 -1.2 33.8 -1.2 C37.6 -1.2 44.9 3.3 51 8.5 C51 8.63333 51 8.8 51 8.9 C50.65 9.325 49.95 10.175 49.6 10.6 C49.5 10.6 49.3 10.6 49.2 10.6 C45 7.2 43.1 6.2 41.5 6.2 C40.5 6.2 39.9 6.9 39.9 8.6 C39.9 12 46.3 40.3 48.6 46.6 C48.33333 46.83333 48 47.125 47.8 47.3 C46.4 46.4 41.3 45.6 39.4 45.6 C38.2 39.6 36.9 34.1 34.3 26.2 C32.2 19.9 20.5 6.5 16.5 6.5 C15.3 6.5 14.8 7 14.8 9 C14.8 15.4 22.2 38.3 22.2 43.5 C22.2 45.7 20.7 47.3 18.8 47.3 C16.1 47.3 11.5 45.2 1.2 37.5 C1.16667 37.36667 1.125 37.2 1.1 37.1 C1.35 36.65 1.85 35.75 2.1 35.3 z" />
<glyph unicode="" horiz-adv-x="52" d="M50.3 46.3 C48.3 43.7 47.2 43.1 44.2 43.1 C35.2 43.1 26.8 43.4 20 43.5 C10.3 43.6 5.7 38 2.6 34.9 C2.9 34.16667 3.275 33.25 3.5 32.7 C7.5 35.3 10 37 16.2 37 C14.4 26.7 9.6 9.7 1 0.5 C1.1 -0.06667 1.225 -0.775 1.3 -1.2 C2.9 -1.1 5.5 -0.3 7.4 0.5 C9.1 2.4 15.6 12.3 19.6 35 C19.7 35.6 19.825 36.35 19.9 36.8 C23.7 36.8 28.7 36.7 33.8 36.6 C31.9 28.6 30 20.7 28.4 11.5 C26.6 1.4 29.7 -1.2 34.5 -1.2 C38 -1.2 42.2 1 45.3 5.4 C45 6.06667 44.625 6.9 44.4 7.4 C42.4 5.5 41.1 4.5 39.3 4.5 C36.4 4.5 35.8 7.6 36.9 13.6 C38.1 20.4 39.7 30.2 41.3 36.4 C43.9 36.4 46.1 36.4 47.7 36.8 C49.2 38.6 51.1 41.8 52.5 45.5 C51.76667 45.76667 50.85 46.1 50.3 46.3 z" />
<glyph unicode="" horiz-adv-x="50" d="M-1.1 21.2 C11.4 21.2 36.4 21.2 48.9 21.2 C49.15 22.95 49.65 26.45 49.9 28.2 C37.4 28.2 12.4 28.2 -0.1 28.2 C-0.35 26.45 -0.85 22.95 -1.1 21.2 z" />
<glyph unicode="" horiz-adv-x="100" d="M-1.1 21.2 C23.9 21.2 73.9 21.2 98.9 21.2 C99.15 22.95 99.65 26.45 99.9 28.2 C74.9 28.2 24.9 28.2 -0.1 28.2 C-0.35 26.45 -0.85 22.95 -1.1 21.2 z" />
<glyph unicode="" horiz-adv-x="27.8" d="M8.1 42.7 C10.1 43.6 15.2 45.2 18.9 45.8 C21 55.2 24.1 62.9 28.5 69.1 C28.26667 69.63333 27.975 70.3 27.8 70.7 C26.55 70.3 24.05 69.5 22.8 69.1 C16.9 62.1 10.8 52.4 7.1 43.8 C7.43333 43.43333 7.85 42.975 8.1 42.7 z" />
<glyph unicode="" horiz-adv-x="27.8" d="M8.8 42.7 C10.05 43.1 12.55 43.9 13.8 44.3 C19.7 51.3 25.8 61 29.5 69.6 C29.16667 69.96667 28.75 70.425 28.5 70.7 C26.5 69.8 21.4 68.2 17.7 67.6 C15.6 58.2 12.5 50.5 8.1 44.3 C8.33333 43.76667 8.625 43.1 8.8 42.7 z" />
<glyph unicode="" horiz-adv-x="27.8" d="M0.9 -14.4 C2.15 -14 4.65 -13.2 5.9 -12.8 C11.8 -5.8 17.9 3.9 21.6 12.5 C21.26667 12.86667 20.85 13.325 20.6 13.6 C18.6 12.7 13.5 11.1 9.8 10.5 C7.7 1.1 4.6 -6.6 0.2 -12.8 C0.43333 -13.33333 0.725 -14 0.9 -14.4 z" />
<glyph unicode="" horiz-adv-x="50" d="M9.3 42.7 C11.3 43.6 16.4 45.2 20.1 45.8 C22.2 55.2 25.3 62.9 29.7 69.1 C29.46667 69.63333 29.175 70.3 29 70.7 C27.75 70.3 25.25 69.5 24 69.1 C18.1 62.1 12 52.4 8.3 43.8 C8.63333 43.43333 9.05 42.975 9.3 42.7 zM28.7 42.7 C30.7 43.6 35.8 45.2 39.5 45.8 C41.6 55.2 44.7 62.9 49.1 69.1 C48.86667 69.63333 48.575 70.3 48.4 70.7 C47.15 70.3 44.65 69.5 43.4 69.1 C37.5 62.1 31.4 52.4 27.7 43.8 C28.03333 43.43333 28.45 42.975 28.7 42.7 z" />
<glyph unicode="" horiz-adv-x="50" d="M30.6 42.7 C31.85 43.1 34.35 43.9 35.6 44.3 C41.5 51.3 47.6 61 51.3 69.6 C50.96667 69.96667 50.55 70.425 50.3 70.7 C48.3 69.8 43.2 68.2 39.5 67.6 C37.4 58.2 34.3 50.5 29.9 44.3 C30.13333 43.76667 30.425 43.1 30.6 42.7 zM11.2 42.7 C12.45 43.1 14.95 43.9 16.2 44.3 C22.1 51.3 28.2 61 31.9 69.6 C31.56667 69.96667 31.15 70.425 30.9 70.7 C28.9 69.8 23.8 68.2 20.1 67.6 C18 58.2 14.9 50.5 10.5 44.3 C10.73333 43.76667 11.025 43.1 11.2 42.7 z" />
<glyph unicode="" horiz-adv-x="50" d="M20.3 -14.4 C21.55 -14 24.05 -13.2 25.3 -12.8 C31.2 -5.8 37.3 3.9 41 12.5 C40.66667 12.86667 40.25 13.325 40 13.6 C38 12.7 32.9 11.1 29.2 10.5 C27.1 1.1 24 -6.6 19.6 -12.8 C19.83333 -13.33333 20.125 -14 20.3 -14.4 zM0.9 -14.4 C2.15 -14 4.65 -13.2 5.9 -12.8 C11.8 -5.8 17.9 3.9 21.6 12.5 C21.26667 12.86667 20.85 13.325 20.6 13.6 C18.6 12.7 13.5 11.1 9.8 10.5 C7.7 1.1 4.6 -6.6 0.2 -12.8 C0.43333 -13.33333 0.725 -14 0.9 -14.4 z" />
<glyph unicode="" horiz-adv-x="50" d="M50.2 47.7 C42.9 46.8 42.5 46.8 32.5 46.8 C34 56.1 35.3 63.7 37.3 68.7 C37.13333 68.93333 36.925 69.225 36.8 69.4 C35 69.3 33.3 69.1 31.5 69.1 C30.5 69.1 29.7 69.2 29.1 69.3 C28.4 69.3 27.9 69.4 27.5 69.4 C27.33333 69.23333 27.125 69.025 27 68.9 C27 64.1 25.6 53.1 24.5 47 C20.9 47 11.8 47 7.1 48.1 C6.9 47.93333 6.65 47.725 6.5 47.6 C6.3 44.1 6.2 43 5.3 40.1 C5.6 39.96667 5.975 39.8 6.2 39.7 C8.2 40.3 10.1 40.4 17.3 40.4 C19.7 40.4 21.1 40.4 23.5 40.3 C21.8 29.4 18.2 10.2 15.2 0.3 C15.36667 0.1 15.575 -0.15 15.7 -0.3 C17.4 -0.2 18.9 -0.1 20.6 -0.1 C22.3 -0.1 23.9 -0.3 25.6 -0.3 C25.73333 -0.1 25.9 0.15 26 0.3 C27.4 13.7 28.8 27 31.5 40.3 C32.9 40.3 34.2 40.4 35.6 40.4 C37.2 40.4 45 40.4 49.1 39.7 C49.3 39.86667 49.55 40.075 49.7 40.2 C49.9 43.9 50.1 44.9 50.8 47.2 C50.6 47.36667 50.35 47.575 50.2 47.7 z" />
<glyph unicode="" horiz-adv-x="50" d="M6.7 48.3 C6.5 45.3 6.4 44.2 5.4 41 C5.63333 40.83333 5.925 40.625 6.1 40.5 C8.4 41.3 13.1 41.6 17.2 41.6 C19.6 41.6 21 41.6 23.4 41.5 C22 33 21.1 27.4 19.3 22.4 C19.3 16.9 19.2 13.6 17.4 3.1 C16 3.1 14.7 3 13.3 3 C11.7 3 2.1 3.5 1 4.2 C0.86667 4.06667 0.7 3.9 0.6 3.8 C0.6 1.2 0 -1.2 -0.6 -3.7 C-0.5 -3.83333 -0.375 -4 -0.3 -4.1 C6 -3.1 6.4 -3.1 16.4 -3.1 C14.9 -11.5 13.6 -19.1 11.6 -24.1 C11.76667 -24.33333 11.975 -24.625 12.1 -24.8 C13.9 -24.7 15.6 -24.5 17.4 -24.5 C19.4 -24.5 20.6 -24.8 21.4 -24.8 C21.56667 -24.63333 21.775 -24.425 21.9 -24.3 C21.9 -19.5 23.3 -8.5 24 -3.1 C27.6 -3.1 36.7 -3.1 40.8 -4.4 C41 -4.2 41.25 -3.95 41.4 -3.8 C41.4 -3.2 41.3 -2.7 41.3 -2.1 C41.3 -0.1 41.7 1.9 42.4 3.6 C42.16667 3.76667 41.875 3.975 41.7 4.1 C39.2 3.3 35.3 3 31.2 3 C28.8 3 27.4 3 25 3.1 C26.4 11.6 27.3 17.2 29.1 22.2 C29.1 27.7 29.2 31 31 41.5 C32.4 41.5 33.7 41.6 35.1 41.6 C36.7 41.6 47.1 41.1 48.6 40.2 C48.8 40.53333 49.05 40.95 49.2 41.2 C49.4 45.1 49.6 46.1 50.3 48.1 C50.1 48.26667 49.85 48.475 49.7 48.6 C42.4 47.7 42 47.7 32 47.7 C33.5 56.1 34.8 63.7 36.8 68.7 C36.63333 68.93333 36.425 69.225 36.3 69.4 C34.5 69.3 32.8 69.1 31 69.1 C30 69.1 29.2 69.2 28.6 69.3 C27.9 69.3 27.4 69.4 27 69.4 C26.83333 69.23333 26.625 69.025 26.5 68.9 C26.5 64.1 25.1 53.1 24.4 47.7 C20.8 47.7 11.7 47.7 7.3 48.8 C7.1 48.63333 6.85 48.425 6.7 48.3 z" />
<glyph unicode="" horiz-adv-x="50" d="M7.8 34.6 C7.8 25.1 15.5 17.4 25 17.4 C34.5 17.4 42.2 25.1 42.2 34.6 C42.2 44.1 34.5 51.8 25 51.8 C15.5 51.8 7.8 44.1 7.8 34.6 z" />
<glyph unicode="" horiz-adv-x="100" d="M10.8 4.2 C10.8 1.5 12.1 -1 15.4 -1 C19.5 -1 22.7 2.6 22.7 7.8 C22.7 10.4 20.9 12.9 18.1 12.9 C15.1 12.9 10.8 9.9 10.8 4.2 zM44.1 4.2 C44.1 1.5 45.4 -1 48.7 -1 C52.8 -1 56 2.6 56 7.8 C56 10.4 54.2 12.9 51.4 12.9 C48.4 12.9 44.1 9.9 44.1 4.2 zM77.4 4.2 C77.4 1.5 78.7 -1 82 -1 C86.1 -1 89.3 2.6 89.3 7.8 C89.3 10.4 87.5 12.9 84.7 12.9 C81.7 12.9 77.4 9.9 77.4 4.2 z" />
<glyph unicode="" horiz-adv-x="107.4" d="M75.2 11.6 C75.2 1.4 79.4 -1.8 86.8 -1.8 C100.7 -1.8 105.1 15.2 105.1 24.9 C105.1 33.6 101.4 38.4 93.4 38.4 C80.1 38.4 75.2 23.1 75.2 11.6 zM82.3 8.1 C82.3 14.5 83.5 21.6 85.1 27.8 C86.5 33.1 88.9 36.2 92.6 36.2 C95.7 36.2 98 34.4 98 28.1 C98 23.3 96.6 14 95.5 9.9 C94 4 91.9 0.4 87.7 0.4 C84.4 0.4 82.3 3.2 82.3 8.1 zM11.4 38.8 C11.4 45.2 12.6 52.3 14.2 58.5 C15.6 63.8 18 66.9 21.7 66.9 C24.8 66.9 27.1 65.1 27.1 58.8 C27.1 54 25.7 44.7 24.6 40.6 C23.1 34.7 21 31.1 16.8 31.1 C13.5 31.1 11.4 33.9 11.4 38.8 zM4.3 42.3 C4.3 32.1 8.5 28.9 15.9 28.9 C29.8 28.9 34.2 45.9 34.2 55.6 C34.2 64.3 30.5 69.1 22.5 69.1 C9.2 69.1 4.3 53.8 4.3 42.3 zM47.5 8.1 C47.5 14.5 48.7 21.6 50.3 27.8 C51.7 33.1 54.1 36.2 57.8 36.2 C60.9 36.2 63.2 34.4 63.2 28.1 C63.2 23.3 61.8 14 60.7 9.9 C59.2 4 57.1 0.4 52.9 0.4 C49.6 0.4 47.5 3.2 47.5 8.1 zM40.4 11.6 C40.4 1.4 44.6 -1.8 52 -1.8 C65.9 -1.8 70.3 15.2 70.3 24.9 C70.3 33.6 66.6 38.4 58.6 38.4 C45.3 38.4 40.4 23.1 40.4 11.6 zM12.5 -3.2 C12.55 -3.3 12.65 -3.5 12.7 -3.6 C13.85 -3.6 16.15 -3.6 17.3 -3.6 C17.425 -3.5 17.675 -3.3 17.8 -3.2 C28.775 15.225 50.725 52.075 61.7 70.5 C61.65 70.6 61.55 70.8 61.5 70.9 C60.35 70.9 58.05 70.9 56.9 70.9 C56.775 70.8 56.525 70.6 56.4 70.5 C45.425 52.075 23.475 15.225 12.5 -3.2 z" />
<glyph unicode="" horiz-adv-x="33.3" d="M4.5 22.1 C9.6 17.4 17.4 7.5 20 3.4 C20.16667 3.4 20.375 3.4 20.5 3.4 C21.075 3.825 22.225 4.675 22.8 5.1 C22.85 5.25 22.95 5.55 23 5.7 C21.2 10.4 16.8 18.3 14.4 22.7 C18.4 27.2 25 35.5 27.4 39.4 C27.4 39.6 27.4 39.85 27.4 40 C26.875 40.45 25.825 41.35 25.3 41.8 C25.175 41.8 24.925 41.8 24.8 41.8 C20.4 37.1 9.3 27.3 4.9 24 C4.76667 23.36667 4.6 22.575 4.5 22.1 z" />
<glyph unicode="" horiz-adv-x="33.3" d="M27.3 23.1 C22.2 27.8 14.4 37.7 11.8 41.8 C11.63333 41.8 11.425 41.8 11.3 41.8 C10.725 41.375 9.575 40.525 9 40.1 C8.95 39.95 8.85 39.65 8.8 39.5 C10.6 34.8 15 26.9 17.4 22.5 C13.4 18 6.8 9.7 4.4 5.8 C4.4 5.6 4.4 5.35 4.4 5.2 C4.925 4.75 5.975 3.85 6.5 3.4 C6.625 3.4 6.875 3.4 7 3.4 C11.4 8.1 22.5 17.9 26.9 21.2 C27.03333 21.83333 27.2 22.625 27.3 23.1 z" />
<glyph unicode="" horiz-adv-x="16.7" d="M-15.3 -3.2 C-15.25 -3.3 -15.15 -3.5 -15.1 -3.6 C-13.95 -3.6 -11.65 -3.6 -10.5 -3.6 C-10.4 -3.5 -10.2 -3.3 -10.1 -3.2 C0.9 15.225 22.9 52.075 33.9 70.5 C33.85 70.6 33.75 70.8 33.7 70.9 C32.55 70.9 30.25 70.9 29.1 70.9 C28.975 70.8 28.725 70.6 28.6 70.5 C17.625 52.075 -4.325 15.225 -15.3 -3.2 z" />
<glyph unicode="" horiz-adv-x="50" d="M51.9 65.3 C51.85 65.425 51.75 65.675 51.7 65.8 C47.8 67.9 42.5 68.8 38.1 68.8 C23.2 68.8 13.3 58.2 8.9 44.8 C8.6 43.9 8.3 43 8 42 C6.1 42.1 4.1 42.1 2.2 42.2 C2.06667 42.1 1.9 41.975 1.8 41.9 C1.45 41 0.75 39.2 0.4 38.3 C0.475 38.2 0.625 38 0.7 37.9 C2.8 38 5 38.1 7.1 38.2 C6.5 35.2 5.9 32.2 5.8 29.2 C4 29.3 2.2 29.3 0.5 29.4 C0.36667 29.26667 0.2 29.1 0.1 29 C-0.25 28.1 -0.95 26.3 -1.3 25.4 C-1.225 25.325 -1.075 25.175 -1 25.1 C1.3 25.2 3.5 25.4 5.8 25.4 C5.8 25.2 5.8 24.95 5.8 24.8 C5.8 10.8 11.4 -1.6 27.4 -1.6 C33.2 -1.6 40.4 1.1 44.8 4.9 C45.1 6.4 45.2 7.9 45.6 9.4 C45.16667 9.66667 44.625 10 44.3 10.2 C40.7 6.9 35.5 4.2 30.5 4.2 C18.8 4.2 16.4 14.7 16.4 24.2 C16.4 24.6 16.4 25.1 16.4 25.4 C22.2 25.4 28 25.4 33.8 25.1 C33.93333 25.2 34.1 25.325 34.2 25.4 C34.525 26.3 35.175 28.1 35.5 29 C35.425 29.1 35.275 29.3 35.2 29.4 C29 29.1 22.7 29.1 16.5 29.1 C16.6 31.9 16.9 35 17.4 38.2 C24.7 38.2 32.1 38.2 39.4 37.9 C39.53333 38.03333 39.7 38.2 39.8 38.3 C40.15 39.2 40.85 41 41.2 41.9 C41.125 41.975 40.975 42.125 40.9 42.2 C33.3 41.9 25.7 41.9 18.1 41.9 C20.4 53 25.5 63.5 36.8 63.5 C41.3 63.5 43.9 62.1 46.1 58.2 C46.16667 56.5 46.25 54.375 46.3 53.1 C46.35 53 46.45 52.8 46.5 52.7 C47.225 52.725 48.675 52.775 49.4 52.8 C49.475 52.875 49.625 53.025 49.7 53.1 C50.1 57.2 50.9 61.3 51.9 65.3 z" />
<glyph unicode="" horiz-adv-x="38.2" d="M31.6 10.7 C28.4 6.9 24.7 3.9 20.4 3.9 C15.1 3.9 13 7.6 15.3 20.6 C15.86667 23.8 16.575 27.8 17 30.2 C26 38.3 33.5 47.4 35.6 59.2 C36.9 66.5 35 72.2 29.4 72.2 C26.3 72.2 23.2 70.5 20.3 67.3 C15.5 62.4 13.7 57.3 10.9 41.3 C10.13333 37.03333 9.175 31.7 8.6 28.5 C6.725 27.15 2.975 24.45 1.1 23.1 C1.3 22.5 1.7 21.3 1.9 20.7 C3.425 21.75 6.475 23.85 8 24.9 C7.625 22.8 6.875 18.6 6.5 16.5 C5.1 8.2 5.5 5.1 7.1 2.2 C8.6 -0.1 11.4 -1.6 16 -1.6 C22.7 -1.6 28.5 2.2 33.2 9.1 C32.66667 9.63333 32 10.3 31.6 10.7 zM20 47 C22.9 63.8 25 69.2 28.3 69.2 C31.1 69.2 31.8 65.2 30.7 59.1 C29.2 50.5 24 41.1 17.8 34.8 C18.53333 38.86667 19.45 43.95 20 47 z" />
<glyph unicode="" horiz-adv-x="100" d="M14.5 28.7 C18.9 28.7 27.7 28.7 32.1 28.7 C32.1 29.3 32.1 30.5 32.1 31.1 C28.8 31.1 27.2 31.1 27.2 34.6 C27.2 45.1 27.2 58.225 27.2 66.1 C29.35 66.1 33.65 66.1 35.8 66.1 C38.3 66.1 38.3 63.3 38.3 60.1 C39.1 60.1 40.1 60.1 40.7 60.1 C40.7 62.35 40.7 66.85 40.7 69.1 C32 69.1 14.6 69.1 5.9 69.1 C5.9 66.85 5.9 62.35 5.9 60.1 C6.5 60.1 7.7 60.1 8.3 60.1 C8.3 63.3 8.3 66.1 10.8 66.1 C13.66667 66.1 17.25 66.1 19.4 66.1 C19.4 58.225 19.4 42.475 19.4 34.6 C19.4 31.1 17.8 31.1 14.5 31.1 C14.5 30.3 14.5 29.3 14.5 28.7 zM81.3 28.7 C85.7 28.7 94.5 28.7 98.9 28.7 C98.9 29.3 98.9 30.5 98.9 31.1 C95.6 31.1 94 31.1 94 34.6 C94 44.13333 94 56.05 94 63.2 C94 66.7 95.6 66.7 99.5 66.7 C99.5 67.5 99.5 68.5 99.5 69.1 C96.575 69.1 90.725 69.1 87.8 69.1 C83.975 61.85 76.325 47.35 72.5 40.1 C69.025 47.35 62.075 61.85 58.6 69.1 C55.275 69.1 48.625 69.1 45.3 69.1 C45.3 68.5 45.3 67.3 45.3 66.7 C48.8 66.7 51.4 66.7 51.4 61.9 C51.4 52.8 51.4 41.425 51.4 34.6 C51.4 31.1 50.1 31.1 46.8 31.1 C46.8 30.3 46.8 29.3 46.8 28.7 C50.05 28.7 56.55 28.7 59.8 28.7 C59.8 29.3 59.8 30.5 59.8 31.1 C56.5 31.1 55.2 31.1 55.2 34.6 C55.2 42.43333 55.2 52.225 55.2 58.1 C55.25 58.1 55.35 58.1 55.4 58.1 C59 50.75 66.2 36.05 69.8 28.7 C70.225 28.7 71.075 28.7 71.5 28.7 C75.125 35.8 82.375 50 86 57.1 C86.05 57.1 86.15 57.1 86.2 57.1 C86.2 51.475 86.2 40.225 86.2 34.6 C86.2 31.1 84.6 31.1 81.3 31.1 C81.3 30.3 81.3 29.3 81.3 28.7 z" />
<glyph unicode="" horiz-adv-x="65.5" d="M59.8 13.9 C59.175 13.925 57.925 13.975 57.3 14 C54.2 7.5 53 6.8 49.2 6.8 C45.93333 6.8 41.85 6.8 39.4 6.8 C47.2 13.8 58.3 24.5 60.9 38.9 C64.2 57.9 55.1 69.3 40.1 69.3 C25.2 69.3 11.4 57.3 8 38.2 C5.2 22.3 13.2 12.2 18 6.8 C14.86667 6.8 10.95 6.8 8.6 6.8 C5.1 6.8 3.7 7.8 2.9 14 C2.1 13.96667 1.1 13.925 0.5 13.9 C0.4 10.425 0.2 3.475 0.1 0 C5.425 0 16.075 0 21.4 0 C21.65 0.425 22.15 1.275 22.4 1.7 C19.4 11.5 15.1 24.1 17.5 37.6 C21.3 59 30.1 66.3 39.3 66.3 C47.9 66.3 54.8 58.7 51.2 38 C48.8 24.1 38.9 10.6 33.4 1.7 C33.5 1.13333 33.625 0.425 33.7 0 C39.05 0 49.75 0 55.1 0 C56.275 3.475 58.625 10.425 59.8 13.9 z" />
<glyph unicode="" horiz-adv-x="92.5" d="M89.1 32.6 C89.1 32.825 89.1 33.275 89.1 33.5 C89.1 53.1 71.5 68.9 49.7 68.9 C28.1 68.9 10.5 53.1 10.5 33.5 C10.5 14.1 28.1 -1.7 49.7 -1.7 C62.4 -1.7 73.8 3.7 80.8 12 C78.93333 12 76.6 12 75.2 12 C69 4.9 60 0.2 49.8 0.2 C40.4 0.2 31.9 4.3 25.8 10.7 C25.2 11.3 24.9 12.1 24.9 12.9 C24.9 19.33333 24.9 27.375 24.9 32.2 C24.9 32.5 25.1 32.6 25.4 32.6 C46.63333 32.6 73.175 32.6 89.1 32.6 zM74.7 35.1 C74.7 34.9 74.6 34.5 74.2 34.5 C57.93333 34.5 37.6 34.5 25.4 34.5 C25.1 34.5 24.9 34.9 24.9 35.1 C24.9 41.43333 24.9 49.35 24.9 54.1 C24.9 55 25.2 55.9 25.9 56.5 C32 62.8 40.5 66.9 49.8 66.9 C59.2 66.9 67.5 62.9 73.7 56.8 C74.3 56.2 74.7 55.3 74.7 54.5 C74.7 48.03333 74.7 39.95 74.7 35.1 z" />
<glyph unicode="" horiz-adv-x="48.7" d="M26.6 41.6 C20.7 41.6 14.5 38.4 10.5 34.2 C6.9 30.5 3.4 24.7 2.2 17.9 C0 5.6 5.4 -1.6 15.4 -1.6 C24.2 -1.6 31.5 4.6 36.9 13.5 C41.3 20.7 44.3 30.7 45.6 38.1 C46.6 44.1 47.4 53.6 45.1 61.2 C42.4 69.9 37.2 75.2 28.5 75.2 C23.2 75.2 18.6 73.4 15.1 71.2 C13.9 69 15.3 65 16.7 65.1 C20.5 67.9 25.3 70.4 30.1 70.4 C36 70.4 39.6 65.7 40.6 61.2 C41.6 56.2 41.3 50.7 40.2 45.8 C39.4 42 38.4 38.3 37.5 35.1 C35.3 39.7 30.7 41.6 26.7 41.6 C26.66667 41.6 26.625 41.6 26.6 41.6 zM27.8 37.8 C32.5 37.8 35.4 33.6 36 30.9 C33.6 23 31.6 17.8 28.1 11.8 C25.1 6.8 20.7 1.3 15.9 1.3 C10.5 1.3 8.4 6.7 9.5 13.2 C10.7 20 13.4 27.2 17 32 C20.6 36.2 24.1 37.8 27.7 37.8 C27.73333 37.8 27.775 37.8 27.8 37.8 z" />
<glyph unicode="" horiz-adv-x="58" d="M49.8 0 C49.9 0.625 50.1 1.875 50.2 2.5 C47.05 19.2 40.75 52.6 37.6 69.3 C36.65 69.025 34.75 68.475 33.8 68.2 C25.025 51.775 7.475 18.925 -1.3 2.5 C-1.4 1.875 -1.6 0.625 -1.7 0 C11.175 0 36.925 0 49.8 0 zM40.2 4.6 C31.175 4.6 13.125 4.6 4.1 4.6 C10.825 17.4 24.275 43 31 55.8 C33.3 43 37.9 17.4 40.2 4.6 z" />
<glyph unicode="" horiz-adv-x="69.9" d="M67.4 68.4 C52.925 68.4 23.975 68.4 9.5 68.4 C9.5 67.75 9.5 66.45 9.5 65.8 C17.4 65.2 18 64.6 18 58.7 C18 39.76667 18 16.1 18 1.9 C18 -4.8 17.2 -5.4 9.8 -6.1 C9.8 -6.93333 9.8 -7.975 9.8 -8.6 C15.625 -8.6 27.275 -8.6 33.1 -8.6 C33.1 -7.975 33.1 -6.725 33.1 -6.1 C26.2 -5.4 26.3 -4.5 26.3 1.9 C26.3 22.03333 26.3 47.2 26.3 62.3 C26.3 64.8 26.8 65.2 29.5 65.2 C35.46667 65.2 42.925 65.2 47.4 65.2 C50.2 65.2 50.7 64.8 50.7 62 C50.7 41.96667 50.7 16.925 50.7 1.9 C50.7 -5 50.2 -5.5 43.2 -6.1 C43.2 -6.93333 43.2 -7.975 43.2 -8.6 C49.2 -8.6 61.2 -8.6 67.2 -8.6 C67.2 -7.975 67.2 -6.725 67.2 -6.1 C59.7 -5.4 59 -4.6 59 1.9 C59 20.83333 59 44.5 59 58.7 C59 64.5 59.5 65.2 67.4 65.8 C67.4 66.66667 67.4 67.75 67.4 68.4 z" />
<glyph unicode="" horiz-adv-x="57.5" d="M55.5 9.1 C54.85 9.275 53.55 9.625 52.9 9.8 C49.2 -0.9 48 -1.4 40 -1.4 C32.33333 -1.4 22.75 -1.4 17 -1.4 C22.175 7.25 32.525 24.55 37.7 33.2 C33.4 41.2 24.8 57.2 20.5 65.2 C24.725 65.2 33.175 65.2 37.4 65.2 C44.3 65.2 45.8 64.4 47.1 61.9 C48.3 59.7 49.3 56.8 50.1 52.4 C50.96667 52.6 52.05 52.85 52.7 53 C52.3 59.2 51.7 66.6 51.6 68.4 C37.76667 68.4 20.475 68.4 10.1 68.4 C10.1 67.8 10.1 66.6 10.1 66 C15.175 56.325 25.325 36.975 30.4 27.3 C25.225 18.825 14.875 1.875 9.7 -6.6 C9.7 -7.175 9.7 -8.325 9.7 -8.9 C20.15 -8.9 41.05 -8.9 51.5 -8.9 C52.5 -4.4 54.5 4.6 55.5 9.1 z" />
<glyph unicode="" horiz-adv-x="60" d="M4.7 21.4 C17.35 21.4 42.65 21.4 55.3 21.4 C55.3 23.35 55.3 27.25 55.3 29.2 C42.65 29.2 17.35 29.2 4.7 29.2 C4.7 27.25 4.7 23.35 4.7 21.4 z" />
<glyph unicode="" horiz-adv-x="16.7" d="M-15.3 -3.2 C-15.25 -3.3 -15.15 -3.5 -15.1 -3.6 C-13.95 -3.6 -11.65 -3.6 -10.5 -3.6 C-10.4 -3.5 -10.2 -3.3 -10.1 -3.2 C0.9 15.225 22.9 52.075 33.9 70.5 C33.85 70.6 33.75 70.8 33.7 70.9 C32.55 70.9 30.25 70.9 29.1 70.9 C28.975 70.8 28.725 70.6 28.6 70.5 C17.625 52.075 -4.325 15.225 -15.3 -3.2 z" />
<glyph unicode="" horiz-adv-x="25" d="M6.1 30 C6.1 26.5 9 23.6 12.5 23.6 C16 23.6 18.9 26.5 18.9 30 C18.9 33.5 16 36.4 12.5 36.4 C9 36.4 6.1 33.5 6.1 30 z" />
<glyph unicode="" horiz-adv-x="58.2" d="M56.7 87.3 C55.75 87.525 53.85 87.975 52.9 88.2 C49.7 66.55 43.3 23.25 40.1 1.6 C40.05 1.6 39.95 1.6 39.9 1.6 C36.15 12.225 28.65 33.475 24.9 44.1 C21.2 42.425 13.8 39.075 10.1 37.4 C10.375 36.6 10.925 35 11.2 34.2 C13.225 35.15 17.275 37.05 19.3 38 C24.275 24.5 34.225 -2.5 39.2 -16 C39.675 -15.75 40.625 -15.25 41.1 -15 C45 10.575 52.8 61.725 56.7 87.3 z" />
<glyph unicode="" horiz-adv-x="73.3" d="M68.8 28.4 C68.8 37.1 63.1 42.9 55.2 42.9 C47.2 43 42.6 37.2 38.4 32.4 C33.6 38.3 28.5 42.9 21.7 42.9 C13.2 42.9 7 36.7 7 27.9 C7 19.3 13.5 13.1 21 13.1 C28.4 13.1 33.3 18.1 38.1 23.8 C44.3 16.1 49 13.1 54.6 13.1 C61.9 13.1 68.8 18.9 68.8 28.3 C68.8 28.33333 68.8 28.375 68.8 28.4 zM21.7 18.4 C16.3 18.4 12.5 22.6 12.5 27.8 C12.5 33.3 15.7 37.8 21.2 37.8 C27.5 37.8 31.2 32.7 35.1 27.7 C31.5 23.5 27.3 18.4 21.8 18.4 C21.76667 18.4 21.725 18.4 21.7 18.4 zM54.6 37.8 C59.8 37.8 63.4 34 63.4 27.9 C63.4 23.4 60.3 18.4 54.8 18.4 C50 18.4 46.8 21.4 41.1 28.2 C44.1 31.5 48.7 37.8 54.5 37.8 C54.53333 37.8 54.575 37.8 54.6 37.8 z" />
<glyph unicode="" horiz-adv-x="42.5" d="M22.3 1 C22.8 -8.5 21.4 -14.7 18.6 -14.7 C16.5 -14.7 16.6 -9.8 13.8 -9.8 C11.2 -9.8 8.8 -11.8 8.9 -14.5 C8.9 -17 11.3 -19.1 14.7 -19.1 C23.3 -19.1 31.2 -10.4 29.6 25 C29 37.43333 28.25 52.975 27.8 62.3 C27.2 75.4 29.6 78.4 31.6 78.4 C33.8 78.4 33.4 73.9 36.6 73.9 C38.8 73.9 40.9 75.3 40.9 78.2 C40.9 81.2 37.6 82.7 35.1 82.7 C27.3 82.7 18.8 75.9 20.4 41.6 C21.03333 28.06667 21.825 11.15 22.3 1 z" />
<glyph unicode="" horiz-adv-x="51.7" d="M44.4 42.1 C42 37.9 39.8 35.3 36.3 35.3 C33.5 35.3 31.5 36.6 28.4 38.5 C26.1 39.8 23 42 18.7 42 C13.3 42 8.6 38.3 6 32.9 C7.23333 31.9 8.775 30.65 9.7 29.9 C11.8 33.5 14.1 36.7 18.1 36.7 C21 36.7 23.3 35.3 26 33.6 C30 31.2 32.6 29.9 36.1 29.9 C41.5 29.9 45.5 34 48 39.1 C46.8 40.1 45.3 41.35 44.4 42.1 zM44.4 26 C41.9 21.8 39.8 19.2 36.3 19.2 C33.4 19.2 31.2 20.8 28.4 22.4 C26.1 23.7 23.1 25.9 18.7 25.9 C13.3 25.9 8.6 22.2 6 16.7 C7.23333 15.73333 8.775 14.525 9.7 13.8 C11.7 17.3 14 20.6 18.1 20.6 C20.9 20.6 23.3 19.2 26 17.5 C30 15.1 32.6 13.8 36.1 13.8 C41.6 13.8 45.5 17.9 48 23 C46.8 24 45.3 25.25 44.4 26 z" />
<glyph unicode="" horiz-adv-x="53.1" d="M39.4 48.1 C38.325 48.55 36.175 49.45 35.1 49.9 C33.975 47.325 31.725 42.175 30.6 39.6 C25 39.6 13.8 39.6 8.2 39.6 C8.2 38.225 8.2 35.475 8.2 34.1 C13.275 34.1 23.425 34.1 28.5 34.1 C27.125 30.9 24.375 24.5 23 21.3 C19.3 21.3 11.9 21.3 8.2 21.3 C8.2 19.925 8.2 17.175 8.2 15.8 C11.35 15.8 17.65 15.8 20.8 15.8 C19.875 13.65 18.025 9.35 17.1 7.2 C18.175 6.775 20.325 5.925 21.4 5.5 C22.525 8.075 24.775 13.225 25.9 15.8 C31.575 15.8 42.925 15.8 48.6 15.8 C48.6 17.175 48.6 19.925 48.6 21.3 C43.45 21.3 33.15 21.3 28 21.3 C29.4 24.5 32.2 30.9 33.6 34.1 C37.35 34.1 44.85 34.1 48.6 34.1 C48.6 35.475 48.6 38.225 48.6 39.6 C45.375 39.6 38.925 39.6 35.7 39.6 C36.625 41.725 38.475 45.975 39.4 48.1 z" />
<glyph unicode="" horiz-adv-x="54.4" d="M49.7 10.2 C49.7 11.85 49.7 15.15 49.7 16.8 C41.2 21.075 24.2 29.625 15.7 33.9 C15.7 33.95 15.7 34.05 15.7 34.1 C24.2 38.325 41.2 46.775 49.7 51 C49.7 52.65 49.7 55.95 49.7 57.6 C39.8 52.4 20 42 10.1 36.8 C10.1 35.35 10.1 32.45 10.1 31 C20 25.8 39.8 15.4 49.7 10.2 zM50.1 0.8 C50.1 2.225 50.1 5.075 50.1 6.5 C40 6.5 19.8 6.5 9.7 6.5 C9.7 5.075 9.7 2.225 9.7 0.8 C19.8 0.8 40 0.8 50.1 0.8 z" />
<glyph unicode="" horiz-adv-x="54.4" d="M10.2 57.6 C10.2 55.95 10.2 52.65 10.2 51 C18.7 46.75 35.7 38.25 44.2 34 C44.2 33.95 44.2 33.85 44.2 33.8 C35.7 29.55 18.7 21.05 10.2 16.8 C10.2 15.15 10.2 11.85 10.2 10.2 C20.125 15.4 39.975 25.8 49.9 31 C49.9 32.45 49.9 35.35 49.9 36.8 C39.975 42 20.125 52.4 10.2 57.6 zM50 0.8 C50 2.225 50 5.075 50 6.5 C39.925 6.5 19.775 6.5 9.7 6.5 C9.7 5.075 9.7 2.225 9.7 0.8 C19.775 0.8 39.925 0.8 50 0.8 z" />
<glyph unicode="" horiz-adv-x="58.7" d="M54.2 33.1 C49.725 43.075 40.775 63.025 36.3 73 C34.675 73 31.425 73 29.8 73 C25.3 63.025 16.3 43.075 11.8 33.1 C16.25 23.2 25.15 3.4 29.6 -6.5 C31.275 -6.5 34.625 -6.5 36.3 -6.5 C40.775 3.4 49.725 23.2 54.2 33.1 zM48 33.1 C44.3 24.675 36.9 7.825 33.2 -0.6 C33.125 -0.6 32.975 -0.6 32.9 -0.6 C29.175 7.85 21.725 24.75 18 33.2 C21.725 41.625 29.175 58.475 32.9 66.9 C32.975 66.9 33.125 66.9 33.2 66.9 C36.9 58.45 44.3 41.55 48 33.1 z" />
<glyph unicode="" horiz-adv-x="76" d="M73.30054 34.00072 C72.75047 14.1697 56.64305 -0.626 37.24926 -0.29454 C27.76394 -0.12387 19.52687 3.52216 12.86951 10.36993 C6.21215 17.2177 3.05273 25.58171 2.79885 34.31244 C3.13736 55.22246 19.36466 70.86302 39.30148 70.20857 C58.42727 69.58091 73.85062 53.91074 73.30054 34.00072 zM38.48341 67.32418 C20.52829 67.56396 5.72554 52.93752 5.78902 34.91893 C5.70439 17.6902 19.75253 2.65473 38.08143 2.65473 L38.20132 2.65473 C55.99424 2.65473 70.40911 17.11191 70.395 34.91893 C70.41616 53.0151 55.90256 67.09146 38.48341 67.32418 zM38.66677 50.45697 C33.70196 51.1481 29.15324 49.99858 24.75966 47.63606 C21.02195 45.63321 18.59597 42.49494 16.54375 38.98291 C14.91467 36.20431 14.17418 33.12951 13.86388 29.93482 C13.58884 27.17033 13.77925 24.44815 14.16008 21.71186 C14.24922 21.1264 14.30424 20.62897 14.3452 20.03818 C14.38616 19.44739 14.40031 18.94713 14.3928 18.35497 C14.39988 18.21984 14.39383 18.10499 14.3726 17.97136 C14.35137 17.83772 14.32152 17.72665 14.27291 17.60038 C14.06986 17.762 13.91911 17.92536 13.77428 18.14071 C13.62944 18.35607 13.53501 18.5573 13.4619 18.80632 C12.34059 21.97279 11.02181 25.08285 10.54226 28.43269 C10.34118 29.78553 10.2438 30.9389 10.21521 32.3063 C10.18661 33.67371 10.2357 34.83014 10.38005 36.1902 C10.55195 37.86122 10.79979 39.2622 11.2116 40.89078 C11.62341 42.51936 12.0713 43.86976 12.71436 45.42164 C13.54653 47.40192 14.82299 49.09447 16.21229 50.7165 C19.68202 54.77156 24.19548 57.00008 29.32954 58.02267 C34.20973 59.00293 38.86423 58.06498 43.31423 55.9634 C47.29172 54.08044 49.79528 50.87165 51.31857 46.83069 C51.47513 46.38146 51.57864 45.99194 51.66576 45.52426 C51.75287 45.05657 51.79654 44.65591 51.81223 44.18044 C50.90249 44.88567 50.11263 45.52037 49.30867 46.13392 C46.1563 48.5458 42.58079 49.921 38.66677 50.45697 zM23.9416 41.08263 C22.93312 35.15166 24.36474 29.76371 27.57353 24.7989 C29.40007 21.96388 31.99531 19.94693 34.81622 18.17681 C37.63714 16.40668 40.71193 15.72966 43.97009 15.43347 C49.59781 14.93276 54.55557 16.67467 59.25944 19.56611 C60.90968 20.58164 62.34129 21.88631 63.94216 22.95826 C64.29839 23.18768 64.60831 23.36724 64.98452 23.56217 C65.36072 23.7571 65.68614 23.90674 66.079 24.06546 C66.08631 23.95365 66.07197 23.85745 66.03234 23.75264 C65.99272 23.64782 65.93984 23.56619 65.86038 23.48718 C64.76728 21.82284 63.35682 20.41238 62.08036 18.90319 C58.79399 15.04559 54.6543 12.40804 49.95043 10.63791 C46.91089 9.48839 43.78673 8.64212 40.49331 8.72674 C36.40299 8.83958 32.5877 9.87627 29.12503 12.12595 C26.2477 13.9948 23.72298 16.20922 21.88233 19.13592 C20.95296 20.61549 20.29955 21.9492 19.70004 23.59037 C19.10052 25.23154 18.74039 26.67238 18.49723 28.40262 C18.20809 30.43368 18.14462 32.47179 18.63828 34.46053 C19.44224 37.72574 20.93732 40.62423 23.4973 42.89507 C23.57818 42.99209 23.65984 43.06324 23.76702 43.13007 C23.8742 43.1969 23.97403 43.23892 24.09675 43.26884 C24.11978 42.88313 24.11795 42.55609 24.09059 42.17066 C24.06324 41.78524 24.01887 41.46122 23.9416 41.08263 zM52.15779 28.91038 C54.23116 31.85119 55.31016 35.1305 55.7192 38.6778 C55.93076 40.51845 56.05065 42.35204 55.81793 44.18563 C55.59931 45.87818 54.99986 47.47905 54.38631 49.06582 C53.32142 51.788 51.8757 54.29156 49.85169 56.40725 C48.86747 57.4369 47.96977 58.24339 46.84095 59.11209 C45.71213 59.9808 44.70264 60.64202 43.45527 61.32974 C41.53705 62.40169 39.54125 63.31143 37.54546 64.20707 C36.88959 64.49622 36.42414 65.01809 35.79649 65.56111 C36.36549 65.54256 36.84516 65.50157 37.40906 65.42332 C37.97296 65.34507 38.44567 65.2539 38.99823 65.11682 C41.29727 64.62316 43.63158 64.19297 45.85305 63.38196 C48.71628 62.35232 51.29036 60.79377 53.70929 58.96723 C55.10785 57.9328 56.21708 56.96098 57.4264 55.71056 C58.63572 54.46014 59.56994 53.31907 60.55706 51.88673 C61.84058 49.99672 62.53876 47.83872 63.27925 45.70188 C63.46649 45.12257 63.5903 44.62214 63.69478 44.02236 C63.79926 43.42258 63.85196 42.90976 63.87164 42.30126 C64.13257 37.85832 63.62481 33.52117 61.52323 29.53663 C59.25239 25.22768 56.00834 21.80732 51.58656 19.63522 C50.61227 19.16957 49.74821 18.86084 48.69944 18.60365 C47.65067 18.34645 46.74181 18.22039 45.66264 18.18245 C44.5963 18.10803 43.68751 18.14846 42.632 18.31729 C41.57648 18.48613 40.70043 18.73118 39.71051 19.13451 C39.59606 19.16829 39.50328 19.21064 39.40277 19.27497 C39.30225 19.33929 39.22494 19.40581 39.14633 19.49558 C40.18301 19.92577 41.16328 20.35596 42.1506 20.75089 C46.33966 22.42228 49.5696 25.25025 52.15779 28.91038 z" />
</font>
</svg>
