<?xml version="1.0" standalone="no"?>
<svg>
<font id="PalatinoLTStd-BoldItalic" horiz-adv-x="25" >
<font-face units-per-em="100" ascent="80" descent="-20" />
<glyph unicode=" " horiz-adv-x="25" d="" />
<glyph unicode="!" horiz-adv-x="33.3" d="M17.9 21.8 C18.9 25.9 19.9 30 21.2 34 C24.86667 45.53333 29.45 59.95 32.2 68.6 C31.9 68.825 31.3 69.275 31 69.5 C27.825 68.775 21.475 67.325 18.3 66.6 C17.975 66.6 17.325 66.6 17 66.6 C17 65.775 17 64.125 17 63.3 C15.925 52.55 13.775 31.05 12.7 20.3 C13.025 20.075 13.675 19.625 14 19.4 C14.975 20 16.925 21.2 17.9 21.8 zM13.2 13.5 C8.3 13.5 5.8 8.9 5.8 4.5 C5.8 0.7 8.7 -1.7 12.4 -1.7 C17.4 -1.7 19.7 3 19.7 7.4 C19.7 11.4 17 13.5 13.2 13.5 z" />
<glyph unicode="&#x22;" horiz-adv-x="50" d="M17.1 46.7 C20.15 51 26.25 59.6 29.3 63.9 C30 64.9 30.3 66.4 30.3 67.7 C30.3 70 28.5 72 25.6 72 C22.8 72 21.4 69.7 20.7 67.7 C18.36667 60.7 15.45 51.95 13.7 46.7 C14.55 46.7 16.25 46.7 17.1 46.7 zM36.1 46.7 C39.15 51 45.25 59.6 48.3 63.9 C49 64.9 49.3 66.4 49.3 67.7 C49.3 70 47.5 72 44.6 72 C41.8 72 40.4 69.7 39.7 67.7 C37.36667 60.7 34.45 51.95 32.7 46.7 C33.55 46.7 35.25 46.7 36.1 46.7 z" />
<glyph unicode="#" horiz-adv-x="50" d="M47 29 C44.65 29 39.95 29 37.6 29 C38 31.675 38.8 37.025 39.2 39.7 C41.8 39.7 47 39.7 49.6 39.7 C49.6 41.575 49.6 45.325 49.6 47.2 C47.275 47.2 42.625 47.2 40.3 47.2 C41.025 52.225 42.475 62.275 43.2 67.3 C41.325 67.3 37.575 67.3 35.7 67.3 C34.975 62.275 33.525 52.225 32.8 47.2 C30.125 47.2 24.775 47.2 22.1 47.2 C22.85 52.225 24.35 62.275 25.1 67.3 C23.225 67.3 19.475 67.3 17.6 67.3 C16.85 62.275 15.35 52.225 14.6 47.2 C11.75 47.2 6.05 47.2 3.2 47.2 C3.2 45.325 3.2 41.575 3.2 39.7 C5.775 39.7 10.925 39.7 13.5 39.7 C13.1 37.025 12.3 31.675 11.9 29 C9.025 29 3.275 29 0.4 29 C0.4 27.125 0.4 23.375 0.4 21.5 C2.975 21.5 8.125 21.5 10.7 21.5 C9.9 16.125 8.3 5.375 7.5 0 C9.375 0 13.125 0 15 0 C15.8 5.375 17.4 16.125 18.2 21.5 C20.9 21.5 26.3 21.5 29 21.5 C28.2 16.125 26.6 5.375 25.8 0 C27.675 0 31.425 0 33.3 0 C34.1 5.375 35.7 16.125 36.5 21.5 C39.125 21.5 44.375 21.5 47 21.5 C47 23.375 47 27.125 47 29 zM31.7 39.7 C31.3 37.025 30.5 31.675 30.1 29 C27.425 29 22.075 29 19.4 29 C19.8 31.675 20.6 37.025 21 39.7 C23.675 39.7 29.025 39.7 31.7 39.7 z" />
<glyph unicode="$" horiz-adv-x="50" d="M4.6 18.3 C4.2 13.7 3.6 9.1 2 4 C6.7 0.8 12.2 0.1 17.4 -0.7 C16.76667 -4.06667 15.975 -8.275 15.5 -10.8 C16.575 -10.8 18.725 -10.8 19.8 -10.8 C20.225 -8.3 21.075 -3.3 21.5 -0.8 C33.4 -0.3 46 9.9 46 22.5 C46 33.7 38.3 37.1 28.6 38.9 C29.93333 46.6 31.6 56.225 32.6 62 C38.6 60.9 42 58 42 56.6 C42 54.23333 42 51.275 42 49.5 C42.75 49.5 44.25 49.5 45 49.5 C45.6 54 46.2 58.7 47.7 63 C43.2 65.1 40.3 67.2 33.4 67.2 C33.73333 69.36667 34.15 72.075 34.4 73.7 C33.45 73.7 31.55 73.7 30.6 73.7 C30.325 72 29.775 68.6 29.5 66.9 C16.8 65.3 6.9 56.8 6.9 43.4 C6.9 34 14.3 29.6 22.7 28.5 C21.23333 20.36667 19.4 10.2 18.3 4.1 C15.6 4.9 13.1 5.7 10.6 7.2 C8.3 8.5 7.7 9.1 7.7 11.3 C7.7 11.63333 7.7 12.05 7.7 12.3 C7.775 13.8 7.925 16.8 8 18.3 C7.15 18.3 5.45 18.3 4.6 18.3 zM26.5 27.5 C31.9 26.2 36.1 23.7 36.1 17.5 C36.1 9.9 30.5 3.9 22.9 3.9 C22.7 3.9 22.45 3.9 22.3 3.9 C23.35 9.8 25.45 21.6 26.5 27.5 zM24.7 39.9 C18.4 41.4 15.7 45.2 15.7 48.4 C15.7 56.2 20.8 62 28.7 62 C27.36667 54.63333 25.7 45.425 24.7 39.9 z" />
<glyph unicode="%" horiz-adv-x="88.9" d="M24.6 67.2 C14.7 67.2 5.6 61.6 5.6 49.6 C5.6 42.8 9.1 35 19.6 35 C28.7 35 37.8 40.6 37.8 52.6 C37.8 59.4 34.3 67.2 24.6 67.2 zM23.9 64.4 C26.2 64.4 29.2 62.6 29.2 57.5 C29.2 52.7 26.9 37.8 19.5 37.8 C17.2 37.8 14.2 39.6 14.2 44.7 C14.2 49.5 16.5 64.4 23.9 64.4 zM65.8 31.8 C55.9 31.8 46.8 26.2 46.8 14.2 C46.8 7.4 50.3 -0.4 60.8 -0.4 C69.9 -0.4 79 5.2 79 17.2 C79 24 75.5 31.8 65.8 31.8 zM65.1 29 C67.4 29 70.4 27.2 70.4 22.1 C70.4 17.3 68.1 2.4 60.7 2.4 C58.4 2.4 55.4 4.2 55.4 9.3 C55.4 14.1 57.7 29 65.1 29 zM22.9 -1.7 C33.95 16.15 56.05 51.85 67.1 69.7 C65.825 69.7 63.275 69.7 62 69.7 C50.9 51.85 28.7 16.15 17.6 -1.7 C18.925 -1.7 21.575 -1.7 22.9 -1.7 z" />
<glyph unicode="&#x26;" horiz-adv-x="83.3" d="M53.1 53.9 C53.2 58.3 54.1 62.5 55.2 66.7 C51.8 68.8 47.4 69.5 43.5 69.5 C37.6 69.5 32.3 66.9 27.7 63.4 C23 59.9 18.4 55.6 18.4 49.1 C18.4 43.6 22.3 39.3 27.7 38.7 C27.7 38.63333 27.7 38.55 27.7 38.5 C17.8 35.5 7.4 29.4 7.4 17.6 C7.4 3.3 19.6 -1.7 31.8 -1.7 C45.1 -1.7 67.8 5.6 67.8 22.2 C67.8 26 65.2 29 61.9 29.6 C61.9 29.66667 61.9 29.75 61.9 29.8 C63.8 30.15 67.6 30.85 69.5 31.2 C75.2 32.3 81.1 35.6 81.1 44.5 C81.1 48.2 78.7 51.1 75.1 52.6 C74.63333 51.76667 74.05 50.725 73.7 50.1 C75.7 49.4 77.3 47.7 77.3 45.6 C77.3 40.9 73.7 39 65.7 37.8 C61.7 37.2 56.7 36.45 53.7 36 C49.3 35.3 43.6 33.1 41.3 30.4 C40.96667 26.9 40.55 22.525 40.3 19.9 C40.9 19.9 42.1 19.9 42.7 19.9 C42.8 20.275 43 21.025 43.1 21.4 C44.2 25.4 46.1 27.8 50 27.8 C55.3 27.8 58.7 24.6 58.7 19.7 C58.7 9 48.3 3.6 38.9 3.6 C28.5 3.6 19.1 8.8 19.1 20.4 C19.1 31.2 27.9 37.1 37.9 37.1 C38.8 37.1 39.7 37.1 40.6 36.8 C41.06667 38.7 41.65 41.075 42 42.5 C41.1 42.5 40.2 42.4 39.4 42.4 C33.7 42.4 28.2 46.2 28.2 52.3 C28.2 59.1 32.8 64 39.7 64 C43.1 64 46.6 62.9 50.1 59.9 C50.1 57.9 50.1 55.4 50.1 53.9 C50.85 53.9 52.35 53.9 53.1 53.9 z" />
<glyph unicode="'" horiz-adv-x="25" d="M16.1 46.7 C19.15 51 25.25 59.6 28.3 63.9 C29 64.9 29.3 66.4 29.3 67.7 C29.3 70 27.5 72 24.6 72 C21.8 72 20.4 69.7 19.7 67.7 C17.36667 60.7 14.45 51.95 12.7 46.7 C13.55 46.7 15.25 46.7 16.1 46.7 z" />
<glyph unicode="(" horiz-adv-x="33.3" d="M34.4 72.3 C32.3 70.5 28.1 66.9 26 65.1 C14.3 54.9 5.8 41.2 5.8 25.3 C5.8 9.9 13.3 -1.4 22.6 -12.9 C23.46667 -12.2 24.55 -11.325 25.2 -10.8 C18.6 -1.4 16.8 7.7 16.8 19 C16.8 37.5 23.4 56.8 36.8 69.8 C36 70.63333 35 71.675 34.4 72.3 z" />
<glyph unicode=")" horiz-adv-x="33.3" d="M1.2 -12.9 C3.3 -11.1 7.5 -7.5 9.6 -5.7 C21.3 4.5 29.8 18.2 29.8 34.1 C29.8 49.5 22.3 60.8 13 72.3 C12.13333 71.6 11.05 70.725 10.4 70.2 C17 60.8 18.8 51.7 18.8 40.4 C18.8 21.9 12.2 2.6 -1.2 -10.4 C-0.4 -11.23333 0.6 -12.275 1.2 -12.9 z" />
<glyph unicode="*" horiz-adv-x="44.4" d="M35.9 67.3 C32.7 67.7 29.7 68.4 26.7 69.5 C26.43333 69.26667 26.1 68.975 25.9 68.8 C25.9 68.5 25.9 67.9 25.9 67.6 C25.9 63.8 25.5 59.1 24.6 54.6 C20.7 58.5 17.6 62.3 14.4 66 C13.86667 66 13.2 66 12.8 66 C11.8 63.8 10 60.8 8.4 58.3 C8.5 58.06667 8.625 57.775 8.7 57.6 C12.4 56.6 18.6 54.4 22.5 51.7 C18.4 49.6 13 47.4 8.8 46.4 C8.66667 46.16667 8.5 45.875 8.4 45.7 C9.6 44.4 11.4 41.4 12.3 38.7 C12.93333 38.43333 13.725 38.1 14.2 37.9 C16.8 41.6 21.4 46.4 24.3 48.4 C25.2 43 25.4 37.8 25.4 33.9 C25.9 33.66667 26.525 33.375 26.9 33.2 C29 34.4 33 36.2 35.4 36.6 C35.46667 37 35.55 37.5 35.6 37.8 C32 41.8 30 45.8 27.6 49.6 C32.4 49.2 38.2 48.2 43 46.2 C43.3 46.56667 43.675 47.025 43.9 47.3 C43.2 49.6 42.8 52 42.8 54.2 C42.8 54.8 42.8 55.4 42.9 56 C42.7 56.1 42.45 56.225 42.3 56.3 C39.6 55.2 33 54.2 28.2 53.2 C30.4 57.8 33.8 63.4 36.4 65.9 C36.23333 66.36667 36.025 66.95 35.9 67.3 z" />
<glyph unicode="+" horiz-adv-x="60.6" d="M25.9 29.2 C20.675 29.2 10.225 29.2 5 29.2 C5 27 5 22.6 5 20.4 C10.225 20.4 20.675 20.4 25.9 20.4 C25.9 15.175 25.9 4.725 25.9 -0.5 C28.1 -0.5 32.5 -0.5 34.7 -0.5 C34.7 4.725 34.7 15.175 34.7 20.4 C39.925 20.4 50.375 20.4 55.6 20.4 C55.6 22.6 55.6 27 55.6 29.2 C50.375 29.2 39.925 29.2 34.7 29.2 C34.7 34.425 34.7 44.875 34.7 50.1 C32.5 50.1 28.1 50.1 25.9 50.1 C25.9 44.875 25.9 34.425 25.9 29.2 z" />
<glyph unicode="," horiz-adv-x="25" d="M-3.3 -15 C-2.85 -15.35 -1.95 -16.05 -1.5 -16.4 C-0.175 -15.5 2.475 -13.7 3.8 -12.8 C10.8 -5.1 16.3 3.8 20.8 13.2 C20.26667 13.7 19.6 14.325 19.2 14.7 C14.7 13 10.6 12.1 6.6 11.2 C6 6.6 3 -3.1 0.8 -7.2 C-0.56667 -9.8 -2.275 -13.05 -3.3 -15 z" />
<glyph unicode="-" horiz-adv-x="38.9" d="M19.6 20.3 C24.1 20.3 28.7 19.9 33.2 19.8 C33.9 23 34.6 26.4 36.2 28.8 C35.96667 29.1 35.675 29.475 35.5 29.7 C32.5 29.7 26.6 29.4 21.2 29.4 C19.4 29.4 17.15 29.4 15.8 29.4 C13.7 29.4 10 29.4 6.6 30 C6.1 26.8 4.9 23.8 3.7 20.8 C3.9 20.5 4.15 20.125 4.3 19.9 C6.9 20.1 9.4 20.3 12 20.3 C14.53333 20.3 17.7 20.3 19.6 20.3 z" />
<glyph unicode="." horiz-adv-x="25" d="M12.2 13.5 C7.3 13.5 4.8 8.9 4.8 4.5 C4.8 0.7 7.7 -1.7 11.4 -1.7 C16.4 -1.7 18.7 3 18.7 7.4 C18.7 11.4 16 13.5 12.2 13.5 z" />
<glyph unicode="/" horiz-adv-x="31.5" d="M22.5 72 C16.9 53.575 5.7 16.725 0.1 -1.7 C2.35 -1.7 6.85 -1.7 9.1 -1.7 C14.7 16.725 25.9 53.575 31.5 72 C29.25 72 24.75 72 22.5 72 z" />
<glyph unicode="0" horiz-adv-x="50" d="M31.1 68.3 C27.8 68.3 23.5 67.3 20.8 65.2 C8.6 55.7 4.2 37 4.2 22.3 C4.2 10.4 8 -1.7 22.1 -1.7 C25.4 -1.7 29.7 -0.7 32.4 1.4 C44.6 10.9 49 29.6 49 44.3 C49 56.2 45.2 68.3 31.1 68.3 zM31.2 64.6 C36.6 64.6 37.6 58.9 37.6 54.6 C37.6 46.1 34.9 30.6 32.9 22 C31.7 17 29.7 2 22 2 C16.6 2 15.6 7.8 15.6 12.1 C15.6 20.6 18.3 36.1 20.3 44.7 C21.5 49.7 23.5 64.6 31.2 64.6 z" />
<glyph unicode="1" horiz-adv-x="50" d="M4.1 -0.3 C10.6 -0.2 17 0 23.5 0 C29.9 0 36.4 -0.2 42.8 -0.3 C43 0.8 43.25 2.175 43.4 3 C41.475 3.075 37.625 3.225 35.7 3.3 C31 3.5 30 4.4 30 6.7 C30 8.1 30.2 9.1 30.4 10 C33.36667 26.86667 37.075 47.95 39.3 60.6 C39.7 62.7 40.1 64.8 40.6 66.9 C40.03333 67.2 39.325 67.575 38.9 67.8 C35.5 66.1 32.1 64.3 28.6 63.2 C22.06667 61.2 13.9 58.7 9 57.2 C8.6 55.625 7.8 52.475 7.4 50.9 C7.625 50.675 8.075 50.225 8.3 50 C12.875 51.95 22.025 55.85 26.6 57.8 C24.4 45.65 20 21.35 17.8 9.2 C17.5 7.4 17.1 6 16.4 4.9 C15.8 3.9 12.6 3.4 10 3.3 C8.2 3.2 5.95 3.075 4.6 3 C4.475 2.175 4.225 0.525 4.1 -0.3 z" />
<glyph unicode="2" horiz-adv-x="50" d="M0.1 -0.3 C7.1 -0.2 14 0 21 0 C28 0 35.1 -0.2 42.1 -0.3 C42.9 2.9 43.7 6.7 45.4 10 C45.13333 10.2 44.8 10.45 44.6 10.6 C41.9 10.1 39.2 9.8 36.4 9.8 C28.86667 9.8 19.45 9.8 13.8 9.8 C19.325 15.35 30.375 26.45 35.9 32 C40.9 37.5 45 43.4 45 51.2 C45 62.4 36.9 68.3 26.4 68.3 C20.5 68.3 15.6 66 12 63.2 C10.13333 58.66667 7.8 53 6.4 49.6 C7.15 49.375 8.65 48.925 9.4 48.7 C9.75 49.3 10.45 50.5 10.8 51.1 C13.7 56 16 59.3 22.3 59.3 C29 59.3 32.8 55.1 32.8 48.5 C32.8 40 26.1 27.4 9.8 11.6 C6.56667 8.46667 2.525 4.55 0.1 2.2 C0.1 1.575 0.1 0.325 0.1 -0.3 z" />
<glyph unicode="3" horiz-adv-x="50" d="M0.8 2.4 C6.7 -0.6 11.8 -1.7 16.8 -1.7 C30.8 -1.7 44.8 7 44.8 22.3 C44.8 31.6 38.1 36.4 29.4 37.1 C29.43333 37.23333 29.475 37.4 29.5 37.5 C36.8 40.2 45 45.9 45 54.6 C45 64.6 36.8 68.3 27.9 68.3 C22.9 68.3 17.6 66.8 13.7 63.7 C11.83333 60 9.5 55.375 8.1 52.6 C8.825 52.325 10.275 51.775 11 51.5 C13.4 56.6 17.5 60.3 23.4 60.3 C29 60.3 33.1 57.5 33.1 51.5 C33.1 43.3 27.4 37.8 19.2 37.8 C18.6 37.8 17.85 37.8 17.4 37.8 C16.5 37.8 15.5 37.8 14.8 38.2 C14.26667 36.5 13.6 34.375 13.2 33.1 C13.35 32.95 13.65 32.65 13.8 32.5 C16 33.1 18.9 33.9 21.1 33.9 C29.5 33.9 32 28 32 20.6 C32 12.7 27.2 2 17.9 2 C10.7 2 6.7 6.3 6.7 13.3 C6.7 15.5 7 17 7.2 18.3 C6.06667 18.36667 4.65 18.45 3.8 18.5 C3.05 14.475 1.55 6.425 0.8 2.4 z" />
<glyph unicode="4" horiz-adv-x="50" d="M24.9 17.6 C24.55 15.575 23.85 11.525 23.5 9.5 C23.2 7.7 22.7 6.1 22.1 5 C21.6 4 19.6 3.4 16.6 3.3 C14.5 3.2 11.875 3.075 10.3 3 C10.175 2.175 9.925 0.525 9.8 -0.3 C15.7 -0.2 21.7 0 27.6 0 C33.5 0 39.5 -0.2 45.4 -0.3 C45.56667 0.8 45.775 2.175 45.9 3 C43.875 3.075 39.825 3.225 37.8 3.3 C35.8 3.4 34.6 4.8 34.6 6 C34.6 7 34.7 8.1 34.9 9.3 C35.33333 12.06667 35.875 15.525 36.2 17.6 C38.875 17.6 44.225 17.6 46.9 17.6 C47.35 19.525 48.25 23.375 48.7 25.3 C48.6 25.35 48.4 25.45 48.3 25.5 C45.625 25.425 40.275 25.275 37.6 25.2 C39.525 35.725 43.375 56.775 45.3 67.3 C44.975 67.55 44.325 68.05 44 68.3 C40.1 66.6 36 65.5 31.8 65.2 C20.2 51 9.6 36 0.8 21.4 C0.63333 20.13333 0.425 18.55 0.3 17.6 C6.45 17.6 18.75 17.6 24.9 17.6 zM8.6 25.2 C15.2 36.6 23.2 47.9 32.2 59.3 C32.26667 59.23333 32.35 59.15 32.4 59.1 C30.9 50.625 27.9 33.675 26.4 25.2 C21.95 25.2 13.05 25.2 8.6 25.2 z" />
<glyph unicode="5" horiz-adv-x="50" d="M11.2 30.2 C14.3 34.4 17.5 36.2 21.9 36.2 C29.3 36.2 32.8 30.8 32.8 23.9 C32.8 15.5 28.7 2 18.3 2 C10.4 2 6.8 7.6 6.8 14.9 C6.8 15.8 6.9 16.5 7 17.3 C6.03333 17.46667 4.825 17.675 4.1 17.8 C3.4 12.8 2.6 7.9 1.4 3 C6.1 -0.4 12.5 -1.7 18.3 -1.7 C33.2 -1.7 45.6 9.4 45.6 24.7 C45.6 35.8 37.6 41.7 27.2 41.7 C21.8 41.7 17.3 40.4 13.4 36.8 C13.33333 36.86667 13.25 36.95 13.2 37 C14.25 41.9 16.35 51.7 17.4 56.6 C19.95 56.6 25.05 56.6 27.6 56.6 C32.9 56.6 38.2 56.8 43.5 57 C45.03333 59.96667 46.95 63.675 48.1 65.9 C47.95 66.125 47.65 66.575 47.5 66.8 C45.175 66.8 40.525 66.8 38.2 66.8 C30.4 66.8 22.7 67 15 67.5 C14.83333 67.23333 14.625 66.9 14.5 66.7 C12.6 54.9 10.5 43.2 8.1 31.4 C9.13333 31 10.425 30.5 11.2 30.2 z" />
<glyph unicode="6" horiz-adv-x="50" d="M48.8 66.9 C46.7 67.9 43.4 68.3 41.1 68.3 C30.4 68.3 19.3 59.8 13.4 51.4 C6.7 41.9 3.9 30.9 3.9 19.4 C3.9 8.1 8.9 -1.7 21.5 -1.7 C36 -1.7 47.6 11.9 47.6 25.9 C47.6 34.9 41.7 41.5 32.5 41.5 C26.6 41.5 21.6 37.8 17.9 33.7 C17.83333 33.76667 17.75 33.85 17.7 33.9 C18.7 38.8 20.3 46.1 23.4 52.2 C26.5 58.3 30.9 63.1 37.4 63.1 C40.4 63.1 43.8 61.8 45.8 59.6 C46.06667 59.73333 46.4 59.9 46.6 60 C47.15 61.725 48.25 65.175 48.8 66.9 zM24.8 2.9 C18 2.9 15.9 8.2 15.9 14.1 C15.9 21.8 17.3 34.8 27.5 34.8 C33.9 34.8 35.1 28.2 35.1 23.2 C35.1 17.1 32.9 2.9 24.8 2.9 z" />
<glyph unicode="7" horiz-adv-x="50" d="M7.6 -0.3 C9.5 -0.2 11.4 0 13.4 0 C15.3 0 17.2 -0.2 19.1 -0.3 C27 19.6 44 48.4 48.6 54.8 C50.53333 57.5 52.95 60.875 54.4 62.9 C54.4 63.875 54.4 65.825 54.4 66.8 C47.9 66.8 34.9 66.8 28.4 66.8 C22.3 66.8 16.1 67.2 10 67.4 C9.8 67.1 9.55 66.725 9.4 66.5 C8.8 62.8 8.1 59 7.3 55.6 C7.56667 55.4 7.9 55.15 8.1 55 C11.1 55.4 14 55.7 17 55.7 C25.96667 55.7 37.175 55.7 43.9 55.7 C41.925 52.975 37.975 47.525 36 44.8 C30.7 37.4 16.6 16.1 6.9 1 C7.13333 0.56667 7.425 0.025 7.6 -0.3 z" />
<glyph unicode="8" horiz-adv-x="50" d="M19.1 32.8 C18.25 32.325 16.55 31.375 15.7 30.9 C8.8 27.1 2.6 21.7 2.6 13.1 C2.6 2.9 10.7 -1.7 19.9 -1.7 C26.1 -1.7 32.1 1.3 36.9 5.1 C42.6 9.6 45.4 15.2 45.4 22.5 C45.4 29 40.4 33.5 35.2 36.5 C34.73333 36.76667 34.15 37.1 33.8 37.3 C35.125 38.2 37.775 40 39.1 40.9 C44.4 44.5 48.4 48.8 48.4 55.4 C48.4 64.4 41.1 68.3 33.1 68.3 C27 68.3 21.8 65.7 17.3 61.8 C12.7 57.9 9.7 53.1 9.7 46.9 C9.7 40.7 12.7 36.9 17.7 33.7 C18.16667 33.4 18.75 33.025 19.1 32.8 zM23.6 30 C28.2 27.7 34.8 23.4 34.8 15.5 C34.8 8.3 29.1 2.9 22 2.9 C15.6 2.9 10.8 7.4 10.8 13.8 C10.8 21.8 15.1 26.7 21.8 30.9 C22.4 30.6 23.15 30.225 23.6 30 zM30.2 63.7 C37.1 63.7 40.4 59.6 40.4 53 C40.4 46.5 35.6 42.6 30.9 39 C25.8 41.8 19.4 45.2 19.4 51.9 C19.4 58.3 23.4 63.7 30.2 63.7 z" />
<glyph unicode="9" horiz-adv-x="50" d="M30.8 68.3 C26.7 68.3 21.6 65.9 18.3 63.7 C14.1 60.9 11.8 59.3 9.1 55 C6.5 50.9 5.6 45.8 5.6 41.1 C5.6 32.1 10.5 24.6 20.2 24.6 C26.4 24.6 31.3 28 34.9 32.7 C34.96667 32.63333 35.05 32.55 35.1 32.5 C34.1 28.2 32.6 20.9 29.9 14.6 C27.2 8.3 23 3.2 16.6 3.2 C11.6 3.2 7 6.1 5 11.1 C4.23333 10.76667 3.275 10.35 2.7 10.1 C3.6 6.7 4.5 3.3 5.2 -0.2 C8 -1 11.3 -1.7 13.7 -1.7 C22.2 -1.7 29.9 3.3 35.4 9.4 C44.1 19.1 49.1 32.8 49.1 45.8 C49.1 58 44.2 68.3 30.8 68.3 zM28.5 63.4 C35 63.4 36.6 56.1 36.6 51 C36.6 43.9 35.3 31.7 25.8 31.7 C18.7 31.7 17.6 39.7 17.6 45.2 C17.6 52.2 19.6 63.4 28.5 63.4 z" />
<glyph unicode=":" horiz-adv-x="25" d="M17.1 45.2 C12.2 45.2 9.7 40.6 9.7 36.2 C9.7 32.4 12.6 30 16.3 30 C21.3 30 23.6 34.7 23.6 39.1 C23.6 43.1 20.9 45.2 17.1 45.2 zM11.2 13.5 C6.3 13.5 3.8 8.9 3.8 4.5 C3.8 0.7 6.7 -1.7 10.4 -1.7 C15.4 -1.7 17.7 3 17.7 7.4 C17.7 11.4 15 13.5 11.2 13.5 z" />
<glyph unicode=";" horiz-adv-x="25" d="M-3.3 -15 C-2.85 -15.35 -1.95 -16.05 -1.5 -16.4 C-0.175 -15.5 2.475 -13.7 3.8 -12.8 C10.8 -5.1 16.3 3.8 20.8 13.2 C20.26667 13.7 19.6 14.325 19.2 14.7 C14.7 13 10.6 12.1 6.6 11.2 C6 6.6 3 -3.1 0.8 -7.2 C-0.56667 -9.8 -2.275 -13.05 -3.3 -15 zM18.2 45.2 C13.3 45.2 10.8 40.6 10.8 36.2 C10.8 32.4 13.7 30 17.4 30 C22.4 30 24.7 34.7 24.7 39.1 C24.7 43.1 22 45.2 18.2 45.2 z" />
<glyph unicode="&#x3c;" horiz-adv-x="60.6" d="M17.4 24.8 C27 29.15 46.2 37.85 55.8 42.2 C55.8 44.575 55.8 49.325 55.8 51.7 C43.075 46 17.625 34.6 4.9 28.9 C4.9 26.85 4.9 22.75 4.9 20.7 C17.625 15 43.075 3.6 55.8 -2.1 C55.8 0.275 55.8 5.025 55.8 7.4 C46.2 11.75 27 20.45 17.4 24.8 z" />
<glyph unicode="=" horiz-adv-x="60.6" d="M55.5 39 C42.9 39 17.7 39 5.1 39 C5.1 36.8 5.1 32.4 5.1 30.2 C17.7 30.2 42.9 30.2 55.5 30.2 C55.5 32.4 55.5 36.8 55.5 39 zM55.5 19.4 C42.9 19.4 17.7 19.4 5.1 19.4 C5.1 17.2 5.1 12.8 5.1 10.6 C17.7 10.6 42.9 10.6 55.5 10.6 C55.5 12.8 55.5 17.2 55.5 19.4 z" />
<glyph unicode="&#x3e;" horiz-adv-x="60.6" d="M4.8 7.4 C4.8 5.025 4.8 0.275 4.8 -2.1 C17.525 3.6 42.975 15 55.7 20.7 C55.7 22.75 55.7 26.85 55.7 28.9 C42.975 34.6 17.525 46 4.8 51.7 C4.8 49.325 4.8 44.575 4.8 42.2 C14.4 37.85 33.6 29.15 43.2 24.8 C33.6 20.45 14.4 11.75 4.8 7.4 z" />
<glyph unicode="?" horiz-adv-x="44.4" d="M22.3 20.7 C21.1 21.9 20.3 23.2 20.3 25 C20.3 28.5 24.9 31.4 27.3 33.2 C30.73333 35.73333 35.025 38.9 37.6 40.8 C41.4 43.6 45 47.5 45 54.4 C45 64.4 37 69.5 27.8 69.5 C21.8 69.5 18.5 68.1 13.4 65.2 C12.4 60.8 11 56.6 9.1 52.6 C10.2 52.46667 11.575 52.3 12.4 52.2 C12.575 52.625 12.925 53.475 13.1 53.9 C13.8 55.6 15.4 59 17.2 59.8 C19.2 60.7 20.8 61.5 23 61.5 C28.1 61.5 32.4 59.3 32.4 53.6 C32.4 49.3 30.1 46.1 27.3 43.1 C25.2 40.9 22.575 38.15 21 36.5 C18.4 33.7 15.9 30.5 15.9 26.6 C15.9 23.4 17.7 20.8 20.1 18.9 C20.83333 19.5 21.75 20.25 22.3 20.7 zM17.1 13.5 C12.2 13.5 9.7 8.9 9.7 4.5 C9.7 0.7 12.6 -1.7 16.3 -1.7 C21.3 -1.7 23.6 3 23.6 7.4 C23.6 11.4 20.9 13.5 17.1 13.5 z" />
<glyph unicode="@" horiz-adv-x="83.3" d="M67.5 17.3 C62.4 9.7 54.2 4.4 44.9 4.4 C27.7 4.4 13.8 15.5 13.8 33.4 C13.8 50.5 26.8 62.5 43.7 62.5 C60.2 62.5 69.3 51 69.3 40.2 C69.3 34.6 67.2 28.4 63.9 23.9 C62.2 21.6 58.2 17 55 17 C53.4 17 52.9 18.1 52.9 19.5 C52.9 20.3 53.1 21.1 53.3 21.9 C55.76667 31.03333 58.85 42.45 60.7 49.3 C58.35 49.3 53.65 49.3 51.3 49.3 C50.925 47.8 50.175 44.8 49.8 43.3 C49.75 43.3 49.65 43.3 49.6 43.3 C48.9 47.5 45.9 50.1 41.5 50.1 C30.5 50.1 21 39 21 28.3 C21 20.2 25.4 14.3 33.6 14.3 C39.1 14.3 41.9 17.4 45.2 21.9 C45.5 17.8 47.6 13.7 52.3 13.7 C57.6 13.7 64.1 18.1 67.6 21.9 C72.2 26.9 74.4 33.6 74.4 40.4 C74.4 54.8 61.6 68.1 43.1 68.1 C23.1 68.1 8.2 52.5 8.2 32.7 C8.2 12.7 24.3 -1.2 43.8 -1.2 C56.4 -1.2 68.2 6.2 73.9 17.3 C71.76667 17.3 69.1 17.3 67.5 17.3 zM35.5 17.2 C31.3 17.2 30.5 21.8 30.5 25 C30.5 31.1 35.5 47.1 43.1 47.1 C46.6 47.1 47.8 43.1 47.8 40.2 C47.8 36 46.4 30.2 44.6 26.3 C43.1 23 39.7 17.2 35.5 17.2 z" />
<glyph unicode="A" horiz-adv-x="72.2" d="M39.8 57 C39.85 57 39.95 57 40 57 C40.95 50.425 42.85 37.275 43.8 30.7 C38.975 30.7 29.325 30.7 24.5 30.7 C28.325 37.275 35.975 50.425 39.8 57 zM41.4 68.3 C32.325 52.975 14.175 22.325 5.1 7 C4.1 5.3 2.6 3.7 0.4 3.5 C-0.73333 3.4 -2.15 3.275 -3 3.2 C-3.125 2.325 -3.375 0.575 -3.5 -0.3 C0.5 -0.2 4.5 0 8.5 0 C12.3 0 16.1 -0.2 19.9 -0.3 C20.06667 0.86667 20.275 2.325 20.4 3.2 C19.3 3.275 17.1 3.425 16 3.5 C13.6 3.7 11.7 4.2 11.7 5.4 C11.7 7.6 12.5 9.3 13.6 11.2 C16.46667 16.26667 20.05 22.6 22.2 26.4 C25.9 26.5 29.6 26.7 33.3 26.7 C37 26.7 40.6 26.5 44.3 26.4 C45.13333 19.8 46.175 11.55 46.8 6.6 C46.8 6.525 46.8 6.375 46.8 6.3 C46.8 4.4 44.5 3.6 42.6 3.5 C41.2 3.4 39.45 3.275 38.4 3.2 C38.4 2.325 38.4 0.575 38.4 -0.3 C43.4 -0.2 48.5 0 53.5 0 C58.5 0 63.5 -0.2 68.5 -0.3 C68.5 0.86667 68.5 2.325 68.5 3.2 C67.575 3.275 65.725 3.425 64.8 3.5 C61.4 3.8 59.9 5.8 59.4 9 C56.86667 26.4 53.7 48.15 51.8 61.2 C51.5 63.6 51.3 65.9 51 68.3 C47.8 68.3 43.8 68.3 41.4 68.3 z" />
<glyph unicode="B" horiz-adv-x="66.7" d="M31.1 63.5 C32.4 63.6 33.7 63.8 35 63.8 C42.3 63.8 49.7 62.8 49.7 54.1 C49.7 41.7 41.9 37.5 30.7 37.5 C29.26667 37.5 27.475 37.5 26.4 37.5 C27.575 44 29.925 57 31.1 63.5 zM8.9 9.2 C8.1 4 6.4 3.4 4.1 3.2 C3.16667 3.1 2 2.975 1.3 2.9 C1.175 2.1 0.925 0.5 0.8 -0.3 C4.9 -0.2 9.1 0 13.2 0 C19.7 0 26.1 -0.2 32.6 -0.3 C32.83333 -0.3 33.125 -0.3 33.3 -0.3 C39.6 -0.3 45.2 0.9 50.5 4.6 C56 8.4 60.1 14.1 60.1 21.1 C60.1 31.6 52.4 35.3 43.2 35.8 C43.16667 35.86667 43.125 35.95 43.1 36 C52.4 38.7 62.9 43 62.9 54.6 C62.9 59.3 60.1 63.8 55.6 66 C51.9 67.8 48 68.1 44 68.1 C42.93333 68.1 41.6 68.1 40.8 68.1 C35.5 68 30.1 67.8 24.8 67.8 C19.6 67.8 14.3 68 9.1 68.1 C8.93333 67.03333 8.725 65.7 8.6 64.9 C9.75 64.825 12.05 64.675 13.2 64.6 C16.5 64.4 17.8 63.9 17.8 61.4 C17.8 60.9 17.7 60.2 17.6 59.4 C14.7 42.66667 11.075 21.75 8.9 9.2 zM25.6 33.2 C27.5 33.3 29.3 33.5 31.2 33.5 C39.3 33.5 46.9 31.1 46.9 21.6 C46.9 11.7 42.7 4 32.3 4 C28.3 4 25.1 4.6 21.1 5.1 C22.6 14.46667 24.475 26.175 25.6 33.2 z" />
<glyph unicode="C" horiz-adv-x="68.5" d="M62.2 48.4 C63.075 48.4 64.825 48.4 65.7 48.4 C66.3 54 67.9 59.5 69.5 65.2 C63.7 68.2 56.2 69.5 50.2 69.5 C25.9 69.5 6.9 49.1 6.9 25.2 C6.9 6.7 16.8 -1.7 35 -1.7 C44.6 -1.7 53.7 2.5 61.6 7.7 C62.03333 9 62.575 10.625 62.9 11.6 C62.65 11.825 62.15 12.275 61.9 12.5 C61.35 12.175 60.25 11.525 59.7 11.2 C53.5 7.6 47.4 4.8 40.1 4.8 C26.3 4.8 20.7 12.8 20.7 26 C20.7 43.3 25.7 63.6 46.3 63.6 C50.1 63.6 57.2 62.3 60.6 60.2 C61.8 59.4 62.7 58.5 62.7 57.4 C62.7 57.33333 62.7 57.25 62.7 57.2 C62.575 55 62.325 50.6 62.2 48.4 z" />
<glyph unicode="D" horiz-adv-x="77.8" d="M30.3 63.5 C31.6 63.6 32.9 63.8 34.2 63.8 C51 63.8 60.9 61.6 60.9 42.8 C60.9 36 59.2 27 56.7 20.7 C52.3 9.7 46.7 4 31.2 4 C27.2 4 24.1 4.6 20.3 5.1 C23.63333 24.56667 27.8 48.9 30.3 63.5 zM8.1 9.2 C7.2 4 5.6 3.4 3.3 3.2 C2.36667 3.1 1.2 2.975 0.5 2.9 C0.375 2.1 0.125 0.5 0 -0.3 C4.1 -0.2 8.3 0 12.4 0 C18.9 0 25.3 -0.2 31.8 -0.3 C32.06667 -0.3 32.4 -0.3 32.6 -0.3 C46.9 -0.3 58.6 5.3 66.8 16.8 C71.5 23.4 74.7 33.1 74.7 41.3 C74.7 49.7 72.6 56.9 66 62.5 C60.2 67.4 52.3 68.2 44.8 68.2 C43.2 68.2 41.6 68.1 40 68.1 C34.7 68 29.3 67.8 24 67.8 C18.8 67.8 13.5 68 8.3 68.1 C8.13333 67.03333 7.925 65.7 7.8 64.9 C8.95 64.825 11.25 64.675 12.4 64.6 C15.7 64.4 17 63.8 17 61.4 C17 60.8 16.9 60.2 16.8 59.4 C13.9 42.66667 10.275 21.75 8.1 9.2 z" />
<glyph unicode="E" horiz-adv-x="61.1" d="M9.2 9.2 C8.3 4 6.7 3.4 4.4 3.2 C3.46667 3.1 2.3 2.975 1.6 2.9 C1.475 2.1 1.225 0.5 1.1 -0.3 C5.2 -0.2 9.4 0 13.5 0 C20 0 26.4 -0.2 32.9 -0.3 C33.8 -0.3 34.925 -0.3 35.6 -0.3 C41.1 -0.3 46.5 -0.1 52.2 0 C53.2 5.6 54.2 11.2 55.6 16.8 C54.4 16.8 52.9 16.8 52 16.8 C51.45 15.05 50.35 11.55 49.8 9.8 C48.9 7 47.3 5.8 44 5.6 C38.3 5.3 32.6 5 26.9 5 C25.1 5 23.3 5.2 21.4 5.6 C23 14.73333 25 26.15 26.2 33 C27.575 33 30.325 33 31.7 33 C37.4 33 43.1 32.7 48.7 32.5 C49.16667 34.06667 49.75 36.025 50.1 37.2 C49.975 37.425 49.725 37.875 49.6 38.1 C44.9 37.9 39.6 37.8 35.6 37.8 C32.73333 37.8 29.15 37.8 27 37.8 C28.125 44.1 30.375 56.7 31.5 63 C32.8 63.1 34.1 63.3 35.4 63.3 C40.8 63.3 48.2 63.1 53.5 62 C54.8 61.7 54.9 59.9 54.9 58 C54.9 56 54.9 53.5 54.9 52 C55.7 52 57.3 52 58.1 52 C58.8 57.2 59.7 62.4 60.6 67.2 C60.26667 67.4 59.85 67.65 59.6 67.8 C54.4 67.9 49 68.1 43.7 68.1 C42.83333 68.1 41.75 68.1 41.1 68.1 C35.8 68 30.4 67.8 25.1 67.8 C22.5 67.8 19.9 67.9 17.3 67.9 C14.6 68 12 68.1 9.4 68.1 C9.23333 67.03333 9.025 65.7 8.9 64.9 C10.05 64.825 12.35 64.675 13.5 64.6 C16.8 64.4 18.1 63.8 18.1 61.4 C18.1 60.8 18 60.2 17.9 59.4 C15 42.66667 11.375 21.75 9.2 9.2 z" />
<glyph unicode="F" horiz-adv-x="55.6" d="M31.7 63 C33 63.1 34.3 63.3 35.6 63.3 C42 63.3 48.6 62.7 52.2 62 C53.5 61.7 53.6 59.9 53.6 58 C53.6 56 53.6 53.5 53.6 52 C54.4 52 56 52 56.8 52 C57.5 57.2 58.4 62.4 59.3 67.2 C58.96667 67.4 58.55 67.65 58.3 67.8 C53.3 67.9 48.3 68.1 43.3 68.1 C42.5 68.1 41.5 68.1 40.9 68.1 C35.6 68 30.2 67.8 24.9 67.8 C22.3 67.8 19.7 67.9 17.1 67.9 C14.5 68 11.9 68.1 9.3 68.1 C9.13333 67.03333 8.925 65.7 8.8 64.9 C10.05 64.825 12.55 64.675 13.8 64.6 C17.1 64.4 18.4 63.9 18.4 61.4 C18.4 60.8 18.3 60.2 18.2 59.4 C15.46667 44 12.05 24.75 10 13.2 C9.1 8.1 8.1 6.2 7.7 5.4 C6.9 3.9 5.6 3.6 4.2 3.5 C2.76667 3.4 0.975 3.275 -0.1 3.2 C-0.225 2.325 -0.475 0.575 -0.6 -0.3 C5.3 -0.2 9.5 0 15 0 C19.9 0 24.7 -0.2 31.3 -0.3 C31.46667 0.86667 31.675 2.325 31.8 3.2 C30.225 3.275 27.075 3.425 25.5 3.5 C22.4 3.6 21.9 4.8 21.9 6.4 C21.9 7.7 22.1 8.9 22.3 10 C23.5 16.53333 25 24.7 25.9 29.6 C27.275 29.6 30.025 29.6 31.4 29.6 C37.1 29.6 42.8 29.3 48.4 29.1 C48.86667 30.66667 49.45 32.625 49.8 33.8 C49.675 34.025 49.425 34.475 49.3 34.7 C44.6 34.5 39.3 34.4 35.3 34.4 C32.43333 34.4 28.85 34.4 26.7 34.4 C27.95 41.55 30.45 55.85 31.7 63 z" />
<glyph unicode="G" horiz-adv-x="77.8" d="M51.7 5.9 C49 4.1 43.5 3 40.2 3 C26.1 3 21 12.8 21 25.6 C21 36.3 24 51.4 31.6 58 C36.1 61.9 43.1 63.3 48.4 63.3 C54.4 63.3 61 61.6 63.3 60.2 C64.5 59.4 65.4 58.5 65.4 57.4 C65.4 57.33333 65.4 57.25 65.4 57.2 C65.275 55 65.025 50.6 64.9 48.4 C65.775 48.4 67.525 48.4 68.4 48.4 C69 54 70.6 59.5 72.2 65.2 C66.1 68.2 59 69.5 52.1 69.5 C48.1 69.5 43.8 68.9 39.9 67.7 C19.9 61.5 7.2 46.6 7.2 25.1 C7.2 6.2 19.3 -1.7 37.2 -1.7 C48.2 -1.7 57.4 2 65.2 4.8 C65.1 5.33333 64.975 6 64.9 6.4 C64.9 8 65.2 9.5 65.5 11 C66.16667 14.2 67 18.2 67.5 20.6 C68.2 23.8 69.4 24.9 72 25.1 C72.83333 25.16667 73.875 25.25 74.5 25.3 C74.625 26.125 74.875 27.775 75 28.6 C70.1 28.5 65.1 28.3 60.2 28.3 C55.3 28.3 50.3 28.5 45.3 28.6 C45.13333 27.5 44.925 26.125 44.8 25.3 C46.3 25.25 49.3 25.15 50.8 25.1 C53.6 25 55.2 24.5 55.2 22.1 C55.2 21.5 55.1 20.8 54.9 20 C53.83333 15.3 52.5 9.425 51.7 5.9 z" />
<glyph unicode="H" horiz-adv-x="77.8" d="M30.7 58.8 C31.7 64 33.4 64.1 36 64.3 C37.4 64.4 39.15 64.525 40.2 64.6 C40.325 65.475 40.575 67.225 40.7 68.1 C35.4 68 29.9 67.8 24.5 67.8 C19.7 67.8 14.8 68 9.2 68.1 C9.03333 66.93333 8.825 65.475 8.7 64.6 C9.975 64.525 12.525 64.375 13.8 64.3 C16.9 64.1 17.6 63.3 17.6 61.5 C17.6 60 17.5 58 16.8 54.1 C14.4 40.46667 11.4 23.425 9.6 13.2 C8.7 8.1 8.1 6.2 7.7 5.4 C6.9 3.9 5.6 3.6 4.2 3.5 C2.56667 3.4 0.525 3.275 -0.7 3.2 C-0.825 2.325 -1.075 0.575 -1.2 -0.3 C4.2 -0.2 9.5 0 14.7 0 C19.6 0 24.4 -0.2 29.8 -0.3 C29.96667 0.86667 30.175 2.325 30.3 3.2 C29.075 3.275 26.625 3.425 25.4 3.5 C22.3 3.7 21.6 4.8 21.6 6.4 C21.6 7.7 21.8 9 22 10.2 C23.36667 18.06667 25.075 27.9 26.1 33.8 C33.375 33.8 47.925 33.8 55.2 33.8 C54.275 28.65 52.425 18.35 51.5 13.2 C50.6 8.1 50 6.2 49.6 5.4 C48.8 3.9 47.5 3.6 46.1 3.5 C44.46667 3.4 42.425 3.275 41.2 3.2 C41.075 2.325 40.825 0.575 40.7 -0.3 C45.3 -0.2 50.6 0 55.8 0 C60.7 0 65.5 -0.2 72.3 -0.3 C72.46667 0.86667 72.675 2.325 72.8 3.2 C71.425 3.275 68.675 3.425 67.3 3.5 C64.2 3.7 63.5 4.8 63.5 6.4 C63.5 7.7 63.7 9 63.9 10.2 C66.8 26.4 70.425 46.65 72.6 58.8 C73.5 64 75.3 64.1 77.9 64.3 C79.3 64.4 81.05 64.525 82.1 64.6 C82.225 65.475 82.475 67.225 82.6 68.1 C76.8 68 71.3 67.8 65.9 67.8 C61.1 67.8 56.2 68 51.1 68.1 C50.93333 66.93333 50.725 65.475 50.6 64.6 C51.875 64.525 54.425 64.375 55.7 64.3 C58.8 64.1 59.5 63.3 59.5 61.5 C59.5 60 59.3 58 58.7 54.1 C57.86667 48.93333 56.825 42.475 56.2 38.6 C48.85 38.6 34.15 38.6 26.8 38.6 C27.775 43.65 29.725 53.75 30.7 58.8 z" />
<glyph unicode="I" horiz-adv-x="38.9" d="M31.7 59.9 C32.4 63.8 33.3 64.1 36.3 64.3 C37.8 64.4 39.675 64.525 40.8 64.6 C40.9 65.475 41.1 67.225 41.2 68.1 C35.9 68 30.4 67.8 25 67.8 C20.2 67.8 15.3 68 10.1 68.1 C9.96667 66.93333 9.8 65.475 9.7 64.6 C11 64.525 13.6 64.375 14.9 64.3 C17.6 64.1 18.6 63.3 18.7 61.5 C18.7 60 18.5 58 17.8 54.1 C15.4 40.46667 12.4 23.425 10.6 13.2 C9.7 8.1 9 6.2 8.6 5.4 C7.9 3.9 6.6 3.6 5.2 3.5 C3.56667 3.4 1.525 3.275 0.3 3.2 C0.2 2.325 0 0.575 -0.1 -0.3 C5.3 -0.2 10.6 0 15.8 0 C20.7 0 25.5 -0.2 31.9 -0.3 C32.03333 0.86667 32.2 2.325 32.3 3.2 C30.825 3.275 27.875 3.425 26.4 3.5 C23.3 3.7 22.7 4.8 22.7 6.4 C22.7 7.7 22.8 8.9 23 10 C25.9 26.63333 29.525 47.425 31.7 59.9 z" />
<glyph unicode="J" horiz-adv-x="38.9" d="M32 59.9 C32.7 63.8 33.6 64.1 36.6 64.3 C38.13333 64.4 40.05 64.525 41.2 64.6 C41.325 65.475 41.575 67.225 41.7 68.1 C36.4 68 30.9 67.8 25.5 67.8 C20.7 67.8 15.8 68 10.6 68.1 C10.43333 66.93333 10.225 65.475 10.1 64.6 C11.375 64.525 13.925 64.375 15.2 64.3 C17.9 64.1 18.9 63.3 19 61.5 C19 60 18.6 58 18 54.1 C14.8 34.9 10.8 10.9 8.4 -3.5 C7.4 -9.4 6.9 -17 0.7 -17 C-0.7 -17 -1.5 -16.8 -2.9 -16.2 C-2.86667 -17.36667 -2.825 -18.825 -2.8 -19.7 C-1.5 -20.2 0.7 -20.7 2.4 -20.7 C10.8 -20.7 20.1 -7.8 22.2 4.3 C25.46667 22.83333 29.55 46 32 59.9 z" />
<glyph unicode="K" horiz-adv-x="72.2" d="M30.8 59.9 C31.5 63.8 32.4 64.1 35.4 64.3 C36.9 64.4 38.775 64.525 39.9 64.6 C40 65.475 40.2 67.225 40.3 68.1 C35 68 29.5 67.8 24.1 67.8 C19.3 67.8 14.4 68 9.2 68.1 C9.06667 66.93333 8.9 65.475 8.8 64.6 C10.1 64.525 12.7 64.375 14 64.3 C16.7 64.1 17.7 63.3 17.8 61.5 C17.8 60 17.6 58 16.9 54.1 C14.5 40.46667 11.5 23.425 9.7 13.2 C8.8 8.1 8.1 6.2 7.7 5.4 C7 3.9 5.7 3.6 4.3 3.5 C2.66667 3.4 0.625 3.275 -0.6 3.2 C-0.7 2.325 -0.9 0.575 -1 -0.3 C4.4 -0.2 9.7 0 14.9 0 C19.8 0 24.6 -0.2 30 -0.3 C30.13333 0.86667 30.3 2.325 30.4 3.2 C29.175 3.275 26.725 3.425 25.5 3.5 C22.4 3.7 21.8 4.8 21.8 6.4 C21.8 6.63333 21.8 6.925 21.8 7.1 C21.8 8.1 21.9 9.1 22.1 10 C23.43333 17.6 25.1 27.1 26.1 32.8 C27.8 30.8 29.9 28.3 32 25.3 C36.3 19.2 41.675 11.575 44.9 7 C46.9 4.1 48.7 1.7 49.8 -0.3 C53 -0.1 56.1 0 59.2 0 C62.2 0 65.3 -0.1 68.4 -0.3 C68.5 0.8 68.625 2.175 68.7 3 C67.725 3.15 65.775 3.45 64.8 3.6 C62.6 3.9 61.4 5.4 58 10.1 C51.46667 19.16667 43.3 30.5 38.4 37.3 C44.525 42.875 56.775 54.025 62.9 59.6 C65 61.5 68.6 64.8 71.1 64.8 C72.26667 64.8 73.725 64.8 74.6 64.8 C74.6 65.625 74.6 67.275 74.6 68.1 C72 68 69.4 67.8 66.7 67.8 C63.9 67.8 61.3 68 58.7 68.1 C58.7 67.3 58.7 66.3 58.7 65.7 C58.7 65 58.5 64.2 57.9 63.5 C56.5 61.8 53.7 58.3 51 55.7 C46.33333 51.33333 40.5 45.875 37 42.6 C32.6 38.5 28.4 34.6 26.1 33.4 C27.66667 42.23333 29.625 53.275 30.8 59.9 z" />
<glyph unicode="L" horiz-adv-x="61.1" d="M32.5 59.9 C33.2 63.8 34.1 64.1 37.1 64.3 C38.6 64.4 40.475 64.525 41.6 64.6 C41.7 65.475 41.9 67.225 42 68.1 C36.7 68 31.2 67.8 25.8 67.8 C21 67.8 16.1 68 10.9 68.1 C10.76667 66.93333 10.6 65.475 10.5 64.6 C11.8 64.525 14.4 64.375 15.7 64.3 C18.4 64.1 19.4 63.3 19.5 61.5 C19.5 60 19.3 58 18.6 54.1 C15.86667 39.13333 12.45 20.425 10.4 9.2 C9.5 4 8.1 3.4 5.8 3.2 C4.86667 3.1 3.7 2.975 3 2.9 C2.9 2.1 2.7 0.5 2.6 -0.3 C6.7 -0.2 10.9 0 16.1 0 C22.6 0 29 -0.2 35.5 -0.3 C36.4 -0.3 37.525 -0.3 38.2 -0.3 C43.7 -0.3 49.1 -0.1 54.4 0 C55.4 5.6 56.3 11.2 57.8 17.4 C56.6 17.4 55.1 17.4 54.2 17.4 C53.625 15.5 52.475 11.7 51.9 9.8 C51.1 7 49.5 5.8 46.2 5.6 C39.5 5.2 33.8 5 28.1 5 C26.3 5 24.5 5.2 22.6 5.6 C25.9 23.7 30.025 46.325 32.5 59.9 z" />
<glyph unicode="M" horiz-adv-x="94.4" d="M37.2 -1.7 C37.825 -1.7 39.075 -1.7 39.7 -1.7 C42.1 2.5 44.3 6.7 46.8 10.8 C56.4 26.56667 68.4 46.275 75.6 58.1 C75.65 58.05 75.75 57.95 75.8 57.9 C73.775 45.95 69.725 22.05 67.7 10.1 C67.4 8.6 67 7 66.6 5.4 C66.3 4.3 64.5 3.6 63.1 3.5 C61.46667 3.4 59.425 3.275 58.2 3.2 C58.075 2.325 57.825 0.575 57.7 -0.3 C63 -0.2 68.1 0 73.2 0 C78.3 0 83.3 -0.2 88.4 -0.3 C88.56667 0.86667 88.775 2.325 88.9 3.2 C87.525 3.275 84.775 3.425 83.4 3.5 C80.3 3.7 79.8 4.8 79.8 6.4 C79.8 7.6 80.2 9.4 80.5 11 C83.16667 26.56667 86.5 46.025 88.5 57.7 C89.5 63.3 90.6 64.3 94.1 64.6 C95.4 64.7 97.025 64.825 98 64.9 C98.125 65.7 98.375 67.3 98.5 68.1 C94.7 68 91 67.8 87.2 67.8 C83.4 67.8 79.6 68 75.8 68.1 C74.4 65.6 73.1 63 71.6 60.6 C62.73333 46.2 51.65 28.2 45 17.4 C41.825 30.075 35.475 55.425 32.3 68.1 C28.6 68 25 67.8 21.3 67.8 C17.6 67.8 13.9 68 10.2 68.1 C10.03333 67.03333 9.825 65.7 9.7 64.9 C10.825 64.825 13.075 64.675 14.2 64.6 C16.7 64.4 19.5 63.9 19.5 61.5 C19.5 60.2 19.4 58.3 18.6 55.2 C14.43333 39.83333 9.225 20.625 6.1 9.1 C5.4 6.5 4.2 3.7 2.1 3.5 C0.7 3.4 -1.05 3.275 -2.1 3.2 C-2.15 2.325 -2.25 0.575 -2.3 -0.3 C1.3 -0.2 5 0 8.6 0 C12.2 0 15.8 -0.2 19.4 -0.3 C19.56667 0.86667 19.775 2.325 19.9 3.2 C18.625 3.275 16.075 3.425 14.8 3.5 C11.9 3.7 11.4 4.8 11.4 6.4 C11.4 7.8 11.8 9.3 12.2 10.8 C15.73333 25.33333 20.15 43.5 22.8 54.4 C22.85 54.4 22.95 54.4 23 54.4 C26.55 40.375 33.65 12.325 37.2 -1.7 z" />
<glyph unicode="N" horiz-adv-x="77.8" d="M62 -0.3 C62.4 3 62.9 6.5 63.6 10 C66.46667 24.26667 70.05 42.1 72.2 52.8 C73.5 59.5 74.3 62.4 75 63.3 C75.7 64.2 77 64.5 78.6 64.6 C79.83333 64.7 81.375 64.825 82.3 64.9 C82.45 65.7 82.75 67.3 82.9 68.1 C79 68 75 67.8 71.1 67.8 C67.2 67.8 63.2 68 59.3 68.1 C59.13333 67.03333 58.925 65.7 58.8 64.9 C59.85 64.825 61.95 64.675 63 64.6 C65.1 64.4 67.6 63.7 67.6 61.6 C67.6 60.4 67.6 57.2 67 54.2 C64.53333 40.86667 61.45 24.2 59.6 14.2 C51.75 27.675 36.05 54.625 28.2 68.1 C24.6 68 21.1 67.8 17.5 67.8 C13.9 67.8 10.3 68 6.7 68.1 C6.6 67.03333 6.475 65.7 6.4 64.9 C7.375 64.825 9.325 64.675 10.3 64.6 C12.4 64.4 16.1 63.3 17.9 60.1 C18.2 59.5 18.6 58.8 18.6 58.2 C18.6 58.1 18.5 57.9 18.5 57.8 C15.26667 41.56667 11.225 21.275 8.8 9.1 C8 5 6.9 3.6 4.8 3.5 C3.2 3.4 1.2 3.275 0 3.2 C-0.05 2.325 -0.15 0.575 -0.2 -0.3 C3.7 -0.2 7.5 0 11.4 0 C15.1 0 18.9 -0.2 22.6 -0.3 C22.76667 0.86667 22.975 2.325 23.1 3.2 C21.825 3.275 19.275 3.425 18 3.5 C15.1 3.7 14.4 5.7 14.4 7.5 C14.4 9.2 14.7 10.9 15.2 13.8 C17.63333 27 20.675 43.5 22.5 53.4 C30.25 39.975 45.75 13.125 53.5 -0.3 C55.625 -0.3 59.875 -0.3 62 -0.3 z" />
<glyph unicode="O" horiz-adv-x="83.3" d="M47.4 65.2 C61.1 65.2 65.6 56.3 65.6 43.8 C65.6 27.2 59.2 2.6 38.8 2.6 C26.3 2.6 21.4 11.7 21.4 22.9 C21.4 39.1 26.7 65.2 47.4 65.2 zM49.4 69.5 C23.8 69.5 7.6 51.1 7.6 26 C7.6 8.4 18.9 -1.7 36.3 -1.7 C61.5 -1.7 79.4 17.3 79.4 42.3 C79.4 60 66.2 69.5 49.4 69.5 z" />
<glyph unicode="P" horiz-adv-x="66.7" d="M33.7 63.5 C35.8 63.7 38 63.8 41 63.8 C47 63.8 54.1 61.6 54.1 51.6 C54.1 41.9 48.9 32.2 39.1 32.2 C36.7 32.2 34.4 32.6 32.3 33.4 C32.36667 32.23333 32.45 30.775 32.5 29.9 C35.7 28.7 39 28.1 42.4 28.1 C55.2 28.1 67.3 38 67.3 51.5 C67.3 63.2 59.9 68.1 46.8 68.1 C46.53333 68.1 46.2 68.1 46 68.1 C39.2 68 32.2 67.8 27.2 67.8 C22 67.8 16.7 68 10.5 68.1 C10.33333 67.03333 10.125 65.7 10 64.9 C11.4 64.825 14.2 64.675 15.6 64.6 C18.9 64.4 20.2 63.9 20.2 61.4 C20.2 60.8 20.1 60.2 20 59.4 C17.26667 44 13.85 24.75 11.8 13.2 C10.9 8.1 10.2 6.2 9.8 5.4 C9.1 3.9 7.8 3.6 6.4 3.5 C4.76667 3.4 2.725 3.275 1.5 3.2 C1.4 2.325 1.2 0.575 1.1 -0.3 C6.5 -0.2 11.8 0 17 0 C21.9 0 26.7 -0.2 33.1 -0.3 C33.23333 0.86667 33.4 2.325 33.5 3.2 C32.025 3.275 29.075 3.425 27.6 3.5 C24.5 3.7 23.9 4.8 23.9 6.4 C23.9 7.7 24 8.9 24.2 10 C27.36667 27.83333 31.325 50.125 33.7 63.5 z" />
<glyph unicode="Q" horiz-adv-x="83.3" d="M49.4 69.5 C23.8 69.5 7.6 51.1 7.6 26 C7.6 8.4 18.9 -1.7 36.3 -1.7 C61.5 -1.7 79.4 17.3 79.4 42.3 C79.4 60 66.2 69.5 49.4 69.5 zM47.4 65.2 C61.1 65.2 65.6 56.3 65.6 43.8 C65.6 27.2 59.2 2.6 38.8 2.6 C26.3 2.6 21.4 11.7 21.4 22.9 C21.4 39.1 26.7 65.2 47.4 65.2 zM17.4 -17 C17.525 -16.95 17.775 -16.85 17.9 -16.8 C17.9 -15.2 18.2 -14 18.5 -12.8 C19.4 -9.2 22.1 -7 25.9 -7 C28.4 -7 30.8 -7.8 32.9 -8.9 C39.53333 -12.46667 47.825 -16.925 52.8 -19.6 C55.4 -21 57.7 -22.2 60.8 -22.2 C68.1 -22.2 72.2 -17.9 75 -11.6 C75.9 -9.6 76.5 -7.4 76.9 -5.3 C75.86667 -4.96667 74.575 -4.55 73.8 -4.3 C72.9 -9.8 70.3 -13.3 65.4 -13.3 C62.2 -13.3 55.7 -11 51.4 -9.1 C48.26667 -7.73333 44.35 -6.025 42 -5 C37.2 -2.9 31.7 -1.2 28.5 -1.2 C24.2 -1.2 20.7 -2.6 18.4 -5.1 C16.2 -7.5 15 -10.9 15 -14.9 C15 -15.06667 15 -15.275 15 -15.4 C15.6 -15.8 16.8 -16.6 17.4 -17 z" />
<glyph unicode="R" horiz-adv-x="72.2" d="M11.1 13.2 C10.2 8.1 9.5 6.2 9.1 5.4 C8.4 3.9 7.1 3.6 5.7 3.5 C4.06667 3.4 2.025 3.275 0.8 3.2 C0.7 2.325 0.5 0.575 0.4 -0.3 C5.8 -0.2 11.1 0 16.3 0 C21.2 0 26 -0.2 32.4 -0.3 C32.53333 0.86667 32.7 2.325 32.8 3.2 C31.325 3.275 28.375 3.425 26.9 3.5 C23.8 3.7 23.2 4.8 23.2 6.4 C23.2 7.7 23.3 8.9 23.5 10 C26.6 27.83333 30.475 50.125 32.8 63.5 C34.8 63.7 37 63.8 40 63.8 C47.6 63.8 52.7 61.2 52.7 53.1 C52.7 41.8 44.2 37 36.9 37 C35.06667 37 32.775 37 31.4 37 C31.275 36.575 31.025 35.725 30.9 35.3 C33 32.1 35.3 28.8 37 25.8 C41.83333 17.1 47.875 6.225 51.5 -0.3 C54.3 -0.2 57.1 0 59.9 0 C63.2 0 66.4 -0.2 69.7 -0.3 C69.7 0.7 69.7 1.95 69.7 2.7 C68.775 2.875 66.925 3.225 66 3.4 C64.6 3.7 62.4 6.3 61 8.6 C55.8 17.5 49.3 28.625 45.4 35.3 C55.2 36.8 65.9 41.6 65.9 54.1 C65.9 65 56.6 68.1 45.5 68.1 C45.13333 68.1 44.675 68.1 44.4 68.1 C38.8 68 33.2 67.8 26.4 67.8 C21.2 67.8 15.9 68 10.7 68.1 C10.53333 67.03333 10.325 65.7 10.2 64.9 C11.35 64.825 13.65 64.675 14.8 64.6 C18.1 64.4 19.4 63.9 19.4 61.4 C19.4 60.8 19.3 60.2 19.2 59.4 C16.5 44 13.125 24.75 11.1 13.2 z" />
<glyph unicode="S" horiz-adv-x="55.6" d="M46.5 50.4 C47.25 50.4 48.75 50.4 49.5 50.4 C49.5 55.5 50.6 61.3 51.7 65.1 C51.1 65.5 45.8 69.5 36.7 69.5 C27.4 69.5 20.6 64.3 18.2 62.2 C15.7 60 10.4 54.1 10.4 45.2 C10.4 34.2 17.6 31.3 26.6 28 C35.1 25 38.9 23.6 38.9 15.7 C38.9 10.3 35.8 3.9 25.1 3.9 C14.5 3.9 10.8 9.1 9.8 11.3 C9.8 13.83333 9.8 17 9.8 18.9 C9.125 18.9 7.775 18.9 7.1 18.9 C6.575 14.75 5.525 6.45 5 2.3 C9.4 -0.8 15.4 -1.7 21.2 -1.7 C30.6 -1.7 36.3 1.3 41.8 6.4 C44.7 9.1 49.5 16 49.5 23.1 C49.5 34.3 41 36.9 32.4 40.1 C25.9 42.5 19.6 45 19.6 52.9 C19.6 59.4 25.8 63.9 32.5 63.9 C39.1 63.9 43.5 61.7 46.5 58.9 C46.5 56.06667 46.5 52.525 46.5 50.4 z" />
<glyph unicode="T" horiz-adv-x="61.1" d="M43.6 63 C46.525 63 52.375 63 55.3 63 C56.8 63 58.5 62.7 59.8 62.1 C60.4 61.8 61 60.8 61 59.5 C61 59.4 61 59.275 61 59.2 C60.9 57.1 60.7 52.9 60.6 50.8 C61.55 50.8 63.45 50.8 64.4 50.8 C65.15 55 66.65 63.4 67.4 67.6 C67.225 67.725 66.875 67.975 66.7 68.1 C57 68 47.4 67.8 37.7 67.8 C28 67.8 18.4 68 8.7 68.1 C8.5 67.93333 8.25 67.725 8.1 67.6 C7.475 63.4 6.225 55 5.6 50.8 C6.55 50.8 8.45 50.8 9.4 50.8 C9.75 52.25 10.45 55.15 10.8 56.6 C11.2 58.2 11.6 60.1 13 61.2 C14.3 62.2 16.1 63 18 63 C22.13333 63 27.3 63 30.4 63 C28.275 50.55 24.025 25.65 21.9 13.2 C21 8.1 20 6.2 19.6 5.4 C18.8 3.9 17.5 3.6 16.1 3.5 C14.33333 3.4 12.125 3.275 10.8 3.2 C10.675 2.325 10.425 0.575 10.3 -0.3 C16.1 -0.2 21.4 0 26.6 0 C31.5 0 36.3 -0.2 42.7 -0.3 C42.86667 0.86667 43.075 2.325 43.2 3.2 C41.725 3.275 38.775 3.425 37.3 3.5 C34.2 3.7 33.7 4.8 33.7 6.4 C33.7 7.7 33.9 8.9 34.1 10 C37.26667 27.66667 41.225 49.75 43.6 63 z" />
<glyph unicode="U" horiz-adv-x="77.8" d="M10.2 23.4 C9.5 19.9 9.4 17.3 9.4 14.6 C9.4 4.4 17.4 -1.7 27 -1.7 C37.8 -1.7 44.4 5.4 51.2 12.6 C51.36667 12.53333 51.575 12.45 51.7 12.4 C50.8 7.8 50.2 4.8 49.2 0.5 C49.36667 0.23333 49.575 -0.1 49.7 -0.3 C53.2 -0.2 56.6 0 60.1 0 C64.2 0 67.6 -0.2 72.1 -0.3 C72.26667 0.86667 72.475 2.325 72.6 3.2 C71.125 3.275 68.175 3.425 66.7 3.5 C63.6 3.7 63.1 4.8 63.1 6.4 C63.1 7.7 63.3 8.9 63.5 10 C66.5 26.63333 70.25 47.425 72.5 59.9 C73.2 63.8 74.4 64.1 77.4 64.3 C78.93333 64.4 80.85 64.525 82 64.6 C82.125 65.475 82.375 67.225 82.5 68.1 C77.2 68 71.7 67.8 66.3 67.8 C61.5 67.8 56.6 68 51.4 68.1 C51.23333 66.93333 51.025 65.475 50.9 64.6 C52.175 64.525 54.725 64.375 56 64.3 C58.7 64.1 59.7 63.3 59.7 61.5 C59.7 60 59.3 58 58.6 54.1 C56.43333 42.13333 53.725 27.175 52.1 18.2 C51.6 15.4 40.2 6.3 33.4 6.3 C26.7 6.3 22.4 10 22.4 16.7 C22.4 18.5 22.4 19.9 22.7 21.4 C25.56667 36.73333 29.15 55.9 31.3 67.4 C31.15 67.575 30.85 67.925 30.7 68.1 C28.6 68 26.1 67.8 23.7 67.8 C18.9 67.8 14 68 8.8 68.1 C8.63333 66.93333 8.425 65.475 8.3 64.6 C9.575 64.525 12.125 64.375 13.4 64.3 C16.1 64.1 17.1 63.3 17.1 61.5 C17.1 60 16.7 58 16 54.1 C14.06667 43.86667 11.65 31.075 10.2 23.4 z" />
<glyph unicode="V" horiz-adv-x="66.7" d="M28.4 59.4 C28.3 60 28.3 60.4 28.3 60.9 C28.3 61.9 28.5 62.6 28.7 63.4 C28.9 64.1 30.2 64.2 31.3 64.3 C32.96667 64.4 35.05 64.525 36.3 64.6 C36.3 65.475 36.3 67.225 36.3 68.1 C31.4 68 26.4 67.8 21.5 67.8 C16.6 67.8 11.6 68 6.7 68.1 C6.7 66.93333 6.7 65.475 6.7 64.6 C7.775 64.525 9.925 64.375 11 64.3 C13.2 64.1 14.6 63.3 15.4 58.5 C18.56667 38.9 22.525 14.4 24.9 -0.3 C26.975 -0.3 31.125 -0.3 33.2 -0.3 C41.55 14.725 58.25 44.775 66.6 59.8 C68.7 63.6 69.8 64.1 71.6 64.3 C72.46667 64.4 73.55 64.525 74.2 64.6 C74.275 65.475 74.425 67.225 74.5 68.1 C70.9 68 67.3 67.8 63.7 67.8 C60.1 67.8 56.4 68 52.8 68.1 C52.63333 66.93333 52.425 65.475 52.3 64.6 C53.55 64.525 56.05 64.375 57.3 64.3 C59.4 64.2 60.6 63.7 60.6 62 C60.6 60.9 60.1 59.6 58.5 56.7 C50.8 42.3 41.175 24.3 35.4 13.5 C35.35 13.5 35.25 13.5 35.2 13.5 C33.5 24.975 30.1 47.925 28.4 59.4 z" />
<glyph unicode="W" horiz-adv-x="100" d="M53.8 49.1 C57.075 36.75 63.625 12.05 66.9 -0.3 C69 -0.3 73.2 -0.3 75.3 -0.3 C80.775 13.325 91.725 40.575 97.2 54.2 C100.9 63.4 101.8 64.2 103.4 64.3 C104.53333 64.4 105.95 64.525 106.8 64.6 C106.925 65.475 107.175 67.225 107.3 68.1 C103.7 68 100 67.8 96.4 67.8 C92.8 67.8 89.1 68 85.5 68.1 C85.33333 66.93333 85.125 65.475 85 64.6 C86.125 64.525 88.375 64.375 89.5 64.3 C91.2 64.2 94 64.2 94 61.8 C94 60.6 93.4 59.1 92.9 57.9 C87.3 43.13333 80.3 24.675 76.1 13.6 C76.05 13.6 75.95 13.6 75.9 13.6 C72.225 27.425 64.875 55.075 61.2 68.9 C60.425 68.9 58.875 68.9 58.1 68.9 C51.525 55.4 38.375 28.4 31.8 14.9 C31.75 14.9 31.65 14.9 31.6 14.9 C30.725 26 28.975 48.2 28.1 59.3 C28.1 59.525 28.1 59.975 28.1 60.2 C28.1 63 29.4 64.1 31.8 64.3 C33.3 64.4 35.175 64.525 36.3 64.6 C36.3 65.475 36.3 67.225 36.3 68.1 C31.4 68 26.6 67.8 21.7 67.8 C16.9 67.8 12 68 7.2 68.1 C7.03333 66.93333 6.825 65.475 6.7 64.6 C7.725 64.525 9.775 64.375 10.8 64.3 C12.4 64.2 14.1 63.4 14.6 61.8 C15.2 59.8 15.5 55 15.8 51.8 C17.46667 34.43333 19.55 12.725 20.8 -0.3 C22.9 -0.3 27.1 -0.3 29.2 -0.3 C35.35 12.05 47.65 36.75 53.8 49.1 z" />
<glyph unicode="X" horiz-adv-x="72.2" d="M33 32.3 C26.95 25.75 14.85 12.65 8.8 6.1 C7.9 5.1 5.8 3.7 3.6 3.5 C2.26667 3.4 0.6 3.275 -0.4 3.2 C-0.525 2.325 -0.775 0.575 -0.9 -0.3 C3.6 -0.2 8 0 12.5 0 C17 0 21.4 -0.2 25.4 -0.3 C25.56667 0.86667 25.775 2.325 25.9 3.2 C24.525 3.275 21.775 3.425 20.4 3.5 C18.1 3.6 17 4.4 17 5.1 C17 6.2 17.3 7.5 18.5 8.8 C24.1 15.2 31.1 23.2 35.3 28 C37.825 23.025 42.875 13.075 45.4 8.1 C46 6.9 46.1 5.6 46.1 4.8 C46.1 4.1 45.1 3.4 44.2 3.4 C42.13333 3.33333 39.55 3.25 38 3.2 C38 2.325 38 0.575 38 -0.3 C43.1 -0.2 48.2 0 53.3 0 C58.4 0 63.5 -0.2 68.4 -0.3 C68.56667 0.86667 68.775 2.325 68.9 3.2 C67.725 3.275 65.375 3.425 64.2 3.5 C62.2 3.6 61.3 4.6 59.4 8.2 C54.36667 18.03333 48.075 30.325 44.3 37.7 C49.425 43.025 59.675 53.675 64.8 59 C66.9 61.2 70.6 64.2 72.6 64.3 C74.06667 64.4 75.9 64.525 77 64.6 C77.05 65.475 77.15 67.225 77.2 68.1 C72.9 68 68.5 67.8 64.2 67.8 C59.9 67.8 55.5 68 51.2 68.1 C51.03333 66.93333 50.825 65.475 50.7 64.6 C51.9 64.525 54.3 64.375 55.5 64.3 C57.8 64.2 59.4 63.5 59.4 62.4 C59.4 61.2 58.1 59.9 57.3 59 C52.23333 53.26667 45.9 46.1 42.1 41.8 C39.875 46.175 35.425 54.925 33.2 59.3 C32.5 60.6 32.3 61.7 32.3 62.7 C32.3 64 34 64.1 36.2 64.3 C37.53333 64.4 39.2 64.525 40.2 64.6 C40.2 65.475 40.2 67.225 40.2 68.1 C34.9 68 29.5 67.8 24.2 67.8 C18.9 67.8 13.5 68 8.2 68.1 C8.2 66.93333 8.2 65.475 8.2 64.6 C9.2 64.525 11.2 64.375 12.2 64.3 C14 64.2 16.7 63.4 17.8 61.4 C22.86667 51.7 29.2 39.575 33 32.3 z" />
<glyph unicode="Y" horiz-adv-x="61.1" d="M39 20.6 C39.4 22.5 39.7 24.4 40.4 26.1 C44.5 36 52.6 52.1 62.1 57.5 C63.5 58.3 65.2 59.1 66.9 59.3 C67.1 62.23333 67.35 65.9 67.5 68.1 C60.5 68.1 53.2 58.6 49.6 53.4 C44.6 46.1 40.4 38.2 37.1 30 C37.03333 30 36.95 30 36.9 30 C36.025 34.15 34.275 42.45 33.4 46.6 C32.3 51.8 30.6 57 28.1 61.8 C25.4 67 21.6 69.5 16.8 69.5 C16 69.5 14.9 69.4 14.4 69 C12.1 67.1 7.9 63.6 5.4 62 C5.5 60.9 5.625 59.525 5.7 58.7 C6.8 59.5 9.3 59.7 10.4 59.7 C15.8 59.7 19.9 49.4 21.1 45.6 C22.16667 42.1 23.5 37.725 24.3 35.1 C25.6 30.8 26.6 26.6 26.6 24.8 C26.6 23.3 26.5 21.9 26.2 20.5 C25.66667 18.06667 25 15.025 24.6 13.2 C23.5 8.1 23 6.2 22.6 5.4 C21.9 3.9 20.6 3.6 19.2 3.5 C17.56667 3.4 15.525 3.275 14.3 3.2 C14.2 2.325 14 0.575 13.9 -0.3 C19.3 -0.2 24.6 0 29.8 0 C34.7 0 39.5 -0.2 45.9 -0.3 C46.03333 0.86667 46.2 2.325 46.3 3.2 C44.825 3.275 41.875 3.425 40.4 3.5 C37.3 3.7 36.7 4.8 36.7 6.4 C36.7 7.7 36.8 8.9 37 10 C37.66667 13.53333 38.5 17.95 39 20.6 z" />
<glyph unicode="Z" horiz-adv-x="66.7" d="M0.1 -0.3 C9.8 -0.2 19.6 0 29.3 0 C39 0 48.7 -0.2 59.5 -0.3 C60.8 5.8 62.425 13.425 63.4 18 C62.5 18 60.7 18 59.8 18 C58.7 14 57.2 10.2 55.3 6.4 C50.6 5.4 43 4.9 36.8 4.9 C30.8 4.9 23.3 4.9 18.8 4.9 C30.875 19.825 55.025 49.675 67.1 64.6 C67.225 65.475 67.475 67.225 67.6 68.1 C58.3 68 49.1 67.8 40 67.8 C30.9 67.8 21.8 68 12.7 68.1 C12.46667 67.73333 12.175 67.275 12 67 C11.4 61.6 10.6 56.2 9.4 51 C10.56667 51 12.025 51 12.9 51 C13.5 52.9 14.7 56.7 15.3 58.6 C15.7 59.8 16.1 60.7 16.7 61.3 C17.8 62.4 27.9 62.9 33.2 62.9 C38.66667 62.9 45.5 62.9 49.6 62.9 C37.225 47.775 12.475 17.525 0.1 2.4 C0.1 1.725 0.1 0.375 0.1 -0.3 z" />
<glyph unicode="[" horiz-adv-x="33.3" d="M24.7 60.3 C25.2 63.5 25.8 67 26.8 67.9 C27.4 68.4 28.9 68.6 30.1 68.6 C32.6 68.53333 35.725 68.45 37.6 68.4 C37.725 69.375 37.975 71.325 38.1 72.3 C34.4 72.2 30.8 72 27.1 72 C23.4 72 19.8 72.2 17.7 72.3 C17.46667 72.03333 17.175 71.7 17 71.5 C16.9 69.1 16.8 66.8 16.5 64.5 C13.7 45.86667 10.2 22.575 8.1 8.6 C7.2 2.6 5.8 -3.4 4.5 -9.4 C4.66667 -9.66667 4.875 -10 5 -10.2 C7.1 -10.1 10.7 -9.9 14.4 -9.9 C18.4 -9.9 22.4 -10.1 26.4 -10.2 C26.56667 -9.03333 26.775 -7.575 26.9 -6.7 C24.725 -6.6 20.375 -6.4 18.2 -6.3 C15.6 -6.2 15.2 -4.1 15.2 -2.1 C15.2 0 15.7 3.1 16.1 5.6 C18.96667 23.83333 22.55 46.625 24.7 60.3 z" />
<glyph unicode="\" horiz-adv-x="60.6" d="M7.2 72 C16.5 54 35.1 18 44.4 0 C46.65 0 51.15 0 53.4 0 C44.1 18 25.5 54 16.2 72 C13.95 72 9.45 72 7.2 72 z" />
<glyph unicode="]" horiz-adv-x="33.3" d="M11.3 1.8 C10.8 -1.4 10.2 -4.9 9.2 -5.8 C8.6 -6.3 7.1 -6.5 5.9 -6.5 C3.4 -6.43333 0.275 -6.35 -1.6 -6.3 C-1.725 -7.275 -1.975 -9.225 -2.1 -10.2 C1.6 -10.1 5.2 -9.9 8.9 -9.9 C12.6 -9.9 16.2 -10.1 18.3 -10.2 C18.53333 -9.93333 18.825 -9.6 19 -9.4 C19.1 -7 19.2 -4.7 19.5 -2.4 C22.3 16.23333 25.8 39.525 27.9 53.5 C28.8 59.5 30.2 65.5 31.5 71.5 C31.33333 71.76667 31.125 72.1 31 72.3 C28.9 72.2 25.3 72 21.6 72 C17.6 72 13.6 72.2 9.6 72.3 C9.43333 71.13333 9.225 69.675 9.1 68.8 C11.275 68.7 15.625 68.5 17.8 68.4 C20.4 68.3 20.8 66.2 20.8 64.2 C20.8 62.1 20.3 59 19.9 56.5 C17.03333 38.26667 13.45 15.475 11.3 1.8 z" />
<glyph unicode="^" horiz-adv-x="60.6" d="M16 27.5 C19.575 34.475 26.725 48.425 30.3 55.4 C33.875 48.425 41.025 34.475 44.6 27.5 C47.025 27.5 51.875 27.5 54.3 27.5 C49.275 37.575 39.225 57.725 34.2 67.8 C32.225 67.8 28.275 67.8 26.3 67.8 C21.3 57.725 11.3 37.575 6.3 27.5 C8.725 27.5 13.575 27.5 16 27.5 z" />
<glyph unicode="_" horiz-adv-x="50" d="M0 -7.5 C0 -8.75 0 -11.25 0 -12.5 C12.5 -12.5 37.5 -12.5 50 -12.5 C50 -11.25 50 -8.75 50 -7.5 C37.5 -7.5 12.5 -7.5 0 -7.5 z" />
<glyph unicode="`" horiz-adv-x="33.3" d="M27.7 51.8 C28.825 51.8 31.075 51.8 32.2 51.8 C29.6 55.225 24.4 62.075 21.8 65.5 C20.2 67.6 18.3 69.9 15.5 69.9 C13.4 69.9 11 67.7 11 65.9 C11 62.8 13 61.6 15.4 60 C19.5 57.26667 24.625 53.85 27.7 51.8 z" />
<glyph unicode="a" horiz-adv-x="55.6" d="M17.4 6.5 C16.1 6.5 15.6 8.8 15.6 10.3 C15.6 13.8 17.1 20.1 18 23.6 C19.3 28.8 20.6 34.4 23.7 38.9 C25.1 40.9 27.6 41.7 30 41.7 C32.4 41.7 35.6 40.6 37.7 39.5 C37.1 35.2 36 31.3 34.8 28.5 C30.7 19 27.1 14.5 22.8 10 C20.8 7.9 18.8 6.5 17.4 6.5 zM44.4 44.3 C41.2 45.7 38.1 46.9 34.5 46.9 C32.6 46.9 29.7 46.7 27.8 45.9 C23.8 44.2 14.2 36.1 12.5 34.1 C8 28.8 4.4 13.3 4.4 6 C4.4 2.7 5.8 -1.7 9.7 -1.7 C19.9 -1.7 31 14.6 35.3 22.7 C35.36667 22.63333 35.45 22.55 35.5 22.5 C34.625 18.95 32.875 11.85 32 8.3 C31.6 6.7 31.3 4.9 31.3 2.6 C31.3 -0.6 33.1 -1.7 34.3 -1.7 C39.7 -1.7 46.9 3.6 51.9 8.2 C51.5 9.2 51 10.45 50.7 11.2 C50.2 10.8 49.2 10 48.7 9.6 C47 8.2 44.4 6.7 43.2 6.7 C42.4 6.7 41.8 7.3 41.8 8.7 C41.8 10.1 42.4 12.1 42.8 13.9 C44.3 21.03333 46.175 29.95 47.3 35.3 C47.8 37.5 48.4 39.8 49 41.5 C49.5 42.93333 50.125 44.725 50.5 45.8 C50.1 46.1 49.3 46.7 48.9 47 C47.775 46.325 45.525 44.975 44.4 44.3 z" />
<glyph unicode="b" horiz-adv-x="53.7" d="M25.1 65.2 C25.6 67.4 26 69.6 26.5 71.7 C26.16667 72 25.75 72.375 25.5 72.6 C19.5 70.1 12.4 69 5.7 68 C5.46667 67.06667 5.175 65.9 5 65.2 C6.125 65.2 8.375 65.2 9.5 65.2 C12.2 65.2 12.9 64.2 12.9 62.4 C12.9 61.6 12.8 60.7 12.6 59.6 C10.16667 45.23333 7.125 27.275 5.3 16.5 C4.9 13.9 4.4 11.8 4.4 9.2 C4.4 1.2 10.4 -1.7 16.8 -1.7 C22.8 -1.7 30.3 1.4 35.1 4.8 C45.8 12.4 49.4 23.3 49.4 36.3 C49.4 40.9 47.7 46.9 42.2 46.9 C31.6 46.9 22.9 38.3 18.3 30.9 C18.23333 30.96667 18.15 31.05 18.1 31.1 C19.85 39.625 23.35 56.675 25.1 65.2 zM34.2 40.3 C37.2 40.3 38 34.7 38 32.9 C38 26.6 36.1 19 33.6 13.2 C31.8 9.1 27.7 2.9 22.6 2.9 C17.2 2.9 15.4 7.1 15.4 11.7 C15.4 15.6 16.2 19.3 17.5 23 C19.4 28.5 20.4 30.5 24.5 34.8 C26.8 37.2 30.8 40.3 34.2 40.3 z" />
<glyph unicode="c" horiz-adv-x="44.4" d="M32 46.9 C28.1 46.9 25.4 45.6 22.3 43.9 C17.7 41.4 12.7 38.4 9.3 34.3 C5.5 29.7 3.2 18.3 3.2 12.3 C3.2 4.2 7.4 -1.7 16.1 -1.7 C24.8 -1.7 33.2 4.2 40.1 9 C39.76667 10 39.35 11.25 39.1 12 C34.2 8.7 28.7 5 22.5 5 C17.1 5 14.6 9.2 14.6 14.1 C14.6 19.5 16.2 27.8 18.1 32.7 C19.8 37.2 22.7 40.7 28 40.7 C31.6 40.7 35.2 38.8 37 37.4 C37.3 37.2 37.4 36.8 37.4 36.4 C37.4 36.26667 37.4 36.1 37.4 36 C37.25 34.6 36.95 31.8 36.8 30.4 C37.625 30.4 39.275 30.4 40.1 30.4 C41 35.1 41.8 39.9 43.6 44.5 C39.4 46 36.5 46.9 32 46.9 z" />
<glyph unicode="d" horiz-adv-x="55.6" d="M39.6 46 C37.3 46.6 35.1 46.9 32.8 46.9 C29.1 46.9 26 45.6 22.8 43.8 C18.8 41.6 13.2 37.9 10.7 34.2 C6.5 28 3.8 15 3.8 7.6 C3.8 3 5.3 -1.7 10.7 -1.7 C14.7 -1.7 25.7 4.8 35.8 23.2 C35.86667 23.13333 35.95 23.05 36 23 C35.05 19.1 33.15 11.3 32.2 7.4 C31.9 6.2 31.5 4.2 31.5 2.6 C31.5 0.4 32.6 -1.7 35.2 -1.7 C38.2 -1.7 46.8 4.1 52.2 8.2 C51.9 9.13333 51.525 10.3 51.3 11 C50.65 10.575 49.35 9.725 48.7 9.3 C46.9 8.1 44.5 6.5 43.8 6.5 C43 6.5 42.4 7.2 42.4 8.2 C42.4 9.1 42.7 11.2 42.9 12.1 C46.46667 29.8 50.925 51.925 53.6 65.2 C54 67.4 54.5 69.6 55 71.7 C54.66667 72 54.25 72.375 54 72.6 C48 70.1 40.9 69 34.2 68 C33.96667 67.06667 33.675 65.9 33.5 65.2 C34.625 65.2 36.875 65.2 38 65.2 C40.9 65.2 41.8 63.8 41.8 60.9 C41.8 59.9 41.6 58.7 41.4 57.2 C40.8 53.46667 40.05 48.8 39.6 46 zM30.2 41.9 C32.6 41.9 35.1 41.4 38.4 40.1 C37.6 36.93333 36.6 32.975 36 30.6 C34.1 23 22.6 6.5 17.8 6.5 C16.6 6.5 15.2 7.1 15.2 9.1 C15.2 16.6 18.7 34.7 23.8 40.2 C25.2 41.7 27.9 41.9 30.2 41.9 z" />
<glyph unicode="e" horiz-adv-x="44.4" d="M15.1 21.9 C15.45 23.35 16.15 26.25 16.5 27.7 C17.9 33.2 20.8 42.1 27.8 42.1 C30.8 42.1 32.4 39.8 32.4 37 C32.4 29.5 25.6 24.9 19.2 23.1 C17.83333 22.7 16.125 22.2 15.1 21.9 zM2.8 10.8 C2.8 2.7 6.9 -1.7 15.2 -1.7 C23.9 -1.7 31.4 4 38.7 8.6 C38.36667 9.53333 37.95 10.7 37.7 11.4 C33.8 8.8 26.6 4.7 21.9 4.7 C16.7 4.7 14.2 7.7 14.2 12.7 C14.2 14.8 14.4 17.1 14.7 19.3 C21.1 20.7 26.8 22.2 31.1 24.3 C37.1 27.2 41.8 31.1 41.8 38.5 C41.8 44 37.6 46.9 32.3 46.9 C30 46.9 27.1 46.2 25 45.4 C22 44.2 18.3 42.1 15.8 40.4 C9.4 36 7.5 31.7 5.3 24.6 C4.2 21 2.8 14.5 2.8 10.8 z" />
<glyph unicode="f" horiz-adv-x="33.3" d="M36.2 40.3 C36.7 42.2 37.1 43.7 37.8 45.4 C37.63333 45.66667 37.425 46 37.3 46.2 C33.2 45.8 29.1 45.5 25 45.4 C25.8 49.6 27.3 57.6 28.5 60.7 C29.7 63.7 31.5 64.6 33.3 64.6 C36 64.6 37.8 63.1 40.6 59 C41.1 59.1 41.725 59.225 42.1 59.3 C42.8 63.4 43.6 67.1 44.9 71.8 C42.9 72.4 41.5 72.6 40 72.6 C38.3 72.6 37 72.2 35.7 71.4 C33.3 69.9 29.4 67.5 26.6 65.1 C24.73333 63.46667 22.4 61.425 21 60.2 C19.1 58.5 17.3 56.6 16.2 54.5 C14.9 52 14.5 48.8 13.9 46.3 C13.2 45.9 11 45.1 8.9 44.4 C7.23333 43.86667 5.15 43.2 3.9 42.8 C3.775 42.175 3.525 40.925 3.4 40.3 C5.675 40.3 10.225 40.3 12.5 40.3 C10.725 30.95 7.175 12.25 5.4 2.9 C4.5 -1.8 3.7 -6.6 2.6 -11.2 C1.5 -15.8 0.4 -19.6 -3 -19.6 C-4.9 -19.6 -6.8 -18.5 -8.1 -15.2 C-8.66667 -15.3 -9.375 -15.425 -9.8 -15.5 C-10.1 -17.6 -12 -24.1 -13 -26.2 C-12.1 -26.8 -10.1 -27.1 -9 -27.1 C-5.2 -27.1 1.4 -21.9 4 -18.9 C7 -15.5 9.7 -11.2 11.2 -7.7 C13 -3.6 15.3 4.1 18.4 16.8 C20.23333 24.63333 22.525 34.425 23.9 40.3 C26.975 40.3 33.125 40.3 36.2 40.3 z" />
<glyph unicode="g" horiz-adv-x="50" d="M26.6 42.5 C31.6 42.5 33.4 38.6 33.4 34.2 C33.4 27.9 31.3 17.2 23.1 17.2 C17.7 17.2 15.7 21.2 15.7 26 C15.7 29 16.7 33.6 17.9 36.4 C19.5 40.2 22.5 42.5 26.6 42.5 zM16.4 -27.1 C26.6 -27.1 41.3 -22.5 41.3 -10.3 C41.3 -5.2 37.3 -1.8 33.5 0.9 C30.66667 2.9 27.125 5.4 25 6.9 C23.9 7.7 22.7 9 22.7 10.3 C22.7 12.8 26.4 14.2 29.4 15.3 C37.2 18.2 44.2 22.9 44.2 34 C44.2 36 43.6 38.1 43.1 39.4 C46.03333 39.26667 49.7 39.1 51.9 39 C52.15 40.25 52.65 42.75 52.9 44 C52.775 44.225 52.525 44.675 52.4 44.9 C50.625 44.825 47.075 44.675 45.3 44.6 C44.825 44.6 43.875 44.6 43.4 44.6 C41.6 44.6 39.8 44.7 38 44.9 C36.2 45.8 32.1 46.9 29 46.9 C25.6 46.9 21.9 45.7 17.3 43.5 C9.9 39.9 5.4 35.8 5.4 25.9 C5.4 16.7 12.3 13.7 20.3 13.7 C20.43333 13.7 20.6 13.7 20.7 13.7 C20.75 13.65 20.85 13.55 20.9 13.5 C18.675 12.15 14.225 9.45 12 8.1 C11.6 7.9 11.6 7 11.6 6.1 C11.6 4.6 12.6 2.4 14.2 1.2 C7 -1.1 -5 -5.2 -5 -14.7 C-5 -25 8.9 -27.1 16.4 -27.1 zM24.5 -6 C27.3 -7.9 30.9 -10.4 30.9 -14.2 C30.9 -20.9 23.3 -23.5 17.8 -23.5 C11.4 -23.5 3.9 -20.6 3.9 -13.2 C3.9 -7.3 8.6 -4.1 13.5 -1.8 C14.43333 -1.36667 15.6 -0.825 16.3 -0.5 C18.35 -1.875 22.45 -4.625 24.5 -6 z" />
<glyph unicode="h" horiz-adv-x="55.6" d="M47 28.8 C48.2 33.4 50.1 38.2 50.1 42.5 C50.1 45.8 48 46.9 46.1 46.9 C40.4 46.9 32.6 42 27.4 36.4 C24 32.8 20.7 28.8 18.4 25 C18.33333 25.06667 18.25 25.15 18.2 25.2 C20.375 35.2 24.725 55.2 26.9 65.2 C27.4 67.5 28.1 69.6 28.6 71.7 C28.26667 72 27.85 72.375 27.6 72.6 C21.6 70.1 14.5 69 7.8 68 C7.56667 67.06667 7.275 65.9 7.1 65.2 C8.225 65.2 10.475 65.2 11.6 65.2 C14.3 65.2 15 64.2 15 62.4 C15 61.6 14.9 60.7 14.7 59.6 C13.3 50 11.1 38 9 27.2 C7.9 21.5 3.9 2.6 2.2 -0.2 C2.53333 -0.56667 2.95 -1.025 3.2 -1.3 C5.2 -0.6 11.2 0.3 13.8 0.4 C14.2 5.7 16.9 16 19.4 20.8 C26.4 34.2 33.2 38.1 35.7 38.1 C37.8 38.1 37.9 36.3 37.9 34.8 C37.9 32.1 35.5 23.9 34.9 21.8 C33.2 15.6 30.6 6.3 30.6 2.6 C30.6 -0.6 32.4 -1.7 33.6 -1.7 C38.6 -1.7 47.5 4.7 52.2 7.9 C51.9 8.76667 51.525 9.85 51.3 10.5 C50.9 10.25 50.1 9.75 49.7 9.5 C47.4 8 44.8 6.5 43.6 6.5 C42.9 6.5 42.4 7 42.4 7.8 C42.4 10.1 42.6 12.3 43.2 14.4 C44.46667 19.2 46.05 25.2 47 28.8 z" />
<glyph unicode="i" horiz-adv-x="33.3" d="M25.5 36.5 C26.1 38.9 26.4 40.9 26.4 43.2 C26.4 45.6 25.2 46.9 23.9 46.9 C21.8 46.9 17.5 45.5 8.9 39.3 C6.8 37.73333 4.175 35.775 2.6 34.6 C2.925 33.95 3.575 32.65 3.9 32 C4.45 32.4 5.55 33.2 6.1 33.6 C7.2 34.4 11.8 37 12.9 37 C13.9 37 14 36.4 14 35.6 C13.8 34.3 13.5 33 13.2 31.9 C11.23333 23.86667 8.775 13.825 7.3 7.8 C7 6.6 6.7 4.3 6.7 2.6 C6.7 -0.6 8.5 -1.7 9.7 -1.7 C16.1 -1.7 23.6 4.5 29.3 8.4 C28.9 9.33333 28.4 10.5 28.1 11.2 C27.425 10.775 26.075 9.925 25.4 9.5 C23.1 8 20.5 6.5 19.3 6.5 C18.6 6.5 18.1 7 18.1 7.8 C18.1 9.1 19.1 13.2 20.1 16.9 C21.9 23.43333 24.15 31.6 25.5 36.5 zM25.7 69.5 C21.6 69.5 18.9 65.9 18.9 62.1 C18.9 58.6 20.9 56.4 24.4 56.4 C28.7 56.4 31.2 59.8 31.2 63.9 C31.2 67 28.8 69.5 25.7 69.5 z" />
<glyph unicode="j" horiz-adv-x="33.3" d="M4.9 32 C5.45 32.4 6.55 33.2 7.1 33.6 C8.2 34.4 12.8 37 13.9 37 C14.9 37 15 36.4 15 35.6 C15 34.2 14.6 31.5 13.6 26.9 C10.73333 13.3 7.15 -3.7 5 -13.9 C4.2 -17.8 3 -21.7 0.3 -21.7 C-1.5 -21.7 -3.1 -20 -4 -18.4 C-4.46667 -18.5 -5.05 -18.625 -5.4 -18.7 C-5.6 -21.4 -5.9 -24 -6.4 -26.6 C-5.2 -26.9 -4 -27.1 -2.9 -27.1 C3.5 -27.1 8.3 -19.9 11.3 -15 C14.3 -10 17.2 -1.6 19.8 9.1 C22.03333 18.23333 24.825 29.65 26.5 36.5 C27.1 38.9 27.4 40.9 27.4 43.2 C27.4 45.6 26.2 46.9 24.9 46.9 C22.8 46.9 18.5 45.5 9.9 39.3 C7.8 37.73333 5.175 35.775 3.6 34.6 C3.925 33.95 4.575 32.65 4.9 32 zM26.8 69.5 C22.7 69.5 20 65.9 20 62.1 C20 58.6 22 56.4 25.5 56.4 C29.8 56.4 32.3 59.8 32.3 63.9 C32.3 67 29.9 69.5 26.8 69.5 z" />
<glyph unicode="k" horiz-adv-x="55.6" d="M27.9 65.2 C28.4 67.5 29.1 69.6 29.6 71.7 C29.26667 72 28.85 72.375 28.6 72.6 C22.6 70.1 15.5 69 8.8 68 C8.56667 67.06667 8.275 65.9 8.1 65.2 C9.225 65.2 11.475 65.2 12.6 65.2 C15.3 65.2 16 64.2 16 62.4 C16 61.6 15.9 60.7 15.7 59.6 C14.3 50 12.1 38 10 27.2 C8.9 21.5 4.9 2.6 3.4 -0.5 C3.73333 -0.8 4.15 -1.175 4.4 -1.4 C7 -0.8 12.7 0.4 14.9 0.4 C14.9 4.6 17.3 15.3 17.7 16.4 C18.1 17.6 19.1 19.1 20 20.1 C21.03333 21.23333 22.325 22.65 23.1 23.5 C24.525 19.625 27.375 11.875 28.8 8 C30.9 2.4 32.5 -1.7 35.4 -1.7 C38.3 -1.7 42.7 0.8 47.6 4.2 C49.06667 5.23333 50.9 6.525 52 7.3 C51.75 8.025 51.25 9.475 51 10.2 C50.325 9.775 48.975 8.925 48.3 8.5 C46.1 7.1 44.8 6.5 43.7 6.5 C41.2 6.5 38.6 12.5 37.8 14.5 C35.63333 20.26667 32.925 27.475 31.3 31.8 C34.8 36.3 40.3 39.8 46 39.8 C47.5 39.8 49.1 39.5 50.8 39 C51.46667 41.33333 52.3 44.25 52.8 46 C51.1 46.7 49.5 46.9 48.1 46.9 C40.2 46.9 31.2 37 26.1 31.4 C23.5 28.5 20.9 25.6 18.7 22.6 C18.63333 22.66667 18.55 22.75 18.5 22.8 C20.85 33.4 25.55 54.6 27.9 65.2 z" />
<glyph unicode="l" horiz-adv-x="33.3" d="M8 14.6 C7.2 11.2 6.4 7.9 6.4 2.6 C6.4 -0.6 8.2 -1.7 9.4 -1.7 C15.2 -1.7 21.4 3.1 29.1 8.7 C28.63333 9.6 28.05 10.725 27.7 11.4 C26.95 10.825 25.45 9.675 24.7 9.1 C23.2 8 20.6 6.5 19.4 6.5 C18.7 6.5 18.2 7 18.2 7.8 C18.2 11.2 18.9 14.6 19.4 17 C22.96667 33.06667 27.425 53.15 30.1 65.2 C30.6 67.5 31.3 69.6 31.8 71.7 C31.46667 72 31.05 72.375 30.8 72.6 C24.8 70.1 17.7 69 11 68 C10.76667 67.06667 10.475 65.9 10.3 65.2 C11.425 65.2 13.675 65.2 14.8 65.2 C17.5 65.2 18.3 64.2 18.3 62.4 C18.3 61.6 18.1 60.7 17.9 59.6 C14.6 44.6 10.475 25.85 8 14.6 z" />
<glyph unicode="m" horiz-adv-x="83.3" d="M21.8 33.6 C23.3 40.1 23.7 42 23.7 43.9 C23.7 45.4 23.1 46.9 21.2 46.9 C18.9 46.9 14.5 45 10.3 41.6 C7.5 39.33333 4 36.5 1.9 34.8 C2.25 34.15 2.95 32.85 3.3 32.2 C4.225 32.9 6.075 34.3 7 35 C9.3 36.7 10.4 37 11.2 37 C11.8 37 12.4 36.7 12.4 35.1 C12.4 33.1 11 25 9.8 20 C8.4 14.2 6.2 5.9 4.1 -0.2 C4.43333 -0.56667 4.85 -1.025 5.1 -1.3 C7.1 -0.6 13.1 0.3 15.5 0.4 C15.8 2.6 16.6 7.2 18 12 C21.1 22.6 27 30 31.4 34.4 C33.6 36.6 35.6 37 37.2 37 C38.3 37 38.9 35.8 38.9 34.4 C38.9 30.4 37.2 24.2 36.2 20 C34.8 14.2 32.6 5.9 30.5 -0.2 C30.83333 -0.56667 31.25 -1.025 31.5 -1.3 C33.5 -0.6 39.5 0.3 41.9 0.4 C42.2 5.8 43.5 11 45.3 15.8 C47.2 20.9 50 25.7 54 30.2 C55.8 32.2 60.4 37 63.4 37 C64.6 37 65.2 36.3 65.2 35.3 C65.2 33.2 62.5 23.9 61.8 21.8 C61.1 19.6 57.7 6.3 57.7 2.6 C57.7 -0.6 59.5 -1.7 61.7 -1.7 C65.7 -1.7 73.9 3.3 80.3 8.9 C79.9 9.73333 79.4 10.775 79.1 11.4 C78.5 10.975 77.3 10.125 76.7 9.7 C74.4 8.1 71.9 6.5 70.7 6.5 C70 6.5 69.5 7 69.5 7.8 C69.5 9.1 70.5 13.2 71.5 16.9 C73.16667 23.03333 75.25 30.7 76.5 35.3 C77.1 37.6 77.5 40.1 77.5 42.4 C77.5 44.7 76.3 46.9 73.8 46.9 C68.1 46.9 59.5 40.5 55.7 36.5 C51.5 32.1 47.9 27.4 45.5 21.9 C45.43333 21.96667 45.35 22.05 45.3 22.1 C46.05 24.75 47.55 30.05 48.3 32.7 C49.4 36.5 50.2 39.9 50.2 41.9 C50.2 44.6 49.3 46.9 46.3 46.9 C37.1 46.9 22.7 29.9 19.3 21.9 C19.23333 21.96667 19.15 22.05 19.1 22.1 C19.775 24.975 21.125 30.725 21.8 33.6 z" />
<glyph unicode="n" horiz-adv-x="55.6" d="M3 33.1 C3.8 33.65 5.4 34.75 6.2 35.3 C8.4 36.8 9.5 37 10.4 37 C11.1 37 11.4 36.4 11.4 35.1 C11.4 32.2 9.7 24.3 8.7 20 C7.5 14.7 5 5.9 2.9 -0.2 C3.23333 -0.56667 3.65 -1.025 3.9 -1.3 C5.9 -0.6 11.9 0.3 14.5 0.4 C14.8 2.8 15.7 6.9 16.9 11.8 C18.1 16.7 22 24.9 26.7 30.3 C31.9 36.2 34 37 35.7 37 C37.2 37 37.8 36.3 37.8 34.8 C37.8 32.1 35.4 23.9 34.8 21.8 C33.1 15.6 30.5 6.3 30.5 2.6 C30.5 0 32 -1.7 34.1 -1.7 C39.9 -1.7 46.7 4.2 52.1 8 C51.66667 8.9 51.125 10.025 50.8 10.7 C50.075 10.2 48.625 9.2 47.9 8.7 C45.1 6.7 44.1 6.5 43.3 6.5 C42.6 6.5 42.3 7.2 42.3 8 C42.3 10.3 42.8 12.9 43.6 16 C45.2 22.13333 47.2 29.8 48.4 34.4 C49 36.7 50 40.9 50 42.5 C50 45.8 47.9 46.9 46 46.9 C44.3 46.9 41.7 46.2 37.4 43.6 C33 40.9 23.7 33.4 18.3 22.8 C18.23333 22.8 18.15 22.8 18.1 22.8 C18.475 24.15 19.225 26.85 19.6 28.2 C22.3 37.8 23 40.8 23 43.9 C23 45.4 22.5 46.9 20.1 46.9 C18.7 46.9 15.9 46.3 10.1 42 C7.3 39.93333 3.8 37.35 1.7 35.8 C2.025 35.125 2.675 33.775 3 33.1 z" />
<glyph unicode="o" horiz-adv-x="55.6" d="M30.8 42.5 C35.8 42.5 38.8 38 38.8 33.2 C38.8 23.1 35.7 2.7 24.2 2.7 C19.2 2.7 16.2 7.2 16.2 12 C16.2 22.2 19.3 42.5 30.8 42.5 zM20.1 -1.7 C28.5 -1.7 35.9 2.1 41.9 7.9 C45.3 11.1 46.4 13.7 47.9 18.1 C49.1 21.7 50.2 27.1 50.2 30.8 C50.2 41 45.4 46.9 35 46.9 C26.6 46.9 19.3 43 13.2 37.3 C9.8 34.1 8.7 31.5 7.2 27.1 C6 23.5 4.8 18.1 4.8 14.4 C4.8 3.7 8.9 -1.7 20.1 -1.7 z" />
<glyph unicode="p" horiz-adv-x="55.6" d="M1.1 -14.2 C0.2 -18.2 -0.9 -22.4 -2.1 -26.4 C-1.76667 -26.63333 -1.35 -26.925 -1.1 -27.1 C1.6 -26.6 7.4 -25.2 10.1 -25 C10.5 -17.8 13.1 -8.1 14.9 -1 C16.7 -1.5 18.5 -1.7 20.4 -1.7 C24.3 -1.7 26.7 -1 28.6 -0.2 C32.2 1.3 39.6 6.8 42.6 9.8 C48.4 15.6 51.6 28.3 51.6 36 C51.6 36.13333 51.6 36.3 51.6 36.4 C51.5 42 50.8 46.9 45.9 46.9 C35.3 46.9 25 35.4 19.9 25.9 C19.83333 25.96667 19.75 26.05 19.7 26.1 C22.3 37.8 23 40.8 23 43.9 C23 45.4 22.5 46.9 20.1 46.9 C18.7 46.9 15.9 46.3 10.1 42 C7.3 39.93333 3.8 37.35 1.7 35.8 C2.025 35.125 2.675 33.775 3 33.1 C3.8 33.65 5.4 34.75 6.2 35.3 C8.4 36.8 9.5 37 10.4 37 C11.1 37 11.4 36.4 11.4 35.1 C11.4 33.1 10.2 25.1 9 19.8 C6.36667 8.46667 3.075 -5.7 1.1 -14.2 zM17.5 12.1 C18.6 17 19.5 20.2 22.1 24.7 C27.4 33.8 33.5 39.1 37.3 39.1 C37.33333 39.1 37.375 39.1 37.4 39.1 C40.2 39 40.2 34.8 40.2 33.4 C40.2 29 39.4 24.7 38.1 20.5 C36.3 14.8 33.4 3.2 25.7 3.2 C22.3 3.2 19 4.2 16.1 5.9 C16.56667 7.96667 17.15 10.55 17.5 12.1 z" />
<glyph unicode="q" horiz-adv-x="53.7" d="M37.4 35.7 C36.2 29.9 34.9 25.8 31.8 20.8 C29.8 17.6 21.4 6.5 17 6.5 C15.1 6.5 14.6 8.2 14.6 10 C14.6 16.2 19.2 33.8 23 38.9 C24.7 41.2 27.3 41.7 30.1 41.7 C32.1 41.7 35.1 41.1 38.2 39.6 C37.93333 38.3 37.6 36.675 37.4 35.7 zM44.8 44.3 C41.2 46.2 37.1 46.9 33 46.9 C30.7 46.9 29.3 46.7 27.2 45.7 C23.5 43.9 14 37.3 11.3 34.1 C6.8 28.8 3.2 13.3 3.2 6 C3.2 2.8 4.5 -1.7 8.4 -1.7 C17.8 -1.7 29.3 12.2 34.1 18.9 C34.16667 18.83333 34.25 18.75 34.3 18.7 C32.275 9.9 28.225 -7.7 26.2 -16.5 C25.7 -18.4 24.7 -22.9 23.4 -24.1 C22.9 -24.5 22.275 -25 21.9 -25.3 C22.125 -25.75 22.575 -26.65 22.8 -27.1 C26 -26.4 31.5 -25.4 36 -25.2 C36 -24.9 35.9 -24.6 35.9 -24.3 C35.9 -20.9 37.5 -13.6 38 -11.3 C41.06667 2.96667 44.9 20.8 47.2 31.5 C48.6 38.1 49.9 42.9 51.3 45.8 C50.7 46.16667 49.95 46.625 49.5 46.9 C48.325 46.25 45.975 44.95 44.8 44.3 z" />
<glyph unicode="r" horiz-adv-x="38.9" d="M20.3 29 C22.3 37.8 23.4 40.8 23.4 43.9 C23.4 45.4 22.8 46.9 20.9 46.9 C19 46.9 16 46.2 10.1 41.6 C7.4 39.46667 4.025 36.8 2 35.2 C2.325 34.55 2.975 33.25 3.3 32.6 C4.15 33.2 5.85 34.4 6.7 35 C9.1 36.6 10.1 37 10.9 37 C11.5 37 12.1 36.7 12.1 35.1 C12.1 33.1 10.6 24.2 9.5 19.4 C8.7 15.83333 7.7 11.375 7.1 8.7 C6.4 5.6 5.4 2.5 4.4 -0.5 C4.76667 -0.9 5.225 -1.4 5.5 -1.7 C8.5 -0.6 13.1 -0.1 16.3 0.2 C17.3 7.1 18.8 15.9 21.8 22.3 C24 26.9 26.8 33.9 32.9 33.9 C34.3 33.9 36.2 33.2 37.9 32 C38.3 32.2 38.8 32.45 39.1 32.6 C39.1 37.1 40 41.6 41.1 46.3 C40.3 46.7 39.4 46.9 38.6 46.9 C30.5 46.9 26.9 38.4 19.8 24.2 C19.56667 24.06667 19.275 23.9 19.1 23.8 C19.4 25.1 20 27.7 20.3 29 z" />
<glyph unicode="s" horiz-adv-x="44.4" d="M22.6 17.7 C26.2 17 29.4 15.3 29.4 11.1 C29.4 5.6 24.8 3.8 20 3.8 C16 3.8 10.1 6.2 7.6 9.4 C7.6 10.96667 7.6 12.925 7.6 14.1 C6.85 14.1 5.35 14.1 4.6 14.1 C4.2 9.7 3.4 5.4 2.5 1 C7 -0.4 11.5 -1.7 16 -1.7 C23 -1.7 27.8 0.7 33.1 5.1 C36.9 8.3 39.4 10.9 39.4 16.3 C39.4 21.9 34.7 25.4 29.6 26.5 C27.63333 26.93333 25.175 27.475 23.7 27.8 C20.4 28.5 16.1 29.6 16.1 33.8 C16.1 38.8 19.5 41.4 24.4 41.4 C28.5 41.4 32.3 39.6 35.3 37 C35.5 35.4 35.75 33.4 35.9 32.2 C36.65 32.2 38.15 32.2 38.9 32.2 C38.9 36 40 40.1 40.6 43.8 C36.9 46 32.5 46.9 28.2 46.9 C26.5 46.9 25.2 46.7 23.5 46.3 C20.7 45.6 15.4 42.1 13.1 40.5 C9.2 37.8 6.8 34.8 6.8 29.7 C6.8 22.9 12.2 19.8 18.2 18.6 C19.66667 18.3 21.5 17.925 22.6 17.7 z" />
<glyph unicode="t" horiz-adv-x="38.9" d="M15.1 40.1 C13.55 32.775 10.45 18.125 8.9 10.8 C8.5 9 7.9 6.4 7.9 4.7 C7.9 -0.8 10.8 -1.7 13.7 -1.7 C17.3 -1.7 21.6 0.5 26.6 4.2 C29.16667 6.1 32.375 8.475 34.3 9.9 C33.975 10.55 33.325 11.85 33 12.5 C31.6 11.5 28.8 9.5 27.4 8.5 C24.7 6.5 23.2 6.4 22 6.4 C21.9 6.4 21.775 6.4 21.7 6.4 C20.2 6.4 19.6 7.2 19.6 9.3 C19.6 11.7 20 14 20.5 16.4 C22.2 24.3 24.325 34.175 25.6 40.1 C26.775 40.1 29.125 40.1 30.3 40.1 C33.4 40.1 36.6 40 39.5 39.6 C39.96667 41.46667 40.55 43.8 40.9 45.2 C40.75 45.325 40.45 45.575 40.3 45.7 C36.95 45.575 30.25 45.325 26.9 45.2 C27.225 46.6 27.875 49.4 28.2 50.8 C29.1 54.7 30.2 58.5 31.3 62.4 C30.96667 62.8 30.55 63.3 30.3 63.6 C28.65 63 25.35 61.8 23.7 61.2 C22 60.6 20.1 60.1 18 59.8 C18 59.26667 18 58.6 18 58.2 C18 55.2 17.2 50.5 16.4 46 C12.56667 44.93333 7.775 43.6 4.9 42.8 C4.725 42.125 4.375 40.775 4.2 40.1 C6.925 40.1 12.375 40.1 15.1 40.1 z" />
<glyph unicode="u" horiz-adv-x="55.6" d="M2.2 36.5 C2.525 35.85 3.175 34.55 3.5 33.9 C4.4 34.425 6.2 35.475 7.1 36 C8.5 36.8 9.6 37 10.5 37 C11.3 37 12.1 36.6 12.1 35.5 C12.1 31.5 9 20.9 7.2 13.6 C6.4 10.3 5.3 7.2 5.3 3.7 C5.3 1.5 6.6 -1.7 9.6 -1.7 C19 -1.7 30.5 13.2 35.6 21.7 C35.66667 21.63333 35.75 21.55 35.8 21.5 C35.05 18.8 33.55 13.4 32.8 10.7 C32 7.7 31.2 4.8 31.2 2.6 C31.2 -0.6 33.1 -1.7 34.8 -1.7 C37.5 -1.7 47.1 4.9 52.1 8.8 C51.76667 9.73333 51.35 10.9 51.1 11.6 C50.55 11.175 49.45 10.325 48.9 9.9 C46.3 7.9 44.4 7.4 43.4 7.4 C42.5 7.4 42 7.9 42 8.7 C42 10.2 42.9 13.6 44 18 C46.2 26.8 48.7 36 51.6 45.4 C51.3 45.76667 50.925 46.225 50.7 46.5 C47.4 45.5 43.6 44.7 40.3 44.7 C40.1 44.7 39.85 44.7 39.7 44.7 C39.7 42 39.2 39.5 38.7 37.2 C37 30 34 23.1 29.7 17.2 C27.9 14.6 22.1 7.1 18.8 7.1 C17.8 7.1 17 7.5 17 8.3 C17 10.6 17.5 12.8 18 15 C19.16667 19.56667 20.625 25.275 21.5 28.7 C23 34.7 24.4 39.3 24.4 43.4 C24.4 45.4 23.6 46.9 21.7 46.9 C19.3 46.9 15.1 45.3 10.1 41.9 C7.46667 40.1 4.175 37.85 2.2 36.5 z" />
<glyph unicode="v" horiz-adv-x="55.6" d="M1.9 32.4 C2.6 32.4 4 32.4 4.7 32.4 C5.4 33.9 6.8 36.9 7.5 38.4 C7.8 39.1 9.4 39.2 11.8 39.2 C16.6 39.2 20.8 39.2 24.9 40.2 C24.96667 40.13333 25.05 40.05 25.1 40 C24.15 39.05 22.25 37.15 21.3 36.2 C14.5 29 8.7 23.2 8.7 12.2 C8.7 4.5 12.2 -1.7 20.7 -1.7 C36.8 -1.7 51.3 23.2 51.3 37.1 C51.3 41.5 48.3 46.9 44.7 46.9 C43.7 46.9 42.7 46.8 41.7 46.5 C39.3 43.7 37.4 41.5 35.1 39.8 C35.43333 39.1 35.85 38.225 36.1 37.7 C36.9 38.5 38.5 38.9 39.6 38.9 C42.6 38.9 43.6 35.8 43.6 33.3 C43.6 25 37.1 4.6 26.5 4.6 C20.9 4.6 19.7 10 19.7 14.6 C19.7 26 25.2 37.2 32.4 45 C31.93333 45.63333 31.35 46.425 31 46.9 C30.2 46.2 26.9 45.5 24.8 45.5 C22.7 45.5 16.9 46 13.4 46.1 C12.83333 46.1 12.125 46.1 11.7 46.1 C9.8 46.1 7.9 46 6 45.6 C4.63333 41.2 2.925 35.7 1.9 32.4 z" />
<glyph unicode="w" horiz-adv-x="83.3" d="M2.7 32.4 C3.4 32.4 4.8 32.4 5.5 32.4 C6.2 33.9 7.6 36.9 8.3 38.4 C8.6 39.1 10.2 39.2 12.6 39.2 C17.4 39.2 21.6 39.2 25.7 40.2 C25.76667 40.13333 25.85 40.05 25.9 40 C24.95 39.05 23.05 37.15 22.1 36.2 C14 28.2 9.1 21.5 9.1 12.2 C9.1 5.6 11.5 -1.7 19.4 -1.7 C28.4 -1.7 37.2 9.9 40.5 17.1 C40.56667 17.03333 40.65 16.95 40.7 16.9 C40.3 14.5 39.9 11.9 39.9 9.3 C39.9 3.2 42.8 -1.7 49.4 -1.7 C65 -1.7 80.2 23 80.2 37.1 C80.2 41.5 77.2 46.9 73.6 46.9 C72.6 46.9 71.6 46.8 70.6 46.5 C68.2 43.7 65.7 41.9 63.5 40.4 C63.9 39.63333 64.4 38.675 64.7 38.1 C66 38.8 67.4 38.9 68.5 38.9 C71.5 38.9 72.5 35.8 72.5 33.3 C72.5 25.3 65.5 4.6 55.4 4.6 C51 4.6 49.6 9.2 49.6 12.8 C49.6 17.8 51.6 26.8 52.7 31.9 C53.7 36.6 55.1 41.3 56.4 46 C56 46.3 55.5 46.675 55.2 46.9 C52.4 45.8 48.4 44.6 44.5 44.2 C44.3 42.1 44 39.8 43.5 37.8 C42.7 34.16667 41.7 29.625 41.1 26.9 C38.1 13.8 30.2 4.6 25.3 4.6 C21.7 4.6 20.5 10 20.5 14.6 C20.5 26 26 37.2 33.2 45 C32.73333 45.63333 32.15 46.425 31.8 46.9 C31 46.2 27.7 45.5 25.6 45.5 C23.5 45.5 17.7 46 14.2 46.1 C13.63333 46.1 12.925 46.1 12.5 46.1 C10.6 46.1 8.7 46 6.8 45.6 C5.43333 41.2 3.725 35.7 2.7 32.4 z" />
<glyph unicode="x" horiz-adv-x="50" d="M0.8 9.8 C0.6 6.6 0 3 -0.8 -0.3 C0.6 -1.1 1.9 -1.7 3.7 -1.7 C7 -1.7 10.8 1.7 12.9 4.6 C15.73333 8.4 19.275 13.15 21.4 16 C21.65 14.55 22.15 11.65 22.4 10.2 C23.2 5.5 24.4 -1.7 30.6 -1.7 C35.1 -1.7 42.9 5.7 46.4 8.6 C45.86667 9.36667 45.2 10.325 44.8 10.9 C44.05 10.375 42.55 9.325 41.8 8.8 C39.3 7 38.2 6.4 37.2 6.4 C35.5 6.4 34.1 7.2 33 10.6 C32.2 13 31.3 16.1 30.7 19.7 C30.33333 21.83333 29.875 24.5 29.6 26.1 C30.55 27.375 32.45 29.925 33.4 31.2 C35.7 34.3 39.7 38.1 42.6 38.1 C43.3 38.1 44 37.9 44.7 37.6 C45 36.66667 45.375 35.5 45.6 34.8 C46.125 34.925 47.175 35.175 47.7 35.3 C48.2 39.9 48.5 43.2 50 45.9 C49.2 46.4 47.3 46.9 46.4 46.9 C41.6 46.9 37.7 42.1 35.1 38.6 C33 35.7 30.375 32.075 28.8 29.9 C28.7 30.475 28.5 31.625 28.4 32.2 C26.9 41.1 25 46.9 16.6 46.9 C14.5 46.9 11.5 45.7 9.5 44.9 C7.7 41.5 6 37.8 3.6 34.8 C4.36667 34.36667 5.325 33.825 5.9 33.5 C6.9 35.7 10.8 38.4 13 38.4 C16.4 38.4 18.3 32.6 19 28.5 C19.53333 25.56667 20.2 21.9 20.6 19.7 C19.3 17.875 16.7 14.225 15.4 12.4 C12.7 8.6 9.8 6.3 6.5 6.3 C5.7 6.3 4.8 6.5 3.8 6.9 C3.6 7.93333 3.35 9.225 3.2 10 C2.6 9.95 1.4 9.85 0.8 9.8 z" />
<glyph unicode="y" horiz-adv-x="55.6" d="M2.7 32.9 C4.4 34.4 8.4 37 10.6 37 C12.2 37 12.6 36.1 12.6 34.9 C12.6 34.5 12.6 34.1 12.5 33.7 C11.86667 27.63333 11.075 20.05 10.6 15.5 C10.3 12.6 10 9.7 10 6.8 C10 3.9 11 -1.7 14.9 -1.7 C20.2 -1.7 29.8 6 35.1 16.3 C35.16667 16.23333 35.25 16.15 35.3 16.1 C34.325 12.175 32.375 4.325 31.4 0.4 C27.4 -16 22.4 -22.5 16.4 -22.5 C11.9 -22.5 10 -19.9 10 -15.6 C10 -15.1 10 -14.6 10.1 -14 C9.5 -13.8 8.75 -13.55 8.3 -13.4 C6.75 -14.4 3.65 -16.4 2.1 -17.4 C2.6 -24.8 7.3 -27.1 12.7 -27.1 C19.4 -27.1 27.2 -21.3 31.2 -16.3 C36.2 -10 40.2 -1.6 42.8 7.8 C48 26.7 51.6 40 54.1 45.3 C53.7 45.7 53.2 46.2 52.9 46.5 C49.6 45.5 45.8 44.7 42.5 44.7 C42.3 44.7 42.05 44.7 41.9 44.7 C41.9 42 41.4 39.5 40.9 37.2 C37 19.4 26.8 6.7 22.3 6.7 C21.2 6.7 20.7 8.8 20.7 10.2 C20.7 12.6 20.8 13.7 21.1 16.3 C21.73333 21.73333 22.525 28.525 23 32.6 C23.4 36.1 23.5 38.5 23.5 40.9 C23.5 44.2 22.3 46.9 19.4 46.9 C17.9 46.9 14.1 45.6 9.3 41.9 C6.63333 39.83333 3.3 37.25 1.3 35.7 C1.65 35 2.35 33.6 2.7 32.9 z" />
<glyph unicode="z" horiz-adv-x="50" d="M3.1 2.5 C3.5 1.75 4.3 0.25 4.7 -0.5 C6.7 1.2 9.4 2.2 12 2.2 C15.4 2.2 17.9 1.8 22 0.6 C26.5 -0.7 32.4 -1.7 36.2 -1.7 C38.5 -1.7 41.2 -1.4 41.6 0.6 C42.5 5.2 43.6 9.5 45.1 13.8 C44.16667 13.86667 43 13.95 42.3 14 C41.6 12.55 40.2 9.65 39.5 8.2 C39.1 8.2 38.6 8.1 38.2 8.1 C36.5 8.1 34.5 8.4 32.8 8.7 C30.2 9.2 25.8 9.7 22.7 9.7 C20.1 9.7 17.4 9.1 13.4 7.6 C13.33333 7.66667 13.25 7.75 13.2 7.8 C21.3 16.125 37.5 32.775 45.6 41.1 C45.95 42.35 46.65 44.85 47 46.1 C46.5 46.3 45.5 46.7 45 46.9 C44.775 46.575 44.325 45.925 44.1 45.6 C43 44.1 40.9 43.2 38.5 43.2 C36.2 43.2 32.7 43.6 28.8 44.6 C24.1 45.8 20.2 46.9 17.7 46.9 C15.7 46.9 13.7 46.5 11.9 45.9 C10.4 41.26667 8.525 35.475 7.4 32 C8.125 31.925 9.575 31.775 10.3 31.7 C10.875 33 12.025 35.6 12.6 36.9 C17.4 36.4 24 35.6 29 35.6 C32.1 35.6 34.7 36.5 37 37.6 C37.06667 37.53333 37.15 37.45 37.2 37.4 C28.675 28.675 11.625 11.225 3.1 2.5 z" />
<glyph unicode="{" horiz-adv-x="33.3" d="M16.6 17.1 C16.9 19 17.1 20.8 17.1 22.3 C17.1 26.5 15.6 29.3 10.7 30.5 C10.7 30.56667 10.7 30.65 10.7 30.7 C17.8 32 19.9 36.1 21.1 42.9 C22.13333 48.9 23.425 56.4 24.2 60.9 C25.3 67.2 27.4 70.1 33.4 71.8 C33.4 71.86667 33.4 71.95 33.4 72 C31.7 72 28.3 72 26.6 72 C24.5 72 22.3 71 20 69.6 C16 67.1 15 63.2 14.3 59.1 C13.26667 53.1 11.975 45.6 11.2 41.1 C10.2 35.1 8 31.7 1.8 30.7 C1.8 30.63333 1.8 30.55 1.8 30.5 C6.3 29.3 7.9 27.3 7.9 23.7 C7.9 22.6 7.8 21.3 7.5 19.8 C6.56667 14.5 5.4 7.875 4.7 3.9 C4.4 2 4 -0.1 4 -2.1 C4 -7.7 9.3 -10.5 11.7 -10.5 C14.16667 -10.5 17.25 -10.5 19.1 -10.5 C19.1 -10.45 19.1 -10.35 19.1 -10.3 C15 -9.3 13.4 -7 13.4 -3.1 C13.4 -2.1 13.5 -1 13.7 0.3 C14.66667 5.9 15.875 12.9 16.6 17.1 z" />
<glyph unicode="|" horiz-adv-x="60.6" d="M25.9 75 C25.9 50 25.9 0 25.9 -25 C28.1 -25 32.5 -25 34.7 -25 C34.7 0 34.7 50 34.7 75 C32.5 75 28.1 75 25.9 75 z" />
<glyph unicode="}" horiz-adv-x="33.3" d="M16.7 44.4 C16.4 42.5 16.2 40.7 16.2 39.2 C16.2 35 17.7 32.2 22.6 31 C22.6 30.93333 22.6 30.85 22.6 30.8 C15.5 29.5 13.4 25.4 12.2 18.6 C11.16667 12.6 9.875 5.1 9.1 0.6 C8 -5.7 5.9 -8.6 -0.1 -10.3 C-0.1 -10.36667 -0.1 -10.45 -0.1 -10.5 C1.6 -10.5 5 -10.5 6.7 -10.5 C8.8 -10.5 11 -9.5 13.3 -8.1 C17.3 -5.6 18.3 -1.7 19 2.4 C20.03333 8.4 21.325 15.9 22.1 20.4 C23.1 26.4 25.3 29.8 31.5 30.8 C31.5 30.86667 31.5 30.95 31.5 31 C27 32.2 25.4 34.2 25.4 37.8 C25.4 38.9 25.5 40.2 25.8 41.7 C26.73333 47 27.9 53.625 28.6 57.6 C28.9 59.5 29.3 61.6 29.3 63.6 C29.3 69.2 24 72 21.6 72 C19.13333 72 16.05 72 14.2 72 C14.2 71.95 14.2 71.85 14.2 71.8 C18.3 70.8 19.9 68.5 19.9 64.6 C19.9 63.6 19.8 62.5 19.6 61.2 C18.63333 55.6 17.425 48.6 16.7 44.4 z" />
<glyph unicode="~" horiz-adv-x="60.6" d="M50.1 34.6 C48.1 31.3 45.5 26.8 41.2 26.8 C38.8 26.8 35.2 28.5 31.4 30.2 C27.5 31.9 23.4 33.6 19.7 33.6 C12.5 33.6 8.2 27.1 5.1 21.4 C6.9 19.3 9.15 16.675 10.5 15.1 C12.8 18.9 14.9 23.7 20 23.7 C22.7 23.7 29.9 20.3 32.2 19.4 C35.2 18.2 38 16.9 41.3 16.9 C48.2 16.9 52.4 23.1 55.5 28.4 C53.7 30.46667 51.45 33.05 50.1 34.6 z" />
<glyph unicode="" horiz-adv-x="25" d="" />
<glyph unicode="" horiz-adv-x="33.3" d="M19.4 47.9 C14.5 47.9 12 43.3 12 38.9 C12 35.1 14.9 32.7 18.6 32.7 C23.6 32.7 25.9 37.4 25.9 41.8 C25.9 45.8 23.2 47.9 19.4 47.9 zM14.5 25.2 C13.5 21.1 12.5 17 11.2 13 C7.53333 1.46667 2.95 -12.95 0.2 -21.6 C0.5 -21.825 1.1 -22.275 1.4 -22.5 C4.575 -21.775 10.925 -20.325 14.1 -19.6 C14.425 -19.6 15.075 -19.6 15.4 -19.6 C15.4 -18.775 15.4 -17.125 15.4 -16.3 C16.475 -5.55 18.625 15.95 19.7 26.7 C19.375 26.925 18.725 27.375 18.4 27.6 C17.425 27 15.475 25.8 14.5 25.2 z" />
<glyph unicode="" horiz-adv-x="50" d="M19 7.1 C17.4 9.5 16.7 12.3 16.7 15.4 C16.7 21.6 18.6 30.1 21.6 35.6 C23.9 39.9 26.9 40.5 31.7 40.5 C27.46667 29.36667 22.175 15.45 19 7.1 zM36.9 54.7 C36.175 52.75 34.725 48.85 34 46.9 C29.5 46.6 25.3 45.3 22.1 43 C19.5 41.13333 16.25 38.8 14.3 37.4 C11.5 35.4 10.1 32.8 8 27.5 C5.5 21.1 5.2 16.1 5.2 12.6 C5.2 5.6 7.5 0.4 15.7 -1.5 C14.56667 -4.5 13.15 -8.25 12.3 -10.5 C13.3 -10.5 15.3 -10.5 16.3 -10.5 C17.125 -8.3 18.775 -3.9 19.6 -1.7 C26 -0.8 30.8 1.1 36.1 4.8 C38.1 6.2 40.6 7.95 42.1 9 C41.825 9.775 41.275 11.325 41 12.1 C34.9 7 29.3 5 22.2 5 C26.56667 16.46667 32.025 30.8 35.3 39.4 C37.1 38.8 39.1 37.9 39.1 36.7 C39.1 34.63333 39.1 32.05 39.1 30.5 C39.825 30.45 41.275 30.35 42 30.3 C42.9 33.775 44.7 40.725 45.6 44.2 C43.3 45.6 40.9 46.2 38.1 46.5 C39.1 49.23333 40.35 52.65 41.1 54.7 C40.05 54.7 37.95 54.7 36.9 54.7 z" />
<glyph unicode="" horiz-adv-x="50" d="M38.7 31.5 C38.85 32.5 39.15 34.5 39.3 35.5 C35.575 35.5 28.125 35.5 24.4 35.5 C25.325 40.225 27.175 49.675 28.1 54.4 C29.3 60.3 32.9 62.7 37.1 62.7 C41.3 62.7 44.4 60.8 44.4 57.4 C44.4 56.1 44.4 54.475 44.4 53.5 C44.975 53.35 46.125 53.05 46.7 52.9 C47.55 56.125 49.25 62.575 50.1 65.8 C46 67.8 42.7 68.3 39.9 68.3 C36.6 68.3 32.4 66.4 26.7 62.8 C21.6 59.6 18.9 56.4 16.8 52 C15.1 48.4 13.7 42.2 13 35.5 C10.16667 35.5 6.625 35.5 4.5 35.5 C4.35 34.5 4.05 32.5 3.9 31.5 C6.1 31.5 10.5 31.5 12.7 31.5 C12.3 23.4 11.3 14 9.7 11.4 C8.1 8.8 5.1 6.8 2.1 5.4 C2.1 3.4 2.4 1.5 3 -0.5 C3.36667 -0.5 3.825 -0.5 4.1 -0.5 C5 -0.5 6.5 0.8 7.9 2 C9.3 3.2 11.1 4.2 12.6 4.2 C13.9 4.2 18 3.5 21.9 2.6 C27.7 1.3 35.1 -0.4 39.7 -0.4 C41.9 -0.4 44.4 0 44.9 1.8 C46.46667 7.6 48.425 14.85 49.6 19.2 C48.825 19.2 47.275 19.2 46.5 19.2 C45.925 17.75 44.775 14.85 44.2 13.4 C43.4 11.4 41.7 10.3 39.5 10.3 C37.5 10.3 34.9 10.3 32.5 10.6 C30.2 10.9 27.5 11.2 24.9 11.2 C20.3 11.2 17.1 11.1 13.1 10 C13.1 10.06667 13.1 10.15 13.1 10.2 C16.1 13.2 18.3 16.4 19.7 19.6 C21.2 23 22.5 27.4 23.6 31.5 C28.63333 31.5 34.925 31.5 38.7 31.5 z" />
<glyph unicode="" horiz-adv-x="50" d="M3.2 14.1 C4.325 12.975 6.575 10.725 7.7 9.6 C8.9 10.8 11.3 13.2 12.5 14.4 C15.6 11.6 20.2 10.2 25.2 10.2 C29.8 10.2 34.5 11.7 37.5 14.5 C39.06667 12.86667 41.025 10.825 42.2 9.6 C43.325 10.725 45.575 12.975 46.7 14.1 C45.55 15.3 43.25 17.7 42.1 18.9 C44.7 22.1 46.1 26.7 46.1 31.4 C46.1 36 44.7 40.8 42.2 43.6 C43.73333 45.2 45.65 47.2 46.8 48.4 C45.575 49.625 43.125 52.075 41.9 53.3 C40.7 52.075 38.3 49.625 37.1 48.4 C34.3 50.8 29.7 52.4 25.2 52.4 C20.5 52.4 15.6 50.8 12.7 48.3 C11.1 49.9 9.1 51.9 7.9 53.1 C6.725 51.925 4.375 49.575 3.2 48.4 C4.425 47.175 6.875 44.725 8.1 43.5 C5.2 40.6 3.9 35.9 3.9 31.2 C3.9 26.5 5.3 22.2 8.1 19 C6.46667 17.36667 4.425 15.325 3.2 14.1 zM25.2 17.8 C17.8 17.8 11.6 23.8 11.6 31.2 C11.6 38.7 17.8 44.7 25.2 44.7 C32.5 44.7 38.4 38.5 38.4 31.4 C38.4 24.1 32.5 17.8 25.2 17.8 z" />
<glyph unicode="" horiz-adv-x="50" d="M53.8 68.1 C47.9 68.1 41.7 58.6 38.6 53.4 C34.4 46.1 30.8 38.2 28 30 C27.93333 30 27.85 30 27.8 30 C27.075 34.15 25.625 42.45 24.9 46.6 C23.9 51.8 22.5 57 20.4 61.8 C18.1 67 14.8 69.5 10.8 69.5 C10.1 69.5 9.1 69.4 8.7 69 C6.8 67.1 3.2 63.6 1.1 62 C1.16667 60.9 1.25 59.525 1.3 58.7 C2.3 59.5 4.4 59.7 5.3 59.7 C9.9 59.7 13.4 49.4 14.4 45.6 C15.3 42.06667 16.425 37.65 17.1 35 C15.025 35 10.875 35 8.8 35 C8.6 34 8.2 32 8 31 C10.55 31 15.65 31 18.2 31 C18.7 27.8 19.1 25.7 19.1 23.5 C15.26667 23.5 10.475 23.5 7.6 23.5 C7.4 22.5 7 20.5 6.8 19.5 C9.7 19.5 15.5 19.5 18.4 19.5 C18.15 17.925 17.65 14.775 17.4 13.2 C16.5 8.1 15.9 6.2 15.6 5.4 C15 3.9 13.9 3.6 12.7 3.5 C11.3 3.4 9.55 3.275 8.5 3.2 C8.425 2.325 8.275 0.575 8.2 -0.3 C12.8 -0.2 17.3 0 21.7 0 C25.9 0 30 -0.2 35.4 -0.3 C35.5 0.86667 35.625 2.325 35.7 3.2 C34.45 3.275 31.95 3.425 30.7 3.5 C28.1 3.7 27.6 4.8 27.6 6.4 C27.6 7.7 27.7 8.9 27.8 10 C28.3 13.16667 28.925 17.125 29.3 19.5 C32.275 19.5 38.225 19.5 41.2 19.5 C41.375 20.5 41.725 22.5 41.9 23.5 C38.925 23.5 32.975 23.5 30 23.5 C30.625 25.375 31.875 29.125 32.5 31 C34.975 31 39.925 31 42.4 31 C42.575 32 42.925 34 43.1 35 C40.925 35 36.575 35 34.4 35 C37.3 42.6 42.9 53.2 49.3 57.5 C50.4 58.3 51.9 59.1 53.3 59.3 C53.46667 62.23333 53.675 65.9 53.8 68.1 z" />
<glyph unicode="" horiz-adv-x="60.6" d="M25.9 67.5 C25.9 58.75 25.9 41.25 25.9 32.5 C28.1 32.5 32.5 32.5 34.7 32.5 C34.7 41.25 34.7 58.75 34.7 67.5 C32.5 67.5 28.1 67.5 25.9 67.5 zM25.9 17.5 C25.9 8.75 25.9 -8.75 25.9 -17.5 C28.1 -17.5 32.5 -17.5 34.7 -17.5 C34.7 -8.75 34.7 8.75 34.7 17.5 C32.5 17.5 28.1 17.5 25.9 17.5 z" />
<glyph unicode="" horiz-adv-x="55.6" d="M32.7 34.2 C35.2 32.7 38 31.4 39.6 28.9 C40.4 27.6 41.1 26 41.1 24.5 C41.1 21.2 38.7 17 35.5 16.1 C31.6 18.3 26.725 21.05 23.8 22.7 C20.1 24.8 16.4 28 16.4 32.6 C16.4 35.9 18.7 38.9 21.1 40.9 C24.96667 38.66667 29.8 35.875 32.7 34.2 zM29.8 8.1 C32.5 6.5 35.4 3.4 35.4 -0.1 C35.4 -2.6 34 -5.2 32.3 -6.9 C30.3 -8.9 26.2 -10.7 23.3 -10.7 C17.8 -10.7 13.6 -7.9 10.4 -3.7 C10.56667 -0.86667 10.775 2.675 10.9 4.8 C10.075 4.8 8.425 4.8 7.6 4.8 C6.875 1.425 5.425 -5.325 4.7 -8.7 C9.2 -13 15 -15.1 21.1 -15.1 C25 -15.1 31 -13.5 34 -11.1 C39.2 -6.9 43.8 -2.3 43.8 4.8 C43.8 7.8 42 11.6 39.2 13.8 C44.7 17.2 48.6 22.7 48.6 29.4 C48.6 34.6 44.5 38.7 40.3 41.2 C36.4 43.5 31.525 46.375 28.6 48.1 C25.4 50 21.5 52.6 21.5 56.8 C21.5 62 26.2 64.6 31 64.6 C36 64.6 40.3 62.4 43.9 59.1 C43.8 56.66667 43.675 53.625 43.6 51.8 C44.45 51.8 46.15 51.8 47 51.8 C47.675 55 49.025 61.4 49.7 64.6 C44.5 68 39.4 69.5 33.2 69.5 C28.3 69.5 23.8 67.5 20.2 64.4 C17 61.7 13.6 55.9 13.6 51.6 C13.6 48.3 15.3 45.6 17.7 43.5 C12.8 39.9 8.1 35.5 8.1 29 C8.1 22.5 11 19 16.3 15.9 C20.8 13.3 26.425 10.05 29.8 8.1 z" />
<glyph unicode="" horiz-adv-x="33.3" d="M15.8 69.5 C11.7 69.5 9 65.9 9 62.1 C9 58.6 11 56.4 14.5 56.4 C18.8 56.4 21.3 59.8 21.3 63.9 C21.3 67 18.9 69.5 15.8 69.5 zM37.1 69.5 C33 69.5 30.3 65.9 30.3 62.1 C30.3 58.6 32.3 56.4 35.8 56.4 C40.1 56.4 42.6 59.8 42.6 63.9 C42.6 67 40.2 69.5 37.1 69.5 z" />
<glyph unicode="" horiz-adv-x="74.7" d="M37.2 69.5 C18.1 69.5 2.6 53.5 2.6 33.8 C2.6 14.2 18.1 -1.7 37.2 -1.7 C56.4 -1.7 72 14.2 72 33.8 C72 53.6 56.4 69.5 37.2 69.5 zM37.2 63.9 C53.4 63.9 66.4 50.6 66.4 33.9 C66.4 17.4 53.3 3.9 37.2 3.9 C21.2 3.9 8.2 17.4 8.2 33.9 C8.2 50.5 21.1 63.9 37.2 63.9 zM51.9 50.7 C49.9 51.5 47.5 52 45.3 52.5 C42.6 53.1 41.2 53.5 38.3 53.5 C26.7 53.5 18.8 45.1 18.8 33.3 C18.8 22.1 26 13.7 37.2 13.7 C43.5 13.7 50.6 16.7 53.1 22.9 C52.23333 23.26667 51.15 23.725 50.5 24 C50.3 23.65 49.9 22.95 49.7 22.6 C47.8 19.3 43.7 17.6 40.1 17.6 C30.8 17.6 27.3 27.3 27.3 35.1 C27.3 42.4 31 50 39.1 50 C44.9 50 47.9 45.6 48.7 40.3 C49.76667 40.3 51.1 40.3 51.9 40.3 C51.9 42.9 51.9 48.1 51.9 50.7 z" />
<glyph unicode="" horiz-adv-x="33.3" d="M13.1 44.1 C12.3 44.1 12 45.4 12 46.3 C12 48.4 12.9 52.2 13.5 54.3 C14.4 57.4 15.2 60.8 17.2 63.5 C18.1 64.7 19.8 65.2 21.3 65.2 C22.9 65.2 25 64.5 26.3 63.9 C25.9 61.3 25.2 58.9 24.4 57.3 C21.8 51.6 19.4 48.9 16.6 46.2 C15.3 44.9 14 44.1 13.1 44.1 zM30.7 66.7 C28.6 67.6 26.6 68.3 24.2 68.3 C23 68.3 21.1 68.2 19.9 67.7 C17.3 66.7 10.8 62.1 10 61.3 C8.5 59.8 6.9 55.2 6.1 52.6 C5.2 49.5 4.7 47 4.7 43.7 C4.7 41.8 5.6 39.1 8.1 39.1 C14.7 39.1 22 48.9 24.6 53.8 C24.66667 53.73333 24.75 53.65 24.8 53.6 C24.825 53.625 24.875 53.675 24.9 53.7 C24.325 51.55 23.175 47.25 22.6 45.1 C22.4 44.2 22.2 43.1 22.2 41.7 C22.2 39.8 23.3 39.1 24.1 39.1 C27.6 39.1 32.3 42.3 35.5 45.1 C35.26667 45.7 34.975 46.45 34.8 46.9 C34.475 46.65 33.825 46.15 33.5 45.9 C32.4 45.1 30.7 44.1 29.9 44.1 C29.4 44.1 29 44.5 29 45.4 C29 46.2 29.4 47.4 29.6 48.5 C30.6 52.76667 31.85 58.1 32.6 61.3 C32.9 62.7 33.3 64 33.7 65.1 C34 65.93333 34.375 66.975 34.6 67.6 C34.35 67.8 33.85 68.2 33.6 68.4 C32.875 67.975 31.425 67.125 30.7 66.7 z" />
<glyph unicode="" horiz-adv-x="50" d="M26.7 42.6 C26.15 43.1 25.05 44.1 24.5 44.6 C21.525 41.875 15.575 36.425 12.6 33.7 C9.6 31 6.7 28.2 3.5 25.6 C3.5 24.9 3.5 24.025 3.5 23.5 C5.225 21.6 8.675 17.8 10.4 15.9 C13.8 12.1 16.9 8.1 20.3 4.3 C21.13333 4.76667 22.175 5.35 22.8 5.7 C20.625 10.35 16.275 19.65 14.1 24.3 C17.25 28.875 23.55 38.025 26.7 42.6 zM45.8 42.6 C45.25 43.1 44.15 44.1 43.6 44.6 C40.625 41.875 34.675 36.425 31.7 33.7 C28.7 31 25.8 28.2 22.6 25.6 C22.6 24.9 22.6 24.025 22.6 23.5 C24.325 21.6 27.775 17.8 29.5 15.9 C32.9 12.1 36 8.1 39.4 4.3 C40.23333 4.76667 41.275 5.35 41.9 5.7 C39.725 10.35 35.375 19.65 33.2 24.3 C36.35 28.875 42.65 38.025 45.8 42.6 z" />
<glyph unicode="" horiz-adv-x="60.6" d="M46.7 30.2 C46.7 25.325 46.7 15.575 46.7 10.7 C48.9 10.7 53.3 10.7 55.5 10.7 C55.5 17.775 55.5 31.925 55.5 39 C42.9 39 17.7 39 5.1 39 C5.1 36.8 5.1 32.4 5.1 30.2 C15.5 30.2 36.3 30.2 46.7 30.2 z" />
<glyph unicode="" horiz-adv-x="38.9" d="M19.6 20.3 C24.1 20.3 28.7 19.9 33.2 19.8 C33.9 23 34.6 26.4 36.2 28.8 C35.96667 29.1 35.675 29.475 35.5 29.7 C32.5 29.7 26.6 29.4 21.2 29.4 C19.4 29.4 17.15 29.4 15.8 29.4 C13.7 29.4 10 29.4 6.6 30 C6.1 26.8 4.9 23.8 3.7 20.8 C3.9 20.5 4.15 20.125 4.3 19.9 C6.9 20.1 9.4 20.3 12 20.3 C14.53333 20.3 17.7 20.3 19.6 20.3 z" />
<glyph unicode="" horiz-adv-x="74.7" d="M37.2 69.5 C18.1 69.5 2.6 53.5 2.6 33.8 C2.6 14.2 18.1 -1.7 37.2 -1.7 C56.4 -1.7 72 14.2 72 33.8 C72 53.6 56.4 69.5 37.2 69.5 zM37.2 63.9 C53.4 63.9 66.4 50.6 66.4 33.9 C66.4 17.4 53.3 3.9 37.2 3.9 C21.2 3.9 8.2 17.4 8.2 33.9 C8.2 50.5 21.1 63.9 37.2 63.9 zM32.4 33.1 C33.025 33.1 34.275 33.1 34.9 33.1 C36.3 33.1 37.7 33 38.7 31.7 C39.6 30.6 40.9 27.8 42.2 24.8 C43.5 21.8 44.8 18.8 45.8 17.4 C46.4 16.6 47.5 15.8 48.9 15.8 C51.16667 15.8 54 15.8 55.7 15.8 C55.7 16.3 55.7 17.3 55.7 17.8 C54 17.8 53.3 18.2 52.5 19.3 C51.4 20.9 50.1 23.8 49.3 25.5 C47.7 29 45.7 33.6 41.6 34.3 C41.6 34.36667 41.6 34.45 41.6 34.5 C46.8 35.3 51.3 38.8 51.3 44.7 C51.3 47.5 49.6 50.8 47.2 52.3 C44.7 53.9 41.3 54 38.3 54 C32.6 54 25.475 54 21.2 54 C21.2 53.475 21.2 52.425 21.2 51.9 C21.575 51.9 22.325 51.9 22.7 51.9 C25.2 51.9 25.5 51.5 25.5 49 C25.5 39.5 25.5 27.625 25.5 20.5 C25.5 17.9 24.8 17.8 22.5 17.8 C22.03333 17.8 21.45 17.8 21.1 17.8 C21.1 17.3 21.1 16.3 21.1 15.8 C25 15.8 32.8 15.8 36.7 15.8 C36.7 16.3 36.7 17.3 36.7 17.8 C36.275 17.825 35.425 17.875 35 17.9 C32.7 18 32.4 18.8 32.4 20.9 C32.4 24.96667 32.4 30.05 32.4 33.1 zM32.4 47.9 C32.4 48.175 32.4 48.725 32.4 49 C32.4 50.2 32.6 51.6 34.1 51.7 C34.8 51.73333 35.675 51.775 36.2 51.8 C36.325 51.8 36.575 51.8 36.7 51.8 C41.5 51.8 44.3 49 44.3 43.8 C44.3 37.5 40.5 35.5 35.4 35.5 C35.03333 35.5 34.575 35.5 34.3 35.5 C33.825 35.525 32.875 35.575 32.4 35.6 C32.4 38.675 32.4 44.825 32.4 47.9 z" />
<glyph unicode="" horiz-adv-x="33.3" d="M41.8 60.8 C33.675 60.8 17.425 60.8 9.3 60.8 C8.875 59.05 8.025 55.55 7.6 53.8 C15.75 53.8 32.05 53.8 40.2 53.8 C40.6 55.55 41.4 59.05 41.8 60.8 z" />
<glyph unicode="" horiz-adv-x="40" d="M20 68.3 C11.8 68.3 5 61.6 5 53.5 C5 53.43333 5 53.35 5 53.3 C5 45 11.7 38.3 20 38.3 C28.2 38.3 35 45 35 53.3 C35 61.5 28.2 68.3 20 68.3 zM19.8 62.2 C24.9 62.2 28.9 58.2 28.9 53.3 C28.9 48.4 24.9 44.4 20 44.4 C15.1 44.4 11.1 48.4 11.1 53.3 C11.1 53.36667 11.1 53.45 11.1 53.5 C11.1 58.3 15.2 62.2 19.8 62.2 z" />
<glyph unicode="" horiz-adv-x="60.6" d="M25.9 35.7 C20.675 35.7 10.225 35.7 5 35.7 C5 33.5 5 29.1 5 26.9 C10.225 26.9 20.675 26.9 25.9 26.9 C25.9 23.3 25.9 16.1 25.9 12.5 C28.1 12.5 32.5 12.5 34.7 12.5 C34.7 16.1 34.7 23.3 34.7 26.9 C39.925 26.9 50.375 26.9 55.6 26.9 C55.6 29.1 55.6 33.5 55.6 35.7 C50.375 35.7 39.925 35.7 34.7 35.7 C34.7 39.3 34.7 46.5 34.7 50.1 C32.5 50.1 28.1 50.1 25.9 50.1 C25.9 46.5 25.9 39.3 25.9 35.7 zM5.1 0 C17.7 0 42.9 0 55.5 0 C55.5 2.2 55.5 6.6 55.5 8.8 C42.9 8.8 17.7 8.8 5.1 8.8 C5.1 6.6 5.1 2.2 5.1 0 z" />
<glyph unicode="" horiz-adv-x="30" d="M2.6 27.1 C7.2 27.2 11.6 27.3 16.2 27.3 C20.7 27.3 25.4 27.2 29.9 27.1 C30.4 29.1 30.9 31.3 32.1 33.3 C31.9 33.56667 31.65 33.9 31.5 34.1 C29.8 33.8 28 33.6 26.2 33.6 C21.7 33.6 16.075 33.6 12.7 33.6 C15.9 36.625 22.3 42.675 25.5 45.7 C29.5 49.4 31.8 53.4 31.8 58 C31.8 64.8 26.5 68.3 19.7 68.3 C15.9 68.3 12.7 66.9 10.1 65.2 C8.76667 62.36667 7.1 58.825 6.1 56.7 C6.85 56.475 8.35 56.025 9.1 55.8 C9.55 56.55 10.45 58.05 10.9 58.8 C12.3 61.1 14.3 62.3 17 62.3 C20.3 62.3 23.1 60.4 23.1 56.4 C23.1 51.3 18.2 44.2 11.1 37.5 C8.26667 34.8 4.725 31.425 2.6 29.4 C2.6 28.825 2.6 27.675 2.6 27.1 z" />
<glyph unicode="" horiz-adv-x="30" d="M2.3 28.8 C6.1 27 9.4 26.3 12.7 26.3 C21.8 26.3 30.9 31.5 30.9 40.7 C30.9 46.3 26.5 49.2 20.9 49.6 C20.9 49.66667 20.9 49.75 20.9 49.8 C25.7 51.4 31 54.9 31 60.1 C31 66.1 25.7 68.3 19.9 68.3 C16.7 68.3 13.2 67.4 10.7 65.5 C9.33333 63.2 7.625 60.325 6.6 58.6 C7.3 58.25 8.7 57.55 9.4 57.2 C11.2 61 13.6 63.1 17 63.1 C19.8 63.1 22.9 61.8 22.9 58.6 C22.9 53.7 19.6 50.4 14.2 50.4 C13.8 50.4 13.3 50.4 13 50.4 C12.4 50.4 11.8 50.4 11.1 50.6 C10.66667 49.36667 10.125 47.825 9.8 46.9 C10.025 46.725 10.475 46.375 10.7 46.2 C12.2 46.6 13.6 47.1 15.5 47.1 C20.9 47.1 21.8 43.5 21.8 39.1 C21.8 34.9 18.6 29.3 13.5 29.3 C9.3 29.3 6.7 31.6 6.7 35.3 C6.7 36.6 6.9 37.5 7 38.3 C6.06667 38.33333 4.9 38.375 4.2 38.4 C3.725 36 2.775 31.2 2.3 28.8 z" />
<glyph unicode="" horiz-adv-x="33.3" d="M15.3 51.8 C16.525 51.8 18.975 51.8 20.2 51.8 C24.05 54.025 31.75 58.475 35.6 60.7 C37.6 61.8 39.2 62.9 39.2 65.5 C39.2 68.4 36.6 69.9 34.4 69.9 C32.5 69.9 30.9 68.5 29.4 66.9 C24.7 61.86667 18.825 55.575 15.3 51.8 z" />
<glyph unicode="" horiz-adv-x="54.1" d="M50.6 8.8 C50.35 9.5 49.85 10.9 49.6 11.6 C49.175 11.3 48.325 10.7 47.9 10.4 C45.4 8.6 43.2 7.7 41.9 7.7 C41 7.7 40.5 8.2 40.5 9 C40.5 10.1 41.4 13.6 42.5 18 C44.7 26.8 47.2 36 50.1 45.4 C49.8 45.76667 49.425 46.225 49.2 46.5 C45.7 45.4 41.3 44.8 38.2 44.7 C37.9 39.3 35.8 32.3 33.3 26.6 C31.1 21.4 23.9 7 17.7 7 C16 7 15.6 8.9 15.6 10.8 C15.6 11.8 16.1 15.2 16.7 18 C18.7 26.8 21.5 36 24.4 45.4 C24.1 45.76667 23.725 46.225 23.5 46.5 C20 45.4 15.1 44.8 12.2 44.7 C12.1 43.2 11.7 40.1 11.2 37.2 C10.2 31.2 8.6 24.8 7.9 21.9 C6.4 15.86667 4.525 8.325 3.4 3.8 C2.1 -1.4 -2 -14.6 -4.7 -20.1 C-4.2 -20.46667 -3.575 -20.925 -3.2 -21.2 C-0.5 -19.6 5.2 -18.7 6.5 -18.6 C6.8 -14.2 8.7 -1.2 10.1 5.1 C10.1 1.5 11.7 -1 14.4 -1 C17.4 -1 25.9 2.8 34.1 21.7 C34.16667 21.63333 34.25 21.55 34.3 21.5 C33.55 18.8 32.05 13.4 31.3 10.7 C30.5 7.7 29.7 4.8 29.7 2.6 C29.7 -0.6 31.6 -1.7 33.3 -1.7 C36 -1.7 45.6 4.9 50.6 8.8 z" />
<glyph unicode="" horiz-adv-x="55.6" d="M8 -20.4 C14.9 -20.3 21.7 -20.1 28.6 -20.1 C35.5 -20.1 42.3 -20.3 49.2 -20.4 C49.3 -19.23333 49.425 -17.775 49.5 -16.9 C48.775 -16.9 47.325 -16.9 46.6 -16.9 C44.3 -16.9 42.5 -16.5 41.4 -15.9 C40.4 -15.4 39.9 -14.5 39.9 -13.4 C39.9 -12.3 40.1 -11.1 40.2 -10.3 C44.4 13.33333 49.65 42.875 52.8 60.6 C53.3 63.2 53.8 64.1 55.8 64.2 C57.93333 64.3 60.6 64.425 62.2 64.5 C62.375 65.4 62.725 67.2 62.9 68.1 C55.9 68 48.9 67.8 41.9 67.8 C34.9 67.8 27.9 67.9 20.9 68.1 C20.53333 68.1 20.075 68.1 19.8 68.1 C9.4 68.1 1.4 63.7 1.4 50.4 C1.4 35.7 12.1 24.8 24.4 23.9 C22.66667 13.96667 20.5 1.55 19.2 -5.9 C18.6 -9.4 18.2 -12.4 17.1 -14.5 C16.3 -16 14.6 -16.9 11.6 -16.9 C10.5 -16.9 9.125 -16.9 8.3 -16.9 C8.225 -17.775 8.075 -19.525 8 -20.4 zM45.7 63.4 C42.2 43.575 35.2 3.925 31.7 -15.9 C30 -15.9 26.6 -15.9 24.9 -15.9 C28.4 3.925 35.4 43.575 38.9 63.4 C40.6 63.4 44 63.4 45.7 63.4 zM25.1 27.8 C20.5 29 15.7 35.9 15.7 47.9 C15.7 61.3 20.4 64.7 26 64.7 C27.8 64.7 29.6 64.5 31.4 64.2 C29.3 52.06667 26.675 36.9 25.1 27.8 z" />
<glyph unicode="" horiz-adv-x="25" d="M14.1 32.4 C9.2 32.4 6.7 27.8 6.7 23.4 C6.7 19.6 9.6 17.2 13.3 17.2 C18.3 17.2 20.6 21.9 20.6 26.3 C20.6 30.3 17.9 32.4 14.1 32.4 z" />
<glyph unicode="" horiz-adv-x="33.3" d="M1.2 -19.3 C4.6 -20.8 8.5 -21.8 12.3 -21.8 C17.7 -21.8 24.8 -19.5 24.8 -13 C24.8 -8.3 20.3 -5.9 16 -5.9 C15.1 -5.9 14.1 -6 13.2 -6.2 C14.73333 -3.96667 16.65 -1.175 17.8 0.5 C16.7 0.5 14.5 0.5 13.4 0.5 C11.7 -1.925 8.3 -6.775 6.6 -9.2 C6.925 -9.5 7.575 -10.1 7.9 -10.4 C9 -10.1 10.1 -10 11.2 -10 C13.5 -10 15.6 -11.1 15.6 -13.6 C15.6 -16.9 12.6 -17.7 9.9 -17.7 C7.6 -17.7 5.6 -17 3.4 -16 C2.66667 -17.1 1.75 -18.475 1.2 -19.3 z" />
<glyph unicode="" horiz-adv-x="30" d="M4.1 27.1 C8.3 27.2 12.5 27.3 16.7 27.3 C20.9 27.3 25.1 27.2 29.2 27.1 C29.4 28.03333 29.65 29.2 29.8 29.9 C28.65 29.95 26.35 30.05 25.2 30.1 C22.2 30.2 21.5 30.8 21.5 32.1 C21.5 33 21.7 33.6 21.8 34.1 C23.66667 43.96667 26 56.3 27.4 63.7 C27.6 64.9 27.9 66.2 28.2 67.5 C27.7 67.66667 27.075 67.875 26.7 68 C24.5 67 22.3 66.1 20 65.4 C15.66667 64.13333 10.25 62.55 7 61.6 C6.725 60.65 6.175 58.75 5.9 57.8 C6.125 57.475 6.575 56.825 6.8 56.5 C9.625 57.675 15.275 60.025 18.1 61.2 C16.8 54.3 14.2 40.5 12.9 33.6 C12.7 32.5 12 31.7 11.6 31.1 C11.2 30.5 9.1 30.2 7.4 30.1 C6.5 30.03333 5.375 29.95 4.7 29.9 C4.55 29.2 4.25 27.8 4.1 27.1 z" />
<glyph unicode="" horiz-adv-x="33.3" d="M22 65.7 C25.2 65.7 27.2 63 27.2 60.1 C27.2 54 25.2 41.7 17.7 41.7 C14.4 41.7 12.5 44.5 12.5 47.4 C12.5 53.5 14.5 65.7 22 65.7 zM15 39.1 C20.5 39.1 25.3 41.4 29.2 44.9 C31.4 46.8 32.1 48.4 33.1 51 C33.9 53.2 34.6 56.4 34.6 58.6 C34.6 64.8 31.5 68.3 24.7 68.3 C19.2 68.3 14.5 66 10.5 62.5 C8.3 60.6 7.6 59.1 6.6 56.4 C5.9 54.3 5.1 51 5.1 48.8 C5.1 42.4 7.7 39.1 15 39.1 z" />
<glyph unicode="" horiz-adv-x="50" d="M3.5 6 C4.05 5.5 5.15 4.5 5.7 4 C8.675 6.725 14.625 12.175 17.6 14.9 C20.6 17.6 23.5 20.4 26.7 23 C26.7 23.7 26.7 24.575 26.7 25.1 C24.975 27 21.525 30.8 19.8 32.7 C16.4 36.5 13.3 40.5 9.9 44.3 C9.06667 43.83333 8.025 43.25 7.4 42.9 C9.575 38.25 13.925 28.95 16.1 24.3 C12.95 19.725 6.65 10.575 3.5 6 zM22.6 6 C23.15 5.5 24.25 4.5 24.8 4 C27.775 6.725 33.725 12.175 36.7 14.9 C39.7 17.6 42.6 20.4 45.8 23 C45.8 23.7 45.8 24.575 45.8 25.1 C44.075 27 40.625 30.8 38.9 32.7 C35.5 36.5 32.4 40.5 29 44.3 C28.16667 43.83333 27.125 43.25 26.5 42.9 C28.675 38.25 33.025 28.95 35.2 24.3 C32.05 19.725 25.75 10.575 22.6 6 z" />
<glyph unicode="" horiz-adv-x="75" d="M57.5 10.4 C57.325 9.425 56.975 7.475 56.8 6.5 C56.6 5.4 56.1 4.5 55.7 3.8 C55.4 3.2 54.1 2.8 52.2 2.8 C50.96667 2.73333 49.425 2.65 48.5 2.6 C48.35 1.9 48.05 0.5 47.9 -0.2 C51.8 -0.1 55.7 0 59.5 0 C63.3 0 67.2 -0.1 71.1 -0.2 C71.26667 0.73333 71.475 1.9 71.6 2.6 C70.375 2.65 67.925 2.75 66.7 2.8 C65.4 2.9 64.7 3.7 64.7 4.4 C64.7 4.9 64.6 5.4 64.6 6 C64.6 6.13333 64.6 6.3 64.6 6.4 C64.775 7.4 65.125 9.4 65.3 10.4 C66.975 10.4 70.325 10.4 72 10.4 C72.3 11.45 72.9 13.55 73.2 14.6 C73.15 14.775 73.05 15.125 73 15.3 C71.3 15.3 67.9 15.3 66.2 15.3 C67.45 21.575 69.95 34.125 71.2 40.4 C70.95 40.55 70.45 40.85 70.2 41 C67.6 40.2 65 39.5 62.2 39.1 C55.33333 30.33333 46.75 19.375 41.6 12.8 C41.6 12.2 41.6 11 41.6 10.4 C45.575 10.4 53.525 10.4 57.5 10.4 zM47.1 15.3 C50.725 20.05 57.975 29.55 61.6 34.3 C61.775 34.3 62.125 34.3 62.3 34.3 C61.35 29.55 59.45 20.05 58.5 15.3 C55.65 15.3 49.95 15.3 47.1 15.3 zM1.8 27.1 C6 27.2 10.2 27.3 14.4 27.3 C18.6 27.3 22.8 27.2 26.9 27.1 C27.1 28.03333 27.35 29.2 27.5 29.9 C26.35 29.95 24.05 30.05 22.9 30.1 C19.9 30.2 19.2 30.8 19.2 32.1 C19.2 33 19.4 33.6 19.5 34.1 C21.36667 43.96667 23.7 56.3 25.1 63.7 C25.3 64.9 25.6 66.2 25.9 67.5 C25.4 67.66667 24.775 67.875 24.4 68 C22.2 67 20 66.1 17.7 65.4 C13.36667 64.13333 7.95 62.55 4.7 61.6 C4.425 60.65 3.875 58.75 3.6 57.8 C3.825 57.475 4.275 56.825 4.5 56.5 C7.325 57.675 12.975 60.025 15.8 61.2 C14.5 54.3 11.9 40.5 10.6 33.6 C10.4 32.5 9.7 31.7 9.3 31.1 C8.9 30.5 6.8 30.2 5.1 30.1 C4.2 30.03333 3.075 29.95 2.4 29.9 C2.25 29.2 1.95 27.8 1.8 27.1 zM23.3 0 C34.275 17.075 56.225 51.225 67.2 68.3 C65.475 68.3 62.025 68.3 60.3 68.3 C49.325 51.225 27.375 17.075 16.4 0 C18.125 0 21.575 0 23.3 0 z" />
<glyph unicode="" horiz-adv-x="75" d="M21.3 0 C32.275 17.075 54.225 51.225 65.2 68.3 C63.475 68.3 60.025 68.3 58.3 68.3 C47.325 51.225 25.375 17.075 14.4 0 C16.125 0 19.575 0 21.3 0 zM1.4 27.1 C5.6 27.2 9.8 27.3 14 27.3 C18.2 27.3 22.4 27.2 26.5 27.1 C26.7 28.03333 26.95 29.2 27.1 29.9 C25.95 29.95 23.65 30.05 22.5 30.1 C19.5 30.2 18.8 30.8 18.8 32.1 C18.8 33 19 33.6 19.1 34.1 C20.96667 43.96667 23.3 56.3 24.7 63.7 C24.9 64.9 25.2 66.2 25.5 67.5 C25 67.66667 24.375 67.875 24 68 C21.8 67 19.6 66.1 17.3 65.4 C12.96667 64.13333 7.55 62.55 4.3 61.6 C4.025 60.65 3.475 58.75 3.2 57.8 C3.425 57.475 3.875 56.825 4.1 56.5 C6.925 57.675 12.575 60.025 15.4 61.2 C14.1 54.3 11.5 40.5 10.2 33.6 C10 32.5 9.3 31.7 8.9 31.1 C8.5 30.5 6.4 30.2 4.7 30.1 C3.8 30.03333 2.675 29.95 2 29.9 C1.85 29.2 1.55 27.8 1.4 27.1 zM44.1 -0.2 C48.7 -0.1 53.1 0 57.7 0 C62.2 0 66.9 -0.1 71.4 -0.2 C71.9 1.8 72.4 4 73.6 6 C73.4 6.26667 73.15 6.6 73 6.8 C71.3 6.5 69.5 6.3 67.7 6.3 C63.2 6.3 57.575 6.3 54.2 6.3 C57.4 9.325 63.8 15.375 67 18.4 C71 22.1 73.3 26.1 73.3 30.7 C73.3 37.5 68 41 61.2 41 C57.4 41 54.2 39.6 51.6 37.9 C50.26667 35.06667 48.6 31.525 47.6 29.4 C48.35 29.175 49.85 28.725 50.6 28.5 C51.05 29.25 51.95 30.75 52.4 31.5 C53.8 33.8 55.8 35 58.5 35 C61.8 35 64.6 33.1 64.6 29.1 C64.6 24 59.7 16.9 52.6 10.2 C49.76667 7.5 46.225 4.125 44.1 2.1 C44.1 1.525 44.1 0.375 44.1 -0.2 z" />
<glyph unicode="" horiz-adv-x="75" d="M1.8 28.8 C5.6 27 8.9 26.3 12.2 26.3 C21.3 26.3 30.4 31.5 30.4 40.7 C30.4 46.3 26 49.2 20.4 49.6 C20.4 49.66667 20.4 49.75 20.4 49.8 C25.2 51.4 30.5 54.9 30.5 60.1 C30.5 66.1 25.2 68.3 19.4 68.3 C16.2 68.3 12.7 67.4 10.2 65.5 C8.83333 63.2 7.125 60.325 6.1 58.6 C6.8 58.25 8.2 57.55 8.9 57.2 C10.7 61 13.1 63.1 16.5 63.1 C19.3 63.1 22.4 61.8 22.4 58.6 C22.4 53.7 19.1 50.4 13.7 50.4 C13.3 50.4 12.8 50.4 12.5 50.4 C11.9 50.4 11.3 50.4 10.6 50.6 C10.16667 49.36667 9.625 47.825 9.3 46.9 C9.525 46.725 9.975 46.375 10.2 46.2 C11.7 46.6 13.1 47.1 15 47.1 C20.4 47.1 21.3 43.5 21.3 39.1 C21.3 34.9 18.1 29.3 13 29.3 C8.8 29.3 6.2 31.6 6.2 35.3 C6.2 36.6 6.4 37.5 6.5 38.3 C5.56667 38.33333 4.4 38.375 3.7 38.4 C3.225 36 2.275 31.2 1.8 28.8 zM23.3 0 C34.275 17.075 56.225 51.225 67.2 68.3 C65.475 68.3 62.025 68.3 60.3 68.3 C49.325 51.225 27.375 17.075 16.4 0 C18.125 0 21.575 0 23.3 0 zM47.1 15.3 C50.725 20.05 57.975 29.55 61.6 34.3 C61.775 34.3 62.125 34.3 62.3 34.3 C61.35 29.55 59.45 20.05 58.5 15.3 C55.65 15.3 49.95 15.3 47.1 15.3 zM57.5 10.4 C57.325 9.425 56.975 7.475 56.8 6.5 C56.6 5.4 56.1 4.5 55.7 3.8 C55.4 3.2 54.1 2.8 52.2 2.8 C50.96667 2.73333 49.425 2.65 48.5 2.6 C48.35 1.9 48.05 0.5 47.9 -0.2 C51.8 -0.1 55.7 0 59.5 0 C63.3 0 67.2 -0.1 71.1 -0.2 C71.26667 0.73333 71.475 1.9 71.6 2.6 C70.375 2.65 67.925 2.75 66.7 2.8 C65.4 2.9 64.7 3.7 64.7 4.4 C64.7 4.9 64.6 5.4 64.6 6 C64.6 6.13333 64.6 6.3 64.6 6.4 C64.775 7.4 65.125 9.4 65.3 10.4 C66.975 10.4 70.325 10.4 72 10.4 C72.3 11.45 72.9 13.55 73.2 14.6 C73.15 14.775 73.05 15.125 73 15.3 C71.3 15.3 67.9 15.3 66.2 15.3 C67.45 21.575 69.95 34.125 71.2 40.4 C70.95 40.55 70.45 40.85 70.2 41 C67.6 40.2 65 39.5 62.2 39.1 C55.33333 30.33333 46.75 19.375 41.6 12.8 C41.6 12.2 41.6 11 41.6 10.4 C45.575 10.4 53.525 10.4 57.5 10.4 z" />
<glyph unicode="" horiz-adv-x="44.4" d="M21.5 26.2 C22.7 25 23.5 23.7 23.5 21.9 C23.5 18.4 18.9 15.5 16.5 13.7 C13.06667 11.16667 8.775 8 6.2 6.1 C2.4 3.3 -1.2 -0.6 -1.2 -7.5 C-1.2 -17.5 6.8 -22.6 16 -22.6 C22 -22.6 25.3 -21.2 30.4 -18.3 C31.4 -13.9 32.8 -9.7 34.7 -5.7 C33.6 -5.56667 32.225 -5.4 31.4 -5.3 C31.225 -5.725 30.875 -6.575 30.7 -7 C30 -8.7 28.4 -12.1 26.6 -12.9 C24.6 -13.8 23 -14.6 20.8 -14.6 C15.7 -14.6 11.4 -12.4 11.4 -6.7 C11.4 -2.4 13.7 0.8 16.5 3.8 C18.6 6 21.225 8.75 22.8 10.4 C25.4 13.2 27.9 16.4 27.9 20.3 C27.9 23.5 26.1 26.1 23.7 28 C22.96667 27.4 22.05 26.65 21.5 26.2 zM27.8 47.9 C22.9 47.9 20.4 43.3 20.4 38.9 C20.4 35.1 23.3 32.7 27 32.7 C32 32.7 34.3 37.4 34.3 41.8 C34.3 45.8 31.6 47.9 27.8 47.9 z" />
<glyph unicode="" horiz-adv-x="72.2" d="M39.8 57 C39.85 57 39.95 57 40 57 C40.95 50.425 42.85 37.275 43.8 30.7 C38.975 30.7 29.325 30.7 24.5 30.7 C28.325 37.275 35.975 50.425 39.8 57 zM41.4 68.3 C32.325 52.975 14.175 22.325 5.1 7 C4.1 5.3 2.6 3.7 0.4 3.5 C-0.73333 3.4 -2.15 3.275 -3 3.2 C-3.125 2.325 -3.375 0.575 -3.5 -0.3 C0.5 -0.2 4.5 0 8.5 0 C12.3 0 16.1 -0.2 19.9 -0.3 C20.06667 0.86667 20.275 2.325 20.4 3.2 C19.3 3.275 17.1 3.425 16 3.5 C13.6 3.7 11.7 4.2 11.7 5.4 C11.7 7.6 12.5 9.3 13.6 11.2 C16.46667 16.26667 20.05 22.6 22.2 26.4 C25.9 26.5 29.6 26.7 33.3 26.7 C37 26.7 40.6 26.5 44.3 26.4 C45.13333 19.8 46.175 11.55 46.8 6.6 C46.8 6.525 46.8 6.375 46.8 6.3 C46.8 4.4 44.5 3.6 42.6 3.5 C41.2 3.4 39.45 3.275 38.4 3.2 C38.4 2.325 38.4 0.575 38.4 -0.3 C43.4 -0.2 48.5 0 53.5 0 C58.5 0 63.5 -0.2 68.5 -0.3 C68.5 0.86667 68.5 2.325 68.5 3.2 C67.575 3.275 65.725 3.425 64.8 3.5 C61.4 3.8 59.9 5.8 59.4 9 C56.86667 26.4 53.7 48.15 51.8 61.2 C51.5 63.6 51.3 65.9 51 68.3 C47.8 68.3 43.8 68.3 41.4 68.3 zM47.2 73 C48.325 73 50.575 73 51.7 73 C49.1 76.425 43.9 83.275 41.3 86.7 C39.7 88.8 37.8 91.1 35 91.1 C32.9 91.1 30.5 88.9 30.5 87.1 C30.5 84 32.5 82.8 34.9 81.2 C39 78.46667 44.125 75.05 47.2 73 z" />
<glyph unicode="" horiz-adv-x="72.2" d="M39.8 57 C39.85 57 39.95 57 40 57 C40.95 50.425 42.85 37.275 43.8 30.7 C38.975 30.7 29.325 30.7 24.5 30.7 C28.325 37.275 35.975 50.425 39.8 57 zM41.4 68.3 C32.325 52.975 14.175 22.325 5.1 7 C4.1 5.3 2.6 3.7 0.4 3.5 C-0.73333 3.4 -2.15 3.275 -3 3.2 C-3.125 2.325 -3.375 0.575 -3.5 -0.3 C0.5 -0.2 4.5 0 8.5 0 C12.3 0 16.1 -0.2 19.9 -0.3 C20.06667 0.86667 20.275 2.325 20.4 3.2 C19.3 3.275 17.1 3.425 16 3.5 C13.6 3.7 11.7 4.2 11.7 5.4 C11.7 7.6 12.5 9.3 13.6 11.2 C16.46667 16.26667 20.05 22.6 22.2 26.4 C25.9 26.5 29.6 26.7 33.3 26.7 C37 26.7 40.6 26.5 44.3 26.4 C45.13333 19.8 46.175 11.55 46.8 6.6 C46.8 6.525 46.8 6.375 46.8 6.3 C46.8 4.4 44.5 3.6 42.6 3.5 C41.2 3.4 39.45 3.275 38.4 3.2 C38.4 2.325 38.4 0.575 38.4 -0.3 C43.4 -0.2 48.5 0 53.5 0 C58.5 0 63.5 -0.2 68.5 -0.3 C68.5 0.86667 68.5 2.325 68.5 3.2 C67.575 3.275 65.725 3.425 64.8 3.5 C61.4 3.8 59.9 5.8 59.4 9 C56.86667 26.4 53.7 48.15 51.8 61.2 C51.5 63.6 51.3 65.9 51 68.3 C47.8 68.3 43.8 68.3 41.4 68.3 zM34.8 73 C36.025 73 38.475 73 39.7 73 C43.55 75.225 51.25 79.675 55.1 81.9 C57.1 83 58.7 84.1 58.7 86.7 C58.7 89.6 56.1 91.1 53.9 91.1 C52 91.1 50.4 89.7 48.9 88.1 C44.2 83.06667 38.325 76.775 34.8 73 z" />
<glyph unicode="" horiz-adv-x="72.2" d="M39.8 57 C39.85 57 39.95 57 40 57 C40.95 50.425 42.85 37.275 43.8 30.7 C38.975 30.7 29.325 30.7 24.5 30.7 C28.325 37.275 35.975 50.425 39.8 57 zM41.4 68.3 C32.325 52.975 14.175 22.325 5.1 7 C4.1 5.3 2.6 3.7 0.4 3.5 C-0.73333 3.4 -2.15 3.275 -3 3.2 C-3.125 2.325 -3.375 0.575 -3.5 -0.3 C0.5 -0.2 4.5 0 8.5 0 C12.3 0 16.1 -0.2 19.9 -0.3 C20.06667 0.86667 20.275 2.325 20.4 3.2 C19.3 3.275 17.1 3.425 16 3.5 C13.6 3.7 11.7 4.2 11.7 5.4 C11.7 7.6 12.5 9.3 13.6 11.2 C16.46667 16.26667 20.05 22.6 22.2 26.4 C25.9 26.5 29.6 26.7 33.3 26.7 C37 26.7 40.6 26.5 44.3 26.4 C45.13333 19.8 46.175 11.55 46.8 6.6 C46.8 6.525 46.8 6.375 46.8 6.3 C46.8 4.4 44.5 3.6 42.6 3.5 C41.2 3.4 39.45 3.275 38.4 3.2 C38.4 2.325 38.4 0.575 38.4 -0.3 C43.4 -0.2 48.5 0 53.5 0 C58.5 0 63.5 -0.2 68.5 -0.3 C68.5 0.86667 68.5 2.325 68.5 3.2 C67.575 3.275 65.725 3.425 64.8 3.5 C61.4 3.8 59.9 5.8 59.4 9 C56.86667 26.4 53.7 48.15 51.8 61.2 C51.5 63.6 51.3 65.9 51 68.3 C47.8 68.3 43.8 68.3 41.4 68.3 zM52.4 90.4 C50.375 90.4 46.325 90.4 44.3 90.4 C40.3 86.05 32.3 77.35 28.3 73 C29.725 73 32.575 73 34 73 C37.275 75.375 43.825 80.125 47.1 82.5 C49.3 80.125 53.7 75.375 55.9 73 C57.175 73 59.725 73 61 73 C58.85 77.35 54.55 86.05 52.4 90.4 z" />
<glyph unicode="" horiz-adv-x="72.2" d="M39.8 57 C39.85 57 39.95 57 40 57 C40.95 50.425 42.85 37.275 43.8 30.7 C38.975 30.7 29.325 30.7 24.5 30.7 C28.325 37.275 35.975 50.425 39.8 57 zM41.4 68.3 C32.325 52.975 14.175 22.325 5.1 7 C4.1 5.3 2.6 3.7 0.4 3.5 C-0.73333 3.4 -2.15 3.275 -3 3.2 C-3.125 2.325 -3.375 0.575 -3.5 -0.3 C0.5 -0.2 4.5 0 8.5 0 C12.3 0 16.1 -0.2 19.9 -0.3 C20.06667 0.86667 20.275 2.325 20.4 3.2 C19.3 3.275 17.1 3.425 16 3.5 C13.6 3.7 11.7 4.2 11.7 5.4 C11.7 7.6 12.5 9.3 13.6 11.2 C16.46667 16.26667 20.05 22.6 22.2 26.4 C25.9 26.5 29.6 26.7 33.3 26.7 C37 26.7 40.6 26.5 44.3 26.4 C45.13333 19.8 46.175 11.55 46.8 6.6 C46.8 6.525 46.8 6.375 46.8 6.3 C46.8 4.4 44.5 3.6 42.6 3.5 C41.2 3.4 39.45 3.275 38.4 3.2 C38.4 2.325 38.4 0.575 38.4 -0.3 C43.4 -0.2 48.5 0 53.5 0 C58.5 0 63.5 -0.2 68.5 -0.3 C68.5 0.86667 68.5 2.325 68.5 3.2 C67.575 3.275 65.725 3.425 64.8 3.5 C61.4 3.8 59.9 5.8 59.4 9 C56.86667 26.4 53.7 48.15 51.8 61.2 C51.5 63.6 51.3 65.9 51 68.3 C47.8 68.3 43.8 68.3 41.4 68.3 zM31.7 74.9 C32.7 77.1 33.5 79.3 36.6 79.3 C38.5 79.3 41.4 78.1 43.2 77.4 C46 76.3 48.8 74.9 51.9 74.9 C58.8 74.9 62.3 80.8 63.6 86.8 C62.23333 86.8 60.525 86.8 59.5 86.8 C58.6 84.8 57.4 82.6 54.6 82.6 C52.9 82.6 50.7 83.3 47.9 84.5 C45.7 85.5 43.5 86.8 39.3 86.8 C32.7 86.8 28.8 81 27.7 74.9 C29.03333 74.9 30.7 74.9 31.7 74.9 z" />
<glyph unicode="" horiz-adv-x="72.2" d="M39.8 57 C39.85 57 39.95 57 40 57 C40.95 50.425 42.85 37.275 43.8 30.7 C38.975 30.7 29.325 30.7 24.5 30.7 C28.325 37.275 35.975 50.425 39.8 57 zM41.4 68.3 C32.325 52.975 14.175 22.325 5.1 7 C4.1 5.3 2.6 3.7 0.4 3.5 C-0.73333 3.4 -2.15 3.275 -3 3.2 C-3.125 2.325 -3.375 0.575 -3.5 -0.3 C0.5 -0.2 4.5 0 8.5 0 C12.3 0 16.1 -0.2 19.9 -0.3 C20.06667 0.86667 20.275 2.325 20.4 3.2 C19.3 3.275 17.1 3.425 16 3.5 C13.6 3.7 11.7 4.2 11.7 5.4 C11.7 7.6 12.5 9.3 13.6 11.2 C16.46667 16.26667 20.05 22.6 22.2 26.4 C25.9 26.5 29.6 26.7 33.3 26.7 C37 26.7 40.6 26.5 44.3 26.4 C45.13333 19.8 46.175 11.55 46.8 6.6 C46.8 6.525 46.8 6.375 46.8 6.3 C46.8 4.4 44.5 3.6 42.6 3.5 C41.2 3.4 39.45 3.275 38.4 3.2 C38.4 2.325 38.4 0.575 38.4 -0.3 C43.4 -0.2 48.5 0 53.5 0 C58.5 0 63.5 -0.2 68.5 -0.3 C68.5 0.86667 68.5 2.325 68.5 3.2 C67.575 3.275 65.725 3.425 64.8 3.5 C61.4 3.8 59.9 5.8 59.4 9 C56.86667 26.4 53.7 48.15 51.8 61.2 C51.5 63.6 51.3 65.9 51 68.3 C47.8 68.3 43.8 68.3 41.4 68.3 zM35.3 88 C31.2 88 28.5 84.4 28.5 80.6 C28.5 77.1 30.5 74.9 34 74.9 C38.3 74.9 40.8 78.3 40.8 82.4 C40.8 85.5 38.4 88 35.3 88 zM56.6 88 C52.5 88 49.8 84.4 49.8 80.6 C49.8 77.1 51.8 74.9 55.3 74.9 C59.6 74.9 62.1 78.3 62.1 82.4 C62.1 85.5 59.7 88 56.6 88 z" />
<glyph unicode="" horiz-adv-x="72.2" d="M39.8 57 C39.85 57 39.95 57 40 57 C40.95 50.425 42.85 37.275 43.8 30.7 C38.975 30.7 29.325 30.7 24.5 30.7 C28.325 37.275 35.975 50.425 39.8 57 zM41.4 68.3 C32.325 52.975 14.175 22.325 5.1 7 C4.1 5.3 2.6 3.7 0.4 3.5 C-0.73333 3.4 -2.15 3.275 -3 3.2 C-3.125 2.325 -3.375 0.575 -3.5 -0.3 C0.5 -0.2 4.5 0 8.5 0 C12.3 0 16.1 -0.2 19.9 -0.3 C20.06667 0.86667 20.275 2.325 20.4 3.2 C19.3 3.275 17.1 3.425 16 3.5 C13.6 3.7 11.7 4.2 11.7 5.4 C11.7 7.6 12.5 9.3 13.6 11.2 C16.46667 16.26667 20.05 22.6 22.2 26.4 C25.9 26.5 29.6 26.7 33.3 26.7 C37 26.7 40.6 26.5 44.3 26.4 C45.13333 19.8 46.175 11.55 46.8 6.6 C46.8 6.525 46.8 6.375 46.8 6.3 C46.8 4.4 44.5 3.6 42.6 3.5 C41.2 3.4 39.45 3.275 38.4 3.2 C38.4 2.325 38.4 0.575 38.4 -0.3 C43.4 -0.2 48.5 0 53.5 0 C58.5 0 63.5 -0.2 68.5 -0.3 C68.5 0.86667 68.5 2.325 68.5 3.2 C67.575 3.275 65.725 3.425 64.8 3.5 C61.4 3.8 59.9 5.8 59.4 9 C56.86667 26.4 53.7 48.15 51.8 61.2 C51.5 63.6 51.3 65.9 51 68.3 C47.8 68.3 43.8 68.3 41.4 68.3 zM46 87.6 C48.8 87.6 51 85.4 51 82.6 C51 79.8 48.8 77.6 46 77.6 C43.2 77.6 41 79.8 41 82.6 C41 85.4 43.2 87.6 46 87.6 zM46 92.6 C40.5 92.6 36 88.1 36 82.6 C36 77.1 40.5 72.6 46 72.6 C51.5 72.6 56 77.1 56 82.6 C56 88.1 51.5 92.6 46 92.6 z" />
<glyph unicode="" horiz-adv-x="94.4" d="M59.4 33 C60.775 33 63.525 33 64.9 33 C70.6 33 76.3 32.7 81.9 32.5 C82.36667 34.06667 82.95 36.025 83.3 37.2 C83.175 37.425 82.925 37.875 82.8 38.1 C78.1 37.9 72.8 37.8 68.8 37.8 C65.93333 37.8 62.35 37.8 60.2 37.8 C61.325 44.1 63.575 56.7 64.7 63 C66 63.1 67.3 63.3 68.6 63.3 C74 63.3 81.4 62.9 85.6 62 C86.9 61.7 87 59.9 87 58 C87 56 87 53.5 87 52 C87.8 52 89.4 52 90.2 52 C90.9 57.2 91.8 62.4 92.7 67.2 C92.36667 67.4 91.95 67.65 91.7 67.8 C87.4 67.9 82.2 68.1 76.9 68.1 C76.03333 68.1 74.95 68.1 74.3 68.1 C69 68 63.6 67.8 58.3 67.8 C53.9 67.8 49.5 67.9 45 67.9 C40.6 68 36.1 68.1 31.6 68.1 C31.43333 67.03333 31.225 65.7 31.1 64.9 C32.85 64.825 36.35 64.675 38.1 64.6 C40.1 64.5 41.4 63.9 41.4 62.3 C41.4 61.3 39.5 58.5 38.7 57.3 C29 42.26667 16.875 23.475 9.6 12.2 C7.2 8.5 3.9 4.1 0.2 3.4 C-0.66667 3.23333 -1.75 3.025 -2.4 2.9 C-2.525 2.1 -2.775 0.5 -2.9 -0.3 C1 -0.2 4.9 0 8.8 0 C12.7 0 16.6 -0.2 20.5 -0.3 C20.66667 0.76667 20.875 2.1 21 2.9 C19.75 2.975 17.25 3.125 16 3.2 C13 3.4 12.4 4.1 12.4 6 C12.4 7.1 13.3 8.2 13.9 9.2 C17.23333 14.86667 21.4 21.95 23.9 26.2 C27.6 26.3 31.3 26.5 35 26.5 C38.7 26.5 42.3 26.3 46 26.2 C45 20.5 43.75 13.375 43 9.1 C42.8 7.8 42.4 6.1 41.9 5 C41.4 3.9 40.8 3.3 39.4 3.2 C38.06667 3.1 36.4 2.975 35.4 2.9 C35.25 2.1 34.95 0.5 34.8 -0.3 C38.8 -0.2 42.7 0 46.7 0 C53.2 0 59.6 -0.2 66.1 -0.3 C67 -0.3 68.125 -0.3 68.8 -0.3 C74.3 -0.3 79.7 -0.1 85.5 0 C86.5 5.6 87.5 11.2 88.9 16.8 C87.7 16.8 86.2 16.8 85.3 16.8 C84.75 15.05 83.65 11.55 83.1 9.8 C82.2 7 80.6 5.8 77.3 5.6 C71.6 5.3 65.9 5 60.2 5 C58.4 5 56.6 5.2 54.7 5.6 C56.26667 14.73333 58.225 26.15 59.4 33 zM27 30.8 C31.15 37.35 39.45 50.45 43.6 57 C45.9 60.6 48.4 63.9 50.8 63.9 C51.6 63.9 52.1 63.4 52.1 62.5 C52.1 61.3 51.9 60.1 51.7 58.9 C50.03333 49.53333 47.95 37.825 46.7 30.8 C41.775 30.8 31.925 30.8 27 30.8 z" />
<glyph unicode="" horiz-adv-x="68.5" d="M65.7 48.4 C66.3 54 67.9 59.5 69.5 65.2 C63.7 68.2 56.2 69.5 50.2 69.5 C25.9 69.5 6.9 49.1 6.9 25.2 C6.9 7.4 16 -1 33 -1.6 C31.2 -4.13333 28.95 -7.3 27.6 -9.2 C27.925 -9.5 28.575 -10.1 28.9 -10.4 C30 -10.1 31.1 -10 32.2 -10 C34.5 -10 36.6 -11.1 36.6 -13.6 C36.6 -16.9 33.6 -17.7 30.9 -17.7 C28.6 -17.7 26.6 -17 24.4 -16 C23.66667 -17.1 22.75 -18.475 22.2 -19.3 C25.6 -20.8 29.5 -21.8 33.3 -21.8 C38.7 -21.8 45.8 -19.5 45.8 -13 C45.8 -8.3 41.3 -5.9 37 -5.9 C36.1 -5.9 35.1 -6 34.2 -6.2 C35.26667 -4.66667 36.6 -2.75 37.4 -1.6 C46.1 -1 54.4 2.9 61.6 7.7 C62.03333 9 62.575 10.625 62.9 11.6 C62.65 11.825 62.15 12.275 61.9 12.5 C61.35 12.175 60.25 11.525 59.7 11.2 C53.5 7.6 47.4 4.8 40.1 4.8 C26.3 4.8 20.7 12.8 20.7 26 C20.7 43.3 25.7 63.6 46.3 63.6 C50.1 63.6 57.2 62.3 60.6 60.2 C61.8 59.4 62.7 58.5 62.7 57.4 C62.7 57.33333 62.7 57.25 62.7 57.2 C62.575 55 62.325 50.6 62.2 48.4 C63.075 48.4 64.825 48.4 65.7 48.4 z" />
<glyph unicode="" horiz-adv-x="61.1" d="M9.2 9.2 C8.3 4 6.7 3.4 4.4 3.2 C3.46667 3.1 2.3 2.975 1.6 2.9 C1.475 2.1 1.225 0.5 1.1 -0.3 C5.2 -0.2 9.4 0 13.5 0 C20 0 26.4 -0.2 32.9 -0.3 C33.8 -0.3 34.925 -0.3 35.6 -0.3 C41.1 -0.3 46.5 -0.1 52.2 0 C53.2 5.6 54.2 11.2 55.6 16.8 C54.4 16.8 52.9 16.8 52 16.8 C51.45 15.05 50.35 11.55 49.8 9.8 C48.9 7 47.3 5.8 44 5.6 C38.3 5.3 32.6 5 26.9 5 C25.1 5 23.3 5.2 21.4 5.6 C23 14.73333 25 26.15 26.2 33 C27.575 33 30.325 33 31.7 33 C37.4 33 43.1 32.7 48.7 32.5 C49.16667 34.06667 49.75 36.025 50.1 37.2 C49.975 37.425 49.725 37.875 49.6 38.1 C44.9 37.9 39.6 37.8 35.6 37.8 C32.73333 37.8 29.15 37.8 27 37.8 C28.125 44.1 30.375 56.7 31.5 63 C32.8 63.1 34.1 63.3 35.4 63.3 C40.8 63.3 48.2 63.1 53.5 62 C54.8 61.7 54.9 59.9 54.9 58 C54.9 56 54.9 53.5 54.9 52 C55.7 52 57.3 52 58.1 52 C58.8 57.2 59.7 62.4 60.6 67.2 C60.26667 67.4 59.85 67.65 59.6 67.8 C54.4 67.9 49 68.1 43.7 68.1 C42.83333 68.1 41.75 68.1 41.1 68.1 C35.8 68 30.4 67.8 25.1 67.8 C22.5 67.8 19.9 67.9 17.3 67.9 C14.6 68 12 68.1 9.4 68.1 C9.23333 67.03333 9.025 65.7 8.9 64.9 C10.05 64.825 12.35 64.675 13.5 64.6 C16.8 64.4 18.1 63.8 18.1 61.4 C18.1 60.8 18 60.2 17.9 59.4 C15 42.66667 11.375 21.75 9.2 9.2 zM41.6 73 C42.725 73 44.975 73 46.1 73 C43.5 76.425 38.3 83.275 35.7 86.7 C34.1 88.8 32.2 91.1 29.4 91.1 C27.3 91.1 24.9 88.9 24.9 87.1 C24.9 84 26.9 82.8 29.3 81.2 C33.4 78.46667 38.525 75.05 41.6 73 z" />
<glyph unicode="" horiz-adv-x="61.1" d="M9.2 9.2 C8.3 4 6.7 3.4 4.4 3.2 C3.46667 3.1 2.3 2.975 1.6 2.9 C1.475 2.1 1.225 0.5 1.1 -0.3 C5.2 -0.2 9.4 0 13.5 0 C20 0 26.4 -0.2 32.9 -0.3 C33.8 -0.3 34.925 -0.3 35.6 -0.3 C41.1 -0.3 46.5 -0.1 52.2 0 C53.2 5.6 54.2 11.2 55.6 16.8 C54.4 16.8 52.9 16.8 52 16.8 C51.45 15.05 50.35 11.55 49.8 9.8 C48.9 7 47.3 5.8 44 5.6 C38.3 5.3 32.6 5 26.9 5 C25.1 5 23.3 5.2 21.4 5.6 C23 14.73333 25 26.15 26.2 33 C27.575 33 30.325 33 31.7 33 C37.4 33 43.1 32.7 48.7 32.5 C49.16667 34.06667 49.75 36.025 50.1 37.2 C49.975 37.425 49.725 37.875 49.6 38.1 C44.9 37.9 39.6 37.8 35.6 37.8 C32.73333 37.8 29.15 37.8 27 37.8 C28.125 44.1 30.375 56.7 31.5 63 C32.8 63.1 34.1 63.3 35.4 63.3 C40.8 63.3 48.2 63.1 53.5 62 C54.8 61.7 54.9 59.9 54.9 58 C54.9 56 54.9 53.5 54.9 52 C55.7 52 57.3 52 58.1 52 C58.8 57.2 59.7 62.4 60.6 67.2 C60.26667 67.4 59.85 67.65 59.6 67.8 C54.4 67.9 49 68.1 43.7 68.1 C42.83333 68.1 41.75 68.1 41.1 68.1 C35.8 68 30.4 67.8 25.1 67.8 C22.5 67.8 19.9 67.9 17.3 67.9 C14.6 68 12 68.1 9.4 68.1 C9.23333 67.03333 9.025 65.7 8.9 64.9 C10.05 64.825 12.35 64.675 13.5 64.6 C16.8 64.4 18.1 63.8 18.1 61.4 C18.1 60.8 18 60.2 17.9 59.4 C15 42.66667 11.375 21.75 9.2 9.2 zM29.2 73 C30.425 73 32.875 73 34.1 73 C37.95 75.225 45.65 79.675 49.5 81.9 C51.5 83 53.1 84.1 53.1 86.7 C53.1 89.6 50.5 91.1 48.3 91.1 C46.4 91.1 44.8 89.7 43.3 88.1 C38.6 83.06667 32.725 76.775 29.2 73 z" />
<glyph unicode="" horiz-adv-x="61.1" d="M9.2 9.2 C8.3 4 6.7 3.4 4.4 3.2 C3.46667 3.1 2.3 2.975 1.6 2.9 C1.475 2.1 1.225 0.5 1.1 -0.3 C5.2 -0.2 9.4 0 13.5 0 C20 0 26.4 -0.2 32.9 -0.3 C33.8 -0.3 34.925 -0.3 35.6 -0.3 C41.1 -0.3 46.5 -0.1 52.2 0 C53.2 5.6 54.2 11.2 55.6 16.8 C54.4 16.8 52.9 16.8 52 16.8 C51.45 15.05 50.35 11.55 49.8 9.8 C48.9 7 47.3 5.8 44 5.6 C38.3 5.3 32.6 5 26.9 5 C25.1 5 23.3 5.2 21.4 5.6 C23 14.73333 25 26.15 26.2 33 C27.575 33 30.325 33 31.7 33 C37.4 33 43.1 32.7 48.7 32.5 C49.16667 34.06667 49.75 36.025 50.1 37.2 C49.975 37.425 49.725 37.875 49.6 38.1 C44.9 37.9 39.6 37.8 35.6 37.8 C32.73333 37.8 29.15 37.8 27 37.8 C28.125 44.1 30.375 56.7 31.5 63 C32.8 63.1 34.1 63.3 35.4 63.3 C40.8 63.3 48.2 63.1 53.5 62 C54.8 61.7 54.9 59.9 54.9 58 C54.9 56 54.9 53.5 54.9 52 C55.7 52 57.3 52 58.1 52 C58.8 57.2 59.7 62.4 60.6 67.2 C60.26667 67.4 59.85 67.65 59.6 67.8 C54.4 67.9 49 68.1 43.7 68.1 C42.83333 68.1 41.75 68.1 41.1 68.1 C35.8 68 30.4 67.8 25.1 67.8 C22.5 67.8 19.9 67.9 17.3 67.9 C14.6 68 12 68.1 9.4 68.1 C9.23333 67.03333 9.025 65.7 8.9 64.9 C10.05 64.825 12.35 64.675 13.5 64.6 C16.8 64.4 18.1 63.8 18.1 61.4 C18.1 60.8 18 60.2 17.9 59.4 C15 42.66667 11.375 21.75 9.2 9.2 zM46.8 90.4 C44.775 90.4 40.725 90.4 38.7 90.4 C34.7 86.05 26.7 77.35 22.7 73 C24.125 73 26.975 73 28.4 73 C31.675 75.375 38.225 80.125 41.5 82.5 C43.7 80.125 48.1 75.375 50.3 73 C51.575 73 54.125 73 55.4 73 C53.25 77.35 48.95 86.05 46.8 90.4 z" />
<glyph unicode="" horiz-adv-x="61.1" d="M9.2 9.2 C8.3 4 6.7 3.4 4.4 3.2 C3.46667 3.1 2.3 2.975 1.6 2.9 C1.475 2.1 1.225 0.5 1.1 -0.3 C5.2 -0.2 9.4 0 13.5 0 C20 0 26.4 -0.2 32.9 -0.3 C33.8 -0.3 34.925 -0.3 35.6 -0.3 C41.1 -0.3 46.5 -0.1 52.2 0 C53.2 5.6 54.2 11.2 55.6 16.8 C54.4 16.8 52.9 16.8 52 16.8 C51.45 15.05 50.35 11.55 49.8 9.8 C48.9 7 47.3 5.8 44 5.6 C38.3 5.3 32.6 5 26.9 5 C25.1 5 23.3 5.2 21.4 5.6 C23 14.73333 25 26.15 26.2 33 C27.575 33 30.325 33 31.7 33 C37.4 33 43.1 32.7 48.7 32.5 C49.16667 34.06667 49.75 36.025 50.1 37.2 C49.975 37.425 49.725 37.875 49.6 38.1 C44.9 37.9 39.6 37.8 35.6 37.8 C32.73333 37.8 29.15 37.8 27 37.8 C28.125 44.1 30.375 56.7 31.5 63 C32.8 63.1 34.1 63.3 35.4 63.3 C40.8 63.3 48.2 63.1 53.5 62 C54.8 61.7 54.9 59.9 54.9 58 C54.9 56 54.9 53.5 54.9 52 C55.7 52 57.3 52 58.1 52 C58.8 57.2 59.7 62.4 60.6 67.2 C60.26667 67.4 59.85 67.65 59.6 67.8 C54.4 67.9 49 68.1 43.7 68.1 C42.83333 68.1 41.75 68.1 41.1 68.1 C35.8 68 30.4 67.8 25.1 67.8 C22.5 67.8 19.9 67.9 17.3 67.9 C14.6 68 12 68.1 9.4 68.1 C9.23333 67.03333 9.025 65.7 8.9 64.9 C10.05 64.825 12.35 64.675 13.5 64.6 C16.8 64.4 18.1 63.8 18.1 61.4 C18.1 60.8 18 60.2 17.9 59.4 C15 42.66667 11.375 21.75 9.2 9.2 zM29.7 88 C25.6 88 22.9 84.4 22.9 80.6 C22.9 77.1 24.9 74.9 28.4 74.9 C32.7 74.9 35.2 78.3 35.2 82.4 C35.2 85.5 32.8 88 29.7 88 zM51 88 C46.9 88 44.2 84.4 44.2 80.6 C44.2 77.1 46.2 74.9 49.7 74.9 C54 74.9 56.5 78.3 56.5 82.4 C56.5 85.5 54.1 88 51 88 z" />
<glyph unicode="" horiz-adv-x="38.9" d="M31.7 59.9 C32.4 63.8 33.3 64.1 36.3 64.3 C37.8 64.4 39.675 64.525 40.8 64.6 C40.9 65.475 41.1 67.225 41.2 68.1 C35.9 68 30.4 67.8 25 67.8 C20.2 67.8 15.3 68 10.1 68.1 C9.96667 66.93333 9.8 65.475 9.7 64.6 C11 64.525 13.6 64.375 14.9 64.3 C17.6 64.1 18.6 63.3 18.7 61.5 C18.7 60 18.5 58 17.8 54.1 C15.4 40.46667 12.4 23.425 10.6 13.2 C9.7 8.1 9 6.2 8.6 5.4 C7.9 3.9 6.6 3.6 5.2 3.5 C3.56667 3.4 1.525 3.275 0.3 3.2 C0.2 2.325 0 0.575 -0.1 -0.3 C5.3 -0.2 10.6 0 15.8 0 C20.7 0 25.5 -0.2 31.9 -0.3 C32.03333 0.86667 32.2 2.325 32.3 3.2 C30.825 3.275 27.875 3.425 26.4 3.5 C23.3 3.7 22.7 4.8 22.7 6.4 C22.7 7.7 22.8 8.9 23 10 C25.9 26.63333 29.525 47.425 31.7 59.9 zM30.5 73 C31.625 73 33.875 73 35 73 C32.4 76.425 27.2 83.275 24.6 86.7 C23 88.8 21.1 91.1 18.3 91.1 C16.2 91.1 13.8 88.9 13.8 87.1 C13.8 84 15.8 82.8 18.2 81.2 C22.3 78.46667 27.425 75.05 30.5 73 z" />
<glyph unicode="" horiz-adv-x="38.9" d="M31.7 59.9 C32.4 63.8 33.3 64.1 36.3 64.3 C37.8 64.4 39.675 64.525 40.8 64.6 C40.9 65.475 41.1 67.225 41.2 68.1 C35.9 68 30.4 67.8 25 67.8 C20.2 67.8 15.3 68 10.1 68.1 C9.96667 66.93333 9.8 65.475 9.7 64.6 C11 64.525 13.6 64.375 14.9 64.3 C17.6 64.1 18.6 63.3 18.7 61.5 C18.7 60 18.5 58 17.8 54.1 C15.4 40.46667 12.4 23.425 10.6 13.2 C9.7 8.1 9 6.2 8.6 5.4 C7.9 3.9 6.6 3.6 5.2 3.5 C3.56667 3.4 1.525 3.275 0.3 3.2 C0.2 2.325 0 0.575 -0.1 -0.3 C5.3 -0.2 10.6 0 15.8 0 C20.7 0 25.5 -0.2 31.9 -0.3 C32.03333 0.86667 32.2 2.325 32.3 3.2 C30.825 3.275 27.875 3.425 26.4 3.5 C23.3 3.7 22.7 4.8 22.7 6.4 C22.7 7.7 22.8 8.9 23 10 C25.9 26.63333 29.525 47.425 31.7 59.9 zM18.1 73 C19.325 73 21.775 73 23 73 C26.85 75.225 34.55 79.675 38.4 81.9 C40.4 83 42 84.1 42 86.7 C42 89.6 39.4 91.1 37.2 91.1 C35.3 91.1 33.7 89.7 32.2 88.1 C27.5 83.06667 21.625 76.775 18.1 73 z" />
<glyph unicode="" horiz-adv-x="38.9" d="M31.7 59.9 C32.4 63.8 33.3 64.1 36.3 64.3 C37.8 64.4 39.675 64.525 40.8 64.6 C40.9 65.475 41.1 67.225 41.2 68.1 C35.9 68 30.4 67.8 25 67.8 C20.2 67.8 15.3 68 10.1 68.1 C9.96667 66.93333 9.8 65.475 9.7 64.6 C11 64.525 13.6 64.375 14.9 64.3 C17.6 64.1 18.6 63.3 18.7 61.5 C18.7 60 18.5 58 17.8 54.1 C15.4 40.46667 12.4 23.425 10.6 13.2 C9.7 8.1 9 6.2 8.6 5.4 C7.9 3.9 6.6 3.6 5.2 3.5 C3.56667 3.4 1.525 3.275 0.3 3.2 C0.2 2.325 0 0.575 -0.1 -0.3 C5.3 -0.2 10.6 0 15.8 0 C20.7 0 25.5 -0.2 31.9 -0.3 C32.03333 0.86667 32.2 2.325 32.3 3.2 C30.825 3.275 27.875 3.425 26.4 3.5 C23.3 3.7 22.7 4.8 22.7 6.4 C22.7 7.7 22.8 8.9 23 10 C25.9 26.63333 29.525 47.425 31.7 59.9 zM35.7 90.4 C33.675 90.4 29.625 90.4 27.6 90.4 C23.6 86.05 15.6 77.35 11.6 73 C13.025 73 15.875 73 17.3 73 C20.575 75.375 27.125 80.125 30.4 82.5 C32.6 80.125 37 75.375 39.2 73 C40.475 73 43.025 73 44.3 73 C42.15 77.35 37.85 86.05 35.7 90.4 z" />
<glyph unicode="" horiz-adv-x="38.9" d="M31.7 59.9 C32.4 63.8 33.3 64.1 36.3 64.3 C37.8 64.4 39.675 64.525 40.8 64.6 C40.9 65.475 41.1 67.225 41.2 68.1 C35.9 68 30.4 67.8 25 67.8 C20.2 67.8 15.3 68 10.1 68.1 C9.96667 66.93333 9.8 65.475 9.7 64.6 C11 64.525 13.6 64.375 14.9 64.3 C17.6 64.1 18.6 63.3 18.7 61.5 C18.7 60 18.5 58 17.8 54.1 C15.4 40.46667 12.4 23.425 10.6 13.2 C9.7 8.1 9 6.2 8.6 5.4 C7.9 3.9 6.6 3.6 5.2 3.5 C3.56667 3.4 1.525 3.275 0.3 3.2 C0.2 2.325 0 0.575 -0.1 -0.3 C5.3 -0.2 10.6 0 15.8 0 C20.7 0 25.5 -0.2 31.9 -0.3 C32.03333 0.86667 32.2 2.325 32.3 3.2 C30.825 3.275 27.875 3.425 26.4 3.5 C23.3 3.7 22.7 4.8 22.7 6.4 C22.7 7.7 22.8 8.9 23 10 C25.9 26.63333 29.525 47.425 31.7 59.9 zM18.6 88 C14.5 88 11.8 84.4 11.8 80.6 C11.8 77.1 13.8 74.9 17.3 74.9 C21.6 74.9 24.1 78.3 24.1 82.4 C24.1 85.5 21.7 88 18.6 88 zM39.9 88 C35.8 88 33.1 84.4 33.1 80.6 C33.1 77.1 35.1 74.9 38.6 74.9 C42.9 74.9 45.4 78.3 45.4 82.4 C45.4 85.5 43 88 39.9 88 z" />
<glyph unicode="" horiz-adv-x="77.8" d="M13.1 38.2 C10.575 38.2 5.525 38.2 3 38.2 C2.85 37.2 2.55 35.2 2.4 34.2 C4.9 34.2 9.9 34.2 12.4 34.2 C11.325 27.95 9.175 15.45 8.1 9.2 C7.2 4 5.6 3.4 3.3 3.2 C2.36667 3.1 1.2 2.975 0.5 2.9 C0.375 2.1 0.125 0.5 0 -0.3 C4.1 -0.2 8.3 0 12.4 0 C18.9 0 25.3 -0.2 31.8 -0.3 C32.06667 -0.3 32.4 -0.3 32.6 -0.3 C46.9 -0.3 58.6 5.3 66.8 16.8 C71.5 23.4 74.7 33.1 74.7 41.3 C74.7 49.7 72.6 56.9 66 62.5 C60.2 67.4 52.3 68.2 44.8 68.2 C43.2 68.2 41.6 68.1 40 68.1 C34.7 68 29.3 67.8 24 67.8 C18.8 67.8 13.5 68 8.3 68.1 C8.13333 67.03333 7.925 65.7 7.8 64.9 C8.95 64.825 11.25 64.675 12.4 64.6 C15.7 64.4 17 63.8 17 61.4 C17 60.8 16.9 60.2 16.8 59.4 C15.56667 52.33333 14.025 43.5 13.1 38.2 zM30.3 63.5 C31.6 63.6 32.9 63.8 34.2 63.8 C51 63.8 60.9 61.6 60.9 42.8 C60.9 36 59.2 27 56.7 20.7 C52.3 9.7 46.7 4 31.2 4 C27.2 4 24.1 4.6 20.3 5.1 C22 14.8 24.125 26.925 25.4 34.2 C29.95 34.2 39.05 34.2 43.6 34.2 C43.75 35.2 44.05 37.2 44.2 38.2 C39.65 38.2 30.55 38.2 26 38.2 C27.075 44.525 29.225 57.175 30.3 63.5 z" />
<glyph unicode="" horiz-adv-x="77.8" d="M62 -0.3 C62.4 3 62.9 6.5 63.6 10 C66.46667 24.26667 70.05 42.1 72.2 52.8 C73.5 59.5 74.3 62.4 75 63.3 C75.7 64.2 77 64.5 78.6 64.6 C79.83333 64.7 81.375 64.825 82.3 64.9 C82.45 65.7 82.75 67.3 82.9 68.1 C79 68 75 67.8 71.1 67.8 C67.2 67.8 63.2 68 59.3 68.1 C59.13333 67.03333 58.925 65.7 58.8 64.9 C59.85 64.825 61.95 64.675 63 64.6 C65.1 64.4 67.6 63.7 67.6 61.6 C67.6 60.4 67.6 57.2 67 54.2 C64.53333 40.86667 61.45 24.2 59.6 14.2 C51.75 27.675 36.05 54.625 28.2 68.1 C24.6 68 21.1 67.8 17.5 67.8 C13.9 67.8 10.3 68 6.7 68.1 C6.6 67.03333 6.475 65.7 6.4 64.9 C7.375 64.825 9.325 64.675 10.3 64.6 C12.4 64.4 16.1 63.3 17.9 60.1 C18.2 59.5 18.6 58.8 18.6 58.2 C18.6 58.1 18.5 57.9 18.5 57.8 C15.26667 41.56667 11.225 21.275 8.8 9.1 C8 5 6.9 3.6 4.8 3.5 C3.2 3.4 1.2 3.275 0 3.2 C-0.05 2.325 -0.15 0.575 -0.2 -0.3 C3.7 -0.2 7.5 0 11.4 0 C15.1 0 18.9 -0.2 22.6 -0.3 C22.76667 0.86667 22.975 2.325 23.1 3.2 C21.825 3.275 19.275 3.425 18 3.5 C15.1 3.7 14.4 5.7 14.4 7.5 C14.4 9.2 14.7 10.9 15.2 13.8 C17.63333 27 20.675 43.5 22.5 53.4 C30.25 39.975 45.75 13.125 53.5 -0.3 C55.625 -0.3 59.875 -0.3 62 -0.3 zM34.5 74.9 C35.5 77.1 36.3 79.3 39.4 79.3 C41.3 79.3 44.2 78.1 46 77.4 C48.8 76.3 51.6 74.9 54.7 74.9 C61.6 74.9 65.1 80.8 66.4 86.8 C65.03333 86.8 63.325 86.8 62.3 86.8 C61.4 84.8 60.2 82.6 57.4 82.6 C55.7 82.6 53.5 83.3 50.7 84.5 C48.5 85.5 46.3 86.8 42.1 86.8 C35.5 86.8 31.6 81 30.5 74.9 C31.83333 74.9 33.5 74.9 34.5 74.9 z" />
<glyph unicode="" horiz-adv-x="83.3" d="M47.4 65.2 C61.1 65.2 65.6 56.3 65.6 43.8 C65.6 27.2 59.2 2.6 38.8 2.6 C26.3 2.6 21.4 11.7 21.4 22.9 C21.4 39.1 26.7 65.2 47.4 65.2 zM49.4 69.5 C23.8 69.5 7.6 51.1 7.6 26 C7.6 8.4 18.9 -1.7 36.3 -1.7 C61.5 -1.7 79.4 17.3 79.4 42.3 C79.4 60 66.2 69.5 49.4 69.5 zM52.7 73 C53.825 73 56.075 73 57.2 73 C54.6 76.425 49.4 83.275 46.8 86.7 C45.2 88.8 43.3 91.1 40.5 91.1 C38.4 91.1 36 88.9 36 87.1 C36 84 38 82.8 40.4 81.2 C44.5 78.46667 49.625 75.05 52.7 73 z" />
<glyph unicode="" horiz-adv-x="83.3" d="M47.4 65.2 C61.1 65.2 65.6 56.3 65.6 43.8 C65.6 27.2 59.2 2.6 38.8 2.6 C26.3 2.6 21.4 11.7 21.4 22.9 C21.4 39.1 26.7 65.2 47.4 65.2 zM49.4 69.5 C23.8 69.5 7.6 51.1 7.6 26 C7.6 8.4 18.9 -1.7 36.3 -1.7 C61.5 -1.7 79.4 17.3 79.4 42.3 C79.4 60 66.2 69.5 49.4 69.5 zM40.3 73 C41.525 73 43.975 73 45.2 73 C49.05 75.225 56.75 79.675 60.6 81.9 C62.6 83 64.2 84.1 64.2 86.7 C64.2 89.6 61.6 91.1 59.4 91.1 C57.5 91.1 55.9 89.7 54.4 88.1 C49.7 83.06667 43.825 76.775 40.3 73 z" />
<glyph unicode="" horiz-adv-x="83.3" d="M47.4 65.2 C61.1 65.2 65.6 56.3 65.6 43.8 C65.6 27.2 59.2 2.6 38.8 2.6 C26.3 2.6 21.4 11.7 21.4 22.9 C21.4 39.1 26.7 65.2 47.4 65.2 zM49.4 69.5 C23.8 69.5 7.6 51.1 7.6 26 C7.6 8.4 18.9 -1.7 36.3 -1.7 C61.5 -1.7 79.4 17.3 79.4 42.3 C79.4 60 66.2 69.5 49.4 69.5 zM57.9 90.4 C55.875 90.4 51.825 90.4 49.8 90.4 C45.8 86.05 37.8 77.35 33.8 73 C35.225 73 38.075 73 39.5 73 C42.775 75.375 49.325 80.125 52.6 82.5 C54.8 80.125 59.2 75.375 61.4 73 C62.675 73 65.225 73 66.5 73 C64.35 77.35 60.05 86.05 57.9 90.4 z" />
<glyph unicode="" horiz-adv-x="83.3" d="M47.4 65.2 C61.1 65.2 65.6 56.3 65.6 43.8 C65.6 27.2 59.2 2.6 38.8 2.6 C26.3 2.6 21.4 11.7 21.4 22.9 C21.4 39.1 26.7 65.2 47.4 65.2 zM49.4 69.5 C23.8 69.5 7.6 51.1 7.6 26 C7.6 8.4 18.9 -1.7 36.3 -1.7 C61.5 -1.7 79.4 17.3 79.4 42.3 C79.4 60 66.2 69.5 49.4 69.5 zM37.2 74.9 C38.2 77.1 39 79.3 42.1 79.3 C44 79.3 46.9 78.1 48.7 77.4 C51.5 76.3 54.3 74.9 57.4 74.9 C64.3 74.9 67.8 80.8 69.1 86.8 C67.73333 86.8 66.025 86.8 65 86.8 C64.1 84.8 62.9 82.6 60.1 82.6 C58.4 82.6 56.2 83.3 53.4 84.5 C51.2 85.5 49 86.8 44.8 86.8 C38.2 86.8 34.3 81 33.2 74.9 C34.53333 74.9 36.2 74.9 37.2 74.9 z" />
<glyph unicode="" horiz-adv-x="83.3" d="M47.4 65.2 C61.1 65.2 65.6 56.3 65.6 43.8 C65.6 27.2 59.2 2.6 38.8 2.6 C26.3 2.6 21.4 11.7 21.4 22.9 C21.4 39.1 26.7 65.2 47.4 65.2 zM49.4 69.5 C23.8 69.5 7.6 51.1 7.6 26 C7.6 8.4 18.9 -1.7 36.3 -1.7 C61.5 -1.7 79.4 17.3 79.4 42.3 C79.4 60 66.2 69.5 49.4 69.5 zM40.8 88 C36.7 88 34 84.4 34 80.6 C34 77.1 36 74.9 39.5 74.9 C43.8 74.9 46.3 78.3 46.3 82.4 C46.3 85.5 43.9 88 40.8 88 zM62.1 88 C58 88 55.3 84.4 55.3 80.6 C55.3 77.1 57.3 74.9 60.8 74.9 C65.1 74.9 67.6 78.3 67.6 82.4 C67.6 85.5 65.2 88 62.1 88 z" />
<glyph unicode="" horiz-adv-x="60.6" d="M24.1 24.8 C19.875 20.575 11.425 12.125 7.2 7.9 C8.75 6.35 11.85 3.25 13.4 1.7 C17.625 5.925 26.075 14.375 30.3 18.6 C34.525 14.375 42.975 5.925 47.2 1.7 C48.75 3.25 51.85 6.35 53.4 7.9 C49.175 12.125 40.725 20.575 36.5 24.8 C40.725 29.025 49.175 37.475 53.4 41.7 C51.85 43.25 48.75 46.35 47.2 47.9 C42.975 43.675 34.525 35.225 30.3 31 C26.075 35.225 17.625 43.675 13.4 47.9 C11.85 46.35 8.75 43.25 7.2 41.7 C11.425 37.475 19.875 29.025 24.1 24.8 z" />
<glyph unicode="" horiz-adv-x="83.3" d="M64.3 53.5 C65.3 49.9 65.6 47 65.6 43.8 C65.6 27.2 59.2 2.6 38.8 2.6 C34.1 2.6 28.8 4.7 24 10.6 C37.43333 24.9 54.225 42.775 64.3 53.5 zM21.9 15.3 C21.6 17.7 21.4 20.3 21.4 22.9 C21.4 39.1 26.7 65.2 47.4 65.2 C54.3 65.2 58.8 62.7 62.3 58.3 C48.83333 43.96667 32 26.05 21.9 15.3 zM76.3 73 C74.225 70.825 70.075 66.475 68 64.3 C61.5 68.3 56.9 69.5 49.4 69.5 C23.8 69.5 7.6 51.1 7.6 26 C7.6 18.5 9.3 11.3 14.1 7 C11.3 4 7.8 0.25 5.7 -2 C6.5 -2.85 8.1 -4.55 8.9 -5.4 C11.1 -3.075 15.5 1.575 17.7 3.9 C24 0 28.5 -1.7 36.3 -1.7 C61.5 -1.7 79.4 17.3 79.4 42.3 C79.4 49.6 76.7 57.2 71.8 61.5 C74.43333 64.3 77.725 67.8 79.7 69.9 C78.85 70.675 77.15 72.225 76.3 73 z" />
<glyph unicode="" horiz-adv-x="77.8" d="M10.2 23.4 C9.5 19.9 9.4 17.3 9.4 14.6 C9.4 4.4 17.4 -1.7 27 -1.7 C37.8 -1.7 44.4 5.4 51.2 12.6 C51.36667 12.53333 51.575 12.45 51.7 12.4 C50.8 7.8 50.2 4.8 49.2 0.5 C49.36667 0.23333 49.575 -0.1 49.7 -0.3 C53.2 -0.2 56.6 0 60.1 0 C64.2 0 67.6 -0.2 72.1 -0.3 C72.26667 0.86667 72.475 2.325 72.6 3.2 C71.125 3.275 68.175 3.425 66.7 3.5 C63.6 3.7 63.1 4.8 63.1 6.4 C63.1 7.7 63.3 8.9 63.5 10 C66.5 26.63333 70.25 47.425 72.5 59.9 C73.2 63.8 74.4 64.1 77.4 64.3 C78.93333 64.4 80.85 64.525 82 64.6 C82.125 65.475 82.375 67.225 82.5 68.1 C77.2 68 71.7 67.8 66.3 67.8 C61.5 67.8 56.6 68 51.4 68.1 C51.23333 66.93333 51.025 65.475 50.9 64.6 C52.175 64.525 54.725 64.375 56 64.3 C58.7 64.1 59.7 63.3 59.7 61.5 C59.7 60 59.3 58 58.6 54.1 C56.43333 42.13333 53.725 27.175 52.1 18.2 C51.6 15.4 40.2 6.3 33.4 6.3 C26.7 6.3 22.4 10 22.4 16.7 C22.4 18.5 22.4 19.9 22.7 21.4 C25.56667 36.73333 29.15 55.9 31.3 67.4 C31.15 67.575 30.85 67.925 30.7 68.1 C28.6 68 26.1 67.8 23.7 67.8 C18.9 67.8 14 68 8.8 68.1 C8.63333 66.93333 8.425 65.475 8.3 64.6 C9.575 64.525 12.125 64.375 13.4 64.3 C16.1 64.1 17.1 63.3 17.1 61.5 C17.1 60 16.7 58 16 54.1 C14.06667 43.86667 11.65 31.075 10.2 23.4 zM48.8 73 C49.925 73 52.175 73 53.3 73 C50.7 76.425 45.5 83.275 42.9 86.7 C41.3 88.8 39.4 91.1 36.6 91.1 C34.5 91.1 32.1 88.9 32.1 87.1 C32.1 84 34.1 82.8 36.5 81.2 C40.6 78.46667 45.725 75.05 48.8 73 z" />
<glyph unicode="" horiz-adv-x="77.8" d="M10.2 23.4 C9.5 19.9 9.4 17.3 9.4 14.6 C9.4 4.4 17.4 -1.7 27 -1.7 C37.8 -1.7 44.4 5.4 51.2 12.6 C51.36667 12.53333 51.575 12.45 51.7 12.4 C50.8 7.8 50.2 4.8 49.2 0.5 C49.36667 0.23333 49.575 -0.1 49.7 -0.3 C53.2 -0.2 56.6 0 60.1 0 C64.2 0 67.6 -0.2 72.1 -0.3 C72.26667 0.86667 72.475 2.325 72.6 3.2 C71.125 3.275 68.175 3.425 66.7 3.5 C63.6 3.7 63.1 4.8 63.1 6.4 C63.1 7.7 63.3 8.9 63.5 10 C66.5 26.63333 70.25 47.425 72.5 59.9 C73.2 63.8 74.4 64.1 77.4 64.3 C78.93333 64.4 80.85 64.525 82 64.6 C82.125 65.475 82.375 67.225 82.5 68.1 C77.2 68 71.7 67.8 66.3 67.8 C61.5 67.8 56.6 68 51.4 68.1 C51.23333 66.93333 51.025 65.475 50.9 64.6 C52.175 64.525 54.725 64.375 56 64.3 C58.7 64.1 59.7 63.3 59.7 61.5 C59.7 60 59.3 58 58.6 54.1 C56.43333 42.13333 53.725 27.175 52.1 18.2 C51.6 15.4 40.2 6.3 33.4 6.3 C26.7 6.3 22.4 10 22.4 16.7 C22.4 18.5 22.4 19.9 22.7 21.4 C25.56667 36.73333 29.15 55.9 31.3 67.4 C31.15 67.575 30.85 67.925 30.7 68.1 C28.6 68 26.1 67.8 23.7 67.8 C18.9 67.8 14 68 8.8 68.1 C8.63333 66.93333 8.425 65.475 8.3 64.6 C9.575 64.525 12.125 64.375 13.4 64.3 C16.1 64.1 17.1 63.3 17.1 61.5 C17.1 60 16.7 58 16 54.1 C14.06667 43.86667 11.65 31.075 10.2 23.4 zM37.6 73 C38.825 73 41.275 73 42.5 73 C46.35 75.225 54.05 79.675 57.9 81.9 C59.9 83 61.5 84.1 61.5 86.7 C61.5 89.6 58.9 91.1 56.7 91.1 C54.8 91.1 53.2 89.7 51.7 88.1 C47 83.06667 41.125 76.775 37.6 73 z" />
<glyph unicode="" horiz-adv-x="77.8" d="M10.2 23.4 C9.5 19.9 9.4 17.3 9.4 14.6 C9.4 4.4 17.4 -1.7 27 -1.7 C37.8 -1.7 44.4 5.4 51.2 12.6 C51.36667 12.53333 51.575 12.45 51.7 12.4 C50.8 7.8 50.2 4.8 49.2 0.5 C49.36667 0.23333 49.575 -0.1 49.7 -0.3 C53.2 -0.2 56.6 0 60.1 0 C64.2 0 67.6 -0.2 72.1 -0.3 C72.26667 0.86667 72.475 2.325 72.6 3.2 C71.125 3.275 68.175 3.425 66.7 3.5 C63.6 3.7 63.1 4.8 63.1 6.4 C63.1 7.7 63.3 8.9 63.5 10 C66.5 26.63333 70.25 47.425 72.5 59.9 C73.2 63.8 74.4 64.1 77.4 64.3 C78.93333 64.4 80.85 64.525 82 64.6 C82.125 65.475 82.375 67.225 82.5 68.1 C77.2 68 71.7 67.8 66.3 67.8 C61.5 67.8 56.6 68 51.4 68.1 C51.23333 66.93333 51.025 65.475 50.9 64.6 C52.175 64.525 54.725 64.375 56 64.3 C58.7 64.1 59.7 63.3 59.7 61.5 C59.7 60 59.3 58 58.6 54.1 C56.43333 42.13333 53.725 27.175 52.1 18.2 C51.6 15.4 40.2 6.3 33.4 6.3 C26.7 6.3 22.4 10 22.4 16.7 C22.4 18.5 22.4 19.9 22.7 21.4 C25.56667 36.73333 29.15 55.9 31.3 67.4 C31.15 67.575 30.85 67.925 30.7 68.1 C28.6 68 26.1 67.8 23.7 67.8 C18.9 67.8 14 68 8.8 68.1 C8.63333 66.93333 8.425 65.475 8.3 64.6 C9.575 64.525 12.125 64.375 13.4 64.3 C16.1 64.1 17.1 63.3 17.1 61.5 C17.1 60 16.7 58 16 54.1 C14.06667 43.86667 11.65 31.075 10.2 23.4 zM55.2 90.4 C53.175 90.4 49.125 90.4 47.1 90.4 C43.1 86.05 35.1 77.35 31.1 73 C32.525 73 35.375 73 36.8 73 C40.075 75.375 46.625 80.125 49.9 82.5 C52.1 80.125 56.5 75.375 58.7 73 C59.975 73 62.525 73 63.8 73 C61.65 77.35 57.35 86.05 55.2 90.4 z" />
<glyph unicode="" horiz-adv-x="77.8" d="M10.2 23.4 C9.5 19.9 9.4 17.3 9.4 14.6 C9.4 4.4 17.4 -1.7 27 -1.7 C37.8 -1.7 44.4 5.4 51.2 12.6 C51.36667 12.53333 51.575 12.45 51.7 12.4 C50.8 7.8 50.2 4.8 49.2 0.5 C49.36667 0.23333 49.575 -0.1 49.7 -0.3 C53.2 -0.2 56.6 0 60.1 0 C64.2 0 67.6 -0.2 72.1 -0.3 C72.26667 0.86667 72.475 2.325 72.6 3.2 C71.125 3.275 68.175 3.425 66.7 3.5 C63.6 3.7 63.1 4.8 63.1 6.4 C63.1 7.7 63.3 8.9 63.5 10 C66.5 26.63333 70.25 47.425 72.5 59.9 C73.2 63.8 74.4 64.1 77.4 64.3 C78.93333 64.4 80.85 64.525 82 64.6 C82.125 65.475 82.375 67.225 82.5 68.1 C77.2 68 71.7 67.8 66.3 67.8 C61.5 67.8 56.6 68 51.4 68.1 C51.23333 66.93333 51.025 65.475 50.9 64.6 C52.175 64.525 54.725 64.375 56 64.3 C58.7 64.1 59.7 63.3 59.7 61.5 C59.7 60 59.3 58 58.6 54.1 C56.43333 42.13333 53.725 27.175 52.1 18.2 C51.6 15.4 40.2 6.3 33.4 6.3 C26.7 6.3 22.4 10 22.4 16.7 C22.4 18.5 22.4 19.9 22.7 21.4 C25.56667 36.73333 29.15 55.9 31.3 67.4 C31.15 67.575 30.85 67.925 30.7 68.1 C28.6 68 26.1 67.8 23.7 67.8 C18.9 67.8 14 68 8.8 68.1 C8.63333 66.93333 8.425 65.475 8.3 64.6 C9.575 64.525 12.125 64.375 13.4 64.3 C16.1 64.1 17.1 63.3 17.1 61.5 C17.1 60 16.7 58 16 54.1 C14.06667 43.86667 11.65 31.075 10.2 23.4 zM38.1 88 C34 88 31.3 84.4 31.3 80.6 C31.3 77.1 33.3 74.9 36.8 74.9 C41.1 74.9 43.6 78.3 43.6 82.4 C43.6 85.5 41.2 88 38.1 88 zM59.4 88 C55.3 88 52.6 84.4 52.6 80.6 C52.6 77.1 54.6 74.9 58.1 74.9 C62.4 74.9 64.9 78.3 64.9 82.4 C64.9 85.5 62.5 88 59.4 88 z" />
<glyph unicode="" horiz-adv-x="61.1" d="M39 20.6 C39.4 22.5 39.7 24.4 40.4 26.1 C44.5 36 52.6 52.1 62.1 57.5 C63.5 58.3 65.2 59.1 66.9 59.3 C67.1 62.23333 67.35 65.9 67.5 68.1 C60.5 68.1 53.2 58.6 49.6 53.4 C44.6 46.1 40.4 38.2 37.1 30 C37.03333 30 36.95 30 36.9 30 C36.025 34.15 34.275 42.45 33.4 46.6 C32.3 51.8 30.6 57 28.1 61.8 C25.4 67 21.6 69.5 16.8 69.5 C16 69.5 14.9 69.4 14.4 69 C12.1 67.1 7.9 63.6 5.4 62 C5.5 60.9 5.625 59.525 5.7 58.7 C6.8 59.5 9.3 59.7 10.4 59.7 C15.8 59.7 19.9 49.4 21.1 45.6 C22.16667 42.1 23.5 37.725 24.3 35.1 C25.6 30.8 26.6 26.6 26.6 24.8 C26.6 23.3 26.5 21.9 26.2 20.5 C25.66667 18.06667 25 15.025 24.6 13.2 C23.5 8.1 23 6.2 22.6 5.4 C21.9 3.9 20.6 3.6 19.2 3.5 C17.56667 3.4 15.525 3.275 14.3 3.2 C14.2 2.325 14 0.575 13.9 -0.3 C19.3 -0.2 24.6 0 29.8 0 C34.7 0 39.5 -0.2 45.9 -0.3 C46.03333 0.86667 46.2 2.325 46.3 3.2 C44.825 3.275 41.875 3.425 40.4 3.5 C37.3 3.7 36.7 4.8 36.7 6.4 C36.7 7.7 36.8 8.9 37 10 C37.66667 13.53333 38.5 17.95 39 20.6 zM30.4 73 C31.625 73 34.075 73 35.3 73 C39.15 75.225 46.85 79.675 50.7 81.9 C52.7 83 54.3 84.1 54.3 86.7 C54.3 89.6 51.7 91.1 49.5 91.1 C47.6 91.1 46 89.7 44.5 88.1 C39.8 83.06667 33.925 76.775 30.4 73 z" />
<glyph unicode="" horiz-adv-x="66.7" d="M11.8 13.2 C10.9 8.1 10.2 6.2 9.8 5.4 C9.1 3.9 7.8 3.6 6.4 3.5 C4.76667 3.4 2.725 3.275 1.5 3.2 C1.4 2.325 1.2 0.575 1.1 -0.3 C6.5 -0.2 11.8 0 17 0 C21.9 0 26.7 -0.2 33.1 -0.3 C33.23333 0.86667 33.4 2.325 33.5 3.2 C32.025 3.275 29.075 3.425 27.6 3.5 C24.5 3.7 23.9 4.8 23.9 6.4 C23.9 7.7 24 8.9 24.2 10 C26.4 23.23333 29.15 39.775 30.8 49.7 C32.9 49.9 35.1 50 38.1 50 C44.1 50 51.2 48.2 51.2 38 C51.2 30.2 47.2 18.4 37 18.4 C34.6 18.4 32.3 18.8 30.2 19.6 C30.26667 18.43333 30.35 16.975 30.4 16.1 C33.6 14.9 36.9 14.3 40.3 14.3 C50.8 14.3 64.4 25.2 64.4 39 C64.4 51.1 55.4 54.3 44.6 54.3 C44.1 54.3 43.475 54.3 43.1 54.3 C39.3 54.2 35.5 54 31.7 54 C32.1 55.96667 32.6 58.425 32.9 59.9 C33.8 63.8 34.5 64.1 37.5 64.3 C39 64.4 40.875 64.525 42 64.6 C42.1 65.475 42.3 67.225 42.4 68.1 C37.1 68 31.6 67.8 26.2 67.8 C21.4 67.8 16.5 68 11.3 68.1 C11.16667 66.93333 11 65.475 10.9 64.6 C12.2 64.525 14.8 64.375 16.1 64.3 C18.8 64.1 19.8 63.3 19.9 61.5 C19.9 60 19.7 58 19 54.1 C16.6 40.46667 13.6 23.425 11.8 13.2 z" />
<glyph unicode="" horiz-adv-x="55.6" d="M12.8 40.4 C10.25 27.65 5.15 2.15 2.6 -10.6 C1.5 -15.9 0 -19.4 -3 -19.4 C-5.1 -19.4 -6.7 -18.2 -8.5 -15.4 C-9 -15.4 -9.625 -15.4 -10 -15.4 C-10.8 -19 -11.8 -22.6 -13.1 -26.2 C-12.4 -26.6 -10.7 -27.1 -9.5 -27.1 C-5.1 -27.1 0.8 -22.4 3.2 -19.9 C7.1 -15.8 10.1 -10.8 11.6 -7.1 C14.2 -0.6 18.6 16.1 19.7 21 C22.26667 32.3 25.475 46.425 27.4 54.9 C29.8 65.6 34.1 66.7 38.1 66.7 C42.2 66.7 45.7 63.9 45.7 59.4 C45.7 54.9 44.1 50.1 42.4 47.7 C39.8 44.1 37.3 41.3 35.6 39.1 C33.7 36.7 32.5 34.4 32.5 32.5 C32.5 28.8 33.8 27.2 37.8 21.5 C40.2 18.1 42.9 14.5 42.9 11.3 C42.9 5.8 38.8 4.1 35.2 4.1 C31.5 4.1 28.8 6.1 28 7.2 C28 8.93333 28 11.1 28 12.4 C27.375 12.4 26.125 12.4 25.5 12.4 C24.75 9.45 23.25 3.55 22.5 0.6 C25.5 -0.3 27.7 -1.3 31.1 -1.3 C37.4 -1.3 40.5 1 45 5.3 C48.1 8.3 51.9 13.1 51.9 18 C51.9 22.2 49.8 25.5 47.9 27.7 C46.8 29 41.5 35.1 41.5 38.3 C41.5 41.4 43.9 43.8 48.8 48.8 C53.9 54 54.9 58.5 54.9 62.5 C54.9 66.4 52 72.6 43.6 72.6 C38.6 72.6 36.6 71.4 32.7 69.2 C29.7 67.5 20.9 60.7 19 58.6 C16.1 55.4 15.1 52.6 14 46.3 C10.66667 45.2 6.5 43.825 4 43 C3.9 42.35 3.7 41.05 3.6 40.4 C5.9 40.4 10.5 40.4 12.8 40.4 z" />
<glyph unicode="" horiz-adv-x="55.6" d="M17.4 6.5 C16.1 6.5 15.6 8.8 15.6 10.3 C15.6 13.8 17.1 20.1 18 23.6 C19.3 28.8 20.6 34.4 23.7 38.9 C25.1 40.9 27.6 41.7 30 41.7 C32.4 41.7 35.6 40.6 37.7 39.5 C37.1 35.2 36 31.3 34.8 28.5 C30.7 19 27.1 14.5 22.8 10 C20.8 7.9 18.8 6.5 17.4 6.5 zM44.4 44.3 C41.2 45.7 38.1 46.9 34.5 46.9 C32.6 46.9 29.7 46.7 27.8 45.9 C23.8 44.2 14.2 36.1 12.5 34.1 C8 28.8 4.4 13.3 4.4 6 C4.4 2.7 5.8 -1.7 9.7 -1.7 C19.9 -1.7 31 14.6 35.3 22.7 C35.36667 22.63333 35.45 22.55 35.5 22.5 C34.625 18.95 32.875 11.85 32 8.3 C31.6 6.7 31.3 4.9 31.3 2.6 C31.3 -0.6 33.1 -1.7 34.3 -1.7 C39.7 -1.7 46.9 3.6 51.9 8.2 C51.5 9.2 51 10.45 50.7 11.2 C50.2 10.8 49.2 10 48.7 9.6 C47 8.2 44.4 6.7 43.2 6.7 C42.4 6.7 41.8 7.3 41.8 8.7 C41.8 10.1 42.4 12.1 42.8 13.9 C44.3 21.03333 46.175 29.95 47.3 35.3 C47.8 37.5 48.4 39.8 49 41.5 C49.5 42.93333 50.125 44.725 50.5 45.8 C50.1 46.1 49.3 46.7 48.9 47 C47.775 46.325 45.525 44.975 44.4 44.3 zM38.9 53.8 C40.025 53.8 42.275 53.8 43.4 53.8 C40.8 57.225 35.6 64.075 33 67.5 C31.4 69.6 29.5 71.9 26.7 71.9 C24.6 71.9 22.2 69.7 22.2 67.9 C22.2 64.8 24.2 63.6 26.6 62 C30.7 59.26667 35.825 55.85 38.9 53.8 z" />
<glyph unicode="" horiz-adv-x="55.6" d="M17.4 6.5 C16.1 6.5 15.6 8.8 15.6 10.3 C15.6 13.8 17.1 20.1 18 23.6 C19.3 28.8 20.6 34.4 23.7 38.9 C25.1 40.9 27.6 41.7 30 41.7 C32.4 41.7 35.6 40.6 37.7 39.5 C37.1 35.2 36 31.3 34.8 28.5 C30.7 19 27.1 14.5 22.8 10 C20.8 7.9 18.8 6.5 17.4 6.5 zM44.4 44.3 C41.2 45.7 38.1 46.9 34.5 46.9 C32.6 46.9 29.7 46.7 27.8 45.9 C23.8 44.2 14.2 36.1 12.5 34.1 C8 28.8 4.4 13.3 4.4 6 C4.4 2.7 5.8 -1.7 9.7 -1.7 C19.9 -1.7 31 14.6 35.3 22.7 C35.36667 22.63333 35.45 22.55 35.5 22.5 C34.625 18.95 32.875 11.85 32 8.3 C31.6 6.7 31.3 4.9 31.3 2.6 C31.3 -0.6 33.1 -1.7 34.3 -1.7 C39.7 -1.7 46.9 3.6 51.9 8.2 C51.5 9.2 51 10.45 50.7 11.2 C50.2 10.8 49.2 10 48.7 9.6 C47 8.2 44.4 6.7 43.2 6.7 C42.4 6.7 41.8 7.3 41.8 8.7 C41.8 10.1 42.4 12.1 42.8 13.9 C44.3 21.03333 46.175 29.95 47.3 35.3 C47.8 37.5 48.4 39.8 49 41.5 C49.5 42.93333 50.125 44.725 50.5 45.8 C50.1 46.1 49.3 46.7 48.9 47 C47.775 46.325 45.525 44.975 44.4 44.3 zM26.5 53.8 C27.725 53.8 30.175 53.8 31.4 53.8 C35.25 56.025 42.95 60.475 46.8 62.7 C48.8 63.8 50.4 64.9 50.4 67.5 C50.4 70.4 47.8 71.9 45.6 71.9 C43.7 71.9 42.1 70.5 40.6 68.9 C35.9 63.86667 30.025 57.575 26.5 53.8 z" />
<glyph unicode="" horiz-adv-x="55.6" d="M17.4 6.5 C16.1 6.5 15.6 8.8 15.6 10.3 C15.6 13.8 17.1 20.1 18 23.6 C19.3 28.8 20.6 34.4 23.7 38.9 C25.1 40.9 27.6 41.7 30 41.7 C32.4 41.7 35.6 40.6 37.7 39.5 C37.1 35.2 36 31.3 34.8 28.5 C30.7 19 27.1 14.5 22.8 10 C20.8 7.9 18.8 6.5 17.4 6.5 zM44.4 44.3 C41.2 45.7 38.1 46.9 34.5 46.9 C32.6 46.9 29.7 46.7 27.8 45.9 C23.8 44.2 14.2 36.1 12.5 34.1 C8 28.8 4.4 13.3 4.4 6 C4.4 2.7 5.8 -1.7 9.7 -1.7 C19.9 -1.7 31 14.6 35.3 22.7 C35.36667 22.63333 35.45 22.55 35.5 22.5 C34.625 18.95 32.875 11.85 32 8.3 C31.6 6.7 31.3 4.9 31.3 2.6 C31.3 -0.6 33.1 -1.7 34.3 -1.7 C39.7 -1.7 46.9 3.6 51.9 8.2 C51.5 9.2 51 10.45 50.7 11.2 C50.2 10.8 49.2 10 48.7 9.6 C47 8.2 44.4 6.7 43.2 6.7 C42.4 6.7 41.8 7.3 41.8 8.7 C41.8 10.1 42.4 12.1 42.8 13.9 C44.3 21.03333 46.175 29.95 47.3 35.3 C47.8 37.5 48.4 39.8 49 41.5 C49.5 42.93333 50.125 44.725 50.5 45.8 C50.1 46.1 49.3 46.7 48.9 47 C47.775 46.325 45.525 44.975 44.4 44.3 zM44.1 71.2 C42.075 71.2 38.025 71.2 36 71.2 C32 66.85 24 58.15 20 53.8 C21.425 53.8 24.275 53.8 25.7 53.8 C28.975 56.175 35.525 60.925 38.8 63.3 C41 60.925 45.4 56.175 47.6 53.8 C48.875 53.8 51.425 53.8 52.7 53.8 C50.55 58.15 46.25 66.85 44.1 71.2 z" />
<glyph unicode="" horiz-adv-x="55.6" d="M17.4 6.5 C16.1 6.5 15.6 8.8 15.6 10.3 C15.6 13.8 17.1 20.1 18 23.6 C19.3 28.8 20.6 34.4 23.7 38.9 C25.1 40.9 27.6 41.7 30 41.7 C32.4 41.7 35.6 40.6 37.7 39.5 C37.1 35.2 36 31.3 34.8 28.5 C30.7 19 27.1 14.5 22.8 10 C20.8 7.9 18.8 6.5 17.4 6.5 zM44.4 44.3 C41.2 45.7 38.1 46.9 34.5 46.9 C32.6 46.9 29.7 46.7 27.8 45.9 C23.8 44.2 14.2 36.1 12.5 34.1 C8 28.8 4.4 13.3 4.4 6 C4.4 2.7 5.8 -1.7 9.7 -1.7 C19.9 -1.7 31 14.6 35.3 22.7 C35.36667 22.63333 35.45 22.55 35.5 22.5 C34.625 18.95 32.875 11.85 32 8.3 C31.6 6.7 31.3 4.9 31.3 2.6 C31.3 -0.6 33.1 -1.7 34.3 -1.7 C39.7 -1.7 46.9 3.6 51.9 8.2 C51.5 9.2 51 10.45 50.7 11.2 C50.2 10.8 49.2 10 48.7 9.6 C47 8.2 44.4 6.7 43.2 6.7 C42.4 6.7 41.8 7.3 41.8 8.7 C41.8 10.1 42.4 12.1 42.8 13.9 C44.3 21.03333 46.175 29.95 47.3 35.3 C47.8 37.5 48.4 39.8 49 41.5 C49.5 42.93333 50.125 44.725 50.5 45.8 C50.1 46.1 49.3 46.7 48.9 47 C47.775 46.325 45.525 44.975 44.4 44.3 zM23.4 55.7 C24.4 57.9 25.2 60.1 28.3 60.1 C30.2 60.1 33.1 58.9 34.9 58.2 C37.7 57.1 40.5 55.7 43.6 55.7 C50.5 55.7 54 61.6 55.3 67.6 C53.93333 67.6 52.225 67.6 51.2 67.6 C50.3 65.6 49.1 63.4 46.3 63.4 C44.6 63.4 42.4 64.1 39.6 65.3 C37.4 66.3 35.2 67.6 31 67.6 C24.4 67.6 20.5 61.8 19.4 55.7 C20.73333 55.7 22.4 55.7 23.4 55.7 z" />
<glyph unicode="" horiz-adv-x="55.6" d="M17.4 6.5 C16.1 6.5 15.6 8.8 15.6 10.3 C15.6 13.8 17.1 20.1 18 23.6 C19.3 28.8 20.6 34.4 23.7 38.9 C25.1 40.9 27.6 41.7 30 41.7 C32.4 41.7 35.6 40.6 37.7 39.5 C37.1 35.2 36 31.3 34.8 28.5 C30.7 19 27.1 14.5 22.8 10 C20.8 7.9 18.8 6.5 17.4 6.5 zM44.4 44.3 C41.2 45.7 38.1 46.9 34.5 46.9 C32.6 46.9 29.7 46.7 27.8 45.9 C23.8 44.2 14.2 36.1 12.5 34.1 C8 28.8 4.4 13.3 4.4 6 C4.4 2.7 5.8 -1.7 9.7 -1.7 C19.9 -1.7 31 14.6 35.3 22.7 C35.36667 22.63333 35.45 22.55 35.5 22.5 C34.625 18.95 32.875 11.85 32 8.3 C31.6 6.7 31.3 4.9 31.3 2.6 C31.3 -0.6 33.1 -1.7 34.3 -1.7 C39.7 -1.7 46.9 3.6 51.9 8.2 C51.5 9.2 51 10.45 50.7 11.2 C50.2 10.8 49.2 10 48.7 9.6 C47 8.2 44.4 6.7 43.2 6.7 C42.4 6.7 41.8 7.3 41.8 8.7 C41.8 10.1 42.4 12.1 42.8 13.9 C44.3 21.03333 46.175 29.95 47.3 35.3 C47.8 37.5 48.4 39.8 49 41.5 C49.5 42.93333 50.125 44.725 50.5 45.8 C50.1 46.1 49.3 46.7 48.9 47 C47.775 46.325 45.525 44.975 44.4 44.3 zM27 68.8 C22.9 68.8 20.2 65.2 20.2 61.4 C20.2 57.9 22.2 55.7 25.7 55.7 C30 55.7 32.5 59.1 32.5 63.2 C32.5 66.3 30.1 68.8 27 68.8 zM48.3 68.8 C44.2 68.8 41.5 65.2 41.5 61.4 C41.5 57.9 43.5 55.7 47 55.7 C51.3 55.7 53.8 59.1 53.8 63.2 C53.8 66.3 51.4 68.8 48.3 68.8 z" />
<glyph unicode="" horiz-adv-x="55.6" d="M17.4 6.5 C16.1 6.5 15.6 8.8 15.6 10.3 C15.6 13.8 17.1 20.1 18 23.6 C19.3 28.8 20.6 34.4 23.7 38.9 C25.1 40.9 27.6 41.7 30 41.7 C32.4 41.7 35.6 40.6 37.7 39.5 C37.1 35.2 36 31.3 34.8 28.5 C30.7 19 27.1 14.5 22.8 10 C20.8 7.9 18.8 6.5 17.4 6.5 zM44.4 44.3 C41.2 45.7 38.1 46.9 34.5 46.9 C32.6 46.9 29.7 46.7 27.8 45.9 C23.8 44.2 14.2 36.1 12.5 34.1 C8 28.8 4.4 13.3 4.4 6 C4.4 2.7 5.8 -1.7 9.7 -1.7 C19.9 -1.7 31 14.6 35.3 22.7 C35.36667 22.63333 35.45 22.55 35.5 22.5 C34.625 18.95 32.875 11.85 32 8.3 C31.6 6.7 31.3 4.9 31.3 2.6 C31.3 -0.6 33.1 -1.7 34.3 -1.7 C39.7 -1.7 46.9 3.6 51.9 8.2 C51.5 9.2 51 10.45 50.7 11.2 C50.2 10.8 49.2 10 48.7 9.6 C47 8.2 44.4 6.7 43.2 6.7 C42.4 6.7 41.8 7.3 41.8 8.7 C41.8 10.1 42.4 12.1 42.8 13.9 C44.3 21.03333 46.175 29.95 47.3 35.3 C47.8 37.5 48.4 39.8 49 41.5 C49.5 42.93333 50.125 44.725 50.5 45.8 C50.1 46.1 49.3 46.7 48.9 47 C47.775 46.325 45.525 44.975 44.4 44.3 zM37.7 68.4 C40.5 68.4 42.7 66.2 42.7 63.4 C42.7 60.6 40.5 58.4 37.7 58.4 C34.9 58.4 32.7 60.6 32.7 63.4 C32.7 66.2 34.9 68.4 37.7 68.4 zM37.7 73.4 C32.2 73.4 27.7 68.9 27.7 63.4 C27.7 57.9 32.2 53.4 37.7 53.4 C43.2 53.4 47.7 57.9 47.7 63.4 C47.7 68.9 43.2 73.4 37.7 73.4 z" />
<glyph unicode="" horiz-adv-x="73.8" d="M25.9 25.1 C20.8 25.1 13.7 23.5 9.6 20 C6.7 17.5 4.4 12.5 4.4 8.7 C4.4 1.9 8.3 -1.7 15 -1.7 C22.3 -1.7 27.1 2.8 32.2 6.9 C33.9 1 38.3 -1.7 44.5 -1.7 C53.2 -1.7 60.7 4 68 8.6 C67.66667 9.53333 67.25 10.7 67 11.4 C63.1 8.8 55.9 4.7 51.2 4.7 C46 4.7 43.5 7.7 43.5 12.7 C43.5 16.2 43.5 18.8 43.9 21.8 C49.5 22.4 56 23.7 61.9 26 C65.3 27.3 71.1 31.1 71.1 38.5 C71.1 44 66.9 46.9 61.6 46.9 C54.1 46.9 46.7 41.8 40.9 37.2 C39 43.9 33.7 46.9 26.9 46.9 C20.6 46.9 16.5 45.2 11.6 41.3 C11.83333 38.83333 12.125 35.75 12.3 33.9 C12.775 33.8 13.725 33.6 14.2 33.5 C14.8 35.175 16 38.525 16.6 40.2 C18.6 40.3 20.6 40.8 22.6 40.8 C30.1 40.8 33.9 36.8 33.9 29.5 C33.9 28.03333 33.9 26.2 33.9 25.1 C31.9 25.1 27.9 25.1 25.9 25.1 zM33.5 22.2 C33.5 18.9 32.1 12.7 29.8 10 C27.5 7.3 24.6 5.6 20.9 5.6 C17.3 5.6 14.9 7.2 14.9 11.1 C14.9 14.5 16.2 17.1 19 19.2 C22.2 21.6 25.3 22.2 29.1 22.2 C30.56667 22.2 32.4 22.2 33.5 22.2 zM57.1 42.1 C60.5 42.1 61.7 40 61.7 36.8 C61.7 35.4 60.3 31.1 56.5 28.4 C54.4 26.9 49.1 25 44.3 24.8 C45.7 28.6 46.8 32.3 48.6 35.8 C50.4 39.3 53 42.1 57.1 42.1 z" />
<glyph unicode="" horiz-adv-x="44.4" d="M40.1 30.4 C41 35.1 41.8 39.9 43.6 44.5 C39.4 46 36.5 46.9 32 46.9 C28.1 46.9 25.4 45.6 22.3 43.9 C17.7 41.4 12.7 38.4 9.3 34.3 C5.5 29.7 3.2 18.3 3.2 12.3 C3.2 5.1 6.5 -0.4 13.5 -1.5 C11.7 -4.06667 9.45 -7.275 8.1 -9.2 C8.425 -9.5 9.075 -10.1 9.4 -10.4 C10.5 -10.1 11.6 -10 12.7 -10 C15 -10 17.1 -11.1 17.1 -13.6 C17.1 -16.9 14.1 -17.7 11.4 -17.7 C9.1 -17.7 7.1 -17 4.9 -16 C4.16667 -17.1 3.25 -18.475 2.7 -19.3 C6.1 -20.8 10 -21.8 13.8 -21.8 C19.2 -21.8 26.3 -19.5 26.3 -13 C26.3 -8.3 21.8 -5.9 17.5 -5.9 C16.6 -5.9 15.6 -6 14.7 -6.2 C15.76667 -4.63333 17.1 -2.675 17.9 -1.5 C26 -0.9 33.7 4.5 40.1 9 C39.76667 10 39.35 11.25 39.1 12 C34.2 8.7 28.7 5 22.5 5 C17.1 5 14.6 9.2 14.6 14.1 C14.6 19.5 16.2 27.8 18.1 32.7 C19.8 37.2 22.7 40.7 28 40.7 C31.6 40.7 35.2 38.8 37 37.4 C37.3 37.2 37.4 36.8 37.4 36.4 C37.4 36.26667 37.4 36.1 37.4 36 C37.25 34.6 36.95 31.8 36.8 30.4 C37.625 30.4 39.275 30.4 40.1 30.4 z" />
<glyph unicode="" horiz-adv-x="44.4" d="M15.1 21.9 C15.45 23.35 16.15 26.25 16.5 27.7 C17.9 33.2 20.8 42.1 27.8 42.1 C30.8 42.1 32.4 39.8 32.4 37 C32.4 29.5 25.6 24.9 19.2 23.1 C17.83333 22.7 16.125 22.2 15.1 21.9 zM2.8 10.8 C2.8 2.7 6.9 -1.7 15.2 -1.7 C23.9 -1.7 31.4 4 38.7 8.6 C38.36667 9.53333 37.95 10.7 37.7 11.4 C33.8 8.8 26.6 4.7 21.9 4.7 C16.7 4.7 14.2 7.7 14.2 12.7 C14.2 14.8 14.4 17.1 14.7 19.3 C21.1 20.7 26.8 22.2 31.1 24.3 C37.1 27.2 41.8 31.1 41.8 38.5 C41.8 44 37.6 46.9 32.3 46.9 C30 46.9 27.1 46.2 25 45.4 C22 44.2 18.3 42.1 15.8 40.4 C9.4 36 7.5 31.7 5.3 24.6 C4.2 21 2.8 14.5 2.8 10.8 zM33.3 53.8 C34.425 53.8 36.675 53.8 37.8 53.8 C35.2 57.225 30 64.075 27.4 67.5 C25.8 69.6 23.9 71.9 21.1 71.9 C19 71.9 16.6 69.7 16.6 67.9 C16.6 64.8 18.6 63.6 21 62 C25.1 59.26667 30.225 55.85 33.3 53.8 z" />
<glyph unicode="" horiz-adv-x="44.4" d="M15.1 21.9 C15.45 23.35 16.15 26.25 16.5 27.7 C17.9 33.2 20.8 42.1 27.8 42.1 C30.8 42.1 32.4 39.8 32.4 37 C32.4 29.5 25.6 24.9 19.2 23.1 C17.83333 22.7 16.125 22.2 15.1 21.9 zM2.8 10.8 C2.8 2.7 6.9 -1.7 15.2 -1.7 C23.9 -1.7 31.4 4 38.7 8.6 C38.36667 9.53333 37.95 10.7 37.7 11.4 C33.8 8.8 26.6 4.7 21.9 4.7 C16.7 4.7 14.2 7.7 14.2 12.7 C14.2 14.8 14.4 17.1 14.7 19.3 C21.1 20.7 26.8 22.2 31.1 24.3 C37.1 27.2 41.8 31.1 41.8 38.5 C41.8 44 37.6 46.9 32.3 46.9 C30 46.9 27.1 46.2 25 45.4 C22 44.2 18.3 42.1 15.8 40.4 C9.4 36 7.5 31.7 5.3 24.6 C4.2 21 2.8 14.5 2.8 10.8 zM20.9 53.8 C22.125 53.8 24.575 53.8 25.8 53.8 C29.65 56.025 37.35 60.475 41.2 62.7 C43.2 63.8 44.8 64.9 44.8 67.5 C44.8 70.4 42.2 71.9 40 71.9 C38.1 71.9 36.5 70.5 35 68.9 C30.3 63.86667 24.425 57.575 20.9 53.8 z" />
<glyph unicode="" horiz-adv-x="44.4" d="M15.1 21.9 C15.45 23.35 16.15 26.25 16.5 27.7 C17.9 33.2 20.8 42.1 27.8 42.1 C30.8 42.1 32.4 39.8 32.4 37 C32.4 29.5 25.6 24.9 19.2 23.1 C17.83333 22.7 16.125 22.2 15.1 21.9 zM2.8 10.8 C2.8 2.7 6.9 -1.7 15.2 -1.7 C23.9 -1.7 31.4 4 38.7 8.6 C38.36667 9.53333 37.95 10.7 37.7 11.4 C33.8 8.8 26.6 4.7 21.9 4.7 C16.7 4.7 14.2 7.7 14.2 12.7 C14.2 14.8 14.4 17.1 14.7 19.3 C21.1 20.7 26.8 22.2 31.1 24.3 C37.1 27.2 41.8 31.1 41.8 38.5 C41.8 44 37.6 46.9 32.3 46.9 C30 46.9 27.1 46.2 25 45.4 C22 44.2 18.3 42.1 15.8 40.4 C9.4 36 7.5 31.7 5.3 24.6 C4.2 21 2.8 14.5 2.8 10.8 zM38.5 71.2 C36.475 71.2 32.425 71.2 30.4 71.2 C26.4 66.85 18.4 58.15 14.4 53.8 C15.825 53.8 18.675 53.8 20.1 53.8 C23.375 56.175 29.925 60.925 33.2 63.3 C35.4 60.925 39.8 56.175 42 53.8 C43.275 53.8 45.825 53.8 47.1 53.8 C44.95 58.15 40.65 66.85 38.5 71.2 z" />
<glyph unicode="" horiz-adv-x="44.4" d="M15.1 21.9 C15.45 23.35 16.15 26.25 16.5 27.7 C17.9 33.2 20.8 42.1 27.8 42.1 C30.8 42.1 32.4 39.8 32.4 37 C32.4 29.5 25.6 24.9 19.2 23.1 C17.83333 22.7 16.125 22.2 15.1 21.9 zM2.8 10.8 C2.8 2.7 6.9 -1.7 15.2 -1.7 C23.9 -1.7 31.4 4 38.7 8.6 C38.36667 9.53333 37.95 10.7 37.7 11.4 C33.8 8.8 26.6 4.7 21.9 4.7 C16.7 4.7 14.2 7.7 14.2 12.7 C14.2 14.8 14.4 17.1 14.7 19.3 C21.1 20.7 26.8 22.2 31.1 24.3 C37.1 27.2 41.8 31.1 41.8 38.5 C41.8 44 37.6 46.9 32.3 46.9 C30 46.9 27.1 46.2 25 45.4 C22 44.2 18.3 42.1 15.8 40.4 C9.4 36 7.5 31.7 5.3 24.6 C4.2 21 2.8 14.5 2.8 10.8 zM21.4 66.8 C17.3 66.8 14.6 63.2 14.6 59.4 C14.6 55.9 16.6 53.7 20.1 53.7 C24.4 53.7 26.9 57.1 26.9 61.2 C26.9 64.3 24.5 66.8 21.4 66.8 zM42.7 66.8 C38.6 66.8 35.9 63.2 35.9 59.4 C35.9 55.9 37.9 53.7 41.4 53.7 C45.7 53.7 48.2 57.1 48.2 61.2 C48.2 64.3 45.8 66.8 42.7 66.8 z" />
<glyph unicode="" horiz-adv-x="33.3" d="M25.5 36.5 C26.1 38.9 26.4 40.9 26.4 43.2 C26.4 45.6 25.2 46.9 23.9 46.9 C21.8 46.9 17.5 45.5 8.9 39.3 C6.8 37.73333 4.175 35.775 2.6 34.6 C2.925 33.95 3.575 32.65 3.9 32 C4.45 32.4 5.55 33.2 6.1 33.6 C7.2 34.4 11.8 37 12.9 37 C13.9 37 14 36.4 14 35.6 C13.8 34.3 13.5 33 13.2 31.9 C11.23333 23.86667 8.775 13.825 7.3 7.8 C7 6.6 6.7 4.3 6.7 2.6 C6.7 -0.6 8.5 -1.7 9.7 -1.7 C16.1 -1.7 23.6 4.5 29.3 8.4 C28.9 9.33333 28.4 10.5 28.1 11.2 C27.425 10.775 26.075 9.925 25.4 9.5 C23.1 8 20.5 6.5 19.3 6.5 C18.6 6.5 18.1 7 18.1 7.8 C18.1 9.1 19.1 13.2 20.1 16.9 C21.9 23.43333 24.15 31.6 25.5 36.5 zM27.7 53.8 C28.825 53.8 31.075 53.8 32.2 53.8 C29.6 57.225 24.4 64.075 21.8 67.5 C20.2 69.6 18.3 71.9 15.5 71.9 C13.4 71.9 11 69.7 11 67.9 C11 64.8 13 63.6 15.4 62 C19.5 59.26667 24.625 55.85 27.7 53.8 z" />
<glyph unicode="" horiz-adv-x="33.3" d="M25.5 36.5 C26.1 38.9 26.4 40.9 26.4 43.2 C26.4 45.6 25.2 46.9 23.9 46.9 C21.8 46.9 17.5 45.5 8.9 39.3 C6.8 37.73333 4.175 35.775 2.6 34.6 C2.925 33.95 3.575 32.65 3.9 32 C4.45 32.4 5.55 33.2 6.1 33.6 C7.2 34.4 11.8 37 12.9 37 C13.9 37 14 36.4 14 35.6 C13.8 34.3 13.5 33 13.2 31.9 C11.23333 23.86667 8.775 13.825 7.3 7.8 C7 6.6 6.7 4.3 6.7 2.6 C6.7 -0.6 8.5 -1.7 9.7 -1.7 C16.1 -1.7 23.6 4.5 29.3 8.4 C28.9 9.33333 28.4 10.5 28.1 11.2 C27.425 10.775 26.075 9.925 25.4 9.5 C23.1 8 20.5 6.5 19.3 6.5 C18.6 6.5 18.1 7 18.1 7.8 C18.1 9.1 19.1 13.2 20.1 16.9 C21.9 23.43333 24.15 31.6 25.5 36.5 zM15.3 53.8 C16.525 53.8 18.975 53.8 20.2 53.8 C24.05 56.025 31.75 60.475 35.6 62.7 C37.6 63.8 39.2 64.9 39.2 67.5 C39.2 70.4 36.6 71.9 34.4 71.9 C32.5 71.9 30.9 70.5 29.4 68.9 C24.7 63.86667 18.825 57.575 15.3 53.8 z" />
<glyph unicode="" horiz-adv-x="33.3" d="M25.5 36.5 C26.1 38.9 26.4 40.9 26.4 43.2 C26.4 45.6 25.2 46.9 23.9 46.9 C21.8 46.9 17.5 45.5 8.9 39.3 C6.8 37.73333 4.175 35.775 2.6 34.6 C2.925 33.95 3.575 32.65 3.9 32 C4.45 32.4 5.55 33.2 6.1 33.6 C7.2 34.4 11.8 37 12.9 37 C13.9 37 14 36.4 14 35.6 C13.8 34.3 13.5 33 13.2 31.9 C11.23333 23.86667 8.775 13.825 7.3 7.8 C7 6.6 6.7 4.3 6.7 2.6 C6.7 -0.6 8.5 -1.7 9.7 -1.7 C16.1 -1.7 23.6 4.5 29.3 8.4 C28.9 9.33333 28.4 10.5 28.1 11.2 C27.425 10.775 26.075 9.925 25.4 9.5 C23.1 8 20.5 6.5 19.3 6.5 C18.6 6.5 18.1 7 18.1 7.8 C18.1 9.1 19.1 13.2 20.1 16.9 C21.9 23.43333 24.15 31.6 25.5 36.5 zM31.7 71.2 C29.675 71.2 25.625 71.2 23.6 71.2 C19.6 66.85 11.6 58.15 7.6 53.8 C9.025 53.8 11.875 53.8 13.3 53.8 C16.575 56.175 23.125 60.925 26.4 63.3 C28.6 60.925 33 56.175 35.2 53.8 C36.475 53.8 39.025 53.8 40.3 53.8 C38.15 58.15 33.85 66.85 31.7 71.2 z" />
<glyph unicode="" horiz-adv-x="33.3" d="M25.5 36.5 C26.1 38.9 26.4 40.9 26.4 43.2 C26.4 45.6 25.2 46.9 23.9 46.9 C21.8 46.9 17.5 45.5 8.9 39.3 C6.8 37.73333 4.175 35.775 2.6 34.6 C2.925 33.95 3.575 32.65 3.9 32 C4.45 32.4 5.55 33.2 6.1 33.6 C7.2 34.4 11.8 37 12.9 37 C13.9 37 14 36.4 14 35.6 C13.8 34.3 13.5 33 13.2 31.9 C11.23333 23.86667 8.775 13.825 7.3 7.8 C7 6.6 6.7 4.3 6.7 2.6 C6.7 -0.6 8.5 -1.7 9.7 -1.7 C16.1 -1.7 23.6 4.5 29.3 8.4 C28.9 9.33333 28.4 10.5 28.1 11.2 C27.425 10.775 26.075 9.925 25.4 9.5 C23.1 8 20.5 6.5 19.3 6.5 C18.6 6.5 18.1 7 18.1 7.8 C18.1 9.1 19.1 13.2 20.1 16.9 C21.9 23.43333 24.15 31.6 25.5 36.5 zM15.8 66.8 C11.7 66.8 9 63.2 9 59.4 C9 55.9 11 53.7 14.5 53.7 C18.8 53.7 21.3 57.1 21.3 61.2 C21.3 64.3 18.9 66.8 15.8 66.8 zM37.1 66.8 C33 66.8 30.3 63.2 30.3 59.4 C30.3 55.9 32.3 53.7 35.8 53.7 C40.1 53.7 42.6 57.1 42.6 61.2 C42.6 64.3 40.2 66.8 37.1 66.8 z" />
<glyph unicode="" horiz-adv-x="55.6" d="M30.8 42.5 C35.8 42.5 38.8 38 38.8 33.2 C38.8 23.1 35.7 2.7 24.2 2.7 C19.2 2.7 16.2 7.2 16.2 12 C16.2 22.2 19.3 42.5 30.8 42.5 zM54.6 66.5 C54.15 67.375 53.25 69.125 52.8 70 C49.4 68.325 42.6 64.975 39.2 63.3 C35.7 67.4 31.9 70.5 27.6 72.6 C26.26667 71 24.6 69 23.6 67.8 C27.3 65.6 30.1 63.3 32.7 60.1 C28.33333 57.93333 22.875 55.225 19.6 53.6 C20.075 52.725 21.025 50.975 21.5 50.1 C24.95 51.825 31.85 55.275 35.3 57 C37.5 53.8 38.8 50.5 39.2 46 C37.4 46.8 36.2 46.9 35 46.9 C26.6 46.9 19.3 43 13.2 37.3 C9.8 34.1 8.7 31.5 7.2 27.1 C6 23.5 4.8 18.1 4.8 14.4 C4.8 3.7 8.9 -1.7 20.1 -1.7 C28.5 -1.7 35.9 2.1 41.9 7.9 C47.4 13.2 50.2 23.4 50.2 30.8 C50.2 41.9 47.8 51.4 41.7 60.1 C46 62.23333 51.375 64.9 54.6 66.5 z" />
<glyph unicode="" horiz-adv-x="55.6" d="M3 33.1 C3.8 33.65 5.4 34.75 6.2 35.3 C8.4 36.8 9.5 37 10.4 37 C11.1 37 11.4 36.4 11.4 35.1 C11.4 32.2 9.7 24.3 8.7 20 C7.5 14.7 5 5.9 2.9 -0.2 C3.23333 -0.56667 3.65 -1.025 3.9 -1.3 C5.9 -0.6 11.9 0.3 14.5 0.4 C14.8 2.8 15.7 6.9 16.9 11.8 C18.1 16.7 22 24.9 26.7 30.3 C31.9 36.2 34 37 35.7 37 C37.2 37 37.8 36.3 37.8 34.8 C37.8 32.1 35.4 23.9 34.8 21.8 C33.1 15.6 30.5 6.3 30.5 2.6 C30.5 0 32 -1.7 34.1 -1.7 C39.9 -1.7 46.7 4.2 52.1 8 C51.66667 8.9 51.125 10.025 50.8 10.7 C50.075 10.2 48.625 9.2 47.9 8.7 C45.1 6.7 44.1 6.5 43.3 6.5 C42.6 6.5 42.3 7.2 42.3 8 C42.3 10.3 42.8 12.9 43.6 16 C45.2 22.13333 47.2 29.8 48.4 34.4 C49 36.7 50 40.9 50 42.5 C50 45.8 47.9 46.9 46 46.9 C44.3 46.9 41.7 46.2 37.4 43.6 C33 40.9 23.7 33.4 18.3 22.8 C18.23333 22.8 18.15 22.8 18.1 22.8 C18.475 24.15 19.225 26.85 19.6 28.2 C22.3 37.8 23 40.8 23 43.9 C23 45.4 22.5 46.9 20.1 46.9 C18.7 46.9 15.9 46.3 10.1 42 C7.3 39.93333 3.8 37.35 1.7 35.8 C2.025 35.125 2.675 33.775 3 33.1 zM23.4 55.7 C24.4 57.9 25.2 60.1 28.3 60.1 C30.2 60.1 33.1 58.9 34.9 58.2 C37.7 57.1 40.5 55.7 43.6 55.7 C50.5 55.7 54 61.6 55.3 67.6 C53.93333 67.6 52.225 67.6 51.2 67.6 C50.3 65.6 49.1 63.4 46.3 63.4 C44.6 63.4 42.4 64.1 39.6 65.3 C37.4 66.3 35.2 67.6 31 67.6 C24.4 67.6 20.5 61.8 19.4 55.7 C20.73333 55.7 22.4 55.7 23.4 55.7 z" />
<glyph unicode="" horiz-adv-x="55.6" d="M30.8 42.5 C35.8 42.5 38.8 38 38.8 33.2 C38.8 23.1 35.7 2.7 24.2 2.7 C19.2 2.7 16.2 7.2 16.2 12 C16.2 22.2 19.3 42.5 30.8 42.5 zM20.1 -1.7 C28.5 -1.7 35.9 2.1 41.9 7.9 C45.3 11.1 46.4 13.7 47.9 18.1 C49.1 21.7 50.2 27.1 50.2 30.8 C50.2 41 45.4 46.9 35 46.9 C26.6 46.9 19.3 43 13.2 37.3 C9.8 34.1 8.7 31.5 7.2 27.1 C6 23.5 4.8 18.1 4.8 14.4 C4.8 3.7 8.9 -1.7 20.1 -1.7 zM38.9 53.8 C40.025 53.8 42.275 53.8 43.4 53.8 C40.8 57.225 35.6 64.075 33 67.5 C31.4 69.6 29.5 71.9 26.7 71.9 C24.6 71.9 22.2 69.7 22.2 67.9 C22.2 64.8 24.2 63.6 26.6 62 C30.7 59.26667 35.825 55.85 38.9 53.8 z" />
<glyph unicode="" horiz-adv-x="55.6" d="M30.8 42.5 C35.8 42.5 38.8 38 38.8 33.2 C38.8 23.1 35.7 2.7 24.2 2.7 C19.2 2.7 16.2 7.2 16.2 12 C16.2 22.2 19.3 42.5 30.8 42.5 zM20.1 -1.7 C28.5 -1.7 35.9 2.1 41.9 7.9 C45.3 11.1 46.4 13.7 47.9 18.1 C49.1 21.7 50.2 27.1 50.2 30.8 C50.2 41 45.4 46.9 35 46.9 C26.6 46.9 19.3 43 13.2 37.3 C9.8 34.1 8.7 31.5 7.2 27.1 C6 23.5 4.8 18.1 4.8 14.4 C4.8 3.7 8.9 -1.7 20.1 -1.7 zM26.5 53.8 C27.725 53.8 30.175 53.8 31.4 53.8 C35.25 56.025 42.95 60.475 46.8 62.7 C48.8 63.8 50.4 64.9 50.4 67.5 C50.4 70.4 47.8 71.9 45.6 71.9 C43.7 71.9 42.1 70.5 40.6 68.9 C35.9 63.86667 30.025 57.575 26.5 53.8 z" />
<glyph unicode="" horiz-adv-x="55.6" d="M30.8 42.5 C35.8 42.5 38.8 38 38.8 33.2 C38.8 23.1 35.7 2.7 24.2 2.7 C19.2 2.7 16.2 7.2 16.2 12 C16.2 22.2 19.3 42.5 30.8 42.5 zM20.1 -1.7 C28.5 -1.7 35.9 2.1 41.9 7.9 C45.3 11.1 46.4 13.7 47.9 18.1 C49.1 21.7 50.2 27.1 50.2 30.8 C50.2 41 45.4 46.9 35 46.9 C26.6 46.9 19.3 43 13.2 37.3 C9.8 34.1 8.7 31.5 7.2 27.1 C6 23.5 4.8 18.1 4.8 14.4 C4.8 3.7 8.9 -1.7 20.1 -1.7 zM44.1 71.2 C42.075 71.2 38.025 71.2 36 71.2 C32 66.85 24 58.15 20 53.8 C21.425 53.8 24.275 53.8 25.7 53.8 C28.975 56.175 35.525 60.925 38.8 63.3 C41 60.925 45.4 56.175 47.6 53.8 C48.875 53.8 51.425 53.8 52.7 53.8 C50.55 58.15 46.25 66.85 44.1 71.2 z" />
<glyph unicode="" horiz-adv-x="55.6" d="M30.8 42.5 C35.8 42.5 38.8 38 38.8 33.2 C38.8 23.1 35.7 2.7 24.2 2.7 C19.2 2.7 16.2 7.2 16.2 12 C16.2 22.2 19.3 42.5 30.8 42.5 zM20.1 -1.7 C28.5 -1.7 35.9 2.1 41.9 7.9 C45.3 11.1 46.4 13.7 47.9 18.1 C49.1 21.7 50.2 27.1 50.2 30.8 C50.2 41 45.4 46.9 35 46.9 C26.6 46.9 19.3 43 13.2 37.3 C9.8 34.1 8.7 31.5 7.2 27.1 C6 23.5 4.8 18.1 4.8 14.4 C4.8 3.7 8.9 -1.7 20.1 -1.7 zM23.4 55.7 C24.4 57.9 25.2 60.1 28.3 60.1 C30.2 60.1 33.1 58.9 34.9 58.2 C37.7 57.1 40.5 55.7 43.6 55.7 C50.5 55.7 54 61.6 55.3 67.6 C53.93333 67.6 52.225 67.6 51.2 67.6 C50.3 65.6 49.1 63.4 46.3 63.4 C44.6 63.4 42.4 64.1 39.6 65.3 C37.4 66.3 35.2 67.6 31 67.6 C24.4 67.6 20.5 61.8 19.4 55.7 C20.73333 55.7 22.4 55.7 23.4 55.7 z" />
<glyph unicode="" horiz-adv-x="55.6" d="M30.8 42.5 C35.8 42.5 38.8 38 38.8 33.2 C38.8 23.1 35.7 2.7 24.2 2.7 C19.2 2.7 16.2 7.2 16.2 12 C16.2 22.2 19.3 42.5 30.8 42.5 zM20.1 -1.7 C28.5 -1.7 35.9 2.1 41.9 7.9 C45.3 11.1 46.4 13.7 47.9 18.1 C49.1 21.7 50.2 27.1 50.2 30.8 C50.2 41 45.4 46.9 35 46.9 C26.6 46.9 19.3 43 13.2 37.3 C9.8 34.1 8.7 31.5 7.2 27.1 C6 23.5 4.8 18.1 4.8 14.4 C4.8 3.7 8.9 -1.7 20.1 -1.7 zM27 66.8 C22.9 66.8 20.2 63.2 20.2 59.4 C20.2 55.9 22.2 53.7 25.7 53.7 C30 53.7 32.5 57.1 32.5 61.2 C32.5 64.3 30.1 66.8 27 66.8 zM48.3 66.8 C44.2 66.8 41.5 63.2 41.5 59.4 C41.5 55.9 43.5 53.7 47 53.7 C51.3 53.7 53.8 57.1 53.8 61.2 C53.8 64.3 51.4 66.8 48.3 66.8 z" />
<glyph unicode="" horiz-adv-x="60.6" d="M5 20.4 C17.65 20.4 42.95 20.4 55.6 20.4 C55.6 22.6 55.6 27 55.6 29.2 C42.95 29.2 17.65 29.2 5 29.2 C5 27 5 22.6 5 20.4 zM36.7 43.6 C36.7 47.1 33.8 50.1 30.3 50.1 C26.8 50.1 23.8 47.1 23.8 43.6 C23.8 40.1 26.8 37.2 30.3 37.2 C33.9 37.2 36.7 40 36.7 43.6 zM36.7 5.9 C36.7 9.4 33.8 12.4 30.3 12.4 C26.8 12.4 23.8 9.4 23.8 5.9 C23.8 2.4 26.8 -0.5 30.3 -0.5 C33.9 -0.5 36.7 2.3 36.7 5.9 z" />
<glyph unicode="" horiz-adv-x="55.6" d="M38.8 33.2 C38.8 23.1 35.7 2.7 24.2 2.7 C20.2 2.7 18 6 16.8 9 C24.13333 17.06667 33.3 27.15 38.8 33.2 zM16.4 13.6 C16.35 13.65 16.25 13.75 16.2 13.8 C17.4 24.4 19.3 42.5 30.8 42.5 C33.8 42.5 36.1 41 37.7 37.5 C30.6 29.53333 21.725 19.575 16.4 13.6 zM20.1 -1.7 C28.5 -1.7 35.9 2.1 41.9 7.9 C45.3 11.1 46.4 13.7 47.9 18.1 C49.1 21.7 50.2 27.1 50.2 30.8 C50.2 35 49.2 39.8 47.2 42.6 C48.86667 44.43333 50.95 46.725 52.2 48.1 C51.525 48.725 50.175 49.975 49.5 50.6 C48.175 49.125 45.525 46.175 44.2 44.7 C41.4 46.2 38.4 46.9 35 46.9 C26.6 46.9 19.2 43.1 13.2 37.3 C9.8 34.1 8.7 31.5 7.2 27.1 C6 23.5 4.8 18.1 4.8 14.4 C4.8 9.8 5.8 6.6 7.5 4 C5.46667 1.73333 2.925 -1.1 1.4 -2.8 C2.1 -3.35 3.5 -4.45 4.2 -5 C5.625 -3.425 8.475 -0.275 9.9 1.3 C11.8 -0.6 15.8 -1.7 20.1 -1.7 z" />
<glyph unicode="" horiz-adv-x="55.6" d="M2.2 36.5 C2.525 35.85 3.175 34.55 3.5 33.9 C4.4 34.425 6.2 35.475 7.1 36 C8.5 36.8 9.6 37 10.5 37 C11.3 37 12.1 36.6 12.1 35.5 C12.1 31.5 9 20.9 7.2 13.6 C6.4 10.3 5.3 7.2 5.3 3.7 C5.3 1.5 6.6 -1.7 9.6 -1.7 C19 -1.7 30.5 13.2 35.6 21.7 C35.66667 21.63333 35.75 21.55 35.8 21.5 C35.05 18.8 33.55 13.4 32.8 10.7 C32 7.7 31.2 4.8 31.2 2.6 C31.2 -0.6 33.1 -1.7 34.8 -1.7 C37.5 -1.7 47.1 4.9 52.1 8.8 C51.76667 9.73333 51.35 10.9 51.1 11.6 C50.55 11.175 49.45 10.325 48.9 9.9 C46.3 7.9 44.4 7.4 43.4 7.4 C42.5 7.4 42 7.9 42 8.7 C42 10.2 42.9 13.6 44 18 C46.2 26.8 48.7 36 51.6 45.4 C51.3 45.76667 50.925 46.225 50.7 46.5 C47.4 45.5 43.6 44.7 40.3 44.7 C40.1 44.7 39.85 44.7 39.7 44.7 C39.7 42 39.2 39.5 38.7 37.2 C37 30 34 23.1 29.7 17.2 C27.9 14.6 22.1 7.1 18.8 7.1 C17.8 7.1 17 7.5 17 8.3 C17 10.6 17.5 12.8 18 15 C19.16667 19.56667 20.625 25.275 21.5 28.7 C23 34.7 24.4 39.3 24.4 43.4 C24.4 45.4 23.6 46.9 21.7 46.9 C19.3 46.9 15.1 45.3 10.1 41.9 C7.46667 40.1 4.175 37.85 2.2 36.5 zM37.7 53.8 C38.825 53.8 41.075 53.8 42.2 53.8 C39.6 57.225 34.4 64.075 31.8 67.5 C30.2 69.6 28.3 71.9 25.5 71.9 C23.4 71.9 21 69.7 21 67.9 C21 64.8 23 63.6 25.4 62 C29.5 59.26667 34.625 55.85 37.7 53.8 z" />
<glyph unicode="" horiz-adv-x="55.6" d="M2.2 36.5 C2.525 35.85 3.175 34.55 3.5 33.9 C4.4 34.425 6.2 35.475 7.1 36 C8.5 36.8 9.6 37 10.5 37 C11.3 37 12.1 36.6 12.1 35.5 C12.1 31.5 9 20.9 7.2 13.6 C6.4 10.3 5.3 7.2 5.3 3.7 C5.3 1.5 6.6 -1.7 9.6 -1.7 C19 -1.7 30.5 13.2 35.6 21.7 C35.66667 21.63333 35.75 21.55 35.8 21.5 C35.05 18.8 33.55 13.4 32.8 10.7 C32 7.7 31.2 4.8 31.2 2.6 C31.2 -0.6 33.1 -1.7 34.8 -1.7 C37.5 -1.7 47.1 4.9 52.1 8.8 C51.76667 9.73333 51.35 10.9 51.1 11.6 C50.55 11.175 49.45 10.325 48.9 9.9 C46.3 7.9 44.4 7.4 43.4 7.4 C42.5 7.4 42 7.9 42 8.7 C42 10.2 42.9 13.6 44 18 C46.2 26.8 48.7 36 51.6 45.4 C51.3 45.76667 50.925 46.225 50.7 46.5 C47.4 45.5 43.6 44.7 40.3 44.7 C40.1 44.7 39.85 44.7 39.7 44.7 C39.7 42 39.2 39.5 38.7 37.2 C37 30 34 23.1 29.7 17.2 C27.9 14.6 22.1 7.1 18.8 7.1 C17.8 7.1 17 7.5 17 8.3 C17 10.6 17.5 12.8 18 15 C19.16667 19.56667 20.625 25.275 21.5 28.7 C23 34.7 24.4 39.3 24.4 43.4 C24.4 45.4 23.6 46.9 21.7 46.9 C19.3 46.9 15.1 45.3 10.1 41.9 C7.46667 40.1 4.175 37.85 2.2 36.5 zM26.5 53.8 C27.725 53.8 30.175 53.8 31.4 53.8 C35.25 56.025 42.95 60.475 46.8 62.7 C48.8 63.8 50.4 64.9 50.4 67.5 C50.4 70.4 47.8 71.9 45.6 71.9 C43.7 71.9 42.1 70.5 40.6 68.9 C35.9 63.86667 30.025 57.575 26.5 53.8 z" />
<glyph unicode="" horiz-adv-x="55.6" d="M2.2 36.5 C2.525 35.85 3.175 34.55 3.5 33.9 C4.4 34.425 6.2 35.475 7.1 36 C8.5 36.8 9.6 37 10.5 37 C11.3 37 12.1 36.6 12.1 35.5 C12.1 31.5 9 20.9 7.2 13.6 C6.4 10.3 5.3 7.2 5.3 3.7 C5.3 1.5 6.6 -1.7 9.6 -1.7 C19 -1.7 30.5 13.2 35.6 21.7 C35.66667 21.63333 35.75 21.55 35.8 21.5 C35.05 18.8 33.55 13.4 32.8 10.7 C32 7.7 31.2 4.8 31.2 2.6 C31.2 -0.6 33.1 -1.7 34.8 -1.7 C37.5 -1.7 47.1 4.9 52.1 8.8 C51.76667 9.73333 51.35 10.9 51.1 11.6 C50.55 11.175 49.45 10.325 48.9 9.9 C46.3 7.9 44.4 7.4 43.4 7.4 C42.5 7.4 42 7.9 42 8.7 C42 10.2 42.9 13.6 44 18 C46.2 26.8 48.7 36 51.6 45.4 C51.3 45.76667 50.925 46.225 50.7 46.5 C47.4 45.5 43.6 44.7 40.3 44.7 C40.1 44.7 39.85 44.7 39.7 44.7 C39.7 42 39.2 39.5 38.7 37.2 C37 30 34 23.1 29.7 17.2 C27.9 14.6 22.1 7.1 18.8 7.1 C17.8 7.1 17 7.5 17 8.3 C17 10.6 17.5 12.8 18 15 C19.16667 19.56667 20.625 25.275 21.5 28.7 C23 34.7 24.4 39.3 24.4 43.4 C24.4 45.4 23.6 46.9 21.7 46.9 C19.3 46.9 15.1 45.3 10.1 41.9 C7.46667 40.1 4.175 37.85 2.2 36.5 zM42.9 71.2 C40.875 71.2 36.825 71.2 34.8 71.2 C30.8 66.85 22.8 58.15 18.8 53.8 C20.225 53.8 23.075 53.8 24.5 53.8 C27.775 56.175 34.325 60.925 37.6 63.3 C39.8 60.925 44.2 56.175 46.4 53.8 C47.675 53.8 50.225 53.8 51.5 53.8 C49.35 58.15 45.05 66.85 42.9 71.2 z" />
<glyph unicode="" horiz-adv-x="55.6" d="M2.2 36.5 C2.525 35.85 3.175 34.55 3.5 33.9 C4.4 34.425 6.2 35.475 7.1 36 C8.5 36.8 9.6 37 10.5 37 C11.3 37 12.1 36.6 12.1 35.5 C12.1 31.5 9 20.9 7.2 13.6 C6.4 10.3 5.3 7.2 5.3 3.7 C5.3 1.5 6.6 -1.7 9.6 -1.7 C19 -1.7 30.5 13.2 35.6 21.7 C35.66667 21.63333 35.75 21.55 35.8 21.5 C35.05 18.8 33.55 13.4 32.8 10.7 C32 7.7 31.2 4.8 31.2 2.6 C31.2 -0.6 33.1 -1.7 34.8 -1.7 C37.5 -1.7 47.1 4.9 52.1 8.8 C51.76667 9.73333 51.35 10.9 51.1 11.6 C50.55 11.175 49.45 10.325 48.9 9.9 C46.3 7.9 44.4 7.4 43.4 7.4 C42.5 7.4 42 7.9 42 8.7 C42 10.2 42.9 13.6 44 18 C46.2 26.8 48.7 36 51.6 45.4 C51.3 45.76667 50.925 46.225 50.7 46.5 C47.4 45.5 43.6 44.7 40.3 44.7 C40.1 44.7 39.85 44.7 39.7 44.7 C39.7 42 39.2 39.5 38.7 37.2 C37 30 34 23.1 29.7 17.2 C27.9 14.6 22.1 7.1 18.8 7.1 C17.8 7.1 17 7.5 17 8.3 C17 10.6 17.5 12.8 18 15 C19.16667 19.56667 20.625 25.275 21.5 28.7 C23 34.7 24.4 39.3 24.4 43.4 C24.4 45.4 23.6 46.9 21.7 46.9 C19.3 46.9 15.1 45.3 10.1 41.9 C7.46667 40.1 4.175 37.85 2.2 36.5 zM27 66.8 C22.9 66.8 20.2 63.2 20.2 59.4 C20.2 55.9 22.2 53.7 25.7 53.7 C30 53.7 32.5 57.1 32.5 61.2 C32.5 64.3 30.1 66.8 27 66.8 zM48.3 66.8 C44.2 66.8 41.5 63.2 41.5 59.4 C41.5 55.9 43.5 53.7 47 53.7 C51.3 53.7 53.8 57.1 53.8 61.2 C53.8 64.3 51.4 66.8 48.3 66.8 z" />
<glyph unicode="" horiz-adv-x="55.6" d="M2.7 32.9 C4.4 34.4 8.4 37 10.6 37 C12.2 37 12.6 36.1 12.6 34.9 C12.6 34.5 12.6 34.1 12.5 33.7 C11.86667 27.63333 11.075 20.05 10.6 15.5 C10.3 12.6 10 9.7 10 6.8 C10 3.9 11 -1.7 14.9 -1.7 C20.2 -1.7 29.8 6 35.1 16.3 C35.16667 16.23333 35.25 16.15 35.3 16.1 C34.325 12.175 32.375 4.325 31.4 0.4 C27.4 -16 22.4 -22.5 16.4 -22.5 C11.9 -22.5 10 -19.9 10 -15.6 C10 -15.1 10 -14.6 10.1 -14 C9.5 -13.8 8.75 -13.55 8.3 -13.4 C6.75 -14.4 3.65 -16.4 2.1 -17.4 C2.6 -24.8 7.3 -27.1 12.7 -27.1 C19.4 -27.1 27.2 -21.3 31.2 -16.3 C36.2 -10 40.2 -1.6 42.8 7.8 C48 26.7 51.6 40 54.1 45.3 C53.7 45.7 53.2 46.2 52.9 46.5 C49.6 45.5 45.8 44.7 42.5 44.7 C42.3 44.7 42.05 44.7 41.9 44.7 C41.9 42 41.4 39.5 40.9 37.2 C37 19.4 26.8 6.7 22.3 6.7 C21.2 6.7 20.7 8.8 20.7 10.2 C20.7 12.6 20.8 13.7 21.1 16.3 C21.73333 21.73333 22.525 28.525 23 32.6 C23.4 36.1 23.5 38.5 23.5 40.9 C23.5 44.2 22.3 46.9 19.4 46.9 C17.9 46.9 14.1 45.6 9.3 41.9 C6.63333 39.83333 3.3 37.25 1.3 35.7 C1.65 35 2.35 33.6 2.7 32.9 zM26.5 53.8 C27.725 53.8 30.175 53.8 31.4 53.8 C35.25 56.025 42.95 60.475 46.8 62.7 C48.8 63.8 50.4 64.9 50.4 67.5 C50.4 70.4 47.8 71.9 45.6 71.9 C43.7 71.9 42.1 70.5 40.6 68.9 C35.9 63.86667 30.025 57.575 26.5 53.8 z" />
<glyph unicode="" horiz-adv-x="55.6" d="M-1.1 -27.1 C1.6 -26.6 7.4 -25.2 10.1 -25 C10.5 -17.8 13.1 -8.1 14.9 -1 C16.7 -1.5 18.5 -1.7 20.4 -1.7 C24.3 -1.7 26.7 -1 28.6 -0.2 C32.2 1.3 39.6 6.8 42.6 9.8 C48.4 15.6 51.6 28.3 51.6 36 C51.6 36.13333 51.6 36.3 51.6 36.4 C51.5 42 50.8 46.9 45.9 46.9 C35.3 46.9 25 33.8 20.1 25.9 C20 25.96667 19.875 26.05 19.8 26.1 C21.975 35.875 26.325 55.425 28.5 65.2 C29 67.4 29.4 69.6 29.9 71.7 C29.56667 72 29.15 72.375 28.9 72.6 C22.9 70.1 15.8 69 9.1 68 C8.86667 67.06667 8.575 65.9 8.4 65.2 C9.525 65.2 11.775 65.2 12.9 65.2 C15.6 65.2 16.3 64.2 16.3 62.4 C16.3 61.6 16.2 60.7 16 59.6 C11.86667 38 6.7 11 3.6 -5.2 C2.2 -12.4 -0.9 -22.4 -2.1 -26.4 C-1.76667 -26.63333 -1.35 -26.925 -1.1 -27.1 zM17.5 12.1 C18.6 17 19.5 20.2 22.1 24.7 C27.4 33.8 33.5 39.1 37.3 39.1 C37.33333 39.1 37.375 39.1 37.4 39.1 C40.2 39 40.2 34.8 40.2 33.4 C40.2 29 39.4 24.7 38.1 20.5 C36.3 14.8 33.4 3.2 25.7 3.2 C22.3 3.2 19 4.2 16.1 5.9 C16.56667 7.96667 17.15 10.55 17.5 12.1 z" />
<glyph unicode="" horiz-adv-x="55.6" d="M2.7 32.9 C4.4 34.4 8.4 37 10.6 37 C12.2 37 12.6 36.1 12.6 34.9 C12.6 34.5 12.6 34.1 12.5 33.7 C11.86667 27.63333 11.075 20.05 10.6 15.5 C10.3 12.6 10 9.7 10 6.8 C10 3.9 11 -1.7 14.9 -1.7 C20.2 -1.7 29.8 6 35.1 16.3 C35.16667 16.23333 35.25 16.15 35.3 16.1 C34.325 12.175 32.375 4.325 31.4 0.4 C27.4 -16 22.4 -22.5 16.4 -22.5 C11.9 -22.5 10 -19.9 10 -15.6 C10 -15.1 10 -14.6 10.1 -14 C9.5 -13.8 8.75 -13.55 8.3 -13.4 C6.75 -14.4 3.65 -16.4 2.1 -17.4 C2.6 -24.8 7.3 -27.1 12.7 -27.1 C19.4 -27.1 27.2 -21.3 31.2 -16.3 C36.2 -10 40.2 -1.6 42.8 7.8 C48 26.7 51.6 40 54.1 45.3 C53.7 45.7 53.2 46.2 52.9 46.5 C49.6 45.5 45.8 44.7 42.5 44.7 C42.3 44.7 42.05 44.7 41.9 44.7 C41.9 42 41.4 39.5 40.9 37.2 C37 19.4 26.8 6.7 22.3 6.7 C21.2 6.7 20.7 8.8 20.7 10.2 C20.7 12.6 20.8 13.7 21.1 16.3 C21.73333 21.73333 22.525 28.525 23 32.6 C23.4 36.1 23.5 38.5 23.5 40.9 C23.5 44.2 22.3 46.9 19.4 46.9 C17.9 46.9 14.1 45.6 9.3 41.9 C6.63333 39.83333 3.3 37.25 1.3 35.7 C1.65 35 2.35 33.6 2.7 32.9 zM27 66.8 C22.9 66.8 20.2 63.2 20.2 59.4 C20.2 55.9 22.2 53.7 25.7 53.7 C30 53.7 32.5 57.1 32.5 61.2 C32.5 64.3 30.1 66.8 27 66.8 zM48.3 66.8 C44.2 66.8 41.5 63.2 41.5 59.4 C41.5 55.9 43.5 53.7 47 53.7 C51.3 53.7 53.8 57.1 53.8 61.2 C53.8 64.3 51.4 66.8 48.3 66.8 z" />
<glyph unicode="" horiz-adv-x="33.3" d="M25.5 36.5 C26.1 38.9 26.4 40.9 26.4 43.2 C26.4 45.6 25.2 46.9 23.9 46.9 C21.8 46.9 17.5 45.5 8.9 39.3 C6.8 37.73333 4.175 35.775 2.6 34.6 C2.925 33.95 3.575 32.65 3.9 32 C4.45 32.4 5.55 33.2 6.1 33.6 C7.2 34.4 11.8 37 12.9 37 C13.9 37 14 36.4 14 35.6 C13.8 34.3 13.5 33 13.2 31.9 C11.23333 23.86667 8.775 13.825 7.3 7.8 C7 6.6 6.7 4.3 6.7 2.6 C6.7 -0.6 8.5 -1.7 9.7 -1.7 C16.1 -1.7 23.6 4.5 29.3 8.4 C28.9 9.33333 28.4 10.5 28.1 11.2 C27.425 10.775 26.075 9.925 25.4 9.5 C23.1 8 20.5 6.5 19.3 6.5 C18.6 6.5 18.1 7 18.1 7.8 C18.1 9.1 19.1 13.2 20.1 16.9 C21.9 23.43333 24.15 31.6 25.5 36.5 z" />
<glyph unicode="" horiz-adv-x="61.1" d="M14.9 33.7 C11.325 31.925 4.175 28.375 0.6 26.6 C1.05 25.7 1.95 23.9 2.4 23 C5.3 24.425 11.1 27.275 14 28.7 C13.1 23.825 11.3 14.075 10.4 9.2 C9.5 4 8.1 3.4 5.8 3.2 C4.86667 3.1 3.7 2.975 3 2.9 C2.9 2.1 2.7 0.5 2.6 -0.3 C6.7 -0.2 10.9 0 16.1 0 C22.6 0 29 -0.2 35.5 -0.3 C36.4 -0.3 37.525 -0.3 38.2 -0.3 C43.7 -0.3 49.1 -0.1 54.4 0 C55.4 5.6 56.3 11.2 57.8 17.4 C56.6 17.4 55.1 17.4 54.2 17.4 C53.625 15.5 52.475 11.7 51.9 9.8 C51.1 7 49.5 5.8 46.2 5.6 C39.5 5.2 33.8 5 28.1 5 C26.3 5 24.5 5.2 22.6 5.6 C24.43333 15.63333 26.725 28.175 28.1 35.7 C32.125 37.7 40.175 41.7 44.2 43.7 C43.75 44.6 42.85 46.4 42.4 47.3 C39.05 45.65 32.35 42.35 29 40.7 C29.875 45.5 31.625 55.1 32.5 59.9 C33.2 63.8 34.1 64.1 37.1 64.3 C38.6 64.4 40.475 64.525 41.6 64.6 C41.7 65.475 41.9 67.225 42 68.1 C36.7 68 31.2 67.8 25.8 67.8 C21 67.8 16.1 68 10.9 68.1 C10.76667 66.93333 10.6 65.475 10.5 64.6 C11.8 64.525 14.4 64.375 15.7 64.3 C18.4 64.1 19.4 63.3 19.5 61.5 C19.5 60 19.3 58 18.6 54.1 C17.36667 47.3 15.825 38.8 14.9 33.7 z" />
<glyph unicode="" horiz-adv-x="33.3" d="M8 14.6 C7.3 11.2 6.4 7.9 6.4 2.6 C6.4 -0.6 8.2 -1.7 9.4 -1.7 C15.2 -1.7 21.4 3.1 29.1 8.7 C28.63333 9.6 28.05 10.725 27.7 11.4 C26.95 10.825 25.45 9.675 24.7 9.1 C23.2 8 20.6 6.5 19.4 6.5 C18.7 6.5 18.2 7 18.2 7.8 C18.2 11.2 18.9 14.6 19.4 17 C20.96667 24.03333 22.925 32.825 24.1 38.1 C27.2 39.75 33.4 43.05 36.5 44.7 C36.25 45.575 35.75 47.325 35.5 48.2 C32.9 46.825 27.7 44.075 25.1 42.7 C26.35 48.325 28.85 59.575 30.1 65.2 C30.6 67.5 31.3 69.6 31.8 71.7 C31.46667 72 31.05 72.375 30.8 72.6 C24.8 70.1 17.7 69 11 68 C10.76667 67.06667 10.475 65.9 10.3 65.2 C11.425 65.2 13.675 65.2 14.8 65.2 C17.5 65.2 18.3 64.2 18.3 62.4 C18.3 61.6 18.1 60.7 17.9 59.6 C16.16667 51.76667 14 41.975 12.7 36.1 C9.85 34.6 4.15 31.6 1.3 30.1 C1.55 29.225 2.05 27.475 2.3 26.6 C4.65 27.85 9.35 30.35 11.7 31.6 C10.775 27.35 8.925 18.85 8 14.6 z" />
<glyph unicode="" horiz-adv-x="94.4" d="M64.8 33 C65.425 33 66.675 33 67.3 33 C73 33 78.7 32.7 84.3 32.5 C84.76667 34.06667 85.35 36.025 85.7 37.2 C85.575 37.425 85.325 37.875 85.2 38.1 C80.5 37.9 75.2 37.8 71.2 37.8 C69.33333 37.8 67 37.8 65.6 37.8 C66.775 44.1 69.125 56.7 70.3 63 C71.6 63.1 72.9 63.3 74.2 63.3 C79.6 63.3 85.1 62.8 89 62 C90.3 61.7 90.4 59.9 90.4 58 C90.4 56 90.4 53.5 90.4 52 C91.2 52 92.8 52 93.6 52 C94.3 57.2 95.2 62.4 96.1 67.2 C95.76667 67.5 95.35 67.875 95.1 68.1 C86.4 68 77.6 67.8 68.9 67.8 C67.5 67.8 66.1 67.9 64.8 67.9 C63.4 68 62 68.1 60.6 68.1 C60.2 65.66667 59.7 62.625 59.4 60.8 C54.7 67.6 47.2 69.5 39.4 69.5 C18.2 69.5 3.9 49 3.9 29.2 C3.9 11.6 11 -1.7 30.2 -1.7 C37.4 -1.7 44.2 1.1 49.2 6 C49.26667 5.93333 49.35 5.85 49.4 5.8 C49.05 4.275 48.35 1.225 48 -0.3 C54.9 -0.2 59.2 0 62.4 0 C66.8 0 81.4 -0.2 88 -0.3 C89 5.6 90 11.2 91.4 16.8 C90.2 16.8 88.7 16.8 87.8 16.8 C87.25 15.05 86.15 11.55 85.6 9.8 C84.7 7 83.1 5.8 79.8 5.6 C76.7 5.4 71 5 65.3 5 C63.5 5 61.7 5.2 59.8 5.6 C61.46667 14.73333 63.55 26.15 64.8 33 zM51.5 22.8 C49.7 12.9 44.7 3 33 3 C20.1 3 16.2 14.8 16.2 25.7 C16.2 40.8 21.1 64.8 40.4 64.8 C48.5 64.8 56 59.7 56 49.4 C56 48 55.9 46.6 55.6 45 C54.23333 37.6 52.525 28.35 51.5 22.8 z" />
<glyph unicode="" horiz-adv-x="77.8" d="M65.3 46.9 C59.5 46.9 53.3 43.1 48.7 39.8 C46 45.1 39.6 46.9 34 46.9 C29.5 46.9 25.8 45.6 21.9 43.7 C17.4 41.5 11.8 37.3 9.2 32.8 C6.6 28.4 4.8 19.3 4.8 14.4 C4.8 3.6 9.3 -1.7 20.5 -1.7 C26.7 -1.7 32.5 1.2 37.6 4.4 C39.6 0.4 44.8 -1.7 49 -1.7 C56.9 -1.7 65.2 3.8 72.5 8.9 C72.06667 9.83333 71.525 11 71.2 11.7 C69.75 10.775 66.85 8.925 65.4 8 C63.1 6.5 58.8 4.7 55.6 4.7 C50.2 4.7 47.7 7.9 47.7 13.2 C47.7 15.3 47.8 17.5 48.3 19.5 C53.8 20.4 60.6 21.8 66 24.7 C71.4 27.6 75.5 32 75.5 38.8 C75.5 44.6 70.6 46.9 65.3 46.9 zM24.9 2.7 C18.5 2.7 16.2 8.3 16.2 13.8 C16.2 18.9 17.4 25.4 19 30.2 C20.9 36 22.8 42.5 30.3 42.5 C37.1 42.5 38.8 36.6 38.8 31 C38.8 23.4 36.2 2.7 24.9 2.7 zM48.7 22.3 C49.075 23.725 49.825 26.575 50.2 28 C51.2 31.8 53.6 42.1 61.5 42.1 C63.9 42.1 66.1 40.2 66.1 37.8 C66.1 29.2 58.2 24.5 54.2 23.6 C52.36667 23.16667 50.075 22.625 48.7 22.3 z" />
<glyph unicode="" horiz-adv-x="55.6" d="M46.5 50.4 C47.25 50.4 48.75 50.4 49.5 50.4 C49.5 55.5 50.6 61.3 51.7 65.1 C51.1 65.5 45.8 69.5 36.7 69.5 C27.4 69.5 20.6 64.3 18.2 62.2 C15.7 60 10.4 54.1 10.4 45.2 C10.4 34.2 17.6 31.3 26.6 28 C35.1 25 38.9 23.6 38.9 15.7 C38.9 10.3 35.8 3.9 25.1 3.9 C14.5 3.9 10.8 9.1 9.8 11.3 C9.8 13.83333 9.8 17 9.8 18.9 C9.125 18.9 7.775 18.9 7.1 18.9 C6.575 14.75 5.525 6.45 5 2.3 C9.4 -0.8 15.4 -1.7 21.2 -1.7 C30.6 -1.7 36.3 1.3 41.8 6.4 C44.7 9.1 49.5 16 49.5 23.1 C49.5 34.3 41 36.9 32.4 40.1 C25.9 42.5 19.6 45 19.6 52.9 C19.6 59.4 25.8 63.9 32.5 63.9 C39.1 63.9 43.5 61.7 46.5 58.9 C46.5 56.06667 46.5 52.525 46.5 50.4 zM31.3 73 C33.35 73 37.45 73 39.5 73 C43.55 77.35 51.65 86.05 55.7 90.4 C54.3 90.4 51.5 90.4 50.1 90.4 C46.725 87.975 39.975 83.125 36.6 80.7 C34.325 83.125 29.775 87.975 27.5 90.4 C26.25 90.4 23.75 90.4 22.5 90.4 C24.7 86.05 29.1 77.35 31.3 73 z" />
<glyph unicode="" horiz-adv-x="44.4" d="M22.6 17.7 C26.2 17 29.4 15.3 29.4 11.1 C29.4 5.6 24.8 3.8 20 3.8 C16 3.8 10.1 6.2 7.6 9.4 C7.6 10.96667 7.6 12.925 7.6 14.1 C6.85 14.1 5.35 14.1 4.6 14.1 C4.2 9.7 3.4 5.4 2.5 1 C7 -0.4 11.5 -1.7 16 -1.7 C23 -1.7 27.8 0.7 33.1 5.1 C36.9 8.3 39.4 10.9 39.4 16.3 C39.4 21.9 34.7 25.4 29.6 26.5 C27.63333 26.93333 25.175 27.475 23.7 27.8 C20.4 28.5 16.1 29.6 16.1 33.8 C16.1 38.8 19.5 41.4 24.4 41.4 C28.5 41.4 32.3 39.6 35.3 37 C35.5 35.4 35.75 33.4 35.9 32.2 C36.65 32.2 38.15 32.2 38.9 32.2 C38.9 36 40 40.1 40.6 43.8 C36.9 46 32.5 46.9 28.2 46.9 C26.5 46.9 25.2 46.7 23.5 46.3 C20.7 45.6 15.4 42.1 13.1 40.5 C9.2 37.8 6.8 34.8 6.8 29.7 C6.8 22.9 12.2 19.8 18.2 18.6 C19.66667 18.3 21.5 17.925 22.6 17.7 zM24.5 53.8 C26.55 53.8 30.65 53.8 32.7 53.8 C36.75 58.15 44.85 66.85 48.9 71.2 C47.5 71.2 44.7 71.2 43.3 71.2 C39.925 68.775 33.175 63.925 29.8 61.5 C27.525 63.925 22.975 68.775 20.7 71.2 C19.45 71.2 16.95 71.2 15.7 71.2 C17.9 66.85 22.3 58.15 24.5 53.8 z" />
<glyph unicode="" horiz-adv-x="61.1" d="M39 20.6 C39.4 22.5 39.7 24.4 40.4 26.1 C44.5 36 52.6 52.1 62.1 57.5 C63.5 58.3 65.2 59.1 66.9 59.3 C67.1 62.23333 67.35 65.9 67.5 68.1 C60.5 68.1 53.2 58.6 49.6 53.4 C44.6 46.1 40.4 38.2 37.1 30 C37.03333 30 36.95 30 36.9 30 C36.025 34.15 34.275 42.45 33.4 46.6 C32.3 51.8 30.6 57 28.1 61.8 C25.4 67 21.6 69.5 16.8 69.5 C16 69.5 14.9 69.4 14.4 69 C12.1 67.1 7.9 63.6 5.4 62 C5.5 60.9 5.625 59.525 5.7 58.7 C6.8 59.5 9.3 59.7 10.4 59.7 C15.8 59.7 19.9 49.4 21.1 45.6 C22.16667 42.1 23.5 37.725 24.3 35.1 C25.6 30.8 26.6 26.6 26.6 24.8 C26.6 23.3 26.5 21.9 26.2 20.5 C25.66667 18.06667 25 15.025 24.6 13.2 C23.5 8.1 23 6.2 22.6 5.4 C21.9 3.9 20.6 3.6 19.2 3.5 C17.56667 3.4 15.525 3.275 14.3 3.2 C14.2 2.325 14 0.575 13.9 -0.3 C19.3 -0.2 24.6 0 29.8 0 C34.7 0 39.5 -0.2 45.9 -0.3 C46.03333 0.86667 46.2 2.325 46.3 3.2 C44.825 3.275 41.875 3.425 40.4 3.5 C37.3 3.7 36.7 4.8 36.7 6.4 C36.7 7.7 36.8 8.9 37 10 C37.66667 13.53333 38.5 17.95 39 20.6 zM29.7 88 C25.6 88 22.9 84.4 22.9 80.6 C22.9 77.1 24.9 74.9 28.4 74.9 C32.7 74.9 35.2 78.3 35.2 82.4 C35.2 85.5 32.8 88 29.7 88 zM51 88 C46.9 88 44.2 84.4 44.2 80.6 C44.2 77.1 46.2 74.9 49.7 74.9 C54 74.9 56.5 78.3 56.5 82.4 C56.5 85.5 54.1 88 51 88 z" />
<glyph unicode="" horiz-adv-x="66.7" d="M0.1 -0.3 C9.8 -0.2 19.6 0 29.3 0 C39 0 48.7 -0.2 59.5 -0.3 C60.8 5.8 62.425 13.425 63.4 18 C62.5 18 60.7 18 59.8 18 C58.7 14 57.2 10.2 55.3 6.4 C50.6 5.4 43 4.9 36.8 4.9 C30.8 4.9 23.3 4.9 18.8 4.9 C30.875 19.825 55.025 49.675 67.1 64.6 C67.225 65.475 67.475 67.225 67.6 68.1 C58.3 68 49.1 67.8 40 67.8 C30.9 67.8 21.8 68 12.7 68.1 C12.46667 67.73333 12.175 67.275 12 67 C11.4 61.6 10.6 56.2 9.4 51 C10.56667 51 12.025 51 12.9 51 C13.5 52.9 14.7 56.7 15.3 58.6 C15.7 59.8 16.1 60.7 16.7 61.3 C17.8 62.4 27.9 62.9 33.2 62.9 C38.66667 62.9 45.5 62.9 49.6 62.9 C37.225 47.775 12.475 17.525 0.1 2.4 C0.1 1.725 0.1 0.375 0.1 -0.3 zM36.8 73 C38.85 73 42.95 73 45 73 C49.05 77.35 57.15 86.05 61.2 90.4 C59.8 90.4 57 90.4 55.6 90.4 C52.225 87.975 45.475 83.125 42.1 80.7 C39.825 83.125 35.275 87.975 33 90.4 C31.75 90.4 29.25 90.4 28 90.4 C30.2 86.05 34.6 77.35 36.8 73 z" />
<glyph unicode="" horiz-adv-x="50" d="M3.1 2.5 C3.5 1.75 4.3 0.25 4.7 -0.5 C6.7 1.2 9.4 2.2 12 2.2 C15.4 2.2 17.9 1.8 22 0.6 C26.5 -0.7 32.4 -1.7 36.2 -1.7 C38.5 -1.7 41.2 -1.4 41.6 0.6 C42.5 5.2 43.6 9.5 45.1 13.8 C44.16667 13.86667 43 13.95 42.3 14 C41.6 12.55 40.2 9.65 39.5 8.2 C39.1 8.2 38.6 8.1 38.2 8.1 C36.5 8.1 34.5 8.4 32.8 8.7 C30.2 9.2 25.8 9.7 22.7 9.7 C20.1 9.7 17.4 9.1 13.4 7.6 C13.33333 7.66667 13.25 7.75 13.2 7.8 C21.3 16.125 37.5 32.775 45.6 41.1 C45.95 42.35 46.65 44.85 47 46.1 C46.5 46.3 45.5 46.7 45 46.9 C44.775 46.575 44.325 45.925 44.1 45.6 C43 44.1 40.9 43.2 38.5 43.2 C36.2 43.2 32.7 43.6 28.8 44.6 C24.1 45.8 20.2 46.9 17.7 46.9 C15.7 46.9 13.7 46.5 11.9 45.9 C10.4 41.26667 8.525 35.475 7.4 32 C8.125 31.925 9.575 31.775 10.3 31.7 C10.875 33 12.025 35.6 12.6 36.9 C17.4 36.4 24 35.6 29 35.6 C32.1 35.6 34.7 36.5 37 37.6 C37.06667 37.53333 37.15 37.45 37.2 37.4 C28.675 28.675 11.625 11.225 3.1 2.5 zM27.3 53.8 C29.35 53.8 33.45 53.8 35.5 53.8 C39.55 58.15 47.65 66.85 51.7 71.2 C50.3 71.2 47.5 71.2 46.1 71.2 C42.725 68.775 35.975 63.925 32.6 61.5 C30.325 63.925 25.775 68.775 23.5 71.2 C22.25 71.2 19.75 71.2 18.5 71.2 C20.7 66.85 25.1 58.15 27.3 53.8 z" />
<glyph unicode="" horiz-adv-x="50" d="M11 40.8 C10.675 39.8 10.025 37.8 9.7 36.8 C12.425 36.8 17.875 36.8 20.6 36.8 C19.25 26.45 16.55 5.75 15.2 -4.6 C13.9 -14.6 11.1 -17.7 8.6 -17.7 C5.9 -17.7 4.7 -16.5 3.4 -15 C2.83333 -15.3 2.125 -15.675 1.7 -15.9 C1.7 -18.8 1.4 -21.8 0.8 -23.9 C1.8 -24.1 2.8 -24.2 3.8 -24.2 C7 -24.2 10.8 -22.8 14.4 -19 C19 -14.2 22.8 -7.6 25.4 0 C29.2 11 30.9 22.9 32.5 36.8 C36.1 36.8 40.6 36.8 43.3 36.8 C43.55 37.8 44.05 39.8 44.3 40.8 C41.5 40.8 35.9 40.8 33.1 40.8 C33.7 44.85 34.9 52.95 35.5 57 C36 60.5 38.1 62.7 40.5 62.7 C42.9 62.7 45 61.5 46 60.1 C46.36667 60.2 46.825 60.325 47.1 60.4 C47.3 62.45 47.7 66.55 47.9 68.6 C46.8 68.8 45.6 69 44.3 69 C41.1 69 35.7 65.4 32.1 61.8 C27.9 57.6 24.6 52.3 23.4 47.8 C22.8 45.46667 22.05 42.55 21.6 40.8 C18.95 40.8 13.65 40.8 11 40.8 z" />
<glyph unicode="" horiz-adv-x="33.3" d="M32.9 69.2 C30.875 69.2 26.825 69.2 24.8 69.2 C20.8 64.85 12.8 56.15 8.8 51.8 C10.225 51.8 13.075 51.8 14.5 51.8 C17.775 54.175 24.325 58.925 27.6 61.3 C29.8 58.925 34.2 54.175 36.4 51.8 C37.675 51.8 40.225 51.8 41.5 51.8 C39.35 56.15 35.05 64.85 32.9 69.2 z" />
<glyph unicode="" horiz-adv-x="33.3" d="M20.1 51.8 C22.15 51.8 26.25 51.8 28.3 51.8 C32.35 56.15 40.45 64.85 44.5 69.2 C43.1 69.2 40.3 69.2 38.9 69.2 C35.525 66.775 28.775 61.925 25.4 59.5 C23.125 61.925 18.575 66.775 16.3 69.2 C15.05 69.2 12.55 69.2 11.3 69.2 C13.5 64.85 17.9 56.15 20.1 51.8 z" />
<glyph unicode="" horiz-adv-x="33.3" d="M41.8 60.8 C33.675 60.8 17.425 60.8 9.3 60.8 C8.875 59.05 8.025 55.55 7.6 53.8 C15.75 53.8 32.05 53.8 40.2 53.8 C40.6 55.55 41.4 59.05 41.8 60.8 z" />
<glyph unicode="" horiz-adv-x="33.3" d="M9.6 68 C9.6 67.8 9.6 67.4 9.6 67.2 C9.6 59 12.6 51.8 22.3 51.8 C33.1 51.8 39.4 57.4 41.2 68 C39.9 68 38.275 68 37.3 68 C35 62.2 30.8 59 24.4 59 C18.2 59 14.2 61.6 13.9 68 C12.46667 68 10.675 68 9.6 68 z" />
<glyph unicode="" horiz-adv-x="33.3" d="M27 69.5 C22.9 69.5 20.2 65.9 20.2 62.1 C20.2 58.6 22.2 56.4 25.7 56.4 C30 56.4 32.5 59.8 32.5 63.9 C32.5 67 30.1 69.5 27 69.5 z" />
<glyph unicode="" horiz-adv-x="55.6" d="M37.7 66.4 C40.5 66.4 42.7 64.2 42.7 61.4 C42.7 58.6 40.5 56.4 37.7 56.4 C34.9 56.4 32.7 58.6 32.7 61.4 C32.7 64.2 34.9 66.4 37.7 66.4 zM37.7 71.4 C32.2 71.4 27.7 66.9 27.7 61.4 C27.7 55.9 32.2 51.4 37.7 51.4 C43.2 51.4 47.7 55.9 47.7 61.4 C47.7 66.9 43.2 71.4 37.7 71.4 z" />
<glyph unicode="" horiz-adv-x="33.3" d="M24.8 -12.9 C22.1 -14.8 20.2 -16.4 17.9 -16.4 C15.4 -16.4 13.8 -14.2 13.8 -11.3 C13.8 -7.4 17.3 -4.1 19.1 -1.8 C17.86667 -1.8 16.325 -1.8 15.4 -1.8 C11.5 -5.2 7.6 -9.5 7.6 -15.2 C7.6 -19.7 9.8 -22.6 13.4 -22.6 C17.7 -22.6 22.6 -18.6 26 -15.4 C25.6 -14.56667 25.1 -13.525 24.8 -12.9 z" />
<glyph unicode="" horiz-adv-x="33.3" d="M12.2 53.7 C13.2 55.9 14 58.1 17.1 58.1 C19 58.1 21.9 56.9 23.7 56.2 C26.5 55.1 29.3 53.7 32.4 53.7 C39.3 53.7 42.8 59.6 44.1 65.6 C42.73333 65.6 41.025 65.6 40 65.6 C39.1 63.6 37.9 61.4 35.1 61.4 C33.4 61.4 31.2 62.1 28.4 63.3 C26.2 64.3 24 65.6 19.8 65.6 C13.2 65.6 9.3 59.8 8.2 53.7 C9.53333 53.7 11.2 53.7 12.2 53.7 z" />
<glyph unicode="" horiz-adv-x="33.3" d="M16.3 59.9 C18 60.9 21.2 62.6 21.2 65.4 C21.2 67.3 19.1 69.9 16.9 69.9 C14.2 69.9 12.3 67.9 10.9 66.5 C6.33333 61.6 0.625 55.475 -2.8 51.8 C-1.575 51.8 0.875 51.8 2.1 51.8 C5.65 53.825 12.75 57.875 16.3 59.9 zM36 59.9 C37.7 60.9 40.9 62.6 40.9 65.4 C40.9 67.3 38.8 69.9 36.6 69.9 C33.9 69.9 32 67.9 30.6 66.5 C26.03333 61.6 20.325 55.475 16.9 51.8 C18.125 51.8 20.575 51.8 21.8 51.8 C25.35 53.825 32.45 57.875 36 59.9 z" />
<glyph unicode="" horiz-adv-x="65.5" d="M60.8 15 C60.075 15.025 58.625 15.075 57.9 15.1 C54.9 8.9 53.6 8.1 50 8.1 C46.76667 8.1 42.725 8.1 40.3 8.1 C48.5 15.1 59.4 24.6 61.9 38.6 C65.1 57.2 55.9 68.4 40.6 68.4 C25.5 68.4 11.7 56.7 8.4 38 C5.7 22.6 13.7 13.5 18.8 8.1 C15.86667 8.1 12.2 8.1 10 8.1 C6.3 8.1 5 9.1 4.1 15.1 C3.16667 15.06667 2 15.025 1.3 15 C1.175 11.25 0.925 3.75 0.8 0 C6.275 0 17.225 0 22.7 0 C23 0.475 23.6 1.425 23.9 1.9 C21.2 12.1 17.7 24.7 19.9 37.3 C23.6 58.6 31.3 65.1 39.8 65.1 C47.8 65.1 53.7 58 50.1 37.6 C48 24.9 38.8 11.3 33.4 1.8 C33.53333 1.2 33.7 0.45 33.8 0 C39.3 0 50.3 0 55.8 0 C57.05 3.75 59.55 11.25 60.8 15 z" />
<glyph unicode="" horiz-adv-x="54.1" d="M50.6 8.8 C50.35 9.5 49.85 10.9 49.6 11.6 C49.175 11.3 48.325 10.7 47.9 10.4 C45.4 8.6 43.2 7.7 41.9 7.7 C41 7.7 40.5 8.2 40.5 9 C40.5 10.1 41.4 13.6 42.5 18 C44.7 26.8 47.2 36 50.1 45.4 C49.8 45.76667 49.425 46.225 49.2 46.5 C45.7 45.4 41.3 44.8 38.2 44.7 C37.9 39.3 35.8 32.3 33.3 26.6 C31.1 21.4 23.9 7 17.7 7 C16 7 15.6 8.9 15.6 10.8 C15.6 11.8 16.1 15.2 16.7 18 C18.7 26.8 21.5 36 24.4 45.4 C24.1 45.76667 23.725 46.225 23.5 46.5 C20 45.4 15.1 44.8 12.2 44.7 C12.1 43.2 11.7 40.1 11.2 37.2 C10.2 31.2 8.6 24.8 7.9 21.9 C6.4 15.86667 4.525 8.325 3.4 3.8 C2.1 -1.4 -2 -14.6 -4.7 -20.1 C-4.2 -20.46667 -3.575 -20.925 -3.2 -21.2 C-0.5 -19.6 5.2 -18.7 6.5 -18.6 C6.8 -14.2 8.7 -1.2 10.1 5.1 C10.1 1.5 11.7 -1 14.4 -1 C17.4 -1 25.9 2.8 34.1 21.7 C34.16667 21.63333 34.25 21.55 34.3 21.5 C33.55 18.8 32.05 13.4 31.3 10.7 C30.5 7.7 29.7 4.8 29.7 2.6 C29.7 -0.6 31.6 -1.7 33.3 -1.7 C36 -1.7 45.6 4.9 50.6 8.8 z" />
<glyph unicode="" horiz-adv-x="52.6" d="M51.4 45.9 C49.6 43.4 48.5 42.8 45.4 42.8 C36.7 42.8 28.2 43 21.2 43.1 C11.1 43.2 6.5 37.4 3.2 34.1 C3.53333 33.23333 3.95 32.15 4.2 31.5 C8.4 34.1 10.8 35.5 16.6 35.4 C14.9 25.6 10.3 10.1 1.8 0.7 C1.9 0.06667 2.025 -0.725 2.1 -1.2 C3.8 -1.1 6.5 -0.4 8.6 0.5 C10.5 2.5 16.6 11.3 20.6 33.9 C20.66667 34.33333 20.75 34.875 20.8 35.2 C24.5 35.2 28.8 35.1 33.4 35.1 C31.6 27.4 30 20.8 28.4 11.7 C26.5 1.4 30.1 -1.2 35 -1.2 C38.8 -1.2 43.4 1.4 46.5 5.6 C46.2 6.33333 45.825 7.25 45.6 7.8 C43.8 6.2 42.6 5.4 40.9 5.4 C38.2 5.4 37.6 8 38.6 14.1 C39.8 20.7 41.1 28.6 42.7 34.8 C45.2 34.8 47.2 34.9 48.8 35.3 C50.3 37.1 52.6 41.3 53.9 45.2 C53.06667 45.43333 52.025 45.725 51.4 45.9 z" />
<glyph unicode="" horiz-adv-x="50" d="M51.2 28.2 C38.4 28.2 12.8 28.2 0 28.2 C-0.3 26.5 -0.9 23.1 -1.2 21.4 C11.6 21.4 37.2 21.4 50 21.4 C50.3 23.1 50.9 26.5 51.2 28.2 z" />
<glyph unicode="" horiz-adv-x="100" d="M100 21.4 C100.3 23.1 100.9 26.5 101.2 28.2 C75.9 28.2 25.3 28.2 0 28.2 C-0.3 26.5 -0.9 23.1 -1.2 21.4 C24.1 21.4 74.7 21.4 100 21.4 z" />
<glyph unicode="" horiz-adv-x="27.8" d="M7.9 43.1 C8.8 43.375 10.6 43.925 11.5 44.2 C14.3 45.1 17.1 46 20 46.2 C21.4 54.8 24.6 63.4 29.1 70.9 C28.56667 71.26667 27.9 71.725 27.5 72 C26.25 71.3 23.75 69.9 22.5 69.2 C16 61.9 11 53.2 6.5 44.5 C6.96667 44.03333 7.55 43.45 7.9 43.1 z" />
<glyph unicode="" horiz-adv-x="27.8" d="M28.8 72 C27.9 71.725 26.1 71.175 25.2 70.9 C22.4 70 19.6 69.1 16.7 68.9 C15.3 60.3 12.1 51.7 7.6 44.2 C8.13333 43.83333 8.8 43.375 9.2 43.1 C10.45 43.8 12.95 45.2 14.2 45.9 C20.7 53.2 25.7 61.9 30.2 70.6 C29.73333 71.06667 29.15 71.65 28.8 72 z" />
<glyph unicode="" horiz-adv-x="25" d="M22 13.2 C21.675 13.525 21.025 14.175 20.7 14.5 C19.975 14.325 18.525 13.975 17.8 13.8 C14.6 13 11.7 12.1 8.5 11.5 C8.1 5 3.4 -7.1 -0.3 -12.6 C0.2 -13.2 0.825 -13.95 1.2 -14.4 C2.6 -13.55 5.4 -11.85 6.8 -11 C8.4 -10 14.1 -1.4 16.8 3.6 C18.53333 6.8 20.7 10.8 22 13.2 z" />
<glyph unicode="" horiz-adv-x="50" d="M7.9 43.1 C8.8 43.375 10.6 43.925 11.5 44.2 C14.3 45.1 17.1 46 20 46.2 C21.4 54.8 24.6 63.4 29.1 70.9 C28.56667 71.26667 27.9 71.725 27.5 72 C26.25 71.3 23.75 69.9 22.5 69.2 C16 61.9 11 53.2 6.5 44.5 C6.96667 44.03333 7.55 43.45 7.9 43.1 zM29.9 43.1 C30.8 43.375 32.6 43.925 33.5 44.2 C36.3 45.1 39.1 46 42 46.2 C43.4 54.8 46.6 63.4 51.1 70.9 C50.56667 71.26667 49.9 71.725 49.5 72 C48.25 71.3 45.75 69.9 44.5 69.2 C38 61.9 33 53.2 28.5 44.5 C28.96667 44.03333 29.55 43.45 29.9 43.1 z" />
<glyph unicode="" horiz-adv-x="50" d="M28.5 72 C27.6 71.725 25.8 71.175 24.9 70.9 C22.1 70 19.3 69.1 16.4 68.9 C15 60.3 11.8 51.7 7.3 44.2 C7.83333 43.83333 8.5 43.375 8.9 43.1 C10.15 43.8 12.65 45.2 13.9 45.9 C20.4 53.2 25.4 61.9 29.9 70.6 C29.43333 71.06667 28.85 71.65 28.5 72 zM50.5 72 C49.6 71.725 47.8 71.175 46.9 70.9 C44.1 70 41.3 69.1 38.4 68.9 C37 60.3 33.8 51.7 29.3 44.2 C29.83333 43.83333 30.5 43.375 30.9 43.1 C32.15 43.8 34.65 45.2 35.9 45.9 C42.4 53.2 47.4 61.9 51.9 70.6 C51.43333 71.06667 50.85 71.65 50.5 72 z" />
<glyph unicode="" horiz-adv-x="50" d="M20.5 13.2 C20.175 13.525 19.525 14.175 19.2 14.5 C18.475 14.325 17.025 13.975 16.3 13.8 C13.1 13 10.2 12.1 7 11.5 C6.6 5 1.9 -7.1 -1.8 -12.6 C-1.3 -13.2 -0.675 -13.95 -0.3 -14.4 C1.1 -13.55 3.9 -11.85 5.3 -11 C6.9 -10 12.6 -1.4 15.3 3.6 C17.03333 6.8 19.2 10.8 20.5 13.2 zM42.4 13.2 C42.075 13.525 41.425 14.175 41.1 14.5 C40.375 14.325 38.925 13.975 38.2 13.8 C35 13 32.1 12.1 28.9 11.5 C28.5 5 23.8 -7.1 20.1 -12.6 C20.6 -13.2 21.225 -13.95 21.6 -14.4 C23 -13.55 25.8 -11.85 27.2 -11 C28.8 -10 34.5 -1.4 37.2 3.6 C38.93333 6.8 41.1 10.8 42.4 13.2 z" />
<glyph unicode="" horiz-adv-x="55.6" d="M24.2 46.5 C22.975 46.5 20.525 46.5 19.3 46.5 C14.3 46.5 10.1 46.6 8.5 47.4 C8.23333 47.23333 7.9 47.025 7.7 46.9 C7.7 46.7 7.7 46.3 7.7 46.1 C7.7 43.4 7.2 40.7 6.7 38.1 C6.93333 37.96667 7.225 37.8 7.4 37.7 C12.7 38.5 17.8 38.7 22.8 38.7 C20.8 25.8 17.8 12.4 14.8 1 C14.83333 0.56667 14.875 0.025 14.9 -0.3 C16.8 -0.2 18.7 0 20.7 0 C22.7 0 24.6 -0.2 26.5 -0.3 C26.66667 -0.13333 26.875 0.075 27 0.2 C27.8 13.2 29.8 25.8 32.2 38.7 C37.4 38.7 42.7 38.5 47.9 38.2 C48.1 38.33333 48.35 38.5 48.5 38.6 C48.5 41 49.1 43.8 49.9 46.9 C49.76667 47.03333 49.6 47.2 49.5 47.3 C47.4 46.9 43.9 46.5 40.3 46.5 C38 46.5 35.125 46.5 33.4 46.5 C33.775 48.775 34.525 53.325 34.9 55.6 C35.4 58.6 36.7 63.7 38.1 68.2 C37.93333 68.3 37.725 68.425 37.6 68.5 C35.9 68.4 34.1 68.2 32.4 68.2 C30.6 68.2 28.9 68.4 27.1 68.5 C26.9 68.36667 26.65 68.2 26.5 68.1 C26.4 64.6 26.1 61 25.7 57.6 C25.2 53.9 24.575 49.275 24.2 46.5 z" />
<glyph unicode="" horiz-adv-x="55.6" d="M19.2 49.5 C16.7 49.5 14.2 50 11.7 50.6 C11.53333 50.4 11.325 50.15 11.2 50 C11.3 49.4 11.3 48.7 11.3 48.1 C11.3 45.7 10.9 43.4 10.3 41.3 C10.5 41.16667 10.75 41 10.9 40.9 C14.5 41.3 18.1 41.8 21.8 41.8 C23.33333 41.8 25.25 41.8 26.4 41.8 C26.125 40.3 25.575 37.3 25.3 35.8 C24.8 32.8 23.9 29.9 22.9 27 C22.9 26.7 22.9 26.325 22.9 26.1 C22.9 23.6 22.5 21.2 22.1 18.9 C21.63333 16.66667 21.05 13.875 20.7 12.2 C18.575 12.2 14.325 12.2 12.2 12.2 C9.7 12.2 7.2 12.7 4.7 13.3 C4.53333 13.1 4.325 12.85 4.2 12.7 C4.3 12.1 4.3 11.4 4.3 10.8 C4.3 8.4 3.9 6.1 3.3 4 C3.5 3.86667 3.75 3.7 3.9 3.6 C7.5 4 11.1 4.5 14.8 4.5 C16.33333 4.5 18.25 4.5 19.4 4.5 C18.975 2.225 18.125 -2.325 17.7 -4.6 C17.1 -8 16.4 -11.3 15 -14.7 C15.2 -14.9 15.45 -15.15 15.6 -15.3 C17.2 -15.2 19 -15 20.7 -15 C22.5 -15 24.2 -15.2 26 -15.3 C26.16667 -15.1 26.375 -14.85 26.5 -14.7 C26.4 -13.8 26.4 -12.9 26.4 -12 C26.4 -9.1 26.8 -6.3 27.3 -3.4 C27.76667 -0.76667 28.35 2.525 28.7 4.5 C30.025 4.5 32.675 4.5 34 4.5 C37.7 4.5 41.4 4.2 45.1 3.9 C45.23333 4.06667 45.4 4.275 45.5 4.4 C45.5 4.65 45.5 5.15 45.5 5.4 C45.5 7.7 46 10.5 46.8 12.8 C46.56667 12.86667 46.275 12.95 46.1 13 C42.3 12.5 38.5 12.2 34.8 12.2 C33.23333 12.2 31.275 12.2 30.1 12.2 C30.35 13.575 30.85 16.325 31.1 17.7 C31.7 21 32.7 24.2 33.9 27.3 C34 30.3 34 33.3 34.5 36.2 C34.86667 38.06667 35.325 40.4 35.6 41.8 C36.925 41.8 39.575 41.8 40.9 41.8 C44.6 41.8 48.3 41.5 52 41.2 C52.13333 41.36667 52.3 41.575 52.4 41.7 C52.4 41.95 52.4 42.45 52.4 42.7 C52.4 45 52.9 47.8 53.7 50.1 C53.46667 50.16667 53.175 50.25 53 50.3 C49.2 49.8 45.4 49.5 41.7 49.5 C40.13333 49.5 38.175 49.5 37 49.5 C37.425 51.775 38.275 56.325 38.7 58.6 C39.3 62 40 65.3 41.4 68.7 C41.2 68.9 40.95 69.15 40.8 69.3 C39.2 69.2 37.4 69 35.7 69 C33.9 69 32.2 69.2 30.4 69.3 C30.23333 69.1 30.025 68.85 29.9 68.7 C30 67.8 30 66.9 30 66 C30 63.1 29.6 60.3 29.1 57.4 C28.63333 54.76667 28.05 51.475 27.7 49.5 C25.575 49.5 21.325 49.5 19.2 49.5 z" />
<glyph unicode="" horiz-adv-x="60.6" d="M13.1 34.4 C13.1 25 20.9 17.2 30.3 17.2 C39.7 17.2 47.5 25 47.5 34.4 C47.5 43.8 39.7 51.6 30.3 51.6 C20.9 51.6 13.1 43.8 13.1 34.4 z" />
<glyph unicode="" horiz-adv-x="100" d="M16.5 13.5 C11.6 13.5 9.1 8.9 9.1 4.5 C9.1 0.7 12 -1.7 15.7 -1.7 C20.7 -1.7 23 3 23 7.4 C23 11.4 20.3 13.5 16.5 13.5 zM49.8 13.5 C44.9 13.5 42.4 8.9 42.4 4.5 C42.4 0.7 45.3 -1.7 49 -1.7 C54 -1.7 56.3 3 56.3 7.4 C56.3 11.4 53.6 13.5 49.8 13.5 zM83.1 13.5 C78.2 13.5 75.7 8.9 75.7 4.5 C75.7 0.7 78.6 -1.7 82.3 -1.7 C87.3 -1.7 89.6 3 89.6 7.4 C89.6 11.4 86.9 13.5 83.1 13.5 z" />
<glyph unicode="" horiz-adv-x="100" d="M47.8 29.3 C39.7 29.3 31.6 21.9 31.6 12 C31.6 4.5 34.6 -0.7 43 -0.7 C51.1 -0.7 59.2 6.7 59.2 16.6 C59.2 24.1 56.2 29.3 47.8 29.3 zM47.5 26.8 C49.6 26.8 51.6 25.6 51.6 21.4 C51.6 17 50.1 2 43.3 2 C41.2 2 39.2 3 39.2 7.2 C39.2 11.6 40.7 26.8 47.5 26.8 zM79.8 29.3 C71.7 29.3 63.6 21.9 63.6 12 C63.6 4.5 66.6 -0.7 75 -0.7 C83.1 -0.7 91.2 6.7 91.2 16.6 C91.2 24.1 88.2 29.3 79.8 29.3 zM79.5 26.6 C81.6 26.6 83.6 25.4 83.6 21.2 C83.6 16.8 82.1 1.8 75.3 1.8 C73.2 1.8 71.2 2.8 71.2 7 C71.2 11.4 72.7 26.6 79.5 26.6 zM22.7 67.2 C14.6 67.2 6.5 59.8 6.5 49.9 C6.5 42.4 9.5 37.2 17.9 37.2 C26 37.2 34.1 44.6 34.1 54.5 C34.1 62 31.1 67.2 22.7 67.2 zM22.4 64.7 C24.5 64.7 26.5 63.5 26.5 59.3 C26.5 54.9 25 39.7 18.2 39.7 C16.1 39.7 14.1 40.9 14.1 45.1 C14.1 49.5 15.6 64.7 22.4 64.7 zM13 -1.7 C24.375 16 47.125 51.4 58.5 69.1 C57.175 69.1 54.525 69.1 53.2 69.1 C41.75 51.4 18.85 16 7.4 -1.7 C8.8 -1.7 11.6 -1.7 13 -1.7 z" />
<glyph unicode="" horiz-adv-x="33.3" d="M29.2 42.6 C28.65 43.1 27.55 44.1 27 44.6 C24.025 41.875 18.075 36.425 15.1 33.7 C12.1 31 9.2 28.2 6 25.6 C6 24.9 6 24.025 6 23.5 C7.725 21.6 11.175 17.8 12.9 15.9 C16.3 12.1 19.4 8.1 22.8 4.3 C23.63333 4.76667 24.675 5.35 25.3 5.7 C23.125 10.35 18.775 19.65 16.6 24.3 C19.75 28.875 26.05 38.025 29.2 42.6 z" />
<glyph unicode="" horiz-adv-x="33.3" d="M3.5 6 C4.05 5.5 5.15 4.5 5.7 4 C8.675 6.725 14.625 12.175 17.6 14.9 C20.6 17.6 23.5 20.4 26.7 23 C26.7 23.7 26.7 24.575 26.7 25.1 C24.975 27 21.525 30.8 19.8 32.7 C16.4 36.5 13.3 40.5 9.9 44.3 C9.06667 43.83333 8.025 43.25 7.4 42.9 C9.575 38.25 13.925 28.95 16.1 24.3 C12.95 19.725 6.65 10.575 3.5 6 z" />
<glyph unicode="" horiz-adv-x="16.7" d="M-10.1 0 C0.875 17.075 22.825 51.225 33.8 68.3 C32.075 68.3 28.625 68.3 26.9 68.3 C15.925 51.225 -6.025 17.075 -17 0 C-15.275 0 -11.825 0 -10.1 0 z" />
<glyph unicode="" horiz-adv-x="50" d="M45.8 48.4 C46.65 48.4 48.35 48.4 49.2 48.4 C49.8 53.9 51.4 59.2 52.9 64.6 C48.7 67.1 43.4 68.2 39 68.2 C25.8 68.2 14.5 56.5 9.7 40.8 C7.96667 40.8 5.8 40.8 4.5 40.8 C4.175 39.775 3.525 37.725 3.2 36.7 C4.55 36.7 7.25 36.7 8.6 36.7 C8 33.7 7.5 30.6 7.4 27.5 C6.2 27.5 4.7 27.5 3.8 27.5 C3.475 26.475 2.825 24.425 2.5 23.4 C3.7 23.4 6.1 23.4 7.3 23.4 C7.5 5.8 14.8 -1.7 27.2 -1.7 C34.2 -1.7 40.8 2.1 46.6 7 C46.86667 8.26667 47.2 9.85 47.4 10.8 C47.175 11.025 46.725 11.475 46.5 11.7 C46.15 11.4 45.45 10.8 45.1 10.5 C40.9 6.9 36.8 4.2 31.8 4.2 C23.4 4.2 19.2 11.1 18.9 23.4 C25.23333 23.4 33.15 23.4 37.9 23.4 C38.2 24.425 38.8 26.475 39.1 27.5 C34.05 27.5 23.95 27.5 18.9 27.5 C18.9 30.5 19.1 33.6 19.5 36.7 C26.93333 36.7 36.225 36.7 41.8 36.7 C42.1 37.725 42.7 39.775 43 40.8 C37.275 40.8 25.825 40.8 20.1 40.8 C22 53 26.7 63.3 35.9 63.3 C38.3 63.3 42.8 62 44.9 59.9 C45.7 59.1 46.2 58.3 46.2 57.2 C46.2 57.13333 46.2 57.05 46.2 57 C46.1 54.85 45.9 50.55 45.8 48.4 z" />
<glyph unicode="" horiz-adv-x="39.5" d="M33.7 11.8 C30.5 8.1 26.9 4.9 22.6 4.9 C17.2 4.9 15.6 8.8 17.9 21.5 C18.4 24.43333 19.025 28.1 19.4 30.3 C28.9 38.7 35.7 46.9 37.7 58.3 C39.1 65.8 36.9 71.5 31 71.5 C27.6 71.5 24 69.6 20.7 66 C16 61 14.1 56.1 11.5 41.3 C10.7 36.86667 9.7 31.325 9.1 28 C7.275 26.75 3.625 24.25 1.8 23 C2 22.325 2.4 20.975 2.6 20.3 C4.075 21.25 7.025 23.15 8.5 24.1 C8.15 22.2 7.45 18.4 7.1 16.5 C5.6 8 6.2 5.2 7.8 2.3 C9.3 0 12.3 -1.5 17.2 -1.5 C24.4 -1.5 30.6 2.7 35.5 10 C34.9 10.6 34.15 11.35 33.7 11.8 zM22.3 46.6 C25.3 63.6 27 68.3 30.1 68.3 C32.7 68.3 33.2 64.4 32.1 58.1 C30.6 49.6 25.8 40.9 20.3 35.4 C20.96667 39.13333 21.8 43.8 22.3 46.6 z" />
<glyph unicode="" horiz-adv-x="100" d="M91.2 61.8 C91.2 61.925 91.2 62.175 91.2 62.3 C91.2 64.5 91.3 65.4 94.2 65.4 C94.83333 65.4 95.625 65.4 96.1 65.4 C96.1 66 96.1 67.2 96.1 67.8 C92.775 67.8 86.125 67.8 82.8 67.8 C79.85 60.825 73.95 46.875 71 39.9 C68.05 46.875 62.15 60.825 59.2 67.8 C55.9 67.8 49.3 67.8 46 67.8 C46 67.2 46 66 46 65.4 C46.375 65.4 47.125 65.4 47.5 65.4 C50 65.4 50.2 64.8 50.2 63.2 C50.2 53.26667 50.2 40.85 50.2 33.4 C50.2 30.2 48.9 30.1 45.2 30 C45.2 29.13333 45.2 28.05 45.2 27.4 C48.475 27.4 55.025 27.4 58.3 27.4 C58.3 28.05 58.3 29.35 58.3 30 C55 30.1 53.3 30.1 53.3 33.2 C53.3 43 53.3 55.25 53.3 62.6 C53.35 62.6 53.45 62.6 53.5 62.6 C57.225 53.8 64.675 36.2 68.4 27.4 C68.65 27.4 69.15 27.4 69.4 27.4 C72.975 36.2 80.125 53.8 83.7 62.6 C83.75 62.6 83.85 62.6 83.9 62.6 C83.9 55.65 83.9 41.75 83.9 34.8 C83.9 30.5 83.3 30.1 78.8 30 C78.8 29.13333 78.8 28.05 78.8 27.4 C83.125 27.4 91.775 27.4 96.1 27.4 C96.1 28.05 96.1 29.35 96.1 30 C91.6 30.3 91.2 30.7 91.2 34.9 C91.2 43.86667 91.2 55.075 91.2 61.8 zM31.8 27.4 C31.8 28.05 31.8 29.35 31.8 30 C26.9 30 25.8 31.6 25.8 33.6 C25.8 43.93333 25.8 56.85 25.8 64.6 C26.9 64.6 29.1 64.6 30.2 64.6 C35.6 64.6 37.4 63 37.5 57.6 C38.5 57.6 39.75 57.6 40.5 57.6 C40.5 60.15 40.5 65.25 40.5 67.8 C31.325 67.8 12.975 67.8 3.8 67.8 C3.8 65.25 3.8 60.15 3.8 57.6 C4.55 57.6 6.05 57.6 6.8 57.6 C6.9 63 8.7 64.6 14.1 64.6 C15.56667 64.6 17.4 64.6 18.5 64.6 C18.5 57.075 18.5 42.025 18.5 34.5 C18.5 31.8 17 30 12.1 30 C12.1 29.13333 12.1 28.05 12.1 27.4 C17.025 27.4 26.875 27.4 31.8 27.4 z" />
<glyph unicode="" horiz-adv-x="65.5" d="M60.8 15 C60.075 15.025 58.625 15.075 57.9 15.1 C54.9 8.9 53.6 8.1 50 8.1 C46.76667 8.1 42.725 8.1 40.3 8.1 C48.5 15.1 59.4 24.6 61.9 38.6 C65.1 57.2 55.9 68.4 40.6 68.4 C25.5 68.4 11.7 56.7 8.4 38 C5.7 22.6 13.7 13.5 18.8 8.1 C15.86667 8.1 12.2 8.1 10 8.1 C6.3 8.1 5 9.1 4.1 15.1 C3.16667 15.06667 2 15.025 1.3 15 C1.175 11.25 0.925 3.75 0.8 0 C6.275 0 17.225 0 22.7 0 C23 0.475 23.6 1.425 23.9 1.9 C21.2 12.1 17.7 24.7 19.9 37.3 C23.6 58.6 31.3 65.1 39.8 65.1 C47.8 65.1 53.7 58 50.1 37.6 C48 24.9 38.8 11.3 33.4 1.8 C33.53333 1.2 33.7 0.45 33.8 0 C39.3 0 50.3 0 55.8 0 C57.05 3.75 59.55 11.25 60.8 15 z" />
<glyph unicode="" horiz-adv-x="91.9" d="M88.6 32.3 C88.6 32.525 88.6 32.975 88.6 33.2 C88.6 52.5 71.3 68.1 49.8 68.1 C28.4 68.1 11 52.5 11 33.2 C11 14 28.4 -1.6 49.8 -1.6 C62.3 -1.6 73.6 3.7 80.5 11.9 C78.63333 11.9 76.3 11.9 74.9 11.9 C68.8 4.9 59.9 0.3 49.9 0.3 C40.6 0.3 32.2 4.4 26.1 10.7 C25.6 11.3 25.3 12 25.3 12.8 C25.3 19.16667 25.3 27.125 25.3 31.9 C25.3 32.2 25.5 32.3 25.8 32.3 C46.73333 32.3 72.9 32.3 88.6 32.3 zM74.4 34.7 C74.4 34.5 74.3 34.1 74 34.1 C57.93333 34.1 37.85 34.1 25.8 34.1 C25.5 34.1 25.3 34.5 25.3 34.7 C25.3 40.96667 25.3 48.8 25.3 53.5 C25.3 54.4 25.6 55.2 26.2 55.8 C32.3 62 40.7 66.1 49.9 66.1 C59.1 66.1 67.3 62.1 73.4 56.2 C74.1 55.5 74.4 54.7 74.4 53.9 C74.4 47.5 74.4 39.5 74.4 34.7 z" />
<glyph unicode="" horiz-adv-x="49.6" d="M27.6 41.3 C21.5 41.3 15.3 38.2 11.2 34 C7.6 30.3 3.9 24.4 2.7 17.6 C0.6 5.5 6.2 -1.5 16.3 -1.5 C25.5 -1.5 33.2 4.6 38.6 13.3 C42.9 20.1 45.9 29.6 47.2 37.2 C48.3 43.4 49 52.7 46.6 60.3 C43.8 69 38.3 74.3 29.3 74.3 C23.7 74.3 19.1 72.5 15.6 70.4 C14.3 68 15.9 63.1 17.5 63.2 C21.2 66 26.3 68.9 31.3 68.9 C36.9 68.9 40.2 65.1 41.2 61.1 C42.4 56.3 41.9 50.9 40.8 46.2 C40 42.4 38.9 38.6 37.9 35.4 C35.8 39.6 31.5 41.3 27.7 41.3 C27.66667 41.3 27.625 41.3 27.6 41.3 zM29.1 37.1 C33.2 37.1 35.7 33.4 36.3 31 C33.9 23.1 31.8 17.8 28.4 12.1 C25.6 7.3 21.3 1.6 17 1.6 C12.3 1.6 10.5 5.9 11.5 11.8 C12.8 18.8 15.6 26.6 19.2 31.6 C22.6 35.9 25.8 37.1 29 37.1 C29.03333 37.1 29.075 37.1 29.1 37.1 z" />
<glyph unicode="" horiz-adv-x="58.9" d="M51.4 0 C51.525 0.75 51.775 2.25 51.9 3 C48.65 19.35 42.15 52.05 38.9 68.4 C37.75 68.1 35.45 67.5 34.3 67.2 C25.6 51.15 8.2 19.05 -0.5 3 C-0.65 2.25 -0.95 0.75 -1.1 0 C12.025 0 38.275 0 51.4 0 zM39.8 5.3 C31.225 5.3 14.075 5.3 5.5 5.3 C11.825 17.15 24.475 40.85 30.8 52.7 C33.05 40.85 37.55 17.15 39.8 5.3 z" />
<glyph unicode="" horiz-adv-x="72" d="M69.6 67.7 C54.675 67.7 24.825 67.7 9.9 67.7 C9.9 66.975 9.9 65.525 9.9 64.8 C17.9 64.1 18.6 63.4 18.6 56.6 C18.6 38.83333 18.6 16.625 18.6 3.3 C18.6 -4 17.8 -4.9 10.2 -5.5 C10.2 -6.46667 10.2 -7.675 10.2 -8.4 C16.475 -8.4 29.025 -8.4 35.3 -8.4 C35.3 -7.675 35.3 -6.225 35.3 -5.5 C28.8 -4.9 28.9 -3.8 28.9 3.3 C28.9 22.53333 28.9 46.575 28.9 61 C28.9 63.7 29.3 64.1 32.1 64.1 C37.2 64.1 43.575 64.1 47.4 64.1 C50.3 64.1 50.9 63.7 50.9 60.7 C50.9 41.56667 50.9 17.65 50.9 3.3 C50.9 -4.4 50.4 -5 43.7 -5.5 C43.7 -6.46667 43.7 -7.675 43.7 -8.4 C50.125 -8.4 62.975 -8.4 69.4 -8.4 C69.4 -7.675 69.4 -6.225 69.4 -5.5 C61.7 -4.9 61 -4 61 3.4 C61 21.13333 61 43.3 61 56.6 C61 63.3 61.6 64.1 69.6 64.8 C69.6 65.76667 69.6 66.975 69.6 67.7 z" />
<glyph unicode="" horiz-adv-x="58.9" d="M56.8 10.3 C56.075 10.5 54.625 10.9 53.9 11.1 C50.1 0.5 48.8 0 40.6 0 C33.3 0 24.175 0 18.7 0 C23.875 8.3 34.225 24.9 39.4 33.2 C35.3 40.925 27.1 56.375 23 64.1 C26.725 64.1 34.175 64.1 37.9 64.1 C44.7 64.1 46.3 63.3 47.7 60.6 C49 58.2 50 55.2 50.8 51.1 C51.8 51.26667 53.05 51.475 53.8 51.6 C53.4 58.1 52.8 65.8 52.7 67.7 C38.66667 67.7 21.125 67.7 10.6 67.7 C10.6 67 10.6 65.6 10.6 64.9 C15.6 55.125 25.6 35.575 30.6 25.8 C25.5 17.775 15.3 1.725 10.2 -6.3 C10.2 -6.975 10.2 -8.325 10.2 -9 C20.8 -9 42 -9 52.6 -9 C53.65 -4.175 55.75 5.475 56.8 10.3 z" />
<glyph unicode="" horiz-adv-x="60.6" d="M5.1 20.4 C17.7 20.4 42.9 20.4 55.5 20.4 C55.5 22.6 55.5 27 55.5 29.2 C42.9 29.2 17.7 29.2 5.1 29.2 C5.1 27 5.1 22.6 5.1 20.4 z" />
<glyph unicode="" horiz-adv-x="16.7" d="M-10.1 0 C0.875 17.075 22.825 51.225 33.8 68.3 C32.075 68.3 28.625 68.3 26.9 68.3 C15.925 51.225 -6.025 17.075 -17 0 C-15.275 0 -11.825 0 -10.1 0 z" />
<glyph unicode="" horiz-adv-x="25" d="M14.1 32.4 C9.2 32.4 6.7 27.8 6.7 23.4 C6.7 19.6 9.6 17.2 13.3 17.2 C18.3 17.2 20.6 21.9 20.6 26.3 C20.6 30.3 17.9 32.4 14.1 32.4 z" />
<glyph unicode="" horiz-adv-x="59.4" d="M58.2 85.4 C57.125 85.625 54.975 86.075 53.9 86.3 C50.725 65.55 44.375 24.05 41.2 3.3 C41.125 3.3 40.975 3.3 40.9 3.3 C37.4 13.275 30.4 33.225 26.9 43.2 C22.9 41.425 14.9 37.875 10.9 36.1 C11.2 35.225 11.8 33.475 12.1 32.6 C14.125 33.5 18.175 35.3 20.2 36.2 C25.1 22.95 34.9 -3.55 39.8 -16.8 C40.375 -16.525 41.525 -15.975 42.1 -15.7 C46.125 9.575 54.175 60.125 58.2 85.4 z" />
<glyph unicode="" horiz-adv-x="74" d="M69.8 27.9 C69.8 37 63.6 43 55.7 43 C47.6 43 43 37.2 39.1 32.8 C34.4 38.8 29.4 43 22.7 43 C14.1 43 7.6 36.6 7.6 27.4 C7.6 18.4 14.4 12.1 21.9 12.1 C29.3 12.1 34.1 16.7 38.9 22.5 C45 14.6 49.8 12.1 55.2 12.1 C62.6 12.1 69.8 18 69.8 27.8 C69.8 27.83333 69.8 27.875 69.8 27.9 zM22.7 18.2 C17.7 18.2 13.9 22.3 13.9 27.3 C13.9 32.8 17 37 22.4 37 C28.3 37 31.7 32.2 35.5 27.1 C31.9 22.9 28 18.2 22.8 18.2 C22.76667 18.2 22.725 18.2 22.7 18.2 zM55.1 37 C60.1 37 63.5 33.1 63.5 27.4 C63.5 23.2 60.6 18.2 55.4 18.2 C50.7 18.2 47.8 20.9 42.2 27.7 C45.2 31 49.4 37 55 37 C55.03333 37 55.075 37 55.1 37 z" />
<glyph unicode="" horiz-adv-x="44.3" d="M22.9 0 C23.3 -9 22.3 -14.8 19.7 -14.8 C17.7 -14.8 17.8 -9 14.8 -9 C11.9 -9 9 -11.2 9.1 -14.4 C9.1 -17.2 11.8 -19.6 15.5 -19.6 C25 -19.6 33.4 -8.8 31.7 25.3 C31.1 37.33333 30.35 52.375 29.9 61.4 C29.3 73.8 31.1 76.5 33 76.5 C35.1 76.5 34.6 71.2 38.1 71.2 C40.6 71.2 43.2 72.8 43.2 76.2 C43.2 79.6 39.5 81.3 36.7 81.3 C28.8 81.3 19.2 74.3 20.9 39.3 C21.56667 26.2 22.4 9.825 22.9 0 z" />
<glyph unicode="" horiz-adv-x="52" d="M44.5 42.6 C42.1 38.6 39.9 35.9 36.6 35.9 C34 35.9 32.1 37.2 29 39.1 C26.8 40.4 23.8 42.5 19.5 42.5 C14 42.5 9.1 38.5 6.5 33.1 C7.9 31.93333 9.65 30.475 10.7 29.6 C12.8 33 15 36.2 19 36.2 C21.8 36.2 24 34.8 26.6 33.1 C30.4 30.7 33 29.5 36.5 29.5 C41.7 29.5 46 33.7 48.6 39 C47.23333 40.2 45.525 41.7 44.5 42.6 zM44.5 25.8 C42 21.8 40 19.1 36.5 19.1 C33.8 19.1 31.7 20.7 29 22.4 C26.8 23.6 24 25.7 19.5 25.7 C14 25.7 9.1 21.7 6.5 16.3 C7.9 15.13333 9.65 13.675 10.7 12.8 C12.8 16.1 14.9 19.5 19 19.5 C21.7 19.5 23.9 18.1 26.6 16.3 C30.4 14 32.9 12.7 36.5 12.7 C41.8 12.7 46 16.9 48.6 22.2 C47.23333 23.4 45.525 24.9 44.5 25.8 z" />
<glyph unicode="" horiz-adv-x="53.4" d="M40.4 48.2 C39.15 48.7 36.65 49.7 35.4 50.2 C34.3 47.675 32.1 42.625 31 40.1 C25.475 40.1 14.425 40.1 8.9 40.1 C8.9 38.475 8.9 35.225 8.9 33.6 C13.825 33.6 23.675 33.6 28.6 33.6 C27.3 30.475 24.7 24.225 23.4 21.1 C19.775 21.1 12.525 21.1 8.9 21.1 C8.9 19.475 8.9 16.225 8.9 14.6 C11.9 14.6 17.9 14.6 20.9 14.6 C20.025 12.55 18.275 8.45 17.4 6.4 C18.65 5.9 21.15 4.9 22.4 4.4 C23.5 6.95 25.7 12.05 26.8 14.6 C32.375 14.6 43.525 14.6 49.1 14.6 C49.1 16.225 49.1 19.475 49.1 21.1 C44.125 21.1 34.175 21.1 29.2 21.1 C30.55 24.225 33.25 30.475 34.6 33.6 C38.225 33.6 45.475 33.6 49.1 33.6 C49.1 35.225 49.1 38.475 49.1 40.1 C46.05 40.1 39.95 40.1 36.9 40.1 C37.775 42.125 39.525 46.175 40.4 48.2 z" />
<glyph unicode="" horiz-adv-x="54.7" d="M50.2 9.9 C50.2 11.825 50.2 15.675 50.2 17.6 C41.925 21.7 25.375 29.9 17.1 34 C17.1 34.05 17.1 34.15 17.1 34.2 C25.375 38.275 41.925 46.425 50.2 50.5 C50.2 52.4 50.2 56.2 50.2 58.1 C40.35 52.95 20.65 42.65 10.8 37.5 C10.8 35.775 10.8 32.325 10.8 30.6 C20.65 25.425 40.35 15.075 50.2 9.9 zM50.6 -0.2 C50.6 1.45 50.6 4.75 50.6 6.4 C40.55 6.4 20.45 6.4 10.4 6.4 C10.4 4.75 10.4 1.45 10.4 -0.2 C20.45 -0.2 40.55 -0.2 50.6 -0.2 z" />
<glyph unicode="" horiz-adv-x="54.7" d="M11 58.1 C11 56.2 11 52.4 11 50.5 C19.25 46.425 35.75 38.275 44 34.2 C44 34.15 44 34.05 44 34 C35.725 29.9 19.175 21.7 10.9 17.6 C10.9 15.675 10.9 11.825 10.9 9.9 C20.775 15.075 40.525 25.425 50.4 30.6 C50.4 32.325 50.4 35.775 50.4 37.5 C40.55 42.65 20.85 52.95 11 58.1 zM50.5 -0.2 C50.5 1.45 50.5 4.75 50.5 6.4 C40.5 6.4 20.5 6.4 10.5 6.4 C10.5 4.75 10.5 1.45 10.5 -0.2 C20.5 -0.2 40.5 -0.2 50.5 -0.2 z" />
<glyph unicode="" horiz-adv-x="59.7" d="M55.3 32.6 C50.925 42.475 42.175 62.225 37.8 72.1 C35.85 72.1 31.95 72.1 30 72.1 C25.575 62.225 16.725 42.475 12.3 32.6 C16.675 22.825 25.425 3.275 29.8 -6.5 C31.775 -6.5 35.725 -6.5 37.7 -6.5 C42.1 3.275 50.9 22.825 55.3 32.6 zM48 32.6 C44.5 24.475 37.5 8.225 34 0.1 C33.925 0.1 33.775 0.1 33.7 0.1 C30.15 8.25 23.05 24.55 19.5 32.7 C23.05 40.8 30.15 57 33.7 65.1 C33.775 65.1 33.925 65.1 34 65.1 C37.5 56.975 44.5 40.725 48 32.6 z" />
</font>
</svg>
