<?xml version="1.0" standalone="no"?>
<svg>
<font id="PalatinoLTStd-Bold" horiz-adv-x="25" >
<font-face units-per-em="100" ascent="80" descent="-20" />
<glyph unicode=" " horiz-adv-x="25" d="" />
<glyph unicode="!" horiz-adv-x="27.8" d="M14.1 14.4 C10 14.4 6.3 10.6 6.3 6.4 C6.3 2.2 10 -1.2 14.1 -1.2 C18.3 -1.2 21.9 2.6 21.9 6.4 C21.9 10.7 18.2 14.4 14.1 14.4 zM16.8 68.8 C14.3 67.7 9.3 65.5 6.8 64.4 C6.9 61.5 6.9 59.1 7.2 56.5 C8.76667 44.56667 10.725 29.65 11.9 20.7 C12.025 20.5 12.275 20.1 12.4 19.9 C13.35 20.425 15.25 21.475 16.2 22 C17.45 31.3 19.95 49.9 21.2 59.2 C21.6 62 21.9 65.2 21.9 68.8 C20.2 68.8 18.075 68.8 16.8 68.8 z" />
<glyph unicode="&#x22;" horiz-adv-x="40.2" d="M11.3 37.6 C12.4 43.575 14.6 55.525 15.7 61.5 C15.8 61.8 15.8 62.1 15.8 62.5 C15.8 65.8 12.6 69.5 9 69.5 C5.4 69.5 2.2 65.8 2.2 62.5 C2.2 62.1 2.2 61.8 2.3 61.5 C3.76667 53.53333 5.6 43.575 6.7 37.6 C7.85 37.6 10.15 37.6 11.3 37.6 zM33.5 37.6 C34.6 43.575 36.8 55.525 37.9 61.5 C38 61.8 38 62.1 38 62.5 C38 65.8 34.8 69.5 31.2 69.5 C27.6 69.5 24.4 65.8 24.4 62.5 C24.4 62.1 24.4 61.8 24.5 61.5 C25.96667 53.53333 27.8 43.575 28.9 37.6 C30.05 37.6 32.35 37.6 33.5 37.6 z" />
<glyph unicode="#" horiz-adv-x="50" d="M47 29 C44.65 29 39.95 29 37.6 29 C38 31.675 38.8 37.025 39.2 39.7 C41.8 39.7 47 39.7 49.6 39.7 C49.6 41.575 49.6 45.325 49.6 47.2 C47.275 47.2 42.625 47.2 40.3 47.2 C41.025 52.225 42.475 62.275 43.2 67.3 C41.325 67.3 37.575 67.3 35.7 67.3 C34.975 62.275 33.525 52.225 32.8 47.2 C30.125 47.2 24.775 47.2 22.1 47.2 C22.85 52.225 24.35 62.275 25.1 67.3 C23.225 67.3 19.475 67.3 17.6 67.3 C16.85 62.275 15.35 52.225 14.6 47.2 C11.75 47.2 6.05 47.2 3.2 47.2 C3.2 45.325 3.2 41.575 3.2 39.7 C5.775 39.7 10.925 39.7 13.5 39.7 C13.1 37.025 12.3 31.675 11.9 29 C9.025 29 3.275 29 0.4 29 C0.4 27.125 0.4 23.375 0.4 21.5 C2.975 21.5 8.125 21.5 10.7 21.5 C9.9 16.125 8.3 5.375 7.5 0 C9.375 0 13.125 0 15 0 C15.8 5.375 17.4 16.125 18.2 21.5 C20.9 21.5 26.3 21.5 29 21.5 C28.2 16.125 26.6 5.375 25.8 0 C27.675 0 31.425 0 33.3 0 C34.1 5.375 35.7 16.125 36.5 21.5 C39.125 21.5 44.375 21.5 47 21.5 C47 23.375 47 27.125 47 29 zM31.7 39.7 C31.3 37.025 30.5 31.675 30.1 29 C27.425 29 22.075 29 19.4 29 C19.8 31.675 20.6 37.025 21 39.7 C23.675 39.7 29.025 39.7 31.7 39.7 z" />
<glyph unicode="$" horiz-adv-x="50" d="M22.1 3.7 C16.6 3.7 10.4 7.2 9.1 9.3 C8.3 10.6 8 12.3 8 14.1 C7.96667 15.43333 7.925 17.1 7.9 18.1 C6.9 18.1 4.9 18.1 3.9 18.1 C3.7 11.4 3.5 7.7 3 3.2 C3.1 2.9 3.225 2.525 3.3 2.3 C8.8 -0.4 15.6 -1.5 22.1 -1.7 C22 -4.93333 21.875 -8.975 21.8 -11.4 C23.075 -11.4 25.625 -11.4 26.9 -11.4 C26.85 -8.875 26.75 -3.825 26.7 -1.3 C38.9 -0.2 47.2 9.2 47.2 21.4 C47.2 34.7 38.5 38.2 26.7 40.2 C26.7 47.26667 26.7 56.1 26.7 61.4 C30.8 61.4 36.7 58.8 37.4 56.8 C37.9 55.5 38.1 53.1 38.1 50.4 C38.1 49.86667 38.1 49.2 38.1 48.8 C39.075 48.8 41.025 48.8 42 48.8 C42 53.7 42.3 58.9 43.4 62.8 C43.33333 63.03333 43.25 63.325 43.2 63.5 C38.2 65.8 32.3 66.8 26.7 66.8 C26.76667 68.56667 26.85 70.775 26.9 72.1 C25.65 72.1 23.15 72.1 21.9 72.1 C21.95 70.775 22.05 68.125 22.1 66.8 C9.7 64.5 2.8 57.8 2.8 46.1 C2.8 33 10.1 29.1 22.1 27.7 C22.1 19.7 22.1 9.7 22.1 3.7 zM26.7 26.7 C32.8 26 36.5 22.1 36.5 16 C36.5 10.1 32.4 5.3 26.7 4 C26.7 11.56667 26.7 21.025 26.7 26.7 zM22.1 40.8 C16.7 41.4 13 45 13 50.4 C13 57.5 18.4 61.4 22.1 61.4 C22.1 54.53333 22.1 45.95 22.1 40.8 z" />
<glyph unicode="%" horiz-adv-x="88.9" d="M22.4 70 C12.9 70 6.1 63.2 6.1 53.4 C6.1 43.7 13.8 37.2 22.4 37.2 C31 37.2 38.7 43.7 38.7 53.4 C38.7 63.2 31.9 70 22.4 70 zM22.4 66.8 C24.9 66.8 28.7 65.4 28.7 53.9 C28.7 43 26 40.4 22.4 40.4 C18.8 40.4 16.1 43 16.1 53.9 C16.1 65.4 19.9 66.8 22.4 66.8 zM66.5 32.8 C57 32.8 50.2 26 50.2 16.2 C50.2 6.5 57.9 0 66.5 0 C75.1 0 82.8 6.5 82.8 16.2 C82.8 26 76 32.8 66.5 32.8 zM66.5 29.6 C69 29.6 72.8 28.2 72.8 16.7 C72.8 5.8 70.1 3.2 66.5 3.2 C62.9 3.2 60.2 5.8 60.2 16.7 C60.2 28.2 64 29.6 66.5 29.6 zM28.3 -0.9 C37.45 17.175 55.75 53.325 64.9 71.4 C63.675 71.4 61.225 71.4 60 71.4 C50.85 53.325 32.55 17.175 23.4 -0.9 C24.625 -0.9 27.075 -0.9 28.3 -0.9 z" />
<glyph unicode="&#x26;" horiz-adv-x="83.3" d="M35 5.3 C25.6 5.3 17.1 13.6 17.1 23.1 C17.1 27.6 18.5 30.2 22.2 33.6 C28.4 23.5 35.2 15.9 44.1 8.3 C41.5 6.3 38.2 5.3 35 5.3 zM33.2 62.2 C37 62.2 39 59.1 39 55.6 C39 49.9 34.3 45.4 29.9 42.6 C28.3 46.2 26.5 50.2 26.5 54.2 C26.5 58.7 28.2 62.2 33.2 62.2 zM53.7 32.8 C55 30.3 55.7 27.3 55.7 24.8 C55.7 21.6 54.2 18.3 52.5 15.8 C44.5 22.3 37.6 29.9 31.9 38.5 C38.7 42.9 47.7 48.7 47.7 57.8 C47.7 64.4 43.1 68.4 36.7 68.4 C33.2 68.4 28.8 67.6 26 64.6 C24.83333 63.33333 23.375 61.75 22.5 60.8 C18 56 17.4 53.4 17.4 50.4 C17.4 46.3 18.6 42.3 20.7 37.3 C12.4 33.2 5.2 27.8 5.2 17.7 C5.2 4.7 16.5 -1.7 28.4 -1.7 C35.6 -1.7 42.7 0.8 48.3 5.3 C52.9 1.5 58.7 -1.2 64.5 -1.2 C64.8 -1.2 65.175 -1.2 65.4 -1.2 C67.05 -1.125 70.35 -0.975 72 -0.9 C74 2.2 77.8 6.1 81.3 9 C80.83333 10.06667 80.25 11.4 79.9 12.2 C79.475 11.925 78.625 11.375 78.2 11.1 C76 9.7 74.6 8.4 72 8.4 C66.8 8.4 61 10.4 56.8 13.3 C61.1 18.6 63.3 23.8 63.3 28.9 C63.3 30.1 63.2 31.2 63 32.3 C66.5 32.3 72.4 32.1 77.1 31.6 C77.4 33.8 78.3 36.8 79.1 38.6 C79 38.9 78.875 39.275 78.8 39.5 C73 39.1 68.6 38.9 64.1 38.9 C62.6 38.9 61 38.9 59.4 39 C55.46667 39.13333 50.55 39.3 47.6 39.4 C47.2 37.4 45.6 34.5 44.7 32.8 C47.7 32.8 51.45 32.8 53.7 32.8 z" />
<glyph unicode="'" horiz-adv-x="22.7" d="M13.6 37.6 C14.7 43.575 16.9 55.525 18 61.5 C18.1 61.8 18.1 62.1 18.1 62.5 C18.1 65.8 14.9 69.5 11.3 69.5 C7.7 69.5 4.5 65.8 4.5 62.5 C4.5 62.1 4.5 61.8 4.6 61.5 C6.06667 53.53333 7.9 43.575 9 37.6 C10.15 37.6 12.45 37.6 13.6 37.6 z" />
<glyph unicode="(" horiz-adv-x="33.3" d="M27.9 72.3 C13.6 61.7 6.5 48.5 6.5 30.6 C6.5 12.9 13.8 -0.4 28.1 -10.4 C28.9 -9.6 29.9 -8.6 30.5 -8 C20.4 3.6 19.8 16.1 19.8 29.9 C19.8 44.3 20.4 58.9 30.5 70.1 C29.63333 70.83333 28.55 71.75 27.9 72.3 z" />
<glyph unicode=")" horiz-adv-x="33.3" d="M2.8 70.1 C12.9 58.9 13.5 44.3 13.5 29.9 C13.5 16.1 12.9 3.6 2.8 -8 C3.6 -8.8 4.6 -9.8 5.2 -10.4 C19.5 -0.4 26.8 12.9 26.8 30.6 C26.8 48.5 19.7 61.7 5.4 72.3 C4.53333 71.56667 3.45 70.65 2.8 70.1 z" />
<glyph unicode="*" horiz-adv-x="44.4" d="M31.9 67.3 C28.7 67.7 25.7 68.4 22.7 69.5 C22.43333 69.26667 22.1 68.975 21.9 68.8 C21.9 68.5 21.9 67.9 21.9 67.6 C21.9 63.8 21.5 59.1 20.6 54.6 C16.7 58.5 13.6 62.3 10.4 66 C9.86667 66 9.2 66 8.8 66 C7.8 63.8 6 60.8 4.4 58.3 C4.5 58.06667 4.625 57.775 4.7 57.6 C8.4 56.6 14.6 54.4 18.5 51.7 C14.4 49.6 9 47.4 4.8 46.4 C4.66667 46.16667 4.5 45.875 4.4 45.7 C5.6 44.4 7.4 41.4 8.3 38.7 C8.93333 38.43333 9.725 38.1 10.2 37.9 C12.8 41.6 17.4 46.4 20.3 48.4 C21.2 43 21.4 37.8 21.4 33.9 C21.9 33.66667 22.525 33.375 22.9 33.2 C25 34.4 29 36.2 31.4 36.6 C31.46667 37 31.55 37.5 31.6 37.8 C28 41.8 26 45.8 23.6 49.6 C28.4 49.2 34.2 48.2 39 46.2 C39.3 46.56667 39.675 47.025 39.9 47.3 C39.2 49.6 38.8 52 38.8 54.2 C38.8 54.8 38.8 55.4 38.9 56 C38.7 56.1 38.45 56.225 38.3 56.3 C35.6 55.2 29 54.2 24.2 53.2 C26.4 57.8 29.8 63.4 32.4 65.9 C32.23333 66.36667 32.025 66.95 31.9 67.3 z" />
<glyph unicode="+" horiz-adv-x="60.6" d="M26 29.8 C20.775 29.8 10.325 29.8 5.1 29.8 C5.1 27.65 5.1 23.35 5.1 21.2 C10.325 21.2 20.775 21.2 26 21.2 C26 15.9 26 5.3 26 0 C28.15 0 32.45 0 34.6 0 C34.6 5.3 34.6 15.9 34.6 21.2 C39.825 21.2 50.275 21.2 55.5 21.2 C55.5 23.35 55.5 27.65 55.5 29.8 C50.275 29.8 39.825 29.8 34.6 29.8 C34.6 34.975 34.6 45.325 34.6 50.5 C32.45 50.5 28.15 50.5 26 50.5 C26 45.325 26 34.975 26 29.8 z" />
<glyph unicode="," horiz-adv-x="25" d="M8 -13.6 C13.7 -4.5 18.7 3.7 22.7 12.5 C22.13333 13.03333 21.425 13.7 21 14.1 C16.4 12.6 11.2 11.2 7.6 10.3 C7.2 5 4 -6.2 -0.6 -15.3 C-0.1 -15.73333 0.525 -16.275 0.9 -16.6 C2.675 -15.85 6.225 -14.35 8 -13.6 z" />
<glyph unicode="-" horiz-adv-x="33.3" d="M5 30.5 C4.4 28 2.8 24 1.6 20.3 C1.86667 20.03333 2.2 19.7 2.4 19.5 C8.925 19.5 21.975 19.5 28.5 19.5 C29 22.7 30.6 27 31.7 29.5 C31.4 29.83333 31.025 30.25 30.8 30.5 C24.35 30.5 11.45 30.5 5 30.5 z" />
<glyph unicode="." horiz-adv-x="25" d="M12.5 14.4 C8.4 14.4 4.7 10.6 4.7 6.4 C4.7 2.2 8.4 -1.2 12.5 -1.2 C16.7 -1.2 20.3 2.6 20.3 6.4 C20.3 10.7 16.6 14.4 12.5 14.4 z" />
<glyph unicode="/" horiz-adv-x="29.6" d="M21.5 72 C15.9 53.575 4.7 16.725 -0.9 -1.7 C1.35 -1.7 5.85 -1.7 8.1 -1.7 C13.7 16.725 24.9 53.575 30.5 72 C28.25 72 23.75 72 21.5 72 z" />
<glyph unicode="0" horiz-adv-x="50" d="M26.2 66 C6.2 66 3.3 47.2 3.3 31.2 C3.3 16.2 4.8 -1.7 24.3 -1.7 C45 -1.7 46.8 19.5 46.8 35.3 C46.8 49.9 44.5 66 26.2 66 zM24.4 61 C31.8 61 33 51.1 33.7 45.5 C34.5 38.8 34.8 31.8 34.8 25 C34.8 13.6 32.5 3.3 25.7 3.3 C18.4 3.3 17.1 12.1 16.4 17.5 C15.5 24.1 15.3 30.8 15.3 37.4 C15.3 38.36667 15.3 39.575 15.3 40.3 C15.3 48 15.8 61 24.4 61 z" />
<glyph unicode="1" horiz-adv-x="50" d="M18.9 56.4 C19.1 56.5 19.3 56.5 19.4 56.5 C20.3 56.5 20.4 55 20.4 53.4 C20.4 38.4 20.4 19.65 20.4 8.4 C20.4 5 17.9 3.9 14.7 3.7 C12.3 3.6 9.3 3.475 7.5 3.4 C7.5 2.475 7.5 0.625 7.5 -0.3 C19.2 -0.2 23.5 0 27.8 0 C32.2 0 36.4 -0.2 45.5 -0.3 C45.5 0.93333 45.5 2.475 45.5 3.4 C43.95 3.475 40.85 3.625 39.3 3.7 C36.1 3.9 33.6 5 33.6 8.4 C33.6 19.13333 33.6 32.55 33.6 40.6 C33.6 52.6 34.3 61.2 34.6 66 C34.2 66.33333 33.7 66.75 33.4 67 C24.8 63.6 10.8 58.6 3.5 56.9 C3.5 56.7 3.5 56.45 3.5 56.3 C3.5 54.4 3.9 52.3 4.9 49.9 C9.56667 52.06667 15.4 54.775 18.9 56.4 z" />
<glyph unicode="2" horiz-adv-x="50" d="M2.5 -0.3 C12 -0.2 19.1 0 24.8 0 C30.4 0 37.4 -0.2 47.1 -0.3 C47 1.3 46.9 3.1 46.9 5 C46.9 7.1 47 9.3 47.2 11.2 C47.06667 11.36667 46.9 11.575 46.8 11.7 C39.25 11.425 24.15 10.875 16.6 10.6 C16.55 10.8 16.45 11.2 16.4 11.4 C20.75 15.675 29.45 24.225 33.8 28.5 C38.8 33.5 44.1 41 44.1 48.3 C44.1 59.4 35 66 22.4 66 C16.9 66 11.5 63.9 6.7 60 C6.1 54.5 5.35 47.625 4.9 43.5 C5.825 43.425 7.675 43.275 8.6 43.2 C9.05 44.9 9.95 48.3 10.4 50 C11.2 53.1 16 55.5 19.8 55.5 C27.1 55.5 30.9 51.1 30.9 43.9 C30.9 35.3 25.1 27.2 19.2 21.4 C13.63333 15.86667 6.675 8.95 2.5 4.8 C2.5 3.525 2.5 0.975 2.5 -0.3 z" />
<glyph unicode="3" horiz-adv-x="50" d="M2.2 15.6 C3 11.2 4.2 5.4 4.7 0.7 C8.8 -1.2 13.3 -1.7 17.8 -1.7 C24.5 -1.7 31.5 0.7 36.7 4.9 C42.5 9.6 45.8 15 45.8 22.6 C45.8 31.6 39.5 36.7 30.9 37.3 C30.9 37.36667 30.9 37.45 30.9 37.5 C36.7 40.2 41.8 45.1 41.8 52 C41.8 60.2 34.2 66 23.5 66 C18.3 66 13.3 64.5 8.4 61.5 C7.36667 56.36667 6.075 49.95 5.3 46.1 C6.175 46.1 7.925 46.1 8.8 46.1 C9.8 50.6 12.9 56.2 20.5 56.2 C26.9 56.2 30.7 52.6 30.7 47.5 C30.7 40.2 25.7 36.7 19.4 36.7 C18.23333 36.7 16.775 36.7 15.9 36.7 C15.425 34.85 14.475 31.15 14 29.3 C14.175 29.175 14.525 28.925 14.7 28.8 C16.7 29.4 18.8 29.6 20.9 29.6 C28.5 29.6 33.4 24.7 33.4 17.1 C33.4 10.8 29.2 3.9 21.6 3.9 C13 3.9 8.7 9.1 5.6 16.5 C4.46667 16.2 3.05 15.825 2.2 15.6 z" />
<glyph unicode="4" horiz-adv-x="50" d="M8.2 24.7 C9.7 27.8 11 31 12.6 34 C14.66667 37.86667 17.25 42.7 18.8 45.6 C21 49.8 23.8 53.6 26.1 57.6 C26.16667 57.6 26.25 57.6 26.3 57.6 C26.3 49.375 26.3 32.925 26.3 24.7 C21.775 24.7 12.725 24.7 8.2 24.7 zM1.9 16.5 C8 16.5 20.2 16.5 26.3 16.5 C26.3 15.15 26.3 12.45 26.3 11.1 C26.3 6 23.8 3.8 20.6 3.7 C18.46667 3.6 15.8 3.475 14.2 3.4 C14.2 2.475 14.2 0.625 14.2 -0.3 C23.6 -0.2 27.9 0 32.2 0 C36.6 0 40.8 -0.2 47.3 -0.3 C47.3 0.93333 47.3 2.475 47.3 3.4 C46.4 3.475 44.6 3.625 43.7 3.7 C40.5 3.8 38 6 38 11.1 C38 12.9 38 15.15 38 16.5 C40.225 16.5 44.675 16.5 46.9 16.5 C46.9 18.5 46.9 22.5 46.9 24.5 C46.875 24.55 46.825 24.65 46.8 24.7 C44.6 24.7 40.2 24.7 38 24.7 C38 27.825 38 34.075 38 37.2 C38 46.8 38.3 56.4 38.6 66 C38.36667 66.4 38.075 66.9 37.9 67.2 C34.85 66.525 28.75 65.175 25.7 64.5 C15.6 49.8 7 35.1 1.2 20.4 C1.43333 19.1 1.725 17.475 1.9 16.5 z" />
<glyph unicode="5" horiz-adv-x="50" d="M14.9 53.9 C19.7 54 24.5 54.2 29.3 54.2 C34.1 54.2 38.8 54 43.6 53.9 C43.8 54.26667 44.05 54.725 44.2 55 C44.1 56.2 44.1 57.4 44.1 58.5 C44.1 60.8 44.3 62.9 44.8 64.8 C44.66667 65.06667 44.5 65.4 44.4 65.6 C38.5 65.4 32.6 65 26.7 65 C20.8 65 14.8 65.4 9.7 65.6 C9.46667 65.33333 9.175 65 9 64.8 C9.2 62 9.6 55.5 9.6 51.2 C9.6 47.8 9.6 43.55 9.6 41 C9.6 36.9 9.2 32.7 9 28.6 C9.63333 28.23333 10.425 27.775 10.9 27.5 C13.6 30 17.6 31.5 22.3 31.5 C30.7 31.5 35.4 25.6 35.4 17.5 C35.4 9.3 30.5 4.1 22.2 4.1 C15.4 4.1 9.5 9.6 7.2 15.7 C6.2 15.1 4.95 14.35 4.2 13.9 C5.4 9 6.6 4.2 7.3 0.5 C10.4 -1 14.4 -1.7 19.1 -1.7 C26 -1.7 33.2 0.9 38.5 5.4 C44.3 10.3 47.2 16.5 47.2 24.1 C47.2 35.7 38.4 41.8 27.5 41.8 C22.5 41.8 19 40.5 14.5 38.4 C14.63333 43.56667 14.8 50.025 14.9 53.9 z" />
<glyph unicode="6" horiz-adv-x="50" d="M39.6 66 C31.3 66 25.2 64.1 18.6 59 C8.5 51.2 3.7 40.1 3.7 27.4 C3.7 9.8 9.9 -1.7 25.4 -1.7 C39.3 -1.7 46.9 9.3 46.9 22.3 C46.9 31.9 42.2 40.9 31.5 40.9 C24.5 40.9 20.3 37.2 17 32.9 C16.93333 32.96667 16.85 33.05 16.8 33.1 C17.2 38.6 18.3 46.1 21.3 51.1 C25.8 58.6 33 61.8 39.9 61.8 C40.6 61.8 41.3 61.8 42 61.7 C42.5 62.23333 43.125 62.9 43.5 63.3 C42.525 63.975 40.575 65.325 39.6 66 zM25.6 32.3 C33.1 32.3 35.1 22.7 35.1 17 C35.1 11.3 33.5 3.3 26.3 3.3 C19.3 3.3 16.5 11.4 16.5 20.2 C16.5 29 20.1 32.3 25.6 32.3 z" />
<glyph unicode="7" horiz-adv-x="50" d="M40 43.6 C43.1 50.1 46.6 56.6 49.3 60.8 C49.3 62.3 49.3 64.175 49.3 65.3 C44.6 65.2 39.9 65 35.2 65 C25.3 65 15.5 65.4 5.6 65.6 C5.26667 65.33333 4.85 65 4.6 64.8 C4.9 60 5 54.8 5 49.5 C5 46.8 4.9 44.2 4.9 41.6 C6.2 41.6 7.825 41.6 8.8 41.6 C9 43.2 9.4 46.4 9.6 48 C10.1 52.2 11 53.2 15.9 53.2 C23.4 53.2 32.775 53.2 38.4 53.2 C38.5 53.05 38.7 52.75 38.8 52.6 C31.3 39.65 16.3 13.75 8.8 0.8 C8.95 0.525 9.25 -0.025 9.4 -0.3 C11.3 -0.2 13 0 14.6 0 C16.5 0 18.5 -0.2 20.4 -0.3 C22 4.8 26.6 16.2 29 21.2 C32.66667 28.66667 37.25 38 40 43.6 z" />
<glyph unicode="8" horiz-adv-x="50" d="M25.3 27.5 C31 25 35.7 21.9 35.7 14.9 C35.7 8.8 31.3 3.5 25 3.5 C17.5 3.5 12.3 9.5 12.3 16.8 C12.3 22.9 14.7 26.4 19.2 30.2 C21.23333 29.3 23.775 28.175 25.3 27.5 zM25 41.2 C20.3 43.2 15.4 45.9 15.4 51.9 C15.4 57.6 19.5 60.8 25 60.8 C31.5 60.8 35.3 56.2 35.3 49.9 C35.3 45.9 33.3 42.4 29.4 39.3 C27.93333 39.93333 26.1 40.725 25 41.2 zM26.3 66 C12.7 66 5.1 58.4 5.1 47.4 C5.1 40.2 8.9 35.3 15.1 32 C8.7 29.2 3.4 23.1 3.4 15.8 C3.4 7.2 9.5 -1.7 23.5 -1.7 C36.3 -1.7 46.7 7.3 46.7 20.4 C46.7 30.6 39.7 35.7 34.3 37.6 C39.9 41.2 43.7 45.6 43.7 51.3 C43.7 61.5 35.5 66 26.3 66 z" />
<glyph unicode="9" horiz-adv-x="50" d="M10.5 -1.7 C13 -1.6 15.7 -1.5 18.2 -0.9 C37 3.6 46.3 20.5 46.3 38.9 C46.3 53.5 41.2 66 24.5 66 C11.8 66 3.1 57.4 3.1 42.6 C3.1 32.3 7.7 23.6 19.1 23.6 C22.2 23.6 24.4 23.9 26.8 26 C28.9 27.83333 31.525 30.125 33.1 31.5 C32.6 25.5 31.7 19.1 28.7 13.7 C27.2 10.9 24.9 8.1 22.3 6.4 C17.5 3.6 13.5 2.7 10.4 2.7 C9.4 2.7 8.4 2.8 7.6 3 C7.3 2.4 6.925 1.65 6.7 1.2 C7.65 0.475 9.55 -0.975 10.5 -1.7 zM25 32.3 C16.9 32.3 14.9 41.1 14.9 47.7 C14.9 53.7 16.9 60.8 24.2 60.8 C32.5 60.8 33.6 50.2 33.6 44 C33.6 38.1 32.1 32.3 25 32.3 z" />
<glyph unicode=":" horiz-adv-x="25" d="M12.5 14.4 C8.4 14.4 4.7 10.6 4.7 6.4 C4.7 2.2 8.4 -1.2 12.5 -1.2 C16.7 -1.2 20.3 2.6 20.3 6.4 C20.3 10.7 16.6 14.4 12.5 14.4 zM12.5 45.4 C8.4 45.4 4.7 41.6 4.7 37.4 C4.7 33.2 8.4 29.8 12.5 29.8 C16.7 29.8 20.3 33.6 20.3 37.4 C20.3 41.7 16.6 45.4 12.5 45.4 z" />
<glyph unicode=";" horiz-adv-x="25" d="M8 -13.6 C13.7 -4.5 18.7 3.7 22.7 12.5 C22.13333 13.03333 21.425 13.7 21 14.1 C16.4 12.6 11.2 11.2 7.6 10.3 C7.2 5 4 -6.2 -0.6 -15.3 C-0.1 -15.73333 0.525 -16.275 0.9 -16.6 C2.675 -15.85 6.225 -14.35 8 -13.6 zM14.8 45.4 C10.7 45.4 7 41.6 7 37.4 C7 33.2 10.7 29.8 14.8 29.8 C19 29.8 22.6 33.6 22.6 37.4 C22.6 41.7 18.9 45.4 14.8 45.4 z" />
<glyph unicode="&#x3c;" horiz-adv-x="60.6" d="M16 25.2 C25.95 29.775 45.85 38.925 55.8 43.5 C55.8 45.6 55.8 49.8 55.8 51.9 C43.075 46.15 17.625 34.65 4.9 28.9 C4.9 27.05 4.9 23.35 4.9 21.5 C17.625 15.75 43.075 4.25 55.8 -1.5 C55.8 0.6 55.8 4.8 55.8 6.9 C45.85 11.475 25.95 20.625 16 25.2 z" />
<glyph unicode="=" horiz-adv-x="60.6" d="M55.5 39.6 C42.9 39.6 17.7 39.6 5.1 39.6 C5.1 37.45 5.1 33.15 5.1 31 C17.7 31 42.9 31 55.5 31 C55.5 33.15 55.5 37.45 55.5 39.6 zM55.5 20 C42.9 20 17.7 20 5.1 20 C5.1 17.85 5.1 13.55 5.1 11.4 C17.7 11.4 42.9 11.4 55.5 11.4 C55.5 13.55 55.5 17.85 55.5 20 z" />
<glyph unicode="&#x3e;" horiz-adv-x="60.6" d="M4.9 6.9 C4.9 4.8 4.9 0.6 4.9 -1.5 C17.625 4.25 43.075 15.75 55.8 21.5 C55.8 23.35 55.8 27.05 55.8 28.9 C43.075 34.65 17.625 46.15 4.9 51.9 C4.9 49.8 4.9 45.6 4.9 43.5 C14.85 38.925 34.75 29.775 44.7 25.2 C34.75 20.625 14.85 11.475 4.9 6.9 z" />
<glyph unicode="?" horiz-adv-x="44.4" d="M7.8 49.7 C8.575 51.475 10.125 55.025 10.9 56.8 C11.6 58.3 14.8 59.1 18.5 59.1 C23.4 59.1 27.7 55.7 27.7 50.6 C27.7 46.9 25 42.8 22.7 40.1 C18.2 34.9 15.1 30.4 15.1 26.6 C15.1 23.8 15.8 21 17.7 18.8 C18.83333 19.26667 20.25 19.85 21.1 20.2 C21.075 20.25 21.025 20.35 21 20.4 C20.4 21.5 20 22.7 20 23.9 C20 26.4 21.6 29.3 26.3 33.2 C28.86667 35.33333 32.075 38 34 39.6 C38.9 43.7 41.1 46.7 41.1 53.4 C41.1 64 31.7 68.7 22.4 68.7 C17.4 68.7 12.3 67.4 7.5 63.9 C7.3 60.4 6.1 56 4.3 50.6 C5.46667 50.3 6.925 49.925 7.8 49.7 zM19.4 14.4 C15.3 14.4 11.6 10.6 11.6 6.4 C11.6 2.2 15.3 -1.2 19.4 -1.2 C23.6 -1.2 27.2 2.6 27.2 6.4 C27.2 10.7 23.5 14.4 19.4 14.4 z" />
<glyph unicode="@" horiz-adv-x="74.7" d="M63.5 17.3 C58.4 9.7 50.2 4.4 40.9 4.4 C23.7 4.4 9.8 15.5 9.8 33.4 C9.8 50.5 22.8 62.5 39.7 62.5 C56.2 62.5 65.3 51 65.3 40.2 C65.3 34.6 63.2 28.4 59.9 23.9 C58.2 21.6 54.2 17 51 17 C49.4 17 48.9 18.1 48.9 19.5 C48.9 20.3 49.1 21.1 49.3 21.9 C51.76667 31.03333 54.85 42.45 56.7 49.3 C54.35 49.3 49.65 49.3 47.3 49.3 C46.925 47.8 46.175 44.8 45.8 43.3 C45.75 43.3 45.65 43.3 45.6 43.3 C44.9 47.5 41.9 50.1 37.5 50.1 C26.5 50.1 17 39 17 28.3 C17 20.2 21.4 14.3 29.6 14.3 C35.1 14.3 37.9 17.4 41.2 21.9 C41.5 17.8 43.6 13.7 48.3 13.7 C53.6 13.7 60.1 18.1 63.6 21.9 C68.2 26.9 70.4 33.6 70.4 40.4 C70.4 54.8 57.6 68.1 39.1 68.1 C19.1 68.1 4.2 52.5 4.2 32.7 C4.2 12.7 20.3 -1.2 39.8 -1.2 C52.4 -1.2 64.2 6.2 69.9 17.3 C67.76667 17.3 65.1 17.3 63.5 17.3 zM31.5 17.2 C27.3 17.2 26.5 21.8 26.5 25 C26.5 31.1 31.5 47.1 39.1 47.1 C42.6 47.1 43.8 43.1 43.8 40.2 C43.8 36 42.4 30.2 40.6 26.3 C39.1 23 35.7 17.2 31.5 17.2 z" />
<glyph unicode="A" horiz-adv-x="77.8" d="M46.9 20.6 C48.025 17.75 50.275 12.05 51.4 9.2 C51.8 8.2 52 7.3 52 6.6 C52 4.8 51.1 3.8 50 3.7 C48.23333 3.6 46.025 3.475 44.7 3.4 C44.7 2.475 44.7 0.625 44.7 -0.3 C51.3 -0.2 56.3 0 60.2 0 C64.1 0 69 -0.2 75.7 -0.3 C75.7 0.93333 75.7 2.475 75.7 3.4 C75.1 3.475 73.9 3.625 73.3 3.7 C70.2 4.1 68.9 5.6 67.8 8.1 C59.16667 28.26667 48.375 53.475 41.9 68.6 C40.125 68.6 36.575 68.6 34.8 68.6 C33.375 64.825 30.525 57.275 29.1 53.5 C24.575 42.55 15.525 20.65 11 9.7 C9.8 6.8 8 4 5.4 3.7 C4.4 3.6 3.15 3.475 2.4 3.4 C2.4 2.475 2.4 0.625 2.4 -0.3 C7.2 -0.2 10.8 0 13.7 0 C16.6 0 20.2 -0.2 25 -0.3 C25 0.93333 25 2.475 25 3.4 C23.75 3.475 21.25 3.625 20 3.7 C18.6 3.8 17.1 4.8 17.1 7 C17.1 7.7 17.3 8.5 17.6 9.4 C19 13.13333 20.75 17.8 21.8 20.6 C28.075 20.6 40.625 20.6 46.9 20.6 zM34.2 51.6 C36.8 45.25 42 32.55 44.6 26.2 C39.5 26.2 29.3 26.2 24.2 26.2 C26.7 32.55 31.7 45.25 34.2 51.6 z" />
<glyph unicode="B" horiz-adv-x="66.7" d="M26.5 34.8 C27.25 34.8 28.75 34.8 29.5 34.8 C39.7 34.8 46.1 31.5 46.1 20.3 C46.1 11.5 42.6 5.2 31.9 5.2 C30 5.2 28.5 5.2 26.5 5.6 C26.5 15.33333 26.5 27.5 26.5 34.8 zM26.5 62.7 C28.6 63 30.6 63.1 32.6 63.1 C39.9 63.1 44 60.2 44 52.4 C44 42.7 38.4 40 29.5 40 C28.5 40 27.25 40 26.5 40 C26.5 45.675 26.5 57.025 26.5 62.7 zM3.9 64.4 C4.825 64.325 6.675 64.175 7.6 64.1 C10.2 63.9 11.2 63.4 11.7 62.4 C12.3 61.2 12.4 58.5 12.4 54.3 C12.4 39.36667 12.4 20.7 12.4 9.5 C12.4 6.4 12 4.7 10.4 3.8 C9.33333 3.2 8 2.45 7.2 2 C7.2 1.425 7.2 0.275 7.2 -0.3 C10.9 -0.2 15 0 19.2 0 C24 0 28.8 -0.2 33.3 -0.3 C33.63333 -0.3 34.05 -0.3 34.3 -0.3 C50.1 -0.3 61.1 9.1 61.1 21.1 C61.1 32.7 53.8 37.2 41 37.7 C41 37.76667 41 37.85 41 37.9 C50.2 41 58.8 44.4 58.8 54.6 C58.8 65.7 49.4 68.1 40.4 68.1 C40.2 68.1 39.95 68.1 39.8 68.1 C32.1 68 26.4 67.8 19.5 67.8 C15.6 67.8 10.5 68 3.9 68.1 C3.9 66.86667 3.9 65.325 3.9 64.4 z" />
<glyph unicode="C" horiz-adv-x="72.2" d="M69.2 8.7 C68.9 9 68.3 9.6 68 9.9 C62.9 6.9 54.8 4.8 48.9 4.8 C30 4.8 19.4 18 19.4 36.3 C19.4 52.1 28.2 63.9 44.8 63.9 C51.6 63.9 57.9 62.1 62.8 57 C62.96667 54.13333 63.175 50.55 63.3 48.4 C64.275 48.4 66.225 48.4 67.2 48.4 C67.7 52.7 68.5 60.1 69.5 63.7 C69.3 64.06667 69.05 64.525 68.9 64.8 C59.3 68.8 52.6 69.5 44.4 69.5 C23.1 69.5 4.4 58 4.4 35 C4.4 11.1 21.2 -1.7 44 -1.7 C52 -1.7 60.1 -0.4 67 3.8 C67.73333 5.43333 68.65 7.475 69.2 8.7 z" />
<glyph unicode="D" horiz-adv-x="83.3" d="M12 9.5 C12 6.4 11.6 4.7 10 3.8 C8.93333 3.2 7.6 2.45 6.8 2 C6.8 1.425 6.8 0.275 6.8 -0.3 C12.2 -0.2 17.1 0 22.1 0 C27.1 0 32 -0.2 37 -0.3 C37.3 -0.3 37.675 -0.3 37.9 -0.3 C59 -0.3 78.6 13.1 78.6 36.9 C78.6 59.3 66.3 68.1 44.8 68.1 C36 68.1 25.6 67.8 19.1 67.8 C15.2 67.8 10.1 68 3.5 68.1 C3.5 66.86667 3.5 65.325 3.5 64.4 C4.425 64.325 6.275 64.175 7.2 64.1 C9.8 63.9 10.8 63.4 11.3 62.4 C11.9 61.2 12 58.5 12 54.3 C12 39.36667 12 20.7 12 9.5 zM26.1 62.7 C28.2 63 30.2 63.1 32.2 63.1 C55 63.1 63.6 54.8 63.6 35 C63.6 15 54.6 5.2 34.7 5.2 C31.9 5.2 29 5.2 26.1 5.7 C26.1 24.7 26.1 48.45 26.1 62.7 z" />
<glyph unicode="E" horiz-adv-x="61.1" d="M26.5 62 C30.7 62.2 35 62.3 39.3 62.3 C43.9 62.3 50.6 61.9 50.8 60.4 C51.06667 57.9 51.4 54.775 51.6 52.9 C52.5 52.9 54.3 52.9 55.2 52.9 C55.55 56.45 56.25 63.55 56.6 67.1 C56.45 67.275 56.15 67.625 56 67.8 C52.9 68.1 50 68.2 46.7 68.2 C45 68.2 43.3 68.1 41.4 68.1 C35.7 68 28.9 67.8 19.5 67.8 C17.6 67.8 15.3 67.9 12.7 67.9 C10.1 68 7.2 68.1 3.9 68.1 C3.9 66.86667 3.9 65.325 3.9 64.4 C4.825 64.325 6.675 64.175 7.6 64.1 C10.2 63.9 11.2 63.4 11.7 62.4 C12.3 61.2 12.4 58.5 12.4 54.3 C12.4 39.36667 12.4 20.7 12.4 9.5 C12.4 6.4 12 4.7 10.4 3.8 C9.33333 3.2 8 2.45 7.2 2 C7.2 1.425 7.2 0.275 7.2 -0.3 C10.9 -0.2 15 0 19.2 0 C23.3 0 27.4 -0.2 31.5 -0.3 C34 -0.4 37.3 -0.4 40.8 -0.4 C46.2 -0.4 52.1 -0.3 56.1 0 C56.26667 0.26667 56.475 0.6 56.6 0.8 C56.875 4.75 57.425 12.65 57.7 16.6 C56.725 16.6 54.775 16.6 53.8 16.6 C53.225 14.25 52.075 9.55 51.5 7.2 C51.3 6.4 43.9 5.5 39.3 5.5 C35 5.5 30.7 5.6 26.5 5.8 C26.5 14.7 26.5 25.825 26.5 32.5 C28.8 32.7 31 32.8 33.2 32.8 C35.4 32.8 38.15 32.8 39.8 32.8 C43.3 32.8 45.2 31.9 45.5 29.1 C45.7 27.43333 45.95 25.35 46.1 24.1 C47.1 24.1 49.1 24.1 50.1 24.1 C50 27.7 49.8 31.3 49.8 34.9 C49.8 38.5 50 42 50.1 45.6 C48.76667 45.6 47.1 45.6 46.1 45.6 C45.95 44.175 45.65 41.325 45.5 39.9 C45.3 38 43.3 37.8 39.8 37.8 C37.6 37.8 34.85 37.8 33.2 37.8 C31 37.8 28.8 37.8 26.5 38 C26.5 46 26.5 56 26.5 62 z" />
<glyph unicode="F" horiz-adv-x="55.6" d="M25.4 62 C29.6 62.2 33.9 62.3 36.6 62.3 C41.2 62.3 47.9 61.9 48.1 60.4 C48.36667 57.9 48.7 54.775 48.9 52.9 C49.8 52.9 51.6 52.9 52.5 52.9 C52.85 56.45 53.55 63.55 53.9 67.1 C53.75 67.275 53.45 67.625 53.3 67.8 C50.2 68.1 47.3 68.2 44 68.2 C42.3 68.2 40.6 68.1 38.7 68.1 C33 68 26.2 67.8 18.4 67.8 C16.5 67.8 14.2 67.9 11.6 67.9 C9 68 6.1 68.1 2.8 68.1 C2.8 66.86667 2.8 65.325 2.8 64.4 C3.725 64.325 5.575 64.175 6.5 64.1 C9.1 63.9 10.1 63.4 10.6 62.4 C11.2 61.2 11.3 58.5 11.3 54.3 C11.3 40.7 11.3 23.7 11.3 13.5 C11.3 9.3 11.2 6.6 10.6 5.4 C10.2 4.6 9.1 4.2 6.5 4 C5.26667 3.9 3.725 3.775 2.8 3.7 C2.8 2.7 2.8 0.7 2.8 -0.3 C6.9 -0.2 12.4 0 18.4 0 C24.3 0 29.8 -0.2 34.9 -0.3 C34.9 1.03333 34.9 2.7 34.9 3.7 C33.725 3.775 31.375 3.925 30.2 4 C27.6 4.2 26.5 4.6 26.1 5.4 C25.5 6.6 25.4 9.3 25.4 13.5 C25.4 19.73333 25.4 27.525 25.4 32.2 C27.7 32.4 29.9 32.5 32.1 32.5 C33.8 32.5 35.925 32.5 37.2 32.5 C40.7 32.5 42.6 31.6 42.9 28.8 C43.1 27.13333 43.35 25.05 43.5 23.8 C44.5 23.8 46.5 23.8 47.5 23.8 C47.4 27.4 47.2 31 47.2 34.6 C47.2 38.2 47.4 41.7 47.5 44.9 C46.16667 44.9 44.5 44.9 43.5 44.9 C43.35 43.575 43.05 40.925 42.9 39.6 C42.7 37.7 40.7 37.5 37.2 37.5 C35.5 37.5 33.375 37.5 32.1 37.5 C29.9 37.5 27.7 37.5 25.4 37.7 C25.4 45.8 25.4 55.925 25.4 62 z" />
<glyph unicode="G" horiz-adv-x="83.3" d="M73.5 20.6 C73.5 23.1 74.2 23.5 77.6 24.2 C77.6 25.33333 77.6 26.75 77.6 27.6 C72.7 27.5 67.9 27.3 63 27.3 C58.1 27.3 53.2 27.5 48.3 27.6 C48.3 26.23333 48.3 24.525 48.3 23.5 C49.625 23.45 52.275 23.35 53.6 23.3 C56.8 23.2 59.3 22.7 59.3 19.6 C59.3 15.2 59.3 9.7 59.3 6.4 C55.1 4.8 51 3.9 46.6 3.9 C28.6 3.9 19.7 19 19.7 36.3 C19.7 52.1 28.5 63.9 45.1 63.9 C53.3 63.9 62.2 61.6 66.1 57 C66.26667 54.13333 66.475 50.55 66.6 48.4 C67.575 48.4 69.525 48.4 70.5 48.4 C71 52.7 71.8 60.1 72.8 63.7 C72.6 64.06667 72.35 64.525 72.2 64.8 C62.7 68.7 53.8 69.5 44.7 69.5 C23.4 69.5 4.7 58 4.7 35 C4.7 11.1 21.5 -1.7 44.3 -1.7 C54.6 -1.7 64.3 0.7 73.5 4.3 C73.5 9.73333 73.5 16.525 73.5 20.6 z" />
<glyph unicode="H" horiz-adv-x="83.3" d="M26.2 54.3 C26.2 58.5 26.3 61.2 26.9 62.4 C27.3 63.2 28.4 63.6 31 63.8 C32.23333 63.9 33.775 64.025 34.7 64.1 C34.7 65.1 34.7 67.1 34.7 68.1 C30.6 68 25.1 67.8 19.2 67.8 C13.2 67.8 7.7 68 3.6 68.1 C3.6 66.76667 3.6 65.1 3.6 64.1 C4.525 64.025 6.375 63.875 7.3 63.8 C9.9 63.6 11 63.2 11.4 62.4 C12 61.2 12.1 58.5 12.1 54.3 C12.1 40.7 12.1 23.7 12.1 13.5 C12.1 9.3 12 6.6 11.4 5.4 C11 4.6 9.9 4.2 7.3 4 C6.06667 3.9 4.525 3.775 3.6 3.7 C3.6 2.7 3.6 0.7 3.6 -0.3 C7.7 -0.2 13.2 0 19.2 0 C25.1 0 30.6 -0.2 34.7 -0.3 C34.7 1.03333 34.7 2.7 34.7 3.7 C33.775 3.775 31.925 3.925 31 4 C28.4 4.2 27.3 4.6 26.9 5.4 C26.3 6.6 26.2 9.3 26.2 13.5 C26.2 19.83333 26.2 27.75 26.2 32.5 C27.7 32.6 29.6 32.7 34.3 32.7 C39.16667 32.7 45.25 32.7 48.9 32.7 C53.6 32.7 55.5 32.6 57 32.5 C57 26.16667 57 18.25 57 13.5 C57 9.3 56.9 6.6 56.3 5.4 C55.9 4.6 54.8 4.2 52.2 4 C50.96667 3.9 49.425 3.775 48.5 3.7 C48.5 2.7 48.5 0.7 48.5 -0.3 C52.6 -0.2 58.1 0 64.1 0 C70 0 75.5 -0.2 79.6 -0.3 C79.6 1.03333 79.6 2.7 79.6 3.7 C78.675 3.775 76.825 3.925 75.9 4 C73.3 4.2 72.2 4.6 71.8 5.4 C71.2 6.6 71.1 9.3 71.1 13.5 C71.1 27.1 71.1 44.1 71.1 54.3 C71.1 58.5 71.2 61.2 71.8 62.4 C72.2 63.2 73.3 63.6 75.9 63.8 C77.13333 63.9 78.675 64.025 79.6 64.1 C79.6 65.1 79.6 67.1 79.6 68.1 C75.5 68 70 67.8 64.1 67.8 C58.1 67.8 52.6 68 48.5 68.1 C48.5 66.76667 48.5 65.1 48.5 64.1 C49.425 64.025 51.275 63.875 52.2 63.8 C54.8 63.6 55.9 63.2 56.3 62.4 C56.9 61.2 57 58.5 57 54.3 C57 49.03333 57 42.45 57 38.5 C55.5 38.4 53.6 38.3 48.9 38.3 C44.03333 38.3 37.95 38.3 34.3 38.3 C29.6 38.3 27.7 38.4 26.2 38.5 C26.2 43.76667 26.2 50.35 26.2 54.3 z" />
<glyph unicode="I" horiz-adv-x="38.9" d="M26.5 54.3 C26.5 58.5 26.6 61.2 27.2 62.4 C27.6 63.2 28.7 63.6 31.3 63.8 C32.53333 63.9 34.075 64.025 35 64.1 C35 65.1 35 67.1 35 68.1 C30.9 68 25.4 67.8 19.5 67.8 C13.5 67.8 8 68 3.9 68.1 C3.9 66.76667 3.9 65.1 3.9 64.1 C4.825 64.025 6.675 63.875 7.6 63.8 C10.2 63.6 11.3 63.2 11.7 62.4 C12.3 61.2 12.4 58.5 12.4 54.3 C12.4 40.7 12.4 23.7 12.4 13.5 C12.4 9.3 12.3 6.6 11.7 5.4 C11.3 4.6 10.2 4.2 7.6 4 C6.36667 3.9 4.825 3.775 3.9 3.7 C3.9 2.7 3.9 0.7 3.9 -0.3 C8 -0.2 13.5 0 19.5 0 C25.4 0 30.9 -0.2 35 -0.3 C35 1.03333 35 2.7 35 3.7 C34.075 3.775 32.225 3.925 31.3 4 C28.7 4.2 27.6 4.6 27.2 5.4 C26.6 6.6 26.5 9.3 26.5 13.5 C26.5 27.1 26.5 44.1 26.5 54.3 z" />
<glyph unicode="J" horiz-adv-x="38.9" d="M26.5 54.3 C26.5 58.5 26.6 61.2 27.2 62.4 C27.6 63.2 28.7 63.6 31.3 63.8 C32.53333 63.9 34.075 64.025 35 64.1 C35 65.1 35 67.1 35 68.1 C30.9 68 25.4 67.8 19.5 67.8 C13.5 67.8 8 68 3.9 68.1 C3.9 66.76667 3.9 65.1 3.9 64.1 C4.825 64.025 6.675 63.875 7.6 63.8 C10.2 63.6 11.3 63.2 11.7 62.4 C12.3 61.2 12.4 58.5 12.4 54.3 C12.4 35.6 12.4 12.225 12.4 -1.8 C12.4 -8.4 12.1 -14.8 6.9 -14.8 C4.1 -14.8 2.1 -12.8 0 -11.3 C-0.36667 -11.5 -0.825 -11.75 -1.1 -11.9 C-1.1 -14.125 -1.1 -18.575 -1.1 -20.8 C-0.1 -21.1 0.9 -21.3 2 -21.3 C9 -21.3 16.8 -15.9 20.8 -10.3 C26.4 -2.5 26.5 3.8 26.5 12.8 C26.5 26.63333 26.5 43.925 26.5 54.3 z" />
<glyph unicode="K" horiz-adv-x="77.8" d="M12.4 13.5 C12.4 9.3 12.3 6.6 11.7 5.4 C11.3 4.6 10.2 4.2 7.6 4 C6.36667 3.9 4.825 3.775 3.9 3.7 C3.9 2.7 3.9 0.7 3.9 -0.3 C8 -0.2 13.5 0 19.5 0 C25.4 0 30.9 -0.2 35 -0.3 C35 1.03333 35 2.7 35 3.7 C34.075 3.775 32.225 3.925 31.3 4 C28.7 4.2 27.6 4.6 27.2 5.4 C26.6 6.6 26.5 9.3 26.5 13.5 C26.5 19.53333 26.5 27.075 26.5 31.6 C26.5 32 26.8 32.5 27.4 32.5 C27.46667 32.5 27.55 32.5 27.6 32.5 C29.5 31.6 32.9 27.4 35.2 24.6 C42.13333 16.3 50.8 5.925 56 -0.3 C59.4 -0.2 62.8 0 66.2 0 C69.6 0 72.9 -0.2 76.3 -0.3 C76.3 1.06667 76.3 2.775 76.3 3.8 C72 3.8 69.3 6.3 67.2 8.8 C58.33333 19.23333 47.25 32.275 40.6 40.1 C46.15 45.275 57.25 55.625 62.8 60.8 C65.8 63.6 69.6 63.8 73.8 64.2 C73.8 65.5 73.8 67.125 73.8 68.1 C70.8 68 67.7 67.8 64.7 67.8 C61.7 67.8 58.6 68 55.6 68.1 C55.6 67.26667 55.6 66.225 55.6 65.6 C55.6 64.4 55.1 63.2 54 62 C51.7 59.5 48.6 56 46.2 53.6 C39.93333 47.46667 32.1 39.8 27.4 35.2 C26.9 35.2 26.5 35.4 26.5 35.8 C26.5 41.96667 26.5 49.675 26.5 54.3 C26.5 58.5 26.6 61.2 27.2 62.4 C27.6 63.2 28.7 63.6 31.3 63.8 C32.53333 63.9 34.075 64.025 35 64.1 C35 65.1 35 67.1 35 68.1 C30.9 68 25.4 67.8 19.5 67.8 C13.5 67.8 8 68 3.9 68.1 C3.9 66.76667 3.9 65.1 3.9 64.1 C4.825 64.025 6.675 63.875 7.6 63.8 C10.2 63.6 11.3 63.2 11.7 62.4 C12.3 61.2 12.4 58.5 12.4 54.3 C12.4 40.7 12.4 23.7 12.4 13.5 z" />
<glyph unicode="L" horiz-adv-x="61.1" d="M26.5 54.3 C26.5 58.5 26.6 61.2 27.2 62.4 C27.6 63.2 28.7 63.6 31.3 63.8 C32.53333 63.9 34.075 64.025 35 64.1 C35 65.1 35 67.1 35 68.1 C30.9 68 25.4 67.8 19.5 67.8 C13.5 67.8 8 68 3.9 68.1 C3.9 66.76667 3.9 65.1 3.9 64.1 C4.825 64.025 6.675 63.875 7.6 63.8 C10.2 63.6 11.3 63.2 11.7 62.4 C12.3 61.2 12.4 58.5 12.4 54.3 C12.4 39.36667 12.4 20.7 12.4 9.5 C12.4 6.4 12 4.7 10.4 3.8 C9.33333 3.2 8 2.45 7.2 2 C7.2 1.425 7.2 0.275 7.2 -0.3 C10.9 -0.2 15 0 19.2 0 C23.3 0 27.4 -0.2 31.5 -0.3 C34 -0.4 37.3 -0.4 40.8 -0.4 C46.2 -0.4 52.1 -0.3 56.1 0 C56.26667 0.26667 56.475 0.6 56.6 0.8 C56.875 4.95 57.425 13.25 57.7 17.4 C56.725 17.4 54.775 17.4 53.8 17.4 C53.225 14.85 52.075 9.75 51.5 7.2 C51.3 6.4 43.9 5.5 39.3 5.5 C35 5.5 30.7 5.6 26.5 5.8 C26.5 21.96667 26.5 42.175 26.5 54.3 z" />
<glyph unicode="M" horiz-adv-x="100" d="M88.3 54.3 C88.3 58.5 88.4 61.2 89 62.4 C89.5 63.4 90.5 63.9 93.1 64.1 C94.33333 64.2 95.875 64.325 96.8 64.4 C96.8 65.325 96.8 67.175 96.8 68.1 C91.8 68 88.2 67.8 85.2 67.8 C82.3 67.8 78.6 68 73.7 68.1 C72.2 64.6 70.6 60.5 68.8 56.8 C62.7 44.2 55.075 28.45 50.5 19 C46.55 27.25 38.65 43.75 34.7 52 C32.6 56.5 29 64 27.2 68.1 C23.2 68 19.2 67.8 15.2 67.8 C11.2 67.8 7.2 68 3.2 68.1 C3.2 66.86667 3.2 65.325 3.2 64.4 C4.125 64.325 5.975 64.175 6.9 64.1 C9.5 63.9 10.5 63.4 11 62.4 C11.6 61.2 11.7 58.5 11.7 54.3 C11.7 40.7 11.7 23.7 11.7 13.5 C11.7 9.3 11.6 6.6 11 5.4 C10.5 4.4 9.5 3.9 6.9 3.7 C5.66667 3.6 4.125 3.475 3.2 3.4 C3.2 2.475 3.2 0.625 3.2 -0.3 C7 -0.2 10.9 0 14.7 0 C18.5 0 22.3 -0.2 26.1 -0.3 C26.1 0.93333 26.1 2.475 26.1 3.4 C25.175 3.475 23.325 3.625 22.4 3.7 C19.8 3.9 18.8 4.4 18.3 5.4 C17.7 6.6 17.6 9.3 17.6 13.5 C17.6 27.26667 17.6 44.475 17.6 54.8 C17.65 54.8 17.75 54.8 17.8 54.8 C23.5 42.925 34.9 19.175 40.6 7.3 C41.9 4.5 43.2 1.8 44.2 -1 C45.33333 -1 46.75 -1 47.6 -1 C49.2 3 51.5 7.9 53.6 12.2 C60.4 26.36667 68.9 44.075 74 54.7 C74.05 54.7 74.15 54.7 74.2 54.7 C74.2 44.4 74.2 23.8 74.2 13.5 C74.2 9.3 74.1 6.6 73.5 5.4 C73.1 4.6 72 4.2 69.4 4 C68.16667 3.9 66.625 3.775 65.7 3.7 C65.7 2.7 65.7 0.7 65.7 -0.3 C69.8 -0.2 75.3 0 81.3 0 C87.2 0 92.7 -0.2 96.8 -0.3 C96.8 1.03333 96.8 2.7 96.8 3.7 C95.875 3.775 94.025 3.925 93.1 4 C90.5 4.2 89.4 4.6 89 5.4 C88.4 6.6 88.3 9.3 88.3 13.5 C88.3 27.1 88.3 44.1 88.3 54.3 z" />
<glyph unicode="N" horiz-adv-x="83.3" d="M12 13.5 C12 9.3 11.9 6.6 11.3 5.4 C10.8 4.4 9.8 3.9 7.2 3.7 C5.96667 3.6 4.425 3.475 3.5 3.4 C3.5 2.475 3.5 0.625 3.5 -0.3 C7.3 -0.2 11.2 0 15 0 C18.8 0 22.6 -0.2 26.4 -0.3 C26.4 0.93333 26.4 2.475 26.4 3.4 C25.475 3.475 23.625 3.625 22.7 3.7 C20.1 3.9 19.1 4.4 18.6 5.4 C18 6.6 17.9 9.3 17.9 13.5 C17.9 26.53333 17.9 42.825 17.9 52.6 C17.95 52.6 18.05 52.6 18.1 52.6 C26.2 42.85 42.4 23.35 50.5 13.6 C54.4 9 58.6 4.3 62.7 -0.3 C65.43333 -0.73333 68.85 -1.275 70.9 -1.6 C71.075 -1.5 71.425 -1.3 71.6 -1.2 C71.5 1.8 71.3 5.4 71.3 8.9 C71.3 24.03333 71.3 42.95 71.3 54.3 C71.3 58.5 71.4 61.2 72 62.4 C72.5 63.4 73.5 63.9 76.1 64.1 C77.33333 64.2 78.875 64.325 79.8 64.4 C79.8 65.325 79.8 67.175 79.8 68.1 C76 68 72.2 67.8 68.4 67.8 C64.6 67.8 60.7 68 56.9 68.1 C56.9 66.86667 56.9 65.325 56.9 64.4 C57.825 64.325 59.675 64.175 60.6 64.1 C63.2 63.9 64.2 63.4 64.7 62.4 C65.3 61.2 65.4 58.5 65.4 54.3 C65.4 42.33333 65.4 27.375 65.4 18.4 C57.6 27.5 42 45.7 34.2 54.8 C30.6 59 27.3 63.7 23.9 68.1 C21.1 68 18.3 67.8 15.5 67.8 C11.5 67.8 7.5 68 3.5 68.1 C3.5 66.86667 3.5 65.325 3.5 64.4 C4.425 64.325 6.275 64.175 7.2 64.1 C9.8 63.9 10.8 63.4 11.3 62.4 C11.9 61.2 12 58.5 12 54.3 C12 40.7 12 23.7 12 13.5 z" />
<glyph unicode="O" horiz-adv-x="83.3" d="M42.7 69.5 C19.8 69.5 4.7 56.9 4.7 33.3 C4.7 10.5 18.3 -1.7 40.7 -1.7 C63.6 -1.7 78.7 10.9 78.7 34.5 C78.7 57.3 65.1 69.5 42.7 69.5 zM42.7 63.9 C56.8 63.9 63.7 49.2 63.7 32.7 C63.7 17.7 59.3 3.9 40.7 3.9 C26.6 3.9 19.7 18.5 19.7 35 C19.7 50 24.1 63.9 42.7 63.9 z" />
<glyph unicode="P" horiz-adv-x="61.1" d="M12.4 13.5 C12.4 9.3 12.3 6.6 11.7 5.4 C11.3 4.6 10.2 4.2 7.6 4 C6.36667 3.9 4.825 3.775 3.9 3.7 C3.9 2.7 3.9 0.7 3.9 -0.3 C8 -0.2 13.5 0 19.5 0 C25.4 0 30.9 -0.2 36 -0.3 C36 1.03333 36 2.7 36 3.7 C34.825 3.775 32.475 3.925 31.3 4 C28.7 4.2 27.6 4.6 27.2 5.4 C26.6 6.6 26.5 9.3 26.5 13.5 C26.5 29.73333 26.5 50.025 26.5 62.2 C28.1 63 30.8 63.1 32.9 63.1 C42 63.1 45 57.3 45 49.1 C45 42.8 41.7 36.5 34.6 36.5 C33.2 36.5 31.8 36.9 30.4 37.1 C30.06667 36.76667 29.65 36.35 29.4 36.1 C29.825 35.225 30.675 33.475 31.1 32.6 C32.6 32.4 34.5 31.9 36.3 31.9 C49.1 31.9 59.4 40 59.4 53.3 C59.4 64.8 50.5 68.1 40.7 68.1 C40.4 68.1 40.025 68.1 39.8 68.1 C33 68 26.3 67.8 19.5 67.8 C15.6 67.8 10.5 68 3.9 68.1 C3.9 66.86667 3.9 65.325 3.9 64.4 C4.825 64.325 6.675 64.175 7.6 64.1 C10.2 63.9 11.2 63.4 11.7 62.4 C12.3 61.2 12.4 58.5 12.4 54.3 C12.4 40.7 12.4 23.7 12.4 13.5 z" />
<glyph unicode="Q" horiz-adv-x="83.3" d="M60.6 -17.4 C62.9 -18 65.4 -18.4 67.8 -18.4 C71.23333 -16.26667 75.525 -13.6 78.1 -12 C78.1 -11.075 78.1 -9.225 78.1 -8.3 C75.8 -9.2 72.7 -10.6 70.6 -10.6 C66.6 -10.6 62.6 -9.5 59.4 -8.4 C55.4 -7 50.4 -5.25 47.4 -4.2 C44.7 -3.3 40.9 -2.5 37.2 -1.8 C37.26667 -1.73333 37.35 -1.65 37.4 -1.6 C38.3 -1.7 39.5 -1.7 40.7 -1.7 C63.6 -1.7 78.7 10.9 78.7 34.5 C78.7 57.3 65.1 69.5 42.7 69.5 C19.8 69.5 4.7 56.9 4.7 33.3 C4.7 12.2 16.3 0.2 35.8 -1.3 C35.8 -1.36667 35.8 -1.45 35.8 -1.5 C30.4 -3.5 25.3 -7.2 20 -11.5 C20.36667 -12.53333 20.825 -13.825 21.1 -14.6 C24.2 -12.4 27.9 -10.3 29.9 -10.2 C30.23333 -10.2 30.65 -10.2 30.9 -10.2 C34.2 -10.2 37.5 -11.1 40.7 -12 C47.33333 -13.8 55.625 -16.05 60.6 -17.4 zM42.7 63.9 C56.8 63.9 63.7 49.2 63.7 32.7 C63.7 17.7 59.3 3.9 40.7 3.9 C26.6 3.9 19.7 18.5 19.7 35 C19.7 50 24.1 63.9 42.7 63.9 z" />
<glyph unicode="R" horiz-adv-x="72.2" d="M12.4 13.5 C12.4 9.3 12.3 6.6 11.7 5.4 C11.3 4.6 10.2 4.2 7.6 4 C6.36667 3.9 4.825 3.775 3.9 3.7 C3.9 2.7 3.9 0.7 3.9 -0.3 C8 -0.2 13.5 0 19.5 0 C25.4 0 30.9 -0.2 35 -0.3 C35 1.03333 35 2.7 35 3.7 C34.075 3.775 32.225 3.925 31.3 4 C28.7 4.2 27.6 4.6 27.2 5.4 C26.6 6.6 26.5 9.3 26.5 13.5 C26.5 29.73333 26.5 50.025 26.5 62.2 C28.1 63 30.8 63.1 32.9 63.1 C40.7 63.1 46.4 58.7 46.4 50.5 C46.4 41.7 40.4 36.1 32.1 36.1 C31.5 36.1 31 36.2 30.4 36.2 C30.16667 35.6 29.875 34.85 29.7 34.4 C35.3 25.725 46.5 8.375 52.1 -0.3 C55.1 -0.2 58.1 0 61.1 0 C64.3 0 67.6 -0.2 70.8 -0.3 C70.8 1.03333 70.8 2.7 70.8 3.7 C68.9 4.1 67.6 4.4 66.7 5.1 C65.6 6 64.5 7.1 63.8 8.2 C57.76667 17.33333 50.225 28.75 45.7 35.6 C54 38.6 60.6 44.5 60.6 53.3 C60.6 64.8 51.7 68.1 41.9 68.1 C41.6 68.1 41.225 68.1 41 68.1 C34.2 68 27.5 67.8 20.7 67.8 C15.6 67.8 10.5 68 3.9 68.1 C3.9 66.86667 3.9 65.325 3.9 64.4 C4.825 64.325 6.675 64.175 7.6 64.1 C10.2 63.9 11.2 63.4 11.7 62.4 C12.3 61.2 12.4 58.5 12.4 54.3 C12.4 40.7 12.4 23.7 12.4 13.5 z" />
<glyph unicode="S" horiz-adv-x="61.1" d="M7.2 20.2 C7.2 14.5 6.9 8.8 5.7 2.9 C12.1 -0.2 19.4 -1.7 26.6 -1.7 C41.8 -1.7 55.9 5.4 55.9 22.4 C55.9 31.4 50 37.2 40.8 39.6 C37 40.6 32.25 41.85 29.4 42.6 C22 44.5 18.8 47.8 18.8 52.3 C18.8 59 23.2 64.4 32.5 64.4 C37.2 64.4 42.8 62.3 45.8 58.9 C46 56.16667 46.25 52.75 46.4 50.7 C47.425 50.7 49.475 50.7 50.5 50.7 C50.5 55.9 50.9 61.7 51.9 64.9 C51.73333 65.3 51.525 65.8 51.4 66.1 C45.6 68.4 39 69.5 32.8 69.5 C18.3 69.5 6.4 63.4 6.4 47.4 C6.4 38.8 12.6 32.9 21 30.4 C25.66667 29 31.5 27.25 35 26.2 C40.7 24.5 43.3 21.2 43.3 16.9 C43.3 8.2 36.1 3.7 27.6 3.7 C22.4 3.7 14.6 6.8 11.9 11.4 C11.66667 14.33333 11.375 18 11.2 20.2 C10.2 20.2 8.2 20.2 7.2 20.2 z" />
<glyph unicode="T" horiz-adv-x="66.7" d="M40.4 61.9 C43.325 61.9 49.175 61.9 52.1 61.9 C54.8 61.9 57.6 61.9 58.3 61 C58.7 60.5 59.1 59.7 59.2 58.6 C59.36667 56.3 59.575 53.425 59.7 51.7 C60.7 51.7 62.7 51.7 63.7 51.7 C63.9 58.2 64.2 62.8 65 67.6 C64.8 67.76667 64.55 67.975 64.4 68.1 C53.9 68 43.5 67.8 33.3 67.8 C23.2 67.8 12.8 68 2.3 68.1 C2.1 67.93333 1.85 67.725 1.7 67.6 C2.5 62.8 2.8 58.2 3 51.7 C4.33333 51.7 6 51.7 7 51.7 C7.125 53.425 7.375 56.875 7.5 58.6 C7.6 59.7 8 60.5 8.4 61 C9.1 61.9 11.9 61.9 14.6 61.9 C18.5 61.9 23.375 61.9 26.3 61.9 C26.3 49.8 26.3 25.6 26.3 13.5 C26.3 9.3 26.2 6.6 25.6 5.4 C25.2 4.6 24.1 4.2 21.5 4 C20.26667 3.9 18.725 3.775 17.8 3.7 C17.8 2.7 17.8 0.7 17.8 -0.3 C21.9 -0.2 27.4 0 33.4 0 C39.3 0 44.8 -0.2 48.9 -0.3 C48.9 1.03333 48.9 2.7 48.9 3.7 C47.975 3.775 46.125 3.925 45.2 4 C42.6 4.2 41.5 4.6 41.1 5.4 C40.5 6.6 40.4 9.3 40.4 13.5 C40.4 29.63333 40.4 49.8 40.4 61.9 z" />
<glyph unicode="U" horiz-adv-x="77.8" d="M11.1 17.7 C11.1 6.4 20.8 -1.7 39.7 -1.7 C57.8 -1.7 67.5 6.8 67.5 25.1 C67.5 34.83333 67.5 47 67.5 54.3 C67.5 58.5 67.6 61.2 68.2 62.4 C68.7 63.4 69.7 63.9 72.3 64.1 C73.53333 64.2 75.075 64.325 76 64.4 C76 65.325 76 67.175 76 68.1 C72.2 68 68.4 67.8 64.6 67.8 C60.8 67.8 56.9 68 53.1 68.1 C53.1 66.86667 53.1 65.325 53.1 64.4 C54.025 64.325 55.875 64.175 56.8 64.1 C59.4 63.9 60.4 63.4 60.9 62.4 C61.5 61.2 61.6 58.5 61.6 54.3 C61.6 46.26667 61.6 36.225 61.6 30.2 C61.6 15.7 59.7 6.5 43 6.5 C26.1 6.5 25.2 15.4 25.2 29.5 C25.2 37.76667 25.2 48.1 25.2 54.3 C25.2 58.5 25.3 61.2 25.9 62.4 C26.4 63.4 27.4 63.9 30 64.1 C31.23333 64.2 32.775 64.325 33.7 64.4 C33.7 65.325 33.7 67.175 33.7 68.1 C29.6 68 24.1 67.8 18.2 67.8 C12.2 67.8 6.7 68 2.6 68.1 C2.6 66.86667 2.6 65.325 2.6 64.4 C3.525 64.325 5.375 64.175 6.3 64.1 C8.9 63.9 9.9 63.4 10.4 62.4 C11 61.2 11.1 58.5 11.1 54.3 C11.1 42.1 11.1 26.85 11.1 17.7 z" />
<glyph unicode="V" horiz-adv-x="77.8" d="M28.5 55 C27.6 57.2 26.4 60.2 26.4 62.2 C26.4 63.1 27.5 64 29 64.1 C30.66667 64.2 32.75 64.325 34 64.4 C34 65.325 34 67.175 34 68.1 C26.5 68 21.5 67.8 17.6 67.8 C13.7 67.8 8.6 68 2 68.1 C2 66.86667 2 65.325 2 64.4 C3.025 64.325 5.075 64.175 6.1 64.1 C9.5 63.8 11.1 59.7 12.3 56.9 C20.26667 37.83333 30.225 14 36.2 -0.3 C38.1 -0.3 41.9 -0.3 43.8 -0.3 C45.1 3 46.2 6.3 47.6 9.6 C54.53333 26.2 63.2 46.95 68.4 59.4 C69.6 62.3 70.9 63.9 73.1 64.1 C74.16667 64.2 75.5 64.325 76.3 64.4 C76.3 65.325 76.3 67.175 76.3 68.1 C71.4 68 67.7 67.8 64.8 67.8 C61.9 67.8 58.1 68 53.2 68.1 C53.2 66.86667 53.2 65.325 53.2 64.4 C54.35 64.325 56.65 64.175 57.8 64.1 C59.8 64 61.5 63.2 61.5 61.4 C61.5 59.6 60.1 55.8 58.4 51.6 C53.66667 39.83333 47.75 25.125 44.2 16.3 C40.275 25.975 32.425 45.325 28.5 55 z" />
<glyph unicode="W" horiz-adv-x="100" d="M32.1 21 C32.05 21 31.95 21 31.9 21 C29.875 30.5 25.825 49.5 23.8 59 C23.6 60.1 23.5 61.1 23.5 61.8 C23.5 62.9 25.2 64 26.5 64.1 C27.9 64.2 29.65 64.325 30.7 64.4 C30.7 65.325 30.7 67.175 30.7 68.1 C26.2 68 21.2 67.8 17.3 67.8 C13.4 67.8 8.3 68 1.7 68.1 C1.7 66.86667 1.7 65.325 1.7 64.4 C2.5 64.325 4.1 64.175 4.9 64.1 C6.7 63.9 7.9 62.8 8.6 59.9 C13.23333 39.83333 19.025 14.75 22.5 -0.3 C24.25 -0.3 27.75 -0.3 29.5 -0.3 C31.1 3.9 32.4 8.1 34.2 12.2 C39.36667 24.03333 45.825 38.825 49.7 47.7 C53.425 38.325 60.875 19.575 64.6 10.2 C66 6.7 67.1 3.2 68.4 -0.3 C70.83333 -0.3 73.875 -0.3 75.7 -0.3 C76.8 4.5 77.7 9.3 79 14 C83.06667 28.4 88.15 46.4 91.2 57.2 C92.4 61.4 93.7 63.9 95.5 64.1 C96.6 64.2 97.975 64.325 98.8 64.4 C98.8 65.325 98.8 67.175 98.8 68.1 C94.2 68 90.7 67.8 88 67.8 C85.2 67.8 81.7 68 77.2 68.1 C77.2 66.86667 77.2 65.325 77.2 64.4 C78.35 64.325 80.65 64.175 81.8 64.1 C83.5 64 85.3 63.3 85.3 62.1 C85.3 60.9 85.2 60 84.9 58.8 C81.7 46.3 77.7 30.675 75.3 21.3 C75.25 21.3 75.15 21.3 75.1 21.3 C71.7 29.8 64.9 46.8 61.5 55.3 C59.8 59.6 58.2 64 56.6 68.6 C55.1 68.6 53.225 68.6 52.1 68.6 C50.4 64.5 48.7 60.3 47 56.2 C42.03333 44.46667 35.825 29.8 32.1 21 z" />
<glyph unicode="X" horiz-adv-x="66.7" d="M2.2 65.8 C2.325 64.775 2.575 62.725 2.7 61.7 C3.8 62 4.9 62.3 5.9 62.3 C7.3 62.3 8.6 61.8 9.8 60.6 C11.4 59 15.3 54.1 18.6 48.2 C21.73333 42.66667 25.65 35.75 28 31.6 C23.025 25.075 13.075 12.025 8.1 5.5 C7.6 4.8 6.2 3.8 4.8 3.7 C3.76667 3.6 2.475 3.475 1.7 3.4 C1.7 2.55 1.7 0.85 1.7 0 C4.625 0 10.475 0 13.4 0 C14.6 2.1 15.6 4.2 17 6.2 C21.66667 12.9 27.5 21.275 31 26.3 C34.725 19.65 42.175 6.35 45.9 -0.3 C49.1 -0.2 52.3 0 55.5 0 C58.7 0 61.8 -0.2 65 -0.3 C65 0.93333 65 2.475 65 3.4 C64.375 3.475 63.125 3.625 62.5 3.7 C59.4 4.1 57.7 8 56.2 10.6 C50.9 19.76667 44.275 31.225 40.3 38.1 C44.55 43.7 53.05 54.9 57.3 60.5 C58.6 62.2 59.6 63.8 62.1 64.1 C63.03333 64.2 64.2 64.325 64.9 64.4 C64.9 65.25 64.9 66.95 64.9 67.8 C62.125 67.8 56.575 67.8 53.8 67.8 C49.675 61.725 41.425 49.575 37.3 43.5 C34.925 47.725 30.175 56.175 27.8 60.4 C25.8 63.9 23.8 67.1 20.5 69.5 C14.4 68.26667 6.775 66.725 2.2 65.8 z" />
<glyph unicode="Y" horiz-adv-x="66.7" d="M39.5 35.6 C36.825 40.675 31.475 50.825 28.8 55.9 C26 61.2 22.9 66.4 17.4 69.5 C12.1 68.3 5.475 66.8 1.5 65.9 C1.5 64.975 1.5 63.125 1.5 62.2 C4.9 62.2 7 61.4 9.3 58.9 C11 57 13.1 54.4 14.5 52.2 C17.86667 46.76667 22.075 39.975 24.6 35.9 C25.9 33.8 27.1 31.7 29 27.4 C29 22.76667 29 16.975 29 13.5 C29 9.3 28.9 6.6 28.3 5.4 C27.9 4.6 26.8 4.2 24.2 4 C22.96667 3.9 21.425 3.775 20.5 3.7 C20.5 2.7 20.5 0.7 20.5 -0.3 C24.6 -0.2 30.1 0 36.1 0 C42 0 47.5 -0.2 51.6 -0.3 C51.6 1.03333 51.6 2.7 51.6 3.7 C50.675 3.775 48.825 3.925 47.9 4 C45.3 4.2 44.2 4.6 43.8 5.4 C43.2 6.6 43.1 9.3 43.1 13.5 C43.1 18.93333 43.1 25.725 43.1 29.8 C44.6 33.2 46.3 36.7 48.4 39.8 C54.26667 48.5 61.6 59.375 66 65.9 C66 66.375 66 67.325 66 67.8 C64.075 67.8 60.225 67.8 58.3 67.8 C53.6 59.75 44.2 43.65 39.5 35.6 z" />
<glyph unicode="Z" horiz-adv-x="66.7" d="M54 53.6 C56.6 57.4 59.6 61.4 62.3 64.6 C62.3 65.76667 62.3 67.225 62.3 68.1 C50.7 68 42.1 67.8 35.2 67.8 C28.3 67.8 19.6 68 8 68.1 C8 62.7 8 55.95 8 51.9 C8.925 51.9 10.775 51.9 11.7 51.9 C11.9 53.275 12.3 56.025 12.5 57.4 C13.1 61.4 14 62 21.2 62 C28.6 62 37.85 62 43.4 62 C35.75 50.85 20.45 28.55 12.8 17.4 C9.5 12.6 5.8 7.8 2.4 3.5 C2.4 2.23333 2.4 0.65 2.4 -0.3 C14.2 -0.1 23.8 0 32.4 0 C40.8 0 51.4 -0.1 61.1 -0.3 C61.2 5.2 61.8 12.4 62.7 17.4 C61.36667 17.4 59.7 17.4 58.7 17.4 C58.325 15.45 57.575 11.55 57.2 9.6 C56.7 7.2 54.8 5.7 49.1 5.7 C39.9 5.7 28.4 5.7 21.5 5.7 C29.625 17.675 45.875 41.625 54 53.6 z" />
<glyph unicode="[" horiz-adv-x="33.3" d="M29.1 72 C25.5 71.9 22.5 71.7 19.3 71.7 C16.2 71.7 13.1 71.9 7.3 72 C7.5 58.3 8 44.7 8 31 C8 17.2 7.5 3.4 7.3 -10.4 C13.1 -10.3 16.2 -10.1 19.3 -10.1 C22.5 -10.1 25.5 -10.3 29.1 -10.4 C29.1 -9.13333 29.1 -7.55 29.1 -6.6 C27.875 -6.6 25.425 -6.6 24.2 -6.6 C21.4 -6.6 18 -5.2 18 -2.6 C17.9 8.5 17.7 19.5 17.7 30.8 C17.7 42.1 17.9 53.1 18 64.2 C18 66.8 21.4 68.2 24.2 68.2 C25.83333 68.2 27.875 68.2 29.1 68.2 C29.1 69.15 29.1 71.05 29.1 72 z" />
<glyph unicode="\" horiz-adv-x="60.6" d="M7.2 72 C16.5 54 35.1 18 44.4 0 C46.65 0 51.15 0 53.4 0 C44.1 18 25.5 54 16.2 72 C13.95 72 9.45 72 7.2 72 z" />
<glyph unicode="]" horiz-adv-x="33.3" d="M4.2 68.2 C5.425 68.2 7.875 68.2 9.1 68.2 C11.9 68.2 15.3 66.8 15.3 64.2 C15.4 53.1 15.6 42.1 15.6 30.8 C15.6 19.5 15.4 8.5 15.3 -2.6 C15.3 -5.2 11.9 -6.6 9.1 -6.6 C7.46667 -6.6 5.425 -6.6 4.2 -6.6 C4.2 -7.55 4.2 -9.45 4.2 -10.4 C7.8 -10.3 10.8 -10.1 14 -10.1 C17.1 -10.1 20.2 -10.3 26 -10.4 C25.8 3.4 25.3 17.2 25.3 31 C25.3 44.7 25.8 58.3 26 72 C20.2 71.9 17.1 71.7 14 71.7 C10.8 71.7 7.8 71.9 4.2 72 C4.2 70.73333 4.2 69.15 4.2 68.2 z" />
<glyph unicode="^" horiz-adv-x="60.6" d="M14.7 27.5 C18.6 34.85 26.4 49.55 30.3 56.9 C34.2 49.55 42 34.85 45.9 27.5 C48.275 27.5 53.025 27.5 55.4 27.5 C50.25 37.575 39.95 57.725 34.8 67.8 C32.55 67.8 28.05 67.8 25.8 67.8 C20.65 57.725 10.35 37.575 5.2 27.5 C7.575 27.5 12.325 27.5 14.7 27.5 z" />
<glyph unicode="_" horiz-adv-x="50" d="M0 -7.5 C0 -8.75 0 -11.25 0 -12.5 C12.5 -12.5 37.5 -12.5 50 -12.5 C50 -11.25 50 -8.75 50 -7.5 C37.5 -7.5 12.5 -7.5 0 -7.5 z" />
<glyph unicode="`" horiz-adv-x="33.3" d="M20 50.6 C21.4 50.6 24.2 50.6 25.6 50.6 C22.375 54.3 15.925 61.7 12.7 65.4 C10.7 67.6 9.1 69.1 6.1 69.1 C3.3 69.1 1.8 67.1 1.8 64.7 C1.8 61.4 4.5 60.2 6.9 58.7 C11.26667 56 16.725 52.625 20 50.6 z" />
<glyph unicode="a" horiz-adv-x="50" d="M21.1 25.7 C16.8 24.8 12.3 23.6 8.6 21.1 C5.2 18.8 4 14.4 4 10.5 C4 3.4 7.7 -1.7 15.1 -1.7 C16.9 -1.7 19.1 -1.7 20.6 -0.5 C23.7 1.9 27.575 4.9 29.9 6.7 C29.775 5.15 29.525 2.05 29.4 0.5 C29.525 0.3 29.775 -0.1 29.9 -0.3 C33.4 -0.2 36.2 0 39 0 C41.9 0 44.6 -0.2 47.8 -0.3 C47.8 0.93333 47.8 2.475 47.8 3.4 C47.05 3.475 45.55 3.625 44.8 3.7 C42.8 3.9 42.2 5.3 42.1 7.8 C42 11.9 41.8 16.1 41.8 20.2 C41.8 24.3 42 28.4 42.1 32.5 C42.1 32.7 42.1 32.95 42.1 33.1 C42.1 43.3 34.2 47.1 25.6 47.1 C22.4 47.1 18.3 46.3 14 43.7 C12.23333 42.63333 10.025 41.3 8.7 40.5 C8.7 38.775 8.7 35.325 8.7 33.6 C9.45 33.425 10.95 33.075 11.7 32.9 C12.25 34.15 13.35 36.65 13.9 37.9 C14.3 38.8 17.8 39.3 19.5 39.3 C27 39.3 29.9 34.5 29.9 27.5 C26.96667 26.9 23.3 26.15 21.1 25.7 zM29.9 11.5 C28.7 9.6 24.6 7 21.6 7 C18.6 7 16.2 8.8 16.2 13 C16.2 19.5 20.1 20.6 25.4 22.1 C26.9 22.5 28.775 23 29.9 23.3 C29.9 20.35 29.9 14.45 29.9 11.5 z" />
<glyph unicode="b" horiz-adv-x="61.1" d="M21.1 71.4 C20.9 71.55 20.5 71.85 20.3 72 C18.5 71.45 14.9 70.35 13.1 69.8 C9.4 68.7 5.6 68.2 1 67.7 C1 66.5 1 65 1 64.1 C2.325 64.025 4.975 63.875 6.3 63.8 C8.7 63.6 8.9 62.5 8.9 56.8 C8.9 43.26667 8.9 26.35 8.9 16.2 C8.9 12.2 8.6 4.2 8 -0.4 C8.73333 -0.66667 9.65 -1 10.2 -1.2 C11.175 -0.4 13.125 1.2 14.1 2 C17.6 0 21.8 -1.7 27.7 -1.7 C33.1 -1.7 37.4 1.6 41.6 4.4 C45.7 7.1 50 10.1 52.4 14.9 C54.2 18.5 55.6 23 55.6 28.5 C55.6 39 48.2 47.1 37.6 47.1 C32.4 47.1 29.7 45.2 27.2 43.2 C25.16667 41.56667 22.625 39.525 21.1 38.3 C21.1 46.575 21.1 63.125 21.1 71.4 zM21.1 33.1 C22.9 36.2 26.9 38.1 30.5 38.1 C39.5 38.1 43 30.6 43 22.6 C43 15.1 40.6 5.1 31.3 5.1 C27.1 5.1 23.4 7.1 21.1 10.6 C21.1 18.1 21.1 27.475 21.1 33.1 z" />
<glyph unicode="c" horiz-adv-x="44.4" d="M39 29.7 C39.5 34.8 40.1 39.4 41 43.8 C40.76667 44.23333 40.475 44.775 40.3 45.1 C36.7 46.4 33.8 47.1 30.9 47.1 C27 47.1 24 46.8 21 45 C19.26667 43.96667 17.1 42.675 15.8 41.9 C4.3 35 3.7 29 3.7 22 C3.7 8.2 10.7 -1.7 26.3 -1.7 C30.8 -1.7 35.4 -0.5 39.3 1.7 C40 3.23333 40.875 5.15 41.4 6.3 C41.175 6.55 40.725 7.05 40.5 7.3 C37.5 6 34.9 5.4 32.3 5.4 C20.4 5.4 16.1 15.6 16.1 25.9 C16.1 32.8 17.9 40 26.1 40 C29.2 40 34.4 38.6 34.7 35.7 C34.93333 33.7 35.225 31.2 35.4 29.7 C36.3 29.7 38.1 29.7 39 29.7 z" />
<glyph unicode="d" horiz-adv-x="61.1" d="M50.8 71.4 C50.6 71.55 50.2 71.85 50 72 C48.2 71.45 44.6 70.35 42.8 69.8 C39.1 68.7 35.3 68.2 30.7 67.7 C30.7 66.5 30.7 65 30.7 64.1 C32.025 64.025 34.675 63.875 36 63.8 C38.4 63.6 38.6 62.5 38.6 56.8 C38.6 52.73333 38.6 47.65 38.6 44.6 C38.1 44.8 37.1 45.2 36.6 45.4 C33.6 46.4 31.8 47.1 28.4 47.1 C25 47.1 22.1 46 19.8 44.5 C17.4 42.93333 14.4 40.975 12.6 39.8 C6.7 35.9 4.2 30.6 4.2 20.5 C4.2 9.5 10.6 -1.7 22.7 -1.7 C24.5 -1.7 26.8 -1.7 28.2 -0.5 C31.66667 2.33333 36 5.875 38.6 8 C38.475 6.125 38.225 2.375 38.1 0.5 C38.225 0.3 38.475 -0.1 38.6 -0.3 C42.1 -0.2 44.9 0 46.6 0 C49.4 0 53.6 -0.2 57.7 -0.3 C57.7 0.93333 57.7 2.475 57.7 3.4 C56.875 3.45 55.225 3.55 54.4 3.6 C52.3 3.8 51.5 4.3 51.2 5.3 C50.9 6.3 50.8 7.6 50.8 10 C50.8 30.46667 50.8 56.05 50.8 71.4 zM38.6 16 C38.6 10.8 33 7.8 28.3 7.8 C19.5 7.8 16.8 17.9 16.8 24.9 C16.8 32.7 18.3 40.7 27.5 40.7 C31.9 40.7 36.1 38 38.6 34.4 C38.6 28.26667 38.6 20.6 38.6 16 z" />
<glyph unicode="e" horiz-adv-x="50" d="M30.3 22.3 C34.7 22.3 40.7 22.8 46.1 24.3 C46.1 26.03333 46.1 28.2 46.1 29.5 C46.1 41.2 37.7 47.1 26.6 47.1 C23.6 47.1 20.9 46.3 18.4 44.8 C16.83333 43.86667 14.875 42.7 13.7 42 C5.3 37 4.2 29.6 4.2 21.4 C4.2 7.1 12.3 -1.7 26.9 -1.7 C32.8 -1.7 36.9 -0.6 42.9 2.6 C43.63333 4.2 44.55 6.2 45.1 7.4 C44.8 7.775 44.2 8.525 43.9 8.9 C40.7 7 36.4 5.4 33.1 5.4 C22.7 5.4 17.2 12.6 17.2 22.3 C21.56667 22.3 27.025 22.3 30.3 22.3 zM25.2 41.5 C32.6 41.5 33.4 33.5 33.4 27.6 C30.6 27.5 27.8 27.3 25 27.3 C22.2 27.3 19.4 27.5 16.6 27.6 C16.6 37 19.4 41.5 25.2 41.5 z" />
<glyph unicode="f" horiz-adv-x="38.9" d="M38.1 71.4 C36.7 71.8 35.4 72 34 72 C31.4 72 29.3 71.7 24.6 67.8 C22.13333 65.73333 19.05 63.15 17.2 61.6 C12.2 57.4 11.7 55.8 11.7 47.9 C11.7 46.46667 11.7 44.675 11.7 43.6 C9.3 41.9 6.6 40.4 3.8 39.1 C3.8 38.3 3.8 37.3 3.8 36.7 C5.775 36.825 9.725 37.075 11.7 37.2 C11.7 30.4 11.7 16.8 11.7 10 C11.7 7.6 11.6 6.3 11.3 5.3 C11 4.3 9.6 3.7 7.5 3.6 C6.13333 3.53333 4.425 3.45 3.4 3.4 C3.4 2.475 3.4 0.625 3.4 -0.3 C8.9 -0.2 13.1 0 17.5 0 C22.5 0 26.7 -0.2 33.4 -0.3 C33.4 0.93333 33.4 2.475 33.4 3.4 C32.275 3.45 30.025 3.55 28.9 3.6 C26.8 3.7 24.6 4.3 24.3 5.3 C24 6.3 23.9 7.6 23.9 10 C23.9 19.06667 23.9 30.4 23.9 37.2 C27 37.2 33.2 37.2 36.3 37.2 C36.575 38.65 37.125 41.55 37.4 43 C37.3 43.2 37.1 43.6 37 43.8 C33 43.6 28.4 43.4 23.9 43.4 C23.9 47 23.9 51.5 23.9 54.2 C23.9 59.4 24 63.4 30.2 63.4 C32.3 63.4 34.6 62.2 36.5 61 C37.03333 61.23333 37.7 61.525 38.1 61.7 C38.1 64.125 38.1 68.975 38.1 71.4 z" />
<glyph unicode="g" horiz-adv-x="55.6" d="M52.9 36.8 C53.025 38.4 53.275 41.6 53.4 43.2 C50.4 42.9 47.6 42.7 44.7 42.7 C43.7 42.7 42.6 42.7 41.6 42.8 C38 45.8 31.9 47.1 26.6 47.1 C21.1 47.1 15.6 46 11.4 42.6 C7.4 39.4 4.7 34.8 4.7 29 C4.7 22.6 9 17.2 15.3 15.5 C12.93333 13.7 9.975 11.45 8.2 10.1 C6.9 8.9 6.5 7 6.5 4.9 C6.5 1.2 9.6 -0.6 13.3 -1.4 C10.6 -3 7.225 -5 5.2 -6.2 C3.4 -7.6 2.6 -9.8 2.6 -11.9 C2.6 -23.6 14.8 -26.6 24.4 -26.6 C38.9 -26.6 53.5 -19.7 53.5 -3.8 C53.5 3.8 48.9 8.2 39.4 8.2 C34.9 8.2 28.2 7.9 21.6 7.8 C18.4 7.8 17 9 17 10.7 C17 12.6 18.3 13.8 19.9 14.7 C21 14.6 22.9 14.5 24.3 14.5 C34.3 14.5 45.7 20.3 45.7 31.4 C45.7 33.1 45.7 35.1 45.2 37.2 C47.76667 37.06667 50.975 36.9 52.9 36.8 zM25.1 42.1 C32.1 42.1 33.4 35.4 33.4 29.8 C33.4 24.4 31.8 19.1 25.3 19.1 C18.6 19.1 17 26.1 17 31.4 C17 36.7 18.8 42.1 25.1 42.1 zM27.4 -21.6 C20.6 -21.6 12 -19.4 12 -11.1 C12 -6.6 15.1 -3.1 18 -2.3 C20.2 -1.7 23.9 -1.5 27.3 -1.5 C28.7 -1.5 30 -1.5 31.2 -1.6 C38.9 -2 42.4 -2.6 42.4 -10 C42.4 -17.4 33.8 -21.6 27.4 -21.6 z" />
<glyph unicode="h" horiz-adv-x="61.1" d="M9.5 10 C9.5 7.6 9.4 6.3 9.1 5.3 C8.8 4.3 8 3.8 5.9 3.6 C4.73333 3.53333 3.275 3.45 2.4 3.4 C2.4 2.475 2.4 0.625 2.4 -0.3 C6.7 -0.2 10.9 0 15.3 0 C20.3 0 24.5 -0.2 28.8 -0.3 C28.8 0.93333 28.8 2.475 28.8 3.4 C27.925 3.45 26.175 3.55 25.3 3.6 C23.2 3.8 22.4 4.3 22.1 5.3 C21.8 6.3 21.7 7.6 21.7 10 C21.7 17.23333 21.7 26.275 21.7 31.7 C21.7 34.6 25.4 38.5 29.5 38.5 C33.1 38.5 35.3 37.9 37 36.2 C38.8 34.4 39.6 31.8 39.6 26.9 C39.6 17.83333 39.6 6.5 39.6 -0.3 C42.4 -0.2 45.3 0 48.9 0 C52.1 0 55.1 -0.2 58.7 -0.3 C58.7 0.93333 58.7 2.475 58.7 3.4 C57.875 3.45 56.225 3.55 55.4 3.6 C53.3 3.8 52.5 4.3 52.2 5.3 C51.9 6.3 51.8 7.6 51.8 10 C51.8 16.2 51.8 23.95 51.8 28.6 C51.8 34.5 51.5 39.5 48.1 43.1 C45.5 45.8 41.2 47.1 37.3 47.1 C35.1 47.1 32.2 47.1 29.7 45.2 C27.03333 43.13333 23.7 40.55 21.7 39 C21.7 47.1 21.7 63.3 21.7 71.4 C21.5 71.55 21.1 71.85 20.9 72 C19.1 71.45 15.5 70.35 13.7 69.8 C10 68.7 6.2 68.2 2.4 67.7 C2.4 66.5 2.4 65 2.4 64.1 C3.525 64.025 5.775 63.875 6.9 63.8 C9.3 63.6 9.5 62.5 9.5 56.8 C9.5 41.2 9.5 21.7 9.5 10 z" />
<glyph unicode="i" horiz-adv-x="33.3" d="M10.5 10 C10.5 7.6 10.4 6.3 10.1 5.3 C9.8 4.3 9 3.8 6.9 3.6 C5.73333 3.53333 4.275 3.45 3.4 3.4 C3.4 2.475 3.4 0.625 3.4 -0.3 C7.7 -0.2 11.9 0 16.3 0 C21.3 0 25.5 -0.2 29.8 -0.3 C29.8 0.93333 29.8 2.475 29.8 3.4 C28.925 3.45 27.175 3.55 26.3 3.6 C24.2 3.8 23.4 4.3 23.1 5.3 C22.8 6.3 22.7 7.6 22.7 10 C22.7 22.16667 22.7 37.375 22.7 46.5 C22.45 46.65 21.95 46.95 21.7 47.1 C19.95 46.55 16.45 45.45 14.7 44.9 C11 43.7 7.2 43.3 3.4 42.8 C3.4 41.6 3.4 40.1 3.4 39.2 C4.525 39.125 6.775 38.975 7.9 38.9 C10.3 38.7 10.5 37.6 10.5 31.9 C10.5 24.6 10.5 15.475 10.5 10 zM16.2 70.6 C12 70.6 8.7 67.4 8.7 63 C8.7 58.9 12.2 55.6 16.2 55.6 C20.2 55.6 23.7 58.9 23.7 63 C23.7 67.4 20.4 70.6 16.2 70.6 z" />
<glyph unicode="j" horiz-adv-x="33.3" d="M10.5 -3.8 C10.5 -9.6 10.1 -14 8.8 -17.9 C7.8 -20.8 5.9 -22.3 3 -22.3 C2.23333 -22.3 1.275 -22.3 0.7 -22.3 C0.6 -22.45 0.4 -22.75 0.3 -22.9 C0.55 -23.775 1.05 -25.525 1.3 -26.4 C2.5 -26.5 3.7 -26.6 4.9 -26.6 C8.9 -26.6 13.3 -23.8 16.9 -19 C22.1 -12 22.7 -3.4 22.7 9.8 C22.7 22.03333 22.7 37.325 22.7 46.5 C22.45 46.65 21.95 46.95 21.7 47.1 C19.95 46.55 16.45 45.45 14.7 44.9 C11 43.7 7.2 43.3 3.4 42.8 C3.4 41.6 3.4 40.1 3.4 39.2 C4.525 39.125 6.775 38.975 7.9 38.9 C10.3 38.7 10.5 37.6 10.5 31.9 C10.5 20 10.5 5.125 10.5 -3.8 zM16.6 70.6 C12.4 70.6 9.1 67.4 9.1 63 C9.1 58.9 12.6 55.6 16.6 55.6 C20.6 55.6 24.1 58.9 24.1 63 C24.1 67.4 20.8 70.6 16.6 70.6 z" />
<glyph unicode="k" horiz-adv-x="61.1" d="M10 10 C10 7.6 9.9 6.3 9.6 5.3 C9.3 4.3 8.5 3.8 6.4 3.6 C5.23333 3.53333 3.775 3.45 2.9 3.4 C2.9 2.475 2.9 0.625 2.9 -0.3 C7.2 -0.2 11.4 0 15.8 0 C20.8 0 25 -0.2 29.3 -0.3 C29.3 0.93333 29.3 2.475 29.3 3.4 C28.425 3.45 26.675 3.55 25.8 3.6 C23.7 3.8 22.9 4.3 22.6 5.3 C22.3 6.3 22.2 7.6 22.2 10 C22.2 14.2 22.2 19.45 22.2 22.6 C22.45 22.6 22.95 22.6 23.2 22.6 C25.85 19.6 31.15 13.6 33.8 10.6 C36.3 7.7 41 2 42.5 0 C48.23333 0 55.4 0 59.7 0 C59.7 0.85 59.7 2.55 59.7 3.4 C57.2 3.6 55.2 5.4 54.2 6.6 C47.66667 13.93333 39.5 23.1 34.6 28.6 C37 31 39.6 33.7 42.4 35.8 C44.46667 37.3 47.05 39.175 48.6 40.3 C49.8 41.2 51.6 42.1 53.4 42.1 C54.43333 42.1 55.725 42.1 56.5 42.1 C56.5 43.05 56.5 44.95 56.5 45.9 C53.25 45.9 46.75 45.9 43.5 45.9 C40.825 43.075 35.475 37.425 32.8 34.6 C29.5 31.2 25.6 27.8 22.2 24.9 C22.2 40.4 22.2 59.775 22.2 71.4 C22 71.55 21.6 71.85 21.4 72 C19.6 71.45 16 70.35 14.2 69.8 C10.5 68.7 6.7 68.2 2.1 67.7 C2.1 66.5 2.1 65 2.1 64.1 C3.425 64.025 6.075 63.875 7.4 63.8 C9.8 63.6 10 62.5 10 56.8 C10 41.2 10 21.7 10 10 z" />
<glyph unicode="l" horiz-adv-x="33.3" d="M2.4 64.1 C3.725 64.025 6.375 63.875 7.7 63.8 C10.1 63.6 10.3 62.5 10.3 56.8 C10.3 41.2 10.3 21.7 10.3 10 C10.3 7.6 10.2 6.3 9.9 5.3 C9.6 4.3 8.8 3.8 6.7 3.6 C5.53333 3.53333 4.075 3.45 3.2 3.4 C3.2 2.475 3.2 0.625 3.2 -0.3 C7.5 -0.2 11.7 0 16.1 0 C21.1 0 25.3 -0.2 29.6 -0.3 C29.6 0.93333 29.6 2.475 29.6 3.4 C28.725 3.45 26.975 3.55 26.1 3.6 C24 3.8 23.2 4.3 22.9 5.3 C22.6 6.3 22.5 7.6 22.5 10 C22.5 30.46667 22.5 56.05 22.5 71.4 C22.3 71.55 21.9 71.85 21.7 72 C19.9 71.45 16.3 70.35 14.5 69.8 C10.8 68.7 7 68.2 2.4 67.7 C2.4 66.5 2.4 65 2.4 64.1 z" />
<glyph unicode="m" horiz-adv-x="88.9" d="M9.5 10 C9.5 7.6 9.4 6.3 9.1 5.3 C8.8 4.3 8 3.8 5.9 3.6 C4.73333 3.53333 3.275 3.45 2.4 3.4 C2.4 2.475 2.4 0.625 2.4 -0.3 C6.7 -0.2 10.9 0 15.3 0 C20.3 0 24.5 -0.2 28 -0.3 C28 0.93333 28 2.475 28 3.4 C27.325 3.45 25.975 3.55 25.3 3.6 C23.2 3.8 22.4 4.3 22.1 5.3 C21.8 6.3 21.7 7.6 21.7 10 C21.7 17.23333 21.7 26.275 21.7 31.7 C21.7 34.6 25.4 38.5 29.5 38.5 C31.9 38.5 34.1 37.9 35.8 36.2 C37.6 34.4 38.4 31.8 38.4 26.9 C38.4 21.26667 38.4 14.225 38.4 10 C38.4 7.6 38.3 6.3 38 5.3 C37.7 4.3 36.9 3.7 34.8 3.6 C33.76667 3.53333 32.475 3.45 31.7 3.4 C31.7 2.475 31.7 0.625 31.7 -0.3 C35.6 -0.2 39.8 0 44.2 0 C49.2 0 53.4 -0.2 57.7 -0.3 C57.7 0.93333 57.7 2.475 57.7 3.4 C56.825 3.45 55.075 3.55 54.2 3.6 C52.1 3.8 51.3 4.3 51 5.3 C50.7 6.3 50.6 7.6 50.6 10 C50.6 17.23333 50.6 26.275 50.6 31.7 C50.6 34.6 54.3 38.5 58.4 38.5 C60.8 38.5 63 37.9 64.7 36.2 C66.5 34.4 67.3 31.8 67.3 26.9 C67.3 17.83333 67.3 6.5 67.3 -0.3 C70.4 -0.2 73.5 0 76.6 0 C79.8 0 82.8 -0.2 86.4 -0.3 C86.4 0.93333 86.4 2.475 86.4 3.4 C85.575 3.45 83.925 3.55 83.1 3.6 C81 3.8 80.2 4.3 79.9 5.3 C79.6 6.3 79.5 7.6 79.5 10 C79.5 16.2 79.5 23.95 79.5 28.6 C79.5 41.8 76.2 47.1 65.6 47.1 C63.4 47.1 60.5 47.1 58 45.2 C55.33333 43.13333 52 40.55 50 39 C48.1 44.6 43.1 47.1 37.3 47.1 C35.1 47.1 32.2 47.1 29.7 45.2 C27.03333 43.13333 23.7 40.55 21.7 39 C21.7 40.875 21.7 44.625 21.7 46.5 C21.55 46.65 21.25 46.95 21.1 47.1 C15.2 45.2 9.3 43 2.4 42.8 C2.4 41.6 2.4 40.1 2.4 39.2 C3.525 39.125 5.775 38.975 6.9 38.9 C9.3 38.7 9.5 37.6 9.5 31.9 C9.5 24.6 9.5 15.475 9.5 10 z" />
<glyph unicode="n" horiz-adv-x="61.1" d="M9.5 10 C9.5 7.6 9.4 6.3 9.1 5.3 C8.8 4.3 8 3.8 5.9 3.6 C4.73333 3.53333 3.275 3.45 2.4 3.4 C2.4 2.475 2.4 0.625 2.4 -0.3 C6.7 -0.2 10.9 0 15.3 0 C20.3 0 24.5 -0.2 28.8 -0.3 C28.8 0.93333 28.8 2.475 28.8 3.4 C27.925 3.45 26.175 3.55 25.3 3.6 C23.2 3.8 22.4 4.3 22.1 5.3 C21.8 6.3 21.7 7.6 21.7 10 C21.7 17.23333 21.7 26.275 21.7 31.7 C21.7 34.6 25.4 38.5 29.5 38.5 C33.1 38.5 35.3 37.9 37 36.2 C38.8 34.4 39.6 31.8 39.6 27 C39.6 17.9 39.6 6.525 39.6 -0.3 C42.4 -0.2 45.3 0 48.9 0 C52.1 0 55.1 -0.2 58.7 -0.3 C58.7 0.93333 58.7 2.475 58.7 3.4 C57.875 3.45 56.225 3.55 55.4 3.6 C53.3 3.8 52.5 4.3 52.2 5.3 C51.9 6.3 51.8 7.6 51.8 10 C51.8 16.2 51.8 23.95 51.8 28.6 C51.8 34.5 51.5 39.5 48.1 43.1 C45.5 45.8 41.2 47.1 37.3 47.1 C35.1 47.1 32.2 47.1 29.7 45.2 C27.03333 43.13333 23.7 40.55 21.7 39 C21.7 40.875 21.7 44.625 21.7 46.5 C21.55 46.65 21.25 46.95 21.1 47.1 C15.2 45.2 9.3 43 2.4 42.8 C2.4 41.6 2.4 40.1 2.4 39.2 C3.525 39.125 5.775 38.975 6.9 38.9 C9.3 38.7 9.5 37.6 9.5 31.9 C9.5 24.6 9.5 15.475 9.5 10 z" />
<glyph unicode="o" horiz-adv-x="55.6" d="M28.5 47.1 C12.5 47.1 4 38 4 22.5 C4 8.4 11 -1.7 26.4 -1.7 C43 -1.7 51.7 7.6 51.7 23.7 C51.7 38.6 43.8 47.1 28.5 47.1 zM28.6 3.1 C18.3 3.1 17.6 17.6 17.6 24.9 C17.6 31.9 18.2 42.3 27.6 42.3 C38 42.3 38.1 26.6 38.1 19.6 C38.1 13.2 37.4 3.1 28.6 3.1 z" />
<glyph unicode="p" horiz-adv-x="61.1" d="M10 -15.5 C10 -17.9 9.9 -19.2 9.6 -20.2 C9.3 -21.2 8.5 -21.7 6.4 -21.9 C5.23333 -21.96667 3.775 -22.05 2.9 -22.1 C2.9 -23.025 2.9 -24.875 2.9 -25.8 C7.2 -25.7 11.4 -25.5 15.8 -25.5 C20.8 -25.5 25 -25.7 30.3 -25.8 C30.3 -24.56667 30.3 -23.025 30.3 -22.1 C29.175 -22.05 26.925 -21.95 25.8 -21.9 C23.7 -21.8 22.9 -21.2 22.6 -20.2 C22.3 -19.2 22.2 -17.9 22.2 -15.5 C22.2 -10.33333 22.2 -3.875 22.2 0 C24.9 -0.8 28 -1.7 31.1 -1.7 C33.5 -1.7 36 -0.7 39.3 1.4 C42.1 3.2 44.7 5.4 47.1 7.2 C49.6 9.1 52.7 12.6 54.4 17 C55.7 20.3 56.7 24.4 56.7 28.5 C56.7 39 49.3 47.1 38.7 47.1 C33.5 47.1 30.8 45.2 28.3 43.2 C26.26667 41.56667 23.725 39.525 22.2 38.3 C22.2 40.35 22.2 44.45 22.2 46.5 C21.95 46.65 21.45 46.95 21.2 47.1 C19.45 46.55 15.95 45.45 14.2 44.9 C10.5 43.7 6.7 43.3 2.9 42.8 C2.9 41.6 2.9 40.1 2.9 39.2 C4.025 39.125 6.275 38.975 7.4 38.9 C9.8 38.7 10 37.6 10 31.9 C10 16.1 10 -3.65 10 -15.5 zM22.2 33.1 C24 36.2 28 38.1 31.6 38.1 C40.6 38.1 44.1 30.6 44.1 22.6 C44.1 15.1 41.7 5.1 32.4 5.1 C28.2 5.1 24.5 7.1 22.2 10.6 C22.2 18.1 22.2 27.475 22.2 33.1 z" />
<glyph unicode="q" horiz-adv-x="61.1" d="M39.6 -15.5 C39.6 -17.9 39.5 -19.2 39.2 -20.2 C38.9 -21.2 38.1 -21.7 36 -21.9 C34.83333 -21.96667 33.375 -22.05 32.5 -22.1 C32.5 -23.025 32.5 -24.875 32.5 -25.8 C36.8 -25.7 41 -25.5 45.4 -25.5 C50.4 -25.5 54.6 -25.7 58.9 -25.8 C58.9 -24.56667 58.9 -23.025 58.9 -22.1 C58.025 -22.05 56.275 -21.95 55.4 -21.9 C53.3 -21.7 52.5 -21.2 52.2 -20.2 C51.9 -19.2 51.8 -17.9 51.8 -15.5 C51.8 0.46667 51.8 20.425 51.8 32.4 C51.8 37.4 52.7 41.9 53.4 45.4 C52.7 45.86667 51.825 46.45 51.3 46.8 C50 45.75 47.4 43.65 46.1 42.6 C45.55 42.875 44.45 43.425 43.9 43.7 C39.4 45.9 35.4 47.1 32.4 47.1 C29 47.1 26.2 45.9 23.2 44.4 C19.5 42.6 15.5 40.5 12.4 38.2 C6.6 33.9 5.2 28 5.2 20.5 C5.2 8.8 11.3 -1.7 24 -1.7 C25.9 -1.7 28.4 -1.5 30 -0.2 C33.2 2.36667 37.2 5.575 39.6 7.5 C39.6 1.75 39.6 -9.75 39.6 -15.5 zM39.6 16 C39.6 10.8 34 7.8 29.3 7.8 C20.5 7.8 17.8 17.9 17.8 24.9 C17.8 32.7 19.3 40.7 28.5 40.7 C32.9 40.7 37.1 38 39.6 34.4 C39.6 28.26667 39.6 20.6 39.6 16 z" />
<glyph unicode="r" horiz-adv-x="38.9" d="M10.1 10 C10.1 7.6 10 6.3 9.7 5.3 C9.4 4.3 8.6 3.8 6.5 3.6 C5.33333 3.53333 3.875 3.45 3 3.4 C3 2.475 3 0.625 3 -0.3 C7.3 -0.2 11.5 0 15.9 0 C20.9 0 25.1 -0.2 31 -0.3 C31 0.93333 31 2.475 31 3.4 C30.025 3.45 28.075 3.55 27.1 3.6 C25 3.7 23 4.3 22.7 5.3 C22.4 6.3 22.3 7.6 22.3 10 C22.3 16.6 22.3 24.85 22.3 29.8 C22.3 32.6 26.2 36.2 30.1 36.2 C32.7 36.2 34.8 35 36 32.6 C36.8 32.93333 37.8 33.35 38.4 33.6 C38.525 36.825 38.775 43.275 38.9 46.5 C37.8 47 36.4 47.1 34.6 47.1 C31.8 47.1 29.6 44.9 26.7 41.8 C25.23333 40.2 23.4 38.2 22.3 37 C22.3 39.375 22.3 44.125 22.3 46.5 C22.05 46.65 21.55 46.95 21.3 47.1 C19.55 46.55 16.05 45.45 14.3 44.9 C10.6 43.7 6.8 43.3 3 42.8 C3 41.6 3 40.1 3 39.2 C4.125 39.125 6.375 38.975 7.5 38.9 C9.9 38.7 10.1 37.6 10.1 31.9 C10.1 24.6 10.1 15.475 10.1 10 z" />
<glyph unicode="s" horiz-adv-x="44.4" d="M36.2 32.6 C36.4 35.65 36.8 41.75 37 44.8 C33.4 46.6 29 47.1 24.5 47.1 C12.8 47.1 3.9 42.9 3.9 31.5 C3.9 25.2 7.5 20.9 14.5 19.2 C17.36667 18.5 20.95 17.625 23.1 17.1 C26.8 16.2 29.4 15 29.4 10.6 C29.4 5.8 25.3 3.1 20.8 3.1 C16.1 3.1 11.9 4.5 9 8.3 C8.83333 10.6 8.625 13.475 8.5 15.2 C7.525 15.2 5.575 15.2 4.6 15.2 C4.425 11.675 4.075 4.625 3.9 1.1 C9.1 -0.8 14.3 -1.7 19.5 -1.7 C29.8 -1.7 40.5 3.7 40.5 15.3 C40.5 23.5 35.9 26.6 27.8 28.4 C25.06667 29 21.65 29.75 19.6 30.2 C15.8 31 14.1 32.6 14.1 35.8 C14.1 40.1 17.6 42.3 23.4 42.3 C26.6 42.3 31.2 40.5 31.6 38.4 C31.93333 36.46667 32.35 34.05 32.6 32.6 C33.5 32.6 35.3 32.6 36.2 32.6 z" />
<glyph unicode="t" horiz-adv-x="33.3" d="M8.6 11 C8.6 2 12.3 -1.7 21.4 -1.7 C24.6 -1.7 26.8 -0.8 27.5 0.1 C29.13333 2.06667 31.175 4.525 32.4 6 C32.2 6.475 31.8 7.425 31.6 7.9 C30.2 7.2 29.1 6.6 27 6.6 C22.5 6.6 20.8 8 20.8 13.1 C20.8 21.03333 20.8 30.95 20.8 36.9 C23.45 36.9 28.75 36.9 31.4 36.9 C31.6 38.525 32 41.775 32.2 43.4 C29.35 43.25 23.65 42.95 20.8 42.8 C20.8 44.25 20.8 47.15 20.8 48.6 C20.8 53.2 21.2 58.2 22 62.2 C21.53333 62.53333 20.95 62.95 20.6 63.2 C17.6 61.8 12.8 59.8 8.4 58.2 C8.6 55.1 8.8 52.1 8.8 49 C8.8 47 8.8 44.5 8.8 43 C7.15 41.925 3.85 39.775 2.2 38.7 C2.2 38.15 2.2 37.05 2.2 36.5 C3.8 36.6 7 36.8 8.6 36.9 C8.6 30.425 8.6 17.475 8.6 11 z" />
<glyph unicode="u" horiz-adv-x="61.1" d="M9.6 14 C9.6 4.5 14.2 -1.7 25.2 -1.7 C27.6 -1.7 30.2 -0.8 31.6 0.6 C34.13333 3.06667 37.3 6.15 39.2 8 C39.075 5.925 38.825 1.775 38.7 -0.3 C42.7 -0.2 45.5 0 47.2 0 C50 0 54.2 -0.2 58.3 -0.3 C58.3 0.93333 58.3 2.475 58.3 3.4 C57.475 3.45 55.825 3.55 55 3.6 C52.9 3.8 52.1 4.3 51.8 5.3 C51.5 6.3 51.4 7.6 51.4 10 C51.4 22.16667 51.4 37.375 51.4 46.5 C51.15 46.65 50.65 46.95 50.4 47.1 C48.65 46.55 45.15 45.45 43.4 44.9 C39.7 43.7 35.9 43.3 32.1 42.8 C32.1 41.6 32.1 40.1 32.1 39.2 C33.225 39.125 35.475 38.975 36.6 38.9 C39 38.7 39.2 37.6 39.2 31.9 C39.2 26.7 39.2 20.2 39.2 16.3 C39.2 15 39 13.5 38.3 12.4 C36.5 9.5 33.3 7.3 29.9 7.3 C22.2 7.3 21.8 13.9 21.8 20.4 C21.8 29.1 21.8 39.975 21.8 46.5 C21.55 46.65 21.05 46.95 20.8 47.1 C19.05 46.55 15.55 45.45 13.8 44.9 C10.1 43.7 6.3 43.3 2.5 42.8 C2.5 41.6 2.5 40.1 2.5 39.2 C3.625 39.125 5.875 38.975 7 38.9 C9.4 38.7 9.6 37.6 9.6 31.9 C9.6 25.93333 9.6 18.475 9.6 14 z" />
<glyph unicode="v" horiz-adv-x="55.6" d="M22.7 -0.3 C24.85 -0.3 29.15 -0.3 31.3 -0.3 C32.5 3 33.7 6.3 35.1 9.4 C39.36667 19 44.7 31 47.9 38.2 C48.6 39.9 49.6 41.3 51.5 41.6 C52.5 41.76667 53.75 41.975 54.5 42.1 C54.5 43.05 54.5 44.95 54.5 45.9 C51.3 45.8 48.1 45.6 44.9 45.6 C41.7 45.6 38.4 45.8 35.2 45.9 C35.2 44.63333 35.2 43.05 35.2 42.1 C36.15 42.05 38.05 41.95 39 41.9 C39.9 41.9 41.3 41.3 41.3 40.3 C41.3 39.3 41.2 38.1 40.4 36.1 C38.36667 31.06667 35.825 24.775 34.3 21 C33.2 18.3 32 15.6 30.8 13 C27.86667 20.36667 24.2 29.575 22 35.1 C21.2 37.1 20.6 38.9 20.6 40.1 C20.6 41.4 21.6 41.8 22.9 41.9 C24.26667 41.96667 25.975 42.05 27 42.1 C27 43.05 27 44.95 27 45.9 C22.7 45.8 18.4 45.6 14.1 45.6 C9.8 45.6 5.4 45.8 1.1 45.9 C1.1 44.63333 1.1 43.05 1.1 42.1 C1.725 42.05 2.975 41.95 3.6 41.9 C5.8 41.7 7.1 38.8 8.4 35.7 C13.16667 23.7 19.125 8.7 22.7 -0.3 z" />
<glyph unicode="w" horiz-adv-x="83.3" d="M19.4 -0.3 C21.375 -0.3 25.325 -0.3 27.3 -0.3 C29 4 30.4 8.4 32.4 12.6 C35.26667 18.53333 38.85 25.95 41 30.4 C44.3 22.725 50.9 7.375 54.2 -0.3 C56.225 -0.3 60.275 -0.3 62.3 -0.3 C63.5 3.5 64.5 7.4 65.8 11.2 C68.86667 19.86667 72.7 30.7 75 37.2 C76.1 40.2 77.1 41.8 78.6 41.9 C79.73333 41.96667 81.15 42.05 82 42.1 C82 43.05 82 44.95 82 45.9 C78.6 45.8 75.3 45.6 71.9 45.6 C68.5 45.6 65.2 45.8 61.8 45.9 C61.8 44.63333 61.8 43.05 61.8 42.1 C62.85 42.05 64.95 41.95 66 41.9 C67.4 41.8 68.9 41.3 68.9 39.7 C68.9 39.2 68.8 38.6 68.6 37.9 C67.4 34.13333 65.9 29.425 65 26.6 C63.8 22.7 62.4 18.9 61.1 15.4 C56.5 25.96667 50.75 39.175 47.3 47.1 C46.05 47.1 43.55 47.1 42.3 47.1 C40.125 42.225 35.775 32.475 33.6 27.6 C31.8 23.5 29.8 19.5 28 15.4 C27.93333 15.4 27.85 15.4 27.8 15.4 C26.35 21 23.45 32.2 22 37.8 C21.8 38.6 21.8 39.4 21.8 40.1 C21.8 41 22.8 41.9 23.7 41.9 C25.26667 41.96667 27.225 42.05 28.4 42.1 C28.4 43.05 28.4 44.95 28.4 45.9 C23.9 45.8 19.4 45.6 14.9 45.6 C10.4 45.6 5.8 45.8 1.3 45.9 C1.3 44.63333 1.3 43.05 1.3 42.1 C2.125 42.05 3.775 41.95 4.6 41.9 C6.6 41.8 7.9 40.9 8.7 38.1 C12.26667 25.3 16.725 9.3 19.4 -0.3 z" />
<glyph unicode="x" horiz-adv-x="50" d="M20 21 C17.25 17.5 11.75 10.5 9 7 C7.3 4.9 5.4 3.6 2.1 3.4 C2.1 2.26667 2.1 0.85 2.1 0 C4.375 0 8.925 0 11.2 0 C12.9 2.6 14.6 5.3 16.4 7.8 C18.53333 10.73333 21.2 14.4 22.8 16.6 C25.3 12.375 30.3 3.925 32.8 -0.3 C35.4 -0.2 38 0 40.6 0 C43.2 0 45.7 -0.2 48.3 -0.3 C48.3 0.93333 48.3 2.475 48.3 3.4 C44.8 3.6 42.4 6.8 39.7 11.3 C36.73333 16.36667 33.025 22.7 30.8 26.5 C33.225 29.35 38.075 35.05 40.5 37.9 C42.9 40.7 44.2 42.2 48.3 42.2 C48.3 43.43333 48.3 44.975 48.3 45.9 C45.925 45.9 41.175 45.9 38.8 45.9 C36.1 42.15 30.7 34.65 28 30.9 C26.7 33.025 24.1 37.275 22.8 39.4 C21.1 42.2 18.8 45.4 16.6 47.1 C13.6 46.3 4.9 44.4 2 43.9 C2.26667 42.7 2.6 41.2 2.8 40.3 C3.3 40.3 3.8 40.4 4.3 40.4 C7.1 40.4 9.1 39.6 12 34.6 C14.66667 30.06667 18 24.4 20 21 z" />
<glyph unicode="y" horiz-adv-x="55.6" d="M23.1 34.3 C22.1 36.8 21.4 38 21.4 39.6 C21.4 41 22.6 41.8 24 41.9 C25.16667 41.96667 26.625 42.05 27.5 42.1 C27.5 43.05 27.5 44.95 27.5 45.9 C23.1 45.8 18.7 45.6 14.3 45.6 C9.9 45.6 5.4 45.8 1 45.9 C1 44.63333 1 43.05 1 42.1 C1.875 42.05 3.625 41.95 4.5 41.9 C6 41.8 7.3 40 8.7 36.4 C13.96667 22.93333 20.55 6.1 24.5 -4 C23.925 -5.4 22.775 -8.2 22.2 -9.6 C20.3 -14.2 17 -18.7 13.2 -18.7 C10.2 -18.7 7.9 -17.3 6 -15 C5.63333 -15.13333 5.175 -15.3 4.9 -15.4 C4.45 -17.775 3.55 -22.525 3.1 -24.9 C5.3 -25.9 7.9 -26.6 10.4 -26.6 C21 -26.6 26.3 -13.3 28 -9.4 C34.63333 6.03333 42.925 25.325 47.9 36.9 C49.1 39.7 50.6 41.3 52 41.6 C52.86667 41.76667 53.95 41.975 54.6 42.1 C54.6 43.05 54.6 44.95 54.6 45.9 C51.5 45.8 48.4 45.6 45.3 45.6 C42.2 45.6 39.1 45.8 36 45.9 C36 44.63333 36 43.05 36 42.1 C36.825 42.05 38.475 41.95 39.3 41.9 C40.6 41.8 42 41.2 42 40 C42 39.4 41.9 38.5 41.6 37.7 C38.23333 29.3 34.025 18.8 31.5 12.5 C29.4 17.95 25.2 28.85 23.1 34.3 z" />
<glyph unicode="z" horiz-adv-x="50" d="M45.4 42.4 C45.4 43.275 45.4 45.025 45.4 45.9 C41.3 45.7 37.1 45.4 33 45.4 C24.2 45.4 15.5 45.7 6.5 45.9 C6.26667 45.73333 5.975 45.525 5.8 45.4 C5.725 42.05 5.575 35.35 5.5 32 C6.45 32 8.35 32 9.3 32 C9.375 32.625 9.525 33.875 9.6 34.5 C10.2 39.2 11.4 40.4 17.2 40.4 C21.13333 40.4 26.05 40.4 29 40.4 C24.75 34.45 16.25 22.55 12 16.6 C8.7 12 5.1 7.5 1.6 3 C1.6 1.9 1.6 0.525 1.6 -0.3 C5.8 -0.2 11 0 16.2 0 C24.3 0 33.5 -0.2 44.7 -0.3 C44.86667 -0.13333 45.075 0.075 45.2 0.2 C45.2 4.4 45.8 11.4 46.4 15.5 C45.06667 15.5 43.4 15.5 42.4 15.5 C42.275 14.725 42.025 13.175 41.9 12.4 C41 6.8 39.8 5.5 34.9 5.5 C29.46667 5.5 22.675 5.5 18.6 5.5 C25.3 14.725 38.7 33.175 45.4 42.4 z" />
<glyph unicode="{" horiz-adv-x="31" d="M9.6 41.4 C9.6 33.9 7.6 32.1 0.5 30.3 C0.5 30.23333 0.5 30.15 0.5 30.1 C7.6 28.3 9.6 26.5 9.6 19 C9.6 13.2 9.6 5.95 9.6 1.6 C9.6 -11.1 18 -11.7 28.8 -11.7 C28.8 -11.63333 28.8 -11.55 28.8 -11.5 C21.8 -9.7 19.3 -7.3 19.3 0.2 C19.3 5.76667 19.3 12.725 19.3 16.9 C19.3 24 18.1 28.4 9.5 30.1 C9.5 30.16667 9.5 30.25 9.5 30.3 C17.8 32 19.3 36 19.3 42.9 C19.3 48.8 19.3 56.175 19.3 60.6 C19.3 68.1 21.8 70.5 28.8 72.3 C28.8 72.36667 28.8 72.45 28.8 72.5 C18 72.5 9.6 71.9 9.6 59.2 C9.6 53.26667 9.6 45.85 9.6 41.4 z" />
<glyph unicode="|" horiz-adv-x="60.6" d="M26 75 C26 50 26 0 26 -25 C28.15 -25 32.45 -25 34.6 -25 C34.6 0 34.6 50 34.6 75 C32.45 75 28.15 75 26 75 z" />
<glyph unicode="}" horiz-adv-x="31" d="M21.4 59.2 C21.4 71.9 13 72.5 2.2 72.5 C2.2 72.43333 2.2 72.35 2.2 72.3 C9.2 70.5 11.7 68.1 11.7 60.6 C11.7 54.7 11.7 47.325 11.7 42.9 C11.7 36 13.2 32 21.5 30.3 C21.5 30.23333 21.5 30.15 21.5 30.1 C12.9 28.4 11.7 24 11.7 16.9 C11.7 11.33333 11.7 4.375 11.7 0.2 C11.7 -7.3 9.2 -9.7 2.2 -11.5 C2.2 -11.56667 2.2 -11.65 2.2 -11.7 C13 -11.7 21.4 -11.1 21.4 1.6 C21.4 7.4 21.4 14.65 21.4 19 C21.4 26.5 23.4 28.3 30.5 30.1 C30.5 30.16667 30.5 30.25 30.5 30.3 C23.4 32.1 21.4 33.9 21.4 41.4 C21.4 47.33333 21.4 54.75 21.4 59.2 z" />
<glyph unicode="~" horiz-adv-x="60.6" d="M50.7 34.2 C48.8 30.7 45.7 26.1 41.3 26.1 C38.8 26.1 35.2 27.8 31.2 29.6 C27.3 31.3 23.2 33 19.6 33 C12.4 33 8.2 26.7 5.1 21 C6.7 19.16667 8.7 16.875 9.9 15.5 C12 19.2 14.6 24.3 19.5 24.3 C22.4 24.3 25.2 22.8 27.8 21.8 C31.1 20.5 36.6 17.4 41.1 17.4 C48.2 17.4 52.4 23.2 55.5 28.7 C53.9 30.53333 51.9 32.825 50.7 34.2 z" />
<glyph unicode="" horiz-adv-x="25" d="" />
<glyph unicode="" horiz-adv-x="27.8" d="M11.5 -22.7 C14 -21.6 19 -19.4 21.5 -18.3 C21.4 -15.4 21.4 -13 21.1 -10.4 C19.53333 1.53333 17.575 16.45 16.4 25.4 C16.275 25.6 16.025 26 15.9 26.2 C14.95 25.675 13.05 24.625 12.1 24.1 C10.85 14.8 8.35 -3.8 7.1 -13.1 C6.7 -15.9 6.4 -19.1 6.4 -22.7 C8.1 -22.7 10.225 -22.7 11.5 -22.7 zM13.7 47.1 C9.6 47.1 5.9 43.3 5.9 39.1 C5.9 34.9 9.6 31.5 13.7 31.5 C17.9 31.5 21.5 35.3 21.5 39.1 C21.5 43.4 17.8 47.1 13.7 47.1 z" />
<glyph unicode="" horiz-adv-x="50" d="M23 12.4 C20.5 17 19.6 21.6 19.6 26 C19.6 33.5 21.4 40.1 29.5 40.1 C30.1 40.1 30.7 40.1 31.3 40 C28.53333 30.8 25.075 19.3 23 12.4 zM40.3 55.4 C39.275 55.4 37.225 55.4 36.2 55.4 C35.55 53.45 34.25 49.55 33.6 47.6 C30.4 47.6 25.8 45.9 21.8 43.4 C20.06667 42.3 17.9 40.925 16.6 40.1 C14.5 38.8 11.5 36.8 10.3 34.5 C7.9 30 7.3 26.1 7.3 21 C7.3 12 10.5 3.9 19.2 0 C18 -3.53333 16.5 -7.95 15.6 -10.6 C16.65 -10.6 18.75 -10.6 19.8 -10.6 C20.6 -8.225 22.2 -3.475 23 -1.1 C25.5 -1.4 27.7 -1.7 29.9 -1.7 C34.3 -1.7 38.6 -0.6 42.5 1.3 C42.63333 1.43333 42.8 1.6 42.9 1.7 C43.425 2.875 44.475 5.225 45 6.4 C44.775 6.675 44.325 7.225 44.1 7.5 C41 5.8 38.3 5.5 35.6 5.5 C32.2 5.5 28.7 6.4 26.2 8.7 C29.23333 18.76667 33.025 31.35 35.3 38.9 C36.5 38.6 38.2 37.2 38.4 35.6 C38.6 33.6 38.85 31.1 39 29.6 C39.95 29.6 41.85 29.6 42.8 29.6 C43 34.4 43.8 41 44.6 44.4 C44.43333 44.7 44.225 45.075 44.1 45.3 C42.6 46.1 40.4 46.7 37.8 47.3 C38.63333 50 39.675 53.375 40.3 55.4 z" />
<glyph unicode="" horiz-adv-x="50" d="M1.6 36.3 C1.6 35.225 1.6 33.075 1.6 32 C3.85 32 8.35 32 10.6 32 C10.6 26.7 10.3 21.5 9.8 16.2 C9.5 13 7.8 10.5 6.2 9.2 C4.06667 7.46667 1.4 5.3 -0.2 4 C0.3 2.525 1.3 -0.425 1.8 -1.9 C3.8 -1.4 5.4 0 6.6 1 C7.7 1.9 9.4 3.2 11.2 3.2 C15 3.2 19.6 2.4 24.6 1 C28.8 -0.2 34 -1.4 40 -1.6 C40.23333 -1.6 40.525 -1.6 40.7 -1.6 C43.5 -1.6 46.6 -1.1 49.1 -0.1 C49.43333 5.86667 49.85 13.325 50.1 17.8 C49.25 17.8 47.55 17.8 46.7 17.8 C46.425 16.4 45.875 13.6 45.6 12.2 C45.2 10.2 43 9.2 40.8 9.2 C38.5 9.2 35.1 9.6 31 10.2 C27.6 10.7 24.3 11.2 21.9 11.2 C18.9 11.2 16.2 10.6 12.2 9.4 C12.13333 9.46667 12.05 9.55 12 9.6 C17.4 15 21.4 22.4 23.1 32 C28.86667 32 36.075 32 40.4 32 C40.4 33.075 40.4 35.225 40.4 36.3 C36.2 36.3 27.8 36.3 23.6 36.3 C23.8 38.8 24.2 43.8 24.4 46.3 C25 53.5 26.2 61 35.5 61 C40.4 61 43.3 58.4 43.6 54.8 C43.7 53.63333 43.825 52.175 43.9 51.3 C44.675 51.3 46.225 51.3 47 51.3 C47.25 54.7 47.75 61.5 48 64.9 C46 66.8 42.5 67.6 39.6 67.6 C36 67.6 29.5 65.4 23.8 61.6 C14.8 55.6 10.6 49 10.6 40.6 C10.6 39.16667 10.6 37.375 10.6 36.3 C8.35 36.3 3.85 36.3 1.6 36.3 z" />
<glyph unicode="" horiz-adv-x="50" d="M3.2 14.1 C4.325 12.975 6.575 10.725 7.7 9.6 C8.9 10.8 11.3 13.2 12.5 14.4 C15.6 11.6 20.2 10.2 25.2 10.2 C29.8 10.2 34.5 11.7 37.5 14.5 C39.06667 12.86667 41.025 10.825 42.2 9.6 C43.325 10.725 45.575 12.975 46.7 14.1 C45.55 15.3 43.25 17.7 42.1 18.9 C44.7 22.1 46.1 26.7 46.1 31.4 C46.1 36 44.7 40.8 42.2 43.6 C43.73333 45.2 45.65 47.2 46.8 48.4 C45.575 49.625 43.125 52.075 41.9 53.3 C40.7 52.075 38.3 49.625 37.1 48.4 C34.3 50.8 29.7 52.4 25.2 52.4 C20.5 52.4 15.6 50.8 12.7 48.3 C11.1 49.9 9.1 51.9 7.9 53.1 C6.725 51.925 4.375 49.575 3.2 48.4 C4.425 47.175 6.875 44.725 8.1 43.5 C5.2 40.6 3.9 35.9 3.9 31.2 C3.9 26.5 5.3 22.2 8.1 19 C6.46667 17.36667 4.425 15.325 3.2 14.1 zM25.2 17.8 C17.8 17.8 11.6 23.8 11.6 31.2 C11.6 38.7 17.8 44.7 25.2 44.7 C32.5 44.7 38.4 38.5 38.4 31.4 C38.4 24.1 32.5 17.8 25.2 17.8 z" />
<glyph unicode="" horiz-adv-x="50" d="M21.5 13.5 C21.5 9.3 21.4 6.6 21 5.4 C20.8 4.6 20 4.2 18 4 C17.13333 3.9 16.05 3.775 15.4 3.7 C15.4 2.7 15.4 0.7 15.4 -0.3 C18.4 -0.2 22.4 0 26.7 0 C31 0 35 -0.2 37.8 -0.3 C37.8 1.03333 37.8 2.7 37.8 3.7 C37.15 3.775 35.85 3.925 35.2 4 C33.2 4.2 32.4 4.6 32.2 5.4 C31.8 6.6 31.7 9.3 31.7 13.5 C31.7 15.86667 31.7 18.825 31.7 20.6 C35.425 20.6 42.875 20.6 46.6 20.6 C46.6 21.6 46.6 23.6 46.6 24.6 C42.875 24.6 35.425 24.6 31.7 24.6 C31.7 25.55 31.7 27.45 31.7 28.4 C31.7 30.4 32.4 32.6 33.2 34.2 C37.66667 34.2 43.25 34.2 46.6 34.2 C46.6 35.2 46.6 37.2 46.6 38.2 C43.65 38.2 37.75 38.2 34.8 38.2 C38.175 45.125 44.925 58.975 48.3 65.9 C48.3 66.375 48.3 67.325 48.3 67.8 C46.9 67.8 44.1 67.8 42.7 67.8 C39.375 59.75 32.725 43.65 29.4 35.6 C27.4 40.675 23.4 50.825 21.4 55.9 C19.3 61.1 17.1 66.4 13.2 69.5 C9.36667 68.3 4.575 66.8 1.7 65.9 C1.7 64.975 1.7 63.125 1.7 62.2 C4.1 62.2 5.6 61.4 7.3 58.9 C8.6 57 10.1 54.4 11.1 52.2 C13.2 47.53333 15.825 41.7 17.4 38.2 C14.7 38.2 9.3 38.2 6.6 38.2 C6.6 37.2 6.6 35.2 6.6 34.2 C9.725 34.2 15.975 34.2 19.1 34.2 C20 32.6 21.5 30.4 21.5 28.6 C21.5 27.26667 21.5 25.6 21.5 24.6 C17.775 24.6 10.325 24.6 6.6 24.6 C6.6 23.6 6.6 21.6 6.6 20.6 C10.325 20.6 17.775 20.6 21.5 20.6 C21.5 18.825 21.5 15.275 21.5 13.5 z" />
<glyph unicode="" horiz-adv-x="60.6" d="M26 67.5 C26 58.75 26 41.25 26 32.5 C28.15 32.5 32.45 32.5 34.6 32.5 C34.6 41.25 34.6 58.75 34.6 67.5 C32.45 67.5 28.15 67.5 26 67.5 zM26 17.5 C26 8.75 26 -8.75 26 -17.5 C28.15 -17.5 32.45 -17.5 34.6 -17.5 C34.6 -8.75 34.6 8.75 34.6 17.5 C32.45 17.5 28.15 17.5 26 17.5 z" />
<glyph unicode="" horiz-adv-x="50" d="M40.7 51.5 C41 56.8 41.6 62.8 42.4 66.2 C38.3 68.3 33.7 69.5 29.1 69.5 C24 69.5 17.3 67.2 13.6 63.6 C9.6 59.7 6.1 53 6.1 47.3 C6.1 43.4 7.7 39.6 10.8 37.2 C10.16667 36.6 9.375 35.85 8.9 35.4 C4.8 31.5 3 28.7 3 22.9 C3 13.7 10.4 10.4 17.9 7.9 C19.93333 7.23333 22.475 6.4 24 5.9 C29.5 4.1 37.5 2 37.5 -5.2 C37.5 -10 31.4 -15.6 24.2 -15.6 C19.6 -15.6 13.9 -13.9 11 -10.1 C10.4 -8.3 10.1 -5.6 10.1 -3.4 C10.1 -2.8 10.2 -2.2 10.2 -1.7 C8.9 -1.7 7.275 -1.7 6.3 -1.7 C5.8 -7.8 5.4 -13.6 4.9 -17.2 C9.9 -20.7 15.5 -21.7 20.8 -21.7 C27 -21.7 32.2 -19.7 36.9 -15.8 C41.6 -11.9 45.5 -5.9 45.5 0.4 C45.5 5.3 44.1 8.7 40 11.5 C44.8 16.3 47.1 19.5 47.1 26.5 C47.1 38.4 36.2 40 31 41.6 C29.23333 42.13333 27.025 42.8 25.7 43.2 C20.7 44.6 13.1 46.7 13.1 53.2 C13.1 59.9 20.6 62.6 26.2 62.6 C28.8 62.6 34.6 61.7 36.2 59.5 C36.6 58.3 36.9 55.3 36.9 52.5 C36.9 52.16667 36.9 51.75 36.9 51.5 C37.85 51.5 39.75 51.5 40.7 51.5 zM28.2 30.7 C33.6 28.9 39.7 26.5 39.7 19.7 C39.7 17.8 38.6 15.3 36.8 13.1 C32.36667 14.73333 26.825 16.775 23.5 18 C21.4 18.8 19.2 19.8 17.1 20.7 C14.2 22 10.4 24.6 10.4 28.1 C10.4 30.7 12.2 33.6 13.9 35.5 C18.66667 33.9 24.625 31.9 28.2 30.7 z" />
<glyph unicode="" horiz-adv-x="33.3" d="M5.9 69 C2.2 69 -0.8 66 -0.8 62.3 C-0.8 58.6 2.2 55.6 5.9 55.6 C9.6 55.6 12.6 58.6 12.6 62.3 C12.6 66 9.6 69 5.9 69 zM27.4 69 C23.7 69 20.7 66 20.7 62.3 C20.7 58.6 23.7 55.6 27.4 55.6 C31.1 55.6 34.1 58.6 34.1 62.3 C34.1 66 31.1 69 27.4 69 z" />
<glyph unicode="" horiz-adv-x="74.7" d="M37.2 69.5 C18.1 69.5 2.6 53.5 2.6 33.8 C2.6 14.2 18.1 -1.7 37.2 -1.7 C56.4 -1.7 72 14.2 72 33.8 C72 53.6 56.4 69.5 37.2 69.5 zM37.2 63.9 C53.4 63.9 66.4 50.6 66.4 33.9 C66.4 17.4 53.3 3.9 37.2 3.9 C21.2 3.9 8.2 17.4 8.2 33.9 C8.2 50.5 21.1 63.9 37.2 63.9 zM51.9 50.7 C49.9 51.5 47.5 52 45.3 52.5 C42.6 53.1 41.2 53.5 38.3 53.5 C26.7 53.5 18.8 45.1 18.8 33.3 C18.8 22.1 26 13.7 37.2 13.7 C43.5 13.7 50.6 16.7 53.1 22.9 C52.23333 23.26667 51.15 23.725 50.5 24 C50.3 23.65 49.9 22.95 49.7 22.6 C47.8 19.3 43.7 17.6 40.1 17.6 C30.8 17.6 27.3 27.3 27.3 35.1 C27.3 42.4 31 50 39.1 50 C44.9 50 47.9 45.6 48.7 40.3 C49.76667 40.3 51.1 40.3 51.9 40.3 C51.9 42.9 51.9 48.1 51.9 50.7 z" />
<glyph unicode="" horiz-adv-x="43.8" d="M18.8 53.2 C16 52.6 13.1 51.9 10.7 50.4 C8.4 49 7.7 46.4 7.7 44 C7.7 39.8 10.1 36.7 14.9 36.7 C16.1 36.7 17.5 36.7 18.5 37.4 C20.5 38.86667 23 40.7 24.5 41.8 C24.425 40.85 24.275 38.95 24.2 38 C24.275 37.9 24.425 37.7 24.5 37.6 C26.8 37.6 28.6 37.7 30.4 37.7 C32.3 37.7 34.1 37.6 36.1 37.6 C36.1 38.33333 36.1 39.25 36.1 39.8 C35.625 39.85 34.675 39.95 34.2 40 C32.9 40.1 32.4 40.9 32.4 42.4 C32.4 47.33333 32.4 53.5 32.4 57.2 C32.4 63.7 27.4 66 21.3 66 C20.2 66 19 65.9 18.2 65.5 C15.63333 64.26667 12.425 62.725 10.5 61.8 C10.5 60.825 10.5 58.875 10.5 57.9 C11.05 57.8 12.15 57.6 12.7 57.5 C13.05 58.25 13.75 59.75 14.1 60.5 C14.3 61 16 61.3 17.7 61.3 C22.6 61.3 24.5 58.4 24.5 54.2 C22.6 53.86667 20.225 53.45 18.8 53.2 zM24.5 44.6 C23.7 43.5 21.1 41.9 19.1 41.9 C17.2 41.9 15.6 43 15.6 45.5 C15.6 49.4 18.1 50.1 21.6 51 C22.56667 51.23333 23.775 51.525 24.5 51.7 C24.5 49.925 24.5 46.375 24.5 44.6 z" />
<glyph unicode="" horiz-adv-x="50" d="M23.4 43.8 C17.5 37.8 9.1 30.4 3.6 25.6 C3.6 24.76667 3.6 23.725 3.6 23.1 C9.9 18 17.9 10 23.4 4.4 C24.3 5.06667 25.425 5.9 26.1 6.4 C23.35 10.875 17.85 19.825 15.1 24.3 C17.85 28.625 23.35 37.275 26.1 41.6 C25.425 42.15 24.075 43.25 23.4 43.8 zM43.6 43.8 C37.7 37.8 29.3 30.4 23.8 25.6 C23.8 24.76667 23.8 23.725 23.8 23.1 C30.1 18 38.1 10 43.6 4.4 C44.5 5.06667 45.625 5.9 46.3 6.4 C43.55 10.875 38.05 19.825 35.3 24.3 C38.05 28.625 43.55 37.275 46.3 41.6 C45.625 42.15 44.275 43.25 43.6 43.8 z" />
<glyph unicode="" horiz-adv-x="60.6" d="M46.9 11.4 C49.05 11.4 53.35 11.4 55.5 11.4 C55.5 18.45 55.5 32.55 55.5 39.6 C42.9 39.6 17.7 39.6 5.1 39.6 C5.1 37.45 5.1 33.15 5.1 31 C15.55 31 36.45 31 46.9 31 C46.9 26.1 46.9 16.3 46.9 11.4 z" />
<glyph unicode="" horiz-adv-x="33.3" d="M5 30.5 C4.4 28 2.8 24 1.6 20.3 C1.86667 20.03333 2.2 19.7 2.4 19.5 C8.925 19.5 21.975 19.5 28.5 19.5 C29 22.7 30.6 27 31.7 29.5 C31.4 29.83333 31.025 30.25 30.8 30.5 C24.35 30.5 11.45 30.5 5 30.5 z" />
<glyph unicode="" horiz-adv-x="74.7" d="M37.2 69.5 C18.1 69.5 2.6 53.5 2.6 33.8 C2.6 14.2 18.1 -1.7 37.2 -1.7 C56.4 -1.7 72 14.2 72 33.8 C72 53.6 56.4 69.5 37.2 69.5 zM37.2 63.9 C53.4 63.9 66.4 50.6 66.4 33.9 C66.4 17.4 53.3 3.9 37.2 3.9 C21.2 3.9 8.2 17.4 8.2 33.9 C8.2 50.5 21.1 63.9 37.2 63.9 zM32.4 33.1 C33.025 33.1 34.275 33.1 34.9 33.1 C36.3 33.1 37.7 33 38.7 31.7 C39.6 30.6 40.9 27.8 42.2 24.8 C43.5 21.8 44.8 18.8 45.8 17.4 C46.4 16.6 47.5 15.8 48.9 15.8 C51.16667 15.8 54 15.8 55.7 15.8 C55.7 16.3 55.7 17.3 55.7 17.8 C54 17.8 53.3 18.2 52.5 19.3 C51.4 20.9 50.1 23.8 49.3 25.5 C47.7 29 45.7 33.6 41.6 34.3 C41.6 34.36667 41.6 34.45 41.6 34.5 C46.8 35.3 51.3 38.8 51.3 44.7 C51.3 47.5 49.6 50.8 47.2 52.3 C44.7 53.9 41.3 54 38.3 54 C32.6 54 25.475 54 21.2 54 C21.2 53.475 21.2 52.425 21.2 51.9 C21.575 51.9 22.325 51.9 22.7 51.9 C25.2 51.9 25.5 51.5 25.5 49 C25.5 39.5 25.5 27.625 25.5 20.5 C25.5 17.9 24.8 17.8 22.5 17.8 C22.03333 17.8 21.45 17.8 21.1 17.8 C21.1 17.3 21.1 16.3 21.1 15.8 C25 15.8 32.8 15.8 36.7 15.8 C36.7 16.3 36.7 17.3 36.7 17.8 C36.275 17.825 35.425 17.875 35 17.9 C32.7 18 32.4 18.8 32.4 20.9 C32.4 24.96667 32.4 30.05 32.4 33.1 zM32.4 47.9 C32.4 48.175 32.4 48.725 32.4 49 C32.4 50.2 32.6 51.6 34.1 51.7 C34.8 51.73333 35.675 51.775 36.2 51.8 C36.325 51.8 36.575 51.8 36.7 51.8 C41.5 51.8 44.3 49 44.3 43.8 C44.3 37.5 40.5 35.5 35.4 35.5 C35.03333 35.5 34.575 35.5 34.3 35.5 C33.825 35.525 32.875 35.575 32.4 35.6 C32.4 38.675 32.4 44.825 32.4 47.9 z" />
<glyph unicode="" horiz-adv-x="33.3" d="M33.2 53.8 C33.2 55.575 33.2 59.125 33.2 60.9 C24.925 60.9 8.375 60.9 0.1 60.9 C0.1 59.125 0.1 55.575 0.1 53.8 C8.375 53.8 24.925 53.8 33.2 53.8 z" />
<glyph unicode="" horiz-adv-x="40" d="M20 66 C11.8 66 5 59.3 5 51.2 C5 51.13333 5 51.05 5 51 C5 42.7 11.7 36 20 36 C28.2 36 35 42.7 35 51 C35 59.2 28.2 66 20 66 zM19.8 59.9 C24.9 59.9 28.9 55.9 28.9 51 C28.9 46.1 24.9 42.1 20 42.1 C15.1 42.1 11.1 46.1 11.1 51 C11.1 51.06667 11.1 51.15 11.1 51.2 C11.1 56 15.2 59.9 19.8 59.9 z" />
<glyph unicode="" horiz-adv-x="60.6" d="M26 35.8 C20.775 35.8 10.325 35.8 5.1 35.8 C5.1 33.65 5.1 29.35 5.1 27.2 C10.325 27.2 20.775 27.2 26 27.2 C26 23.525 26 16.175 26 12.5 C28.15 12.5 32.45 12.5 34.6 12.5 C34.6 16.175 34.6 23.525 34.6 27.2 C39.825 27.2 50.275 27.2 55.5 27.2 C55.5 29.35 55.5 33.65 55.5 35.8 C50.275 35.8 39.825 35.8 34.6 35.8 C34.6 39.475 34.6 46.825 34.6 50.5 C32.45 50.5 28.15 50.5 26 50.5 C26 46.825 26 39.475 26 35.8 zM5.1 0 C17.7 0 42.9 0 55.5 0 C55.5 2.15 55.5 6.45 55.5 8.6 C42.9 8.6 17.7 8.6 5.1 8.6 C5.1 6.45 5.1 2.15 5.1 0 z" />
<glyph unicode="" horiz-adv-x="30" d="M0.5 26.1 C6.6 26.2 11.3 26.3 15 26.3 C18.6 26.3 23.2 26.2 29.5 26.1 C29.4 27.2 29.4 28.3 29.4 29.6 C29.4 30.8 29.4 32.1 29.5 33.4 C29.33333 33.56667 29.125 33.775 29 33.9 C24.55 33.675 15.65 33.225 11.2 33 C11.2 33.2 11.2 33.6 11.2 33.8 C13.6 36.05 18.4 40.55 20.8 42.8 C24.4 46.1 27.5 50.9 27.5 55.3 C27.5 61.9 21.6 66 13.4 66 C9.8 66 6.3 64.6 3.2 62.3 C2.8 58.93333 2.3 54.725 2 52.2 C2.7 52.1 4.1 51.9 4.8 51.8 C5.05 52.625 5.55 54.275 5.8 55.1 C6.7 58.2 8.2 59.2 11.7 59.2 C15.4 59.2 18.3 56.9 18.3 52.6 C18.3 47.5 14.7 43.1 11.3 39.9 C7.7 36.53333 3.2 32.325 0.5 29.8 C0.5 28.875 0.5 27.025 0.5 26.1 z" />
<glyph unicode="" horiz-adv-x="30" d="M0.9 36.5 C1.4 33.8 2.2 30.3 2.5 27.5 C5.1 26.4 8.1 26.1 11 26.1 C15.4 26.1 19.9 27.5 23.3 30 C27.2 32.8 29.2 36.1 29.2 40.7 C29.2 46.1 25.1 49.1 19.5 49.4 C19.5 49.46667 19.5 49.55 19.5 49.6 C23.3 51.2 26.6 54.2 26.6 58.3 C26.6 63.2 21.7 66.7 14.7 66.7 C11.3 66.7 8.1 65.8 4.9 64 C4.23333 60.93333 3.4 57.1 2.9 54.8 C3.55 54.8 4.85 54.8 5.5 54.8 C6.2 57.5 8.2 60.6 12.8 60.6 C16.9 60.6 19.4 58.7 19.4 55.6 C19.4 51.2 16.1 49.1 12 49.1 C11.26667 49.1 10.35 49.1 9.8 49.1 C9.475 48 8.825 45.8 8.5 44.7 C8.625 44.625 8.875 44.475 9 44.4 C10.3 44.7 11.6 44.9 13 44.9 C18 44.9 21.1 41.9 21.1 37.4 C21.1 33.6 17.6 29.8 13.1 29.8 C7.9 29.8 5.1 32.6 3.1 37 C2.36667 36.83333 1.45 36.625 0.9 36.5 z" />
<glyph unicode="" horiz-adv-x="33.3" d="M26.5 58.7 C28.9 60.2 31.6 61.4 31.6 64.7 C31.6 67.1 30.1 69.1 27.3 69.1 C24.3 69.1 22.7 67.6 20.7 65.4 C16.4 60.46667 11.025 54.3 7.8 50.6 C9.2 50.6 12 50.6 13.4 50.6 C16.675 52.625 23.225 56.675 26.5 58.7 z" />
<glyph unicode="" horiz-adv-x="61.1" d="M58.6 2.8 C58.6 3.7 58.6 5.5 58.6 6.4 C57.475 6.475 55.225 6.625 54.1 6.7 C51.7 6.9 51.5 8 51.5 13.7 C51.5 24.63333 51.5 38.3 51.5 46.5 C51.25 46.65 50.75 46.95 50.5 47.1 C48.75 46.55 45.25 45.45 43.5 44.9 C39.8 43.7 36 43.3 32.2 42.8 C32.2 41.6 32.2 40.1 32.2 39.2 C33.325 39.125 35.575 38.975 36.7 38.9 C39.1 38.7 39.3 37.6 39.3 31.9 C39.3 26.7 39.3 20.2 39.3 16.3 C39.3 15 39.1 13.5 38.4 12.4 C36.6 9.5 33.4 7.3 30 7.3 C22.3 7.3 21.9 13.9 21.9 20.4 C21.9 29.1 21.9 39.975 21.9 46.5 C21.65 46.65 21.15 46.95 20.9 47.1 C19.15 46.55 15.65 45.45 13.9 44.9 C10.2 43.7 6.4 43.3 2.6 42.8 C2.6 41.6 2.6 40.1 2.6 39.2 C3.725 39.125 5.975 38.975 7.1 38.9 C9.6 38.7 9.7 37 9.7 32.9 C9.7 27.3 9.7 20.3 9.7 16.1 C9.7 1 8.2 -6.3 7.5 -10.3 C6.8 -14 6.2 -16.7 6.2 -18 C6.2 -20.1 7 -21.1 9 -21.1 C10.6 -21.1 14.7 -20 16.5 -18.5 C18.4 -16.9 18.8 -16 18.8 -12.3 C18.8 -4.5 18.4 -0.6 18.1 5 C20.8 -0.3 23.4 -0.9 26.4 -0.9 C28.8 -0.9 31.1 0 32.5 1.4 C34.76667 3.6 37.6 6.35 39.3 8 C39.2 5.95 39 1.85 38.9 -0.2 C39.3 -0.525 40.1 -1.175 40.5 -1.5 C46.4 0.4 51.7 2.6 58.6 2.8 z" />
<glyph unicode="" horiz-adv-x="64.1" d="M28 -5.4 C28 -7.8 27.9 -9.1 27.6 -10.1 C27.3 -11.1 26.5 -11.7 24.4 -11.8 C22.76667 -11.86667 20.725 -11.95 19.5 -12 C19.5 -13.025 19.5 -15.075 19.5 -16.1 C26.2 -16 33 -15.8 39.7 -15.8 C46.4 -15.8 53.2 -16 59.9 -16.1 C59.9 -14.73333 59.9 -13.025 59.9 -12 C58.675 -11.95 56.225 -11.85 55 -11.8 C52.9 -11.7 52.1 -11.1 51.8 -10.1 C51.5 -9.1 51.4 -7.8 51.4 -5.4 C51.4 15.16667 51.4 40.875 51.4 56.3 C51.4 61.6 52.2 64 55.2 64 C56.76667 64 58.725 64 59.9 64 C59.9 65.025 59.9 67.075 59.9 68.1 C53.9 68 48 67.8 42 67.8 C39 67.8 36 67.9 33.1 67.9 C30.1 68 27.1 68.2 24.1 68.3 C23.5 68.3 22.75 68.3 22.3 68.3 C9.6 68.3 1.9 61.1 1.9 53.1 C1.9 39.1 18.3 32.4 28 32.4 C28 19.8 28 4.05 28 -5.4 zM42.6 63.4 C42.6 44.775 42.6 7.525 42.6 -11.1 C41.15 -11.1 38.25 -11.1 36.8 -11.1 C36.8 7.525 36.8 44.775 36.8 63.4 C38.25 63.4 41.15 63.4 42.6 63.4 zM28 37.1 C21 38.3 15 43.7 15 51.1 C15 60 21.7 63.5 26.6 63.5 C27.1 63.5 27.6 63.5 28 63.4 C28 54.63333 28 43.675 28 37.1 z" />
<glyph unicode="" horiz-adv-x="25" d="M12.5 33.5 C8.4 33.5 4.7 29.7 4.7 25.5 C4.7 21.3 8.4 17.9 12.5 17.9 C16.7 17.9 20.3 21.7 20.3 25.5 C20.3 29.8 16.6 33.5 12.5 33.5 z" />
<glyph unicode="" horiz-adv-x="33.3" d="M12.2 -10.3 C12.45 -10.5 12.95 -10.9 13.2 -11.1 C14.4 -10.8 15.5 -10.7 16.4 -10.7 C19.2 -10.7 20.6 -11.8 20.6 -14.2 C20.6 -17 18.4 -17.9 15.5 -17.9 C13.4 -17.9 11.1 -17.5 8.9 -17 C8.36667 -18.23333 7.7 -19.775 7.3 -20.7 C9.6 -21.6 13.6 -22.5 16.1 -22.5 C21.4 -22.5 30 -21 30 -14 C30 -10 27.9 -6.5 22.1 -6.5 C20.9 -6.5 19.5 -6.7 17.8 -7.1 C18.73333 -4.96667 19.9 -2.3 20.6 -0.7 C19.575 -0.7 17.525 -0.7 16.5 -0.7 C15.425 -3.1 13.275 -7.9 12.2 -10.3 z" />
<glyph unicode="" horiz-adv-x="30" d="M12 33.8 C12 30.7 10.3 29.4 8.2 29.3 C6.8 29.23333 5.05 29.15 4 29.1 C4 28.35 4 26.85 4 26.1 C11.6 26.2 14.4 26.3 17.2 26.3 C20 26.3 22.8 26.2 28.7 26.1 C28.7 27.1 28.7 28.35 28.7 29.1 C27.775 29.15 25.925 29.25 25 29.3 C23 29.4 21.3 30.7 21.3 33.8 C21.3 41.53333 21.3 51.2 21.3 57 C21.3 60 21.8 63 22 66 C21.73333 66.16667 21.4 66.375 21.2 66.5 C15.2 64.5 6.1 61.5 1.4 60.4 C1.4 60.23333 1.4 60.025 1.4 59.9 C1.4 58.9 1.7 57.6 2.3 55.6 C5.2 56.9 8.825 58.525 11 59.5 C11.1 59.6 11.3 59.6 11.4 59.6 C12 59.6 12 58.4 12 57.3 C12 49.46667 12 39.675 12 33.8 z" />
<glyph unicode="" horiz-adv-x="48.8" d="M24.8 66 C14.4 66 8.9 60.5 8.9 51.2 C8.9 42.8 13.4 36.7 23.4 36.7 C34.2 36.7 39.9 42.3 39.9 52 C39.9 60.9 34.7 66 24.8 66 zM24.9 39.6 C18.2 39.6 17.7 48.3 17.7 52.7 C17.7 56.9 18.1 63.1 24.2 63.1 C31 63.1 31.1 53.7 31.1 49.5 C31.1 45.7 30.6 39.6 24.9 39.6 z" />
<glyph unicode="" horiz-adv-x="50" d="M3.7 41.6 C6.45 37.275 11.95 28.625 14.7 24.3 C11.95 19.825 6.45 10.875 3.7 6.4 C4.375 5.9 5.725 4.9 6.4 4.4 C11.9 10 19.9 18 26.2 23.1 C26.2 23.93333 26.2 24.975 26.2 25.6 C20.7 30.4 12.3 37.8 6.4 43.8 C5.5 43.06667 4.375 42.15 3.7 41.6 zM23.9 41.6 C26.65 37.275 32.15 28.625 34.9 24.3 C32.15 19.825 26.65 10.875 23.9 6.4 C24.575 5.9 25.925 4.9 26.6 4.4 C32.1 10 40.1 18 46.4 23.1 C46.4 23.93333 46.4 24.975 46.4 25.6 C40.9 30.4 32.5 37.8 26.6 43.8 C25.7 43.06667 24.575 42.15 23.9 41.6 z" />
<glyph unicode="" horiz-adv-x="75" d="M48.9 15.2 C51.475 19.55 56.625 28.25 59.2 32.6 C59.275 32.6 59.425 32.6 59.5 32.6 C59.5 28.25 59.5 19.55 59.5 15.2 C56.85 15.2 51.55 15.2 48.9 15.2 zM44 9.9 C47.875 9.9 55.625 9.9 59.5 9.9 C59.5 9.3 59.5 8.1 59.5 7.5 C59.5 4.4 57.8 3.1 55.8 3 C54.53333 2.93333 52.95 2.85 52 2.8 C52 2.05 52 0.55 52 -0.2 C58.1 -0.1 60.9 0 63.7 0 C66.6 0 69.3 -0.1 73.5 -0.2 C73.5 0.8 73.5 2.05 73.5 2.8 C73.025 2.85 72.075 2.95 71.6 3 C69.5 3.2 67.9 4.4 67.9 7.5 C67.9 8.3 67.9 9.3 67.9 9.9 C69.25 9.9 71.95 9.9 73.3 9.9 C73.3 11.225 73.3 13.875 73.3 15.2 C71.95 15.2 69.25 15.2 67.9 15.2 C67.9 21.3 67.9 33.5 67.9 39.6 C67.7 39.775 67.3 40.125 67.1 40.3 C65.2 39.9 61.4 39.1 59.5 38.7 C57.6 36.5 55.8 34.1 54.5 31.9 C51.9 27.6 48.65 22.225 46.7 19 C45.5 17 44.6 14.5 43.6 12.2 C43.73333 11.43333 43.9 10.475 44 9.9 zM12.5 33.8 C12.5 30.7 10.8 29.4 8.7 29.3 C7.3 29.23333 5.55 29.15 4.5 29.1 C4.5 28.35 4.5 26.85 4.5 26.1 C12.1 26.2 14.9 26.3 17.7 26.3 C20.5 26.3 23.3 26.2 29.2 26.1 C29.2 27.1 29.2 28.35 29.2 29.1 C28.275 29.15 26.425 29.25 25.5 29.3 C23.5 29.4 21.8 30.7 21.8 33.8 C21.8 41.53333 21.8 51.2 21.8 57 C21.8 60 22.3 63 22.5 66 C22.23333 66.16667 21.9 66.375 21.7 66.5 C15.7 64.5 6.6 61.5 1.9 60.4 C1.9 60.23333 1.9 60.025 1.9 59.9 C1.9 58.9 2.2 57.6 2.8 55.6 C5.7 56.9 9.325 58.525 11.5 59.5 C11.6 59.6 11.8 59.6 11.9 59.6 C12.5 59.6 12.5 58.4 12.5 57.3 C12.5 49.46667 12.5 39.675 12.5 33.8 zM25.7 0 C35.775 16.5 55.925 49.5 66 66 C64.275 66 60.825 66 59.1 66 C49.025 49.5 28.875 16.5 18.8 0 C20.525 0 23.975 0 25.7 0 z" />
<glyph unicode="" horiz-adv-x="75" d="M11.5 33.8 C11.5 30.7 9.8 29.4 7.7 29.3 C6.3 29.23333 4.55 29.15 3.5 29.1 C3.5 28.35 3.5 26.85 3.5 26.1 C11.1 26.2 13.9 26.3 16.7 26.3 C19.5 26.3 22.3 26.2 28.2 26.1 C28.2 27.1 28.2 28.35 28.2 29.1 C27.275 29.15 25.425 29.25 24.5 29.3 C22.5 29.4 20.8 30.7 20.8 33.8 C20.8 41.53333 20.8 51.2 20.8 57 C20.8 60 21.3 63 21.5 66 C21.23333 66.16667 20.9 66.375 20.7 66.5 C14.7 64.5 5.6 61.5 0.9 60.4 C0.9 60.23333 0.9 60.025 0.9 59.9 C0.9 58.9 1.2 57.6 1.8 55.6 C4.7 56.9 8.325 58.525 10.5 59.5 C10.6 59.6 10.8 59.6 10.9 59.6 C11.5 59.6 11.5 58.4 11.5 57.3 C11.5 49.46667 11.5 39.675 11.5 33.8 zM45.5 -0.2 C51.6 -0.1 56.3 0 60 0 C63.6 0 68.2 -0.1 74.5 -0.2 C74.4 0.9 74.4 2 74.4 3.3 C74.4 4.5 74.4 5.8 74.5 7.1 C74.33333 7.26667 74.125 7.475 74 7.6 C69.55 7.375 60.65 6.925 56.2 6.7 C56.2 6.9 56.2 7.3 56.2 7.5 C58.6 9.75 63.4 14.25 65.8 16.5 C69.4 19.8 72.5 24.6 72.5 29 C72.5 35.6 66.6 39.7 58.4 39.7 C54.8 39.7 51.3 38.3 48.2 36 C47.8 32.63333 47.3 28.425 47 25.9 C47.7 25.8 49.1 25.6 49.8 25.5 C50.05 26.325 50.55 27.975 50.8 28.8 C51.7 31.9 53.2 32.9 56.7 32.9 C60.4 32.9 63.3 30.6 63.3 26.3 C63.3 21.2 59.7 16.8 56.3 13.6 C52.7 10.23333 48.2 6.025 45.5 3.5 C45.5 2.575 45.5 0.725 45.5 -0.2 zM22.4 0 C32.475 16.5 52.625 49.5 62.7 66 C60.975 66 57.525 66 55.8 66 C45.725 49.5 25.575 16.5 15.5 0 C17.225 0 20.675 0 22.4 0 z" />
<glyph unicode="" horiz-adv-x="75" d="M48.9 15.2 C51.475 19.55 56.625 28.25 59.2 32.6 C59.275 32.6 59.425 32.6 59.5 32.6 C59.5 28.25 59.5 19.55 59.5 15.2 C56.85 15.2 51.55 15.2 48.9 15.2 zM44 9.9 C47.875 9.9 55.625 9.9 59.5 9.9 C59.5 9.3 59.5 8.1 59.5 7.5 C59.5 4.4 57.8 3.1 55.8 3 C54.53333 2.93333 52.95 2.85 52 2.8 C52 2.05 52 0.55 52 -0.2 C58.1 -0.1 60.9 0 63.7 0 C66.6 0 69.3 -0.1 73.5 -0.2 C73.5 0.8 73.5 2.05 73.5 2.8 C73.025 2.85 72.075 2.95 71.6 3 C69.5 3.2 67.9 4.4 67.9 7.5 C67.9 8.3 67.9 9.3 67.9 9.9 C69.25 9.9 71.95 9.9 73.3 9.9 C73.3 11.225 73.3 13.875 73.3 15.2 C71.95 15.2 69.25 15.2 67.9 15.2 C67.9 21.3 67.9 33.5 67.9 39.6 C67.7 39.775 67.3 40.125 67.1 40.3 C65.2 39.9 61.4 39.1 59.5 38.7 C57.6 36.5 55.8 34.1 54.5 31.9 C51.9 27.6 48.65 22.225 46.7 19 C45.5 17 44.6 14.5 43.6 12.2 C43.73333 11.43333 43.9 10.475 44 9.9 zM22.9 0 C32.975 16.5 53.125 49.5 63.2 66 C61.475 66 58.025 66 56.3 66 C46.225 49.5 26.075 16.5 16 0 C17.725 0 21.175 0 22.9 0 zM1.5 36.5 C2 33.8 2.8 30.3 3.1 27.5 C5.7 26.4 8.7 26.1 11.6 26.1 C16 26.1 20.5 27.5 23.9 30 C27.8 32.8 29.8 36.1 29.8 40.7 C29.8 46.1 25.7 49.1 20.1 49.4 C20.1 49.46667 20.1 49.55 20.1 49.6 C23.9 51.2 27.2 54.2 27.2 58.3 C27.2 63.2 22.3 66.7 15.3 66.7 C11.9 66.7 8.7 65.8 5.5 64 C4.83333 60.93333 4 57.1 3.5 54.8 C4.15 54.8 5.45 54.8 6.1 54.8 C6.8 57.5 8.8 60.6 13.4 60.6 C17.5 60.6 20 58.7 20 55.6 C20 51.2 16.7 49.1 12.6 49.1 C11.86667 49.1 10.95 49.1 10.4 49.1 C10.075 48 9.425 45.8 9.1 44.7 C9.225 44.625 9.475 44.475 9.6 44.4 C10.9 44.7 12.2 44.9 13.6 44.9 C18.6 44.9 21.7 41.9 21.7 37.4 C21.7 33.6 18.2 29.8 13.7 29.8 C8.5 29.8 5.7 32.6 3.7 37 C2.96667 36.83333 2.05 36.625 1.5 36.5 z" />
<glyph unicode="" horiz-adv-x="44.4" d="M36.6 -4.1 C35.825 -5.875 34.275 -9.425 33.5 -11.2 C32.8 -12.7 29.6 -13.5 25.9 -13.5 C21 -13.5 16.7 -10.1 16.7 -5 C16.7 -1.3 19.4 2.8 21.7 5.5 C26.2 10.7 29.3 15.2 29.3 19 C29.3 21.8 28.6 24.6 26.7 26.8 C25.56667 26.33333 24.15 25.75 23.3 25.4 C23.325 25.35 23.375 25.25 23.4 25.2 C24 24.1 24.4 22.9 24.4 21.7 C24.4 19.2 22.8 16.3 18.1 12.4 C15.53333 10.26667 12.325 7.6 10.4 6 C5.5 1.9 3.3 -1.1 3.3 -7.8 C3.3 -18.4 12.7 -23.1 22 -23.1 C27 -23.1 32.1 -21.8 36.9 -18.3 C37.1 -14.8 38.3 -10.4 40.1 -5 C38.93333 -4.7 37.475 -4.325 36.6 -4.1 zM25 47.1 C20.9 47.1 17.2 43.3 17.2 39.1 C17.2 34.9 20.9 31.5 25 31.5 C29.2 31.5 32.8 35.3 32.8 39.1 C32.8 43.4 29.1 47.1 25 47.1 z" />
<glyph unicode="" horiz-adv-x="77.8" d="M46.9 20.6 C48.025 17.75 50.275 12.05 51.4 9.2 C51.8 8.2 52 7.3 52 6.6 C52 4.8 51.1 3.8 50 3.7 C48.23333 3.6 46.025 3.475 44.7 3.4 C44.7 2.475 44.7 0.625 44.7 -0.3 C51.3 -0.2 56.3 0 60.2 0 C64.1 0 69 -0.2 75.7 -0.3 C75.7 0.93333 75.7 2.475 75.7 3.4 C75.1 3.475 73.9 3.625 73.3 3.7 C70.2 4.1 68.9 5.6 67.8 8.1 C59.16667 28.26667 48.375 53.475 41.9 68.6 C40.125 68.6 36.575 68.6 34.8 68.6 C33.375 64.825 30.525 57.275 29.1 53.5 C24.575 42.55 15.525 20.65 11 9.7 C9.8 6.8 8 4 5.4 3.7 C4.4 3.6 3.15 3.475 2.4 3.4 C2.4 2.475 2.4 0.625 2.4 -0.3 C7.2 -0.2 10.8 0 13.7 0 C16.6 0 20.2 -0.2 25 -0.3 C25 0.93333 25 2.475 25 3.4 C23.75 3.475 21.25 3.625 20 3.7 C18.6 3.8 17.1 4.8 17.1 7 C17.1 7.7 17.3 8.5 17.6 9.4 C19 13.13333 20.75 17.8 21.8 20.6 C28.075 20.6 40.625 20.6 46.9 20.6 zM34.2 51.6 C36.8 45.25 42 32.55 44.6 26.2 C39.5 26.2 29.3 26.2 24.2 26.2 C26.7 32.55 31.7 45.25 34.2 51.6 zM41.5 73 C42.9 73 45.7 73 47.1 73 C43.875 76.7 37.425 84.1 34.2 87.8 C32.2 90 30.6 91.5 27.6 91.5 C24.8 91.5 23.3 89.5 23.3 87.1 C23.3 83.8 26 82.6 28.4 81.1 C32.76667 78.4 38.225 75.025 41.5 73 z" />
<glyph unicode="" horiz-adv-x="77.8" d="M46.9 20.6 C48.025 17.75 50.275 12.05 51.4 9.2 C51.8 8.2 52 7.3 52 6.6 C52 4.8 51.1 3.8 50 3.7 C48.23333 3.6 46.025 3.475 44.7 3.4 C44.7 2.475 44.7 0.625 44.7 -0.3 C51.3 -0.2 56.3 0 60.2 0 C64.1 0 69 -0.2 75.7 -0.3 C75.7 0.93333 75.7 2.475 75.7 3.4 C75.1 3.475 73.9 3.625 73.3 3.7 C70.2 4.1 68.9 5.6 67.8 8.1 C59.16667 28.26667 48.375 53.475 41.9 68.6 C40.125 68.6 36.575 68.6 34.8 68.6 C33.375 64.825 30.525 57.275 29.1 53.5 C24.575 42.55 15.525 20.65 11 9.7 C9.8 6.8 8 4 5.4 3.7 C4.4 3.6 3.15 3.475 2.4 3.4 C2.4 2.475 2.4 0.625 2.4 -0.3 C7.2 -0.2 10.8 0 13.7 0 C16.6 0 20.2 -0.2 25 -0.3 C25 0.93333 25 2.475 25 3.4 C23.75 3.475 21.25 3.625 20 3.7 C18.6 3.8 17.1 4.8 17.1 7 C17.1 7.7 17.3 8.5 17.6 9.4 C19 13.13333 20.75 17.8 21.8 20.6 C28.075 20.6 40.625 20.6 46.9 20.6 zM34.2 51.6 C36.8 45.25 42 32.55 44.6 26.2 C39.5 26.2 29.3 26.2 24.2 26.2 C26.7 32.55 31.7 45.25 34.2 51.6 zM48.8 81.1 C51.2 82.6 53.9 83.8 53.9 87.1 C53.9 89.5 52.4 91.5 49.6 91.5 C46.6 91.5 45 90 43 87.8 C38.7 82.86667 33.325 76.7 30.1 73 C31.5 73 34.3 73 35.7 73 C38.975 75.025 45.525 79.075 48.8 81.1 z" />
<glyph unicode="" horiz-adv-x="77.8" d="M46.9 20.6 C48.025 17.75 50.275 12.05 51.4 9.2 C51.8 8.2 52 7.3 52 6.6 C52 4.8 51.1 3.8 50 3.7 C48.23333 3.6 46.025 3.475 44.7 3.4 C44.7 2.475 44.7 0.625 44.7 -0.3 C51.3 -0.2 56.3 0 60.2 0 C64.1 0 69 -0.2 75.7 -0.3 C75.7 0.93333 75.7 2.475 75.7 3.4 C75.1 3.475 73.9 3.625 73.3 3.7 C70.2 4.1 68.9 5.6 67.8 8.1 C59.16667 28.26667 48.375 53.475 41.9 68.6 C40.125 68.6 36.575 68.6 34.8 68.6 C33.375 64.825 30.525 57.275 29.1 53.5 C24.575 42.55 15.525 20.65 11 9.7 C9.8 6.8 8 4 5.4 3.7 C4.4 3.6 3.15 3.475 2.4 3.4 C2.4 2.475 2.4 0.625 2.4 -0.3 C7.2 -0.2 10.8 0 13.7 0 C16.6 0 20.2 -0.2 25 -0.3 C25 0.93333 25 2.475 25 3.4 C23.75 3.475 21.25 3.625 20 3.7 C18.6 3.8 17.1 4.8 17.1 7 C17.1 7.7 17.3 8.5 17.6 9.4 C19 13.13333 20.75 17.8 21.8 20.6 C28.075 20.6 40.625 20.6 46.9 20.6 zM34.2 51.6 C36.8 45.25 42 32.55 44.6 26.2 C39.5 26.2 29.3 26.2 24.2 26.2 C26.7 32.55 31.7 45.25 34.2 51.6 zM33 90.5 C29.975 86.125 23.925 77.375 20.9 73 C22.275 73 25.025 73 26.4 73 C29.225 75.45 34.875 80.35 37.7 82.8 C40.5 80.35 46.1 75.45 48.9 73 C50.325 73 53.175 73 54.6 73 C51.525 77.375 45.375 86.125 42.3 90.5 C39.975 90.5 35.325 90.5 33 90.5 z" />
<glyph unicode="" horiz-adv-x="77.8" d="M46.9 20.6 C48.025 17.75 50.275 12.05 51.4 9.2 C51.8 8.2 52 7.3 52 6.6 C52 4.8 51.1 3.8 50 3.7 C48.23333 3.6 46.025 3.475 44.7 3.4 C44.7 2.475 44.7 0.625 44.7 -0.3 C51.3 -0.2 56.3 0 60.2 0 C64.1 0 69 -0.2 75.7 -0.3 C75.7 0.93333 75.7 2.475 75.7 3.4 C75.1 3.475 73.9 3.625 73.3 3.7 C70.2 4.1 68.9 5.6 67.8 8.1 C59.16667 28.26667 48.375 53.475 41.9 68.6 C40.125 68.6 36.575 68.6 34.8 68.6 C33.375 64.825 30.525 57.275 29.1 53.5 C24.575 42.55 15.525 20.65 11 9.7 C9.8 6.8 8 4 5.4 3.7 C4.4 3.6 3.15 3.475 2.4 3.4 C2.4 2.475 2.4 0.625 2.4 -0.3 C7.2 -0.2 10.8 0 13.7 0 C16.6 0 20.2 -0.2 25 -0.3 C25 0.93333 25 2.475 25 3.4 C23.75 3.475 21.25 3.625 20 3.7 C18.6 3.8 17.1 4.8 17.1 7 C17.1 7.7 17.3 8.5 17.6 9.4 C19 13.13333 20.75 17.8 21.8 20.6 C28.075 20.6 40.625 20.6 46.9 20.6 zM34.2 51.6 C36.8 45.25 42 32.55 44.6 26.2 C39.5 26.2 29.3 26.2 24.2 26.2 C26.7 32.55 31.7 45.25 34.2 51.6 zM52.9 88.5 C51.7 85.9 50.9 83.7 47.7 83.7 C45.3 83.7 42.8 84.9 40.3 86.1 C37.8 87.3 35.3 88.5 32.5 88.5 C24 88.5 20.8 79.6 20.7 76 C22.03333 76 23.7 76 24.7 76 C25.3 78.2 26.8 80.8 29.4 80.8 C31.6 80.8 34.3 79.7 37 78.4 C39.7 77.1 42.6 75.9 45.1 75.9 C52.4 75.9 55.7 82.2 57.2 88.5 C55.76667 88.5 53.975 88.5 52.9 88.5 z" />
<glyph unicode="" horiz-adv-x="77.8" d="M46.9 20.6 C48.025 17.75 50.275 12.05 51.4 9.2 C51.8 8.2 52 7.3 52 6.6 C52 4.8 51.1 3.8 50 3.7 C48.23333 3.6 46.025 3.475 44.7 3.4 C44.7 2.475 44.7 0.625 44.7 -0.3 C51.3 -0.2 56.3 0 60.2 0 C64.1 0 69 -0.2 75.7 -0.3 C75.7 0.93333 75.7 2.475 75.7 3.4 C75.1 3.475 73.9 3.625 73.3 3.7 C70.2 4.1 68.9 5.6 67.8 8.1 C59.16667 28.26667 48.375 53.475 41.9 68.6 C40.125 68.6 36.575 68.6 34.8 68.6 C33.375 64.825 30.525 57.275 29.1 53.5 C24.575 42.55 15.525 20.65 11 9.7 C9.8 6.8 8 4 5.4 3.7 C4.4 3.6 3.15 3.475 2.4 3.4 C2.4 2.475 2.4 0.625 2.4 -0.3 C7.2 -0.2 10.8 0 13.7 0 C16.6 0 20.2 -0.2 25 -0.3 C25 0.93333 25 2.475 25 3.4 C23.75 3.475 21.25 3.625 20 3.7 C18.6 3.8 17.1 4.8 17.1 7 C17.1 7.7 17.3 8.5 17.6 9.4 C19 13.13333 20.75 17.8 21.8 20.6 C28.075 20.6 40.625 20.6 46.9 20.6 zM34.2 51.6 C36.8 45.25 42 32.55 44.6 26.2 C39.5 26.2 29.3 26.2 24.2 26.2 C26.7 32.55 31.7 45.25 34.2 51.6 zM28.2 89.5 C24.5 89.5 21.5 86.5 21.5 82.8 C21.5 79.1 24.5 76.1 28.2 76.1 C31.9 76.1 34.9 79.1 34.9 82.8 C34.9 86.5 31.9 89.5 28.2 89.5 zM49.7 89.5 C46 89.5 43 86.5 43 82.8 C43 79.1 46 76.1 49.7 76.1 C53.4 76.1 56.4 79.1 56.4 82.8 C56.4 86.5 53.4 89.5 49.7 89.5 z" />
<glyph unicode="" horiz-adv-x="77.8" d="M46.9 20.6 C48.025 17.75 50.275 12.05 51.4 9.2 C51.8 8.2 52 7.3 52 6.6 C52 4.8 51.1 3.8 50 3.7 C48.23333 3.6 46.025 3.475 44.7 3.4 C44.7 2.475 44.7 0.625 44.7 -0.3 C51.3 -0.2 56.3 0 60.2 0 C64.1 0 69 -0.2 75.7 -0.3 C75.7 0.93333 75.7 2.475 75.7 3.4 C75.1 3.475 73.9 3.625 73.3 3.7 C70.2 4.1 68.9 5.6 67.8 8.1 C59.16667 28.26667 48.375 53.475 41.9 68.6 C40.125 68.6 36.575 68.6 34.8 68.6 C33.375 64.825 30.525 57.275 29.1 53.5 C24.575 42.55 15.525 20.65 11 9.7 C9.8 6.8 8 4 5.4 3.7 C4.4 3.6 3.15 3.475 2.4 3.4 C2.4 2.475 2.4 0.625 2.4 -0.3 C7.2 -0.2 10.8 0 13.7 0 C16.6 0 20.2 -0.2 25 -0.3 C25 0.93333 25 2.475 25 3.4 C23.75 3.475 21.25 3.625 20 3.7 C18.6 3.8 17.1 4.8 17.1 7 C17.1 7.7 17.3 8.5 17.6 9.4 C19 13.13333 20.75 17.8 21.8 20.6 C28.075 20.6 40.625 20.6 46.9 20.6 zM34.2 51.6 C36.8 45.25 42 32.55 44.6 26.2 C39.5 26.2 29.3 26.2 24.2 26.2 C26.7 32.55 31.7 45.25 34.2 51.6 zM39 87.4 C41.8 87.4 44 85.2 44 82.4 C44 79.6 41.8 77.4 39 77.4 C36.2 77.4 34 79.6 34 82.4 C34 85.2 36.2 87.4 39 87.4 zM39 92.4 C33.5 92.4 29 87.9 29 82.4 C29 76.9 33.5 72.4 39 72.4 C44.5 72.4 49 76.9 49 82.4 C49 87.9 44.5 92.4 39 92.4 z" />
<glyph unicode="" horiz-adv-x="100" d="M50.1 9.5 C50.1 6.4 49.7 4.7 48.1 3.8 C47.03333 3.2 45.7 2.45 44.9 2 C44.9 1.425 44.9 0.275 44.9 -0.3 C48.3 -0.2 52.6 0 56.9 0 C61 0 65.1 -0.2 69.2 -0.3 C71.7 -0.4 75 -0.4 78.5 -0.4 C83.9 -0.4 89.8 -0.3 93.8 0 C93.96667 0.26667 94.175 0.6 94.3 0.8 C94.575 4.75 95.125 12.65 95.4 16.6 C94.425 16.6 92.475 16.6 91.5 16.6 C90.925 14.25 89.775 9.55 89.2 7.2 C89 6.4 81.6 5.5 77 5.5 C72.7 5.5 68.4 5.6 64.2 5.8 C64.2 14.7 64.2 25.825 64.2 32.5 C66.5 32.7 68.7 32.8 70.9 32.8 C73.1 32.8 75.85 32.8 77.5 32.8 C81 32.8 82.9 31.9 83.2 29.1 C83.4 27.43333 83.65 25.35 83.8 24.1 C84.8 24.1 86.8 24.1 87.8 24.1 C87.7 27.7 87.5 31.3 87.5 34.9 C87.5 38.5 87.7 42 87.8 45.6 C86.46667 45.6 84.8 45.6 83.8 45.6 C83.65 44.175 83.35 41.325 83.2 39.9 C83 38 81 37.8 77.5 37.8 C75.3 37.8 72.55 37.8 70.9 37.8 C68.7 37.8 66.5 37.8 64.2 38 C64.2 46 64.2 56 64.2 62 C68.4 62.2 72.7 62.3 77 62.3 C81.6 62.3 88.3 61.9 88.5 60.4 C88.76667 57.9 89.1 54.775 89.3 52.9 C90.2 52.9 92 52.9 92.9 52.9 C93.25 56.45 93.95 63.55 94.3 67.1 C94.15 67.275 93.85 67.625 93.7 67.8 C90.6 68.1 87.7 68.2 84.4 68.2 C82.7 68.2 81 68.1 79.1 68.1 C73.4 68 66.6 67.8 57.2 67.8 C52.9 67.8 48.6 67.9 44.3 67.9 C40.1 68 35.8 68.1 31.6 68.1 C31.6 66.86667 31.6 65.325 31.6 64.4 C32.9 64.325 35.5 64.175 36.8 64.1 C39.2 63.9 41.1 63.3 41.1 62.4 C41.1 61.5 40.5 60.2 39.4 58.4 C29.73333 42.06667 17.65 21.65 10.4 9.4 C8.9 6.9 7 3.9 5 3.7 C3.73333 3.6 2.15 3.475 1.2 3.4 C1.2 2.475 1.2 0.625 1.2 -0.3 C4.9 -0.2 8.2 0 11.5 0 C15.6 0 19.7 -0.2 23.8 -0.3 C23.8 0.93333 23.8 2.475 23.8 3.4 C22.45 3.475 19.75 3.625 18.4 3.7 C17 3.8 16 4.8 16 5.2 C16 7.2 16.9 9 17.9 10.7 C19.96667 14.26667 22.55 18.725 24.1 21.4 C30.6 21.4 43.6 21.4 50.1 21.4 C50.1 18.425 50.1 12.475 50.1 9.5 zM27.1 26.7 C32.5 35.6 43.3 53.4 48.7 62.3 C48.875 62.3 49.225 62.3 49.4 62.3 C49.8 61.8 50.1 61.2 50.1 60.6 C50.1 49.3 50.1 35.175 50.1 26.7 C44.35 26.7 32.85 26.7 27.1 26.7 z" />
<glyph unicode="" horiz-adv-x="72.2" d="M69.2 8.7 C68.9 9 68.3 9.6 68 9.9 C62.9 6.9 54.8 4.8 48.9 4.8 C30 4.8 19.4 18 19.4 36.3 C19.4 52.1 28.2 63.9 44.8 63.9 C51.6 63.9 57.9 62.1 62.8 57 C62.96667 54.13333 63.175 50.55 63.3 48.4 C64.275 48.4 66.225 48.4 67.2 48.4 C67.7 52.7 68.5 60.1 69.5 63.7 C69.3 64.06667 69.05 64.525 68.9 64.8 C59.3 68.8 52.6 69.5 44.4 69.5 C23.1 69.5 4.4 58 4.4 35 C4.4 13 18.6 0.4 38.8 -1.4 C37.46667 -4.36667 35.8 -8.075 34.8 -10.3 C35.05 -10.5 35.55 -10.9 35.8 -11.1 C37 -10.8 38.1 -10.7 39 -10.7 C41.8 -10.7 43.2 -11.8 43.2 -14.2 C43.2 -17 41 -17.9 38.1 -17.9 C36 -17.9 33.7 -17.5 31.5 -17 C30.96667 -18.23333 30.3 -19.775 29.9 -20.7 C32.2 -21.6 36.2 -22.5 38.7 -22.5 C44 -22.5 52.6 -21 52.6 -14 C52.6 -10 50.5 -6.5 44.7 -6.5 C43.5 -6.5 42.1 -6.7 40.4 -7.1 C41.2 -5.3 42.2 -3.05 42.8 -1.7 C50.8 -1.7 59.1 -1 67 3.8 C67.73333 5.43333 68.65 7.475 69.2 8.7 z" />
<glyph unicode="" horiz-adv-x="61.1" d="M26.5 62 C30.7 62.2 35 62.3 39.3 62.3 C43.9 62.3 50.6 61.9 50.8 60.4 C51.06667 57.9 51.4 54.775 51.6 52.9 C52.5 52.9 54.3 52.9 55.2 52.9 C55.55 56.45 56.25 63.55 56.6 67.1 C56.45 67.275 56.15 67.625 56 67.8 C52.9 68.1 50 68.2 46.7 68.2 C45 68.2 43.3 68.1 41.4 68.1 C35.7 68 28.9 67.8 19.5 67.8 C17.6 67.8 15.3 67.9 12.7 67.9 C10.1 68 7.2 68.1 3.9 68.1 C3.9 66.86667 3.9 65.325 3.9 64.4 C4.825 64.325 6.675 64.175 7.6 64.1 C10.2 63.9 11.2 63.4 11.7 62.4 C12.3 61.2 12.4 58.5 12.4 54.3 C12.4 39.36667 12.4 20.7 12.4 9.5 C12.4 6.4 12 4.7 10.4 3.8 C9.33333 3.2 8 2.45 7.2 2 C7.2 1.425 7.2 0.275 7.2 -0.3 C10.9 -0.2 15 0 19.2 0 C23.3 0 27.4 -0.2 31.5 -0.3 C34 -0.4 37.3 -0.4 40.8 -0.4 C46.2 -0.4 52.1 -0.3 56.1 0 C56.26667 0.26667 56.475 0.6 56.6 0.8 C56.875 4.75 57.425 12.65 57.7 16.6 C56.725 16.6 54.775 16.6 53.8 16.6 C53.225 14.25 52.075 9.55 51.5 7.2 C51.3 6.4 43.9 5.5 39.3 5.5 C35 5.5 30.7 5.6 26.5 5.8 C26.5 14.7 26.5 25.825 26.5 32.5 C28.8 32.7 31 32.8 33.2 32.8 C35.4 32.8 38.15 32.8 39.8 32.8 C43.3 32.8 45.2 31.9 45.5 29.1 C45.7 27.43333 45.95 25.35 46.1 24.1 C47.1 24.1 49.1 24.1 50.1 24.1 C50 27.7 49.8 31.3 49.8 34.9 C49.8 38.5 50 42 50.1 45.6 C48.76667 45.6 47.1 45.6 46.1 45.6 C45.95 44.175 45.65 41.325 45.5 39.9 C45.3 38 43.3 37.8 39.8 37.8 C37.6 37.8 34.85 37.8 33.2 37.8 C31 37.8 28.8 37.8 26.5 38 C26.5 46 26.5 56 26.5 62 zM33.9 73 C35.3 73 38.1 73 39.5 73 C36.275 76.7 29.825 84.1 26.6 87.8 C24.6 90 23 91.5 20 91.5 C17.2 91.5 15.7 89.5 15.7 87.1 C15.7 83.8 18.4 82.6 20.8 81.1 C25.16667 78.4 30.625 75.025 33.9 73 z" />
<glyph unicode="" horiz-adv-x="61.1" d="M26.5 62 C30.7 62.2 35 62.3 39.3 62.3 C43.9 62.3 50.6 61.9 50.8 60.4 C51.06667 57.9 51.4 54.775 51.6 52.9 C52.5 52.9 54.3 52.9 55.2 52.9 C55.55 56.45 56.25 63.55 56.6 67.1 C56.45 67.275 56.15 67.625 56 67.8 C52.9 68.1 50 68.2 46.7 68.2 C45 68.2 43.3 68.1 41.4 68.1 C35.7 68 28.9 67.8 19.5 67.8 C17.6 67.8 15.3 67.9 12.7 67.9 C10.1 68 7.2 68.1 3.9 68.1 C3.9 66.86667 3.9 65.325 3.9 64.4 C4.825 64.325 6.675 64.175 7.6 64.1 C10.2 63.9 11.2 63.4 11.7 62.4 C12.3 61.2 12.4 58.5 12.4 54.3 C12.4 39.36667 12.4 20.7 12.4 9.5 C12.4 6.4 12 4.7 10.4 3.8 C9.33333 3.2 8 2.45 7.2 2 C7.2 1.425 7.2 0.275 7.2 -0.3 C10.9 -0.2 15 0 19.2 0 C23.3 0 27.4 -0.2 31.5 -0.3 C34 -0.4 37.3 -0.4 40.8 -0.4 C46.2 -0.4 52.1 -0.3 56.1 0 C56.26667 0.26667 56.475 0.6 56.6 0.8 C56.875 4.75 57.425 12.65 57.7 16.6 C56.725 16.6 54.775 16.6 53.8 16.6 C53.225 14.25 52.075 9.55 51.5 7.2 C51.3 6.4 43.9 5.5 39.3 5.5 C35 5.5 30.7 5.6 26.5 5.8 C26.5 14.7 26.5 25.825 26.5 32.5 C28.8 32.7 31 32.8 33.2 32.8 C35.4 32.8 38.15 32.8 39.8 32.8 C43.3 32.8 45.2 31.9 45.5 29.1 C45.7 27.43333 45.95 25.35 46.1 24.1 C47.1 24.1 49.1 24.1 50.1 24.1 C50 27.7 49.8 31.3 49.8 34.9 C49.8 38.5 50 42 50.1 45.6 C48.76667 45.6 47.1 45.6 46.1 45.6 C45.95 44.175 45.65 41.325 45.5 39.9 C45.3 38 43.3 37.8 39.8 37.8 C37.6 37.8 34.85 37.8 33.2 37.8 C31 37.8 28.8 37.8 26.5 38 C26.5 46 26.5 56 26.5 62 zM40.4 81.1 C42.8 82.6 45.5 83.8 45.5 87.1 C45.5 89.5 44 91.5 41.2 91.5 C38.2 91.5 36.6 90 34.6 87.8 C30.3 82.86667 24.925 76.7 21.7 73 C23.1 73 25.9 73 27.3 73 C30.575 75.025 37.125 79.075 40.4 81.1 z" />
<glyph unicode="" horiz-adv-x="61.1" d="M26.5 62 C30.7 62.2 35 62.3 39.3 62.3 C43.9 62.3 50.6 61.9 50.8 60.4 C51.06667 57.9 51.4 54.775 51.6 52.9 C52.5 52.9 54.3 52.9 55.2 52.9 C55.55 56.45 56.25 63.55 56.6 67.1 C56.45 67.275 56.15 67.625 56 67.8 C52.9 68.1 50 68.2 46.7 68.2 C45 68.2 43.3 68.1 41.4 68.1 C35.7 68 28.9 67.8 19.5 67.8 C17.6 67.8 15.3 67.9 12.7 67.9 C10.1 68 7.2 68.1 3.9 68.1 C3.9 66.86667 3.9 65.325 3.9 64.4 C4.825 64.325 6.675 64.175 7.6 64.1 C10.2 63.9 11.2 63.4 11.7 62.4 C12.3 61.2 12.4 58.5 12.4 54.3 C12.4 39.36667 12.4 20.7 12.4 9.5 C12.4 6.4 12 4.7 10.4 3.8 C9.33333 3.2 8 2.45 7.2 2 C7.2 1.425 7.2 0.275 7.2 -0.3 C10.9 -0.2 15 0 19.2 0 C23.3 0 27.4 -0.2 31.5 -0.3 C34 -0.4 37.3 -0.4 40.8 -0.4 C46.2 -0.4 52.1 -0.3 56.1 0 C56.26667 0.26667 56.475 0.6 56.6 0.8 C56.875 4.75 57.425 12.65 57.7 16.6 C56.725 16.6 54.775 16.6 53.8 16.6 C53.225 14.25 52.075 9.55 51.5 7.2 C51.3 6.4 43.9 5.5 39.3 5.5 C35 5.5 30.7 5.6 26.5 5.8 C26.5 14.7 26.5 25.825 26.5 32.5 C28.8 32.7 31 32.8 33.2 32.8 C35.4 32.8 38.15 32.8 39.8 32.8 C43.3 32.8 45.2 31.9 45.5 29.1 C45.7 27.43333 45.95 25.35 46.1 24.1 C47.1 24.1 49.1 24.1 50.1 24.1 C50 27.7 49.8 31.3 49.8 34.9 C49.8 38.5 50 42 50.1 45.6 C48.76667 45.6 47.1 45.6 46.1 45.6 C45.95 44.175 45.65 41.325 45.5 39.9 C45.3 38 43.3 37.8 39.8 37.8 C37.6 37.8 34.85 37.8 33.2 37.8 C31 37.8 28.8 37.8 26.5 38 C26.5 46 26.5 56 26.5 62 zM25.8 90.5 C22.775 86.125 16.725 77.375 13.7 73 C15.075 73 17.825 73 19.2 73 C22.025 75.45 27.675 80.35 30.5 82.8 C33.3 80.35 38.9 75.45 41.7 73 C43.125 73 45.975 73 47.4 73 C44.325 77.375 38.175 86.125 35.1 90.5 C32.775 90.5 28.125 90.5 25.8 90.5 z" />
<glyph unicode="" horiz-adv-x="61.1" d="M26.5 62 C30.7 62.2 35 62.3 39.3 62.3 C43.9 62.3 50.6 61.9 50.8 60.4 C51.06667 57.9 51.4 54.775 51.6 52.9 C52.5 52.9 54.3 52.9 55.2 52.9 C55.55 56.45 56.25 63.55 56.6 67.1 C56.45 67.275 56.15 67.625 56 67.8 C52.9 68.1 50 68.2 46.7 68.2 C45 68.2 43.3 68.1 41.4 68.1 C35.7 68 28.9 67.8 19.5 67.8 C17.6 67.8 15.3 67.9 12.7 67.9 C10.1 68 7.2 68.1 3.9 68.1 C3.9 66.86667 3.9 65.325 3.9 64.4 C4.825 64.325 6.675 64.175 7.6 64.1 C10.2 63.9 11.2 63.4 11.7 62.4 C12.3 61.2 12.4 58.5 12.4 54.3 C12.4 39.36667 12.4 20.7 12.4 9.5 C12.4 6.4 12 4.7 10.4 3.8 C9.33333 3.2 8 2.45 7.2 2 C7.2 1.425 7.2 0.275 7.2 -0.3 C10.9 -0.2 15 0 19.2 0 C23.3 0 27.4 -0.2 31.5 -0.3 C34 -0.4 37.3 -0.4 40.8 -0.4 C46.2 -0.4 52.1 -0.3 56.1 0 C56.26667 0.26667 56.475 0.6 56.6 0.8 C56.875 4.75 57.425 12.65 57.7 16.6 C56.725 16.6 54.775 16.6 53.8 16.6 C53.225 14.25 52.075 9.55 51.5 7.2 C51.3 6.4 43.9 5.5 39.3 5.5 C35 5.5 30.7 5.6 26.5 5.8 C26.5 14.7 26.5 25.825 26.5 32.5 C28.8 32.7 31 32.8 33.2 32.8 C35.4 32.8 38.15 32.8 39.8 32.8 C43.3 32.8 45.2 31.9 45.5 29.1 C45.7 27.43333 45.95 25.35 46.1 24.1 C47.1 24.1 49.1 24.1 50.1 24.1 C50 27.7 49.8 31.3 49.8 34.9 C49.8 38.5 50 42 50.1 45.6 C48.76667 45.6 47.1 45.6 46.1 45.6 C45.95 44.175 45.65 41.325 45.5 39.9 C45.3 38 43.3 37.8 39.8 37.8 C37.6 37.8 34.85 37.8 33.2 37.8 C31 37.8 28.8 37.8 26.5 38 C26.5 46 26.5 56 26.5 62 zM19.8 89.5 C16.1 89.5 13.1 86.5 13.1 82.8 C13.1 79.1 16.1 76.1 19.8 76.1 C23.5 76.1 26.5 79.1 26.5 82.8 C26.5 86.5 23.5 89.5 19.8 89.5 zM41.3 89.5 C37.6 89.5 34.6 86.5 34.6 82.8 C34.6 79.1 37.6 76.1 41.3 76.1 C45 76.1 48 79.1 48 82.8 C48 86.5 45 89.5 41.3 89.5 z" />
<glyph unicode="" horiz-adv-x="38.9" d="M26.5 54.3 C26.5 58.5 26.6 61.2 27.2 62.4 C27.6 63.2 28.7 63.6 31.3 63.8 C32.53333 63.9 34.075 64.025 35 64.1 C35 65.1 35 67.1 35 68.1 C30.9 68 25.4 67.8 19.5 67.8 C13.5 67.8 8 68 3.9 68.1 C3.9 66.76667 3.9 65.1 3.9 64.1 C4.825 64.025 6.675 63.875 7.6 63.8 C10.2 63.6 11.3 63.2 11.7 62.4 C12.3 61.2 12.4 58.5 12.4 54.3 C12.4 40.7 12.4 23.7 12.4 13.5 C12.4 9.3 12.3 6.6 11.7 5.4 C11.3 4.6 10.2 4.2 7.6 4 C6.36667 3.9 4.825 3.775 3.9 3.7 C3.9 2.7 3.9 0.7 3.9 -0.3 C8 -0.2 13.5 0 19.5 0 C25.4 0 30.9 -0.2 35 -0.3 C35 1.03333 35 2.7 35 3.7 C34.075 3.775 32.225 3.925 31.3 4 C28.7 4.2 27.6 4.6 27.2 5.4 C26.6 6.6 26.5 9.3 26.5 13.5 C26.5 27.1 26.5 44.1 26.5 54.3 zM22.8 73 C24.2 73 27 73 28.4 73 C25.175 76.7 18.725 84.1 15.5 87.8 C13.5 90 11.9 91.5 8.9 91.5 C6.1 91.5 4.6 89.5 4.6 87.1 C4.6 83.8 7.3 82.6 9.7 81.1 C14.06667 78.4 19.525 75.025 22.8 73 z" />
<glyph unicode="" horiz-adv-x="38.9" d="M26.5 54.3 C26.5 58.5 26.6 61.2 27.2 62.4 C27.6 63.2 28.7 63.6 31.3 63.8 C32.53333 63.9 34.075 64.025 35 64.1 C35 65.1 35 67.1 35 68.1 C30.9 68 25.4 67.8 19.5 67.8 C13.5 67.8 8 68 3.9 68.1 C3.9 66.76667 3.9 65.1 3.9 64.1 C4.825 64.025 6.675 63.875 7.6 63.8 C10.2 63.6 11.3 63.2 11.7 62.4 C12.3 61.2 12.4 58.5 12.4 54.3 C12.4 40.7 12.4 23.7 12.4 13.5 C12.4 9.3 12.3 6.6 11.7 5.4 C11.3 4.6 10.2 4.2 7.6 4 C6.36667 3.9 4.825 3.775 3.9 3.7 C3.9 2.7 3.9 0.7 3.9 -0.3 C8 -0.2 13.5 0 19.5 0 C25.4 0 30.9 -0.2 35 -0.3 C35 1.03333 35 2.7 35 3.7 C34.075 3.775 32.225 3.925 31.3 4 C28.7 4.2 27.6 4.6 27.2 5.4 C26.6 6.6 26.5 9.3 26.5 13.5 C26.5 27.1 26.5 44.1 26.5 54.3 zM29.3 81.1 C31.7 82.6 34.4 83.8 34.4 87.1 C34.4 89.5 32.9 91.5 30.1 91.5 C27.1 91.5 25.5 90 23.5 87.8 C19.2 82.86667 13.825 76.7 10.6 73 C12 73 14.8 73 16.2 73 C19.475 75.025 26.025 79.075 29.3 81.1 z" />
<glyph unicode="" horiz-adv-x="38.9" d="M26.5 54.3 C26.5 58.5 26.6 61.2 27.2 62.4 C27.6 63.2 28.7 63.6 31.3 63.8 C32.53333 63.9 34.075 64.025 35 64.1 C35 65.1 35 67.1 35 68.1 C30.9 68 25.4 67.8 19.5 67.8 C13.5 67.8 8 68 3.9 68.1 C3.9 66.76667 3.9 65.1 3.9 64.1 C4.825 64.025 6.675 63.875 7.6 63.8 C10.2 63.6 11.3 63.2 11.7 62.4 C12.3 61.2 12.4 58.5 12.4 54.3 C12.4 40.7 12.4 23.7 12.4 13.5 C12.4 9.3 12.3 6.6 11.7 5.4 C11.3 4.6 10.2 4.2 7.6 4 C6.36667 3.9 4.825 3.775 3.9 3.7 C3.9 2.7 3.9 0.7 3.9 -0.3 C8 -0.2 13.5 0 19.5 0 C25.4 0 30.9 -0.2 35 -0.3 C35 1.03333 35 2.7 35 3.7 C34.075 3.775 32.225 3.925 31.3 4 C28.7 4.2 27.6 4.6 27.2 5.4 C26.6 6.6 26.5 9.3 26.5 13.5 C26.5 27.1 26.5 44.1 26.5 54.3 zM14.7 90.5 C11.675 86.125 5.625 77.375 2.6 73 C3.975 73 6.725 73 8.1 73 C10.925 75.45 16.575 80.35 19.4 82.8 C22.2 80.35 27.8 75.45 30.6 73 C32.025 73 34.875 73 36.3 73 C33.225 77.375 27.075 86.125 24 90.5 C21.675 90.5 17.025 90.5 14.7 90.5 z" />
<glyph unicode="" horiz-adv-x="38.9" d="M26.5 54.3 C26.5 58.5 26.6 61.2 27.2 62.4 C27.6 63.2 28.7 63.6 31.3 63.8 C32.53333 63.9 34.075 64.025 35 64.1 C35 65.1 35 67.1 35 68.1 C30.9 68 25.4 67.8 19.5 67.8 C13.5 67.8 8 68 3.9 68.1 C3.9 66.76667 3.9 65.1 3.9 64.1 C4.825 64.025 6.675 63.875 7.6 63.8 C10.2 63.6 11.3 63.2 11.7 62.4 C12.3 61.2 12.4 58.5 12.4 54.3 C12.4 40.7 12.4 23.7 12.4 13.5 C12.4 9.3 12.3 6.6 11.7 5.4 C11.3 4.6 10.2 4.2 7.6 4 C6.36667 3.9 4.825 3.775 3.9 3.7 C3.9 2.7 3.9 0.7 3.9 -0.3 C8 -0.2 13.5 0 19.5 0 C25.4 0 30.9 -0.2 35 -0.3 C35 1.03333 35 2.7 35 3.7 C34.075 3.775 32.225 3.925 31.3 4 C28.7 4.2 27.6 4.6 27.2 5.4 C26.6 6.6 26.5 9.3 26.5 13.5 C26.5 27.1 26.5 44.1 26.5 54.3 zM8.7 89.5 C5 89.5 2 86.5 2 82.8 C2 79.1 5 76.1 8.7 76.1 C12.4 76.1 15.4 79.1 15.4 82.8 C15.4 86.5 12.4 89.5 8.7 89.5 zM30.2 89.5 C26.5 89.5 23.5 86.5 23.5 82.8 C23.5 79.1 26.5 76.1 30.2 76.1 C33.9 76.1 36.9 79.1 36.9 82.8 C36.9 86.5 33.9 89.5 30.2 89.5 z" />
<glyph unicode="" horiz-adv-x="83.3" d="M12 38 C9.25 38 3.75 38 1 38 C1 36.95 1 34.85 1 33.8 C3.75 33.8 9.25 33.8 12 33.8 C12 27.725 12 15.575 12 9.5 C12 6.4 11.6 4.7 10 3.8 C8.93333 3.2 7.6 2.45 6.8 2 C6.8 1.425 6.8 0.275 6.8 -0.3 C12.2 -0.2 17.1 0 22.1 0 C27.1 0 32 -0.2 37 -0.3 C37.3 -0.3 37.675 -0.3 37.9 -0.3 C59 -0.3 78.6 13.1 78.6 36.9 C78.6 59.3 66.3 68.1 44.8 68.1 C36 68.1 25.6 67.8 19.1 67.8 C15.2 67.8 10.1 68 3.5 68.1 C3.5 66.86667 3.5 65.325 3.5 64.4 C4.425 64.325 6.275 64.175 7.2 64.1 C9.8 63.9 10.8 63.4 11.3 62.4 C11.9 61.2 12 58.5 12 54.3 C12 48.86667 12 42.075 12 38 zM26.1 62.7 C28.2 63 30.2 63.1 32.2 63.1 C55 63.1 63.6 54.8 63.6 35 C63.6 15 54.6 5.2 34.7 5.2 C31.9 5.2 29 5.2 26.1 5.7 C26.1 15.06667 26.1 26.775 26.1 33.8 C29.875 33.8 37.425 33.8 41.2 33.8 C41.2 34.85 41.2 36.95 41.2 38 C37.425 38 29.875 38 26.1 38 C26.1 44.175 26.1 56.525 26.1 62.7 z" />
<glyph unicode="" horiz-adv-x="83.3" d="M12 13.5 C12 9.3 11.9 6.6 11.3 5.4 C10.8 4.4 9.8 3.9 7.2 3.7 C5.96667 3.6 4.425 3.475 3.5 3.4 C3.5 2.475 3.5 0.625 3.5 -0.3 C7.3 -0.2 11.2 0 15 0 C18.8 0 22.6 -0.2 26.4 -0.3 C26.4 0.93333 26.4 2.475 26.4 3.4 C25.475 3.475 23.625 3.625 22.7 3.7 C20.1 3.9 19.1 4.4 18.6 5.4 C18 6.6 17.9 9.3 17.9 13.5 C17.9 26.53333 17.9 42.825 17.9 52.6 C17.95 52.6 18.05 52.6 18.1 52.6 C26.2 42.85 42.4 23.35 50.5 13.6 C54.4 9 58.6 4.3 62.7 -0.3 C65.43333 -0.73333 68.85 -1.275 70.9 -1.6 C71.075 -1.5 71.425 -1.3 71.6 -1.2 C71.5 1.8 71.3 5.4 71.3 8.9 C71.3 24.03333 71.3 42.95 71.3 54.3 C71.3 58.5 71.4 61.2 72 62.4 C72.5 63.4 73.5 63.9 76.1 64.1 C77.33333 64.2 78.875 64.325 79.8 64.4 C79.8 65.325 79.8 67.175 79.8 68.1 C76 68 72.2 67.8 68.4 67.8 C64.6 67.8 60.7 68 56.9 68.1 C56.9 66.86667 56.9 65.325 56.9 64.4 C57.825 64.325 59.675 64.175 60.6 64.1 C63.2 63.9 64.2 63.4 64.7 62.4 C65.3 61.2 65.4 58.5 65.4 54.3 C65.4 42.33333 65.4 27.375 65.4 18.4 C57.6 27.5 42 45.7 34.2 54.8 C30.6 59 27.3 63.7 23.9 68.1 C21.1 68 18.3 67.8 15.5 67.8 C11.5 67.8 7.5 68 3.5 68.1 C3.5 66.86667 3.5 65.325 3.5 64.4 C4.425 64.325 6.275 64.175 7.2 64.1 C9.8 63.9 10.8 63.4 11.3 62.4 C11.9 61.2 12 58.5 12 54.3 C12 40.7 12 23.7 12 13.5 zM55.6 88.5 C54.4 85.9 53.6 83.7 50.4 83.7 C48 83.7 45.5 84.9 43 86.1 C40.5 87.3 38 88.5 35.2 88.5 C26.7 88.5 23.5 79.6 23.4 76 C24.73333 76 26.4 76 27.4 76 C28 78.2 29.5 80.8 32.1 80.8 C34.3 80.8 37 79.7 39.7 78.4 C42.4 77.1 45.3 75.9 47.8 75.9 C55.1 75.9 58.4 82.2 59.9 88.5 C58.46667 88.5 56.675 88.5 55.6 88.5 z" />
<glyph unicode="" horiz-adv-x="83.3" d="M42.7 69.5 C19.8 69.5 4.7 56.9 4.7 33.3 C4.7 10.5 18.3 -1.7 40.7 -1.7 C63.6 -1.7 78.7 10.9 78.7 34.5 C78.7 57.3 65.1 69.5 42.7 69.5 zM42.7 63.9 C56.8 63.9 63.7 49.2 63.7 32.7 C63.7 17.7 59.3 3.9 40.7 3.9 C26.6 3.9 19.7 18.5 19.7 35 C19.7 50 24.1 63.9 42.7 63.9 zM45 73 C46.4 73 49.2 73 50.6 73 C47.375 76.7 40.925 84.1 37.7 87.8 C35.7 90 34.1 91.5 31.1 91.5 C28.3 91.5 26.8 89.5 26.8 87.1 C26.8 83.8 29.5 82.6 31.9 81.1 C36.26667 78.4 41.725 75.025 45 73 z" />
<glyph unicode="" horiz-adv-x="83.3" d="M42.7 69.5 C19.8 69.5 4.7 56.9 4.7 33.3 C4.7 10.5 18.3 -1.7 40.7 -1.7 C63.6 -1.7 78.7 10.9 78.7 34.5 C78.7 57.3 65.1 69.5 42.7 69.5 zM42.7 63.9 C56.8 63.9 63.7 49.2 63.7 32.7 C63.7 17.7 59.3 3.9 40.7 3.9 C26.6 3.9 19.7 18.5 19.7 35 C19.7 50 24.1 63.9 42.7 63.9 zM51.5 81.1 C53.9 82.6 56.6 83.8 56.6 87.1 C56.6 89.5 55.1 91.5 52.3 91.5 C49.3 91.5 47.7 90 45.7 87.8 C41.4 82.86667 36.025 76.7 32.8 73 C34.2 73 37 73 38.4 73 C41.675 75.025 48.225 79.075 51.5 81.1 z" />
<glyph unicode="" horiz-adv-x="83.3" d="M42.7 69.5 C19.8 69.5 4.7 56.9 4.7 33.3 C4.7 10.5 18.3 -1.7 40.7 -1.7 C63.6 -1.7 78.7 10.9 78.7 34.5 C78.7 57.3 65.1 69.5 42.7 69.5 zM42.7 63.9 C56.8 63.9 63.7 49.2 63.7 32.7 C63.7 17.7 59.3 3.9 40.7 3.9 C26.6 3.9 19.7 18.5 19.7 35 C19.7 50 24.1 63.9 42.7 63.9 zM36.9 90.5 C33.875 86.125 27.825 77.375 24.8 73 C26.175 73 28.925 73 30.3 73 C33.125 75.45 38.775 80.35 41.6 82.8 C44.4 80.35 50 75.45 52.8 73 C54.225 73 57.075 73 58.5 73 C55.425 77.375 49.275 86.125 46.2 90.5 C43.875 90.5 39.225 90.5 36.9 90.5 z" />
<glyph unicode="" horiz-adv-x="83.3" d="M42.7 69.5 C19.8 69.5 4.7 56.9 4.7 33.3 C4.7 10.5 18.3 -1.7 40.7 -1.7 C63.6 -1.7 78.7 10.9 78.7 34.5 C78.7 57.3 65.1 69.5 42.7 69.5 zM42.7 63.9 C56.8 63.9 63.7 49.2 63.7 32.7 C63.7 17.7 59.3 3.9 40.7 3.9 C26.6 3.9 19.7 18.5 19.7 35 C19.7 50 24.1 63.9 42.7 63.9 zM55.6 88.5 C54.4 85.9 53.6 83.7 50.4 83.7 C48 83.7 45.5 84.9 43 86.1 C40.5 87.3 38 88.5 35.2 88.5 C26.7 88.5 23.5 79.6 23.4 76 C24.73333 76 26.4 76 27.4 76 C28 78.2 29.5 80.8 32.1 80.8 C34.3 80.8 37 79.7 39.7 78.4 C42.4 77.1 45.3 75.9 47.8 75.9 C55.1 75.9 58.4 82.2 59.9 88.5 C58.46667 88.5 56.675 88.5 55.6 88.5 z" />
<glyph unicode="" horiz-adv-x="83.3" d="M42.7 69.5 C19.8 69.5 4.7 56.9 4.7 33.3 C4.7 10.5 18.3 -1.7 40.7 -1.7 C63.6 -1.7 78.7 10.9 78.7 34.5 C78.7 57.3 65.1 69.5 42.7 69.5 zM42.7 63.9 C56.8 63.9 63.7 49.2 63.7 32.7 C63.7 17.7 59.3 3.9 40.7 3.9 C26.6 3.9 19.7 18.5 19.7 35 C19.7 50 24.1 63.9 42.7 63.9 zM30.9 89.5 C27.2 89.5 24.2 86.5 24.2 82.8 C24.2 79.1 27.2 76.1 30.9 76.1 C34.6 76.1 37.6 79.1 37.6 82.8 C37.6 86.5 34.6 89.5 30.9 89.5 zM52.4 89.5 C48.7 89.5 45.7 86.5 45.7 82.8 C45.7 79.1 48.7 76.1 52.4 76.1 C56.1 76.1 59.1 79.1 59.1 82.8 C59.1 86.5 56.1 89.5 52.4 89.5 z" />
<glyph unicode="" horiz-adv-x="60.6" d="M24.1 25.3 C19.875 21.025 11.425 12.475 7.2 8.2 C8.725 6.675 11.775 3.625 13.3 2.1 C17.525 6.375 25.975 14.925 30.2 19.2 C34.475 14.925 43.025 6.375 47.3 2.1 C48.825 3.625 51.875 6.675 53.4 8.2 C49.125 12.475 40.575 21.025 36.3 25.3 C40.525 29.525 48.975 37.975 53.2 42.2 C51.675 43.725 48.625 46.775 47.1 48.3 C42.875 44.075 34.425 35.625 30.2 31.4 C26 35.625 17.6 44.075 13.4 48.3 C11.875 46.775 8.825 43.725 7.3 42.2 C11.5 37.975 19.9 29.525 24.1 25.3 z" />
<glyph unicode="" horiz-adv-x="83.3" d="M16 6.2 C20.4 1.4 29.4 -1.7 40.7 -1.7 C63.6 -1.7 78.7 10.9 78.7 34.5 C78.7 43.4 77.4 50.5 71.9 57.7 C74.86667 60.43333 78.575 63.85 80.8 65.9 C79.875 66.875 78.025 68.825 77.1 69.8 C74.875 67.775 70.425 63.725 68.2 61.7 C62.5 66.7 53.4 69.5 42.7 69.5 C19.8 69.5 4.7 56.9 4.7 33.3 C4.7 24 6.4 16.6 12.3 10.3 C9.26667 7.53333 5.475 4.075 3.2 2 C4.15 1 6.05 -1 7 -2 C9.25 0.05 13.75 4.15 16 6.2 zM22.2 19.2 C20.2 23.4 19.7 30.3 19.7 35 C19.7 50 24.1 63.9 42.7 63.9 C49.5 63.9 55.1 61.2 59.2 53.4 C46.86667 42 31.45 27.75 22.2 19.2 zM61.5 48.1 C63.4 44 63.7 37.1 63.7 32.7 C63.7 17.7 59.3 3.9 40.7 3.9 C34.1 3.9 28.9 6.6 24.2 13.8 C36.63333 25.23333 52.175 39.525 61.5 48.1 z" />
<glyph unicode="" horiz-adv-x="77.8" d="M11.1 17.7 C11.1 6.4 20.8 -1.7 39.7 -1.7 C57.8 -1.7 67.5 6.8 67.5 25.1 C67.5 34.83333 67.5 47 67.5 54.3 C67.5 58.5 67.6 61.2 68.2 62.4 C68.7 63.4 69.7 63.9 72.3 64.1 C73.53333 64.2 75.075 64.325 76 64.4 C76 65.325 76 67.175 76 68.1 C72.2 68 68.4 67.8 64.6 67.8 C60.8 67.8 56.9 68 53.1 68.1 C53.1 66.86667 53.1 65.325 53.1 64.4 C54.025 64.325 55.875 64.175 56.8 64.1 C59.4 63.9 60.4 63.4 60.9 62.4 C61.5 61.2 61.6 58.5 61.6 54.3 C61.6 46.26667 61.6 36.225 61.6 30.2 C61.6 15.7 59.7 6.5 43 6.5 C26.1 6.5 25.2 15.4 25.2 29.5 C25.2 37.76667 25.2 48.1 25.2 54.3 C25.2 58.5 25.3 61.2 25.9 62.4 C26.4 63.4 27.4 63.9 30 64.1 C31.23333 64.2 32.775 64.325 33.7 64.4 C33.7 65.325 33.7 67.175 33.7 68.1 C29.6 68 24.1 67.8 18.2 67.8 C12.2 67.8 6.7 68 2.6 68.1 C2.6 66.86667 2.6 65.325 2.6 64.4 C3.525 64.325 5.375 64.175 6.3 64.1 C8.9 63.9 9.9 63.4 10.4 62.4 C11 61.2 11.1 58.5 11.1 54.3 C11.1 42.1 11.1 26.85 11.1 17.7 zM42.3 73 C43.7 73 46.5 73 47.9 73 C44.675 76.7 38.225 84.1 35 87.8 C33 90 31.4 91.5 28.4 91.5 C25.6 91.5 24.1 89.5 24.1 87.1 C24.1 83.8 26.8 82.6 29.2 81.1 C33.56667 78.4 39.025 75.025 42.3 73 z" />
<glyph unicode="" horiz-adv-x="77.8" d="M11.1 17.7 C11.1 6.4 20.8 -1.7 39.7 -1.7 C57.8 -1.7 67.5 6.8 67.5 25.1 C67.5 34.83333 67.5 47 67.5 54.3 C67.5 58.5 67.6 61.2 68.2 62.4 C68.7 63.4 69.7 63.9 72.3 64.1 C73.53333 64.2 75.075 64.325 76 64.4 C76 65.325 76 67.175 76 68.1 C72.2 68 68.4 67.8 64.6 67.8 C60.8 67.8 56.9 68 53.1 68.1 C53.1 66.86667 53.1 65.325 53.1 64.4 C54.025 64.325 55.875 64.175 56.8 64.1 C59.4 63.9 60.4 63.4 60.9 62.4 C61.5 61.2 61.6 58.5 61.6 54.3 C61.6 46.26667 61.6 36.225 61.6 30.2 C61.6 15.7 59.7 6.5 43 6.5 C26.1 6.5 25.2 15.4 25.2 29.5 C25.2 37.76667 25.2 48.1 25.2 54.3 C25.2 58.5 25.3 61.2 25.9 62.4 C26.4 63.4 27.4 63.9 30 64.1 C31.23333 64.2 32.775 64.325 33.7 64.4 C33.7 65.325 33.7 67.175 33.7 68.1 C29.6 68 24.1 67.8 18.2 67.8 C12.2 67.8 6.7 68 2.6 68.1 C2.6 66.86667 2.6 65.325 2.6 64.4 C3.525 64.325 5.375 64.175 6.3 64.1 C8.9 63.9 9.9 63.4 10.4 62.4 C11 61.2 11.1 58.5 11.1 54.3 C11.1 42.1 11.1 26.85 11.1 17.7 zM56 81.1 C58.4 82.6 61.1 83.8 61.1 87.1 C61.1 89.5 59.6 91.5 56.8 91.5 C53.8 91.5 52.2 90 50.2 87.8 C45.9 82.86667 40.525 76.7 37.3 73 C38.7 73 41.5 73 42.9 73 C46.175 75.025 52.725 79.075 56 81.1 z" />
<glyph unicode="" horiz-adv-x="77.8" d="M11.1 17.7 C11.1 6.4 20.8 -1.7 39.7 -1.7 C57.8 -1.7 67.5 6.8 67.5 25.1 C67.5 34.83333 67.5 47 67.5 54.3 C67.5 58.5 67.6 61.2 68.2 62.4 C68.7 63.4 69.7 63.9 72.3 64.1 C73.53333 64.2 75.075 64.325 76 64.4 C76 65.325 76 67.175 76 68.1 C72.2 68 68.4 67.8 64.6 67.8 C60.8 67.8 56.9 68 53.1 68.1 C53.1 66.86667 53.1 65.325 53.1 64.4 C54.025 64.325 55.875 64.175 56.8 64.1 C59.4 63.9 60.4 63.4 60.9 62.4 C61.5 61.2 61.6 58.5 61.6 54.3 C61.6 46.26667 61.6 36.225 61.6 30.2 C61.6 15.7 59.7 6.5 43 6.5 C26.1 6.5 25.2 15.4 25.2 29.5 C25.2 37.76667 25.2 48.1 25.2 54.3 C25.2 58.5 25.3 61.2 25.9 62.4 C26.4 63.4 27.4 63.9 30 64.1 C31.23333 64.2 32.775 64.325 33.7 64.4 C33.7 65.325 33.7 67.175 33.7 68.1 C29.6 68 24.1 67.8 18.2 67.8 C12.2 67.8 6.7 68 2.6 68.1 C2.6 66.86667 2.6 65.325 2.6 64.4 C3.525 64.325 5.375 64.175 6.3 64.1 C8.9 63.9 9.9 63.4 10.4 62.4 C11 61.2 11.1 58.5 11.1 54.3 C11.1 42.1 11.1 26.85 11.1 17.7 zM35.4 90.5 C32.375 86.125 26.325 77.375 23.3 73 C24.675 73 27.425 73 28.8 73 C31.625 75.45 37.275 80.35 40.1 82.8 C42.9 80.35 48.5 75.45 51.3 73 C52.725 73 55.575 73 57 73 C53.925 77.375 47.775 86.125 44.7 90.5 C42.375 90.5 37.725 90.5 35.4 90.5 z" />
<glyph unicode="" horiz-adv-x="77.8" d="M11.1 17.7 C11.1 6.4 20.8 -1.7 39.7 -1.7 C57.8 -1.7 67.5 6.8 67.5 25.1 C67.5 34.83333 67.5 47 67.5 54.3 C67.5 58.5 67.6 61.2 68.2 62.4 C68.7 63.4 69.7 63.9 72.3 64.1 C73.53333 64.2 75.075 64.325 76 64.4 C76 65.325 76 67.175 76 68.1 C72.2 68 68.4 67.8 64.6 67.8 C60.8 67.8 56.9 68 53.1 68.1 C53.1 66.86667 53.1 65.325 53.1 64.4 C54.025 64.325 55.875 64.175 56.8 64.1 C59.4 63.9 60.4 63.4 60.9 62.4 C61.5 61.2 61.6 58.5 61.6 54.3 C61.6 46.26667 61.6 36.225 61.6 30.2 C61.6 15.7 59.7 6.5 43 6.5 C26.1 6.5 25.2 15.4 25.2 29.5 C25.2 37.76667 25.2 48.1 25.2 54.3 C25.2 58.5 25.3 61.2 25.9 62.4 C26.4 63.4 27.4 63.9 30 64.1 C31.23333 64.2 32.775 64.325 33.7 64.4 C33.7 65.325 33.7 67.175 33.7 68.1 C29.6 68 24.1 67.8 18.2 67.8 C12.2 67.8 6.7 68 2.6 68.1 C2.6 66.86667 2.6 65.325 2.6 64.4 C3.525 64.325 5.375 64.175 6.3 64.1 C8.9 63.9 9.9 63.4 10.4 62.4 C11 61.2 11.1 58.5 11.1 54.3 C11.1 42.1 11.1 26.85 11.1 17.7 zM29.4 89.5 C25.7 89.5 22.7 86.5 22.7 82.8 C22.7 79.1 25.7 76.1 29.4 76.1 C33.1 76.1 36.1 79.1 36.1 82.8 C36.1 86.5 33.1 89.5 29.4 89.5 zM50.9 89.5 C47.2 89.5 44.2 86.5 44.2 82.8 C44.2 79.1 47.2 76.1 50.9 76.1 C54.6 76.1 57.6 79.1 57.6 82.8 C57.6 86.5 54.6 89.5 50.9 89.5 z" />
<glyph unicode="" horiz-adv-x="66.7" d="M39.5 35.6 C36.825 40.675 31.475 50.825 28.8 55.9 C26 61.2 22.9 66.4 17.4 69.5 C12.1 68.3 5.475 66.8 1.5 65.9 C1.5 64.975 1.5 63.125 1.5 62.2 C4.9 62.2 7 61.4 9.3 58.9 C11 57 13.1 54.4 14.5 52.2 C17.86667 46.76667 22.075 39.975 24.6 35.9 C25.9 33.8 27.1 31.7 29 27.4 C29 22.76667 29 16.975 29 13.5 C29 9.3 28.9 6.6 28.3 5.4 C27.9 4.6 26.8 4.2 24.2 4 C22.96667 3.9 21.425 3.775 20.5 3.7 C20.5 2.7 20.5 0.7 20.5 -0.3 C24.6 -0.2 30.1 0 36.1 0 C42 0 47.5 -0.2 51.6 -0.3 C51.6 1.03333 51.6 2.7 51.6 3.7 C50.675 3.775 48.825 3.925 47.9 4 C45.3 4.2 44.2 4.6 43.8 5.4 C43.2 6.6 43.1 9.3 43.1 13.5 C43.1 18.93333 43.1 25.725 43.1 29.8 C44.6 33.2 46.3 36.7 48.4 39.8 C54.26667 48.5 61.6 59.375 66 65.9 C66 66.375 66 67.325 66 67.8 C64.075 67.8 60.225 67.8 58.3 67.8 C53.6 59.75 44.2 43.65 39.5 35.6 zM53.6 81.1 C56 82.6 58.7 83.8 58.7 87.1 C58.7 89.5 57.2 91.5 54.4 91.5 C51.4 91.5 49.8 90 47.8 87.8 C43.5 82.86667 38.125 76.7 34.9 73 C36.3 73 39.1 73 40.5 73 C43.775 75.025 50.325 79.075 53.6 81.1 z" />
<glyph unicode="" horiz-adv-x="61.1" d="M26.5 48.7 C28.1 49.5 31.2 49.6 34.7 49.6 C40.8 49.6 43 43.8 43 34.6 C43 28.4 41 22.9 36 22.9 C33.4 22.9 31.8 23.1 30.4 23.6 C30.06667 23.26667 29.65 22.85 29.4 22.6 C29.825 21.725 30.675 19.975 31.1 19.1 C32.6 18.9 34.6 18.4 37.3 18.4 C47.1 18.4 57.4 26.5 57.4 39.8 C57.4 53.4 45.8 54.6 34.7 54.6 C30.1 54.6 28.3 54.7 26.5 54.9 C26.5 58.5 26.6 61.2 27.2 62.4 C27.7 63.4 28.7 63.9 31.3 64.1 C32.53333 64.2 34.075 64.325 35 64.4 C35 65.325 35 67.175 35 68.1 C30.9 68 25.4 67.8 19.5 67.8 C13.5 67.8 8 68 3.9 68.1 C3.9 66.86667 3.9 65.325 3.9 64.4 C4.825 64.325 6.675 64.175 7.6 64.1 C10.2 63.9 11.2 63.4 11.7 62.4 C12.3 61.2 12.4 58.5 12.4 54.3 C12.4 40.7 12.4 23.7 12.4 13.5 C12.4 9.3 12.3 6.6 11.7 5.4 C11.3 4.6 10.2 4.2 7.6 4 C6.36667 3.9 4.825 3.775 3.9 3.7 C3.9 2.7 3.9 0.7 3.9 -0.3 C8 -0.2 13.5 0 19.5 0 C25.4 0 30.9 -0.2 36 -0.3 C36 1.03333 36 2.7 36 3.7 C34.825 3.775 32.475 3.925 31.3 4 C28.7 4.2 27.6 4.6 27.2 5.4 C26.7 6.3 26.4 8.2 26.4 11.1 C26.4 11.8 26.5 12.6 26.5 13.5 C26.5 25.23333 26.5 39.9 26.5 48.7 z" />
<glyph unicode="" horiz-adv-x="61.1" d="M10.5 10 C10.5 7.6 10.4 6.3 10.1 5.3 C9.8 4.3 9 3.7 6.9 3.6 C5.6 3.53333 3.975 3.45 3 3.4 C3 2.475 3 0.625 3 -0.3 C8.3 -0.2 12.6 0 16.9 0 C21.3 0 25.5 -0.2 28.9 -0.3 C28.9 -0.06667 28.9 0.225 28.9 0.4 C30.5 -0.5 33.7 -1.7 36.1 -1.7 C38.8 -1.7 42.2 -0.9 44 -0.2 C45.1 0.2 46 1 46.8 1.8 C48.3 3.2 50.175 4.95 51.3 6 C55.1 9.6 56.5 11.9 56.5 17.4 C56.5 21.7 54.8 24.6 51.1 26.7 C48.46667 28.23333 45.175 30.15 43.2 31.3 C41.1 32.5 37.5 34 37.5 37.7 C37.5 40.4 40.1 41.5 42.4 41.5 C44.3 41.5 46.3 40.9 47.8 39.6 C48.23333 39.9 48.775 40.275 49.1 40.5 C49.25 41.15 49.55 42.45 49.7 43.1 C50.8 47.8 52.1 52.8 52.1 57.7 C52.1 66.6 46 72 37.3 72 C30 72 25.8 69.3 20.2 64.9 C13.6 59.7 10.3 55.2 10.3 50.9 C10.3 48.46667 10.3 45.425 10.3 43.6 C8.575 42.475 5.125 40.225 3.4 39.1 C3.4 38.525 3.4 37.375 3.4 36.8 C5.175 36.8 8.725 36.8 10.5 36.8 C10.5 30.1 10.5 16.7 10.5 10 zM22.7 47 C22.7 50.5 22.7 55.1 23.5 58.5 C24.6 63.1 29.4 65.3 33.7 65.3 C40.7 65.3 44.8 59.8 44.8 53.2 C44.8 51 44.4 48.8 44.1 46.6 C43.9 46.6 43.65 46.6 43.5 46.6 C41 46.6 38.7 45.5 36.9 44 C32.3 40.2 28.8 37 28.8 30.6 C28.8 25 33.3 22.1 37.7 19.4 C42.1 16.7 46.5 14.4 46.5 10 C46.5 6.4 43.3 4 39.9 4 C37.3 4 35.5 5 33.4 6.4 C33.26667 8.2 33.1 10.45 33 11.8 C32.175 11.65 30.525 11.35 29.7 11.2 C29.475 9.25 29.025 5.35 28.8 3.4 C28.075 3.475 26.625 3.625 25.9 3.7 C22.7 3.9 22.7 6.8 22.7 9.9 C22.7 22.26667 22.7 37.725 22.7 47 z" />
<glyph unicode="" horiz-adv-x="50" d="M21.1 25.7 C16.8 24.8 12.3 23.6 8.6 21.1 C5.2 18.8 4 14.4 4 10.5 C4 3.4 7.7 -1.7 15.1 -1.7 C16.9 -1.7 19.1 -1.7 20.6 -0.5 C23.7 1.9 27.575 4.9 29.9 6.7 C29.775 5.15 29.525 2.05 29.4 0.5 C29.525 0.3 29.775 -0.1 29.9 -0.3 C33.4 -0.2 36.2 0 39 0 C41.9 0 44.6 -0.2 47.8 -0.3 C47.8 0.93333 47.8 2.475 47.8 3.4 C47.05 3.475 45.55 3.625 44.8 3.7 C42.8 3.9 42.2 5.3 42.1 7.8 C42 11.9 41.8 16.1 41.8 20.2 C41.8 24.3 42 28.4 42.1 32.5 C42.1 32.7 42.1 32.95 42.1 33.1 C42.1 43.3 34.2 47.1 25.6 47.1 C22.4 47.1 18.3 46.3 14 43.7 C12.23333 42.63333 10.025 41.3 8.7 40.5 C8.7 38.775 8.7 35.325 8.7 33.6 C9.45 33.425 10.95 33.075 11.7 32.9 C12.25 34.15 13.35 36.65 13.9 37.9 C14.3 38.8 17.8 39.3 19.5 39.3 C27 39.3 29.9 34.5 29.9 27.5 C26.96667 26.9 23.3 26.15 21.1 25.7 zM29.9 11.5 C28.7 9.6 24.6 7 21.6 7 C18.6 7 16.2 8.8 16.2 13 C16.2 19.5 20.1 20.6 25.4 22.1 C26.9 22.5 28.775 23 29.9 23.3 C29.9 20.35 29.9 14.45 29.9 11.5 zM28.4 52.6 C29.8 52.6 32.6 52.6 34 52.6 C30.775 56.3 24.325 63.7 21.1 67.4 C19.1 69.6 17.5 71.1 14.5 71.1 C11.7 71.1 10.2 69.1 10.2 66.7 C10.2 63.4 12.9 62.2 15.3 60.7 C19.66667 58 25.125 54.625 28.4 52.6 z" />
<glyph unicode="" horiz-adv-x="50" d="M21.1 25.7 C16.8 24.8 12.3 23.6 8.6 21.1 C5.2 18.8 4 14.4 4 10.5 C4 3.4 7.7 -1.7 15.1 -1.7 C16.9 -1.7 19.1 -1.7 20.6 -0.5 C23.7 1.9 27.575 4.9 29.9 6.7 C29.775 5.15 29.525 2.05 29.4 0.5 C29.525 0.3 29.775 -0.1 29.9 -0.3 C33.4 -0.2 36.2 0 39 0 C41.9 0 44.6 -0.2 47.8 -0.3 C47.8 0.93333 47.8 2.475 47.8 3.4 C47.05 3.475 45.55 3.625 44.8 3.7 C42.8 3.9 42.2 5.3 42.1 7.8 C42 11.9 41.8 16.1 41.8 20.2 C41.8 24.3 42 28.4 42.1 32.5 C42.1 32.7 42.1 32.95 42.1 33.1 C42.1 43.3 34.2 47.1 25.6 47.1 C22.4 47.1 18.3 46.3 14 43.7 C12.23333 42.63333 10.025 41.3 8.7 40.5 C8.7 38.775 8.7 35.325 8.7 33.6 C9.45 33.425 10.95 33.075 11.7 32.9 C12.25 34.15 13.35 36.65 13.9 37.9 C14.3 38.8 17.8 39.3 19.5 39.3 C27 39.3 29.9 34.5 29.9 27.5 C26.96667 26.9 23.3 26.15 21.1 25.7 zM29.9 11.5 C28.7 9.6 24.6 7 21.6 7 C18.6 7 16.2 8.8 16.2 13 C16.2 19.5 20.1 20.6 25.4 22.1 C26.9 22.5 28.775 23 29.9 23.3 C29.9 20.35 29.9 14.45 29.9 11.5 zM34.9 60.7 C37.3 62.2 40 63.4 40 66.7 C40 69.1 38.5 71.1 35.7 71.1 C32.7 71.1 31.1 69.6 29.1 67.4 C24.8 62.46667 19.425 56.3 16.2 52.6 C17.6 52.6 20.4 52.6 21.8 52.6 C25.075 54.625 31.625 58.675 34.9 60.7 z" />
<glyph unicode="" horiz-adv-x="50" d="M21.1 25.7 C16.8 24.8 12.3 23.6 8.6 21.1 C5.2 18.8 4 14.4 4 10.5 C4 3.4 7.7 -1.7 15.1 -1.7 C16.9 -1.7 19.1 -1.7 20.6 -0.5 C23.7 1.9 27.575 4.9 29.9 6.7 C29.775 5.15 29.525 2.05 29.4 0.5 C29.525 0.3 29.775 -0.1 29.9 -0.3 C33.4 -0.2 36.2 0 39 0 C41.9 0 44.6 -0.2 47.8 -0.3 C47.8 0.93333 47.8 2.475 47.8 3.4 C47.05 3.475 45.55 3.625 44.8 3.7 C42.8 3.9 42.2 5.3 42.1 7.8 C42 11.9 41.8 16.1 41.8 20.2 C41.8 24.3 42 28.4 42.1 32.5 C42.1 32.7 42.1 32.95 42.1 33.1 C42.1 43.3 34.2 47.1 25.6 47.1 C22.4 47.1 18.3 46.3 14 43.7 C12.23333 42.63333 10.025 41.3 8.7 40.5 C8.7 38.775 8.7 35.325 8.7 33.6 C9.45 33.425 10.95 33.075 11.7 32.9 C12.25 34.15 13.35 36.65 13.9 37.9 C14.3 38.8 17.8 39.3 19.5 39.3 C27 39.3 29.9 34.5 29.9 27.5 C26.96667 26.9 23.3 26.15 21.1 25.7 zM29.9 11.5 C28.7 9.6 24.6 7 21.6 7 C18.6 7 16.2 8.8 16.2 13 C16.2 19.5 20.1 20.6 25.4 22.1 C26.9 22.5 28.775 23 29.9 23.3 C29.9 20.35 29.9 14.45 29.9 11.5 zM20.3 70.1 C17.275 65.725 11.225 56.975 8.2 52.6 C9.575 52.6 12.325 52.6 13.7 52.6 C16.525 55.05 22.175 59.95 25 62.4 C27.8 59.95 33.4 55.05 36.2 52.6 C37.625 52.6 40.475 52.6 41.9 52.6 C38.825 56.975 32.675 65.725 29.6 70.1 C27.275 70.1 22.625 70.1 20.3 70.1 z" />
<glyph unicode="" horiz-adv-x="50" d="M21.1 25.7 C16.8 24.8 12.3 23.6 8.6 21.1 C5.2 18.8 4 14.4 4 10.5 C4 3.4 7.7 -1.7 15.1 -1.7 C16.9 -1.7 19.1 -1.7 20.6 -0.5 C23.7 1.9 27.575 4.9 29.9 6.7 C29.775 5.15 29.525 2.05 29.4 0.5 C29.525 0.3 29.775 -0.1 29.9 -0.3 C33.4 -0.2 36.2 0 39 0 C41.9 0 44.6 -0.2 47.8 -0.3 C47.8 0.93333 47.8 2.475 47.8 3.4 C47.05 3.475 45.55 3.625 44.8 3.7 C42.8 3.9 42.2 5.3 42.1 7.8 C42 11.9 41.8 16.1 41.8 20.2 C41.8 24.3 42 28.4 42.1 32.5 C42.1 32.7 42.1 32.95 42.1 33.1 C42.1 43.3 34.2 47.1 25.6 47.1 C22.4 47.1 18.3 46.3 14 43.7 C12.23333 42.63333 10.025 41.3 8.7 40.5 C8.7 38.775 8.7 35.325 8.7 33.6 C9.45 33.425 10.95 33.075 11.7 32.9 C12.25 34.15 13.35 36.65 13.9 37.9 C14.3 38.8 17.8 39.3 19.5 39.3 C27 39.3 29.9 34.5 29.9 27.5 C26.96667 26.9 23.3 26.15 21.1 25.7 zM29.9 11.5 C28.7 9.6 24.6 7 21.6 7 C18.6 7 16.2 8.8 16.2 13 C16.2 19.5 20.1 20.6 25.4 22.1 C26.9 22.5 28.775 23 29.9 23.3 C29.9 20.35 29.9 14.45 29.9 11.5 zM39 69.3 C37.8 66.7 37 64.5 33.8 64.5 C31.4 64.5 28.9 65.7 26.4 66.9 C23.9 68.1 21.4 69.3 18.6 69.3 C10.1 69.3 6.9 60.4 6.8 56.8 C8.13333 56.8 9.8 56.8 10.8 56.8 C11.4 59 12.9 61.6 15.5 61.6 C17.7 61.6 20.4 60.5 23.1 59.2 C25.8 57.9 28.7 56.7 31.2 56.7 C38.5 56.7 41.8 63 43.3 69.3 C41.86667 69.3 40.075 69.3 39 69.3 z" />
<glyph unicode="" horiz-adv-x="50" d="M21.1 25.7 C16.8 24.8 12.3 23.6 8.6 21.1 C5.2 18.8 4 14.4 4 10.5 C4 3.4 7.7 -1.7 15.1 -1.7 C16.9 -1.7 19.1 -1.7 20.6 -0.5 C23.7 1.9 27.575 4.9 29.9 6.7 C29.775 5.15 29.525 2.05 29.4 0.5 C29.525 0.3 29.775 -0.1 29.9 -0.3 C33.4 -0.2 36.2 0 39 0 C41.9 0 44.6 -0.2 47.8 -0.3 C47.8 0.93333 47.8 2.475 47.8 3.4 C47.05 3.475 45.55 3.625 44.8 3.7 C42.8 3.9 42.2 5.3 42.1 7.8 C42 11.9 41.8 16.1 41.8 20.2 C41.8 24.3 42 28.4 42.1 32.5 C42.1 32.7 42.1 32.95 42.1 33.1 C42.1 43.3 34.2 47.1 25.6 47.1 C22.4 47.1 18.3 46.3 14 43.7 C12.23333 42.63333 10.025 41.3 8.7 40.5 C8.7 38.775 8.7 35.325 8.7 33.6 C9.45 33.425 10.95 33.075 11.7 32.9 C12.25 34.15 13.35 36.65 13.9 37.9 C14.3 38.8 17.8 39.3 19.5 39.3 C27 39.3 29.9 34.5 29.9 27.5 C26.96667 26.9 23.3 26.15 21.1 25.7 zM29.9 11.5 C28.7 9.6 24.6 7 21.6 7 C18.6 7 16.2 8.8 16.2 13 C16.2 19.5 20.1 20.6 25.4 22.1 C26.9 22.5 28.775 23 29.9 23.3 C29.9 20.35 29.9 14.45 29.9 11.5 zM14.3 69.1 C10.6 69.1 7.6 66.1 7.6 62.4 C7.6 58.7 10.6 55.7 14.3 55.7 C18 55.7 21 58.7 21 62.4 C21 66.1 18 69.1 14.3 69.1 zM35.8 69.1 C32.1 69.1 29.1 66.1 29.1 62.4 C29.1 58.7 32.1 55.7 35.8 55.7 C39.5 55.7 42.5 58.7 42.5 62.4 C42.5 66.1 39.5 69.1 35.8 69.1 z" />
<glyph unicode="" horiz-adv-x="50" d="M21.1 25.7 C16.8 24.8 12.3 23.6 8.6 21.1 C5.2 18.8 4 14.4 4 10.5 C4 3.4 7.7 -1.7 15.1 -1.7 C16.9 -1.7 19.1 -1.7 20.6 -0.5 C23.7 1.9 27.575 4.9 29.9 6.7 C29.775 5.15 29.525 2.05 29.4 0.5 C29.525 0.3 29.775 -0.1 29.9 -0.3 C33.4 -0.2 36.2 0 39 0 C41.9 0 44.6 -0.2 47.8 -0.3 C47.8 0.93333 47.8 2.475 47.8 3.4 C47.05 3.475 45.55 3.625 44.8 3.7 C42.8 3.9 42.2 5.3 42.1 7.8 C42 11.9 41.8 16.1 41.8 20.2 C41.8 24.3 42 28.4 42.1 32.5 C42.1 32.7 42.1 32.95 42.1 33.1 C42.1 43.3 34.2 47.1 25.6 47.1 C22.4 47.1 18.3 46.3 14 43.7 C12.23333 42.63333 10.025 41.3 8.7 40.5 C8.7 38.775 8.7 35.325 8.7 33.6 C9.45 33.425 10.95 33.075 11.7 32.9 C12.25 34.15 13.35 36.65 13.9 37.9 C14.3 38.8 17.8 39.3 19.5 39.3 C27 39.3 29.9 34.5 29.9 27.5 C26.96667 26.9 23.3 26.15 21.1 25.7 zM29.9 11.5 C28.7 9.6 24.6 7 21.6 7 C18.6 7 16.2 8.8 16.2 13 C16.2 19.5 20.1 20.6 25.4 22.1 C26.9 22.5 28.775 23 29.9 23.3 C29.9 20.35 29.9 14.45 29.9 11.5 zM25.1 67 C27.9 67 30.1 64.8 30.1 62 C30.1 59.2 27.9 57 25.1 57 C22.3 57 20.1 59.2 20.1 62 C20.1 64.8 22.3 67 25.1 67 zM25.1 72 C19.6 72 15.1 67.5 15.1 62 C15.1 56.5 19.6 52 25.1 52 C30.6 52 35.1 56.5 35.1 62 C35.1 67.5 30.6 72 25.1 72 z" />
<glyph unicode="" horiz-adv-x="77.8" d="M52.2 41.5 C59.6 41.5 60.4 33.5 60.4 27.6 C57.6 27.5 54.8 27.3 52 27.3 C49.2 27.3 46.4 27.5 43.6 27.6 C43.6 37 46.4 41.5 52.2 41.5 zM57.3 22.3 C61.7 22.3 67.7 22.8 73.1 24.3 C73.1 26.03333 73.1 28.2 73.1 29.5 C73.1 41.2 64.5 47.1 54.8 47.1 C49.2 47.1 44.3 45.3 40.5 41.9 C36.5 45.9 32.8 47.1 26.1 47.1 C22.9 47.1 18.8 46.3 14.5 43.7 C12.73333 42.63333 10.525 41.3 9.2 40.5 C9.2 38.825 9.2 35.475 9.2 33.8 C10 33.7 11.6 33.5 12.4 33.4 C12.8 34.45 13.6 36.55 14 37.6 C16.2 39.2 18.6 40 21 40 C29 40 31.9 34.5 31.9 27.5 C28.96667 26.9 25.3 26.15 23.1 25.7 C18.8 24.8 14.3 23.6 9.8 21.4 C6.2 19.6 4.6 15.2 4.6 10.4 C4.6 3.4 9.7 -1.7 17.1 -1.7 C18.6 -1.7 22.1 -1.1 23 -0.4 C26.8 2.33333 31.55 5.75 34.4 7.8 C39 0.5 46.5 -1.7 53.9 -1.7 C59.8 -1.7 63.9 -0.6 69.9 2.6 C70.63333 4.2 71.55 6.2 72.1 7.4 C71.8 7.775 71.2 8.525 70.9 8.9 C67.7 7 63.4 5.4 60.1 5.4 C49.7 5.4 44.2 12.6 44.2 22.3 C48.56667 22.3 54.025 22.3 57.3 22.3 zM31.9 11.5 C30.7 9.6 26.6 7 23.6 7 C19.4 7 17.2 8.8 17.2 12.8 C17.2 18.6 22.1 20.6 26.4 21.6 C28.23333 22.03333 30.525 22.575 31.9 22.9 C31.9 20.05 31.9 14.35 31.9 11.5 z" />
<glyph unicode="" horiz-adv-x="44.4" d="M41.4 6.3 C41.175 6.55 40.725 7.05 40.5 7.3 C37.5 6 34.9 5.4 32.3 5.4 C20.4 5.4 16.1 15.6 16.1 25.9 C16.1 32.8 17.9 40 26.1 40 C29.2 40 34.4 38.6 34.7 35.7 C34.93333 33.7 35.225 31.2 35.4 29.7 C36.3 29.7 38.1 29.7 39 29.7 C39.5 34.8 40.1 39.4 41 43.8 C40.76667 44.23333 40.475 44.775 40.3 45.1 C36.7 46.4 33.8 47.1 30.9 47.1 C27 47.1 24 46.8 21 45 C19.26667 43.96667 17.1 42.675 15.8 41.9 C4.3 35 3.7 29 3.7 22 C3.7 8.9 10 -0.7 24.1 -1.5 C22.8 -4.43333 21.175 -8.1 20.2 -10.3 C20.45 -10.5 20.95 -10.9 21.2 -11.1 C22.4 -10.8 23.5 -10.7 24.4 -10.7 C27.2 -10.7 28.6 -11.8 28.6 -14.2 C28.6 -17 26.4 -17.9 23.5 -17.9 C21.4 -17.9 19.1 -17.5 16.9 -17 C16.36667 -18.23333 15.7 -19.775 15.3 -20.7 C17.6 -21.6 21.6 -22.5 24.1 -22.5 C29.4 -22.5 38 -21 38 -14 C38 -10 35.9 -6.5 30.1 -6.5 C28.9 -6.5 27.5 -6.7 25.8 -7.1 C26.6 -5.26667 27.6 -2.975 28.2 -1.6 C32.1 -1.3 36 -0.2 39.3 1.7 C40 3.23333 40.875 5.15 41.4 6.3 z" />
<glyph unicode="" horiz-adv-x="50" d="M30.3 22.3 C34.7 22.3 40.7 22.8 46.1 24.3 C46.1 26.03333 46.1 28.2 46.1 29.5 C46.1 41.2 37.7 47.1 26.6 47.1 C23.6 47.1 20.9 46.3 18.4 44.8 C16.83333 43.86667 14.875 42.7 13.7 42 C5.3 37 4.2 29.6 4.2 21.4 C4.2 7.1 12.3 -1.7 26.9 -1.7 C32.8 -1.7 36.9 -0.6 42.9 2.6 C43.63333 4.2 44.55 6.2 45.1 7.4 C44.8 7.775 44.2 8.525 43.9 8.9 C40.7 7 36.4 5.4 33.1 5.4 C22.7 5.4 17.2 12.6 17.2 22.3 C21.56667 22.3 27.025 22.3 30.3 22.3 zM25.2 41.5 C32.6 41.5 33.4 33.5 33.4 27.6 C30.6 27.5 27.8 27.3 25 27.3 C22.2 27.3 19.4 27.5 16.6 27.6 C16.6 37 19.4 41.5 25.2 41.5 zM28.4 52.6 C29.8 52.6 32.6 52.6 34 52.6 C30.775 56.3 24.325 63.7 21.1 67.4 C19.1 69.6 17.5 71.1 14.5 71.1 C11.7 71.1 10.2 69.1 10.2 66.7 C10.2 63.4 12.9 62.2 15.3 60.7 C19.66667 58 25.125 54.625 28.4 52.6 z" />
<glyph unicode="" horiz-adv-x="50" d="M30.3 22.3 C34.7 22.3 40.7 22.8 46.1 24.3 C46.1 26.03333 46.1 28.2 46.1 29.5 C46.1 41.2 37.7 47.1 26.6 47.1 C23.6 47.1 20.9 46.3 18.4 44.8 C16.83333 43.86667 14.875 42.7 13.7 42 C5.3 37 4.2 29.6 4.2 21.4 C4.2 7.1 12.3 -1.7 26.9 -1.7 C32.8 -1.7 36.9 -0.6 42.9 2.6 C43.63333 4.2 44.55 6.2 45.1 7.4 C44.8 7.775 44.2 8.525 43.9 8.9 C40.7 7 36.4 5.4 33.1 5.4 C22.7 5.4 17.2 12.6 17.2 22.3 C21.56667 22.3 27.025 22.3 30.3 22.3 zM25.2 41.5 C32.6 41.5 33.4 33.5 33.4 27.6 C30.6 27.5 27.8 27.3 25 27.3 C22.2 27.3 19.4 27.5 16.6 27.6 C16.6 37 19.4 41.5 25.2 41.5 zM34.9 60.7 C37.3 62.2 40 63.4 40 66.7 C40 69.1 38.5 71.1 35.7 71.1 C32.7 71.1 31.1 69.6 29.1 67.4 C24.8 62.46667 19.425 56.3 16.2 52.6 C17.6 52.6 20.4 52.6 21.8 52.6 C25.075 54.625 31.625 58.675 34.9 60.7 z" />
<glyph unicode="" horiz-adv-x="50" d="M30.3 22.3 C34.7 22.3 40.7 22.8 46.1 24.3 C46.1 26.03333 46.1 28.2 46.1 29.5 C46.1 41.2 37.7 47.1 26.6 47.1 C23.6 47.1 20.9 46.3 18.4 44.8 C16.83333 43.86667 14.875 42.7 13.7 42 C5.3 37 4.2 29.6 4.2 21.4 C4.2 7.1 12.3 -1.7 26.9 -1.7 C32.8 -1.7 36.9 -0.6 42.9 2.6 C43.63333 4.2 44.55 6.2 45.1 7.4 C44.8 7.775 44.2 8.525 43.9 8.9 C40.7 7 36.4 5.4 33.1 5.4 C22.7 5.4 17.2 12.6 17.2 22.3 C21.56667 22.3 27.025 22.3 30.3 22.3 zM25.2 41.5 C32.6 41.5 33.4 33.5 33.4 27.6 C30.6 27.5 27.8 27.3 25 27.3 C22.2 27.3 19.4 27.5 16.6 27.6 C16.6 37 19.4 41.5 25.2 41.5 zM21.5 72.1 C18.475 67.725 12.425 58.975 9.4 54.6 C10.775 54.6 13.525 54.6 14.9 54.6 C17.725 57.05 23.375 61.95 26.2 64.4 C29 61.95 34.6 57.05 37.4 54.6 C38.825 54.6 41.675 54.6 43.1 54.6 C40.025 58.975 33.875 67.725 30.8 72.1 C28.475 72.1 23.825 72.1 21.5 72.1 z" />
<glyph unicode="" horiz-adv-x="50" d="M30.3 22.3 C34.7 22.3 40.7 22.8 46.1 24.3 C46.1 26.03333 46.1 28.2 46.1 29.5 C46.1 41.2 37.7 47.1 26.6 47.1 C23.6 47.1 20.9 46.3 18.4 44.8 C16.83333 43.86667 14.875 42.7 13.7 42 C5.3 37 4.2 29.6 4.2 21.4 C4.2 7.1 12.3 -1.7 26.9 -1.7 C32.8 -1.7 36.9 -0.6 42.9 2.6 C43.63333 4.2 44.55 6.2 45.1 7.4 C44.8 7.775 44.2 8.525 43.9 8.9 C40.7 7 36.4 5.4 33.1 5.4 C22.7 5.4 17.2 12.6 17.2 22.3 C21.56667 22.3 27.025 22.3 30.3 22.3 zM25.2 41.5 C32.6 41.5 33.4 33.5 33.4 27.6 C30.6 27.5 27.8 27.3 25 27.3 C22.2 27.3 19.4 27.5 16.6 27.6 C16.6 37 19.4 41.5 25.2 41.5 zM15.1 69.1 C11.4 69.1 8.4 66.1 8.4 62.4 C8.4 58.7 11.4 55.7 15.1 55.7 C18.8 55.7 21.8 58.7 21.8 62.4 C21.8 66.1 18.8 69.1 15.1 69.1 zM36.6 69.1 C32.9 69.1 29.9 66.1 29.9 62.4 C29.9 58.7 32.9 55.7 36.6 55.7 C40.3 55.7 43.3 58.7 43.3 62.4 C43.3 66.1 40.3 69.1 36.6 69.1 z" />
<glyph unicode="" horiz-adv-x="33.3" d="M10.5 10 C10.5 7.6 10.4 6.3 10.1 5.3 C9.8 4.3 9 3.8 6.9 3.6 C5.73333 3.53333 4.275 3.45 3.4 3.4 C3.4 2.475 3.4 0.625 3.4 -0.3 C7.7 -0.2 11.9 0 16.3 0 C21.3 0 25.5 -0.2 29.8 -0.3 C29.8 0.93333 29.8 2.475 29.8 3.4 C28.925 3.45 27.175 3.55 26.3 3.6 C24.2 3.8 23.4 4.3 23.1 5.3 C22.8 6.3 22.7 7.6 22.7 10 C22.7 22.16667 22.7 37.375 22.7 46.5 C22.45 46.65 21.95 46.95 21.7 47.1 C19.95 46.55 16.45 45.45 14.7 44.9 C11 43.7 7.2 43.3 3.4 42.8 C3.4 41.6 3.4 40.1 3.4 39.2 C4.525 39.125 6.775 38.975 7.9 38.9 C10.3 38.7 10.5 37.6 10.5 31.9 C10.5 24.6 10.5 15.475 10.5 10 zM20 52.6 C21.4 52.6 24.2 52.6 25.6 52.6 C22.375 56.3 15.925 63.7 12.7 67.4 C10.7 69.6 9.1 71.1 6.1 71.1 C3.3 71.1 1.8 69.1 1.8 66.7 C1.8 63.4 4.5 62.2 6.9 60.7 C11.26667 58 16.725 54.625 20 52.6 z" />
<glyph unicode="" horiz-adv-x="33.3" d="M10.5 10 C10.5 7.6 10.4 6.3 10.1 5.3 C9.8 4.3 9 3.8 6.9 3.6 C5.73333 3.53333 4.275 3.45 3.4 3.4 C3.4 2.475 3.4 0.625 3.4 -0.3 C7.7 -0.2 11.9 0 16.3 0 C21.3 0 25.5 -0.2 29.8 -0.3 C29.8 0.93333 29.8 2.475 29.8 3.4 C28.925 3.45 27.175 3.55 26.3 3.6 C24.2 3.8 23.4 4.3 23.1 5.3 C22.8 6.3 22.7 7.6 22.7 10 C22.7 22.16667 22.7 37.375 22.7 46.5 C22.45 46.65 21.95 46.95 21.7 47.1 C19.95 46.55 16.45 45.45 14.7 44.9 C11 43.7 7.2 43.3 3.4 42.8 C3.4 41.6 3.4 40.1 3.4 39.2 C4.525 39.125 6.775 38.975 7.9 38.9 C10.3 38.7 10.5 37.6 10.5 31.9 C10.5 24.6 10.5 15.475 10.5 10 zM26.5 60.7 C28.9 62.2 31.6 63.4 31.6 66.7 C31.6 69.1 30.1 71.1 27.3 71.1 C24.3 71.1 22.7 69.6 20.7 67.4 C16.4 62.46667 11.025 56.3 7.8 52.6 C9.2 52.6 12 52.6 13.4 52.6 C16.675 54.625 23.225 58.675 26.5 60.7 z" />
<glyph unicode="" horiz-adv-x="33.3" d="M10.5 10 C10.5 7.6 10.4 6.3 10.1 5.3 C9.8 4.3 9 3.8 6.9 3.6 C5.73333 3.53333 4.275 3.45 3.4 3.4 C3.4 2.475 3.4 0.625 3.4 -0.3 C7.7 -0.2 11.9 0 16.3 0 C21.3 0 25.5 -0.2 29.8 -0.3 C29.8 0.93333 29.8 2.475 29.8 3.4 C28.925 3.45 27.175 3.55 26.3 3.6 C24.2 3.8 23.4 4.3 23.1 5.3 C22.8 6.3 22.7 7.6 22.7 10 C22.7 22.16667 22.7 37.375 22.7 46.5 C22.45 46.65 21.95 46.95 21.7 47.1 C19.95 46.55 16.45 45.45 14.7 44.9 C11 43.7 7.2 43.3 3.4 42.8 C3.4 41.6 3.4 40.1 3.4 39.2 C4.525 39.125 6.775 38.975 7.9 38.9 C10.3 38.7 10.5 37.6 10.5 31.9 C10.5 24.6 10.5 15.475 10.5 10 zM11.9 70.1 C8.875 65.725 2.825 56.975 -0.2 52.6 C1.175 52.6 3.925 52.6 5.3 52.6 C8.125 55.05 13.775 59.95 16.6 62.4 C19.4 59.95 25 55.05 27.8 52.6 C29.225 52.6 32.075 52.6 33.5 52.6 C30.425 56.975 24.275 65.725 21.2 70.1 C18.875 70.1 14.225 70.1 11.9 70.1 z" />
<glyph unicode="" horiz-adv-x="33.3" d="M10.5 10 C10.5 7.6 10.4 6.3 10.1 5.3 C9.8 4.3 9 3.8 6.9 3.6 C5.73333 3.53333 4.275 3.45 3.4 3.4 C3.4 2.475 3.4 0.625 3.4 -0.3 C7.7 -0.2 11.9 0 16.3 0 C21.3 0 25.5 -0.2 29.8 -0.3 C29.8 0.93333 29.8 2.475 29.8 3.4 C28.925 3.45 27.175 3.55 26.3 3.6 C24.2 3.8 23.4 4.3 23.1 5.3 C22.8 6.3 22.7 7.6 22.7 10 C22.7 22.16667 22.7 37.375 22.7 46.5 C22.45 46.65 21.95 46.95 21.7 47.1 C19.95 46.55 16.45 45.45 14.7 44.9 C11 43.7 7.2 43.3 3.4 42.8 C3.4 41.6 3.4 40.1 3.4 39.2 C4.525 39.125 6.775 38.975 7.9 38.9 C10.3 38.7 10.5 37.6 10.5 31.9 C10.5 24.6 10.5 15.475 10.5 10 zM5.9 71 C2.2 71 -0.8 68 -0.8 64.3 C-0.8 60.6 2.2 57.6 5.9 57.6 C9.6 57.6 12.6 60.6 12.6 64.3 C12.6 68 9.6 71 5.9 71 zM27.4 71 C23.7 71 20.7 68 20.7 64.3 C20.7 60.6 23.7 57.6 27.4 57.6 C31.1 57.6 34.1 60.6 34.1 64.3 C34.1 68 31.1 71 27.4 71 z" />
<glyph unicode="" horiz-adv-x="55.6" d="M28.5 3.1 C18.2 3.1 17.6 17.6 17.6 24.9 C17.6 31.9 18.1 42.3 27.5 42.3 C37.9 42.3 38.1 28.6 38.1 21.6 C38.1 15.2 37.3 3.1 28.5 3.1 zM47.4 66.3 C46.95 67.25 46.05 69.15 45.6 70.1 C42.25 68.55 35.55 65.45 32.2 63.9 C28.1 67.1 23.8 69.4 18.4 72 C17.06667 70.26667 15.4 68.1 14.4 66.8 C17.6 65.3 21 62.9 23.9 60 C19.86667 58.13333 14.825 55.8 11.8 54.4 C12.25 53.45 13.15 51.55 13.6 50.6 C16.925 52.15 23.575 55.25 26.9 56.8 C29.9 53.4 32.2 49.6 33 46.2 C31.2 46.8 29.8 47.1 27.5 47.1 C13 47.1 4 38 4 22.5 C4 8.4 11 -1.7 26.4 -1.7 C43 -1.7 51.4 10.2 51.7 26.1 C51.7 26.4 51.7 26.775 51.7 27 C51.7 40.9 44.9 52.5 35.8 60.9 C39.66667 62.7 44.5 64.95 47.4 66.3 z" />
<glyph unicode="" horiz-adv-x="61.1" d="M9.5 10 C9.5 7.6 9.4 6.3 9.1 5.3 C8.8 4.3 8 3.8 5.9 3.6 C4.73333 3.53333 3.275 3.45 2.4 3.4 C2.4 2.475 2.4 0.625 2.4 -0.3 C6.7 -0.2 10.9 0 15.3 0 C20.3 0 24.5 -0.2 28.8 -0.3 C28.8 0.93333 28.8 2.475 28.8 3.4 C27.925 3.45 26.175 3.55 25.3 3.6 C23.2 3.8 22.4 4.3 22.1 5.3 C21.8 6.3 21.7 7.6 21.7 10 C21.7 17.23333 21.7 26.275 21.7 31.7 C21.7 34.6 25.4 38.5 29.5 38.5 C33.1 38.5 35.3 37.9 37 36.2 C38.8 34.4 39.6 31.8 39.6 27 C39.6 17.9 39.6 6.525 39.6 -0.3 C42.4 -0.2 45.3 0 48.9 0 C52.1 0 55.1 -0.2 58.7 -0.3 C58.7 0.93333 58.7 2.475 58.7 3.4 C57.875 3.45 56.225 3.55 55.4 3.6 C53.3 3.8 52.5 4.3 52.2 5.3 C51.9 6.3 51.8 7.6 51.8 10 C51.8 16.2 51.8 23.95 51.8 28.6 C51.8 34.5 51.5 39.5 48.1 43.1 C45.5 45.8 41.2 47.1 37.3 47.1 C35.1 47.1 32.2 47.1 29.7 45.2 C27.03333 43.13333 23.7 40.55 21.7 39 C21.7 40.875 21.7 44.625 21.7 46.5 C21.55 46.65 21.25 46.95 21.1 47.1 C15.2 45.2 9.3 43 2.4 42.8 C2.4 41.6 2.4 40.1 2.4 39.2 C3.525 39.125 5.775 38.975 6.9 38.9 C9.3 38.7 9.5 37.6 9.5 31.9 C9.5 24.6 9.5 15.475 9.5 10 zM44.5 69.3 C43.3 66.7 42.5 64.5 39.3 64.5 C36.9 64.5 34.4 65.7 31.9 66.9 C29.4 68.1 26.9 69.3 24.1 69.3 C15.6 69.3 12.4 60.4 12.3 56.8 C13.63333 56.8 15.3 56.8 16.3 56.8 C16.9 59 18.4 61.6 21 61.6 C23.2 61.6 25.9 60.5 28.6 59.2 C31.3 57.9 34.2 56.7 36.7 56.7 C44 56.7 47.3 63 48.8 69.3 C47.36667 69.3 45.575 69.3 44.5 69.3 z" />
<glyph unicode="" horiz-adv-x="55.6" d="M28.5 47.1 C12.5 47.1 4 38 4 22.5 C4 8.4 11 -1.7 26.4 -1.7 C43 -1.7 51.7 7.6 51.7 23.7 C51.7 38.6 43.8 47.1 28.5 47.1 zM28.6 3.1 C18.3 3.1 17.6 17.6 17.6 24.9 C17.6 31.9 18.2 42.3 27.6 42.3 C38 42.3 38.1 26.6 38.1 19.6 C38.1 13.2 37.4 3.1 28.6 3.1 zM31.2 52.6 C32.6 52.6 35.4 52.6 36.8 52.6 C33.575 56.3 27.125 63.7 23.9 67.4 C21.9 69.6 20.3 71.1 17.3 71.1 C14.5 71.1 13 69.1 13 66.7 C13 63.4 15.7 62.2 18.1 60.7 C22.46667 58 27.925 54.625 31.2 52.6 z" />
<glyph unicode="" horiz-adv-x="55.6" d="M28.5 47.1 C12.5 47.1 4 38 4 22.5 C4 8.4 11 -1.7 26.4 -1.7 C43 -1.7 51.7 7.6 51.7 23.7 C51.7 38.6 43.8 47.1 28.5 47.1 zM28.6 3.1 C18.3 3.1 17.6 17.6 17.6 24.9 C17.6 31.9 18.2 42.3 27.6 42.3 C38 42.3 38.1 26.6 38.1 19.6 C38.1 13.2 37.4 3.1 28.6 3.1 zM37.7 60.7 C40.1 62.2 42.8 63.4 42.8 66.7 C42.8 69.1 41.3 71.1 38.5 71.1 C35.5 71.1 33.9 69.6 31.9 67.4 C27.6 62.46667 22.225 56.3 19 52.6 C20.4 52.6 23.2 52.6 24.6 52.6 C27.875 54.625 34.425 58.675 37.7 60.7 z" />
<glyph unicode="" horiz-adv-x="55.6" d="M28.5 47.1 C12.5 47.1 4 38 4 22.5 C4 8.4 11 -1.7 26.4 -1.7 C43 -1.7 51.7 7.6 51.7 23.7 C51.7 38.6 43.8 47.1 28.5 47.1 zM28.6 3.1 C18.3 3.1 17.6 17.6 17.6 24.9 C17.6 31.9 18.2 42.3 27.6 42.3 C38 42.3 38.1 26.6 38.1 19.6 C38.1 13.2 37.4 3.1 28.6 3.1 zM23.1 70.1 C20.075 65.725 14.025 56.975 11 52.6 C12.375 52.6 15.125 52.6 16.5 52.6 C19.325 55.05 24.975 59.95 27.8 62.4 C30.6 59.95 36.2 55.05 39 52.6 C40.425 52.6 43.275 52.6 44.7 52.6 C41.625 56.975 35.475 65.725 32.4 70.1 C30.075 70.1 25.425 70.1 23.1 70.1 z" />
<glyph unicode="" horiz-adv-x="55.6" d="M28.5 47.1 C12.5 47.1 4 38 4 22.5 C4 8.4 11 -1.7 26.4 -1.7 C43 -1.7 51.7 7.6 51.7 23.7 C51.7 38.6 43.8 47.1 28.5 47.1 zM28.6 3.1 C18.3 3.1 17.6 17.6 17.6 24.9 C17.6 31.9 18.2 42.3 27.6 42.3 C38 42.3 38.1 26.6 38.1 19.6 C38.1 13.2 37.4 3.1 28.6 3.1 zM41.8 69.3 C40.6 66.7 39.8 64.5 36.6 64.5 C34.2 64.5 31.7 65.7 29.2 66.9 C26.7 68.1 24.2 69.3 21.4 69.3 C12.9 69.3 9.7 60.4 9.6 56.8 C10.93333 56.8 12.6 56.8 13.6 56.8 C14.2 59 15.7 61.6 18.3 61.6 C20.5 61.6 23.2 60.5 25.9 59.2 C28.6 57.9 31.5 56.7 34 56.7 C41.3 56.7 44.6 63 46.1 69.3 C44.66667 69.3 42.875 69.3 41.8 69.3 z" />
<glyph unicode="" horiz-adv-x="55.6" d="M28.5 47.1 C12.5 47.1 4 38 4 22.5 C4 8.4 11 -1.7 26.4 -1.7 C43 -1.7 51.7 7.6 51.7 23.7 C51.7 38.6 43.8 47.1 28.5 47.1 zM28.6 3.1 C18.3 3.1 17.6 17.6 17.6 24.9 C17.6 31.9 18.2 42.3 27.6 42.3 C38 42.3 38.1 26.6 38.1 19.6 C38.1 13.2 37.4 3.1 28.6 3.1 zM17.1 71 C13.4 71 10.4 68 10.4 64.3 C10.4 60.6 13.4 57.6 17.1 57.6 C20.8 57.6 23.8 60.6 23.8 64.3 C23.8 68 20.8 71 17.1 71 zM38.6 71 C34.9 71 31.9 68 31.9 64.3 C31.9 60.6 34.9 57.6 38.6 57.6 C42.3 57.6 45.3 60.6 45.3 64.3 C45.3 68 42.3 71 38.6 71 z" />
<glyph unicode="" horiz-adv-x="60.6" d="M5.1 21.2 C17.7 21.2 42.9 21.2 55.5 21.2 C55.5 23.35 55.5 27.65 55.5 29.8 C42.9 29.8 17.7 29.8 5.1 29.8 C5.1 27.65 5.1 23.35 5.1 21.2 zM30.3 37.6 C34 37.6 37 40.6 37 44.3 C37 48 34 51 30.3 51 C26.6 51 23.6 48 23.6 44.3 C23.6 40.6 26.6 37.6 30.3 37.6 zM30.3 0 C34 0 37 3 37 6.7 C37 10.4 34 13.4 30.3 13.4 C26.6 13.4 23.6 10.4 23.6 6.7 C23.6 3 26.6 0 30.3 0 z" />
<glyph unicode="" horiz-adv-x="55.6" d="M51 46.8 C49.6 45.45 46.8 42.75 45.4 41.4 C42.1 44.9 36.3 47.1 28.5 47.1 C12.5 47.1 4 38 4 22.5 C4 15.5 5.9 9.4 8.6 6.4 C6.5 4.43333 3.875 1.975 2.3 0.5 C2.875 -0.075 4.025 -1.225 4.6 -1.8 C6.125 -0.35 9.175 2.55 10.7 4 C16.4 -1 22.7 -1.7 26.4 -1.7 C43 -1.7 51.7 7.6 51.7 23.7 C51.7 29.7 51 34.2 47.4 39 C49.4 40.86667 51.9 43.2 53.4 44.6 C52.8 45.15 51.6 46.25 51 46.8 zM18.4 15.8 C17.8 19.8 17.6 23.1 17.6 24.9 C17.6 31.9 18.2 42.3 27.6 42.3 C33.2 42.3 35.5 38 36.8 33.3 C30.66667 27.46667 23 20.175 18.4 15.8 zM37.4 29.4 C38 26.8 38.1 25.2 38.1 19.6 C38.1 13.2 37.4 3.1 28.6 3.1 C23.6 3.1 20.8 6.7 19 11.9 C25.13333 17.73333 32.8 25.025 37.4 29.4 z" />
<glyph unicode="" horiz-adv-x="61.1" d="M9.6 14 C9.6 4.5 14.2 -1.7 25.2 -1.7 C27.6 -1.7 30.2 -0.8 31.6 0.6 C34.13333 3.06667 37.3 6.15 39.2 8 C39.075 5.925 38.825 1.775 38.7 -0.3 C42.7 -0.2 45.5 0 47.2 0 C50 0 54.2 -0.2 58.3 -0.3 C58.3 0.93333 58.3 2.475 58.3 3.4 C57.475 3.45 55.825 3.55 55 3.6 C52.9 3.8 52.1 4.3 51.8 5.3 C51.5 6.3 51.4 7.6 51.4 10 C51.4 22.16667 51.4 37.375 51.4 46.5 C51.15 46.65 50.65 46.95 50.4 47.1 C48.65 46.55 45.15 45.45 43.4 44.9 C39.7 43.7 35.9 43.3 32.1 42.8 C32.1 41.6 32.1 40.1 32.1 39.2 C33.225 39.125 35.475 38.975 36.6 38.9 C39 38.7 39.2 37.6 39.2 31.9 C39.2 26.7 39.2 20.2 39.2 16.3 C39.2 15 39 13.5 38.3 12.4 C36.5 9.5 33.3 7.3 29.9 7.3 C22.2 7.3 21.8 13.9 21.8 20.4 C21.8 29.1 21.8 39.975 21.8 46.5 C21.55 46.65 21.05 46.95 20.8 47.1 C19.05 46.55 15.55 45.45 13.8 44.9 C10.1 43.7 6.3 43.3 2.5 42.8 C2.5 41.6 2.5 40.1 2.5 39.2 C3.625 39.125 5.875 38.975 7 38.9 C9.4 38.7 9.6 37.6 9.6 31.9 C9.6 25.93333 9.6 18.475 9.6 14 zM33.1 52.6 C34.5 52.6 37.3 52.6 38.7 52.6 C35.475 56.3 29.025 63.7 25.8 67.4 C23.8 69.6 22.2 71.1 19.2 71.1 C16.4 71.1 14.9 69.1 14.9 66.7 C14.9 63.4 17.6 62.2 20 60.7 C24.36667 58 29.825 54.625 33.1 52.6 z" />
<glyph unicode="" horiz-adv-x="61.1" d="M9.6 14 C9.6 4.5 14.2 -1.7 25.2 -1.7 C27.6 -1.7 30.2 -0.8 31.6 0.6 C34.13333 3.06667 37.3 6.15 39.2 8 C39.075 5.925 38.825 1.775 38.7 -0.3 C42.7 -0.2 45.5 0 47.2 0 C50 0 54.2 -0.2 58.3 -0.3 C58.3 0.93333 58.3 2.475 58.3 3.4 C57.475 3.45 55.825 3.55 55 3.6 C52.9 3.8 52.1 4.3 51.8 5.3 C51.5 6.3 51.4 7.6 51.4 10 C51.4 22.16667 51.4 37.375 51.4 46.5 C51.15 46.65 50.65 46.95 50.4 47.1 C48.65 46.55 45.15 45.45 43.4 44.9 C39.7 43.7 35.9 43.3 32.1 42.8 C32.1 41.6 32.1 40.1 32.1 39.2 C33.225 39.125 35.475 38.975 36.6 38.9 C39 38.7 39.2 37.6 39.2 31.9 C39.2 26.7 39.2 20.2 39.2 16.3 C39.2 15 39 13.5 38.3 12.4 C36.5 9.5 33.3 7.3 29.9 7.3 C22.2 7.3 21.8 13.9 21.8 20.4 C21.8 29.1 21.8 39.975 21.8 46.5 C21.55 46.65 21.05 46.95 20.8 47.1 C19.05 46.55 15.55 45.45 13.8 44.9 C10.1 43.7 6.3 43.3 2.5 42.8 C2.5 41.6 2.5 40.1 2.5 39.2 C3.625 39.125 5.875 38.975 7 38.9 C9.4 38.7 9.6 37.6 9.6 31.9 C9.6 25.93333 9.6 18.475 9.6 14 zM41.6 60.7 C44 62.2 46.7 63.4 46.7 66.7 C46.7 69.1 45.2 71.1 42.4 71.1 C39.4 71.1 37.8 69.6 35.8 67.4 C31.5 62.46667 26.125 56.3 22.9 52.6 C24.3 52.6 27.1 52.6 28.5 52.6 C31.775 54.625 38.325 58.675 41.6 60.7 z" />
<glyph unicode="" horiz-adv-x="61.1" d="M9.6 14 C9.6 4.5 14.2 -1.7 25.2 -1.7 C27.6 -1.7 30.2 -0.8 31.6 0.6 C34.13333 3.06667 37.3 6.15 39.2 8 C39.075 5.925 38.825 1.775 38.7 -0.3 C42.7 -0.2 45.5 0 47.2 0 C50 0 54.2 -0.2 58.3 -0.3 C58.3 0.93333 58.3 2.475 58.3 3.4 C57.475 3.45 55.825 3.55 55 3.6 C52.9 3.8 52.1 4.3 51.8 5.3 C51.5 6.3 51.4 7.6 51.4 10 C51.4 22.16667 51.4 37.375 51.4 46.5 C51.15 46.65 50.65 46.95 50.4 47.1 C48.65 46.55 45.15 45.45 43.4 44.9 C39.7 43.7 35.9 43.3 32.1 42.8 C32.1 41.6 32.1 40.1 32.1 39.2 C33.225 39.125 35.475 38.975 36.6 38.9 C39 38.7 39.2 37.6 39.2 31.9 C39.2 26.7 39.2 20.2 39.2 16.3 C39.2 15 39 13.5 38.3 12.4 C36.5 9.5 33.3 7.3 29.9 7.3 C22.2 7.3 21.8 13.9 21.8 20.4 C21.8 29.1 21.8 39.975 21.8 46.5 C21.55 46.65 21.05 46.95 20.8 47.1 C19.05 46.55 15.55 45.45 13.8 44.9 C10.1 43.7 6.3 43.3 2.5 42.8 C2.5 41.6 2.5 40.1 2.5 39.2 C3.625 39.125 5.875 38.975 7 38.9 C9.4 38.7 9.6 37.6 9.6 31.9 C9.6 25.93333 9.6 18.475 9.6 14 zM25.8 70.1 C22.775 65.725 16.725 56.975 13.7 52.6 C15.075 52.6 17.825 52.6 19.2 52.6 C22.025 55.05 27.675 59.95 30.5 62.4 C33.3 59.95 38.9 55.05 41.7 52.6 C43.125 52.6 45.975 52.6 47.4 52.6 C44.325 56.975 38.175 65.725 35.1 70.1 C32.775 70.1 28.125 70.1 25.8 70.1 z" />
<glyph unicode="" horiz-adv-x="61.1" d="M9.6 14 C9.6 4.5 14.2 -1.7 25.2 -1.7 C27.6 -1.7 30.2 -0.8 31.6 0.6 C34.13333 3.06667 37.3 6.15 39.2 8 C39.075 5.925 38.825 1.775 38.7 -0.3 C42.7 -0.2 45.5 0 47.2 0 C50 0 54.2 -0.2 58.3 -0.3 C58.3 0.93333 58.3 2.475 58.3 3.4 C57.475 3.45 55.825 3.55 55 3.6 C52.9 3.8 52.1 4.3 51.8 5.3 C51.5 6.3 51.4 7.6 51.4 10 C51.4 22.16667 51.4 37.375 51.4 46.5 C51.15 46.65 50.65 46.95 50.4 47.1 C48.65 46.55 45.15 45.45 43.4 44.9 C39.7 43.7 35.9 43.3 32.1 42.8 C32.1 41.6 32.1 40.1 32.1 39.2 C33.225 39.125 35.475 38.975 36.6 38.9 C39 38.7 39.2 37.6 39.2 31.9 C39.2 26.7 39.2 20.2 39.2 16.3 C39.2 15 39 13.5 38.3 12.4 C36.5 9.5 33.3 7.3 29.9 7.3 C22.2 7.3 21.8 13.9 21.8 20.4 C21.8 29.1 21.8 39.975 21.8 46.5 C21.55 46.65 21.05 46.95 20.8 47.1 C19.05 46.55 15.55 45.45 13.8 44.9 C10.1 43.7 6.3 43.3 2.5 42.8 C2.5 41.6 2.5 40.1 2.5 39.2 C3.625 39.125 5.875 38.975 7 38.9 C9.4 38.7 9.6 37.6 9.6 31.9 C9.6 25.93333 9.6 18.475 9.6 14 zM19.8 71 C16.1 71 13.1 68 13.1 64.3 C13.1 60.6 16.1 57.6 19.8 57.6 C23.5 57.6 26.5 60.6 26.5 64.3 C26.5 68 23.5 71 19.8 71 zM41.3 71 C37.6 71 34.6 68 34.6 64.3 C34.6 60.6 37.6 57.6 41.3 57.6 C45 57.6 48 60.6 48 64.3 C48 68 45 71 41.3 71 z" />
<glyph unicode="" horiz-adv-x="55.6" d="M23.1 34.3 C22.1 36.8 21.4 38 21.4 39.6 C21.4 41 22.6 41.8 24 41.9 C25.16667 41.96667 26.625 42.05 27.5 42.1 C27.5 43.05 27.5 44.95 27.5 45.9 C23.1 45.8 18.7 45.6 14.3 45.6 C9.9 45.6 5.4 45.8 1 45.9 C1 44.63333 1 43.05 1 42.1 C1.875 42.05 3.625 41.95 4.5 41.9 C6 41.8 7.3 40 8.7 36.4 C13.96667 22.93333 20.55 6.1 24.5 -4 C23.925 -5.4 22.775 -8.2 22.2 -9.6 C20.3 -14.2 17 -18.7 13.2 -18.7 C10.2 -18.7 7.9 -17.3 6 -15 C5.63333 -15.13333 5.175 -15.3 4.9 -15.4 C4.45 -17.775 3.55 -22.525 3.1 -24.9 C5.3 -25.9 7.9 -26.6 10.4 -26.6 C21 -26.6 26.3 -13.3 28 -9.4 C34.63333 6.03333 42.925 25.325 47.9 36.9 C49.1 39.7 50.6 41.3 52 41.6 C52.86667 41.76667 53.95 41.975 54.6 42.1 C54.6 43.05 54.6 44.95 54.6 45.9 C51.5 45.8 48.4 45.6 45.3 45.6 C42.2 45.6 39.1 45.8 36 45.9 C36 44.63333 36 43.05 36 42.1 C36.825 42.05 38.475 41.95 39.3 41.9 C40.6 41.8 42 41.2 42 40 C42 39.4 41.9 38.5 41.6 37.7 C38.23333 29.3 34.025 18.8 31.5 12.5 C29.4 17.95 25.2 28.85 23.1 34.3 zM40.9 60.7 C43.3 62.2 46 63.4 46 66.7 C46 69.1 44.5 71.1 41.7 71.1 C38.7 71.1 37.1 69.6 35.1 67.4 C30.8 62.46667 25.425 56.3 22.2 52.6 C23.6 52.6 26.4 52.6 27.8 52.6 C31.075 54.625 37.625 58.675 40.9 60.7 z" />
<glyph unicode="" horiz-adv-x="61.1" d="M21.8 33.1 C23.6 36.2 27.6 38.1 31.2 38.1 C40.2 38.1 43.7 30.6 43.7 22.6 C43.7 15.1 41.3 5.1 32 5.1 C27.8 5.1 24.1 7.1 21.8 10.6 C21.8 18.1 21.8 27.475 21.8 33.1 zM9.6 -15.5 C9.6 -17.9 9.5 -19.2 9.2 -20.2 C8.9 -21.2 8.1 -21.7 6 -21.9 C4.83333 -21.96667 3.375 -22.05 2.5 -22.1 C2.5 -23.025 2.5 -24.875 2.5 -25.8 C6.8 -25.7 11 -25.5 15.4 -25.5 C20.4 -25.5 24.6 -25.7 29.9 -25.8 C29.9 -24.56667 29.9 -23.025 29.9 -22.1 C28.775 -22.05 26.525 -21.95 25.4 -21.9 C23.3 -21.8 22.5 -21.2 22.2 -20.2 C21.9 -19.2 21.8 -17.9 21.8 -15.5 C21.8 -10.33333 21.8 -3.875 21.8 0 C24.5 -0.8 27.6 -1.7 30.7 -1.7 C33.1 -1.7 35.6 -0.7 38.9 1.4 C41.7 3.2 44.3 5.4 46.7 7.2 C49.2 9.1 52.3 12.6 54 17 C55.3 20.3 56.3 24.4 56.3 28.5 C56.3 39 48.9 47.1 38.3 47.1 C33.1 47.1 30.4 45.2 27.9 43.2 C25.86667 41.56667 23.325 39.525 21.8 38.3 C21.8 46.575 21.8 63.125 21.8 71.4 C21.6 71.55 21.2 71.85 21 72 C19.2 71.45 15.6 70.35 13.8 69.8 C10.1 68.7 6.3 68.2 1.7 67.7 C1.7 66.5 1.7 65 1.7 64.1 C3.025 64.025 5.675 63.875 7 63.8 C9.4 63.6 9.6 62.5 9.6 56.8 C9.6 32.7 9.6 2.575 9.6 -15.5 z" />
<glyph unicode="" horiz-adv-x="55.6" d="M23.1 34.3 C22.1 36.8 21.4 38 21.4 39.6 C21.4 41 22.6 41.8 24 41.9 C25.16667 41.96667 26.625 42.05 27.5 42.1 C27.5 43.05 27.5 44.95 27.5 45.9 C23.1 45.8 18.7 45.6 14.3 45.6 C9.9 45.6 5.4 45.8 1 45.9 C1 44.63333 1 43.05 1 42.1 C1.875 42.05 3.625 41.95 4.5 41.9 C6 41.8 7.3 40 8.7 36.4 C13.96667 22.93333 20.55 6.1 24.5 -4 C23.925 -5.4 22.775 -8.2 22.2 -9.6 C20.3 -14.2 17 -18.7 13.2 -18.7 C10.2 -18.7 7.9 -17.3 6 -15 C5.63333 -15.13333 5.175 -15.3 4.9 -15.4 C4.45 -17.775 3.55 -22.525 3.1 -24.9 C5.3 -25.9 7.9 -26.6 10.4 -26.6 C21 -26.6 26.3 -13.3 28 -9.4 C34.63333 6.03333 42.925 25.325 47.9 36.9 C49.1 39.7 50.6 41.3 52 41.6 C52.86667 41.76667 53.95 41.975 54.6 42.1 C54.6 43.05 54.6 44.95 54.6 45.9 C51.5 45.8 48.4 45.6 45.3 45.6 C42.2 45.6 39.1 45.8 36 45.9 C36 44.63333 36 43.05 36 42.1 C36.825 42.05 38.475 41.95 39.3 41.9 C40.6 41.8 42 41.2 42 40 C42 39.4 41.9 38.5 41.6 37.7 C38.23333 29.3 34.025 18.8 31.5 12.5 C29.4 17.95 25.2 28.85 23.1 34.3 zM18.3 71 C14.6 71 11.6 68 11.6 64.3 C11.6 60.6 14.6 57.6 18.3 57.6 C22 57.6 25 60.6 25 64.3 C25 68 22 71 18.3 71 zM39.8 71 C36.1 71 33.1 68 33.1 64.3 C33.1 60.6 36.1 57.6 39.8 57.6 C43.5 57.6 46.5 60.6 46.5 64.3 C46.5 68 43.5 71 39.8 71 z" />
<glyph unicode="" horiz-adv-x="33.3" d="M10.5 10 C10.5 7.6 10.4 6.3 10.1 5.3 C9.8 4.3 9 3.8 6.9 3.6 C5.73333 3.53333 4.275 3.45 3.4 3.4 C3.4 2.475 3.4 0.625 3.4 -0.3 C7.7 -0.2 11.9 0 16.3 0 C21.3 0 25.5 -0.2 29.8 -0.3 C29.8 0.93333 29.8 2.475 29.8 3.4 C28.925 3.45 27.175 3.55 26.3 3.6 C24.2 3.8 23.4 4.3 23.1 5.3 C22.8 6.3 22.7 7.6 22.7 10 C22.7 22.16667 22.7 37.375 22.7 46.5 C22.45 46.65 21.95 46.95 21.7 47.1 C19.95 46.55 16.45 45.45 14.7 44.9 C11 43.7 7.2 43.3 3.4 42.8 C3.4 41.6 3.4 40.1 3.4 39.2 C4.525 39.125 6.775 38.975 7.9 38.9 C10.3 38.7 10.5 37.6 10.5 31.9 C10.5 24.6 10.5 15.475 10.5 10 z" />
<glyph unicode="" horiz-adv-x="61.1" d="M26.5 54.3 C26.5 58.5 26.6 61.2 27.2 62.4 C27.6 63.2 28.7 63.6 31.3 63.8 C32.53333 63.9 34.075 64.025 35 64.1 C35 65.1 35 67.1 35 68.1 C30.9 68 25.4 67.8 19.5 67.8 C13.5 67.8 8 68 3.9 68.1 C3.9 66.76667 3.9 65.1 3.9 64.1 C4.825 64.025 6.675 63.875 7.6 63.8 C10.2 63.6 11.3 63.2 11.7 62.4 C12.3 61.2 12.4 58.5 12.4 54.3 C12.4 47.2 12.4 38.325 12.4 33 C9.7 31.5 4.3 28.5 1.6 27 C1.95 26 2.65 24 3 23 C5.35 24.3 10.05 26.9 12.4 28.2 C12.4 23.525 12.4 14.175 12.4 9.5 C12.4 6.4 12 4.7 10.4 3.8 C9.33333 3.2 8 2.45 7.2 2 C7.2 1.425 7.2 0.275 7.2 -0.3 C10.9 -0.2 15 0 19.2 0 C23.3 0 27.4 -0.2 31.5 -0.3 C34 -0.4 37.3 -0.4 40.8 -0.4 C46.2 -0.4 52.1 -0.3 56.1 0 C56.26667 0.26667 56.475 0.6 56.6 0.8 C56.875 4.95 57.425 13.25 57.7 17.4 C56.725 17.4 54.775 17.4 53.8 17.4 C53.225 14.85 52.075 9.75 51.5 7.2 C51.3 6.4 43.9 5.5 39.3 5.5 C35 5.5 30.7 5.6 26.5 5.8 C26.5 15.86667 26.5 28.45 26.5 36 C29.725 37.8 36.175 41.4 39.4 43.2 C39.05 44.2 38.35 46.2 38 47.2 C35.125 45.6 29.375 42.4 26.5 40.8 C26.5 44.175 26.5 50.925 26.5 54.3 z" />
<glyph unicode="" horiz-adv-x="33.3" d="M22.5 71.4 C22.3 71.55 21.9 71.85 21.7 72 C19.9 71.45 16.3 70.35 14.5 69.8 C10.8 68.7 7 68.2 2.4 67.7 C2.4 66.5 2.4 65 2.4 64.1 C3.725 64.025 6.375 63.875 7.7 63.8 C10.1 63.6 10.3 62.5 10.3 56.8 C10.3 50.1 10.3 41.725 10.3 36.7 C7.625 34.975 2.275 31.525 -0.4 29.8 C-0.05 28.95 0.65 27.25 1 26.4 C3.325 27.9 7.975 30.9 10.3 32.4 C10.3 26.8 10.3 15.6 10.3 10 C10.3 7.6 10.2 6.3 9.9 5.3 C9.6 4.3 8.8 3.8 6.7 3.6 C5.53333 3.53333 4.075 3.45 3.2 3.4 C3.2 2.475 3.2 0.625 3.2 -0.3 C7.5 -0.2 11.7 0 16.1 0 C21.1 0 25.3 -0.2 29.6 -0.3 C29.6 0.93333 29.6 2.475 29.6 3.4 C28.725 3.45 26.975 3.55 26.1 3.6 C24 3.8 23.2 4.3 22.9 5.3 C22.6 6.3 22.5 7.6 22.5 10 C22.5 20.1 22.5 32.725 22.5 40.3 C25.225 42.075 30.675 45.625 33.4 47.4 C33.05 48.25 32.35 49.95 32 50.8 C29.625 49.25 24.875 46.15 22.5 44.6 C22.5 51.3 22.5 64.7 22.5 71.4 z" />
<glyph unicode="" horiz-adv-x="100" d="M4.3 34.4 C4.3 11.7 17.4 -1.7 40.2 -1.7 C43.5 -1.7 46.8 -1.1 50.1 -0.6 C53.4 -0.1 56.7 0 60 0 C64.1 0 68.2 -0.2 72.3 -0.3 C74.8 -0.4 78.1 -0.4 81.6 -0.4 C87 -0.4 92.9 -0.3 96.9 0 C97.06667 0.26667 97.275 0.6 97.4 0.8 C97.675 4.75 98.225 12.65 98.5 16.6 C97.525 16.6 95.575 16.6 94.6 16.6 C94.025 14.25 92.875 9.55 92.3 7.2 C92.1 6.4 84.7 5.5 80.1 5.5 C75.8 5.5 71.5 5.6 67.3 5.8 C67.3 14.7 67.3 25.825 67.3 32.5 C69.6 32.7 71.8 32.8 74 32.8 C76.2 32.8 78.95 32.8 80.6 32.8 C84.1 32.8 86 31.9 86.3 29.1 C86.5 27.43333 86.75 25.35 86.9 24.1 C87.9 24.1 89.9 24.1 90.9 24.1 C90.8 27.7 90.6 31.3 90.6 34.9 C90.6 38.5 90.8 42 90.9 45.6 C89.56667 45.6 87.9 45.6 86.9 45.6 C86.75 44.175 86.45 41.325 86.3 39.9 C86.1 38 84.1 37.8 80.6 37.8 C78.4 37.8 75.65 37.8 74 37.8 C71.8 37.8 69.6 37.8 67.3 38 C67.3 46 67.3 56 67.3 62 C71.5 62.2 75.8 62.3 80.1 62.3 C84.7 62.3 91.4 61.9 91.6 60.4 C91.86667 57.9 92.2 54.775 92.4 52.9 C93.3 52.9 95.1 52.9 96 52.9 C96.35 56.45 97.05 63.55 97.4 67.1 C97.25 67.275 96.95 67.625 96.8 67.8 C93.7 68.1 90.8 68.2 87.5 68.2 C85.8 68.2 84.1 68.1 82.2 68.1 C76.5 68 69.7 67.8 60.3 67.8 C58.2 67.8 55.4 68.2 52.4 68.5 C48.7 68.9 45.1 69.5 41.5 69.5 C18.2 69.5 4.3 58.6 4.3 34.4 zM53.2 7.5 C49.1 4.5 44.8 3.9 41.2 3.9 C24 3.9 19.3 21.1 19.3 35.6 C19.3 51.2 23.8 63.9 41 63.9 C45.2 63.9 49 62.4 53.2 59.4 C53.2 42.1 53.2 20.475 53.2 7.5 z" />
<glyph unicode="" horiz-adv-x="83.3" d="M59 41.5 C66.4 41.5 67.2 33.5 67.2 27.6 C64.4 27.5 61.6 27.3 58.8 27.3 C56 27.3 53.2 27.5 50.4 27.6 C50.4 37 53.2 41.5 59 41.5 zM64.1 22.3 C68.5 22.3 74.5 22.8 79.9 24.3 C79.9 26.03333 79.9 28.2 79.9 29.5 C79.9 41.2 71.3 47.1 61.6 47.1 C55.8 47.1 50.8 45 46.2 41.4 C41.2 46.1 35.2 47.1 29.3 47.1 C13.3 47.1 4.8 38 4.8 22.5 C4.8 8.4 11.8 -1.7 27.2 -1.7 C34 -1.7 40.5 0.3 44.8 4.7 C48.8 -0.2 55.7 -1.7 60.7 -1.7 C66.6 -1.7 70.7 -0.6 76.7 2.6 C77.43333 4.2 78.35 6.2 78.9 7.4 C78.6 7.775 78 8.525 77.7 8.9 C74.5 7 70.2 5.4 66.9 5.4 C56.5 5.4 51 12.6 51 22.3 C55.36667 22.3 60.825 22.3 64.1 22.3 zM29.4 3.1 C19.1 3.1 18.4 17.6 18.4 24.9 C18.4 31.9 19 42.3 28.4 42.3 C38.8 42.3 38.9 26.6 38.9 19.6 C38.9 13.2 38.2 3.1 29.4 3.1 z" />
<glyph unicode="" horiz-adv-x="61.1" d="M7.2 20.2 C7.2 14.5 6.9 8.8 5.7 2.9 C12.1 -0.2 19.4 -1.7 26.6 -1.7 C41.8 -1.7 55.9 5.4 55.9 22.4 C55.9 31.4 50 37.2 40.8 39.6 C37 40.6 32.25 41.85 29.4 42.6 C22 44.5 18.8 47.8 18.8 52.3 C18.8 59 23.2 64.4 32.5 64.4 C37.2 64.4 42.8 62.3 45.8 58.9 C46 56.16667 46.25 52.75 46.4 50.7 C47.425 50.7 49.475 50.7 50.5 50.7 C50.5 55.9 50.9 61.7 51.9 64.9 C51.73333 65.3 51.525 65.8 51.4 66.1 C45.6 68.4 39 69.5 32.8 69.5 C18.3 69.5 6.4 63.4 6.4 47.4 C6.4 38.8 12.6 32.9 21 30.4 C25.66667 29 31.5 27.25 35 26.2 C40.7 24.5 43.3 21.2 43.3 16.9 C43.3 8.2 36.1 3.7 27.6 3.7 C22.4 3.7 14.6 6.8 11.9 11.4 C11.66667 14.33333 11.375 18 11.2 20.2 C10.2 20.2 8.2 20.2 7.2 20.2 zM35.1 73.4 C38.175 77.775 44.325 86.525 47.4 90.9 C45.975 90.9 43.125 90.9 41.7 90.9 C38.9 88.45 33.3 83.55 30.5 81.1 C27.675 83.55 22.025 88.45 19.2 90.9 C17.825 90.9 15.075 90.9 13.7 90.9 C16.725 86.525 22.775 77.775 25.8 73.4 C28.125 73.4 32.775 73.4 35.1 73.4 z" />
<glyph unicode="" horiz-adv-x="44.4" d="M36.2 32.6 C36.4 35.65 36.8 41.75 37 44.8 C33.4 46.6 29 47.1 24.5 47.1 C12.8 47.1 3.9 42.9 3.9 31.5 C3.9 25.2 7.5 20.9 14.5 19.2 C17.36667 18.5 20.95 17.625 23.1 17.1 C26.8 16.2 29.4 15 29.4 10.6 C29.4 5.8 25.3 3.1 20.8 3.1 C16.1 3.1 11.9 4.5 9 8.3 C8.83333 10.6 8.625 13.475 8.5 15.2 C7.525 15.2 5.575 15.2 4.6 15.2 C4.425 11.675 4.075 4.625 3.9 1.1 C9.1 -0.8 14.3 -1.7 19.5 -1.7 C29.8 -1.7 40.5 3.7 40.5 15.3 C40.5 23.5 35.9 26.6 27.8 28.4 C25.06667 29 21.65 29.75 19.6 30.2 C15.8 31 14.1 32.6 14.1 35.8 C14.1 40.1 17.6 42.3 23.4 42.3 C26.6 42.3 31.2 40.5 31.6 38.4 C31.93333 36.46667 32.35 34.05 32.6 32.6 C33.5 32.6 35.3 32.6 36.2 32.6 zM26.8 53 C29.875 57.375 36.025 66.125 39.1 70.5 C37.675 70.5 34.825 70.5 33.4 70.5 C30.6 68.05 25 63.15 22.2 60.7 C19.375 63.15 13.725 68.05 10.9 70.5 C9.525 70.5 6.775 70.5 5.4 70.5 C8.425 66.125 14.475 57.375 17.5 53 C19.825 53 24.475 53 26.8 53 z" />
<glyph unicode="" horiz-adv-x="66.7" d="M39.5 35.6 C36.825 40.675 31.475 50.825 28.8 55.9 C26 61.2 22.9 66.4 17.4 69.5 C12.1 68.3 5.475 66.8 1.5 65.9 C1.5 64.975 1.5 63.125 1.5 62.2 C4.9 62.2 7 61.4 9.3 58.9 C11 57 13.1 54.4 14.5 52.2 C17.86667 46.76667 22.075 39.975 24.6 35.9 C25.9 33.8 27.1 31.7 29 27.4 C29 22.76667 29 16.975 29 13.5 C29 9.3 28.9 6.6 28.3 5.4 C27.9 4.6 26.8 4.2 24.2 4 C22.96667 3.9 21.425 3.775 20.5 3.7 C20.5 2.7 20.5 0.7 20.5 -0.3 C24.6 -0.2 30.1 0 36.1 0 C42 0 47.5 -0.2 51.6 -0.3 C51.6 1.03333 51.6 2.7 51.6 3.7 C50.675 3.775 48.825 3.925 47.9 4 C45.3 4.2 44.2 4.6 43.8 5.4 C43.2 6.6 43.1 9.3 43.1 13.5 C43.1 18.93333 43.1 25.725 43.1 29.8 C44.6 33.2 46.3 36.7 48.4 39.8 C54.26667 48.5 61.6 59.375 66 65.9 C66 66.375 66 67.325 66 67.8 C64.075 67.8 60.225 67.8 58.3 67.8 C53.6 59.75 44.2 43.65 39.5 35.6 zM25.8 89.5 C22.1 89.5 19.1 86.5 19.1 82.8 C19.1 79.1 22.1 76.1 25.8 76.1 C29.5 76.1 32.5 79.1 32.5 82.8 C32.5 86.5 29.5 89.5 25.8 89.5 zM47.3 89.5 C43.6 89.5 40.6 86.5 40.6 82.8 C40.6 79.1 43.6 76.1 47.3 76.1 C51 76.1 54 79.1 54 82.8 C54 86.5 51 89.5 47.3 89.5 z" />
<glyph unicode="" horiz-adv-x="66.7" d="M54 53.6 C56.6 57.4 59.6 61.4 62.3 64.6 C62.3 65.76667 62.3 67.225 62.3 68.1 C50.7 68 42.1 67.8 35.2 67.8 C28.3 67.8 19.6 68 8 68.1 C8 62.7 8 55.95 8 51.9 C8.925 51.9 10.775 51.9 11.7 51.9 C11.9 53.275 12.3 56.025 12.5 57.4 C13.1 61.4 14 62 21.2 62 C28.6 62 37.85 62 43.4 62 C35.75 50.85 20.45 28.55 12.8 17.4 C9.5 12.6 5.8 7.8 2.4 3.5 C2.4 2.23333 2.4 0.65 2.4 -0.3 C14.2 -0.1 23.8 0 32.4 0 C40.8 0 51.4 -0.1 61.1 -0.3 C61.2 5.2 61.8 12.4 62.7 17.4 C61.36667 17.4 59.7 17.4 58.7 17.4 C58.325 15.45 57.575 11.55 57.2 9.6 C56.7 7.2 54.8 5.7 49.1 5.7 C39.9 5.7 28.4 5.7 21.5 5.7 C29.625 17.675 45.875 41.625 54 53.6 zM37.9 73.4 C40.975 77.775 47.125 86.525 50.2 90.9 C48.775 90.9 45.925 90.9 44.5 90.9 C41.7 88.45 36.1 83.55 33.3 81.1 C30.475 83.55 24.825 88.45 22 90.9 C20.625 90.9 17.875 90.9 16.5 90.9 C19.525 86.525 25.575 77.775 28.6 73.4 C30.925 73.4 35.575 73.4 37.9 73.4 z" />
<glyph unicode="" horiz-adv-x="50" d="M45.4 42.4 C45.4 43.275 45.4 45.025 45.4 45.9 C41.3 45.7 37.1 45.4 33 45.4 C24.2 45.4 15.5 45.7 6.5 45.9 C6.26667 45.73333 5.975 45.525 5.8 45.4 C5.725 42.05 5.575 35.35 5.5 32 C6.45 32 8.35 32 9.3 32 C9.375 32.625 9.525 33.875 9.6 34.5 C10.2 39.2 11.4 40.4 17.2 40.4 C21.13333 40.4 26.05 40.4 29 40.4 C24.75 34.45 16.25 22.55 12 16.6 C8.7 12 5.1 7.5 1.6 3 C1.6 1.9 1.6 0.525 1.6 -0.3 C5.8 -0.2 11 0 16.2 0 C24.3 0 33.5 -0.2 44.7 -0.3 C44.86667 -0.13333 45.075 0.075 45.2 0.2 C45.2 4.4 45.8 11.4 46.4 15.5 C45.06667 15.5 43.4 15.5 42.4 15.5 C42.275 14.725 42.025 13.175 41.9 12.4 C41 6.8 39.8 5.5 34.9 5.5 C29.46667 5.5 22.675 5.5 18.6 5.5 C25.3 14.725 38.7 33.175 45.4 42.4 zM29.6 53 C32.675 57.375 38.825 66.125 41.9 70.5 C40.475 70.5 37.625 70.5 36.2 70.5 C33.4 68.05 27.8 63.15 25 60.7 C22.175 63.15 16.525 68.05 13.7 70.5 C12.325 70.5 9.575 70.5 8.2 70.5 C11.225 66.125 17.275 57.375 20.3 53 C22.625 53 27.275 53 29.6 53 z" />
<glyph unicode="" horiz-adv-x="50" d="M9.5 36.8 C12.3 36.8 17.9 36.8 20.7 36.8 C18.875 24.75 15.225 0.65 13.4 -11.4 C12.8 -15.2 10.1 -17.1 8.3 -17.1 C6.7 -17.1 4.3 -16.4 3.3 -14.6 C2.83333 -14.86667 2.25 -15.2 1.9 -15.4 C1.8 -18.8 1.6 -21.4 1.1 -24.2 C4.5 -24 6.9 -23.2 9.7 -22 C15.7 -19.4 25 -10.3 27.7 5.8 C29.43333 16.13333 31.6 29.05 32.9 36.8 C35.65 36.8 41.15 36.8 43.9 36.8 C44.225 37.9 44.875 40.1 45.2 41.2 C42.35 41.2 36.65 41.2 33.8 41.2 C34.425 45.15 35.675 53.05 36.3 57 C36.9 60.9 38.5 64 42.6 64 C44.1 64 45.7 63.2 47.3 62 C47.63333 62 48.05 62 48.3 62 C48.475 64.075 48.825 68.225 49 70.3 C48.95 70.3 48.85 70.3 48.8 70.3 C41 70.3 32.7 64.6 28.6 58.8 C25.2 53.9 22.6 46.9 21.3 41.2 C17.8 41.2 13.425 41.2 10.8 41.2 C10.475 40.1 9.825 37.9 9.5 36.8 z" />
<glyph unicode="" horiz-adv-x="33.3" d="M11.9 68.1 C8.875 63.725 2.825 54.975 -0.2 50.6 C1.175 50.6 3.925 50.6 5.3 50.6 C8.125 53.05 13.775 57.95 16.6 60.4 C19.4 57.95 25 53.05 27.8 50.6 C29.225 50.6 32.075 50.6 33.5 50.6 C30.425 54.975 24.275 63.725 21.2 68.1 C18.875 68.1 14.225 68.1 11.9 68.1 z" />
<glyph unicode="" horiz-adv-x="33.3" d="M21.2 51 C24.275 55.375 30.425 64.125 33.5 68.5 C32.075 68.5 29.225 68.5 27.8 68.5 C25 66.05 19.4 61.15 16.6 58.7 C13.775 61.15 8.125 66.05 5.3 68.5 C3.925 68.5 1.175 68.5 -0.2 68.5 C2.825 64.125 8.875 55.375 11.9 51 C14.225 51 18.875 51 21.2 51 z" />
<glyph unicode="" horiz-adv-x="33.3" d="M33.2 53.8 C33.2 55.575 33.2 59.125 33.2 60.9 C24.925 60.9 8.375 60.9 0.1 60.9 C0.1 59.125 0.1 55.575 0.1 53.8 C8.375 53.8 24.925 53.8 33.2 53.8 z" />
<glyph unicode="" horiz-adv-x="33.3" d="M1.5 66.9 C1.5 66.825 1.5 66.675 1.5 66.6 C1.5 57.3 6.9 50.6 16.7 50.6 C26.6 50.6 31.5 57.5 31.8 66.9 C30.33333 66.9 28.5 66.9 27.4 66.9 C27.4 66.85 27.4 66.75 27.4 66.7 C27.2 64 24 58.2 16.8 58.2 C10.8 58.2 6.8 60.8 5.9 66.9 C4.43333 66.9 2.6 66.9 1.5 66.9 z" />
<glyph unicode="" horiz-adv-x="33.3" d="M16.7 70.6 C12.5 70.6 9.2 67.4 9.2 63 C9.2 58.9 12.7 55.6 16.7 55.6 C20.7 55.6 24.2 58.9 24.2 63 C24.2 67.4 20.9 70.6 16.7 70.6 z" />
<glyph unicode="" horiz-adv-x="33.3" d="M16.7 65 C19.5 65 21.7 62.8 21.7 60 C21.7 57.2 19.5 55 16.7 55 C13.9 55 11.7 57.2 11.7 60 C11.7 62.8 13.9 65 16.7 65 zM16.7 70 C11.2 70 6.7 65.5 6.7 60 C6.7 54.5 11.2 50 16.7 50 C22.2 50 26.7 54.5 26.7 60 C26.7 65.5 22.2 70 16.7 70 z" />
<glyph unicode="" horiz-adv-x="33.3" d="M26.8 -11.6 C24.7 -14.1 21.2 -16.7 18.2 -16.7 C13.1 -16.7 12.4 -14.1 12.4 -10.9 C12.4 -7.5 16 -4 18.1 -2 C16.66667 -2 14.875 -2 13.8 -2 C9.3 -3.8 4.9 -8.9 4.9 -13.3 C4.9 -18.6 8.1 -22.5 15.4 -22.5 C20.5 -22.5 24.8 -18.8 28.7 -14.6 C28.06667 -13.6 27.275 -12.35 26.8 -11.6 z" />
<glyph unicode="" horiz-adv-x="33.3" d="M30.6 66.1 C29.4 63.5 28.6 61.3 25.4 61.3 C23 61.3 20.5 62.5 18 63.7 C15.5 64.9 13 66.1 10.2 66.1 C1.7 66.1 -1.5 57.2 -1.6 53.6 C-0.26667 53.6 1.4 53.6 2.4 53.6 C3 55.8 4.5 58.4 7.1 58.4 C9.3 58.4 12 57.3 14.7 56 C17.4 54.7 20.3 53.5 22.8 53.5 C30.1 53.5 33.4 59.8 34.9 66.1 C33.46667 66.1 31.675 66.1 30.6 66.1 z" />
<glyph unicode="" horiz-adv-x="33.3" d="M-5.6 50.6 C-4.25 50.6 -1.55 50.6 -0.2 50.6 C3.925 53.125 12.175 58.175 16.3 60.7 C17.6 61.5 18.2 62.6 18.2 64.7 C18.2 67.1 16.3 69.1 13.8 69.1 C10.6 69.1 9.2 67.8 7.2 65.4 C2.93333 60.46667 -2.4 54.3 -5.6 50.6 zM15.2 50.6 C16.55 50.6 19.25 50.6 20.6 50.6 C24.725 53.125 32.975 58.175 37.1 60.7 C38.4 61.5 39 62.6 39 64.7 C39 67.1 37.1 69.1 34.6 69.1 C31.4 69.1 30 67.8 28 65.4 C23.73333 60.46667 18.4 54.3 15.2 50.6 z" />
<glyph unicode="" horiz-adv-x="65.4" d="M62.4 14.9 C61.675 14.925 60.225 14.975 59.5 15 C57.6 9.1 56.4 8.3 52.8 8.3 C49.6 8.3 45.6 8.3 43.2 8.3 C50.3 15 59.3 23.9 59.3 37.3 C59.3 55.3 48.2 66.2 32.8 66.2 C17.7 66.2 5.9 54.8 5.9 36.7 C5.9 22 15.4 13.5 21.5 8.3 C18.6 8.3 14.975 8.3 12.8 8.3 C9.1 8.3 7.7 9.2 5.8 15 C4.83333 14.96667 3.625 14.925 2.9 14.9 C3.45 11.175 4.55 3.725 5.1 0 C10.625 0 21.675 0 27.2 0 C27.4 0.475 27.8 1.425 28 1.9 C23.6 11.8 18 24 18 36 C18 56.6 24.2 62.9 32.5 62.9 C40.5 62.9 47.3 56 47.4 36.4 C47.5 24.1 40.9 11 37.1 1.9 C37.36667 1.26667 37.7 0.475 37.9 0 C43.45 0 54.55 0 60.1 0 C60.675 3.725 61.825 11.175 62.4 14.9 z" />
<glyph unicode="" horiz-adv-x="61.1" d="M58.6 2.8 C58.6 3.7 58.6 5.5 58.6 6.4 C57.475 6.475 55.225 6.625 54.1 6.7 C51.7 6.9 51.5 8 51.5 13.7 C51.5 24.63333 51.5 38.3 51.5 46.5 C51.25 46.65 50.75 46.95 50.5 47.1 C48.75 46.55 45.25 45.45 43.5 44.9 C39.8 43.7 36 43.3 32.2 42.8 C32.2 41.6 32.2 40.1 32.2 39.2 C33.325 39.125 35.575 38.975 36.7 38.9 C39.1 38.7 39.3 37.6 39.3 31.9 C39.3 26.7 39.3 20.2 39.3 16.3 C39.3 15 39.1 13.5 38.4 12.4 C36.6 9.5 33.4 7.3 30 7.3 C22.3 7.3 21.9 13.9 21.9 20.4 C21.9 29.1 21.9 39.975 21.9 46.5 C21.65 46.65 21.15 46.95 20.9 47.1 C19.15 46.55 15.65 45.45 13.9 44.9 C10.2 43.7 6.4 43.3 2.6 42.8 C2.6 41.6 2.6 40.1 2.6 39.2 C3.725 39.125 5.975 38.975 7.1 38.9 C9.6 38.7 9.7 37 9.7 32.9 C9.7 27.3 9.7 20.3 9.7 16.1 C9.7 1 8.2 -6.3 7.5 -10.3 C6.8 -14 6.2 -16.7 6.2 -18 C6.2 -20.1 7 -21.1 9 -21.1 C10.6 -21.1 14.7 -20 16.5 -18.5 C18.4 -16.9 18.8 -16 18.8 -12.3 C18.8 -4.5 18.4 -0.6 18.1 5 C20.8 -0.3 23.4 -0.9 26.4 -0.9 C28.8 -0.9 31.1 0 32.5 1.4 C34.76667 3.6 37.6 6.35 39.3 8 C39.2 5.95 39 1.85 38.9 -0.2 C39.3 -0.525 40.1 -1.175 40.5 -1.5 C46.4 0.4 51.7 2.6 58.6 2.8 z" />
<glyph unicode="" horiz-adv-x="52.4" d="M47.5 44.7 C46.1 42.3 45.1 41.7 42.1 41.7 C33.5 41.7 24.8 41.9 17.8 42 C7.8 42.1 4.3 36.3 1.5 32.9 C2 32.03333 2.625 30.95 3 30.3 C6.7 32.8 8.9 34.1 14.6 34.1 C14.6 24.6 12.7 9.9 5.9 0.7 C6.13333 0.06667 6.425 -0.725 6.6 -1.2 C8.3 -1 10.8 -0.4 12.9 0.5 C14.3 2.5 18.9 10.8 18.9 32.6 C18.9 33.03333 18.9 33.575 18.9 33.9 C22.5 33.9 26.5 33.7 31.1 33.7 C30.6 26.4 30.2 20.2 30.2 11.4 C30.2 1.4 34.2 -1.2 39.2 -1.2 C43 -1.2 47.2 1.5 49.5 5.5 C49.1 6.26667 48.6 7.225 48.3 7.8 C46.8 6.3 45.7 5.5 44.1 5.5 C41.6 5.5 40.4 8 40.4 13.9 C40.4 20.3 40.3 27.4 40.8 33.5 C43.2 33.5 45.2 33.5 46.7 34 C47.9 35.8 49.5 40.1 50 44 C49.16667 44.23333 48.125 44.525 47.5 44.7 z" />
<glyph unicode="" horiz-adv-x="50" d="M50 20.8 C50 22.875 50 27.025 50 29.1 C37.5 29.1 12.5 29.1 0 29.1 C0 27.025 0 22.875 0 20.8 C12.5 20.8 37.5 20.8 50 20.8 z" />
<glyph unicode="" horiz-adv-x="100" d="M100 20.8 C100 22.875 100 27.025 100 29.1 C75 29.1 25 29.1 0 29.1 C0 27.025 0 22.875 0 20.8 C25 20.8 75 20.8 100 20.8 z" />
<glyph unicode="" horiz-adv-x="27.8" d="M16.9 66.8 C11.8 59 5.6 48 2.9 41.8 C3.36667 41.36667 3.95 40.825 4.3 40.5 C7.8 42 13 43.3 17.5 43.8 C18.6 51.4 22.2 62 24.9 67.9 C24.43333 68.43333 23.85 69.1 23.5 69.5 C21.85 68.825 18.55 67.475 16.9 66.8 z" />
<glyph unicode="" horiz-adv-x="27.8" d="M10.9 43.2 C16 51 22.2 62 24.9 68.2 C24.43333 68.63333 23.85 69.175 23.5 69.5 C20 68 14.8 66.7 10.3 66.2 C9.2 58.6 5.6 48 2.9 42.1 C3.36667 41.56667 3.95 40.9 4.3 40.5 C5.95 41.175 9.25 42.525 10.9 43.2 z" />
<glyph unicode="" horiz-adv-x="33.3" d="M13.6 -13.3 C18.7 -5.5 24.9 5.5 27.6 11.7 C27.13333 12.13333 26.55 12.675 26.2 13 C22.7 11.5 17.5 10.2 13 9.7 C11.9 2.1 8.3 -8.5 5.6 -14.4 C6.06667 -14.93333 6.65 -15.6 7 -16 C8.65 -15.325 11.95 -13.975 13.6 -13.3 z" />
<glyph unicode="" horiz-adv-x="50" d="M17.4 66.8 C12.3 59 6.1 48 3.4 41.8 C3.86667 41.36667 4.45 40.825 4.8 40.5 C8.3 42 13.5 43.3 18 43.8 C19.1 51.4 22.7 62 25.4 67.9 C24.93333 68.43333 24.35 69.1 24 69.5 C22.35 68.825 19.05 67.475 17.4 66.8 zM38.6 66.8 C33.5 59 27.3 48 24.6 41.8 C25.06667 41.36667 25.65 40.825 26 40.5 C29.5 42 34.7 43.3 39.2 43.8 C40.3 51.4 43.9 62 46.6 67.9 C46.13333 68.43333 45.55 69.1 45.2 69.5 C43.55 68.825 40.25 67.475 38.6 66.8 z" />
<glyph unicode="" horiz-adv-x="50" d="M11.4 43.2 C16.5 51 22.7 62 25.4 68.2 C24.93333 68.63333 24.35 69.175 24 69.5 C20.5 68 15.3 66.7 10.8 66.2 C9.7 58.6 6.1 48 3.4 42.1 C3.86667 41.56667 4.45 40.9 4.8 40.5 C6.45 41.175 9.75 42.525 11.4 43.2 zM32.6 43.2 C37.7 51 43.9 62 46.6 68.2 C46.13333 68.63333 45.55 69.175 45.2 69.5 C41.7 68 36.5 66.7 32 66.2 C30.9 58.6 27.3 48 24.6 42.1 C25.06667 41.56667 25.65 40.9 26 40.5 C27.65 41.175 30.95 42.525 32.6 43.2 z" />
<glyph unicode="" horiz-adv-x="50" d="M11.4 -13.3 C16.5 -5.5 22.7 5.5 25.4 11.7 C24.93333 12.13333 24.35 12.675 24 13 C20.5 11.5 15.3 10.2 10.8 9.7 C9.7 2.1 6.1 -8.5 3.4 -14.4 C3.86667 -14.93333 4.45 -15.6 4.8 -16 C6.45 -15.325 9.75 -13.975 11.4 -13.3 zM32.6 -13.3 C37.7 -5.5 43.9 5.5 46.6 11.7 C46.13333 12.13333 45.55 12.675 45.2 13 C41.7 11.5 36.5 10.2 32 9.7 C30.9 2.1 27.3 -8.5 24.6 -14.4 C25.06667 -14.93333 25.65 -15.6 26 -16 C27.65 -15.325 30.95 -13.975 32.6 -13.3 z" />
<glyph unicode="" horiz-adv-x="50" d="M19.6 46.2 C15.5 46.4 7.3 46.8 3.2 47 C3.125 46.85 2.975 46.55 2.9 46.4 C3 44.9 3.2 43.3 3.2 41.8 C3.2 40.2 3 38.7 2.9 37.1 C3 36.9 3.125 36.65 3.2 36.5 C7.3 36.7 15.5 37.1 19.6 37.3 C19.15 27.95 18.25 9.25 17.8 -0.1 C17.95 -0.225 18.25 -0.475 18.4 -0.6 C20.6 -0.5 22.9 -0.3 25.1 -0.3 C27.3 -0.3 29.6 -0.5 31.8 -0.6 C31.96667 -0.43333 32.175 -0.225 32.3 -0.1 C31.85 9.25 30.95 27.95 30.5 37.3 C34.6 37.1 42.8 36.7 46.9 36.5 C46.975 36.65 47.125 36.95 47.2 37.1 C47.1 38.7 46.9 40.2 46.9 41.8 C46.9 43.3 47.1 44.9 47.2 46.4 C47.1 46.6 46.975 46.85 46.9 47 C42.8 46.8 34.6 46.4 30.5 46.2 C30.9 51.525 31.7 62.175 32.1 67.5 C31.975 67.675 31.725 68.025 31.6 68.2 C29.4 68.1 27.3 67.9 25.1 67.9 C22.9 67.9 20.8 68.1 18.6 68.2 C18.4 67.96667 18.15 67.675 18 67.5 C18.4 62.175 19.2 51.525 19.6 46.2 z" />
<glyph unicode="" horiz-adv-x="50" d="M18.9 22 C19.25 17.275 19.95 7.825 20.3 3.1 C16.2 3.35 8 3.85 3.9 4.1 C3.725 3.975 3.375 3.725 3.2 3.6 C3.3 2.1 3.5 0.6 3.5 -0.9 C3.5 -2.4 3.3 -3.9 3.2 -5.4 C3.43333 -5.56667 3.725 -5.775 3.9 -5.9 C8 -5.675 16.2 -5.225 20.3 -5 C19.9 -9.75 19.1 -19.25 18.7 -24 C18.9 -24.125 19.3 -24.375 19.5 -24.5 C21.3 -24.4 23.2 -24.2 25 -24.2 C26.8 -24.2 28.7 -24.4 30.5 -24.5 C30.76667 -24.33333 31.1 -24.125 31.3 -24 C30.9 -19.25 30.1 -9.75 29.7 -5 C33.8 -5.225 42 -5.675 46.1 -5.9 C46.275 -5.775 46.625 -5.525 46.8 -5.4 C46.7 -3.9 46.5 -2.4 46.5 -0.9 C46.5 0.6 46.7 2.1 46.8 3.6 C46.56667 3.76667 46.275 3.975 46.1 4.1 C42 3.85 33.8 3.35 29.7 3.1 C30.05 7.825 30.75 17.275 31.1 22 C30.75 26.575 30.05 35.725 29.7 40.3 C33.8 40.075 42 39.625 46.1 39.4 C46.275 39.525 46.625 39.775 46.8 39.9 C46.7 41.4 46.5 42.9 46.5 44.4 C46.5 45.9 46.7 47.4 46.8 48.9 C46.56667 49.06667 46.275 49.275 46.1 49.4 C42 49.15 33.8 48.65 29.7 48.4 C30.1 53.225 30.9 62.875 31.3 67.7 C31.1 67.825 30.7 68.075 30.5 68.2 C28.6 68.1 26.7 67.9 25.2 67.9 C23.3 67.9 21.4 68.1 19.5 68.2 C19.23333 68.03333 18.9 67.825 18.7 67.7 C19.1 62.875 19.9 53.225 20.3 48.4 C16.2 48.65 8 49.15 3.9 49.4 C3.725 49.275 3.375 49.025 3.2 48.9 C3.3 47.4 3.5 45.9 3.5 44.4 C3.5 42.9 3.3 41.4 3.2 39.9 C3.43333 39.73333 3.725 39.525 3.9 39.4 C8 39.625 16.2 40.075 20.3 40.3 C19.95 35.725 19.25 26.575 18.9 22 z" />
<glyph unicode="" horiz-adv-x="60.6" d="M13.1 34.4 C13.1 25 20.9 17.2 30.3 17.2 C39.7 17.2 47.5 25 47.5 34.4 C47.5 43.8 39.7 51.6 30.3 51.6 C20.9 51.6 13.1 43.8 13.1 34.4 z" />
<glyph unicode="" horiz-adv-x="100" d="M16.7 14.4 C12.6 14.4 8.9 10.6 8.9 6.4 C8.9 2.2 12.6 -1.2 16.7 -1.2 C20.9 -1.2 24.5 2.6 24.5 6.4 C24.5 10.7 20.8 14.4 16.7 14.4 zM50 14.4 C45.9 14.4 42.2 10.6 42.2 6.4 C42.2 2.2 45.9 -1.2 50 -1.2 C54.2 -1.2 57.8 2.6 57.8 6.4 C57.8 10.7 54.1 14.4 50 14.4 zM83.3 14.4 C79.2 14.4 75.5 10.6 75.5 6.4 C75.5 2.2 79.2 -1.2 83.3 -1.2 C87.5 -1.2 91.1 2.6 91.1 6.4 C91.1 10.7 87.4 14.4 83.3 14.4 z" />
<glyph unicode="" horiz-adv-x="100" d="M18 70 C9.4 70 3.3 64.1 3.3 53.2 C3.3 43 10.4 37.7 18 37.7 C25.6 37.7 32.7 43 32.7 53.2 C32.7 64.1 26.6 70 18 70 zM18 67.1 C21.8 67.1 23.4 63.9 23.4 53.4 C23.4 43 20.5 40.6 18 40.6 C15.5 40.6 12.6 43 12.6 53.4 C12.6 63.9 14.2 67.1 18 67.1 zM50.6 32.3 C42 32.3 35.9 26.4 35.9 15.5 C35.9 5.3 43 0 50.6 0 C58.2 0 65.3 5.3 65.3 15.5 C65.3 26.4 59.2 32.3 50.6 32.3 zM50.6 29.4 C54.4 29.4 56 26.2 56 15.7 C56 5.3 53.1 2.9 50.6 2.9 C48.1 2.9 45.2 5.3 45.2 15.7 C45.2 26.2 46.8 29.4 50.6 29.4 zM83.5 32.3 C74.9 32.3 68.8 26.4 68.8 15.5 C68.8 5.3 75.9 0 83.5 0 C91.1 0 98.2 5.3 98.2 15.5 C98.2 26.4 92.1 32.3 83.5 32.3 zM83.5 29.4 C87.3 29.4 88.9 26.2 88.9 15.7 C88.9 5.3 86 2.9 83.5 2.9 C81 2.9 78.1 5.3 78.1 15.7 C78.1 26.2 79.7 29.4 83.5 29.4 zM17 -0.9 C27.075 17.425 47.225 54.075 57.3 72.4 C56.025 72.4 53.475 72.4 52.2 72.4 C42.125 54.075 21.975 17.425 11.9 -0.9 C13.175 -0.9 15.725 -0.9 17 -0.9 z" />
<glyph unicode="" horiz-adv-x="38.9" d="M28 43.8 C22.1 37.8 13.7 30.4 8.2 25.6 C8.2 24.76667 8.2 23.725 8.2 23.1 C14.5 18 22.5 10 28 4.4 C28.9 5.06667 30.025 5.9 30.7 6.4 C27.95 10.875 22.45 19.825 19.7 24.3 C22.45 28.625 27.95 37.275 30.7 41.6 C30.025 42.15 28.675 43.25 28 43.8 z" />
<glyph unicode="" horiz-adv-x="38.9" d="M8.2 41.6 C10.95 37.275 16.45 28.625 19.2 24.3 C16.45 19.825 10.95 10.875 8.2 6.4 C8.875 5.9 10.225 4.9 10.9 4.4 C16.4 10 24.4 18 30.7 23.1 C30.7 23.93333 30.7 24.975 30.7 25.6 C25.2 30.4 16.8 37.8 10.9 43.8 C10 43.06667 8.875 42.15 8.2 41.6 z" />
<glyph unicode="" horiz-adv-x="16.7" d="M-8.3 0 C1.775 16.5 21.925 49.5 32 66 C30.275 66 26.825 66 25.1 66 C15.025 49.5 -5.125 16.5 -15.2 0 C-13.475 0 -10.025 0 -8.3 0 z" />
<glyph unicode="" horiz-adv-x="50" d="M48.9 7.6 C48.625 7.9 48.075 8.5 47.8 8.8 C45 5.9 40.2 4.2 36.4 4.2 C28 4.2 21.9 11.3 19.5 22.7 C25.66667 22.7 33.375 22.7 38 22.7 C38.225 23.7 38.675 25.7 38.9 26.7 C33.9 26.7 23.9 26.7 18.9 26.7 C18.6 28.8 18.5 31.1 18.5 33.5 C18.5 34.2 18.5 35.075 18.5 35.6 C24.075 35.6 35.225 35.6 40.8 35.6 C41.025 36.6 41.475 38.6 41.7 39.6 C35.975 39.6 24.525 39.6 18.8 39.6 C19.9 51.9 24.7 61 33.1 61 C38.3 61 42.3 58.4 42.8 54.4 C43 52.06667 43.25 49.15 43.4 47.4 C44.325 47.4 46.175 47.4 47.1 47.4 C47.6 51.3 48.1 57.2 49.2 61 C49 61.33333 48.75 61.75 48.6 62 C45.5 63.9 39.4 66 33.3 66 C26 66 19.4 63.2 14.5 57.4 C10.6 52.9 8.1 46.8 7 39.6 C5.46667 39.6 3.55 39.6 2.4 39.6 C2.175 38.6 1.725 36.6 1.5 35.6 C2.775 35.6 5.325 35.6 6.6 35.6 C6.5 34.4 6.5 33.2 6.5 32 C6.5 30.1 6.6 28.4 6.7 26.7 C5.26667 26.7 3.475 26.7 2.4 26.7 C2.175 25.7 1.725 23.7 1.5 22.7 C2.95 22.7 5.85 22.7 7.3 22.7 C10.1 7.3 19.9 -1.7 33.1 -1.7 C37 -1.7 43.3 -0.6 47 3 C47.63333 4.53333 48.425 6.45 48.9 7.6 z" />
<glyph unicode="" horiz-adv-x="39.5" d="M35.9 11.8 C33.4 8.2 30.3 5 26.1 5 C20.7 5 18.5 8.9 18.5 21.2 C18.5 23.9 18.5 27.275 18.5 29.3 C26.6 37.6 31.8 45.4 31.8 56.3 C31.8 63.6 28.7 69.2 22.6 69.2 C19.2 69.2 15.9 67.4 13.2 63.7 C9.4 58.9 8.3 54 8.3 39.9 C8.3 35.6 8.3 30.225 8.3 27 C6.7 25.775 3.5 23.325 1.9 22.1 C2.225 21.425 2.875 20.075 3.2 19.4 C4.475 20.325 7.025 22.175 8.3 23.1 C8.3 21.325 8.3 17.775 8.3 16 C8.3 7.7 9.4 5 11.6 2.2 C13.5 0 16.7 -1.5 21.7 -1.5 C28.9 -1.5 34.3 2.7 38 9.9 C37.3 10.53333 36.425 11.325 35.9 11.8 zM18.5 45 C18.5 61.6 19.3 66 22.3 66 C24.9 66 26 62.2 26 56.1 C26 47.7 22.9 39.6 18.5 34.4 C18.5 37.93333 18.5 42.35 18.5 45 z" />
<glyph unicode="" horiz-adv-x="99.8" d="M91.2 61.8 C91.2 61.925 91.2 62.175 91.2 62.3 C91.2 64.5 91.3 65.4 94.2 65.4 C94.83333 65.4 95.625 65.4 96.1 65.4 C96.1 66 96.1 67.2 96.1 67.8 C92.775 67.8 86.125 67.8 82.8 67.8 C79.85 60.825 73.95 46.875 71 39.9 C68.05 46.875 62.15 60.825 59.2 67.8 C55.9 67.8 49.3 67.8 46 67.8 C46 67.2 46 66 46 65.4 C46.375 65.4 47.125 65.4 47.5 65.4 C50 65.4 50.2 64.8 50.2 63.2 C50.2 53.26667 50.2 40.85 50.2 33.4 C50.2 30.2 48.9 30.1 45.2 30 C45.2 29.13333 45.2 28.05 45.2 27.4 C48.475 27.4 55.025 27.4 58.3 27.4 C58.3 28.05 58.3 29.35 58.3 30 C55 30.1 53.3 30.1 53.3 33.2 C53.3 43 53.3 55.25 53.3 62.6 C53.35 62.6 53.45 62.6 53.5 62.6 C57.225 53.8 64.675 36.2 68.4 27.4 C68.65 27.4 69.15 27.4 69.4 27.4 C72.975 36.2 80.125 53.8 83.7 62.6 C83.75 62.6 83.85 62.6 83.9 62.6 C83.9 55.65 83.9 41.75 83.9 34.8 C83.9 30.5 83.3 30.1 78.8 30 C78.8 29.13333 78.8 28.05 78.8 27.4 C83.125 27.4 91.775 27.4 96.1 27.4 C96.1 28.05 96.1 29.35 96.1 30 C91.6 30.3 91.2 30.7 91.2 34.9 C91.2 43.86667 91.2 55.075 91.2 61.8 zM31.8 27.4 C31.8 28.05 31.8 29.35 31.8 30 C26.9 30 25.8 31.6 25.8 33.6 C25.8 43.93333 25.8 56.85 25.8 64.6 C26.9 64.6 29.1 64.6 30.2 64.6 C35.6 64.6 37.4 63 37.5 57.6 C38.5 57.6 39.75 57.6 40.5 57.6 C40.5 60.15 40.5 65.25 40.5 67.8 C31.325 67.8 12.975 67.8 3.8 67.8 C3.8 65.25 3.8 60.15 3.8 57.6 C4.55 57.6 6.05 57.6 6.8 57.6 C6.9 63 8.7 64.6 14.1 64.6 C15.56667 64.6 17.4 64.6 18.5 64.6 C18.5 57.075 18.5 42.025 18.5 34.5 C18.5 31.8 17 30 12.1 30 C12.1 29.13333 12.1 28.05 12.1 27.4 C17.025 27.4 26.875 27.4 31.8 27.4 z" />
<glyph unicode="" horiz-adv-x="65.4" d="M62.4 14.9 C61.675 14.925 60.225 14.975 59.5 15 C57.6 9.1 56.4 8.3 52.8 8.3 C49.6 8.3 45.6 8.3 43.2 8.3 C50.3 15 59.3 23.9 59.3 37.3 C59.3 55.3 48.2 66.2 32.8 66.2 C17.7 66.2 5.9 54.8 5.9 36.7 C5.9 22 15.4 13.5 21.5 8.3 C18.6 8.3 14.975 8.3 12.8 8.3 C9.1 8.3 7.7 9.2 5.8 15 C4.83333 14.96667 3.625 14.925 2.9 14.9 C3.45 11.175 4.55 3.725 5.1 0 C10.625 0 21.675 0 27.2 0 C27.4 0.475 27.8 1.425 28 1.9 C23.6 11.8 18 24 18 36 C18 56.6 24.2 62.9 32.5 62.9 C40.5 62.9 47.3 56 47.4 36.4 C47.5 24.1 40.9 11 37.1 1.9 C37.36667 1.26667 37.7 0.475 37.9 0 C43.45 0 54.55 0 60.1 0 C60.675 3.725 61.825 11.175 62.4 14.9 z" />
<glyph unicode="" horiz-adv-x="81.5" d="M78.3 31.2 C78.3 31.425 78.3 31.875 78.3 32.1 C78.3 50.8 61.5 65.9 40.7 65.9 C20 65.9 3.2 50.8 3.2 32.1 C3.2 13.5 20 -1.6 40.7 -1.6 C52.8 -1.6 63.7 3.6 70.4 11.5 C68.6 11.5 66.35 11.5 65 11.5 C59.1 4.7 50.5 0.3 40.8 0.3 C31.8 0.3 23.7 4.2 17.8 10.3 C17.3 10.9 17 11.6 17 12.4 C17 18.53333 17 26.2 17 30.8 C17 31.1 17.2 31.2 17.5 31.2 C37.76667 31.2 63.1 31.2 78.3 31.2 zM64.5 33.6 C64.5 33.4 64.4 33 64.1 33 C48.56667 33 29.15 33 17.5 33 C17.2 33 17 33.4 17 33.6 C17 39.63333 17 47.175 17 51.7 C17 52.6 17.3 53.4 17.9 54 C23.8 60 31.9 63.9 40.8 63.9 C49.7 63.9 57.7 60.1 63.6 54.3 C64.2 53.7 64.5 52.9 64.5 52.1 C64.5 45.93333 64.5 38.225 64.5 33.6 z" />
<glyph unicode="" horiz-adv-x="49.5" d="M24.4 40.1 C18.4 40.1 12.8 37.2 9.4 33 C6.4 29.4 3.8 23.7 3.8 17.1 C3.8 5.3 10.7 -1.5 20.8 -1.5 C30.1 -1.5 36.6 4.4 40.5 12.8 C43.6 19.4 45 28.5 45 35.9 C45 41.9 43.9 51 40.2 58.3 C35.9 66.7 29.4 71.9 20.4 71.9 C14.7 71.9 10.5 70.1 7.4 68.1 C6.5 65.7 9 60.7 10.6 60.8 C13.9 63.6 18.5 66.5 23.5 66.5 C28.9 66.5 32.7 63.1 34.5 59.3 C36.5 54.6 36.9 49.5 36.7 44.9 C36.5 41.2 36 37.5 35.6 34.4 C32.8 38.4 28.3 40.1 24.5 40.1 C24.46667 40.1 24.425 40.1 24.4 40.1 zM26.8 35.9 C30.8 35.9 33.8 32.4 34.7 30.1 C33.7 22.4 32.6 17.3 30.3 11.7 C28.3 7.1 25.2 1.6 21 1.6 C16.5 1.6 14 5.5 14 11.3 C14 18.1 15.4 25.7 18.1 30.5 C20.7 34.8 23.7 35.9 26.7 35.9 C26.73333 35.9 26.775 35.9 26.8 35.9 z" />
<glyph unicode="" horiz-adv-x="58.8" d="M55.6 0 C55.6 0.75 55.6 2.25 55.6 3 C49.475 18.8 37.225 50.4 31.1 66.2 C29.975 65.9 27.725 65.3 26.6 65 C20.725 49.5 8.975 18.5 3.1 3 C3.1 2.25 3.1 0.75 3.1 0 C16.225 0 42.475 0 55.6 0 zM42.6 5.3 C34.175 5.3 17.325 5.3 8.9 5.3 C13.05 16.6 21.35 39.2 25.5 50.5 C29.775 39.2 38.325 16.6 42.6 5.3 z" />
<glyph unicode="" horiz-adv-x="64.4" d="M61.8 65.6 C46.9 65.6 17.1 65.6 2.2 65.6 C2.2 64.875 2.2 63.425 2.2 62.7 C10.2 62 10.8 61.3 10.8 54.5 C10.8 37.53333 10.8 16.325 10.8 3.6 C10.8 -3.7 10.1 -4.6 2.5 -5.2 C2.5 -6.16667 2.5 -7.375 2.5 -8.1 C8.825 -8.1 21.475 -8.1 27.8 -8.1 C27.8 -7.375 27.8 -5.925 27.8 -5.2 C21.4 -4.5 21.5 -3.5 21.5 3.6 C21.5 22.03333 21.5 45.075 21.5 58.9 C21.5 61.6 21.9 61.9 24.6 61.9 C29.53333 61.9 35.7 61.9 39.4 61.9 C42.3 61.9 42.8 61.5 42.8 58.6 C42.8 40.26667 42.8 17.35 42.8 3.6 C42.8 -4.1 42.4 -4.6 35.8 -5.2 C35.8 -6.16667 35.8 -7.375 35.8 -8.1 C42.275 -8.1 55.225 -8.1 61.7 -8.1 C61.7 -7.375 61.7 -5.925 61.7 -5.2 C54.1 -4.5 53.4 -3.7 53.4 3.7 C53.4 20.63333 53.4 41.8 53.4 54.5 C53.4 61.2 54 62 61.8 62.7 C61.8 63.66667 61.8 64.875 61.8 65.6 z" />
<glyph unicode="" horiz-adv-x="51.1" d="M49 10.6 C48.25 10.775 46.75 11.125 46 11.3 C42.2 1 41 0.4 32.9 0.4 C25.66667 0.4 16.625 0.4 11.2 0.4 C16.3 8.375 26.5 24.325 31.6 32.3 C27.625 39.725 19.675 54.575 15.7 62 C19.275 62 26.425 62 30 62 C36.8 62 38.4 61.2 39.8 58.5 C41.1 56.2 42.1 53.1 43 49.1 C44 49.3 45.25 49.55 46 49.7 C45.5 56 45 63.8 44.9 65.6 C30.9 65.6 13.4 65.6 2.9 65.6 C2.9 64.875 2.9 63.425 2.9 62.7 C7.825 53.225 17.675 34.275 22.6 24.8 C17.575 17.125 7.525 1.775 2.5 -5.9 C2.5 -6.6 2.5 -8 2.5 -8.7 C13.075 -8.7 34.225 -8.7 44.8 -8.7 C45.85 -3.875 47.95 5.775 49 10.6 z" />
<glyph unicode="" horiz-adv-x="60.6" d="M5.1 21.2 C17.7 21.2 42.9 21.2 55.5 21.2 C55.5 23.35 55.5 27.65 55.5 29.8 C42.9 29.8 17.7 29.8 5.1 29.8 C5.1 27.65 5.1 23.35 5.1 21.2 z" />
<glyph unicode="" horiz-adv-x="16.7" d="M-8.3 0 C1.775 16.5 21.925 49.5 32 66 C30.275 66 26.825 66 25.1 66 C15.025 49.5 -5.125 16.5 -15.2 0 C-13.475 0 -10.025 0 -8.3 0 z" />
<glyph unicode="" horiz-adv-x="25" d="M12.5 33.5 C8.4 33.5 4.7 29.7 4.7 25.5 C4.7 21.3 8.4 17.9 12.5 17.9 C16.7 17.9 20.3 21.7 20.3 25.5 C20.3 29.8 16.6 33.5 12.5 33.5 z" />
<glyph unicode="" horiz-adv-x="51.3" d="M50.1 82.5 C49.025 82.725 46.875 83.175 45.8 83.4 C42.65 63.5 36.35 23.7 33.2 3.8 C33.15 3.8 33.05 3.8 33 3.8 C29.575 13.325 22.725 32.375 19.3 41.9 C15.25 40.125 7.15 36.575 3.1 34.8 C3.4 33.9 4 32.1 4.3 31.2 C6.3 32.125 10.3 33.975 12.3 34.9 C17.15 22.075 26.85 -3.575 31.7 -16.4 C32.3 -16.15 33.5 -15.65 34.1 -15.4 C38.1 9.075 46.1 58.025 50.1 82.5 z" />
<glyph unicode="" horiz-adv-x="69.8" d="M65.4 27 C65.4 36 59.4 41.9 51.5 41.9 C43.5 41.9 39 36.2 35.3 31.9 C30.6 37.9 25.8 41.9 19.1 41.9 C10.6 41.9 4.2 35.6 4.2 26.5 C4.2 17.5 10.9 11.3 18.4 11.3 C25.6 11.3 30.3 15.8 35 21.5 C41 13.6 45.8 11.3 51 11.3 C58.4 11.3 65.4 17.1 65.4 26.9 C65.4 26.93333 65.4 26.975 65.4 27 zM19.2 17.5 C14.3 17.5 10.6 21.5 10.6 26.4 C10.6 31.8 13.7 35.8 18.9 35.8 C24.7 35.8 27.9 31.2 31.5 26.2 C28.1 22 24.3 17.5 19.3 17.5 C19.26667 17.5 19.225 17.5 19.2 17.5 zM50.9 35.8 C55.8 35.8 59 31.9 59 26.4 C59 22.4 56.2 17.5 51.2 17.5 C46.7 17.5 43.8 20 38.4 26.8 C41.3 30.1 45.3 35.8 50.8 35.8 C50.83333 35.8 50.875 35.8 50.9 35.8 z" />
<glyph unicode="" horiz-adv-x="36.5" d="M14.9 -0.3 C15.3 -8.9 14.4 -14.5 11.9 -14.5 C10 -14.5 10.1 -8.6 7.1 -8.6 C4.2 -8.6 1.1 -10.8 1.2 -14.1 C1.2 -16.9 4 -19.3 7.7 -19.3 C17.2 -19.3 25.6 -8.3 23.9 24.5 C23.33333 36.13333 22.625 50.675 22.2 59.4 C21.6 71.3 23.2 73.9 25 73.9 C27.1 73.9 26.6 68.5 30.1 68.5 C32.7 68.5 35.3 70.1 35.3 73.6 C35.2 77 31.5 78.7 28.7 78.7 C21 78.7 11.2 71.8 12.9 37.6 C13.56667 24.96667 14.4 9.175 14.9 -0.3 z" />
<glyph unicode="" horiz-adv-x="48.5" d="M40.8 41.6 C38.5 37.7 36.3 35.1 33 35.1 C30.4 35.1 28.6 36.3 25.5 38.3 C23.3 39.6 20.4 41.6 16.2 41.6 C10.7 41.6 5.8 37.6 3.2 32.3 C4.63333 31.06667 6.425 29.525 7.5 28.6 C9.6 31.9 11.7 35.1 15.6 35.1 C18.4 35.1 20.6 33.8 23.2 32.1 C26.9 29.7 29.4 28.6 32.9 28.6 C38.1 28.6 42.3 32.6 45 37.9 C43.6 39.13333 41.85 40.675 40.8 41.6 zM40.8 25 C38.3 21 36.4 18.4 32.9 18.4 C30.2 18.4 28.2 20 25.5 21.6 C23.3 22.9 20.5 24.9 16.2 24.9 C10.7 24.9 5.8 20.9 3.2 15.6 C4.63333 14.36667 6.425 12.825 7.5 11.9 C9.5 15.2 11.6 18.5 15.6 18.5 C18.3 18.5 20.5 17.1 23.2 15.4 C26.9 13.1 29.4 11.9 32.9 11.9 C38.1 11.9 42.4 16 45 21.3 C43.6 22.53333 41.85 24.075 40.8 25 z" />
<glyph unicode="" horiz-adv-x="48.5" d="M35.7 47 C34.4 47.525 31.8 48.575 30.5 49.1 C29.425 46.6 27.275 41.6 26.2 39.1 C20.7 39.1 9.7 39.1 4.2 39.1 C4.2 37.45 4.2 34.15 4.2 32.5 C9.075 32.5 18.825 32.5 23.7 32.5 C22.425 29.475 19.875 23.425 18.6 20.4 C15 20.4 7.8 20.4 4.2 20.4 C4.2 18.75 4.2 15.45 4.2 13.8 C7.175 13.8 13.125 13.8 16.1 13.8 C15.225 11.8 13.475 7.8 12.6 5.8 C13.9 5.275 16.5 4.225 17.8 3.7 C18.875 6.225 21.025 11.275 22.1 13.8 C27.6 13.8 38.6 13.8 44.1 13.8 C44.1 15.45 44.1 18.75 44.1 20.4 C39.225 20.4 29.475 20.4 24.6 20.4 C25.9 23.425 28.5 29.475 29.8 32.5 C33.375 32.5 40.525 32.5 44.1 32.5 C44.1 34.15 44.1 37.45 44.1 39.1 C41.125 39.1 35.175 39.1 32.2 39.1 C33.075 41.075 34.825 45.025 35.7 47 z" />
<glyph unicode="" horiz-adv-x="48.5" d="M43.9 9.5 C43.9 11.45 43.9 15.35 43.9 17.3 C35.725 21.3 19.375 29.3 11.2 33.3 C11.2 33.35 11.2 33.45 11.2 33.5 C19.375 37.45 35.725 45.35 43.9 49.3 C43.9 51.225 43.9 55.075 43.9 57 C34.1 51.975 14.5 41.925 4.7 36.9 C4.7 35.125 4.7 31.575 4.7 29.8 C14.5 24.725 34.1 14.575 43.9 9.5 zM44.3 -0.6 C44.3 1.075 44.3 4.425 44.3 6.1 C34.325 6.1 14.375 6.1 4.4 6.1 C4.4 4.425 4.4 1.075 4.4 -0.6 C14.375 -0.6 34.325 -0.6 44.3 -0.6 z" />
<glyph unicode="" horiz-adv-x="48.5" d="M4.9 57 C4.9 55.075 4.9 51.225 4.9 49.3 C13.075 45.325 29.425 37.375 37.6 33.4 C37.6 33.35 37.6 33.25 37.6 33.2 C29.425 29.225 13.075 21.275 4.9 17.3 C4.9 15.35 4.9 11.45 4.9 9.5 C14.7 14.55 34.3 24.65 44.1 29.7 C44.1 31.475 44.1 35.025 44.1 36.8 C34.3 41.85 14.7 51.95 4.9 57 zM44.1 -0.6 C44.1 1.075 44.1 4.425 44.1 6.1 C34.175 6.1 14.325 6.1 4.4 6.1 C4.4 4.425 4.4 1.075 4.4 -0.6 C14.325 -0.6 34.175 -0.6 44.1 -0.6 z" />
<glyph unicode="" horiz-adv-x="51.7" d="M47.3 31.5 C42.95 41.075 34.25 60.225 29.9 69.8 C27.925 69.8 23.975 69.8 22 69.8 C17.6 60.225 8.8 41.075 4.4 31.5 C8.725 22 17.375 3 21.7 -6.5 C23.725 -6.5 27.775 -6.5 29.8 -6.5 C34.175 3 42.925 22 47.3 31.5 zM39.9 31.5 C36.45 23.675 29.55 8.025 26.1 0.2 C26.025 0.2 25.875 0.2 25.8 0.2 C22.3 8.05 15.3 23.75 11.8 31.6 C15.275 39.4 22.225 55 25.7 62.8 C25.8 62.8 26 62.8 26.1 62.8 C29.55 54.975 36.45 39.325 39.9 31.5 z" />
<glyph unicode="" horiz-adv-x="76" d="M73.30054 34.00072 C72.75047 14.1697 56.64305 -0.626 37.24926 -0.29454 C27.76394 -0.12387 19.52687 3.52216 12.86951 10.36993 C6.21215 17.2177 3.05273 25.58171 2.79885 34.31244 C3.13736 55.22246 19.36466 70.86302 39.30148 70.20857 C58.42727 69.58091 73.85062 53.91074 73.30054 34.00072 zM38.48341 67.32418 C20.52829 67.56396 5.72554 52.93752 5.78902 34.91893 C5.70439 17.6902 19.75253 2.65473 38.08143 2.65473 L38.20132 2.65473 C55.99424 2.65473 70.40911 17.11191 70.395 34.91893 C70.41616 53.0151 55.90256 67.09146 38.48341 67.32418 zM38.66677 50.45697 C33.70196 51.1481 29.15324 49.99858 24.75966 47.63606 C21.02195 45.63321 18.59597 42.49494 16.54375 38.98291 C14.91467 36.20431 14.17418 33.12951 13.86388 29.93482 C13.58884 27.17033 13.77925 24.44815 14.16008 21.71186 C14.24922 21.1264 14.30424 20.62897 14.3452 20.03818 C14.38616 19.44739 14.40031 18.94713 14.3928 18.35497 C14.39988 18.21984 14.39383 18.10499 14.3726 17.97136 C14.35137 17.83772 14.32152 17.72665 14.27291 17.60038 C14.06986 17.762 13.91911 17.92536 13.77428 18.14071 C13.62944 18.35607 13.53501 18.5573 13.4619 18.80632 C12.34059 21.97279 11.02181 25.08285 10.54226 28.43269 C10.34118 29.78553 10.2438 30.9389 10.21521 32.3063 C10.18661 33.67371 10.2357 34.83014 10.38005 36.1902 C10.55195 37.86122 10.79979 39.2622 11.2116 40.89078 C11.62341 42.51936 12.0713 43.86976 12.71436 45.42164 C13.54653 47.40192 14.82299 49.09447 16.21229 50.7165 C19.68202 54.77156 24.19548 57.00008 29.32954 58.02267 C34.20973 59.00293 38.86423 58.06498 43.31423 55.9634 C47.29172 54.08044 49.79528 50.87165 51.31857 46.83069 C51.47513 46.38146 51.57864 45.99194 51.66576 45.52426 C51.75287 45.05657 51.79654 44.65591 51.81223 44.18044 C50.90249 44.88567 50.11263 45.52037 49.30867 46.13392 C46.1563 48.5458 42.58079 49.921 38.66677 50.45697 zM23.9416 41.08263 C22.93312 35.15166 24.36474 29.76371 27.57353 24.7989 C29.40007 21.96388 31.99531 19.94693 34.81622 18.17681 C37.63714 16.40668 40.71193 15.72966 43.97009 15.43347 C49.59781 14.93276 54.55557 16.67467 59.25944 19.56611 C60.90968 20.58164 62.34129 21.88631 63.94216 22.95826 C64.29839 23.18768 64.60831 23.36724 64.98452 23.56217 C65.36072 23.7571 65.68614 23.90674 66.079 24.06546 C66.08631 23.95365 66.07197 23.85745 66.03234 23.75264 C65.99272 23.64782 65.93984 23.56619 65.86038 23.48718 C64.76728 21.82284 63.35682 20.41238 62.08036 18.90319 C58.79399 15.04559 54.6543 12.40804 49.95043 10.63791 C46.91089 9.48839 43.78673 8.64212 40.49331 8.72674 C36.40299 8.83958 32.5877 9.87627 29.12503 12.12595 C26.2477 13.9948 23.72298 16.20922 21.88233 19.13592 C20.95296 20.61549 20.29955 21.9492 19.70004 23.59037 C19.10052 25.23154 18.74039 26.67238 18.49723 28.40262 C18.20809 30.43368 18.14462 32.47179 18.63828 34.46053 C19.44224 37.72574 20.93732 40.62423 23.4973 42.89507 C23.57818 42.99209 23.65984 43.06324 23.76702 43.13007 C23.8742 43.1969 23.97403 43.23892 24.09675 43.26884 C24.11978 42.88313 24.11795 42.55609 24.09059 42.17066 C24.06324 41.78524 24.01887 41.46122 23.9416 41.08263 zM52.15779 28.91038 C54.23116 31.85119 55.31016 35.1305 55.7192 38.6778 C55.93076 40.51845 56.05065 42.35204 55.81793 44.18563 C55.59931 45.87818 54.99986 47.47905 54.38631 49.06582 C53.32142 51.788 51.8757 54.29156 49.85169 56.40725 C48.86747 57.4369 47.96977 58.24339 46.84095 59.11209 C45.71213 59.9808 44.70264 60.64202 43.45527 61.32974 C41.53705 62.40169 39.54125 63.31143 37.54546 64.20707 C36.88959 64.49622 36.42414 65.01809 35.79649 65.56111 C36.36549 65.54256 36.84516 65.50157 37.40906 65.42332 C37.97296 65.34507 38.44567 65.2539 38.99823 65.11682 C41.29727 64.62316 43.63158 64.19297 45.85305 63.38196 C48.71628 62.35232 51.29036 60.79377 53.70929 58.96723 C55.10785 57.9328 56.21708 56.96098 57.4264 55.71056 C58.63572 54.46014 59.56994 53.31907 60.55706 51.88673 C61.84058 49.99672 62.53876 47.83872 63.27925 45.70188 C63.46649 45.12257 63.5903 44.62214 63.69478 44.02236 C63.79926 43.42258 63.85196 42.90976 63.87164 42.30126 C64.13257 37.85832 63.62481 33.52117 61.52323 29.53663 C59.25239 25.22768 56.00834 21.80732 51.58656 19.63522 C50.61227 19.16957 49.74821 18.86084 48.69944 18.60365 C47.65067 18.34645 46.74181 18.22039 45.66264 18.18245 C44.5963 18.10803 43.68751 18.14846 42.632 18.31729 C41.57648 18.48613 40.70043 18.73118 39.71051 19.13451 C39.59606 19.16829 39.50328 19.21064 39.40277 19.27497 C39.30225 19.33929 39.22494 19.40581 39.14633 19.49558 C40.18301 19.92577 41.16328 20.35596 42.1506 20.75089 C46.33966 22.42228 49.5696 25.25025 52.15779 28.91038 z" />
</font>
</svg>
