<svg id="Layer_1" data-name="Layer 1" xmlns="http://www.w3.org/2000/svg" viewBox="0 0 402.6524 402.6678"><defs><style>.cls-1{fill:#e0b463;}.cls-2{fill:#3d4c5a;}.cls-3{fill:#6a859e;}.cls-4{fill:#f7b3a2;}.cls-5{fill:#f08381;}.cls-6{fill:#9c7558;}.cls-7{fill:#7c5b48;}.cls-8{fill:#f49f99;}.cls-9{fill:#fff;}.cls-10{fill:#40211e;}.cls-11{fill:#7d5c49;}</style></defs><path class="cls-1" d="M402.6524,201.3416a200.8432,200.8432,0,0,1-68.4762,151.2776c-4.0879,3.5862-8.32,7.0226-12.6921,10.2627l-.0879.0778c-.708.527-1.4155,1.0541-2.1235,1.5552l-.1656.13a201.1164,201.1164,0,0,1-29.564,17.72c-.7181.3567-1.4521.7081-2.2014,1.0388-1.669.8112-3.3692,1.5811-5.0747,2.341l-.0153.0154a199.6549,199.6549,0,0,1-19.0585,7.24c-.7181.227-1.4414.46-2.17.6768a199.8963,199.8963,0,0,1-33.0269,7.2554c-.7181.0879-1.452.181-2.1854.2689a204.7031,204.7031,0,0,1-24.4846,1.4673c-5.1932,0-10.3505-.191-15.4411-.5942-.7747-.0519-1.5451-.1138-2.3045-.1911a199.4383,199.4383,0,0,1-42.9741-8.537c-.8218-.2582-1.6331-.527-2.4548-.8012h-.0154A200.06,200.06,0,0,1,109.7714,380.69c-.93-.46-1.84-.9409-2.7549-1.442-1.4155-.7287-2.8008-1.5039-4.19-2.2739q-1.45-.8136-2.884-1.6584-6.3015-3.6671-12.2936-7.7824-2.83-1.9226-5.5758-3.9688c-.6721-.481-1.3388-.9821-1.995-1.4832a200.5573,200.5573,0,0,1-22.5927-19.88l-.0154-.01A200.7124,200.7124,0,0,1,0,201.3416C0,90.1441,90.134,0,201.3262,0,312.5237,0,402.6524,90.1441,402.6524,201.3416Z"/><path class="cls-2" d="M334.7963,345.6739l-.62,6.9453c-4.0879,3.5862-8.32,7.0226-12.6921,10.2627l-.0879.0778c-.708.527-1.4155,1.0541-2.1235,1.5552l-.1656.13a201.1164,201.1164,0,0,1-29.564,17.72c-.7181.3567-1.4521.7081-2.2014,1.0388-1.669.8112-3.3692,1.5811-5.0747,2.341l-.0153.0154a199.6549,199.6549,0,0,1-19.0585,7.24c-.7181.227-1.4414.46-2.17.6768a199.8963,199.8963,0,0,1-33.0269,7.2554c-.7181.0879-1.452.181-2.1854.2689a204.7031,204.7031,0,0,1-24.4846,1.4673c-5.1932,0-10.3505-.191-15.4411-.5942-.7747-.0519-1.5451-.1138-2.3045-.1911a199.4383,199.4383,0,0,1-42.9741-8.537c-.8218-.2582-1.6331-.527-2.4548-.8012h-.0154A200.06,200.06,0,0,1,109.7714,380.69c-.93-.46-1.84-.9409-2.7549-1.442-1.4155-.7287-2.8008-1.5039-4.19-2.2739q-1.45-.8136-2.884-1.6584-6.3015-3.6671-12.2936-7.7824-2.83-1.9226-5.5758-3.9688c-.6721-.481-1.3388-.9821-1.995-1.4832a200.5573,200.5573,0,0,1-22.5927-19.88l-.0154-.01c14.6087-2.367,56.3012-19.2908,82.1859-30.1948,4.181-1.7516,7.9481-3.3586,11.121-4.7075,6.4955-2.7749,10.5214-4.5371,10.5214-4.5371s28.4062,1.5034,52.0536,4.8059c10.2886,1.4415,19.6729,3.2295,25.45,5.38.4344.1651.9.3308,1.3854.5112l.4233.1551c5.633,2.0568,14.7024,5.2091,25.0529,8.7593C295.0829,332.4548,334.7963,345.6739,334.7963,345.6739Z"/><path class="cls-3" d="M321.4841,362.8819l-.0879.0778c-.708.527-1.4155,1.0541-2.1235,1.5552l-.155-.0413a167.3572,167.3572,0,0,0-31.1717-6.3923c-.744-.0725-1.488-.1651-2.2373-.2275q-3.4107-.3484-6.8262-.5684-9.8211-.6357-19.6633-.5117c-.7594-.0153-1.5293,0-2.2993.0106q-9.2241.1548-18.4536.8218c-2.9818.1963-5.9431.4392-8.9143.708h-.0106q-6.1548.5422-12.283,1.2351c-.7446.0926-1.478.17-2.2225.2582-1.4261.1651-2.8422.3361-4.2683.5012h-.0153q-1.7137.21-3.447.4392c-7.9169.9869-15.8285,2.0928-23.7093,3.2141-2.79.398-5.5812.8065-8.3614,1.261-.7594.1138-1.5034.2276-2.2479.3567-12.7069,2.0722-25.3471,4.62-37.8217,7.7825-.7186.1656-1.4367.346-2.16.5376q-11.7047,3.0075-23.2336,6.79c-.93-.46-1.84-.9409-2.7549-1.442q12.5192-4.2013,25.3064-7.4824c.7234-.1916,1.4414-.3726,2.16-.553,3.2555-.8218,6.5368-1.6071,9.8134-2.3516,9.2446-2.0982,18.5569-3.8444,27.9051-5.3743.76-.119,1.5039-.2323,2.2479-.3513,4.9662-.7959,9.9425-1.514,14.9347-2.186,5.1419-.6768,10.2732-1.3589,15.4151-2.0151,1.25-.155,2.4956-.3207,3.7412-.4651,1.9431-.2429,3.8862-.4757,5.8135-.708.744-.0778,1.4933-.1657,2.2272-.2429q6.1469-.7135,12.3042-1.2716c2.7649-.2736,5.5293-.5011,8.2942-.708l1.4-.1032.951-.0672.2587-.01h.0154q8.3717-.5819,16.8052-.76c.77-.01,1.5452-.0259,2.3252-.036a242.9067,242.9067,0,0,1,26.5308,1.0647c.744.0667,1.4933.1445,2.2532.2323a171.1979,171.1979,0,0,1,31.5172,6.3151c.7186.217,1.4367.4493,2.16.6821Z"/><path class="cls-3" d="M102.8261,376.9741q-1.45-.8136-2.884-1.6584A186.7278,186.7278,0,0,0,93.23,357.89c-.2947-.6821-.6-1.3642-.91-2.031a186.548,186.548,0,0,0-9.2191-17.5905,1.1089,1.1089,0,0,1,1.9118-1.1213c2.8422,4.7953,5.4933,9.7,7.8963,14.7277.4757.9869.9509,1.9892,1.4007,2.9919.31.6716.62,1.3542.9144,2.0363A187.2587,187.2587,0,0,1,102.8261,376.9741Z"/><path class="cls-3" d="M140.6065,393.3455c-.8218-.2582-1.6331-.527-2.4548-.8012h-.0154c-.1138-.527-.2429-1.0541-.372-1.5811-1.416-5.7309-2.9819-11.4311-4.7593-17.0635-.217-.708-.4345-1.4108-.6821-2.1341a209.5989,209.5989,0,0,0-10.8628-27.25c-.3254-.6561-.6455-1.3229-.9921-1.9791q-3.1235-6.2865-6.8-12.32a1.1115,1.1115,0,0,1,1.9119-1.1319q3.7283,6.1317,6.9453,12.537c.3361.6562.6721,1.3277.9922,1.9844.372.78.744,1.5552,1.116,2.3358a207.0073,207.0073,0,0,1,9.85,25.27c.2477.708.4652,1.4261.6821,2.1495C137.2219,379.9459,139.0094,386.6171,140.6065,393.3455Z"/><path class="cls-3" d="M185.8851,402.0736c-.7747-.0519-1.5451-.1138-2.3045-.1911q-1.5042-6.961-3.3951-13.8493-3.1-11.3792-7.1988-22.4536c-.2429-.708-.5011-1.4-.7853-2.0929a262.6186,262.6186,0,0,0-15.5337-33.7809c-.3466-.6461-.708-1.2869-1.07-1.9325-1.3747-2.4807-2.8008-4.9509-4.2941-7.38q-1.9693-3.3171-4.0773-6.5728c-.77-1.21,1.1473-2.3151,1.9172-1.1165q3.4727,5.403,6.6871,10.9553c.6456,1.0907,1.2605,2.186,1.8753,3.292.362.6408.7081,1.2869,1.07,1.9277q1.101,2.0074,2.16,4.0408a265.5277,265.5277,0,0,1,13.5133,30.2154c.2741.6974.5324,1.39.7853,2.0875A275.9,275.9,0,0,1,185.8851,402.0736Z"/><path class="cls-3" d="M227.9962,400.9316c-.7181.0879-1.452.181-2.1854.2689q-1.3875-7.597-3.1888-15.0951-2.1623-9.0066-4.8731-17.8487c-.2842-.9663-.589-1.9172-.8991-2.884q-.8683-2.79-1.8139-5.5653c-.217-.682-.4493-1.3641-.6821-2.0462a404.9807,404.9807,0,0,0-19.4406-46.473c-.62-1.2711,1.297-2.403,1.9119-1.1161q5,10.2014,9.4933,20.6243c3.7518,8.7694,7.1982,17.6837,10.2626,26.7219.2429.6662.46,1.3488.6774,2.0309q1.41,4.17,2.6918,8.3974c.2429.8112.4858,1.607.7186,2.4183A293.8039,293.8039,0,0,1,227.9962,400.9316Z"/><path class="cls-3" d="M263.1932,392.9994c-.7181.227-1.4414.46-2.17.6768-.2588-3.5089-.553-7.0072-.9044-10.5161-.8577-8.8112-1.9637-17.6064-3.1988-26.3758-.1037-.7339-.2069-1.452-.31-2.186-.2428-1.6949-.491-3.4052-.7445-5.1054-.5011-3.4316-1.0694-6.8781-1.8134-10.2991a61.9055,61.9055,0,0,0-6.78-18.6087,1.11,1.11,0,0,1,1.9172-1.1166,60.5331,60.5331,0,0,1,6.2892,16.02c.14.553.2688,1.0954.3979,1.6484,1.3383,5.7208,2.2632,11.56,3.0591,17.4254.0931.7287.1963,1.478.2842,2.2114.4651,3.473.8736,6.9406,1.3282,10.387Q262.2063,380.052,263.1932,392.9994Z"/><path class="cls-3" d="M289.5431,382.3642c-.7181.3567-1.4521.7081-2.2014,1.0388q-.3024-12.8057-1.633-25.5492c-.0725-.7493-.15-1.4933-.2429-2.2268q-1.1549-10.4568-3.0078-20.8311c-.2428-1.4,1.8918-1.9945,2.1448-.5943q1.9144,10.7823,3.1162,21.6577c.0773.744.15,1.478.227,2.222Q289.2025,370.1971,289.5431,382.3642Z"/><path class="cls-3" d="M321.3962,362.8565v.1032c-.708.527-1.4155,1.0541-2.1235,1.5552l-.1656.13.0106-.171c.0513-.77.0931-1.5293.1185-2.2992a81.8641,81.8641,0,0,0-1.0435-17.3635c-.2429-1.3849,1.8912-1.99,2.1494-.5789A85.6137,85.6137,0,0,1,321.3962,362.8565Z"/><polygon class="cls-4" points="240.616 230.224 240.616 316.167 237.19 382.271 150.063 309.893 168.817 241.98 176.082 215.64 178.216 210.845 234.689 224.379 240.616 230.224"/><path class="cls-5" d="M240.6158,230.2235v56.4309c-30.2668,9.0588-62.0374-31.0319-71.7989-44.6744l7.2654-26.34,2.1341-4.7953,56.4722,13.534Z"/><path class="cls-6" d="M147.4174,189.2443s-22.35-52.6637-14.242-90.3049c6.9971-32.4834,66.1564-59.5106,109.3475-32.5459,43.7647,27.3267,16.7428,111.5129,16.7428,111.5129l-84.465,18.2367Z"/><path class="cls-7" d="M134.8809,93.4361s19.6268-11.1676,34.4784,8.1391l74.8638,13.4874s21.4249-14.4537,19.0786-20.6449-1.3176-2.7125-1.3176-2.7125,8.6661-26.4743,12.1851-31.931l-8.273,5.8187s2.5215-14.1854-.6668-21.4614L261.3226,48.86s-12.8365-26.19-43.5218-22.19c-30.6854,4.0048-44.08,16.7328-44.08,16.7328l3.5608-9.09s-27.6315,13.0953-33.45,30.5514l-2.9046-12.3661L128.1885,77.2356Z"/><path class="cls-4" d="M171.6124,235.04c2.1236,14.2833,53.6554,31.905,72.6313,30.1842,18.9649-1.7161,55.0768-33.8275,57.0611-45.1136.2271-1.2869-.0518-3.819-.7186-7.3125-1.3488-7.0073-4.2941-17.89-7.9994-30.3186C281.9,146.5337,264.904,97.5752,261.9841,91.7052c0,0-1.5764,9.3016-19.1358,12.94-18.7637,3.8909-62.4718-7.69-73.489-3.07C169.3593,101.5752,169.5037,220.7409,171.6124,235.04Z"/><path class="cls-8" d="M181.4306,208.9484a15.6855,15.6855,0,1,0,14.78-16.5418A15.6873,15.6873,0,0,0,181.4306,208.9484Z"/><path class="cls-8" d="M281.3473,198.4169a15.6834,15.6834,0,0,0,16.5418,14.7791,15.2316,15.2316,0,0,0,2.6971-.3979c-1.3488-7.0073-4.2941-17.89-7.9994-30.3186A15.69,15.69,0,0,0,281.3473,198.4169Z"/><path class="cls-9" d="M287.4814,177.6635s-2.1913.4286-5.044.8165l-.47.0619c-3.8656.5117-8.7492.8991-11.059.0725l-.072-.0206v-.0106c-.14-.4339-3.0337-9.87-4.94-17.2857a66.2183,66.2183,0,0,1-1.5817-7.3639c-.4805-4.4027-.1138-13.73,4.0931-17.6266a6.4286,6.4286,0,0,1,3.85-1.7314C280.0757,133.8369,287.4814,177.6635,287.4814,177.6635Z"/><path class="cls-10" d="M282.3961,178.444l-.4286.0979a31.3387,31.3387,0,0,1-8.48.589,6.2225,6.2225,0,0,1-2.5786-.5165l-.072-.0312c-.14-.4339-3.0337-9.87-4.94-17.2857a66.2183,66.2183,0,0,1-1.5817-7.3639c-.4805-4.4027-.1138-13.73,4.0931-17.6266l.8372.6149c5.2551,4.92,8.5158,11.6787,10.2991,18.66a75.2021,75.2021,0,0,1,1.9426,11.9428q.2715,3.1083.4292,6.2219C281.9881,175.1674,282.6184,177.0793,282.3961,178.444Z"/><path class="cls-9" d="M279.6884,171.9427c-1.1626.93-2.8109,1.5145-3.9428.3932a4.7545,4.7545,0,0,1-1.1266-2.8528,17.8722,17.8722,0,0,1,4.2322-13.8546l.8684-.5736c.5218-.0413.9091.47,1.1573.9355a15.3913,15.3913,0,0,1,1.6071,9.4361,12.0285,12.0285,0,0,1-1.9066,5.6224Z"/><path class="cls-4" d="M174.8007,196.1431c-5.3017-8.8006-17.534-25.8794-29.2333-21.73s1.8293,43.2483,6.6252,50.84c4.79,7.5856,16.2517,15.4612,22.071,14.8929C180.077,239.5771,175.8913,197.9571,174.8007,196.1431Z"/><path class="cls-5" d="M149.3086,193.611c.5943-2.8321,4-3.5089,6.3669-2.5945,2.9814,1.1525,5.2086,4.0307,7.157,6.4389a59.6348,59.6348,0,0,1,9.8187,17.6837c.47,1.3388,2.6146.7652,2.1394-.589a62.5743,62.5743,0,0,0-12.0719-20.66c-2.2944-2.5993-5.1884-5.3642-8.8677-5.5086-2.93-.1191-6.0511,1.6277-6.6818,4.6355C146.88,194.4116,149.0144,195.0059,149.3086,193.611Z"/><path class="cls-5" d="M160.2227,194.0762q-1.2629,8.2391-2.5215,16.474a1.14,1.14,0,0,0,.7752,1.3642,1.1132,1.1132,0,0,0,1.3642-.77q1.2629-8.239,2.5215-16.4793a1.1453,1.1453,0,0,0-.7752-1.3642A1.1177,1.1177,0,0,0,160.2227,194.0762Z"/><path class="cls-5" d="M279.7709,180.47l.3154.6921c1.0488,2.6512.32,5.6383-.4185,8.3926a4.6563,4.6563,0,0,1-3.1676,3.3073,10.606,10.606,0,0,1-2.9406.3614c-5.8806.1657-14.3711,1.23-19.5855-2.196-4.5371-2.9819-3.6481-9.9325-3.9429-14.65q-.6746-10.6267-.563-21.2852a59.53,59.53,0,0,1,.46-7.86,10.526,10.526,0,0,1,1.3641-4.2941l.5065-.4858c.5476-.2069,1.0488.3826,1.3329.8937,2.9459,5.25,5.3176,10.8263,7.9121,16.2264,2.3511,4.9043,4.1958,10.0462,8.7694,13.4C273.2082,175.4569,277.8744,176.847,279.7709,180.47Z"/><path class="cls-9" d="M238.8018,185.71a48.0544,48.0544,0,0,1-9.9266,4.93,34.5323,34.5323,0,0,1-6.6458,1.6436,53.8607,53.8607,0,0,1-13.0276-.3619c-.5636-.0773-1.1319-.15-1.6949-.2376-2.2791-.3308-4.2635-.7028-5.6637-.9816-1.3488-.2689-2.16-.46-2.16-.46l-.0985-.4493c-.5217-2.522-3.0332-15.2342-2.7649-26.5927.15-6.2426,1.1319-12.0666,3.7624-15.57a17.3021,17.3021,0,0,1,15.9422-6.7178c6.4283.734,12.6915,4.9038,15.7713,12.64C238.2234,168.4756,238.8018,185.71,238.8018,185.71Z"/><path class="cls-10" d="M228.8752,190.6392a34.5323,34.5323,0,0,1-6.6458,1.6436,48.5024,48.5024,0,0,1-13.0276-.3619c-.5636-.0773-1.1319-.15-1.6949-.2376a42.6968,42.6968,0,0,1-5.6637-.9816,10.47,10.47,0,0,1-2.01-.77l-.2482-.14c-.5217-2.522-3.0332-15.2342-2.7649-26.5927.15-6.2426,1.1319-12.0666,3.7624-15.57a17.3021,17.3021,0,0,1,15.9422-6.7178,17.8778,17.8778,0,0,1,3.9741,4.4027C229.1334,158.1558,231.8052,175.5188,228.8752,190.6392Z"/><path class="cls-3" d="M162.6208,327.4013l-1.0387.3979c-.9409.3614-1.8812.7234-2.8062,1.08-.708.2736-1.416.553-2.1082.8266q-6.6357,2.5971-13.2085,5.307-10.0307,4.1473-19.9422,8.5942c-.6974.2789-1.3795.589-2.0569.9091q-13.2318,5.9222-26.236,12.3873c-.6663.3048-1.323.6408-1.9945.9869-3.7258,1.8394-7.457,3.7311-11.1569,5.6742-.6721-.481-1.3388-.9821-1.995-1.4832q6.0929-3.1632,12.2423-6.222c.6667-.336,1.3229-.6667,1.99-.9922.49-.2428.9922-.4857,1.4827-.7286q12.2245-6.023,24.6756-11.6015c.6821-.31,1.3642-.6149,2.0568-.9144q16.3791-7.31,33.0729-13.8493c.6975-.2948,1.4055-.5636,2.1082-.8218.579-.2429,1.1579-.4651,1.7521-.6821.8477-.3461,1.71-.6668,2.5734-1.0028C163.3649,324.75,163.9332,326.9,162.6208,327.4013Z"/><path class="cls-9" d="M220.08,179.6167c-.2069,1.5192-.1757,3.3644,1.1054,4.2068a3.5135,3.5135,0,0,0,2.9924.1339,11.0609,11.0609,0,0,0,6.2633-6.03,27.51,27.51,0,0,0,2.0563-8.6555,12.3441,12.3441,0,0,0-.1757-5.08c-.4133-1.3177-2.0516-3.7053-3.7412-3.2761-1.4727.372-3.3179,4.2995-4.0254,5.5393A36.5559,36.5559,0,0,0,220.08,179.6167Z"/><path class="cls-9" d="M219.9815,201.6776l2.2378,14.867s36.1421,1.5039,43.78-2.5009v-9.09S232.6423,205.1347,219.9815,201.6776Z"/><path class="cls-11" d="M187.6631,139.981c1.09-.5477,49.8317-8.3666,49.8317-8.3666s-4.5477-15.8232-16.7328-16.5518S187.6631,139.981,187.6631,139.981Z"/><path class="cls-11" d="M255.3176,128.886h20.0972s-4.4545-12.9138-15.1876-15.2808C249.4989,111.2436,255.3176,128.886,255.3176,128.886Z"/><polygon class="cls-2" points="137.563 310.498 148.239 267.834 207.486 289.166 237.19 382.271 137.563 310.498"/><polygon class="cls-2" points="240.616 286.654 262.046 286.654 265.999 325.67 239.536 355.652 240.616 286.654"/><path class="cls-11" d="M216.1159,260.966s35.9309-33.5952,43.0207-32.7787c0,0,14.061,18.2832,15.0326,22.0091S254.8837,273.58,252.9771,274.128C251.0647,274.6756,217.4235,262.599,216.1159,260.966Z"/></svg>