<svg id="Layer_1" data-name="Layer 1" xmlns="http://www.w3.org/2000/svg" xmlns:xlink="http://www.w3.org/1999/xlink" viewBox="0 0 402.6551 402.6678"><defs><style>.cls-1{fill:#6799d1;}.cls-2{fill:#1f5856;}.cls-3{fill:#f7b3a2;}.cls-4{fill:#f08381;}.cls-5{fill:url(#linear-gradient);}.cls-6{fill:#f49f99;}.cls-7{fill:url(#linear-gradient-2);}.cls-8{fill:#3e3630;}.cls-9{fill:#352e29;}.cls-10{fill:#fff;}.cls-11{fill:#225b80;}.cls-12{fill:#349291;}</style><linearGradient id="linear-gradient" x1="200.5466" y1="162.5228" x2="171.2617" y2="18.9182" gradientUnits="userSpaceOnUse"><stop offset="0.4747" stop-color="#3e3630"/><stop offset="0.6142" stop-color="#81786f"/><stop offset="0.7731" stop-color="#c9bfb3"/></linearGradient><linearGradient id="linear-gradient-2" x1="226.2945" y1="38.766" x2="240.0539" y2="95.5909" gradientUnits="userSpaceOnUse"><stop offset="0.1321" stop-color="#c9bfb3"/><stop offset="0.39" stop-color="#867d74"/><stop offset="0.6841" stop-color="#3e3630"/></linearGradient></defs><path class="cls-1" d="M0,201.3263A201.55,201.55,0,0,0,120.3907,385.744l.0159.0154A201.3648,201.3648,0,0,0,402.6551,201.3263C402.6551,90.1441,312.5238,0,201.3263,0,90.1346,0,0,90.1441,0,201.3263Z"/><path class="cls-2" d="M45.1655,328.4035a201.9634,201.9634,0,0,0,75.2252,57.3405l.0159.0154a201.3782,201.3782,0,0,0,241.1249-62.4613,48.1778,48.1778,0,0,0-8.3979-4.6561,117.4123,117.4123,0,0,0-50.2423-10.2579c-16.6915.2794-32.985,5.6843-49.6247,5.5139-10.0923-.1032-20.87-3.1469-31.0033-4.1132-33.9233-3.2147-67.7037,3.0231-101.63,1.8394C94.0568,310.6992,68.2853,315.7014,45.1655,328.4035Z"/><path class="cls-3" d="M139.4751,336.8887c83.1342,49.32,122.38-2.9813,122.38-2.9813l-5.8833-32.37L245.14,241.9488l-.0979-.5218-.8578-.0878L147.0766,231.257l-3.4882,48.55Z"/><path class="cls-4" d="M143.5884,279.807c39.3827,34.644,86.5113,28.8565,112.3833,21.73L245.14,241.9488l-.9557-.61L147.0766,231.257Z"/><path class="cls-5" d="M251.7368,69.4632s9.4774-22.4583,0-33.0316l-1.9611,7.55S237.73,14.614,210.05,12.4386c-27.6781-2.1706-61.2262,25.554-76.326,31.5431-15.1,5.9944-24.3348,4.0206-24.3348,4.0206l10.9141,10.6506s-7.8856,25.5074,1.6743,65.4738c6.868,28.6909,3.1729,56.1467,3.1729,56.1467l20.48,14.19,18.8928-31.7087Z"/><path class="cls-3" d="M149.1488,252.6925c70.4607,14.3711,132.868-7.3327,132.868-7.3327,0-8.0978-3.7545-37.2226-7.7179-65.65-1.4986-10.79-3.0359-21.4715-4.3953-30.8769-2.64-18.1742-4.6609-31.5378-4.6609-31.5378L250.8118,66.2025s-6.07,3.2348-24.9931,2.0415c-23.3965-1.4779-55.4672-12.0565-61.0377-7.049C154.7194,70.2538,149.1488,252.6925,149.1488,252.6925Z"/><path class="cls-6" d="M255.9278,164.3566A15.5995,15.5995,0,0,0,274.2989,179.71c-1.4986-10.79-3.0359-21.4715-4.3953-30.8769A15.6071,15.6071,0,0,0,255.9278,164.3566Z"/><path class="cls-7" d="M242.7632,60.2768S245.07,75.63,232.8233,81.04c0,0,1.7621-17.9938-12.58-20.7635Z"/><path class="cls-8" d="M276.5029,195.7864s-32.0268,34.07-97.32,2.7025c-10.7384-5.1573-22.7325-19.1252-30.0292-43.0308l-4.2788,44.0388s2.0151,52.441,2.2685,55.1075c.2482,2.6664,19.3733,13.5858,34.0545,17.11,15.0379,3.6074,76.9,10.8215,106.6086-14.1023C287.8069,257.6121,285.0812,221.77,276.5029,195.7864Z"/><path class="cls-9" d="M272.6092,202.029c4.5265,19.0892,6.3717,38.6382,7.72,58.1671.101,1.4467-2.1469,1.4414-2.2479,0-1.333-19.3321-3.1571-38.6747-7.64-57.5728C270.1079,201.2178,272.2759,200.6182,272.6092,202.029Z"/><path class="cls-9" d="M261.47,208.8759c2.5966,18.3917,4.69,36.9025,4.3693,55.5059a1.125,1.125,0,0,1-2.2484,0c.318-18.4023-1.7182-36.7163-4.2863-54.9064C259.1033,208.0594,261.2687,207.45,261.47,208.8759Z"/><path class="cls-9" d="M243.6368,214.6692a270.0039,270.0039,0,0,1,4.997,54.0221,1.1247,1.1247,0,0,1-2.2479,0,266.8842,266.8842,0,0,0-4.9171-53.4231C241.1921,213.8575,243.3574,213.2532,243.6368,214.6692Z"/><path class="cls-9" d="M225.3843,213.7336c-1.4028,19.3062.3514,38.6075.93,57.9136.0439,1.442-2.204,1.442-2.2479,0-.5763-19.3061-2.3331-38.6074-.9277-57.9136C223.2422,212.2969,225.4907,212.2869,225.3843,213.7336Z"/><path class="cls-9" d="M205.1765,211.5683a489.3347,489.3347,0,0,1-3.3851,58.3581c-.18,1.416-2.4283,1.4367-2.2479,0a488.2279,488.2279,0,0,0,3.3851-58.3581A1.1246,1.1246,0,0,1,205.1765,211.5683Z"/><path class="cls-9" d="M186.5678,206.1941c-1.7881,19.7972-4.4492,39.5271-9.3017,58.8285a1.126,1.126,0,0,1-2.1706-.5943c4.8059-19.1151,7.457-38.6334,9.2244-58.2342C184.449,204.7627,186.6969,204.7521,186.5678,206.1941Z"/><path class="cls-9" d="M170.233,196.8045c-1.3489,20.438-6.2119,40.3384-12.4079,59.8049-.434,1.3747-2.6041.7858-2.1649-.5943,6.1288-19.2749,10.9861-38.9742,12.3249-59.2106C168.083,195.3678,170.3309,195.3573,170.233,196.8045Z"/><path class="cls-10" d="M268.0536,148.75s-12.8053.0312-15.94-.0466c-3.1343-.0825-3.0051-28.6337-3.0051-28.6337l15.1929,4.5942Z"/><polygon class="cls-11" points="259.682 123.269 263.02 148.75 249.81 148.75 249.109 120.07 259.682 123.269"/><path class="cls-3" d="M155.7735,200.1272a72.3336,72.3336,0,0,0-2.6506-7.25c-5.4727-12.7953-22.7066-40.8036-40.2045-31.223-11.3274,6.2013-4.9662,28.06-2.2738,37.1607,5.0128,16.9291,13.7149,38.3075,28.386,49.2422,7.0226,5.235,13.6065,5.6742,16.5725-3.55A74.5327,74.5327,0,0,0,155.7735,200.1272Z"/><path class="cls-4" d="M243.9443,131.9869s30.8144,51.0249,29.52,69.9024c-.5477,7.9375-28.1845,8.0513-28.1845,8.0513Z"/><path class="cls-4" d="M115.7658,179.2912c3.9429-2.8215,8.9969-1.0234,12.4905,1.669,4.0047,3.09,6.64,7.56,8.9344,11.9841a236.7938,236.7938,0,0,1,14.7484,35.3774c.45,1.38-1.7155,1.969-2.1648.6a238.1429,238.1429,0,0,0-12.5576-30.9334c-2.0463-4.1651-4.0979-8.4958-7.09-12.082-2.9506-3.54-8.62-7.9687-13.2244-4.6715C115.7246,182.0768,114.598,180.1284,115.7658,179.2912Z"/><path class="cls-4" d="M138.0385,198.0449q-3.3489,5.9991-6.6871,11.9941a1.125,1.125,0,0,1-1.9431-1.1319q3.3408-6,6.6871-11.9994C136.8034,195.6467,138.7412,196.7786,138.0385,198.0449Z"/><polygon class="cls-10" points="228.503 148.75 183.545 148.704 181.198 131.987 225.819 120.313 228.503 148.75"/><polygon class="cls-11" points="218.104 118.597 218.104 148.75 183.545 148.704 181.198 131.987 218.104 118.597"/><polygon class="cls-4" points="225.819 120.313 222.465 90.785 179.183 114.261 181.198 131.987 225.819 120.313"/><path class="cls-8" d="M224.4313,72.8949c1.0488.15-.0313,16.4793-.0313,16.4793s-38.654,4.899-44.2864,6.02C180.1136,95.3945,201.957,69.6389,224.4313,72.8949Z"/><polygon class="cls-4" points="249.109 120.07 264.302 124.664 261.721 110.247 247.293 90.785 249.109 120.07"/><path class="cls-8" d="M243.9443,73.99l2.0076,15.9576,11.0713.8371S254.68,75.1015,243.9443,73.99Z"/><path class="cls-10" d="M220.2429,139.7694c-3.9042,2.2579-8.4492,3.7306-12.9117,3.085a3.577,3.577,0,0,1-2.3458-1.0594,2.759,2.759,0,0,1-.45-2.1706,5.667,5.667,0,0,1,2.5733-3.638,14.1921,14.1921,0,0,1,4.23-1.7209c2.8655-.7853,5.9225-1.3742,8.7826-.563C223.8576,134.7619,222.9634,138.193,220.2429,139.7694Z"/><path class="cls-10" d="M256.01,142.9216l-.8059-.16-.4731-1.2044.6435-1.2039a9.18,9.18,0,0,1,7.5914-3.276c2.6586.18,1.8294,2.8215.2482,3.829A13.1951,13.1951,0,0,1,256.01,142.9216Z"/><path class="cls-10" d="M237.6678,228.6059a35.5768,35.5768,0,0,1-38.0206-6.2421Z"/><path class="cls-6" d="M167.0648,165.5244a15.6012,15.6012,0,1,0,15.6015-15.6009A15.6039,15.6039,0,0,0,167.0648,165.5244Z"/><path class="cls-12" d="M305.71,336.1241c-7.6248,16.65-23.758,27.8638-40.47,35.352a161.3169,161.3169,0,0,1-105.4614,8.8778c-15.9781-4.1391-31.8325-11.431-43.7388-23.0944-12.728-12.4746-17.591-29.8222-16.8571-47.4334.4651-11.0485,3.0385-28.0861,11.9322-35.6881,15.12-12.9238,35.7754-.4958,50.2142,6.2426,11.9729,5.5811,25.3471,7.1988,38.4678,8.7439,20.048,2.3617,40.7754,4.6715,60.0969-1.1837,6.0955-1.8447,12.0047-4.4958,18.3219-5.2917C305.3514,279.2334,314.6346,316.6264,305.71,336.1241Z"/><path class="cls-2" d="M268.3325,286.2617c6.2765-1.189,11.8856,2.3612,16.5291,6.2167A49.5463,49.5463,0,0,1,296.2667,306.26a51.0393,51.0393,0,0,1,5.7981,34.3445c-.2662,1.4208-2.4315.8165-2.168-.5995A49.0093,49.0093,0,0,0,285.8511,296.38c-4.3307-4.1809-10.4981-9.1678-16.919-7.9533C267.5187,288.6954,266.9117,286.53,268.3325,286.2617Z"/><path class="cls-2" d="M250.1117,290.9486c13.2138,7.8909,21.35,23.4558,24.3549,38.1735,3.0364,14.8828.2355,30.489-9.31,42.4932-.9017,1.1319-2.48-.4652-1.5886-1.5865,9.325-11.7305,11.7174-27.2542,8.436-41.6666-3.1083-13.6577-10.6918-28.1066-23.0272-35.4758A1.1234,1.1234,0,0,1,250.1117,290.9486Z"/><path class="cls-2" d="M217.23,291.9667c7.3745,14.5727,9.4726,30.8663,8.6016,47.0355-.8345,15.467-2.9919,32.6237-12.3634,45.45-.8451,1.1525-2.7956.0365-1.94-1.1367,9.134-12.5,11.2448-29.2438,12.056-44.3129.85-15.766-1.098-31.6828-8.2941-45.8989C214.6385,291.8169,216.5763,290.6745,217.23,291.9667Z"/><path class="cls-2" d="M173.3487,286.6179c-11.6634,11.1622-17.761,24.9131-20.96,40.54-3.2866,16.0607-6.63,33.15-.3926,48.9273.5323,1.3435-1.6383,1.9272-2.1654.599-6.377-16.1332-2.9612-33.6979.3927-50.1206,3.266-15.9887,9.6118-30.1222,21.5386-41.5327C172.8063,284.0292,174.398,285.6156,173.3487,286.6179Z"/><path class="cls-2" d="M141.7283,275.5646c-15.2294.0413-24.5411,13.8854-29.3317,26.7166a78.5864,78.5864,0,0,0-3.457,42.2661c.2683,1.4161-1.8966,2.02-2.1707.6a80.8748,80.8748,0,0,1,4.8525-46.9276c5.3642-12.583,15.25-24.8613,30.1069-24.9026A1.1247,1.1247,0,0,1,141.7283,275.5646Z"/></svg>