<svg id="Layer_1" data-name="Layer 1" xmlns="http://www.w3.org/2000/svg" viewBox="0 0 36.0441 36.4853"><defs><style>.cls-1{fill:#a8aaac;}.cls-2{fill:#242224;}</style></defs><path class="cls-1" d="M689.7665,734.84a18.2393,18.2393,0,0,0-18.184,18.6542c.29,9.0939,6.9081,17.7215,18.0416,17.829a17.9812,17.9812,0,0,0,17.9916-18.1553A18.1811,18.1811,0,0,0,689.7665,734.84Z" transform="translate(-671.5735 -734.8382)"/><path class="cls-2" d="M701.94,745.7551a29.53,29.53,0,0,1-.9224,8.1963,20.7807,20.7807,0,0,1-4.9365,9.2665,22.3,22.3,0,0,1-5.8428,4.2227,1.0119,1.0119,0,0,1-1.0515.0086,24.8131,24.8131,0,0,1-4.2-2.54,17.6531,17.6531,0,0,1-4.0593-4.7818,23.6547,23.6547,0,0,1-2.9119-7.7453,39.0259,39.0259,0,0,1-.678-5.7931c-.0407-.855-.0288-1.7091-.0585-2.5631-.0059-.17.0124-.2688.2294-.293a38.43,38.43,0,0,0,7.0555-1.4686,52.17,52.17,0,0,0,4.9263-1.7827.69.69,0,0,1,.6209.0072,37.8638,37.8638,0,0,0,7.9288,2.7284,28.217,28.217,0,0,0,3.6805.5812c.1673.0143.2249.0708.2226.2382C701.9348,744.6093,701.94,745.1822,701.94,745.7551Zm-2.8716.71c.0552-.2431-.0562-.2812-.2169-.3185-.7717-.1787-1.5447-.355-2.3087-.5633-2.2216-.6054-4.3688-1.43-6.519-2.2441a.8558.8558,0,0,0-.6092-.0122c-.6959.2281-1.3983.4362-2.0965.6574a9.3867,9.3867,0,0,0-3.1321,1.5084c-.1.08-.2187.1471-.2062.3084.0169.22.0027.44.04.661a5.0108,5.0108,0,0,0,1.4959,2.6984,16.3333,16.3333,0,0,0,2.5228,2.0059,39.31,39.31,0,0,0,9.27,4.3924c.1918.0672.239-.006.2881-.1719A36.5654,36.5654,0,0,0,699.0679,746.4649Zm-18.4423,3.6006a.8931.8931,0,0,0,.0015.182c.3951,1.5251.7376,3.0639,1.26,4.5548a17.9925,17.9925,0,0,0,7.4631,9.4183.4033.4033,0,0,0,.535-.0014c.5371-.39,1.0932-.7534,1.6366-1.1347a15.9173,15.9173,0,0,0,2.2993-1.9449,1.4867,1.4867,0,0,0,.3137-1.7135,3.7325,3.7325,0,0,0-.2392-.52,6.1884,6.1884,0,0,0-1.4824-1.7336,35.584,35.584,0,0,0-4.0782-2.7954c-2.2508-1.3926-4.6031-2.6064-6.9179-3.8861C681.1636,750.3514,680.9071,750.2169,680.6256,750.0655Z" transform="translate(-671.5735 -734.8382)"/></svg>