<svg id="Layer_1" data-name="Layer 1" xmlns="http://www.w3.org/2000/svg" viewBox="0 0 36.0388 36.0388"><defs><style>.cls-1{fill:#95bc4c;}.cls-2{fill:#272526;}</style></defs><path class="cls-1" d="M17.61.2287A18.0194,18.0194,0,1,1,.0049,18.6615,18.0194,18.0194,0,0,1,17.61.2287Z"/><path class="cls-2" d="M17.5336,5.7267A12.64,12.64,0,0,1,23.9482,7.12a12.2512,12.2512,0,0,1,5.8731,7.2566c1.2307,4.1.1894,7.0628-1.7244,10.61q.0177-.1347.0331-.27a14.2049,14.2049,0,0,0-6.4544-13.318,9.3192,9.3192,0,0,0-3.8375-1.2038c-3.3458-.6766-7.5719,3.6774-4.5363,6.3447A2.7493,2.7493,0,0,1,13.7,14.6211a2.6283,2.6283,0,0,1,3.3921-.292c2.1511,1.9717.2555,5.2655-2.3792,5.4023a5.96,5.96,0,0,1-4.158-1.4034A5.7544,5.7544,0,0,1,8.46,14.3385C7.9568,8.8123,12.6569,6.1578,17.5336,5.7267Z"/><path class="cls-2" d="M7.774,11.7791l.094.07q-.014.4768-.0167.9541c-.0043.4431-.041,1.0787.0012,1.5089.5852,5.682,4.692,11.7918,10.869,12.0056,3.3168.1151,6.833-3.6164,3.9963-6.4274a3.0935,3.0935,0,0,1-.2288,1.765,2.5154,2.5154,0,0,1-4.3951-.7731,3.4233,3.4233,0,0,1,2.6474-4.0231,5.3293,5.3293,0,0,1,4.0422.8021,5.8243,5.8243,0,0,1,2.51,3.12,7.2842,7.2842,0,0,1-.4014,5.3375,8.8408,8.8408,0,0,1-5.1949,4.0438,12.4165,12.4165,0,0,1-9.3637-.6762A12.1324,12.1324,0,0,1,6.5105,14.4C6.8356,13.5587,7.3585,12.5993,7.774,11.7791Z"/></svg>