<svg id="Layer_4" data-name="Layer 4" xmlns="http://www.w3.org/2000/svg" viewBox="0 0 35.4999 35.7019"><defs><style>.cls-1{fill:#fdec3e;}.cls-2{fill:#070904;}</style></defs><path class="cls-1" d="M37.085,17.0141A16.7186,16.7186,0,0,0,35,11.1454a21.4545,21.4545,0,0,0-4.9969-5.7341A13.6782,13.6782,0,0,0,22.496,2.28a36.7159,36.7159,0,0,0-4.6981-.0986,13.45,13.45,0,0,0-3.8129.7257A17.3132,17.3132,0,0,0,8.0358,6.3854a18.7241,18.7241,0,0,0-4.9435,6.8059,15.2777,15.2777,0,0,0-1.2354,5.27c-.0276.5758.0451,1.1466.0077,1.7171a13.434,13.434,0,0,0,.6278,4.993,18.3592,18.3592,0,0,0,8.6068,10.5633A14.8215,14.8215,0,0,0,17.7421,37.8a21.3793,21.3793,0,0,0,5.95-.3854,17.1854,17.1854,0,0,0,3.9882-1.397,17.4,17.4,0,0,0,3.0885-2.2513,4.1156,4.1156,0,0,0,.8832-.7074,17.0212,17.0212,0,0,0,3.9291-5.3176,18.2637,18.2637,0,0,0,1.7484-7.3669A17.5223,17.5223,0,0,0,37.085,17.0141Z" transform="translate(-1.8364 -2.1491)"/><path class="cls-1" d="M38.1636,31.1513" transform="translate(-1.8364 -2.1491)"/><path class="cls-1" d="M15.31,13.0777c-.0061.0054-.0125.0154-.0185.0152a.023.023,0,0,1-.0158-.0168c0-.006.01-.012.0159-.0179Z" transform="translate(-1.8364 -2.1491)"/><path class="cls-2" d="M29.6,31.9543a8.8648,8.8648,0,0,1-1.4745-5.09c.0105-2.204-.0237-4.4091.0083-6.6136a.47.47,0,0,0-.2285-.448c-1.1416-.7845-2.2754-1.58-3.4112-2.3732C20.481,14.6286,16.47,11.8251,12.4183,9.0807a.5521.5521,0,0,0-.3234-.1556,1.338,1.338,0,0,0,.0092.1641c.27,1.45.5362,2.9.8126,4.3489.8372,4.3879,1.76,8.759,2.569,13.1525a2.19,2.19,0,0,0,1.0235,1.61c.3751.2187.7588.424,1.1469.6188,1.5445.7749,3.1726,1.3633,4.7293,2.1111a9.7425,9.7425,0,0,1,2.2006,1.2609,25.8937,25.8937,0,0,1,3.2292,3.7532c.2024-.1307.4315-.2353.6267-.3761a27.872,27.872,0,0,0,2.2994-1.778C30.39,33.2115,29.9729,32.5181,29.6,31.9543Z" transform="translate(-1.8364 -2.1491)"/><path class="cls-1" d="M15.3405,13.0828c.3919.2845.7677.55,1.1361.826,2.3333,1.7461,4.5524,3.6344,6.81,5.4751.5554.4529,1.1086.9084,1.6695,1.3543.1285.1022.1611.1611.031.2971q-1.3218,1.3824-2.6247,2.783c-.1524.1642-.2062.1024-.2968-.0438-1.6574-2.6738-3.3991-5.2934-5.0987-7.94-.5128-.7985-1.01-1.607-1.5105-2.4137C15.4016,13.3327,15.3052,13.2546,15.3405,13.0828Z" transform="translate(-1.8364 -2.1491)"/></svg>