<?xml version="1.0" encoding="utf-8"?>
<!-- Generator: Adobe Illustrator 25.2.0, SVG Export Plug-In . SVG Version: 6.00 Build 0)  -->
<svg version="1.1" id="Layer_1" xmlns="http://www.w3.org/2000/svg" xmlns:xlink="http://www.w3.org/1999/xlink" x="0px" y="0px"
	 viewBox="0 0 151 151" style="enable-background:new 0 0 151 151;" xml:space="preserve">
<style type="text/css">
	.st0{fill:#272526;}
	.st1{fill:#A8A7A8;}
</style>
<path class="st0" d="M0,75.1c0.8-1.2,0.5-6.3,0.7-8c0.4-2.7,0.8-5.4,1.4-8.1C8.4,31,30,9.1,57.9,2.4c19.5-4.6,40-1.4,57.1,9.1
	c16.9,10.4,29,27,33.7,46.3c4.7,19.5,1.4,40.2-9.1,57.3c-10.4,16.9-27.1,28.9-46.3,33.6c-19.5,4.7-40.1,1.4-57.2-9.2
	C19.2,129.1,7.1,112.5,2.4,93.3c-0.7-3.1-1.3-6.3-1.6-9.4c-0.2-1.8-0.2-7.1-0.8-8V75.1z"/>
<path class="st1" d="M74.1,6.9c37.9-0.8,69.2,29.3,69.9,67.2c0.8,37.9-29.3,69.2-67.2,69.9C39,144.8,7.7,114.7,6.9,76.9
	C6.2,39,36.3,7.7,74.1,6.9z"/>
<path class="st0" d="M75.9,29c1.1,0.2,6.2,2.8,7.6,3.4c8.1,3.4,16.4,6.1,25,7.8c4.1,0.8,7.9,0.9,11.9,1.4
	c2.2,30.6-5.9,63.1-32.8,81.3c-1.7,1.1-10.3,6.4-11.8,6.2c-8.3-2.3-16.7-8.5-22.6-14.6C34.9,95.4,29.6,67.2,30,41.6
	C48.6,39.3,58.7,36.6,75.9,29z"/>
<path class="st1" d="M75.7,38.3c0.7,0,8.3,3.6,9.7,4.1c8.3,3.2,16.6,5.9,25.4,7c0.1,14.2-1.1,23.1-6.1,36.4
	c-3.4-1.4-7.6-2.7-11.2-4.1c-10-4.1-20-9.1-28.6-15.7c-6.5-4.9-12.8-11.4-9.6-20.1c0.6-0.3,1.3-0.5,1.9-0.7
	C63.5,43.2,69.6,40.9,75.7,38.3z"/>
<path class="st1" d="M41.6,64c0.9,0.3,7.7,4,9.1,4.8c12.5,7.3,27.6,14.5,38.1,24.4c2.1,2,4.9,6.5,4.6,9.3c-0.3,2.8-5,6.6-7.2,8.5
	c-3,2.4-7.2,5.5-10.8,7c-2.2-1.1-4.3-2.4-6.4-3.8C52.4,102.5,45.1,83.4,41.6,64z"/>
</svg>
