<?xml version="1.0" encoding="utf-8" ?><svg xmlns="http://www.w3.org/2000/svg" xmlns:xlink="http://www.w3.org/1999/xlink" width="151" height="151" viewBox="0 0 151 151"><path fill="#272526" d="M0 75.065C0.821589 73.9099 0.454932 68.784 0.70309 67.1026C1.10636 64.3702 1.53964 61.7119 2.13485 58.9968C8.38189 30.9851 30.0707 8.99696 57.9941 2.36647C77.4679 -2.22366 97.9665 1.06535 115.027 11.5174C131.882 21.9126 143.952 38.5427 148.61 57.7904C153.325 77.3719 150.022 98.0254 139.436 115.16C128.97 132.031 112.26 144.083 92.9481 148.688C73.403 153.293 52.8291 149.929 35.7685 139.339C18.9808 128.922 6.97749 112.306 2.36302 93.0958C1.66363 90.0653 1.14117 86.9967 0.798303 83.9055C0.606262 82.1411 0.590235 76.8206 0 75.9379L0 75.065Z"/><path fill="#95BC4C" d="M73.9398 6.92649C111.8 6.06525 143.195 36.0497 144.074 73.9098C144.953 111.77 114.983 143.179 77.1231 144.075C39.2386 144.972 7.80486 114.978 6.92556 77.093C6.04625 39.2082 36.0546 7.78828 73.9398 6.92649Z"/><path fill="#272526" d="M73.6505 27.8553C80.8522 26.9568 91.6563 29.7265 98.0684 33.16C108.874 39.0562 116.911 48.9856 120.425 60.7831C125.11 76.391 121.146 87.6685 113.861 101.17C113.906 100.828 113.948 100.485 113.987 100.142C116.149 80.8739 106.224 59.4483 89.4177 49.4454C84.8676 46.7372 80.031 45.4463 74.8095 44.8633C62.0734 42.2874 45.9863 58.8617 57.5417 69.0151C57.434 66.546 57.4008 63.6697 59.0569 61.7128C61.81 58.3172 68.7609 57.6601 71.9695 60.6011C80.1578 68.1066 72.9423 80.645 62.9129 81.1656C56.9105 81.4772 51.4648 79.4491 47.0849 75.8235C42.4732 72.0557 39.5942 66.5726 39.111 60.637C37.1953 39.6009 55.0868 29.4961 73.6505 27.8553Z"/><path fill="#272526" d="M36.4993 50.8943L36.8571 51.1603C36.822 52.3707 36.8009 53.5815 36.7938 54.7924C36.7774 56.4791 36.6374 58.8987 36.7984 60.5361C39.026 82.1654 54.6589 105.423 78.1725 106.237C90.7983 106.675 104.183 92.4707 93.3847 81.7701C93.5205 83.8421 93.6706 86.7685 92.5137 88.4889C88.3318 94.7077 77.4865 92.847 75.7833 85.546C74.1093 78.3701 79.1367 71.8873 85.861 70.2318C91.3914 68.8702 96.5055 70.5134 101.248 73.285C105.737 75.9907 109.121 80.199 110.802 85.1632C112.918 91.4636 112.314 99.581 109.274 105.481C105.313 113.164 97.4927 118.229 89.4989 120.874C77.7385 124.714 64.9415 123.79 53.855 118.3C42.93 112.709 34.6796 103 30.9256 91.3156C27.7001 81.3778 27.9698 70.6358 31.6899 60.8723C32.9272 57.6686 34.9178 54.0164 36.4993 50.8943Z"/></svg>