<?xml version="1.0" encoding="utf-8" ?><svg xmlns="http://www.w3.org/2000/svg" xmlns:xlink="http://www.w3.org/1999/xlink" width="151" height="151" viewBox="0 0 151 151"><path fill="#181716" d="M0 75.0419C0.781085 73.9417 0.473102 68.8249 0.704851 67.2039C1.0963 64.4658 1.51224 61.8396 2.10697 59.1164C8.31057 31.0624 30.0024 9.02178 57.9539 2.37153C77.4277 -2.22572 97.929 1.05158 114.999 11.4907C131.829 21.8648 143.893 38.4517 148.579 57.6583C153.323 77.2523 150.047 97.9294 139.48 115.098C129.029 131.991 112.319 144.063 92.9981 148.679C73.4807 153.302 52.9257 149.968 35.87 139.413C19.0261 128.998 6.98139 112.347 2.36043 93.0899C1.49195 89.331 0.897347 85.5141 0.581299 81.6692C0.467863 80.1075 0.651786 77.0898 0 75.9554L0 75.0419Z"/><path fill="#C30821" d="M74.4195 6.92728C112.286 6.32951 143.47 36.5358 144.078 74.4018C144.687 112.268 114.489 143.46 76.6234 144.08C38.7425 144.699 7.53469 114.487 6.926 76.6056C6.3173 38.7245 36.5383 7.52529 74.4195 6.92728Z"/><path fill="#181716" d="M65.8253 17.3173C67.0402 17.0831 70.3754 17.6609 71.6525 17.8325C95.76 21.0706 118.647 33.2446 123.562 58.9656C125.751 70.4229 124.819 81.4667 118.177 91.5094C112.49 100.109 105.058 105.815 94.9311 107.947C89.3932 109.081 83.9703 108.773 78.4588 107.741C80.6062 106.222 82.7753 104.684 84.8528 103.072C99.7975 91.4767 112.386 70.6642 105.477 51.3807C100.138 36.4766 85.7907 26.3738 71.935 20.0503C69.9047 19.1238 67.8432 18.2911 65.8253 17.3173Z"/><path fill="#181716" d="M60.677 29.8495C61.0973 29.7636 63.2313 29.7293 63.7445 29.7172C70.2515 29.5487 76.7032 30.9508 82.5532 33.8047C92.5531 38.6844 97.6477 47.0867 101.132 57.2301C85.2529 49.0047 67.3051 44.3438 49.9514 51.7941C40.1232 56.0135 34.0983 64.1163 30.3734 73.9388C26.4565 83.9644 25.3162 101.267 27.8168 111.723C23.4267 104.321 21.434 93.9028 20.073 85.4636C15.8751 59.4341 33.3141 32.9394 60.677 29.8495Z"/><path fill="#181716" d="M45.5034 63.4295C45.7236 63.5705 45.9636 63.8478 45.9921 64.1104C47.4704 77.7309 51.1978 89.7083 60.2822 100.49C81.0916 125.189 111.476 112.211 131.979 94.3945C129.832 98.2492 124.36 104.863 121.47 108.148C112.185 117.715 101.223 125.997 87.5514 127.689C75.1996 129.217 61.3565 125.777 51.5229 118.019C43.1888 111.319 37.8127 101.62 36.5481 91.0016C35.3353 80.6617 39.1956 71.4138 45.5034 63.4295Z"/></svg>