<?xml version="1.0" encoding="utf-8"?>
<!-- Generator: Adobe Illustrator 25.2.0, SVG Export Plug-In . SVG Version: 6.00 Build 0)  -->
<svg version="1.1" id="Layer_1" xmlns="http://www.w3.org/2000/svg" xmlns:xlink="http://www.w3.org/1999/xlink" x="0px" y="0px"
	 viewBox="0 0 151 151" style="enable-background:new 0 0 151 151;" xml:space="preserve">
<style type="text/css">
	.st0{fill:#FEFEFE;}
</style>
<path d="M72.3,0h6.1l0.1,0c2,0.7,6.6,1,8.9,1.4c2.9,0.5,5.3,1,8.2,1.8c21.4,6,39,21.1,48.3,41.3c2.4,5.2,3.8,9.9,5.1,15.5
	c0.6,2.5,1.3,10.8,2,12.2v7l0,0.1c-0.6,1.5-1.3,7.6-1.7,9.8c-0.4,2.5-1,5-1.7,7.4c-7.9,26.4-28.7,46-55.3,52.3
	c-2.3,0.5-11.7,1.6-12.9,2.3h-7.6c-1.1-0.6-7.7-1.3-9.5-1.6c-2.7-0.4-5.3-1-7.9-1.7c-24.9-7.3-44.2-26.9-51.2-51.8
	C2.6,93.5,2,91,1.6,88.5C1.3,86.6,0.8,80,0,78.7v-6.4c0.6-1,1.8-11.5,2.6-14.4c1.4-5.2,1.9-7.3,4.2-12.5
	C15.7,24.7,33.4,9.2,55.1,3.2c4-1.1,8-1.8,12.1-2.3C68.6,0.7,70.9,0.6,72.3,0L72.3,0z"/>
<path class="st0" d="M55.5,25.6c0.9-0.2,4.4-0.2,5.4-0.2c12.5,0.3,24.3,5.5,33,14.5c10.5,10.9,13.3,22,13.1,36.6
	c-12.4,0.3-26,0.1-38.5,0C78,91.5,88.4,106.2,98,121.3c2.4,3.7,5,7.9,7.6,11.4c-2.8,1.5-5.9,2.8-8.9,3.9c-4.2,1.6-10,2.8-14.5,3.2
	c-17,1.8-34-3.2-47.3-13.9c-13.3-10.7-21.7-26.2-23.5-43.1C10,67.9,12.6,55.2,22.2,43.5C30.7,33,42.1,27,55.5,25.6z"/>
</svg>
