<?xml version="1.0" encoding="utf-8" ?><svg xmlns="http://www.w3.org/2000/svg" xmlns:xlink="http://www.w3.org/1999/xlink" width="151" height="151" viewBox="0 0 151 151"><path fill="#9F6628" d="M72.3227 0L78.4816 0C79.9182 0.802951 88.3864 1.47404 90.7511 1.94731C107.229 5.24514 119.405 13.2135 131.032 24.8701L133.332 27.5275C136.164 30.8113 139.383 35.866 141.502 39.6353C144.112 44.7333 146.176 49.333 147.783 54.8756L148.816 59.142C149.633 62.0173 150.262 70.4764 151 71.5669L151 79.4176C150.521 80.4616 150.426 81.5783 150.298 82.706C149.764 87.4243 149.146 92.0722 147.803 96.6476C141.036 119.235 124.185 137.412 102.174 145.868C98.1145 147.461 94.0749 148.304 89.9064 149.286C87.7982 149.783 80.8096 150.352 79.7197 151L71.5371 151C70.2441 150.164 64.1612 149.937 62.4224 149.619C29.5833 143.619 3.38086 116.193 0.803877 82.6311C0.713254 81.4509 0.49042 79.4798 0 78.4052L0 72.5733C0.204564 72.2716 2.29646 58.574 2.89304 56.2496C9.77028 30.4069 29.8475 10.1564 55.6301 3.0573C57.7617 2.48034 59.9196 2.00505 62.0963 1.63302C63.8167 1.3491 71.2171 0.736735 72.3227 0Z"/><path fill="#FEFEFE" d="M74.547 44.0708C86.1857 43.7001 95.1422 45.2904 104.879 52.0543C140.541 77.1001 127.754 130.216 86.008 139.142C83.0929 139.766 79.8564 139.89 76.8828 139.959C62.4444 140.298 49.6654 136.146 37.8411 128.016C27.1026 120.334 18.9679 109.554 14.5267 97.1196C8.25523 79.3615 10.3418 62.0696 18.3269 45.3683C19.9887 46.7102 23.704 49.0494 25.6074 50.3148L40.579 60.1618C51.2937 67.1977 63.7265 75.8534 74.5349 82.3652C74.3351 69.933 74.3834 56.5128 74.547 44.0708Z"/></svg>