<?xml version="1.0" encoding="utf-8"?>
<!-- Generator: Adobe Illustrator 25.2.0, SVG Export Plug-In . SVG Version: 6.00 Build 0)  -->
<svg version="1.1" id="Layer_1" xmlns="http://www.w3.org/2000/svg" xmlns:xlink="http://www.w3.org/1999/xlink" x="0px" y="0px"
	 viewBox="0 0 151 151" style="enable-background:new 0 0 151 151;" xml:space="preserve">
<style type="text/css">
	.st0{fill:#282627;}
	.st1{fill:#F9EB4D;}
</style>
<path class="st0" d="M0,75.1c0.7-1,0.6-7,0.8-8.7c0.3-2.5,0.8-4.9,1.3-7.4C8.3,31.2,29.8,9.3,57.4,2.5c19.4-4.7,39.9-1.6,57.1,8.7
	c17,10.3,29.2,26.8,34,46c4.8,19.5,1.7,40.1-8.6,57.3c-10.3,17-26.9,29.2-46.1,34c-19.5,4.8-40.1,1.7-57.3-8.7
	c-17-10.3-29.2-26.9-34-46.2c-1.3-5.6-2-10.7-2-16.4c0-0.4-0.2-0.9-0.4-1.2V75.1z"/>
<path class="st1" d="M107.9,136.1c-29.1,14.1-61,9.7-83.3-14.6C-11.9,81.5,11,16.3,64.7,7.7c56.9-9.1,99.1,52.5,70.2,102.2
	c-4.5,7.7-9.4,12.9-16,18.8c0.4,1,0.5,0.9,0.4,1.8c-1.7,2.5-7.2,5.5-9.9,6.9L107.9,136.1z"/>
<path d="M46,29.9c20,13.4,40.4,27.9,60.2,41.6c0.5,2.8,0.3,8.2,0.3,11.3l0.2,15.5c0.1,10.6,0,9.9,5.3,18.8c2.3,3.8,4.6,7.7,6.8,11.6
	c0.4,1,0.5,0.9,0.4,1.8c-1.7,2.5-7.2,5.5-9.9,6.9l-1.5-1.4c-1.3-2.3-12.9-17.6-14.2-18.6c-2.7-2.2-8.1-4-11.5-5.5l-22.1-10
	c-0.6-2.1-1.2-5.6-1.6-7.8l-2.8-14.6L46,29.9z"/>
<path class="st1" d="M56.5,43.9c0.9,0.4,6.8,5.4,8,6.4l22,17.9c3.1,2.5,8.7,7.3,11.8,9.5l-6.3,7l-5.5,6.1L66.7,59.8
	C63.4,54.7,59.6,49.1,56.5,43.9z"/>
</svg>
