<?xml version="1.0" encoding="utf-8" ?><svg xmlns="http://www.w3.org/2000/svg" xmlns:xlink="http://www.w3.org/1999/xlink" width="151" height="151" viewBox="0 0 151 151"><path fill="#272526" d="M0 75.0598C0.729609 74.0251 0.596635 68.0256 0.820092 66.3861C1.15724 63.9125 1.57698 61.5525 2.1081 59.0962C8.3029 31.1767 29.8341 9.20885 57.6235 2.4548C77.0721 -2.23217 97.5848 0.952142 114.697 11.3147C131.633 21.6448 143.799 38.2501 148.544 57.5118C153.312 76.9916 150.136 97.5678 139.716 114.703C129.519 131.352 112.677 143.994 93.6354 148.533C73.998 153.335 53.2555 150.084 36.0296 139.503C19.1308 129.103 7.02849 112.445 2.36151 93.1593C1.09554 87.777 0.45611 82.7196 0.434378 77.2183C0.432724 76.7996 0.25161 76.2782 0 75.9371L0 75.0598Z"/><path fill="#9FCFEF" d="M73.9409 6.92456C111.803 6.06338 143.199 36.0494 144.078 73.9112C144.956 111.773 114.985 143.183 77.1232 144.079C39.2373 144.975 7.80262 114.98 6.92356 77.0936C6.0445 39.2072 36.0541 7.7863 73.9409 6.92456Z"/><path fill="#272526" d="M94.7803 73.4707C110.118 72.1455 119.042 60.2339 124.069 46.8215C123.427 55.6663 122.46 61.2247 119.76 69.8203C111.951 92.846 95.9255 110.615 75.3158 123.035C68.5508 119.726 58.5507 111.248 53.3958 105.931C41.1535 93.3059 32.1132 77.4973 28.6226 60.1865C27.9198 56.7014 27.0704 51.4362 27.1423 47.8763C27.7134 48.4877 29.4263 53.196 30.0826 54.4005C35.2705 63.9223 44.1652 72.9518 55.7775 73.2871C60.4213 82.4764 66.4723 92.0375 75.333 97.6289C84.4471 91.3683 89.7602 83.1517 94.7803 73.4707Z"/><path fill="#272526" d="M75.2687 27.9258C76.042 28.455 79.8586 32.4706 80.7987 33.3977C85.6169 38.1493 90.3287 43.1249 95.2411 47.774C91.5045 55.3212 87.7153 62.8423 83.8738 70.3367C81.333 75.2989 77.5526 82.4195 75.4111 87.4765C68.2858 75.5127 62.1451 60.2253 55.1114 47.9811C61.8862 41.4541 68.5197 34.5293 75.2687 27.9258Z"/></svg>