<svg xmlns="http://www.w3.org/2000/svg" viewBox="0 0 999.9 1000.06"><defs><style>.cls-1{fill:#c21f25;}.cls-2{fill:#020000;}</style></defs><g id="Black_Circle" data-name="Black Circle"><path d="M517.6.28C234.9-9,4.8,212.78,0,509.28c3.6,123.8,48.4,242.4,142.8,339.5S354,997.58,488.5,1000c275,4.7,503.4-205.1,511.2-486.3C1007.5,231.38,788.8,9.18,517.6.28Z" transform="translate(0 0)"/></g><g id="Red_Circle" data-name="Red Circle"><path class="cls-1" d="M506,41.18c-254.6-3.4-464.5,204-463.6,459.5-1.2,244.3,198,457.7,457.9,457.5H502c252.3-.2,456.7-205,456.5-457.5C958.8,244.08,753,44.48,506,41.18Z" transform="translate(0 0)"/></g><g id="Black_Elements" data-name="Black Elements"><g id="Black_elements-2" data-name="Black elements"><path class="cls-2" d="M695,367.68c-12.9-10-24.1-19-35.5-27.7-44.7-34.2-95.4-53.7-150.9-61.3-70.4-9.8-134.9,6.5-197.2,40-53,28.4-87.4,72.9-116.5,122.7-23.1,39.4-33.6,83-38,128.3-3.9,39.2-1.2,77.8,4.2,116.6a291.67,291.67,0,0,1,3.3,47.6,26,26,0,0,1-1.7,10.7,34.15,34.15,0,0,1-11.5-17.1c-15.9-44.9-34.6-89-41.4-136.5a435.53,435.53,0,0,1-2.3-110,466.7,466.7,0,0,1,33.1-130.9C152.4,322,170.5,298,190.2,275c49.2-57.5,113.2-89.1,186-103.6,69.2-13.9,135.2-.6,198.3,29.2,56.4,26.7,91.9,72.2,113.5,129.5A126.91,126.91,0,0,1,695,367.68Z" transform="translate(0 0)"/><path class="cls-2" d="M302,382.28a119.42,119.42,0,0,1-2.2,31c-14.3,84.1,6,160.5,51.5,230.9,25.9,40.2,62.7,68.8,102.7,93.9s83.6,34.7,129.8,38.9c79.8,7.1,150.1-17.6,216.8-58.6,23.4-14.4,43.7-32.9,66.4-48.1a181.59,181.59,0,0,1,30.3-15.7,10.59,10.59,0,0,1-3.1,8.2c-15.5,23.6-35.5,43.6-53.6,65-46.6,54.7-105.3,92.1-172,117.2-43.1,16.3-87.4,28.3-134.1,27.1-58-1.6-112.1-16.3-161.2-48.2-40.8-26.5-76.6-57.9-102.7-99.4a334.57,334.57,0,0,1-48-131.4c-4.1-28.8-5-57.7,2-85.9,11.4-46.3,32.6-87.4,68.9-119.6A16,16,0,0,1,302,382.28Z" transform="translate(0 0)"/><path class="cls-2" d="M515.4,719.38c14.7-6.1,28.6-12.2,42.6-17.8,59.4-23.7,105.2-63.8,141.9-115.7,29.4-41.7,44.7-88.2,50.5-138.5,3-26.1,4.7-52.1,1.4-78.1-3.1-24-11.6-46.7-20.3-69.2-15.1-38.6-35.6-74.1-64.3-104.1a377.83,377.83,0,0,0-90.7-69.8c-27.2-15.2-55.5-28.1-83.8-40.8-9.3-4.1-15.9-11.5-24.8-19.2a218.07,218.07,0,0,1,45.4,6.3c32.6,7,65.7,13.1,97.2,24.6,40.6,14.6,77.1,36.7,111.4,62.6A424.49,424.49,0,0,1,819,260.08c18.2,26.8,28.1,57.4,38.6,87.7A175.2,175.2,0,0,1,866,396c3.7,63-3.5,124.5-33.3,181-32.2,61.1-78.2,109.6-140.9,140.4a212.08,212.08,0,0,1-84,20.6,188.84,188.84,0,0,1-84.4-13.5A17.05,17.05,0,0,1,515.4,719.38Z" transform="translate(0 0)"/></g></g></svg>