<svg xmlns="http://www.w3.org/2000/svg" viewBox="0 0 1000 1000"><defs><style>.cls-1{fill:#020202;}.cls-2{fill:#a5a7a9;}.cls-3{fill:#010101;}</style></defs><g id="Black_Circle" data-name="Black Circle"><circle class="cls-1" cx="500" cy="500" r="500"/></g><g id="Grey_Circle" data-name="Grey Circle"><path class="cls-2" d="M497.9,957.9C244.6,957.8,39.3,752.4,39.4,499.1S244.8,40.6,498.1,40.6,956.7,246,956.6,499.3v1.8C955.8,751.7,750.6,958.6,497.9,957.9ZM807.8,386.8a968.08,968.08,0,0,0-5-101.2c-.4-3.7-1.5-5-5-4.8-40.2.6-79.4-7.6-118.5-16.2-63.1-13.9-122.8-36.4-177-72.2-5-3.3-7.8-1.2-11.3,1.6a273.22,273.22,0,0,1-62.8,38c-47.5,20.9-97.9,30.1-149.1,35.2-24.2,2.4-48.4,4.3-72.7,6.3-2.8.3-4.4,1.2-5,4.3a223.81,223.81,0,0,0-2.6,28.3c0,20.6,1.5,41.2,2.5,61.8,1.4,29,2,58.1,5,87.1a493.86,493.86,0,0,0,24.4,111.4,622.64,622.64,0,0,0,80.8,157.5,537.1,537.1,0,0,0,69.9,84.2c35.6,33.8,78,56.5,123.2,74.3a7.76,7.76,0,0,0,7.5-.9c28.2-16.4,56.5-32.6,83.1-51.6a405.48,405.48,0,0,0,109-114.4,702.82,702.82,0,0,0,67-142.6c22.5-64.2,37.3-129.8,36.6-186.1Z"/></g><g id="Grey_Shield_Fillers" data-name="Grey Shield Fillers"><path class="cls-2" d="M748,409.9c1.5,57.4-15.1,109.8-43.8,158.9-1.7,2.8-2.9,3.7-6.3,2.6-85.4-28.8-166.8-65.3-242-114.7-19.6-12.9-39.5-25.7-55.7-43.2-19.5-21-32.3-45.2-33.3-74.6a111.72,111.72,0,0,1,2.4-25.8c.8-4.2,3.8-5,6.9-6a819.68,819.68,0,0,0,88.4-33.6c10-4.7,20.1-10,29.6-15.4a9.39,9.39,0,0,1,9.7-.3A617.66,617.66,0,0,0,615.6,303a818.39,818.39,0,0,0,104.8,23.7q8.55,1.5,17.1,2.7a4.27,4.27,0,0,1,4.3,4.3A606.83,606.83,0,0,1,748,409.9Z"/><path class="cls-2" d="M288.8,446.8a25.09,25.09,0,0,1,14.2,3.3c46.2,28.7,94.6,53.3,142,79.7,38.2,21.4,76.2,43.2,110.9,70a203.11,203.11,0,0,1,65.9,86c5.7,14.2,1.5,26.3-5.8,38-8.5,13.7-21.6,23.3-33.3,34a284.61,284.61,0,0,1-53,40.2,35.41,35.41,0,0,1-34.8,1.4c-51.2-25.1-95.9-57.6-130-104.2a466.06,466.06,0,0,1-80.4-176.7c-4.1-18.5-10.3-36.6-10-55.8v-2.5C274.8,447.1,275.2,446.9,288.8,446.8Z"/></g><g id="Black_Shield_Element" data-name="Black Shield Element"><path class="cls-3" d="M807.8,386.8c.7,56.3-14.2,121.9-36.7,186.1a697.51,697.51,0,0,1-67,142.6,405.48,405.48,0,0,1-109,114.4c-26.6,19-54.9,35.2-83.1,51.6a7.76,7.76,0,0,1-7.5.9c-45.2-17.9-87.6-40.6-123.2-74.3a537.1,537.1,0,0,1-69.9-84.2,622.64,622.64,0,0,1-80.8-157.5A495.06,495.06,0,0,1,206.2,455c-2.9-29-3.6-58-5-87.1-1-20.6-2.6-41.2-2.5-61.8a223.81,223.81,0,0,1,2.6-28.3c.5-3.2,2.1-4.1,5-4.3,24.3-2.1,48.5-4,72.7-6.3,51.2-5,101.6-14.2,149.1-35.2a275.36,275.36,0,0,0,62.8-38c3.5-2.8,6.4-5,11.3-1.6,54.2,35.8,113.9,58.3,177,72.2,39.1,8.6,78.2,16.8,118.5,16.2,3.7,0,5,1.1,5,4.8C805.8,315.2,807.6,344.8,807.8,386.8ZM748,409.9a595.81,595.81,0,0,0-5.9-76.6,4.33,4.33,0,0,0-4.3-4.3q-8.55-1.2-17.1-2.7a819.68,819.68,0,0,1-105-23.2A625,625,0,0,1,504,257.9a9,9,0,0,0-9.7.3c-9.7,5.4-19.5,10.7-29.6,15.4a819.68,819.68,0,0,1-88.4,33.6c-3.1,1-6.1,1.8-6.9,6A112.24,112.24,0,0,0,367,339c1.1,29.3,13.8,53.6,33.3,74.6,16.2,17.4,36,30.1,55.7,43.2,75.4,49.6,156.9,86,242,114.7,3.4,1.1,4.6,0,6.3-2.6C732.7,519.7,749.5,467.3,748,409.9ZM288.7,446.8c-13.5,0-13.8.3-14,13.5v2.5c-.5,19.2,5.7,37.3,10,55.8a466.06,466.06,0,0,0,80.4,176.7c34.2,46.6,78.8,79.3,130,104.2a35.39,35.39,0,0,0,34.8-1.4,284.61,284.61,0,0,0,53-40.2c11.7-10.7,24.7-20.1,33.3-34,7.3-11.7,11.5-23.8,5.8-38a203.18,203.18,0,0,0-65.9-86.5c-34.7-26.8-72.7-48.6-110.9-70-47.4-26.4-95.9-51-142-79.7A26,26,0,0,0,288.7,446.8Z"/></g></svg>