<?xml version="1.0" encoding="utf-8"?>
<!-- Generator: Adobe Illustrator 25.2.0, SVG Export Plug-In . SVG Version: 6.00 Build 0)  -->
<svg version="1.1" xmlns="http://www.w3.org/2000/svg" xmlns:xlink="http://www.w3.org/1999/xlink" x="0px" y="0px"
	 viewBox="0 0 1000 1000" style="enable-background:new 0 0 1000 1000;" xml:space="preserve">
<style type="text/css">
	.st0{fill:#020201;}
	.st1{fill:#F8EA4C;}
</style>
<g id="Black_Arrow">
	<path class="st0" d="M0,499.3C1.6,220.1,227-3.4,505.2,0c280.9,3.3,501.1,231.2,494.7,512.1c-6.2,274.3-230.3,494.9-513.4,487.7
		C216.2,992.8,1.1,773.6,0,499.3z M700.9,613.5v105c-0.3,11.6,3,23,9.4,32.6c23.9,34.9,48,69.8,71.7,104.7c2.7,3.9,4.6,4,8.2,1.1
		c32.4-25.2,61-55,84.8-88.5c44.8-63,73.2-136.2,82.4-213c5.2-39.9,5-80.4-0.7-120.3c-10.1-71.8-37.3-140.1-79.3-199.2
		c-57.8-81.2-133.2-139-227.7-171.7C409.1-18.2,147.2,110,64.7,350.7C41,419.9,34.1,493.7,44.6,566c6.5,46.6,20.3,91.8,40.9,134.1
		c68.9,142.6,206,240,363.4,258c36.8,4.2,73.9,3.8,110.6-1.1c51.1-6.5,100.7-21.5,146.8-44.4c4.4-2.1,5.8-3.4,2.4-7.9
		c-23.5-31.1-46.9-62.4-70.1-93.7c-9.3-12.8-21.9-22.8-36.4-29c-59-25.4-117.5-52-176.6-77c-19.7-7-33.8-24.6-36.4-45.3
		c-6-34.5-12.8-68.8-19.4-103.2c-16.4-86.5-32.9-173-49.4-259.5c-4.4-21.5-9.9-42.8-10.6-65c0-5.5,1.1-6.4,6.1-4.4
		c20,8.5,39,19.1,56.7,31.8C477.9,334,583.3,408.4,688.5,483c8.2,5.1,12.9,14.2,12.3,23.8C700.9,542.4,700.9,578,700.9,613.5
		L700.9,613.5z M368.5,297.1c2,2.9,4.1,5.6,6,8.5c66.4,98.6,131.3,198.3,196.6,297.7c3.6,5.5,5.6,6.6,10.6,1.1
		c22.6-24.6,45.5-49,68.7-73.2c4.4-4.4,4.1-6.5-0.7-10.3c-22.3-17.4-44.4-35.7-66.5-53.6L376.5,299.8
		C374.4,298.2,372.5,294.9,368.5,297.1z"/>
</g>
<g id="Yellow_Fill">
	<path class="st1" d="M700.9,613.5c0-35.6,0-71.1,0-106.6c0.6-9.6-4.2-18.8-12.3-23.8c-105.4-74.4-210.7-148.9-315.9-223.5
		C355,247,336,236.3,316,227.9c-5.1-2.1-6.3-1.3-6.1,4.4c0.7,22.2,6.4,43.6,10.6,65c16.6,86.4,33,172.8,49.4,259.2
		c6.5,34.4,13.4,68.7,19.4,103.2c3.8,22.2,15.3,36.4,36.4,45.3c59.1,25,117.7,51.5,176.6,77c14.5,6.2,27.1,16.2,36.4,29
		c23.3,31.3,46.6,62.6,70.1,93.7c3.4,4.4,1.8,5.8-2.4,7.9c-46.1,22.9-95.8,37.9-146.8,44.4c-36.7,4.9-73.9,5.3-110.6,1.1
		C291.5,940,154.3,842.6,85.4,700C64.8,657.7,51,612.5,44.5,565.9C7.9,314.2,182.2,80.5,433.8,43.9C606.1,18.8,777.9,93.1,877.5,236
		c42,59.1,69.2,127.4,79.3,199.2c5.7,39.9,5.9,80.4,0.7,120.3c-9.3,76.7-37.7,149.9-82.5,212.9c-23.8,33.5-52.4,63.3-84.8,88.5
		c-3.6,2.8-5.5,2.8-8.2-1.1c-23.8-34.9-48-69.8-71.7-104.7c-6.5-9.6-9.8-21-9.4-32.6C701,683.5,700.9,648.5,700.9,613.5z"/>
	<path class="st1" d="M368.5,297.1c4-2.1,5.9,1,8,2.7c69,55.7,137.9,111.6,206.8,167.4c22.2,17.9,44.2,36,66.5,53.4
		c4.8,3.8,4.9,5.9,0.7,10.3c-23.1,24.2-46,48.6-68.7,73.2c-5,5.5-7,4.4-10.6-1.1c-65.5-99.3-130.3-199-196.8-297.6
		C372.6,302.5,370.6,299.9,368.5,297.1z"/>
</g>
</svg>
