<?xml version="1.0" encoding="utf-8"?>
<!-- Generator: Adobe Illustrator 25.2.0, SVG Export Plug-In . SVG Version: 6.00 Build 0)  -->
<svg version="1.1" id="Layer_1" xmlns="http://www.w3.org/2000/svg" xmlns:xlink="http://www.w3.org/1999/xlink" x="0px" y="0px"
	 viewBox="0 0 1000 1000" style="enable-background:new 0 0 1000 1000;" xml:space="preserve">
<style type="text/css">
	.st0{fill:#020202;}
	.st1{fill:#A5A7A9;}
	.st2{fill:#010101;}
</style>
<g id="Black_Circle">
	<circle class="st0" cx="500" cy="500" r="500"/>
</g>
<g id="Grey_Circle">
	<path class="st1" d="M497.9,957.9C244.6,957.8,39.3,752.4,39.4,499.1S244.8,40.6,498.1,40.6S956.7,246,956.6,499.3v1.8
		C955.8,751.7,750.6,958.6,497.9,957.9z M807.8,386.8c0.1-33.8-1.6-67.6-5-101.2c-0.4-3.7-1.5-5-5-4.8
		c-40.2,0.6-79.4-7.6-118.5-16.2c-63.1-13.9-122.8-36.4-177-72.2c-5-3.3-7.8-1.2-11.3,1.6c-19.1,15.4-40.3,28.2-62.8,38
		c-47.5,20.9-97.9,30.1-149.1,35.2c-24.2,2.4-48.4,4.3-72.7,6.3c-2.8,0.3-4.4,1.2-5,4.3c-1.5,9.4-2.3,18.8-2.6,28.3
		c0,20.6,1.5,41.2,2.5,61.8c1.4,29,2,58.1,5,87.1c3.8,38,12,75.3,24.4,111.4c19.3,56.1,46.5,109.1,80.8,157.5
		c20.4,30.4,43.8,58.6,69.9,84.2c35.6,33.8,78,56.5,123.2,74.3c2.5,1,5.3,0.7,7.5-0.9c28.2-16.4,56.5-32.6,83.1-51.6
		c43.5-30.6,80.5-69.5,109-114.4c27.6-44.9,50.1-92.7,67-142.6C793.7,508.7,808.5,443.1,807.8,386.8L807.8,386.8z"/>
</g>
<g id="Grey_Shield_Fillers">
	<path class="st1" d="M748,409.9c1.5,57.4-15.1,109.8-43.8,158.9c-1.7,2.8-2.9,3.7-6.3,2.6c-85.4-28.8-166.8-65.3-242-114.7
		c-19.6-12.9-39.5-25.7-55.7-43.2c-19.5-21-32.3-45.2-33.3-74.6c-0.2-8.7,0.6-17.3,2.4-25.8c0.8-4.2,3.8-5,6.9-6
		c30.1-9.5,59.6-20.7,88.4-33.6c10-4.7,20.1-10,29.6-15.4c2.9-1.9,6.7-2,9.7-0.3c35.7,18.7,73.1,33.8,111.7,45.2
		c34.4,10.2,69.4,18.1,104.8,23.7c5.7,1,11.4,1.9,17.1,2.7c2.4,0,4.3,1.9,4.3,4.2c0,0,0,0,0,0.1C745.5,358.9,747.5,384.4,748,409.9z
		"/>
	<path class="st1" d="M288.8,446.8c5-0.3,9.9,0.8,14.2,3.3c46.2,28.7,94.6,53.3,142,79.7c38.2,21.4,76.2,43.2,110.9,70
		c29.3,22.2,52.1,51.9,65.9,86c5.7,14.2,1.5,26.3-5.8,38c-8.5,13.7-21.6,23.3-33.3,34c-16,15.4-33.8,28.9-53,40.2
		c-10.6,6.5-23.8,7.1-34.8,1.4c-51.2-25.1-95.9-57.6-130-104.2c-38.9-52.6-66.3-112.8-80.4-176.7c-4.1-18.5-10.3-36.6-10-55.8v-2.5
		C274.8,447.1,275.2,446.9,288.8,446.8z"/>
</g>
<g id="Black_Shield_Element">
	<path class="st2" d="M807.8,386.8c0.7,56.3-14.2,121.9-36.7,186.1c-16.9,49.9-39.4,97.7-67,142.6c-28.5,44.9-65.5,83.8-109,114.4
		c-26.6,19-54.9,35.2-83.1,51.6c-2.2,1.6-5,1.9-7.5,0.9c-45.2-17.9-87.6-40.6-123.2-74.3c-26.1-25.6-49.5-53.8-69.9-84.2
		c-34.3-48.4-61.5-101.4-80.8-157.5c-12.4-36.1-20.6-73.5-24.4-111.4c-2.9-29-3.6-58-5-87.1c-1-20.6-2.6-41.2-2.5-61.8
		c0.3-9.5,1.1-18.9,2.6-28.3c0.5-3.2,2.1-4.1,5-4.3c24.3-2.1,48.5-4,72.7-6.3c51.2-5,101.6-14.2,149.1-35.2
		c22.5-9.8,43.7-22.6,62.8-38c3.5-2.8,6.4-5,11.3-1.6c54.2,35.8,113.9,58.3,177,72.2c39.1,8.6,78.2,16.8,118.5,16.2
		c3.7,0,5,1.1,5,4.8C805.8,315.2,807.6,344.8,807.8,386.8z M748,409.9c-0.3-25.6-2.3-51.2-5.9-76.6c0-2.4-1.9-4.3-4.3-4.3
		c-5.7-0.8-11.4-1.7-17.1-2.7c-35.5-5.4-70.5-13.2-105-23.2c-38.6-11.4-76-26.6-111.7-45.2c-3-1.8-6.8-1.7-9.7,0.3
		c-9.7,5.4-19.5,10.7-29.6,15.4c-28.8,12.9-58.3,24.1-88.4,33.6c-3.1,1-6.1,1.8-6.9,6c-1.8,8.5-2.6,17.1-2.4,25.8
		c1.1,29.3,13.8,53.6,33.3,74.6c16.2,17.4,36,30.1,55.7,43.2c75.4,49.6,156.9,86,242,114.7c3.4,1.1,4.6,0,6.3-2.6
		C732.7,519.7,749.5,467.3,748,409.9z M288.7,446.8c-13.5,0-13.8,0.3-14,13.5v2.5c-0.5,19.2,5.7,37.3,10,55.8
		c14.1,63.9,41.5,124.1,80.4,176.7c34.2,46.6,78.8,79.3,130,104.2c11,5.7,24.2,5.1,34.8-1.4c19.2-11.3,37-24.8,53-40.2
		c11.7-10.7,24.7-20.1,33.3-34c7.3-11.7,11.5-23.8,5.8-38c-13.7-34.3-36.5-64.2-65.9-86.5c-34.7-26.8-72.7-48.6-110.9-70
		c-47.4-26.4-95.9-51-142-79.7C298.7,447.4,293.7,446.3,288.7,446.8z"/>
</g>
</svg>
