<svg xmlns="http://www.w3.org/2000/svg" viewBox="0 0 1000 1000"><defs><style>.cls-1{fill:#010102;}.cls-2{fill:#9fcff0;}</style></defs><g id="Black_Circle" data-name="Black Circle"><path class="cls-1" d="M500,0C223.86,0,0,223.86,0,500s223.86,500,500,500,500-223.86,500-500S776.14,0,500,0Zm-.7,955.3c-252.62,0-457.4-204.78-457.4-457.4S246.68,40.5,499.3,40.5,956.7,245.28,956.7,497.9,751.92,955.3,499.3,955.3Z"/></g><g id="Blue_circle" data-name="Blue circle"><path class="cls-2" d="M499.3,40.5C246.68,40.5,41.9,245.28,41.9,497.9S246.68,955.3,499.3,955.3,956.7,750.52,956.7,497.9,751.92,40.5,499.3,40.5ZM362.5,325.1c40-23.7,70.5-57.4,99.3-93,11-13.6,22.3-27,33-40.8,4.1-5.2,7.8-4.7,12.4-1.6a66.5,66.5,0,0,1,15.1,16.2c25.8,34.1,52.5,67.3,85.6,94.8a204.66,204.66,0,0,0,31.8,22.8c5.4,3,5.9,5.4,2.4,10.6-31.1,46.3-61.5,93-88,142.3a712.84,712.84,0,0,0-43.5,95.4c-2.2,6.4-2.2,6.4-8.6,6.5-3.6.7-6.1-.6-7.7-5.1-24.8-69.8-62.5-132.8-102.5-194.7q-14.85-23-30.1-45.8C359.7,329.7,358.3,327.6,362.5,325.1ZM757.3,589.5a744.33,744.33,0,0,1-90.4,118A795.56,795.56,0,0,1,543.2,816.4c-9.8,7-18.6,15.5-28.9,22-8,5-14.5,5.9-23.3-.3-61.1-42.8-118.1-90.2-167.2-146.6-33.8-38.7-65.2-79.4-88.9-125.3a572.54,572.54,0,0,1-51.5-141.3c-4.9-21.1-4.2-43.1-5.2-65.4,7.3,13.1,14.5,26.2,21.8,39.2,14.1,25.4,30.4,49,54.1,66.7s51.2,27.2,79.6,34.5c9.3,2.4,18.5,5.5,27.8,7.7a13.74,13.74,0,0,1,10.2,9.3A343.27,343.27,0,0,0,447.4,630a380.25,380.25,0,0,0,42.8,35.3c8.4,6.2,16.2,5.9,24.5,0A333.17,333.17,0,0,0,634,515a13.67,13.67,0,0,1,11.7-9.4,313.65,313.65,0,0,0,72.2-21.3,165,165,0,0,0,76.7-68.2c10.8-18.2,21-36.8,31.4-55.3a36.24,36.24,0,0,1,2.5-3.6c1,22,.5,42.3-4.5,62.2C809.2,478.9,789.2,536.7,757.3,589.5Z"/></g><g id="Black_elements" data-name="Black elements"><path class="cls-1" d="M178.2,359.5c7.3,13.1,14.5,26.2,21.8,39.2,14.1,25.4,30.4,49,54.1,66.7s51.2,27.2,79.6,34.5c9.3,2.4,18.5,5.5,27.8,7.7a13.74,13.74,0,0,1,10.2,9.3A343.27,343.27,0,0,0,447.4,630a380.25,380.25,0,0,0,42.8,35.3c8.4,6.2,16.2,5.9,24.5,0A333.17,333.17,0,0,0,634,515a13.67,13.67,0,0,1,11.7-9.4,313.65,313.65,0,0,0,72.2-21.3,165,165,0,0,0,76.7-68.2c10.8-18.2,21-36.8,31.4-55.3a36.24,36.24,0,0,1,2.5-3.6c1,22,.5,42.3-4.5,62.2-14.8,59.5-34.8,117.3-66.7,170.1a744.33,744.33,0,0,1-90.4,118A795.56,795.56,0,0,1,543.2,816.4c-9.8,7-18.6,15.5-28.9,22-8,5-14.5,5.9-23.3-.3-61.1-42.8-118.1-90.2-167.2-146.6-33.8-38.7-65.2-79.4-88.9-125.3a572.54,572.54,0,0,1-51.5-141.3C178.5,403.8,179.2,381.8,178.2,359.5Z"/><path class="cls-1" d="M502,578.3c-3.6.7-6.1-.6-7.7-5.1-24.8-69.8-62.5-132.8-102.5-194.7q-14.85-23-30.1-45.8c-2-3-3.4-5.1.8-7.6,40-23.7,70.5-57.4,99.3-93,11-13.6,22.3-27,33-40.8,4.1-5.2,7.8-4.7,12.4-1.6a66.5,66.5,0,0,1,15.1,16.2c25.8,34.1,52.5,67.3,85.6,94.8a204.66,204.66,0,0,0,31.8,22.8c5.4,3,5.9,5.4,2.4,10.6-31.1,46.3-61.5,93-88,142.3a712.84,712.84,0,0,0-43.5,95.4C508.4,578.2,508.4,578.2,502,578.3Z"/></g></svg>