<?xml version="1.0" encoding="utf-8"?>
<!-- Generator: Adobe Illustrator 25.2.0, SVG Export Plug-In . SVG Version: 6.00 Build 0)  -->
<svg version="1.1" xmlns="http://www.w3.org/2000/svg" xmlns:xlink="http://www.w3.org/1999/xlink" x="0px" y="0px"
	 viewBox="0 0 1000 1000" style="enable-background:new 0 0 1000 1000;" xml:space="preserve">
<style type="text/css">
	.st0{fill:#9ABD49;}
	.st1{fill:#010100;}
</style>
<g id="Black_circle">
	<g>
		<path d="M500,0C223.9,0,0,223.9,0,500s223.9,500,500,500s500-223.9,500-500S776.1,0,500,0z M502.3,959.1
			c-252.8,0-457.8-205-457.8-457.8s205-457.8,457.8-457.8s457.8,205,457.8,457.8S755.1,959.1,502.3,959.1z"/>
	</g>
</g>
<g id="Green_Circle">
	<path class="st0" d="M502.3,43.5c-252.8,0-457.8,205-457.8,457.8s205,457.8,457.8,457.8s457.8-205,457.8-457.8
		S755.1,43.5,502.3,43.5z M765.4,684.1c-28.8,66-78.7,107.6-145.6,131.2c-36.7,13-74.4,14.4-112.7,12.4c-27.4-1.1-54.6-4.5-81.4-10
		c-54-12-96.8-41.7-133.9-81.1c-35.4-37.7-62.7-82.2-80.2-130.9c-7.2-20.2-9.3-41.5-10.5-62.7c-3.8-58.3,6-116.6,28.8-170.4
		c1.2-3.9,3.2-7.6,6-10.6c2.3,16.2,4.2,31.3,6.5,46.3c8.1,54,20.2,106.5,48.5,154c26.5,45,61.6,84.3,103.1,115.9
		c31.1,23.6,67.6,34.3,106,39.2c33,4.2,65.7,4.3,97.7-6.1c44.3-14.4,76.2-42.6,85.7-89.2c8.3-41.5-6.3-64.2-39.4-82.4
		c2.4,12.5,4.5,23.6,6.8,34.7c0.9,2.6,0.9,5.4,0,8c-11.8,27.4-30.3,46.2-61.7,48.4c-12.4,1.6-25-1.6-35.2-8.7
		c-35.6-26.1-46.1-68.7-25.5-107.5c18.2-34.4,44.8-59,85-63.6c34.9-4,66.7,5.5,95.2,26.2c35.7,26,59.3,59.7,68.4,103.3
		C784.2,615.4,780.2,651.6,765.4,684.1z M816.5,600.1c-4.2,18.4-10.7,36.1-19.2,52.9c-6.7-20.1-10.6-41-11.6-62.2
		c-5.8-81.2-36.2-152.1-88.6-213.8c-16.9-20.5-36.1-38.9-57.4-54.8c-31.3-22.7-66.6-34.4-104.4-39.8c-30.7-4.8-62-3.3-92,4.5
		c-48.4,13.1-77.7,44.7-88.8,93.1c-3.7,16.1-1.8,33,5.4,47.8c6,12.6,18,18.3,29.6,26.3c1-9.9-1.1-18.6-2.1-27.2
		c-2.6-23.2,13.6-46.8,36-53.7c13.5-4.2,26.9-8.8,41.3-5.4c18.8,4.4,30.7,17.3,40.2,33c16.2,26.7,17.7,53.7,2.2,81.6
		c-12.6,22.7-28.8,41.8-52,53.5c-29.6,15-60.5,13-90.2,1.7c-51-19.6-85.1-55.8-101.4-109c-14-45.7-4.7-87.8,15.9-129
		c34.7-69.4,93.2-106.5,166.9-122.6c44.9-9.8,90-6.9,135,0.8c40.2,6.8,78,19.8,112.1,43.2c25.3,17.5,47.8,38.7,66.8,62.9
		c32.4,40.4,56.4,84.8,67.5,135.7c7.2,32.7,8.2,66.4,2.8,99.5C826.1,546.2,823.3,573.4,816.5,600.1z"/>
</g>
<g id="Black_Elements">
	<path class="st1" d="M797.3,653c-6.7-20.1-10.6-41-11.6-62.2c-5.8-81.2-36.2-152.1-88.6-213.8c-16.9-20.5-36.1-38.9-57.4-54.8
		c-31.3-22.7-66.6-34.4-104.4-39.8c-30.7-4.8-62-3.3-92,4.5c-48.4,13.1-77.7,44.7-88.8,93.1c-3.7,16.1-1.8,33,5.4,47.8
		c6,12.6,18,18.3,29.6,26.3c1-9.9-1.1-18.6-2.1-27.2c-2.6-23.2,13.6-46.8,36-53.7c13.5-4.2,26.9-8.8,41.3-5.4
		c18.8,4.4,30.7,17.3,40.2,33c16.2,26.7,17.7,53.7,2.2,81.6c-12.6,22.7-28.8,41.8-52,53.5c-29.6,15-60.5,13-90.2,1.7
		c-51-19.6-85.1-55.8-101.4-109c-14-45.7-4.7-87.8,15.9-129c34.7-69.4,93.2-106.5,166.9-122.6c44.9-9.8,90-6.9,135,0.8
		c40.2,6.8,78,19.8,112.1,43.2c25.3,17.5,47.8,38.7,66.8,62.9c32.4,40.4,56.4,84.8,67.5,135.7c7.2,32.7,8.2,66.4,2.8,99.5
		c-4.4,27.1-7.2,54.3-14,81C812.3,618.5,805.8,636.2,797.3,653z"/>
	<path class="st1" d="M644,539.7c2.4,12.5,4.5,23.6,6.8,34.7c0.9,2.6,0.9,5.4,0,8c-11.8,27.4-30.3,46.2-61.7,48.4
		c-12.4,1.6-25-1.6-35.2-8.7c-35.6-26.1-46.1-68.7-25.5-107.5c18.2-34.4,44.8-59,85-63.6c34.9-4,66.7,5.5,95.2,26.2
		c35.7,26,59.3,59.7,68.4,103.3c7.2,34.9,3.2,71.1-11.6,103.6c-28.8,66-78.7,107.6-145.6,131.2c-36.7,13-74.4,14.4-112.7,12.4
		c-27.4-1.1-54.6-4.5-81.4-10c-54-12-96.8-41.7-133.9-81.1c-35.4-37.7-62.7-82.2-80.2-130.9c-7.2-20.2-9.3-41.5-10.5-62.7
		c-3.8-58.3,6-116.6,28.8-170.4c1.2-3.9,3.2-7.6,6-10.6c2.3,16.2,4.2,31.3,6.5,46.3c8.1,54,20.2,106.5,48.5,154
		c26.5,45,61.6,84.3,103.1,115.9c31.1,23.6,67.6,34.3,106,39.2c33,4.2,65.7,4.3,97.7-6.1c44.3-14.4,76.2-42.6,85.7-89.2
		C691.7,580.6,677.1,557.9,644,539.7z"/>
</g>
</svg>
