<svg xmlns="http://www.w3.org/2000/svg" viewBox="0 0 41.5 41.5"><defs><style>.cls-1{fill:#1f9e38;}.cls-2{fill:#fff;}</style></defs><g id="Layer_3" data-name="Layer 3"><circle class="cls-1" cx="20.75" cy="20.71" r="20.03"/><path class="cls-2" d="M27.48,17a8.38,8.38,0,0,1-1.87,5.58,6,6,0,0,1-4.84,2.24h-2v8.47H15.11V10.2h7.11a4.6,4.6,0,0,1,4,2A8.38,8.38,0,0,1,27.48,17Zm-3.61.25a4.46,4.46,0,0,0-.7-2.78,2.93,2.93,0,0,0-2.39-.86c-.46,0-1.14.05-2.05.14v7.79c.15,0,.49,0,1,.05s.77.05,1,.05a2.71,2.71,0,0,0,2.34-1.44A5.6,5.6,0,0,0,23.87,17.23Z"/></g></svg>