<svg xmlns="http://www.w3.org/2000/svg" viewBox="0 0 41.5 41.5"><defs><style>.cls-1{fill:#734a94;}.cls-2{fill:#fff;}</style></defs><g id="Layer_3" data-name="Layer 3"><circle class="cls-1" cx="20.75" cy="20.71" r="20.03"/><path class="cls-2" d="M26.42,26.67a7.74,7.74,0,0,1-1.71,5.08,5.38,5.38,0,0,1-4.36,2.09,10.89,10.89,0,0,1-2.68-.43,7,7,0,0,1-2.46-1V28.87A5.32,5.32,0,0,0,17.41,30a8.67,8.67,0,0,0,2.48.47,3.38,3.38,0,0,0,2.17-.69,2.6,2.6,0,0,0,1-2.16,4,4,0,0,0-2-3.32q-3.69-2.55-3.78-2.63a7.15,7.15,0,0,1-2-5.33,7.26,7.26,0,0,1,1.62-4.71,5,5,0,0,1,4-2,9,9,0,0,1,4.4,1.26v2.6a21.09,21.09,0,0,0-2.85-.43,4.85,4.85,0,0,0-2.52.61A2.58,2.58,0,0,0,18.6,16c0,1,.68,2,2,3,2.28,1.66,3.53,2.59,3.74,2.81A6.63,6.63,0,0,1,26.42,26.67Z"/></g></svg>