<svg xmlns="http://www.w3.org/2000/svg" viewBox="0 0 41.5 41.5"><defs><style>.cls-1{fill:#4789c7;}.cls-2{fill:#fff;}</style></defs><g id="Layer_3" data-name="Layer 3"><circle class="cls-1" cx="20.75" cy="20.71" r="20.03"/><path class="cls-2" d="M28.26,33.27H23.87l-4.75-9.92h-.87v9.92H14.63V10.2H22A4.37,4.37,0,0,1,25.64,12a6.81,6.81,0,0,1,1.3,4.25,8.62,8.62,0,0,1-1,4.29,4.54,4.54,0,0,1-3.27,2.38ZM23.32,16.76q0-3.24-2.7-3.24a11.54,11.54,0,0,0-1.17.07c-.63.05-1,.07-1.2.07v7l.94.07a8,8,0,0,0,1,.08,2.77,2.77,0,0,0,2.35-1.27A4.67,4.67,0,0,0,23.32,16.76Z"/></g></svg>