<svg id="Layer_1" data-name="Layer 1" xmlns="http://www.w3.org/2000/svg" viewBox="0 0 40.06 40.06"><defs><style>.cls-1{fill:#878887;}.cls-2{isolation:isolate;}.cls-3{fill:#fff;}</style></defs><g id="Layer_3" data-name="Layer 3"><circle class="cls-1" cx="20.03" cy="20.03" r="20.03"/></g><g class="cls-2"><path class="cls-3" d="M27.9541,27.0684a6.3415,6.3415,0,0,1-1.56,4.5791A5.5928,5.5928,0,0,1,22.166,33.27H14.8975V10.1963h7.8466a4.4111,4.4111,0,0,1,3.4258,1.478,5.4907,5.4907,0,0,1,1.334,3.8218,5.9693,5.9693,0,0,1-1.1582,3.7676,5.76,5.76,0,0,1-3.15,2.0371Q27.9532,22.2025,27.9541,27.0684ZM23.3877,16.7578a2.9582,2.9582,0,0,0-.6748-1.9829,2.1809,2.1809,0,0,0-1.7373-.793,8.0229,8.0229,0,0,0-.9649.0723q-.74.0724-.9326.0718v5.5522q.6109.0726,1.8335.18a2.0385,2.0385,0,0,0,1.8013-.8833A3.6483,3.6483,0,0,0,23.3877,16.7578Zm.3857,9.8789a3.7991,3.7991,0,0,0-.74-2.3984,2.5146,2.5146,0,0,0-2.0254-.99q-.2893,0-1.93.18V29.34a15.3046,15.3046,0,0,0,1.7368.1446,3.0725,3.0725,0,0,0,2.09-.7569A2.6283,2.6283,0,0,0,23.7734,26.6367Z" transform="translate(-0.72 -0.68)"/></g></svg>