<svg xmlns="http://www.w3.org/2000/svg" viewBox="0 0 41.5 41.5"><defs><style>.cls-1{fill:#8a8a89;}.cls-2{fill:#fff;}</style></defs><g id="Layer_3" data-name="Layer 3"><circle class="cls-1" cx="20.75" cy="20.71" r="20.03"/><path class="cls-2" d="M27.66,32.47A11.4,11.4,0,0,1,22,33.84q-3.84,0-6.12-4.11a16.39,16.39,0,0,1-1.94-8.07,15.91,15.91,0,0,1,2-8c1.5-2.66,3.55-4,6.15-4a8.5,8.5,0,0,1,5,1.52v2.7a10.44,10.44,0,0,0-3.78-1.05,4.82,4.82,0,0,0-4.49,3,13.43,13.43,0,0,0-1.23,6.06,13.72,13.72,0,0,0,1,5.69,4.33,4.33,0,0,0,4.11,2.92,12.62,12.62,0,0,0,5-1Z"/></g></svg>